<svg xmlns="http://www.w3.org/2000/svg" xmlns:xlink="http://www.w3.org/1999/xlink" width="1080" zoomAndPan="magnify" viewBox="0 0 810 809.999993" height="1080" preserveAspectRatio="xMidYMid meet" version="1.0"><defs><clipPath id="63b3799f63"><path d="M 419 560 L 435 560 L 435 588.390625 L 419 588.390625 Z M 419 560 " clip-rule="nonzero"/></clipPath><clipPath id="4ea224c99b"><path d="M 454 560 L 470 560 L 470 588.390625 L 454 588.390625 Z M 454 560 " clip-rule="nonzero"/></clipPath></defs><path fill="#1d1d1b" d="M 430.355469 573.445312 C 429.140625 573.445312 427.976562 572.761719 427.417969 571.59375 C 426.574219 569.828125 406.699219 528.230469 402.148438 513.929688 C 398.425781 502.253906 390.269531 442.210938 389.921875 439.660156 C 389.683594 437.875 390.929688 436.234375 392.710938 435.996094 C 394.496094 435.746094 396.132812 437 396.371094 438.78125 C 396.457031 439.402344 404.800781 500.808594 408.34375 511.953125 C 412.761719 525.824219 433.082031 568.355469 433.289062 568.78125 C 434.0625 570.402344 433.378906 572.347656 431.757812 573.121094 C 431.304688 573.34375 430.828125 573.445312 430.355469 573.445312 " fill-opacity="1" fill-rule="nonzero"/><path fill="#1d1d1b" d="M 327.066406 492.128906 C 326.289062 492.128906 325.507812 491.851562 324.882812 491.285156 C 323.550781 490.078125 323.449219 488.019531 324.648438 486.6875 C 325.453125 485.800781 344.296875 464.929688 348.667969 460.4375 C 351.085938 457.910156 358.996094 436.226562 365.246094 416.71875 C 365.792969 415.007812 367.632812 414.066406 369.335938 414.613281 C 371.046875 415.164062 371.988281 416.996094 371.441406 418.710938 C 368.347656 428.382812 357.882812 460.300781 353.328125 464.984375 C 349.039062 469.390625 329.675781 490.835938 329.480469 491.050781 C 328.835938 491.765625 327.949219 492.128906 327.066406 492.128906 " fill-opacity="1" fill-rule="nonzero"/><path fill="#575756" d="M 318.375 487.058594 C 321.640625 490.964844 336.203125 495.089844 339.585938 475.257812 C 339.585938 475.257812 314.863281 482.855469 318.375 487.058594 " fill-opacity="1" fill-rule="nonzero"/><path fill="#1d1d1b" d="M 326.570312 491.902344 L 326.566406 491.902344 C 322.292969 491.902344 318.691406 489.921875 317.152344 488.082031 C 316.480469 487.28125 316.277344 486.300781 316.566406 485.316406 C 317.972656 480.570312 334.183594 475.25 339.121094 473.734375 L 341.59375 472.972656 L 341.15625 475.527344 C 338.632812 490.304688 330.117188 491.902344 326.570312 491.902344 Z M 319.660156 486.109375 C 320.800781 487.394531 323.5625 488.710938 326.566406 488.710938 C 331.835938 488.710938 335.648438 484.796875 337.46875 477.609375 C 328.296875 480.640625 320.390625 484.386719 319.660156 486.109375 " fill-opacity="1" fill-rule="nonzero"/><path fill="#b9e2f6" d="M 392.699219 396.703125 C 392.699219 396.703125 314.089844 260.367188 370.066406 238.644531 C 408.152344 223.863281 413.234375 374.25 392.699219 396.703125 " fill-opacity="1" fill-rule="nonzero"/><path fill="#95d4f3" d="M 387.066406 387.011719 C 387.066406 387.011719 343.464844 284.097656 370.84375 273.695312 C 398.226562 263.292969 401.792969 370.914062 387.066406 387.011719 " fill-opacity="1" fill-rule="nonzero"/><path fill="#1d1d1b" d="M 392.402344 399.382812 L 391.316406 397.5 C 391.179688 397.257812 377.269531 373.03125 365.425781 343.777344 C 349.441406 304.265625 344.632812 274.855469 351.144531 256.363281 C 354.410156 247.074219 360.582031 240.613281 369.492188 237.15625 C 371.421875 236.410156 373.335938 236.03125 375.1875 236.03125 C 382.640625 236.03125 389.023438 241.941406 394.152344 253.601562 C 401.726562 270.824219 406.339844 301.308594 406.199219 333.167969 C 406.085938 358.007812 402.792969 388.023438 393.875 397.777344 Z M 375.1875 239.21875 C 373.730469 239.21875 372.203125 239.523438 370.644531 240.132812 C 362.640625 243.234375 357.09375 249.054688 354.144531 257.421875 C 340.425781 296.40625 385.039062 379.632812 392.910156 393.832031 C 405.976562 374.246094 407.523438 291.925781 391.234375 254.890625 C 386.664062 244.488281 381.265625 239.21875 375.1875 239.21875 " fill-opacity="1" fill-rule="nonzero"/><path fill="#b9e2f6" d="M 390.207031 384.132812 C 390.207031 384.132812 423.09375 221.644531 480.960938 244.453125 C 520.335938 259.972656 421.601562 381.476562 390.207031 384.132812 " fill-opacity="1" fill-rule="nonzero"/><path fill="#95d4f3" d="M 392.488281 379.472656 C 392.488281 379.472656 417.570312 255.523438 461.714844 272.921875 C 491.75 284.757812 416.433594 377.441406 392.488281 379.472656 " fill-opacity="1" fill-rule="nonzero"/><path fill="#1d1d1b" d="M 388.226562 385.902344 L 388.644531 383.820312 C 389.832031 377.972656 418.214844 240.664062 469.902344 240.664062 C 473.746094 240.664062 477.664062 241.4375 481.546875 242.96875 C 487.109375 245.160156 493.316406 250.675781 491.292969 264.5 C 488.167969 285.878906 467.136719 317.03125 448.496094 339.054688 C 430.933594 359.796875 405.167969 384.464844 390.339844 385.722656 Z M 469.902344 243.851562 C 424.277344 243.851562 396.226562 364.035156 392.257812 382.179688 C 404.050781 379.328125 425.164062 361.679688 446.0625 336.992188 C 469.488281 309.320312 485.609375 281.367188 488.144531 264.039062 C 489.542969 254.46875 487.003906 248.546875 480.378906 245.933594 C 476.871094 244.550781 473.34375 243.851562 469.902344 243.851562 " fill-opacity="1" fill-rule="nonzero"/><path fill="#b9e2f6" d="M 394.390625 385.328125 C 394.390625 385.328125 432.902344 356.554688 472.882812 341.476562 C 574.480469 303.160156 563.222656 376.398438 511.050781 388.910156 C 484.007812 395.394531 443.816406 394.34375 394.390625 385.328125 " fill-opacity="1" fill-rule="nonzero"/><path fill="#95d4f3" d="M 394.390625 385.328125 C 394.390625 385.328125 421.253906 368.664062 460.789062 352.460938 C 531.265625 323.578125 550.128906 373.578125 497.960938 386.09375 C 470.914062 392.578125 443.816406 394.34375 394.390625 385.328125 " fill-opacity="1" fill-rule="nonzero"/><path fill="#1d1d1b" d="M 469.726562 394.65625 C 447.769531 394.65625 422.328125 392.046875 394.105469 386.894531 L 390.507812 386.242188 L 393.4375 384.050781 C 393.828125 383.761719 432.589844 354.96875 472.316406 339.984375 C 491.824219 332.628906 508.390625 328.898438 521.550781 328.898438 C 546.59375 328.898438 550.855469 342.113281 551.523438 347.789062 C 553.359375 363.3125 537.683594 384.160156 511.421875 390.460938 C 499.8125 393.246094 485.785156 394.65625 469.726562 394.65625 Z M 398.367188 384.421875 C 424.929688 389.097656 448.921875 391.46875 469.726562 391.46875 C 485.535156 391.46875 499.3125 390.085938 510.683594 387.359375 C 530.140625 382.691406 550.402344 365.445312 548.367188 348.164062 C 547.160156 337.949219 537.386719 332.085938 521.550781 332.085938 C 508.773438 332.085938 492.589844 335.746094 473.441406 342.96875 C 440.5 355.390625 408.195312 377.433594 398.367188 384.421875 " fill-opacity="1" fill-rule="nonzero"/><path fill="#868686" d="M 340.953125 397.867188 C 340.953125 397.867188 477.003906 542.679688 529.679688 538.324219 C 592.640625 533.117188 456.695312 376.511719 358.933594 376.765625 C 268.976562 376.996094 340.953125 397.867188 340.953125 397.867188 " fill-opacity="1" fill-rule="nonzero"/><path fill="#6f6f6e" d="M 340.953125 397.867188 C 340.953125 397.867188 480.511719 551.90625 538.203125 536.078125 C 577.988281 525.15625 453.113281 382.148438 355.355469 382.402344 C 265.398438 382.632812 340.953125 397.867188 340.953125 397.867188 " fill-opacity="1" fill-rule="nonzero"/><path fill="#575756" d="M 340.953125 397.867188 C 340.953125 397.867188 474.808594 544.4375 536.292969 537.988281 C 560.875 535.410156 421.78125 391.3125 359.3125 391.3125 C 269.351562 391.3125 340.953125 397.867188 340.953125 397.867188 " fill-opacity="1" fill-rule="nonzero"/><path fill="#1d1d1b" d="M 527.976562 539.964844 L 527.972656 539.964844 C 504.898438 539.957031 466.191406 516.1875 412.914062 469.3125 C 375.394531 436.304688 343.511719 402.878906 340.09375 399.277344 C 331.035156 396.628906 311.195312 390.027344 312.132812 383.324219 C 312.695312 379.351562 318.691406 375.277344 358.929688 375.171875 L 359.167969 375.171875 C 440.925781 375.171875 546.203125 482.289062 547.355469 522.910156 C 547.648438 533.214844 541.398438 539.253906 529.773438 539.917969 C 529.183594 539.949219 528.582031 539.964844 527.976562 539.964844 Z M 359.167969 378.359375 L 358.9375 378.359375 C 318.101562 378.464844 315.414062 382.882812 315.289062 383.765625 C 314.929688 386.332031 327.128906 392.199219 341.398438 396.339844 L 341.816406 396.457031 L 342.113281 396.773438 C 343.433594 398.175781 474.613281 536.765625 527.972656 536.773438 L 527.976562 536.773438 C 528.523438 536.773438 529.058594 536.757812 529.589844 536.730469 C 539.644531 536.160156 544.414062 531.667969 544.167969 523.003906 C 543.617188 503.347656 517.636719 467.539062 480.996094 435.921875 C 438.59375 399.339844 394.191406 378.359375 359.167969 378.359375 " fill-opacity="1" fill-rule="nonzero"/><path fill="#1d1d1b" d="M 360.105469 512.902344 C 359.667969 512.902344 359.222656 512.816406 358.796875 512.628906 C 357.152344 511.90625 356.40625 509.980469 357.128906 508.335938 C 357.722656 506.984375 371.691406 475.183594 374.492188 469.554688 C 376.027344 466.40625 376.933594 443.335938 376.925781 422.859375 C 376.925781 421.0625 378.382812 419.597656 380.175781 419.597656 L 380.179688 419.597656 C 381.976562 419.597656 383.433594 421.054688 383.433594 422.855469 C 383.4375 433.011719 383.230469 466.601562 380.320312 472.457031 C 377.589844 477.949219 363.230469 510.628906 363.085938 510.957031 C 362.550781 512.175781 361.355469 512.902344 360.105469 512.902344 " fill-opacity="1" fill-rule="nonzero"/><path fill="#1d1d1b" d="M 464.125 569.121094 C 463.085938 569.121094 462.066406 568.625 461.4375 567.699219 C 460.347656 566.105469 434.621094 528.429688 427.375 515.375 C 421.398438 504.605469 407.28125 458.636719 406.679688 456.683594 C 406.15625 454.964844 407.121094 453.144531 408.835938 452.621094 C 410.554688 452.085938 412.375 453.054688 412.902344 454.773438 C 413.046875 455.25 427.417969 502.039062 433.0625 512.210938 C 440.164062 525 466.542969 563.636719 466.808594 564.023438 C 467.824219 565.507812 467.441406 567.535156 465.960938 568.550781 C 465.394531 568.9375 464.757812 569.121094 464.125 569.121094 " fill-opacity="1" fill-rule="nonzero"/><path fill="#6f6f6e" d="M 304.75 355.390625 L 365.144531 355.390625 C 365.144531 355.390625 408.933594 421.167969 304.75 434.136719 C 295.371094 435.300781 245.140625 462.894531 218.175781 462.894531 C 218.175781 462.894531 318.03125 444.679688 295.371094 385.050781 C 281.335938 348.128906 304.75 355.390625 304.75 355.390625 " fill-opacity="1" fill-rule="nonzero"/><path fill="#575756" d="M 304.75 355.390625 L 353.667969 355.390625 C 353.667969 355.390625 408.933594 421.167969 304.75 434.136719 C 295.371094 435.300781 245.140625 462.894531 218.175781 462.894531 C 218.175781 462.894531 304.75 447.316406 297.914062 385.050781 C 293.605469 345.78125 304.75 355.390625 304.75 355.390625 " fill-opacity="1" fill-rule="nonzero"/><path fill="#1d1d1b" d="M 218.808594 467.679688 C 218.109375 467.679688 217.472656 467.214844 217.277344 466.511719 C 217.042969 465.679688 217.515625 464.8125 218.339844 464.5625 C 218.613281 464.476562 245.816406 455.960938 274.453125 436.722656 C 290.964844 425.628906 297.65625 407.855469 293.796875 385.324219 C 291.164062 369.941406 291.726562 359.894531 295.464844 355.453125 C 296.910156 353.738281 298.839844 352.832031 301.039062 352.832031 C 302.875 352.832031 304.421875 353.449219 305.136719 353.800781 L 365.144531 353.800781 C 365.675781 353.800781 366.175781 354.0625 366.46875 354.507812 C 367.132812 355.507812 382.648438 379.238281 372.429688 401.554688 C 364.132812 419.679688 341.429688 431.175781 304.945312 435.714844 C 300.984375 436.210938 288.550781 441.339844 274.152344 447.285156 C 256.171875 454.710938 233.792969 463.949219 219.199219 467.628906 C 219.066406 467.660156 218.9375 467.679688 218.808594 467.679688 Z M 301.039062 356.019531 C 299.769531 356.019531 298.746094 356.507812 297.902344 357.511719 C 295.765625 360.046875 293.863281 366.832031 296.9375 384.78125 C 301.023438 408.648438 293.859375 427.523438 276.230469 439.371094 C 269.957031 443.585938 263.75 447.292969 257.867188 450.511719 C 263.046875 448.421875 268.152344 446.3125 272.941406 444.335938 C 288.148438 438.0625 300.160156 433.097656 304.554688 432.554688 C 339.867188 428.15625 361.730469 417.277344 369.535156 400.222656 C 378.078125 381.554688 366.707031 361.027344 364.257812 356.984375 L 304.75 356.984375 C 304.472656 356.984375 304.195312 356.910156 303.957031 356.773438 C 303.949219 356.769531 302.601562 356.019531 301.039062 356.019531 " fill-opacity="1" fill-rule="nonzero"/><path fill="#1d1d1b" d="M 327.648438 431.394531 L 325.472656 428.972656 C 327.363281 427.261719 332.390625 422.085938 332.945312 418.660156 L 336.15625 419.179688 C 335.320312 424.347656 328.429688 430.6875 327.648438 431.394531 " fill-opacity="1" fill-rule="nonzero"/><path fill="#1d1d1b" d="M 328.171875 420.066406 C 335.367188 418.917969 340.992188 420.066406 340.992188 420.066406 C 334.550781 414.773438 328.105469 420.074219 328.171875 420.066406 " fill-opacity="1" fill-rule="nonzero"/><path fill="#ffffff" d="M 316.179688 377.226562 C 314.40625 393.386719 303.648438 405.457031 292.152344 404.191406 C 280.660156 402.929688 272.777344 388.800781 274.554688 372.644531 C 276.328125 356.484375 287.085938 344.410156 298.582031 345.675781 C 310.078125 346.941406 317.957031 361.066406 316.179688 377.226562 " fill-opacity="1" fill-rule="nonzero"/><path fill="#1d1d1b" d="M 311.121094 376.765625 C 310.574219 381.707031 307.28125 385.40625 303.769531 385.015625 C 300.253906 384.628906 297.839844 380.304688 298.382812 375.363281 C 298.921875 370.421875 302.21875 366.726562 305.734375 367.109375 C 309.253906 367.5 311.660156 371.824219 311.121094 376.765625 " fill-opacity="1" fill-rule="nonzero"/><path fill="#1d1d1b" d="M 293.8125 405.878906 C 293.203125 405.878906 292.585938 405.847656 291.976562 405.78125 C 279.628906 404.417969 271.105469 389.476562 272.972656 372.46875 C 274.753906 356.234375 285.050781 343.988281 296.925781 343.988281 C 297.535156 343.988281 298.148438 344.023438 298.757812 344.09375 C 304.84375 344.761719 310.167969 348.667969 313.75 355.089844 C 317.230469 361.335938 318.660156 369.261719 317.765625 377.402344 C 315.980469 393.636719 305.6875 405.878906 293.8125 405.878906 Z M 296.925781 347.179688 C 286.847656 347.179688 277.714844 358.4375 276.140625 372.816406 C 274.457031 388.074219 281.726562 401.441406 292.328125 402.609375 C 292.816406 402.664062 293.320312 402.6875 293.8125 402.6875 C 303.886719 402.6875 313.019531 391.429688 314.597656 377.050781 C 315.421875 369.5625 314.132812 362.316406 310.964844 356.644531 C 307.902344 351.148438 303.441406 347.816406 298.410156 347.261719 C 297.917969 347.207031 297.417969 347.179688 296.925781 347.179688 " fill-opacity="1" fill-rule="nonzero"/><path fill="#ffffff" d="M 365.871094 375.234375 C 362.613281 396.761719 347.5625 412.332031 332.253906 410.011719 C 316.941406 407.691406 307.164062 388.367188 310.414062 366.839844 C 313.667969 345.3125 328.714844 329.746094 344.03125 332.0625 C 359.34375 334.382812 369.121094 353.710938 365.871094 375.234375 " fill-opacity="1" fill-rule="nonzero"/><path fill="#1d1d1b" d="M 359.121094 374.339844 C 358.121094 380.925781 353.519531 385.691406 348.835938 384.984375 C 344.152344 384.273438 341.15625 378.359375 342.152344 371.769531 C 343.148438 365.1875 347.75 360.421875 352.4375 361.132812 C 357.121094 361.84375 360.117188 367.757812 359.121094 374.339844 " fill-opacity="1" fill-rule="nonzero"/><path fill="#1d1d1b" d="M 335.289062 411.832031 C 334.199219 411.832031 333.09375 411.753906 332.011719 411.585938 C 324.085938 410.386719 317.316406 404.972656 312.953125 396.347656 C 308.675781 387.902344 307.222656 377.335938 308.84375 366.601562 C 311.972656 345.875 325.792969 330.242188 340.992188 330.242188 C 342.085938 330.242188 343.1875 330.324219 344.269531 330.484375 C 360.425781 332.929688 370.820312 353.109375 367.441406 375.476562 C 364.308594 396.203125 350.488281 411.832031 335.289062 411.832031 Z M 340.992188 333.429688 C 327.355469 333.429688 314.890625 347.894531 311.992188 367.078125 C 310.464844 377.164062 311.816406 387.042969 315.792969 394.90625 C 319.679688 402.589844 325.609375 407.394531 332.496094 408.433594 C 333.417969 408.574219 334.355469 408.644531 335.289062 408.644531 C 348.925781 408.644531 361.394531 394.175781 364.289062 374.996094 C 367.40625 354.371094 358.210938 335.824219 343.792969 333.636719 C 342.867188 333.5 341.925781 333.429688 340.992188 333.429688 " fill-opacity="1" fill-rule="nonzero"/><path fill="#575756" d="M 344.777344 523.488281 C 349.03125 526.292969 364.164062 526.042969 361.703125 506.078125 C 361.703125 506.078125 340.203125 520.480469 344.777344 523.488281 " fill-opacity="1" fill-rule="nonzero"/><path fill="#1d1d1b" d="M 349.945312 526.359375 C 347.621094 526.359375 345.363281 525.785156 343.90625 524.824219 C 343.03125 524.25 342.550781 523.367188 342.546875 522.339844 C 342.53125 517.390625 356.527344 507.625 360.820312 504.75 L 362.96875 503.3125 L 363.285156 505.878906 C 364.164062 513.027344 362.988281 518.484375 359.789062 522.101562 C 356.523438 525.808594 352.21875 526.359375 349.945312 526.359375 Z M 345.738281 522.210938 C 346.496094 522.671875 347.996094 523.167969 349.945312 523.167969 C 351.683594 523.167969 354.960938 522.757812 357.402344 519.992188 C 359.554688 517.558594 360.554688 513.765625 360.351562 508.9375 C 352.4375 514.484375 345.941406 520.347656 345.738281 522.210938 " fill-opacity="1" fill-rule="nonzero"/><path fill="#575756" d="M 422.523438 586.800781 C 427.613281 586.984375 440.417969 578.910156 427.960938 563.121094 C 427.960938 563.121094 417.054688 586.605469 422.523438 586.800781 " fill-opacity="1" fill-rule="nonzero"/><g clip-path="url(#63b3799f63)"><path fill="#1d1d1b" d="M 422.699219 588.394531 L 422.46875 588.394531 C 421.425781 588.355469 420.558594 587.855469 420.023438 586.976562 C 417.441406 582.757812 424.339844 567.136719 426.515625 562.449219 L 427.601562 560.097656 L 429.207031 562.132812 C 436.132812 570.910156 435.425781 577.222656 433.613281 580.972656 C 431.132812 586.09375 425.738281 588.394531 422.699219 588.394531 Z M 422.683594 585.210938 L 422.699219 585.210938 C 424.929688 585.210938 428.96875 583.253906 430.742188 579.582031 C 432.527344 575.898438 431.671875 571.328125 428.285156 566.265625 C 424.398438 575.125 421.886719 583.511719 422.683594 585.210938 " fill-opacity="1" fill-rule="nonzero"/></g><path fill="#575756" d="M 457.621094 586.800781 C 462.707031 586.984375 475.511719 578.910156 463.050781 563.121094 C 463.050781 563.121094 452.148438 586.605469 457.621094 586.800781 " fill-opacity="1" fill-rule="nonzero"/><g clip-path="url(#4ea224c99b)"><path fill="#1d1d1b" d="M 457.792969 588.394531 L 457.5625 588.394531 C 456.523438 588.355469 455.652344 587.855469 455.117188 586.976562 C 452.53125 582.757812 459.433594 567.136719 461.609375 562.449219 L 462.695312 560.097656 L 464.304688 562.132812 C 471.226562 570.910156 470.519531 577.222656 468.703125 580.972656 C 466.226562 586.09375 460.832031 588.394531 457.792969 588.394531 Z M 457.777344 585.210938 L 457.792969 585.210938 C 460.019531 585.210938 464.058594 583.253906 465.835938 579.582031 C 467.617188 575.898438 466.765625 571.328125 463.378906 566.265625 C 459.488281 575.125 456.980469 583.511719 457.777344 585.210938 " fill-opacity="1" fill-rule="nonzero"/></g><path fill="#1d1d1b" d="M 432.308594 400.257812 C 431.347656 399.71875 430.390625 399.1875 429.429688 398.660156 C 428.570312 403.164062 426.917969 409.277344 423.757812 415.710938 C 416.613281 430.261719 405.046875 440.359375 389.328125 445.859375 C 388.320312 446.207031 390.90625 448.691406 391.933594 448.300781 C 420.585938 437.464844 429.53125 413.371094 432.308594 400.257812 " fill-opacity="1" fill-rule="nonzero"/><path fill="#1d1d1b" d="M 461.613281 418.953125 C 460.609375 418.242188 459.605469 417.535156 458.597656 416.835938 C 458.382812 420.59375 457.398438 429.695312 452.9375 439.671875 C 446.09375 454.972656 434.347656 465.695312 417.988281 471.640625 C 416.425781 472.207031 419.171875 474.632812 420.730469 474.015625 C 454.460938 460.765625 460.523438 429.945312 461.613281 418.953125 " fill-opacity="1" fill-rule="nonzero"/><path fill="#1d1d1b" d="M 489.722656 440.882812 C 488.980469 440.257812 488.246094 439.632812 487.5 439.007812 L 486.605469 439.023438 C 486.605469 439.136719 486.699219 450.675781 480.882812 463.679688 C 474.007812 479.050781 462.191406 489.792969 445.730469 495.722656 C 445.730469 495.722656 447.527344 498.496094 449.570312 497.664062 C 484.941406 483.230469 489.210938 449.28125 489.722656 440.882812 " fill-opacity="1" fill-rule="nonzero"/><path fill="#1d1d1b" d="M 513.582031 465.765625 C 513.128906 470.277344 511.828125 477.980469 508.105469 486.300781 C 501.738281 500.535156 491.117188 510.796875 476.496094 516.945312 C 474.664062 517.714844 477.910156 519.84375 479.539062 519.09375 C 507.25 506.417969 514.472656 481.398438 516.351562 468.96875 C 515.445312 467.90625 514.523438 466.832031 513.582031 465.765625 " fill-opacity="1" fill-rule="nonzero"/></svg>