<svg xmlns="http://www.w3.org/2000/svg" xmlns:xlink="http://www.w3.org/1999/xlink" width="1080" zoomAndPan="magnify" viewBox="0 0 810 809.999993" height="1080" preserveAspectRatio="xMidYMid meet" version="1.0"><path fill="#000000" d="M 289.074219 468.460938 C 290.300781 469.46875 292.113281 469.289062 293.121094 468.066406 C 294.128906 466.835938 293.949219 465.027344 292.722656 464.015625 C 271.710938 439.074219 248.742188 436.566406 218.816406 434.28125 C 217.238281 434.167969 215.851562 435.351562 215.734375 436.933594 C 215.703125 437.378906 215.773438 437.8125 215.925781 438.199219 C 219.707031 449.527344 221.894531 457.882812 223.070312 465.078125 C 224.09375 471.304688 224.351562 476.6875 224.230469 482.417969 C 218.269531 482.984375 210.710938 482.917969 205.628906 485.238281 C 199.746094 487.921875 194.546875 491.859375 190.15625 497.269531 C 186.191406 502.132812 193.484375 502.933594 197.332031 499.929688 C 202.265625 496.078125 209.394531 492.171875 210.015625 491.890625 C 215.148438 489.550781 220.910156 488.304688 227.1875 487.964844 L 227.1875 487.960938 C 228.648438 487.878906 229.835938 486.699219 229.894531 485.203125 C 233.96875 468.878906 231.023438 459.167969 222.691406 440.410156 C 247.753906 443.105469 269.554688 452.503906 289.074219 468.460938 Z M 289.074219 468.460938 " fill-opacity="1" fill-rule="nonzero"/><path fill="#000000" d="M 353.566406 542.78125 C 355.089844 542.804688 356.347656 541.585938 356.367188 540.066406 C 356.394531 538.542969 355.175781 537.285156 353.652344 537.265625 C 338.847656 537.023438 325.664062 536.972656 314.179688 539.542969 C 302.699219 542.117188 292.902344 547.320312 283.457031 551.632812 C 282.074219 552.269531 281.464844 553.90625 282.097656 555.289062 C 282.441406 556.039062 283.078125 556.5625 283.804688 556.78125 C 300.910156 563 316.578125 570.371094 329.886719 583.089844 C 325.082031 585.34375 322.019531 589.511719 319.808594 593.84375 C 317.125 599.105469 315.691406 604.609375 315.730469 610.394531 C 315.785156 617.953125 323.972656 612.3125 327.039062 601.871094 C 329.269531 594.257812 334.441406 586.277344 335.628906 585.105469 L 335.722656 585.019531 C 336.804688 583.949219 336.820312 582.203125 335.75 581.117188 C 316.117188 561.234375 315.910156 563.308594 291.957031 553.957031 C 299.292969 550.949219 307.125 548.355469 315.75 546.425781 C 326.847656 543.9375 339.246094 542.550781 353.566406 542.78125 Z M 353.566406 542.78125 " fill-opacity="1" fill-rule="nonzero"/><path fill="#000000" d="M 320.65625 515.3125 C 321.886719 516.316406 323.699219 516.136719 324.707031 514.90625 C 325.710938 513.675781 325.53125 511.863281 324.300781 510.851562 C 312.644531 501.328125 301.335938 492.152344 288.988281 487.351562 C 276.652344 482.546875 263.316406 482.121094 250.4375 481.140625 C 248.851562 481.023438 247.472656 482.210938 247.351562 483.796875 C 247.320312 484.25 247.394531 484.6875 247.554688 485.085938 C 254.402344 505.605469 260.554688 536.035156 259.605469 557.613281 C 251.050781 553.871094 241.25 557.15625 233.171875 562.640625 C 216.507812 573.957031 221.28125 576.683594 226.664062 575.441406 C 231.90625 574.230469 237.515625 569.210938 241.011719 567.804688 C 248.035156 564.976562 255.929688 563.523438 262.453125 563.160156 C 263.914062 563.105469 265.125 561.945312 265.214844 560.460938 C 267.234375 526.277344 264.472656 518.722656 254.316406 487.273438 C 265.175781 488.4375 275.8125 490.890625 286.207031 494.9375 C 297.96875 499.515625 309.460938 506.15625 320.65625 515.3125 Z M 320.65625 515.3125 " fill-opacity="1" fill-rule="nonzero"/><path fill="#c4dbf3" d="M 398.679688 236.722656 C 377.972656 249.003906 369.667969 273.261719 386.507812 301.644531 C 403.34375 330.03125 448.09375 346.367188 459.65625 339.511719 C 471.21875 332.652344 478.332031 285.546875 461.492188 257.160156 C 444.652344 228.773438 419.382812 224.433594 398.679688 236.722656 Z M 398.679688 236.722656 " fill-opacity="1" fill-rule="evenodd"/><path fill="#c4dbf3" d="M 607.453125 262.3125 C 624 291.765625 617.074219 327.074219 576.695312 349.753906 C 536.3125 372.4375 470.46875 360.894531 461.226562 344.445312 C 451.988281 327.996094 476.394531 265.757812 516.777344 243.078125 C 557.15625 220.394531 590.90625 232.851562 607.453125 262.3125 Z M 607.453125 262.3125 " fill-opacity="1" fill-rule="evenodd"/><path fill="#d8e8f7" d="M 398.675781 236.722656 C 377.972656 249.003906 369.667969 273.261719 386.503906 301.644531 C 389.304688 306.367188 392.878906 310.75 396.941406 314.753906 C 384.585938 288.984375 393.117188 267.257812 412.34375 255.851562 C 428.875 246.042969 448.308594 246.832031 464.046875 261.992188 C 463.261719 260.332031 462.414062 258.714844 461.492188 257.160156 C 444.652344 228.777344 419.382812 224.433594 398.675781 236.722656 Z M 398.675781 236.722656 " fill-opacity="1" fill-rule="evenodd"/><path fill="#487198" d="M 399.773438 238.570312 C 389.46875 244.683594 382.402344 253.878906 380.296875 265.09375 C 378.363281 275.410156 380.605469 287.496094 388.351562 300.554688 C 395.691406 312.925781 408.558594 322.96875 421.535156 329.683594 C 437.21875 337.804688 452.78125 341.09375 458.5625 337.664062 C 463.761719 334.578125 468.011719 321.78125 469.078125 306.265625 C 470.171875 290.542969 467.84375 272.25 459.785156 258.496094 L 459.746094 258.453125 L 459.636719 258.242188 C 451.523438 244.570312 441.453125 236.710938 430.957031 233.757812 C 420.535156 230.824219 409.625 232.726562 399.773438 238.570312 Z M 376.078125 264.304688 C 378.421875 251.816406 386.226562 241.609375 397.585938 234.875 L 397.589844 234.871094 C 408.441406 228.4375 420.515625 226.359375 432.117188 229.621094 C 443.570312 232.84375 454.488281 241.265625 463.191406 255.808594 L 463.191406 255.816406 L 463.332031 256.046875 L 463.339844 256.0625 L 463.339844 256.066406 C 472.003906 270.671875 474.511719 290.007812 473.367188 306.554688 C 472.203125 323.398438 467.109375 337.585938 460.75 341.363281 C 453.792969 345.488281 436.476562 342.253906 419.566406 333.5 C 405.96875 326.460938 392.441406 315.867188 384.652344 302.738281 C 376.339844 288.722656 373.960938 275.609375 376.078125 264.304688 Z M 376.078125 264.304688 " fill-opacity="1" fill-rule="nonzero"/><path fill="#d4e5f6" d="M 607.453125 262.3125 C 608.179688 263.605469 608.863281 264.917969 609.496094 266.238281 C 591.101562 248.457031 562.914062 243.964844 530.441406 262.207031 C 496.050781 281.523438 473.25 329.53125 472.953125 353.511719 C 467.210938 350.839844 463.082031 347.742188 461.226562 344.445312 C 451.988281 327.996094 476.398438 265.757812 516.777344 243.078125 C 557.152344 220.394531 590.90625 232.851562 607.453125 262.3125 Z M 607.453125 262.3125 " fill-opacity="1" fill-rule="evenodd"/><path fill="#487198" d="M 605.578125 263.363281 L 605.546875 263.308594 C 597.191406 248.464844 584.339844 238.109375 568.441406 234.738281 C 553.839844 231.640625 536.597656 234.410156 517.824219 244.949219 C 500.074219 254.921875 485.445312 272.769531 475.519531 290.882812 C 463.476562 312.851562 458.351562 334.929688 463.105469 343.394531 C 467.394531 351.035156 485.484375 357.597656 507.476562 359.640625 C 529.769531 361.710938 555.863281 358.992188 575.636719 347.882812 L 575.785156 347.800781 C 595.371094 336.765625 606.828125 322.746094 611.367188 307.945312 C 615.902344 293.191406 613.566406 277.585938 605.578125 263.363281 Z M 609.605469 261.761719 C 617.9375 276.863281 620.308594 293.449219 615.472656 309.203125 C 610.609375 325.0625 598.453125 340 577.746094 351.632812 L 577.25 351.910156 L 577.238281 351.910156 C 556.707031 363.25 529.9375 366.03125 507.089844 363.910156 C 483.757812 361.742188 464.300781 354.304688 459.351562 345.496094 C 453.933594 335.839844 459.042969 312.003906 471.75 288.8125 C 482.007812 270.097656 497.203125 251.605469 515.726562 241.203125 C 535.472656 230.109375 553.742188 227.226562 569.335938 230.535156 C 586.519531 234.183594 600.375 245.320312 609.328125 261.261719 L 609.605469 261.753906 Z M 609.605469 261.761719 " fill-opacity="1" fill-rule="nonzero"/><path fill="#c4dbf3" d="M 595.699219 375.921875 C 595.085938 403.148438 575.785156 424.796875 538.464844 423.953125 C 501.144531 423.109375 460.207031 388.066406 460.550781 372.867188 C 460.894531 357.660156 503.375 324.511719 540.695312 325.351562 C 578.019531 326.195312 596.3125 348.695312 595.699219 375.921875 Z M 595.699219 375.921875 " fill-opacity="1" fill-rule="evenodd"/><path fill="#d4e5f6" d="M 467.128906 386.882812 C 462.886719 381.546875 460.46875 376.605469 460.550781 372.867188 C 460.894531 357.664062 503.378906 324.511719 540.695312 325.355469 C 576.0625 326.15625 594.34375 346.394531 595.636719 371.679688 C 587.878906 356.242188 571.25 345.515625 545.703125 344.941406 C 512.46875 344.1875 475.144531 370.398438 467.128906 386.882812 Z M 467.128906 386.882812 " fill-opacity="1" fill-rule="evenodd"/><path fill="#487198" d="M 597.84375 375.964844 C 597.507812 390.824219 591.816406 404.109375 580.875 413.292969 C 570.976562 421.597656 556.808594 426.503906 538.464844 426.097656 L 538.464844 426.105469 L 538.421875 426.097656 C 519.273438 425.664062 499.273438 416.507812 484.125 405.53125 C 468.730469 394.378906 458.21875 381.09375 458.410156 372.824219 C 458.59375 364.546875 469.695312 351.75 485.578125 341.300781 C 501.203125 331.023438 521.574219 322.789062 540.695312 323.210938 L 540.695312 323.203125 L 540.738281 323.210938 C 560 323.648438 574.398438 329.71875 583.9375 339.222656 C 593.53125 348.785156 598.164062 361.769531 597.84375 375.964844 Z M 578.117188 409.996094 C 588.070312 401.644531 593.246094 389.5 593.558594 375.882812 C 593.851562 362.847656 589.636719 350.96875 580.914062 342.269531 C 572.128906 333.511719 558.730469 327.914062 540.695312 327.5 L 540.695312 327.503906 L 540.652344 327.496094 C 522.464844 327.085938 502.953125 335.003906 487.933594 344.882812 C 473.167969 354.601562 462.851562 365.984375 462.695312 372.90625 C 462.535156 379.835938 472.328125 391.675781 486.648438 402.050781 C 501.195312 412.59375 520.304688 421.386719 538.464844 421.808594 L 538.464844 421.800781 L 538.507812 421.808594 C 555.746094 422.199219 568.96875 417.671875 578.117188 409.996094 Z M 578.117188 409.996094 " fill-opacity="1" fill-rule="nonzero"/><path fill="#1d4f80" d="M 386.421875 289.476562 C 447.675781 289.476562 499.636719 348.558594 502.476562 421.445312 C 505.316406 494.332031 457.960938 553.417969 396.707031 553.417969 C 335.453125 553.417969 283.496094 494.332031 280.652344 421.445312 C 277.8125 348.558594 325.167969 289.476562 386.421875 289.476562 Z M 386.421875 289.476562 " fill-opacity="1" fill-rule="evenodd"/><path fill="#000000" d="M 300.808594 428.847656 C 321.738281 446.492188 431.609375 440.894531 443.046875 402.269531 C 437.792969 422.613281 416.003906 436.859375 400.835938 444.660156 C 391.429688 449.503906 374.183594 473.539062 369.605469 477.03125 C 344.054688 496.558594 312.195312 449.457031 300.808594 428.847656 Z M 300.808594 428.847656 " fill-opacity="1" fill-rule="evenodd"/><path fill="#174068" d="M 438.113281 304.300781 C 474.5 326.296875 500.488281 370.5 502.476562 421.445312 C 505.316406 494.332031 457.964844 553.417969 396.707031 553.417969 C 348.933594 553.417969 306.816406 517.480469 289.242188 467.082031 C 309.28125 500 341.816406 521.640625 377.761719 521.640625 C 435.363281 521.640625 479.890625 466.074219 477.21875 397.535156 C 475.769531 360.382812 460.746094 327.046875 438.113281 304.300781 Z M 438.113281 304.300781 " fill-opacity="1" fill-rule="evenodd"/><path fill="#000000" d="M 477.007812 501.511719 C 475.632812 502.636719 473.597656 502.433594 472.472656 501.058594 C 471.339844 499.675781 471.546875 497.644531 472.921875 496.515625 C 485.992188 485.835938 498.667969 475.554688 512.507812 470.167969 C 526.335938 464.78125 541.28125 464.308594 555.71875 463.207031 C 557.496094 463.078125 559.042969 464.410156 559.175781 466.1875 C 559.214844 466.695312 559.128906 467.1875 558.949219 467.632812 C 551.273438 490.632812 544.378906 524.738281 545.441406 548.925781 C 555.035156 544.730469 566.019531 548.417969 575.074219 554.566406 C 593.753906 567.25 588.402344 570.300781 582.371094 568.910156 C 576.488281 567.554688 570.199219 561.925781 566.285156 560.351562 C 558.414062 557.179688 549.5625 555.550781 542.25 555.144531 C 540.613281 555.085938 539.253906 553.785156 539.160156 552.117188 C 536.890625 513.800781 539.988281 505.335938 551.371094 470.082031 C 539.199219 471.390625 527.273438 474.136719 515.625 478.671875 C 502.441406 483.804688 489.558594 491.25 477.007812 501.511719 Z M 477.007812 501.511719 " fill-opacity="1" fill-rule="nonzero"/><path fill="#000000" d="M 458.910156 524.222656 C 457.480469 525.074219 455.632812 524.613281 454.78125 523.1875 C 453.925781 521.757812 454.390625 519.910156 455.816406 519.0625 C 469.664062 510.761719 482.078125 503.53125 494.320312 499.699219 C 506.5625 495.875 518.644531 495.445312 529.90625 494.367188 C 531.5625 494.210938 533.03125 495.425781 533.1875 497.078125 C 533.269531 497.972656 532.953125 498.8125 532.386719 499.417969 C 519.628906 514.609375 508.855469 530.105469 503.222656 549.363281 C 508.988281 548.871094 514.148438 551.136719 518.597656 554.023438 C 524 557.527344 528.355469 561.941406 531.464844 567.425781 C 535.535156 574.589844 524.730469 573.726562 516.152344 565.542969 C 509.894531 559.574219 500.664062 554.855469 498.90625 554.398438 L 498.769531 554.367188 C 497.164062 553.945312 496.195312 552.308594 496.617188 550.695312 C 504.3125 521.230469 505.636719 523.078125 523.152344 501.195312 C 514.589844 502.351562 505.777344 504.171875 496.589844 507.050781 C 484.761719 510.75 472.292969 516.203125 458.910156 524.222656 Z M 458.910156 524.222656 " fill-opacity="1" fill-rule="nonzero"/><path fill="#000000" d="M 386.335938 287.324219 C 452.734375 287.324219 502.800781 353.078125 505.488281 421.445312 C 508.179688 489.832031 463.167969 555.570312 396.792969 555.570312 C 330.394531 555.570312 280.328125 489.816406 277.640625 421.445312 C 274.949219 353.0625 319.960938 287.324219 386.335938 287.324219 Z M 386.507812 291.625 C 321.820312 291.625 280.074219 355.324219 282.652344 421.445312 C 285.230469 487.566406 331.941406 551.265625 396.625 551.265625 C 461.308594 551.265625 503.050781 487.566406 500.476562 421.445312 C 497.898438 355.324219 451.191406 291.625 386.507812 291.625 Z M 386.507812 291.625 " fill-opacity="1" fill-rule="nonzero"/><path fill="#000000" d="M 468.058594 463.804688 C 467.4375 465.472656 465.574219 466.3125 463.914062 465.6875 C 462.246094 465.0625 461.40625 463.203125 462.03125 461.539062 C 468.445312 425.566406 489.328125 410.265625 517.078125 391.289062 C 518.550781 390.289062 520.554688 390.664062 521.554688 392.132812 C 521.839844 392.546875 522.011719 393.003906 522.078125 393.46875 C 524.757812 406.574219 527.316406 415.90625 530.203125 423.550781 C 532.699219 430.164062 535.464844 435.53125 538.789062 441.023438 C 544.894531 438.230469 552.1875 433.933594 558.421875 433.339844 C 565.628906 432.648438 572.882812 433.550781 580.171875 436.34375 C 586.742188 438.84375 580.109375 443.703125 574.695312 442.945312 C 567.757812 441.972656 558.648438 442.175781 557.886719 442.25 C 551.601562 442.851562 545.308594 444.875 539.027344 448.058594 C 537.5625 448.796875 535.746094 448.316406 534.859375 446.898438 C 521.757812 433.34375 519.175781 422.273438 516.753906 399.402344 C 493.949219 416.058594 478.058594 437.390625 468.058594 463.804688 Z M 468.058594 463.804688 " fill-opacity="1" fill-rule="nonzero"/><path fill="#000000" d="M 295.199219 292.972656 C 300.269531 292.296875 305.355469 292.761719 310.214844 294.367188 C 318.734375 297.183594 325.683594 303.203125 330.5625 310.632812 C 336.113281 319.085938 338.917969 329.152344 339.359375 339.203125 C 339.890625 351.363281 336.988281 363.769531 330.707031 374.226562 C 325.082031 383.585938 316.621094 391.46875 306.046875 394.765625 C 304.109375 395.375 302.121094 395.816406 300.101562 396.082031 C 295.027344 396.753906 289.941406 396.292969 285.082031 394.683594 C 276.566406 391.867188 269.617188 385.847656 264.738281 378.417969 C 259.1875 369.964844 256.382812 359.898438 255.941406 349.847656 C 255.40625 337.6875 258.3125 325.28125 264.59375 314.824219 C 270.21875 305.464844 278.679688 297.582031 289.253906 294.285156 C 291.191406 293.675781 293.179688 293.238281 295.199219 292.972656 Z M 295.199219 292.972656 " fill-opacity="1" fill-rule="evenodd"/><path fill="#cccccc" d="M 295.953125 296.007812 C 317.109375 293.210938 335.199219 312.375 336.359375 338.816406 C 337.519531 365.257812 321.304688 388.960938 300.148438 391.757812 C 278.992188 394.558594 260.898438 375.390625 259.738281 348.953125 C 258.578125 322.511719 274.792969 298.808594 295.953125 296.007812 Z M 295.953125 296.007812 " fill-opacity="1" fill-rule="evenodd"/><path fill="#ffffff" d="M 296.652344 298.625 C 316.257812 296.035156 333.023438 313.796875 334.097656 338.300781 C 335.171875 362.808594 320.148438 384.773438 300.539062 387.367188 C 280.929688 389.957031 264.164062 372.195312 263.089844 347.691406 C 262.019531 323.1875 277.042969 301.222656 296.652344 298.625 Z M 296.652344 298.625 " fill-opacity="1" fill-rule="evenodd"/><path fill="#000000" d="M 306.410156 332.765625 C 305.960938 332.707031 305.515625 332.6875 305.078125 332.707031 C 305.917969 333.941406 306.402344 335.5625 306.328125 337.269531 C 306.175781 340.683594 303.839844 343.160156 301.105469 342.796875 C 299.445312 342.582031 298.023438 341.367188 297.191406 339.683594 C 296.859375 340.761719 296.652344 341.929688 296.597656 343.164062 C 296.316406 349.582031 300.253906 355.339844 305.394531 356.023438 C 310.53125 356.699219 314.925781 352.042969 315.203125 345.625 C 315.488281 339.199219 311.550781 333.445312 306.410156 332.765625 Z M 306.410156 332.765625 " fill-opacity="1" fill-rule="evenodd"/><path fill="#000000" d="M 383.363281 264.445312 C 376.863281 263.589844 370.351562 264.175781 364.125 266.238281 C 353.214844 269.847656 344.316406 277.550781 338.0625 287.070312 C 330.953125 297.898438 327.359375 310.789062 326.796875 323.664062 C 326.113281 339.238281 329.835938 355.132812 337.878906 368.523438 C 345.082031 380.515625 355.925781 390.613281 369.464844 394.835938 C 371.949219 395.609375 374.496094 396.175781 377.078125 396.515625 C 383.578125 397.375 390.09375 396.785156 396.316406 394.726562 C 407.226562 391.117188 416.125 383.410156 422.378906 373.894531 C 429.488281 363.066406 433.078125 350.171875 433.644531 337.296875 C 434.328125 321.726562 430.605469 305.832031 422.558594 292.441406 C 415.355469 280.453125 404.519531 270.355469 390.976562 266.128906 C 388.492188 265.355469 385.945312 264.789062 383.363281 264.445312 Z M 383.363281 264.445312 " fill-opacity="1" fill-rule="evenodd"/><path fill="#cccccc" d="M 382.453125 267.15625 C 354.828125 263.503906 331.207031 288.527344 329.691406 323.054688 C 328.179688 357.578125 349.351562 388.527344 376.976562 392.183594 C 404.601562 395.832031 428.222656 370.8125 429.738281 336.285156 C 431.253906 301.761719 410.082031 270.808594 382.453125 267.15625 Z M 382.453125 267.15625 " fill-opacity="1" fill-rule="evenodd"/><path fill="#ffffff" d="M 381.582031 269.585938 C 355.542969 266.140625 333.277344 289.730469 331.851562 322.273438 C 330.425781 354.816406 350.378906 383.988281 376.417969 387.433594 C 402.457031 390.878906 424.726562 367.289062 426.152344 334.742188 C 427.578125 302.203125 407.625 273.027344 381.582031 269.585938 Z M 381.582031 269.585938 " fill-opacity="1" fill-rule="evenodd"/><path fill="#000000" d="M 393.503906 317.378906 C 393.0625 317.316406 392.625 317.292969 392.191406 317.292969 C 393.539062 318.957031 394.34375 321.292969 394.234375 323.769531 C 394.039062 328.203125 391.007812 331.417969 387.460938 330.949219 C 384.957031 330.617188 382.871094 328.550781 381.925781 325.800781 C 381.433594 327.261719 381.132812 328.863281 381.058594 330.5625 C 380.699219 338.707031 385.691406 346.007812 392.210938 346.867188 C 398.726562 347.730469 404.296875 341.824219 404.652344 333.683594 C 405.011719 325.539062 400.019531 318.242188 393.503906 317.378906 Z M 393.503906 317.378906 " fill-opacity="1" fill-rule="evenodd"/><path fill="#1d4f80" d="M 333.257812 397.617188 L 312.058594 413.558594 C 284.71875 413.929688 276.710938 412.257812 264.996094 425.546875 C 257.453125 434.101562 240.996094 435.59375 243.875 417.296875 C 245.722656 405.519531 231.65625 401.671875 237.464844 392.589844 C 240.515625 387.8125 249.074219 384.53125 257.0625 392.226562 C 278.53125 412.910156 318.269531 403.050781 333.257812 397.617188 Z M 333.257812 397.617188 " fill-opacity="1" fill-rule="evenodd"/><path fill="#000000" d="M 312.035156 411.417969 C 313.214844 411.402344 314.1875 412.351562 314.199219 413.535156 C 314.214844 414.71875 313.269531 415.691406 312.082031 415.707031 C 308.964844 415.742188 306.066406 415.761719 303.394531 415.777344 C 283.554688 415.882812 276.347656 415.925781 266.609375 426.96875 L 266.605469 426.96875 C 263.617188 430.355469 259.367188 432.753906 255.265625 433.527344 C 252.847656 433.984375 250.445312 433.886719 248.324219 433.117188 C 246.09375 432.308594 244.207031 430.789062 242.949219 428.429688 C 241.527344 425.753906 240.964844 421.992188 241.753906 416.972656 C 242.503906 412.210938 240.023438 408.769531 237.789062 405.667969 C 234.628906 401.273438 231.839844 397.40625 235.65625 391.4375 L 235.65625 391.429688 C 236.0625 390.796875 236.546875 390.1875 237.101562 389.609375 C 239.011719 387.625 241.773438 386.082031 244.960938 385.625 C 248.117188 385.175781 251.6875 385.785156 255.257812 388.0625 C 256.371094 388.773438 257.472656 389.644531 258.550781 390.683594 C 266.582031 398.417969 277.382812 401.664062 288.417969 402.445312 C 305.75 403.667969 323.605469 398.835938 332.523438 395.601562 C 333.640625 395.195312 334.871094 395.773438 335.277344 396.886719 C 335.679688 398 335.105469 399.230469 333.988281 399.636719 C 324.730469 402.992188 306.183594 408.011719 288.117188 406.730469 C 276.183594 405.890625 264.4375 402.316406 255.578125 393.777344 C 254.691406 392.925781 253.8125 392.230469 252.949219 391.679688 C 250.347656 390.011719 247.789062 389.566406 245.566406 389.882812 C 243.375 390.191406 241.492188 391.242188 240.195312 392.585938 C 239.84375 392.953125 239.53125 393.34375 239.269531 393.753906 L 239.265625 393.75 C 237.023438 397.265625 239.011719 400.027344 241.269531 403.160156 C 243.988281 406.941406 247.007812 411.136719 245.992188 417.628906 C 245.363281 421.636719 245.734375 424.5 246.75 426.414062 C 247.46875 427.761719 248.535156 428.628906 249.789062 429.082031 C 251.160156 429.578125 252.78125 429.628906 254.476562 429.308594 C 257.683594 428.703125 261.023438 426.808594 263.390625 424.132812 L 263.382812 424.128906 C 274.386719 411.648438 282.113281 411.605469 303.375 411.488281 C 306.023438 411.476562 308.890625 411.460938 312.035156 411.417969 Z M 312.035156 411.417969 " fill-opacity="1" fill-rule="nonzero"/></svg>