<svg xmlns="http://www.w3.org/2000/svg" xmlns:xlink="http://www.w3.org/1999/xlink" width="1080" zoomAndPan="magnify" viewBox="0 0 810 809.999993" height="1080" preserveAspectRatio="xMidYMid meet" version="1.0"><defs><clipPath id="7f8bffa54e"><path d="M 585 587 L 627.660156 587 L 627.660156 600 L 585 600 Z M 585 587 " clip-rule="nonzero"/></clipPath></defs><path fill="#457115" d="M 498.75 390.328125 L 575.160156 580.355469 C 578.824219 580.265625 583.304688 580.796875 588.445312 581.753906 C 602.117188 584.304688 606.726562 592.402344 606.726562 592.402344 C 606.726562 592.402344 563.023438 594.234375 564.382812 586.945312 C 564.695312 585.28125 565.421875 583.988281 566.5 582.988281 L 490.683594 420.859375 C 490.683594 420.859375 490.042969 419.566406 489.449219 417.417969 C 465.90625 457.113281 407.300781 523.082031 392.472656 528.019531 C 392.472656 528.019531 365.925781 521.53125 363.992188 482.800781 C 363.992188 482.800781 488.21875 368.117188 498.75 390.328125 " fill-opacity="1" fill-rule="nonzero"/><path fill="#33540e" d="M 325.8125 476.207031 C 328.816406 474.773438 332.367188 475.148438 335.234375 476.832031 C 347.042969 483.761719 384.25 505.832031 384.0625 508.652344 C 383.84375 512.003906 374.597656 572.105469 374.597656 572.105469 L 374.605469 572.105469 C 378.726562 571.449219 384.328125 571.96875 391.066406 573.230469 C 404.738281 575.777344 409.347656 583.871094 409.347656 583.871094 C 409.347656 583.871094 365.644531 585.710938 367.003906 578.417969 C 367.203125 577.351562 367.585938 576.441406 368.105469 575.65625 L 370.070312 514.621094 C 370.070312 514.621094 309.542969 483.972656 325.8125 476.207031 " fill-opacity="1" fill-rule="nonzero"/><path fill="#31500d" d="M 302.089844 459.117188 C 293.78125 460.328125 278.304688 465.484375 252.253906 483.449219 L 272.546875 565.453125 C 268.664062 564.5625 263.511719 564.417969 257.378906 564.738281 C 243.488281 565.460938 237.855469 572.878906 237.855469 572.878906 C 237.855469 572.878906 280.9375 580.464844 280.546875 573.054688 C 280.453125 571.230469 279.835938 569.757812 278.757812 568.582031 C 277.511719 553.324219 266.371094 495.261719 266.371094 495.261719 C 266.371094 495.261719 299.207031 482.574219 308.269531 468.671875 C 311.179688 464.203125 307.371094 458.34375 302.089844 459.117188 " fill-opacity="1" fill-rule="nonzero"/><path fill="#609e1f" d="M 263.972656 426.402344 C 263.972656 426.402344 260.8125 515.152344 382.089844 532.15625 C 382.089844 532.15625 506.136719 554.953125 516.136719 474.851562 C 517.175781 466.5625 342.152344 439.773438 342.152344 439.773438 L 263.972656 426.402344 " fill-opacity="1" fill-rule="nonzero"/><path fill="#528619" d="M 477.875 500.539062 C 429.699219 505.246094 381.574219 499.785156 336.125 482.902344 C 315.925781 475.398438 296.042969 466.128906 278.574219 453.382812 C 274.140625 450.148438 269.800781 446.765625 265.742188 443.085938 C 271 469.289062 292.75 520.855469 382.203125 533.398438 C 382.203125 533.398438 482.957031 551.902344 510.171875 496.910156 C 499.5 498.601562 488.636719 499.488281 477.875 500.539062 " fill-opacity="1" fill-rule="nonzero"/><path fill="#7ccb29" d="M 296.167969 351.800781 C 296.167969 351.800781 382.085938 413.253906 532.984375 474.84375 C 532.984375 474.84375 471.40625 573.964844 242.929688 411.890625 L 296.167969 351.800781 " fill-opacity="1" fill-rule="nonzero"/><path fill="#70c72d" d="M 359.257812 448.257812 C 340.9375 434.449219 323.207031 419.574219 307.046875 403.261719 C 297.335938 393.457031 287.957031 383.21875 280.566406 371.695312 L 243.703125 413.304688 C 355.726562 492.769531 427.621094 509.441406 471.8125 505.796875 C 430.707031 495.210938 392.992188 473.683594 359.257812 448.257812 " fill-opacity="1" fill-rule="nonzero"/><path fill="#426b13" d="M 237.066406 305.246094 C 237.527344 303.996094 248.207031 274.289062 235.824219 248.171875 C 229.050781 233.886719 216.664062 223.535156 199.007812 217.414062 L 197.648438 221.332031 C 214.199219 227.070312 225.777344 236.691406 232.058594 249.921875 C 243.703125 274.445312 233.273438 303.523438 233.167969 303.8125 L 237.066406 305.246094 " fill-opacity="1" fill-rule="nonzero"/><path fill="#6db223" d="M 183.386719 212.960938 C 182.230469 216.207031 185.628906 220.378906 190.976562 222.285156 C 196.324219 224.1875 201.597656 223.09375 202.753906 219.84375 C 203.910156 216.601562 200.511719 212.425781 195.164062 210.523438 C 189.816406 208.621094 184.542969 209.714844 183.386719 212.960938 " fill-opacity="1" fill-rule="nonzero"/><path fill="#426b13" d="M 280.34375 316.785156 C 280.335938 315.453125 280.398438 283.886719 300.925781 263.535156 C 312.152344 252.402344 327.324219 246.882812 346.011719 247.125 L 345.957031 251.273438 C 328.4375 251.042969 314.277344 256.152344 303.871094 266.460938 C 284.578125 285.5625 284.492188 316.453125 284.496094 316.765625 L 280.34375 316.785156 " fill-opacity="1" fill-rule="nonzero"/><path fill="#6db223" d="M 362.214844 248.246094 C 362.199219 251.691406 357.582031 254.464844 351.90625 254.433594 C 346.230469 254.40625 341.640625 251.585938 341.660156 248.140625 C 341.675781 244.695312 346.292969 241.921875 351.96875 241.953125 C 357.644531 241.980469 362.234375 244.800781 362.214844 248.246094 " fill-opacity="1" fill-rule="nonzero"/><path fill="#6db223" d="M 190.300781 359.585938 C 184.207031 400.722656 204.132812 437.753906 234.808594 442.296875 C 265.484375 446.839844 295.292969 417.175781 301.386719 376.035156 C 307.480469 334.902344 287.554688 297.871094 256.878906 293.328125 C 226.203125 288.785156 196.394531 318.449219 190.300781 359.585938 " fill-opacity="1" fill-rule="nonzero"/><path fill="#66a721" d="M 262.847656 409.347656 C 242.503906 420.269531 217.425781 423.125 198.191406 412.792969 C 206.15625 429.035156 219.3125 440.421875 235.449219 442.8125 C 266.125 447.359375 295.933594 417.691406 302.027344 376.554688 C 303.269531 368.164062 303.414062 359.953125 302.621094 352.144531 C 298.105469 376.023438 285.835938 397 262.847656 409.347656 " fill-opacity="1" fill-rule="nonzero"/><path fill="#4b7c17" d="M 384.863281 490.179688 C 384.863281 490.179688 509.09375 375.496094 519.621094 397.707031 C 528.472656 416.382812 432.882812 528.890625 413.339844 535.398438 C 413.339844 535.398438 386.796875 528.914062 384.863281 490.179688 " fill-opacity="1" fill-rule="nonzero"/><path fill="#426b13" d="M 500.515625 423.84375 C 484.835938 438.839844 470.566406 455.296875 458.160156 473.113281 C 446.074219 490.476562 435.128906 509.035156 420.222656 524.207031 C 417.464844 527.011719 414.378906 530.019531 411.039062 532.988281 C 413.054688 533.886719 414.332031 534.199219 414.332031 534.199219 C 431.523438 528.476562 507.542969 440.742188 519.574219 406.992188 C 513.078125 412.445312 506.660156 417.964844 500.515625 423.84375 " fill-opacity="1" fill-rule="nonzero"/><path fill="#4b7c17" d="M 519.625 397.707031 L 596.027344 587.734375 L 614.121094 595.910156 L 590.597656 597.328125 L 511.558594 428.242188 C 511.558594 428.242188 503.007812 411.1875 519.625 397.707031 " fill-opacity="1" fill-rule="nonzero"/><g clip-path="url(#7f8bffa54e)"><path fill="#4b7c17" d="M 585.253906 594.324219 C 583.898438 601.617188 627.597656 599.78125 627.597656 599.78125 C 627.597656 599.78125 622.992188 591.6875 609.316406 589.136719 C 595.640625 586.585938 586.617188 587.035156 585.253906 594.324219 " fill-opacity="1" fill-rule="nonzero"/></g><path fill="#3a5f10" d="M 367.96875 484.683594 C 370.972656 483.25 374.523438 483.625 377.394531 485.308594 C 389.199219 492.238281 426.40625 514.3125 426.222656 517.128906 C 426 520.480469 416.753906 580.582031 416.753906 580.582031 L 440.429688 590.984375 C 440.429688 590.984375 416.496094 595.007812 410.25 584.496094 L 412.226562 523.097656 C 412.226562 523.097656 351.699219 492.449219 367.96875 484.683594 " fill-opacity="1" fill-rule="nonzero"/><path fill="#426b13" d="M 409.160156 586.894531 C 407.800781 594.1875 451.503906 592.347656 451.503906 592.347656 C 451.503906 592.347656 446.894531 584.253906 433.21875 581.707031 C 419.546875 579.15625 410.519531 579.605469 409.160156 586.894531 " fill-opacity="1" fill-rule="nonzero"/><path fill="#3a5f10" d="M 295.359375 464.585938 C 303.4375 466.886719 318.097656 474.042969 341.550781 495.277344 L 326 505.125 C 326 505.125 295.195312 488.261719 287.992188 473.296875 C 285.636719 468.394531 290.125 463.097656 295.359375 464.585938 " fill-opacity="1" fill-rule="nonzero"/><path fill="#3a5f10" d="M 341.550781 495.277344 L 309.617188 573.683594 C 309.617188 573.683594 323.957031 574.929688 323.117188 579.421875 C 322.277344 583.910156 303.453125 579.097656 303.835938 575.566406 C 304.984375 565.007812 326 505.125 326 505.125 L 341.550781 495.277344 " fill-opacity="1" fill-rule="nonzero"/><path fill="#426b13" d="M 301.914062 577.246094 C 300.554688 584.539062 344.257812 582.703125 344.257812 582.703125 C 344.257812 582.703125 339.648438 574.605469 325.976562 572.054688 C 312.300781 569.507812 303.277344 569.953125 301.914062 577.246094 " fill-opacity="1" fill-rule="nonzero"/><path fill="#ffffff" d="M 251.523438 355.074219 C 248.335938 369.746094 254.175781 383.46875 264.566406 385.726562 C 274.960938 387.980469 285.96875 377.917969 289.160156 363.246094 C 292.347656 348.574219 286.503906 334.855469 276.113281 332.597656 C 265.71875 330.339844 254.710938 340.40625 251.523438 355.074219 " fill-opacity="1" fill-rule="nonzero"/><path fill="#33540e" d="M 258.027344 356.488281 C 255.941406 366.085938 259.765625 375.066406 266.5625 376.539062 C 273.363281 378.019531 280.566406 371.433594 282.652344 361.835938 C 284.738281 352.234375 280.917969 343.257812 274.117188 341.78125 C 267.316406 340.304688 260.113281 346.890625 258.027344 356.488281 " fill-opacity="1" fill-rule="nonzero"/><path fill="#ffffff" d="M 269.730469 353.949219 C 268.402344 360.0625 270.835938 365.785156 275.167969 366.726562 C 279.5 367.664062 284.089844 363.46875 285.417969 357.355469 C 286.746094 351.238281 284.3125 345.519531 279.980469 344.582031 C 275.648438 343.636719 271.058594 347.832031 269.730469 353.949219 " fill-opacity="1" fill-rule="nonzero"/><path fill="#ffffff" d="M 235.4375 354.011719 C 236.667969 368.972656 229.070312 381.804688 218.472656 382.671875 C 207.875 383.539062 198.28125 372.109375 197.054688 357.148438 C 195.824219 342.183594 203.421875 329.351562 214.019531 328.484375 C 224.617188 327.621094 234.207031 339.046875 235.4375 354.011719 " fill-opacity="1" fill-rule="nonzero"/><path fill="#33540e" d="M 228.800781 354.550781 C 229.605469 364.34375 224.636719 372.738281 217.703125 373.304688 C 210.769531 373.871094 204.492188 366.394531 203.6875 356.605469 C 202.882812 346.816406 207.855469 338.421875 214.789062 337.855469 C 221.722656 337.289062 227.996094 344.765625 228.800781 354.550781 " fill-opacity="1" fill-rule="nonzero"/><path fill="#ffffff" d="M 217.535156 350.492188 C 218.050781 356.730469 214.882812 362.078125 210.464844 362.441406 C 206.046875 362.800781 202.046875 358.039062 201.535156 351.800781 C 201.023438 345.5625 204.191406 340.214844 208.609375 339.851562 C 213.027344 339.492188 217.023438 344.253906 217.535156 350.492188 " fill-opacity="1" fill-rule="nonzero"/><path fill="#f89cae" d="M 270.140625 396.796875 C 269.875 399.011719 273.484375 401.265625 278.207031 401.832031 C 282.929688 402.402344 286.972656 401.066406 287.238281 398.851562 C 287.503906 396.636719 283.894531 394.382812 279.171875 393.816406 C 274.449219 393.246094 270.40625 394.582031 270.140625 396.796875 " fill-opacity="1" fill-rule="nonzero"/><path fill="#f89cae" d="M 207.066406 389.210938 C 206.800781 391.425781 202.757812 392.761719 198.035156 392.195312 C 193.3125 391.625 189.703125 389.371094 189.96875 387.15625 C 190.234375 384.941406 194.277344 383.605469 199 384.175781 C 203.71875 384.742188 207.332031 387 207.066406 389.210938 " fill-opacity="1" fill-rule="nonzero"/><path fill="#426b13" d="M 249.074219 421.304688 C 249.074219 421.304688 249.011719 421.4375 248.894531 421.691406 C 248.773438 421.925781 248.558594 422.292969 248.347656 422.753906 C 248.074219 423.179688 247.796875 423.667969 247.394531 424.203125 C 247.015625 424.742188 246.519531 425.292969 245.96875 425.839844 C 245.414062 426.386719 244.742188 426.886719 244.035156 427.363281 C 243.316406 427.835938 242.484375 428.175781 241.652344 428.519531 C 239.929688 429.109375 238.019531 429.265625 236.160156 428.953125 C 235.832031 428.871094 235.019531 428.730469 234.746094 428.597656 C 234.363281 428.492188 233.917969 428.296875 233.488281 428.128906 C 232.660156 427.707031 231.847656 427.265625 231.144531 426.691406 C 230.476562 426.085938 229.808594 425.484375 229.292969 424.796875 C 228.785156 424.113281 228.324219 423.414062 227.984375 422.714844 C 227.652344 422.015625 227.367188 421.332031 227.191406 420.695312 C 226.992188 420.058594 226.894531 419.480469 226.785156 418.988281 C 226.738281 418.503906 226.660156 418.101562 226.625 417.828125 C 226.597656 417.550781 226.585938 417.402344 226.585938 417.402344 C 226.585938 417.402344 226.3125 417.914062 225.960938 418.929688 C 225.675781 419.941406 225.382812 421.507812 225.703125 423.40625 C 225.964844 425.300781 226.925781 427.484375 228.617188 429.328125 C 229.484375 430.21875 230.488281 431.074219 231.65625 431.710938 C 232.257812 432 232.828125 432.320312 233.546875 432.53125 C 234.347656 432.8125 234.667969 432.851562 235.453125 433.039062 C 236.789062 433.238281 238.15625 433.265625 239.472656 433.066406 C 240.789062 432.851562 242.019531 432.394531 243.136719 431.84375 C 245.347656 430.675781 246.988281 428.949219 247.875 427.253906 C 248.8125 425.578125 249.070312 424.003906 249.148438 422.933594 C 249.148438 421.90625 249.074219 421.304688 249.074219 421.304688 " fill-opacity="1" fill-rule="nonzero"/><path fill="#6fb524" d="M 243.148438 299.429688 C 247.601562 303.890625 246.429688 312.292969 240.53125 318.199219 C 234.628906 324.105469 226.238281 325.277344 221.78125 320.820312 C 217.328125 316.363281 218.5 307.960938 224.398438 302.050781 C 230.300781 296.148438 238.695312 294.972656 243.148438 299.429688 " fill-opacity="1" fill-rule="nonzero"/><path fill="#2a450b" d="M 287.992188 468.382812 C 289.128906 470.136719 290.46875 471.738281 291.828125 473.304688 C 293.1875 474.878906 294.652344 476.355469 296.132812 477.8125 C 299.132812 480.679688 302.296875 483.367188 305.589844 485.882812 C 308.851562 488.445312 312.308594 490.738281 315.785156 492.988281 C 317.523438 494.113281 319.320312 495.152344 321.085938 496.234375 L 326.511719 499.269531 L 327.296875 499.707031 L 327.015625 500.550781 C 325.019531 506.566406 323.0625 512.59375 321.015625 518.589844 C 319.003906 524.597656 316.945312 530.589844 314.871094 536.578125 C 312.785156 542.5625 310.683594 548.542969 308.527344 554.5 C 307.46875 557.484375 306.347656 560.453125 305.253906 563.425781 C 304.160156 566.402344 303.058594 569.375 301.914062 572.332031 C 302.777344 569.28125 303.683594 566.242188 304.597656 563.207031 C 305.507812 560.171875 306.398438 557.128906 307.34375 554.101562 C 309.199219 548.042969 311.113281 542.003906 313.042969 535.964844 C 314.980469 529.933594 316.9375 523.90625 318.9375 517.890625 C 320.90625 511.867188 322.960938 505.875 324.980469 499.871094 L 325.484375 501.152344 L 320.042969 497.984375 C 318.277344 496.851562 316.480469 495.765625 314.738281 494.59375 C 313.011719 493.398438 311.261719 492.242188 309.601562 490.949219 L 307.089844 489.058594 L 304.644531 487.070312 C 301.4375 484.359375 298.320312 481.535156 295.5 478.425781 C 294.097656 476.863281 292.722656 475.28125 291.453125 473.613281 C 290.167969 471.960938 288.980469 470.226562 287.992188 468.382812 " fill-opacity="1" fill-rule="nonzero"/><path fill="#2a450b" d="M 365.191406 483.652344 C 365.699219 484.777344 366.394531 485.800781 367.152344 486.765625 C 367.515625 487.261719 367.898438 487.738281 368.304688 488.199219 C 368.703125 488.664062 369.09375 489.136719 369.53125 489.570312 L 370.800781 490.894531 L 372.144531 492.152344 C 373.019531 493.007812 373.980469 493.777344 374.910156 494.570312 C 378.679688 497.703125 382.707031 500.511719 386.828125 503.160156 C 388.902344 504.46875 391.015625 505.714844 393.117188 506.972656 C 395.265625 508.164062 397.371094 509.414062 399.550781 510.550781 C 401.738281 511.664062 403.886719 512.851562 406.085938 513.945312 L 412.699219 517.183594 L 413.367188 517.507812 L 413.335938 518.238281 C 412.832031 528.871094 412.261719 539.5 411.582031 550.125 C 411.25 555.4375 410.878906 560.75 410.488281 566.058594 C 410.042969 571.367188 409.679688 576.679688 409.160156 581.980469 C 409.15625 576.652344 409.296875 571.332031 409.363281 566.003906 C 409.484375 560.683594 409.625 555.359375 409.804688 550.039062 C 410.148438 539.398438 410.601562 528.761719 411.121094 518.128906 L 411.753906 519.183594 L 405.105469 515.878906 C 402.894531 514.761719 400.730469 513.550781 398.554688 512.371094 C 396.382812 511.179688 394.277344 509.867188 392.136719 508.625 C 390.027344 507.324219 387.953125 505.960938 385.894531 504.578125 C 381.804688 501.773438 377.863281 498.730469 374.214844 495.355469 C 373.324219 494.492188 372.40625 493.65625 371.574219 492.730469 L 370.300781 491.371094 L 369.101562 489.945312 C 367.550781 488.019531 366.039062 485.988281 365.191406 483.652344 " fill-opacity="1" fill-rule="nonzero"/></svg>