<svg xmlns="http://www.w3.org/2000/svg" xmlns:xlink="http://www.w3.org/1999/xlink" width="1080" zoomAndPan="magnify" viewBox="0 0 810 809.999993" height="1080" preserveAspectRatio="xMidYMid meet" version="1.0"><path fill="#1fbc03" d="M 269.769531 466.414062 C 280.503906 474.371094 287.515625 480.816406 291.527344 494.679688 C 292.449219 496.691406 291.773438 499.105469 289.902344 500.328125 C 285.980469 502.898438 282.378906 506.007812 279.648438 509.839844 C 277.675781 512.714844 275.335938 517.371094 274.039062 520.574219 C 273.824219 521.097656 273.558594 521.597656 273.25 522.070312 C 271.753906 524.34375 268.226562 527.058594 265.425781 525.449219 C 263.65625 524.4375 263.414062 522.363281 263.707031 520.535156 C 264.648438 514.664062 266.816406 509.261719 270.257812 504.421875 C 272.933594 500.671875 277.566406 497.832031 281.527344 495.15625 C 279.464844 491.574219 277.207031 488.238281 274.558594 485.003906 C 269.65625 479.007812 264.308594 473.738281 258.375 468.753906 C 257.875 468.332031 257.457031 467.8125 257.171875 467.222656 C 256.09375 464.988281 257.046875 462.277344 259.273438 461.203125 C 282.820312 449.878906 300.8125 442.296875 326.855469 451.671875 C 329.1875 452.175781 330.742188 454.429688 330.347656 456.808594 C 329.941406 459.257812 327.621094 460.921875 325.175781 460.519531 C 305.953125 457.363281 287.660156 459.191406 269.769531 466.414062 Z M 269.769531 466.414062 " fill-opacity="1" fill-rule="evenodd"/><path fill="#000000" d="M 273.835938 466.984375 C 278.054688 470.242188 281.660156 473.386719 284.707031 477.0625 C 288.4375 481.570312 291.308594 486.835938 293.398438 493.996094 C 294.007812 495.414062 294.078125 496.953125 293.675781 498.355469 C 293.261719 499.804688 292.335938 501.117188 290.992188 501.996094 C 289.109375 503.230469 287.3125 504.585938 285.667969 506.085938 C 284.039062 507.566406 282.554688 509.1875 281.289062 510.960938 L 281.289062 510.964844 C 280.390625 512.277344 279.414062 513.960938 278.511719 515.691406 C 277.503906 517.625 276.558594 519.65625 275.886719 521.324219 C 275.761719 521.632812 275.617188 521.945312 275.445312 522.257812 C 275.277344 522.585938 275.097656 522.890625 274.917969 523.164062 L 274.914062 523.164062 C 273.886719 524.71875 272.070312 526.449219 270.066406 527.316406 C 268.261719 528.09375 266.289062 528.238281 264.4375 527.171875 L 264.433594 527.179688 C 263.179688 526.460938 262.414062 525.40625 261.996094 524.210938 C 261.550781 522.925781 261.535156 521.511719 261.742188 520.21875 C 262.242188 517.109375 263.066406 514.128906 264.214844 511.300781 C 265.359375 508.492188 266.828125 505.808594 268.636719 503.269531 C 271.175781 499.707031 275.152344 497.023438 278.855469 494.546875 C 278.140625 493.367188 277.398438 492.210938 276.617188 491.070312 C 275.507812 489.457031 274.316406 487.859375 273.015625 486.269531 C 270.589844 483.300781 268.070312 480.53125 265.449219 477.910156 C 262.8125 475.273438 260.03125 472.75 257.101562 470.28125 L 257.101562 470.273438 C 256.726562 469.960938 256.390625 469.625 256.117188 469.269531 C 255.835938 468.914062 255.582031 468.515625 255.378906 468.085938 L 255.375 468.070312 C 254.605469 466.464844 254.554688 464.6875 255.105469 463.125 C 255.652344 461.554688 256.796875 460.1875 258.402344 459.414062 L 258.40625 459.414062 L 258.421875 459.410156 C 270.328125 453.679688 280.84375 448.898438 291.738281 446.71875 C 302.726562 444.519531 314.027344 444.972656 327.375 449.746094 C 329.011719 450.125 330.378906 451.113281 331.269531 452.429688 C 332.171875 453.757812 332.589844 455.425781 332.308594 457.128906 C 332.019531 458.894531 331.035156 460.378906 329.6875 461.347656 L 329.6875 461.355469 C 328.339844 462.320312 326.621094 462.773438 324.855469 462.484375 C 315.417969 460.9375 306.210938 460.609375 297.171875 461.554688 C 289.285156 462.382812 281.519531 464.179688 273.835938 466.984375 Z M 281.632812 479.605469 C 278.164062 475.410156 273.828125 471.902344 268.589844 468.011719 L 265.734375 465.894531 L 269.03125 464.5625 C 278.140625 460.886719 287.367188 458.578125 296.765625 457.59375 C 306.15625 456.613281 315.710938 456.949219 325.496094 458.554688 C 326.171875 458.664062 326.839844 458.488281 327.367188 458.113281 L 327.367188 458.117188 C 327.890625 457.742188 328.269531 457.167969 328.382812 456.488281 C 328.496094 455.824219 328.328125 455.175781 327.984375 454.660156 C 327.632812 454.144531 327.09375 453.757812 326.445312 453.621094 L 326.339844 453.597656 L 326.183594 453.542969 C 313.554688 448.996094 302.878906 448.5625 292.519531 450.632812 C 282.0625 452.726562 271.84375 457.367188 260.261719 462.933594 L 260.265625 462.933594 L 260.257812 462.941406 L 260.136719 463 C 259.515625 463.300781 259.074219 463.824219 258.859375 464.433594 C 258.65625 465.015625 258.664062 465.667969 258.914062 466.261719 L 258.960938 466.355469 C 259.035156 466.503906 259.136719 466.660156 259.25 466.804688 C 259.382812 466.972656 259.515625 467.117188 259.652344 467.230469 L 259.65625 467.222656 C 262.65625 469.742188 265.515625 472.347656 268.253906 475.085938 C 271.011719 477.84375 273.625 480.714844 276.101562 483.742188 C 277.445312 485.382812 278.707031 487.078125 279.90625 488.828125 C 281.082031 490.546875 282.1875 492.316406 283.25 494.152344 L 284.179688 495.765625 L 282.632812 496.804688 L 281.214844 497.757812 C 277.761719 500.066406 274.027344 502.5625 271.882812 505.574219 C 270.261719 507.847656 268.9375 510.261719 267.910156 512.796875 C 266.859375 515.371094 266.117188 518.058594 265.671875 520.84375 C 265.554688 521.566406 265.546875 522.308594 265.75 522.902344 C 265.867188 523.234375 266.078125 523.523438 266.414062 523.71875 L 266.414062 523.726562 C 267.003906 524.0625 267.75 523.96875 268.488281 523.652344 C 269.761719 523.101562 270.925781 521.988281 271.585938 520.984375 L 271.582031 520.980469 C 271.714844 520.777344 271.832031 520.582031 271.925781 520.40625 C 272.015625 520.230469 272.109375 520.035156 272.191406 519.828125 C 272.882812 518.117188 273.886719 515.964844 274.988281 513.851562 C 275.980469 511.953125 277.035156 510.121094 278 508.71875 L 278.023438 508.6875 C 279.480469 506.644531 281.15625 504.800781 282.988281 503.136719 C 284.804688 501.480469 286.769531 499.996094 288.808594 498.660156 C 289.328125 498.320312 289.683594 497.816406 289.839844 497.261719 C 290.007812 496.691406 289.972656 496.066406 289.714844 495.507812 L 289.65625 495.375 L 289.617188 495.234375 C 287.695312 488.597656 285.0625 483.742188 281.632812 479.605469 Z M 281.632812 479.605469 " fill-opacity="1" fill-rule="nonzero"/><path fill="#1fbc03" d="M 250.078125 422.230469 C 256.03125 430.945312 259.597656 437.566406 259.011719 448.949219 C 259.183594 450.683594 258.050781 452.308594 256.339844 452.738281 C 252.75 453.640625 249.265625 455.03125 246.234375 457.183594 C 244.023438 458.820312 241.074219 461.6875 239.277344 463.742188 C 238.984375 464.078125 238.65625 464.382812 238.308594 464.65625 C 236.605469 465.964844 233.269531 467.078125 231.597656 465.152344 C 230.539062 463.9375 230.890625 462.332031 231.585938 461.042969 C 233.800781 456.90625 236.8125 453.4375 240.632812 450.714844 C 243.59375 448.609375 247.785156 447.691406 251.433594 446.710938 C 250.816406 443.511719 249.992188 440.4375 248.851562 437.34375 C 246.742188 431.597656 244.113281 426.289062 240.976562 421.035156 C 240.710938 420.59375 240.53125 420.097656 240.472656 419.582031 C 240.242188 417.636719 241.65625 415.859375 243.59375 415.632812 C 264.082031 413.273438 279.460938 412.269531 296.472656 425.992188 C 298.078125 426.96875 298.65625 429.054688 297.75 430.726562 C 296.8125 432.449219 294.652344 433.089844 292.933594 432.160156 C 279.40625 424.835938 265.285156 421.46875 250.078125 422.230469 Z M 250.078125 422.230469 " fill-opacity="1" fill-rule="evenodd"/><path fill="#000000" d="M 253.730469 424.121094 C 255.859375 427.414062 257.59375 430.53125 258.859375 433.894531 C 260.503906 438.28125 261.292969 443 261.003906 448.929688 C 261.09375 450.226562 260.71875 451.476562 260.007812 452.484375 C 259.265625 453.539062 258.15625 454.335938 256.824219 454.671875 C 255.121094 455.097656 253.449219 455.640625 251.855469 456.328125 C 250.28125 457 248.773438 457.820312 247.386719 458.804688 C 246.421875 459.523438 245.285156 460.515625 244.167969 461.5625 C 242.898438 462.761719 241.675781 464.023438 240.777344 465.050781 C 240.605469 465.25 240.40625 465.453125 240.179688 465.667969 L 240.179688 465.675781 C 239.976562 465.863281 239.753906 466.050781 239.519531 466.230469 C 238.304688 467.167969 236.414062 468.027344 234.605469 468.160156 C 232.933594 468.285156 231.292969 467.847656 230.09375 466.464844 C 229.273438 465.519531 228.941406 464.441406 228.941406 463.335938 C 228.9375 462.1875 229.3125 461.058594 229.832031 460.097656 C 231.011719 457.894531 232.414062 455.859375 234.035156 454.007812 C 235.636719 452.179688 237.453125 450.535156 239.476562 449.097656 C 242.238281 447.128906 245.769531 446.144531 249.101562 445.269531 C 248.890625 444.324219 248.664062 443.40625 248.421875 442.507812 C 248.023438 441.054688 247.542969 439.5625 246.980469 438.027344 C 245.941406 435.207031 244.78125 432.503906 243.507812 429.871094 C 242.214844 427.214844 240.800781 424.625 239.265625 422.058594 L 239.265625 422.050781 C 239.0625 421.707031 238.894531 421.34375 238.761719 420.96875 C 238.628906 420.589844 238.539062 420.207031 238.492188 419.824219 L 238.492188 419.804688 C 238.316406 418.289062 238.777344 416.835938 239.660156 415.722656 L 239.664062 415.726562 C 240.550781 414.613281 241.847656 413.835938 243.351562 413.65625 L 243.371094 413.65625 C 253.742188 412.457031 262.839844 411.609375 271.601562 412.808594 C 280.460938 414.019531 288.855469 417.3125 297.65625 424.390625 C 298.832031 425.160156 299.636719 426.316406 299.976562 427.589844 C 300.332031 428.90625 300.203125 430.363281 299.5 431.667969 C 298.773438 433.019531 297.5625 433.941406 296.199219 434.347656 C 294.839844 434.75 293.328125 434.636719 291.988281 433.910156 C 285.382812 430.335938 278.632812 427.726562 271.683594 426.105469 C 265.855469 424.746094 259.878906 424.078125 253.730469 424.121094 Z M 255.132812 435.285156 C 253.648438 431.324219 251.335938 427.601562 248.433594 423.355469 L 246.433594 420.421875 L 249.984375 420.242188 C 257.78125 419.851562 265.292969 420.519531 272.585938 422.222656 C 279.878906 423.921875 286.953125 426.65625 293.875 430.402344 C 294.257812 430.609375 294.6875 430.640625 295.078125 430.527344 C 295.457031 430.414062 295.792969 430.15625 295.996094 429.78125 L 296 429.773438 C 296.195312 429.414062 296.230469 429 296.128906 428.617188 C 296.027344 428.242188 295.785156 427.902344 295.441406 427.691406 L 295.300781 427.605469 L 295.21875 427.542969 C 287.03125 420.933594 279.253906 417.875 271.070312 416.753906 C 262.777344 415.617188 253.9375 416.449219 243.828125 417.613281 L 243.816406 417.617188 C 243.390625 417.664062 243.023438 417.882812 242.777344 418.195312 L 242.777344 418.203125 C 242.535156 418.511719 242.402344 418.917969 242.445312 419.335938 L 242.449219 419.355469 C 242.460938 419.472656 242.488281 419.582031 242.519531 419.671875 C 242.5625 419.792969 242.617188 419.90625 242.679688 420.015625 L 242.683594 420.011719 C 244.285156 422.695312 245.753906 425.390625 247.09375 428.140625 C 248.433594 430.90625 249.648438 433.730469 250.722656 436.65625 C 251.292969 438.210938 251.800781 439.8125 252.257812 441.464844 C 252.703125 443.109375 253.074219 444.726562 253.386719 446.339844 L 253.738281 448.164062 L 251.9375 448.640625 L 250.625 448.984375 L 250.617188 448.984375 C 247.484375 449.804688 244.101562 450.691406 241.785156 452.339844 C 240.007812 453.601562 238.425781 455.035156 237.03125 456.632812 C 235.617188 458.242188 234.382812 460.03125 233.335938 461.984375 C 233.089844 462.441406 232.917969 462.925781 232.917969 463.335938 C 232.917969 463.515625 232.972656 463.691406 233.097656 463.84375 C 233.355469 464.136719 233.816406 464.222656 234.324219 464.183594 C 235.324219 464.109375 236.390625 463.617188 237.089844 463.078125 C 237.214844 462.984375 237.339844 462.878906 237.464844 462.757812 L 237.46875 462.761719 C 237.5625 462.675781 237.667969 462.5625 237.78125 462.433594 C 238.773438 461.296875 240.089844 459.933594 241.441406 458.664062 C 242.660156 457.511719 243.933594 456.410156 245.050781 455.585938 L 245.078125 455.5625 C 246.71875 454.398438 248.476562 453.441406 250.296875 452.660156 C 252.101562 451.886719 253.972656 451.277344 255.859375 450.804688 C 256.230469 450.710938 256.542969 450.484375 256.75 450.191406 C 256.964844 449.890625 257.070312 449.515625 257.03125 449.128906 L 257.015625 448.976562 L 257.023438 448.84375 C 257.300781 443.449219 256.601562 439.199219 255.132812 435.285156 Z M 255.132812 435.285156 " fill-opacity="1" fill-rule="nonzero"/><path fill="#1fbc03" d="M 323.238281 315.464844 C 320.609375 313.652344 317.980469 311.839844 315.351562 310.03125 C 303.003906 249.253906 329.191406 212.550781 364.414062 185.011719 C 333.863281 219.078125 312.589844 258.597656 323.238281 315.464844 Z M 323.238281 315.464844 " fill-opacity="1" fill-rule="evenodd"/><path fill="#000000" d="M 322.066406 317.074219 L 314.21875 311.667969 C 313.75 311.34375 313.464844 310.855469 313.382812 310.335938 C 307.140625 279.523438 310.671875 254.773438 320.234375 234.21875 C 329.789062 213.679688 345.347656 197.390625 363.1875 183.441406 C 364.054688 182.769531 365.304688 182.921875 365.976562 183.789062 C 366.597656 184.578125 366.519531 185.683594 365.847656 186.390625 C 350.75 203.230469 337.945312 221.414062 330.246094 242.375 C 322.554688 263.304688 319.945312 287.054688 325.191406 315.097656 C 325.394531 316.175781 324.683594 317.21875 323.601562 317.417969 C 323.046875 317.523438 322.496094 317.382812 322.066406 317.074219 Z M 317.140625 308.851562 L 320.464844 311.140625 C 316.195312 284.34375 319.015625 261.386719 326.503906 241 C 331.597656 227.140625 338.847656 214.484375 347.492188 202.632812 C 337.878906 212.410156 329.691406 223.347656 323.855469 235.902344 C 314.695312 255.578125 311.28125 279.300781 317.140625 308.851562 Z M 317.140625 308.851562 " fill-opacity="1" fill-rule="nonzero"/><path fill="#1fbc03" d="M 272.859375 304.492188 C 270.550781 303.203125 268.242188 301.910156 265.933594 300.617188 C 251.0625 251.441406 269.835938 219.140625 296.765625 193.703125 C 274.191406 224.164062 259.691406 258.40625 272.859375 304.492188 Z M 272.859375 304.492188 " fill-opacity="1" fill-rule="evenodd"/><path fill="#000000" d="M 271.773438 306.164062 L 264.96875 302.359375 C 264.496094 302.097656 264.175781 301.671875 264.03125 301.195312 L 264.023438 301.195312 C 256.453125 276.15625 257.460938 255.375 263.796875 237.59375 C 270.117188 219.851562 281.730469 205.167969 295.402344 192.253906 C 296.199219 191.5 297.464844 191.535156 298.214844 192.335938 C 298.902344 193.070312 298.929688 194.183594 298.320312 194.945312 C 287.1875 209.976562 278.050781 225.921875 273.332031 243.746094 C 268.621094 261.542969 268.300781 281.277344 274.773438 303.945312 C 275.078125 305.003906 274.460938 306.109375 273.40625 306.410156 C 272.828125 306.574219 272.238281 306.46875 271.773438 306.164062 Z M 267.617188 299.28125 L 269.710938 300.449219 C 264.320312 278.9375 264.917969 259.972656 269.484375 242.734375 C 272.210938 232.433594 276.351562 222.765625 281.472656 213.542969 C 275.648438 221.289062 270.84375 229.683594 267.554688 238.921875 C 261.550781 255.761719 260.566406 275.484375 267.617188 299.28125 Z M 267.617188 299.28125 " fill-opacity="1" fill-rule="nonzero"/><path fill="#1fbc03" d="M 334.714844 399.90625 C 330.304688 395.847656 320.234375 388.585938 314.308594 390.355469 C 309.796875 391.691406 307.277344 401.976562 305.910156 413.421875 C 304.292969 426.941406 304.15625 454.390625 303.714844 478.316406 C 303.566406 486.496094 306.820312 531.671875 294.621094 527.671875 C 266.933594 518.578125 265.832031 547.042969 281.773438 550.152344 L 283.722656 550.527344 C 301.894531 554.078125 308.105469 549.324219 310.21875 527.300781 C 313.953125 488.460938 324.84375 456.621094 327.851562 428.234375 C 328.160156 428.382812 328.820312 430.109375 329.78125 432.917969 C 332.355469 440.421875 337.101562 455.71875 343.125 469.582031 C 352.242188 490.539062 375.113281 522.117188 394.925781 511.914062 C 411.375 503.441406 406.03125 478.539062 396.988281 462.011719 C 380.675781 432.21875 343.15625 407.675781 334.714844 399.90625 Z M 334.714844 399.90625 " fill-opacity="1" fill-rule="evenodd"/><path fill="#000000" d="M 333.367188 401.375 C 330.871094 399.074219 326.507812 395.71875 322.207031 393.707031 C 319.453125 392.417969 316.789062 391.695312 314.875 392.265625 L 314.867188 392.265625 C 313.5 392.675781 312.265625 394.699219 311.167969 397.710938 C 309.671875 401.828125 308.617188 407.558594 307.890625 413.65625 C 306.5625 424.757812 306.234375 445.304688 305.917969 465.535156 C 305.847656 469.851562 305.78125 474.15625 305.703125 478.347656 C 305.683594 479.511719 305.734375 481.507812 305.800781 484.023438 C 306.0625 494.226562 306.539062 512.855469 303.34375 522.605469 C 301.554688 528.058594 298.632812 531.085938 294.003906 529.5625 C 285.132812 526.652344 279.375 527.8125 276.269531 530.683594 C 274.996094 531.863281 274.15625 533.347656 273.734375 534.949219 C 273.304688 536.578125 273.300781 538.34375 273.703125 540.046875 C 274.597656 543.855469 277.523438 547.289062 282.15625 548.195312 L 282.15625 548.199219 L 284.09375 548.574219 L 284.101562 548.574219 C 292.5625 550.226562 298.15625 550.023438 301.699219 546.992188 C 305.347656 543.871094 307.234375 537.582031 308.242188 527.113281 C 310.308594 505.617188 314.527344 486.359375 318.410156 468.628906 C 321.582031 454.140625 324.53125 440.675781 325.867188 428.027344 L 326.171875 425.152344 L 328.746094 426.453125 C 329.367188 426.765625 329.914062 427.582031 330.417969 428.828125 L 330.417969 428.839844 C 330.777344 429.726562 331.1875 430.878906 331.667969 432.269531 C 331.867188 432.855469 332.578125 434.996094 333.351562 437.320312 C 336.0625 445.476562 340.082031 457.589844 344.953125 468.785156 C 345.792969 470.722656 346.765625 472.769531 347.851562 474.875 C 352.886719 484.667969 360.257812 495.539062 368.511719 502.996094 C 376.40625 510.132812 385.0625 514.082031 393.027344 510.617188 C 393.34375 510.476562 393.671875 510.320312 394.011719 510.144531 L 394.019531 510.144531 L 394.433594 509.917969 L 394.445312 509.917969 C 401.332031 506.140625 403.777344 498.898438 403.550781 490.710938 C 403.320312 482.136719 400.195312 472.554688 396.113281 464.625 C 395.800781 464.003906 395.503906 463.453125 395.242188 462.96875 C 382.566406 439.808594 356.675781 419.722656 342.226562 408.507812 C 338.292969 405.457031 335.1875 403.050781 333.367188 401.375 Z M 323.890625 390.101562 C 328.621094 392.316406 333.367188 395.957031 336.0625 398.4375 C 337.792969 400.03125 340.824219 402.382812 344.65625 405.359375 C 359.34375 416.753906 385.652344 437.167969 398.734375 461.0625 C 399.074219 461.6875 399.382812 462.269531 399.65625 462.800781 C 403.96875 471.1875 407.273438 481.382812 407.527344 490.605469 C 407.789062 500.207031 404.789062 508.78125 396.351562 513.410156 L 396.351562 513.414062 L 395.835938 513.683594 L 395.835938 513.6875 C 395.445312 513.886719 395.039062 514.082031 394.617188 514.265625 C 384.921875 518.484375 374.839844 514.085938 365.84375 505.960938 C 357.210938 498.15625 349.535156 486.855469 344.308594 476.703125 C 343.199219 474.539062 342.191406 472.414062 341.308594 470.375 C 336.390625 459.078125 332.320312 446.824219 329.578125 438.566406 L 328.820312 436.300781 C 327.257812 446.847656 324.855469 457.832031 322.304688 469.46875 C 318.4375 487.132812 314.234375 506.320312 312.199219 527.484375 C 311.089844 539.042969 308.8125 546.144531 304.285156 550.019531 C 299.652344 553.984375 293.042969 554.382812 283.335938 552.488281 L 281.402344 552.109375 L 281.394531 552.109375 C 275.054688 550.871094 271.046875 546.164062 269.820312 540.949219 C 269.277344 538.636719 269.285156 536.207031 269.886719 533.933594 C 270.492188 531.621094 271.710938 529.472656 273.574219 527.75 C 277.640625 523.992188 284.753906 522.332031 295.238281 525.773438 C 297.121094 526.394531 298.519531 524.539062 299.554688 521.375 C 302.546875 512.25 302.082031 494.070312 301.824219 484.121094 C 301.757812 481.566406 301.707031 479.539062 301.730469 478.289062 C 301.808594 474.09375 301.875 469.789062 301.945312 465.472656 C 302.261719 445.085938 302.59375 424.378906 303.929688 413.1875 C 304.6875 406.835938 305.808594 400.804688 307.425781 396.351562 C 308.945312 392.179688 310.996094 389.265625 313.738281 388.445312 L 313.734375 388.445312 C 316.703125 387.554688 320.328125 388.4375 323.890625 390.101562 Z M 323.890625 390.101562 " fill-opacity="1" fill-rule="nonzero"/><path fill="#178903" d="M 442.101562 398.015625 C 490.480469 446.421875 503.953125 511.429688 472.1875 543.207031 C 440.433594 574.992188 375.46875 561.507812 327.09375 513.101562 C 278.710938 464.691406 265.238281 399.6875 297 367.910156 C 328.761719 336.132812 393.722656 349.609375 442.101562 398.015625 Z M 442.101562 398.015625 " fill-opacity="1" fill-rule="evenodd"/><path fill="#116403" d="M 442.101562 398.015625 C 490.480469 446.421875 503.953125 511.429688 472.1875 543.210938 C 444.015625 571.402344 389.710938 563.972656 344.035156 528.140625 C 381.476562 547.601562 420.207031 548.128906 442.324219 526 C 473.085938 495.21875 460.035156 432.253906 413.179688 385.363281 C 400.835938 373.011719 387.371094 363.007812 373.671875 355.535156 C 396.890625 362.527344 421.066406 376.964844 442.101562 398.015625 Z M 442.101562 398.015625 " fill-opacity="1" fill-rule="evenodd"/><path fill="#000000" d="M 443.511719 396.601562 C 467.976562 421.082031 483.625 449.804688 489.144531 476.449219 C 494.722656 503.375 489.984375 528.226562 473.601562 544.617188 C 457.222656 561.011719 432.382812 565.757812 405.476562 560.175781 C 378.847656 554.648438 350.144531 538.988281 325.679688 514.511719 C 301.214844 490.035156 285.570312 461.3125 280.046875 434.664062 C 274.46875 407.742188 279.207031 382.890625 295.589844 366.496094 C 311.976562 350.105469 336.808594 345.363281 363.714844 350.945312 C 390.347656 356.46875 419.050781 372.125 443.511719 396.601562 Z M 485.25 477.242188 C 479.882812 451.339844 464.605469 423.355469 440.691406 399.425781 C 416.777344 375.496094 388.808594 360.214844 362.925781 354.839844 C 337.316406 349.53125 313.789062 353.9375 298.410156 369.320312 C 283.035156 384.707031 278.632812 408.25 283.941406 433.871094 C 289.308594 459.773438 304.589844 487.757812 328.5 511.6875 C 352.414062 535.617188 380.382812 550.90625 406.273438 556.273438 C 431.875 561.589844 455.40625 557.179688 470.78125 541.796875 C 486.15625 526.410156 490.558594 502.867188 485.25 477.242188 Z M 485.25 477.242188 " fill-opacity="1" fill-rule="nonzero"/><path fill="#1fbc03" d="M 376.785156 345.625 C 374.648438 362.148438 372.507812 378.671875 370.371094 395.195312 C 429.78125 426.457031 470.617188 482.171875 508.554688 541.707031 C 518.660156 476.164062 500.882812 392.382812 376.785156 345.625 Z M 376.785156 345.625 " fill-opacity="1" fill-rule="evenodd"/><path fill="#5bce47" d="M 376.789062 345.628906 L 375.019531 359.273438 C 467.378906 395.628906 502.519531 451.707031 510.878906 506.070312 C 509.230469 448.089844 479.253906 384.234375 376.789062 345.628906 Z M 376.789062 345.628906 " fill-opacity="1" fill-rule="evenodd"/><path fill="#000000" d="M 378.4375 348.386719 L 372.519531 394.082031 C 401.917969 409.78125 426.78125 431.429688 449.003906 456.53125 C 470.324219 480.617188 489.203125 507.875 507.332031 536.105469 C 511.851562 500.90625 507.882812 460.976562 483.527344 424.730469 C 463.875 395.484375 430.925781 368.578125 378.4375 348.386719 Z M 368.394531 394.945312 L 374.804688 345.476562 C 374.816406 345.289062 374.855469 345.105469 374.929688 344.925781 C 375.3125 343.894531 376.460938 343.375 377.488281 343.765625 C 432.207031 364.378906 466.453125 392.195312 486.828125 422.511719 C 513.085938 461.589844 516.273438 504.726562 510.527344 542.011719 L 510.515625 542.007812 C 510.433594 542.554688 510.125 543.066406 509.625 543.382812 C 508.695312 543.972656 507.46875 543.699219 506.878906 542.777344 C 487.960938 513.085938 468.320312 484.351562 446.027344 459.167969 C 423.804688 434.0625 398.917969 412.46875 369.441406 396.960938 L 369.441406 396.957031 C 368.730469 396.582031 368.289062 395.792969 368.394531 394.945312 Z M 368.394531 394.945312 " fill-opacity="1" fill-rule="nonzero"/><path fill="#000000" d="M 478.210938 444.851562 C 481.535156 451.742188 484.257812 458.671875 486.34375 465.527344 C 488.445312 472.441406 489.902344 479.265625 490.6875 485.882812 L 490.792969 486.796875 L 490.164062 487.476562 C 474.703125 504.058594 455.0625 517.675781 432.609375 527.152344 C 410.984375 536.277344 386.746094 541.5625 361.113281 541.964844 L 360.53125 541.972656 L 360.042969 541.675781 C 354.03125 538.019531 348.078125 533.871094 342.242188 529.261719 C 336.527344 524.742188 330.980469 519.820312 325.679688 514.515625 C 323.757812 512.59375 321.84375 510.59375 319.949219 508.523438 L 319.949219 508.515625 C 318.070312 506.464844 316.246094 504.386719 314.480469 502.285156 L 311.164062 498.332031 L 316.269531 499.03125 C 320.585938 499.625 324.976562 500.078125 329.429688 500.382812 C 333.785156 500.675781 338.222656 500.828125 342.738281 500.828125 C 369.28125 500.828125 394.359375 495.488281 416.570312 486 C 439.613281 476.15625 459.582031 461.84375 474.921875 444.402344 L 476.902344 442.144531 Z M 482.539062 466.683594 C 480.789062 460.933594 478.570312 455.109375 475.894531 449.285156 C 460.453125 466.148438 440.734375 480.007812 418.128906 489.664062 C 395.429688 499.363281 369.820312 504.820312 342.738281 504.820312 C 338.203125 504.820312 333.675781 504.660156 329.164062 504.355469 C 326.390625 504.171875 323.628906 503.921875 320.882812 503.617188 C 321.539062 504.355469 322.203125 505.089844 322.875 505.828125 L 322.878906 505.824219 C 324.648438 507.753906 326.527344 509.714844 328.5 511.691406 C 333.765625 516.960938 339.191406 521.78125 344.707031 526.140625 C 350.21875 530.503906 355.886719 534.453125 361.628906 537.976562 C 386.523438 537.511719 410.058594 532.351562 431.066406 523.484375 C 452.683594 514.359375 471.625 501.3125 486.613281 485.4375 C 485.832031 479.300781 484.46875 473.019531 482.539062 466.683594 Z M 482.539062 466.683594 " fill-opacity="1" fill-rule="nonzero"/><path fill="#1fbc03" d="M 307.195312 289.175781 C 346.195312 284.964844 393.125 315.957031 386.238281 359.691406 C 379.902344 399.957031 345.882812 421.664062 308.472656 423.5625 C 277.957031 425.113281 248.773438 406.375 245.003906 374.9375 C 240.460938 336.996094 268.191406 293.386719 307.195312 289.175781 Z M 307.195312 289.175781 " fill-opacity="1" fill-rule="evenodd"/><path fill="#000000" d="M 306.984375 287.195312 C 313.277344 286.515625 319.777344 286.726562 326.234375 287.746094 C 341.203125 290.101562 355.933594 296.800781 367.332031 306.707031 C 378.808594 316.695312 386.9375 329.9375 388.59375 345.316406 C 389.105469 350.019531 389 354.925781 388.203125 359.996094 C 385.105469 379.675781 375.566406 395.046875 362.273438 405.960938 C 347.6875 417.941406 328.59375 424.535156 308.566406 425.554688 C 292.328125 426.378906 276.445312 421.609375 264.339844 412.339844 C 252.960938 403.621094 244.914062 390.933594 243.027344 375.175781 L 243.027344 375.167969 L 242.933594 374.378906 L 242.933594 374.359375 C 240.859375 355.113281 246.800781 334.542969 258.171875 318.210938 C 269.589844 301.816406 286.492188 289.644531 306.289062 287.273438 L 306.304688 287.273438 L 306.976562 287.195312 Z M 325.625 291.675781 C 319.523438 290.714844 313.371094 290.511719 307.414062 291.15625 L 306.757812 291.230469 L 306.757812 291.234375 C 288.179688 293.460938 272.25 304.972656 261.445312 320.488281 C 250.601562 336.070312 244.925781 355.644531 246.894531 373.925781 L 246.980469 374.707031 C 248.734375 389.320312 256.199219 401.085938 266.757812 409.171875 C 278.121094 417.878906 293.070312 422.355469 308.378906 421.574219 C 327.574219 420.601562 345.84375 414.3125 359.75 402.886719 C 372.320312 392.5625 381.34375 378.015625 384.277344 359.382812 C 385.019531 354.675781 385.113281 350.117188 384.640625 345.738281 C 383.09375 331.4375 375.484375 319.074219 364.726562 309.722656 C 353.886719 300.292969 339.867188 293.921875 325.625 291.675781 Z M 325.625 291.675781 " fill-opacity="1" fill-rule="nonzero"/><path fill="#000000" d="M 244.382812 259.117188 C 248.648438 258.550781 252.925781 258.9375 257.011719 260.289062 C 264.171875 262.660156 270.011719 267.722656 274.113281 273.976562 C 278.78125 281.085938 281.140625 289.550781 281.511719 298.011719 C 281.960938 308.238281 279.519531 318.675781 274.234375 327.472656 C 269.507812 335.34375 262.394531 341.976562 253.507812 344.75 C 251.878906 345.261719 250.203125 345.632812 248.507812 345.855469 C 244.242188 346.421875 239.964844 346.035156 235.878906 344.679688 C 228.71875 342.308594 222.878906 337.25 218.777344 330.996094 C 214.109375 323.886719 211.75 315.417969 211.378906 306.960938 C 210.929688 296.734375 213.371094 286.292969 218.65625 277.503906 C 223.382812 269.625 230.5 262.996094 239.386719 260.222656 C 241.015625 259.710938 242.6875 259.339844 244.382812 259.117188 Z M 244.382812 259.117188 " fill-opacity="1" fill-rule="evenodd"/><path fill="#cccccc" d="M 245.019531 261.671875 C 262.804688 259.316406 278.015625 275.441406 278.988281 297.683594 C 279.964844 319.929688 266.332031 339.867188 248.542969 342.222656 C 230.757812 344.574219 215.546875 328.453125 214.570312 306.207031 C 213.597656 283.964844 227.230469 264.027344 245.019531 261.671875 Z M 245.019531 261.671875 " fill-opacity="1" fill-rule="evenodd"/><path fill="#ffffff" d="M 245.605469 263.875 C 262.089844 261.691406 276.1875 276.636719 277.089844 297.25 C 277.992188 317.863281 265.359375 336.34375 248.875 338.523438 C 232.390625 340.707031 218.292969 325.765625 217.390625 305.148438 C 216.492188 284.539062 229.121094 266.058594 245.605469 263.875 Z M 245.605469 263.875 " fill-opacity="1" fill-rule="evenodd"/><path fill="#000000" d="M 253.8125 292.59375 C 253.433594 292.542969 253.058594 292.53125 252.691406 292.546875 C 253.398438 293.585938 253.804688 294.945312 253.742188 296.378906 C 253.613281 299.253906 251.652344 301.339844 249.347656 301.035156 C 247.957031 300.847656 246.757812 299.828125 246.0625 298.414062 C 245.78125 299.320312 245.605469 300.300781 245.5625 301.339844 C 245.324219 306.742188 248.636719 311.585938 252.953125 312.15625 C 257.277344 312.726562 260.96875 308.8125 261.207031 303.410156 C 261.441406 298.007812 258.132812 293.164062 253.8125 292.59375 Z M 253.8125 292.59375 " fill-opacity="1" fill-rule="evenodd"/><path fill="#000000" d="M 318.507812 235.121094 C 313.046875 234.398438 307.566406 234.894531 302.332031 236.628906 C 293.160156 239.660156 285.683594 246.148438 280.425781 254.152344 C 274.445312 263.261719 271.425781 274.105469 270.953125 284.9375 C 270.378906 298.035156 273.503906 311.410156 280.269531 322.675781 C 286.328125 332.761719 295.441406 341.253906 306.824219 344.808594 C 308.914062 345.460938 311.054688 345.9375 313.222656 346.222656 C 318.6875 346.945312 324.167969 346.449219 329.402344 344.71875 C 338.574219 341.683594 346.050781 335.199219 351.308594 327.191406 C 357.289062 318.082031 360.308594 307.238281 360.78125 296.40625 C 361.355469 283.308594 358.226562 269.9375 351.464844 258.671875 C 345.40625 248.582031 336.292969 240.085938 324.910156 236.535156 C 322.820312 235.882812 320.679688 235.410156 318.507812 235.121094 Z M 318.507812 235.121094 " fill-opacity="1" fill-rule="evenodd"/><path fill="#cccccc" d="M 317.746094 237.402344 C 294.519531 234.328125 274.660156 255.378906 273.386719 284.425781 C 272.113281 313.464844 289.914062 339.503906 313.136719 342.578125 C 336.363281 345.648438 356.226562 324.597656 357.496094 295.550781 C 358.769531 266.511719 340.972656 240.472656 317.746094 237.402344 Z M 317.746094 237.402344 " fill-opacity="1" fill-rule="evenodd"/><path fill="#ffffff" d="M 317.011719 239.445312 C 295.121094 236.546875 276.398438 256.390625 275.199219 283.765625 C 274 311.144531 290.777344 335.6875 312.667969 338.582031 C 334.5625 341.480469 353.28125 321.632812 354.484375 294.257812 C 355.679688 266.882812 338.902344 242.339844 317.011719 239.445312 Z M 317.011719 239.445312 " fill-opacity="1" fill-rule="evenodd"/><path fill="#000000" d="M 327.03125 279.648438 C 326.660156 279.597656 326.292969 279.578125 325.933594 279.578125 C 327.0625 280.972656 327.742188 282.9375 327.648438 285.027344 C 327.484375 288.757812 324.933594 291.460938 321.949219 291.066406 C 319.847656 290.789062 318.09375 289.042969 317.296875 286.734375 C 316.886719 287.964844 316.632812 289.3125 316.570312 290.738281 C 316.269531 297.589844 320.46875 303.734375 325.945312 304.457031 C 331.425781 305.183594 336.109375 300.214844 336.40625 293.367188 C 336.710938 286.515625 332.511719 280.375 327.03125 279.648438 Z M 327.03125 279.648438 " fill-opacity="1" fill-rule="evenodd"/><path fill="#ffffff" d="M 270.175781 386.4375 C 287.933594 386.195312 331.796875 390.964844 358.863281 371.121094 C 326.097656 420.640625 265.648438 389.496094 270.175781 386.4375 Z M 270.175781 386.4375 " fill-opacity="1" fill-rule="evenodd"/><path fill="#000000" d="M 270.292969 384.445312 C 273.03125 384.410156 276.335938 384.492188 280.082031 384.582031 C 300.785156 385.082031 335.316406 385.917969 357.683594 369.523438 C 358.566406 368.871094 359.816406 369.0625 360.464844 369.949219 C 360.988281 370.664062 360.964844 371.609375 360.476562 372.292969 C 340.058594 403.085938 309.289062 403.597656 289.132812 398.46875 C 283.40625 397.011719 278.523438 395.089844 274.984375 393.285156 C 271.101562 391.304688 268.613281 389.222656 268.105469 387.796875 C 267.664062 386.550781 267.964844 385.523438 269.0625 384.78125 C 269.4375 384.527344 269.871094 384.417969 270.292969 384.445312 Z M 279.988281 388.558594 C 277.996094 388.511719 276.136719 388.464844 274.421875 388.4375 C 275.09375 388.832031 275.886719 389.265625 276.792969 389.726562 C 280.109375 391.417969 284.699219 393.222656 290.117188 394.597656 C 307.058594 398.910156 331.964844 399 350.734375 378.371094 C 327.960938 389.71875 298.550781 389.007812 279.988281 388.558594 Z M 279.988281 388.558594 " fill-opacity="1" fill-rule="nonzero"/><path fill="#000000" d="M 292.382812 386.761719 L 292.414062 396.734375 L 288.4375 396.734375 L 288.410156 386.761719 Z M 332.117188 383.246094 L 332.152344 395.136719 L 328.175781 395.136719 L 328.140625 383.246094 Z M 318.179688 385.667969 L 318.214844 397.558594 L 314.242188 397.558594 L 314.203125 385.667969 Z M 304.882812 387.585938 L 304.910156 397.558594 L 300.9375 397.558594 L 300.90625 387.585938 Z M 304.882812 387.585938 " fill-opacity="1" fill-rule="nonzero"/><path fill="#000000" d="M 279.023438 350.300781 C 280.066406 350.644531 280.628906 351.773438 280.285156 352.816406 C 279.941406 353.855469 278.816406 354.421875 277.773438 354.078125 C 275.292969 353.253906 273.316406 353.398438 272.003906 354.074219 C 271.457031 354.355469 271.039062 354.730469 270.777344 355.148438 L 270.730469 355.222656 C 270.53125 355.570312 270.4375 355.960938 270.453125 356.363281 C 270.488281 357.117188 270.9375 357.949219 271.878906 358.722656 C 272.726562 359.421875 272.847656 360.675781 272.152344 361.523438 C 271.453125 362.371094 270.199219 362.492188 269.351562 361.796875 C 267.472656 360.25 266.5625 358.378906 266.480469 356.546875 C 266.421875 355.355469 266.722656 354.195312 267.328125 353.167969 C 267.355469 353.121094 267.378906 353.074219 267.410156 353.027344 C 268.042969 352.015625 268.984375 351.148438 270.179688 350.535156 C 272.351562 349.414062 275.414062 349.105469 279.023438 350.300781 Z M 279.023438 350.300781 " fill-opacity="1" fill-rule="nonzero"/><path fill="#1fbc03" d="M 507.078125 399.90625 C 511.496094 395.847656 521.5625 388.585938 527.492188 390.355469 C 532 391.691406 534.515625 401.976562 535.882812 413.421875 C 537.507812 426.941406 537.636719 454.390625 538.082031 478.316406 C 538.230469 486.496094 534.976562 531.671875 547.171875 527.671875 C 574.859375 518.578125 575.960938 547.042969 560.023438 550.152344 L 558.078125 550.527344 C 539.902344 554.078125 533.695312 549.324219 531.578125 527.300781 C 527.84375 488.460938 516.953125 456.621094 513.949219 428.234375 C 513.636719 428.382812 512.976562 430.109375 512.015625 432.917969 C 509.445312 440.421875 504.699219 455.71875 498.667969 469.582031 C 489.550781 490.539062 466.679688 522.117188 446.871094 511.914062 C 430.425781 503.441406 435.765625 478.539062 444.808594 462.011719 C 461.121094 432.21875 498.640625 407.675781 507.078125 399.90625 Z M 507.078125 399.90625 " fill-opacity="1" fill-rule="evenodd"/><path fill="#000000" d="M 505.734375 398.4375 C 508.429688 395.957031 513.171875 392.316406 517.902344 390.101562 C 521.464844 388.4375 525.089844 387.554688 528.058594 388.441406 L 528.058594 388.445312 C 530.796875 389.265625 532.847656 392.179688 534.367188 396.351562 C 535.988281 400.804688 537.105469 406.832031 537.863281 413.1875 C 539.207031 424.378906 539.53125 445.085938 539.855469 465.472656 C 539.921875 469.789062 539.992188 474.09375 540.070312 478.289062 C 540.089844 479.539062 540.039062 481.566406 539.972656 484.121094 C 539.71875 494.070312 539.25 512.25 542.242188 521.375 C 543.28125 524.539062 544.671875 526.394531 546.558594 525.773438 C 557.042969 522.332031 564.15625 523.992188 568.222656 527.75 C 570.085938 529.472656 571.304688 531.621094 571.914062 533.933594 C 572.511719 536.207031 572.515625 538.632812 571.972656 540.949219 C 570.75 546.160156 566.746094 550.871094 560.402344 552.109375 L 560.394531 552.109375 L 558.457031 552.488281 C 548.75 554.382812 542.144531 553.980469 537.511719 550.019531 C 532.984375 546.144531 530.707031 539.042969 529.59375 527.484375 C 527.5625 506.320312 523.359375 487.132812 519.492188 469.46875 C 516.941406 457.832031 514.539062 446.847656 512.972656 436.296875 L 512.21875 438.566406 C 509.476562 446.824219 505.402344 459.078125 500.492188 470.375 C 499.605469 472.414062 498.59375 474.539062 497.484375 476.699219 C 492.261719 486.855469 484.589844 498.15625 475.949219 505.957031 C 466.960938 514.085938 456.875 518.484375 447.179688 514.265625 C 446.761719 514.082031 446.351562 513.886719 445.957031 513.6875 L 445.960938 513.683594 L 445.445312 513.414062 L 445.449219 513.410156 C 437.007812 508.78125 434.007812 500.207031 434.269531 490.605469 C 434.523438 481.382812 437.824219 471.1875 442.140625 462.800781 C 442.410156 462.269531 442.726562 461.6875 443.0625 461.0625 C 456.140625 437.167969 482.453125 416.75 497.136719 405.359375 C 500.976562 402.382812 504.003906 400.03125 505.734375 398.4375 Z M 519.589844 393.707031 C 515.289062 395.71875 510.921875 399.074219 508.429688 401.375 C 506.605469 403.046875 503.503906 405.457031 499.570312 408.507812 C 485.117188 419.722656 459.230469 439.808594 446.558594 462.96875 C 446.289062 463.453125 445.996094 464.003906 445.679688 464.625 C 441.601562 472.554688 438.480469 482.136719 438.242188 490.710938 C 438.019531 498.898438 440.460938 506.140625 447.355469 509.917969 L 447.359375 509.917969 L 447.777344 510.144531 L 447.785156 510.144531 C 448.125 510.320312 448.457031 510.476562 448.769531 510.613281 C 456.730469 514.082031 465.386719 510.132812 473.285156 502.996094 C 481.535156 495.539062 488.90625 484.667969 493.945312 474.875 C 495.03125 472.765625 496 470.71875 496.84375 468.785156 C 501.710938 457.589844 505.738281 445.476562 508.445312 437.316406 C 509.21875 434.996094 509.929688 432.859375 510.132812 432.269531 L 510.132812 432.273438 C 510.617188 430.851562 511.035156 429.6875 511.378906 428.839844 L 511.378906 428.828125 C 511.882812 427.582031 512.425781 426.773438 513.0625 426.449219 L 515.625 425.164062 L 515.929688 428.027344 C 517.265625 440.675781 520.21875 454.140625 523.386719 468.628906 C 527.273438 486.359375 531.488281 505.617188 533.554688 527.113281 C 534.558594 537.582031 536.449219 543.871094 540.097656 546.992188 C 543.644531 550.023438 549.230469 550.226562 557.691406 548.570312 L 557.703125 548.570312 L 559.640625 548.195312 C 564.269531 547.289062 567.199219 543.855469 568.09375 540.046875 C 568.492188 538.34375 568.492188 536.578125 568.0625 534.949219 C 567.640625 533.347656 566.800781 531.863281 565.527344 530.683594 C 562.417969 527.8125 556.664062 526.652344 547.789062 529.5625 C 543.164062 531.085938 540.238281 528.054688 538.453125 522.605469 C 535.257812 512.855469 535.734375 494.226562 536 484.023438 C 536.0625 481.503906 536.113281 479.511719 536.09375 478.347656 C 536.015625 474.15625 535.949219 469.851562 535.878906 465.535156 C 535.558594 445.300781 535.234375 424.757812 533.90625 413.65625 C 533.179688 407.558594 532.125 401.828125 530.625 397.710938 C 529.53125 394.699219 528.296875 392.671875 526.929688 392.265625 L 526.921875 392.265625 C 525.011719 391.695312 522.34375 392.417969 519.589844 393.707031 Z M 519.589844 393.707031 " fill-opacity="1" fill-rule="nonzero"/><path fill="#1fbc03" d="M 467.859375 423.691406 C 464.675781 435.832031 463.324219 444.675781 468.527344 457.191406 C 469.03125 459.207031 470.941406 460.574219 473.035156 460.375 C 477.414062 459.945312 481.878906 460.109375 486.132812 461.3125 C 489.261719 462.257812 493.71875 464.292969 496.546875 465.878906 C 497.007812 466.136719 497.496094 466.347656 498 466.511719 C 500.433594 467.296875 504.609375 467.210938 505.71875 464.382812 C 506.417969 462.601562 505.378906 460.9375 504.089844 459.773438 C 499.953125 456.027344 495.195312 453.34375 489.828125 451.820312 C 485.667969 450.644531 480.601562 451.292969 476.128906 451.65625 C 475.539062 447.820312 475.234375 444.050781 475.273438 440.128906 C 475.34375 432.847656 476.164062 425.84375 477.582031 418.707031 C 477.703125 418.101562 477.707031 417.476562 477.566406 416.875 C 477.042969 414.605469 474.757812 413.179688 472.492188 413.703125 C 448.59375 419.253906 430.960938 424.277344 417.386719 446.460938 C 415.976562 448.195312 416.160156 450.765625 417.847656 452.273438 C 419.578125 453.828125 422.257812 453.683594 423.8125 451.953125 C 436.042969 438.335938 450.515625 428.917969 467.859375 423.691406 Z M 467.859375 423.691406 " fill-opacity="1" fill-rule="evenodd"/><path fill="#000000" d="M 469.785156 424.199219 C 468.230469 430.136719 467.117188 435.253906 467.035156 440.332031 C 466.953125 445.351562 467.878906 450.4375 470.371094 456.425781 L 470.421875 456.554688 L 470.460938 456.714844 C 470.589844 457.242188 470.914062 457.691406 471.335938 457.992188 C 471.765625 458.289062 472.300781 458.445312 472.847656 458.394531 C 475.144531 458.171875 477.460938 458.101562 479.75 458.242188 C 482.085938 458.390625 484.40625 458.753906 486.671875 459.394531 L 486.710938 459.398438 C 488.238281 459.859375 490.097656 460.585938 491.945312 461.398438 C 493.964844 462.28125 495.972656 463.273438 497.515625 464.140625 L 497.523438 464.140625 C 497.726562 464.253906 497.898438 464.34375 498.035156 464.402344 C 498.191406 464.46875 498.386719 464.539062 498.617188 464.613281 L 498.617188 464.617188 C 499.679688 464.960938 501.164062 465.09375 502.386719 464.753906 L 502.394531 464.753906 C 503.078125 464.570312 503.644531 464.21875 503.863281 463.660156 C 503.984375 463.351562 503.96875 463.039062 503.863281 462.746094 C 503.675781 462.210938 503.246094 461.6875 502.757812 461.25 C 500.792969 459.472656 498.679688 457.941406 496.417969 456.679688 C 494.191406 455.441406 491.8125 454.453125 489.292969 453.742188 C 485.976562 452.804688 481.789062 453.171875 477.90625 453.507812 L 477.898438 453.507812 L 476.292969 453.644531 L 474.445312 453.804688 L 474.15625 451.960938 C 473.859375 450.015625 473.628906 448.0625 473.480469 446.074219 C 473.332031 444.148438 473.265625 442.171875 473.289062 440.109375 C 473.320312 436.375 473.550781 432.738281 473.945312 429.144531 C 474.34375 425.519531 474.910156 421.929688 475.632812 418.324219 C 475.667969 418.128906 475.6875 417.945312 475.6875 417.789062 C 475.6875 417.640625 475.664062 417.480469 475.625 417.316406 L 475.613281 417.261719 L 475.609375 417.253906 L 475.613281 417.253906 C 475.464844 416.6875 475.101562 416.226562 474.632812 415.933594 C 474.148438 415.625 473.539062 415.503906 472.945312 415.644531 L 472.890625 415.660156 L 472.882812 415.660156 L 472.882812 415.65625 C 461.089844 418.394531 450.855469 421.003906 441.980469 425.613281 C 433.199219 430.171875 425.660156 436.753906 419.085938 447.492188 L 419.023438 447.601562 L 418.929688 447.710938 C 418.5625 448.167969 418.398438 448.742188 418.445312 449.300781 C 418.484375 449.859375 418.734375 450.398438 419.171875 450.792969 C 419.628906 451.203125 420.21875 451.390625 420.796875 451.359375 C 421.359375 451.328125 421.921875 451.078125 422.335938 450.621094 C 428.566406 443.679688 435.378906 437.808594 442.84375 433 C 450.320312 428.1875 458.441406 424.445312 467.296875 421.777344 L 470.691406 420.753906 Z M 463.058594 440.269531 C 463.132812 435.824219 463.902344 431.464844 465.050781 426.6875 C 457.863281 429.140625 451.195312 432.363281 444.996094 436.351562 C 437.835938 440.964844 431.292969 446.609375 425.296875 453.285156 C 424.152344 454.558594 422.589844 455.25 421 455.335938 C 419.414062 455.421875 417.796875 454.902344 416.523438 453.757812 C 415.28125 452.640625 414.59375 451.148438 414.472656 449.617188 C 414.351562 448.125 414.773438 446.585938 415.746094 445.324219 C 422.734375 433.941406 430.777344 426.941406 440.15625 422.074219 C 449.449219 417.246094 459.957031 414.566406 472.046875 411.761719 L 472.101562 411.746094 L 472.113281 411.746094 L 472.113281 411.75 C 473.753906 411.382812 475.40625 411.71875 476.738281 412.546875 C 478.082031 413.390625 479.121094 414.75 479.507812 416.417969 L 479.523438 416.472656 L 479.523438 416.480469 C 479.613281 416.890625 479.65625 417.320312 479.664062 417.757812 C 479.664062 418.222656 479.625 418.667969 479.539062 419.089844 C 478.839844 422.621094 478.285156 426.105469 477.902344 429.582031 C 477.519531 433.09375 477.296875 436.597656 477.261719 440.140625 C 477.242188 442.003906 477.3125 443.878906 477.453125 445.777344 C 477.546875 447.011719 477.675781 448.253906 477.839844 449.507812 C 481.980469 449.148438 486.425781 448.789062 490.367188 449.902344 C 493.179688 450.703125 495.847656 451.804688 498.351562 453.203125 C 500.871094 454.605469 503.230469 456.3125 505.425781 458.296875 C 506.351562 459.136719 507.191406 460.203125 507.621094 461.421875 C 508.027344 462.566406 508.082031 463.816406 507.574219 465.109375 C 506.828125 467.011719 505.261719 468.085938 503.445312 468.589844 L 503.445312 468.59375 C 501.4375 469.148438 499.070312 468.949219 497.394531 468.40625 L 497.382812 468.40625 C 497.105469 468.316406 496.796875 468.195312 496.460938 468.050781 C 496.121094 467.902344 495.820312 467.757812 495.574219 467.617188 L 495.574219 467.613281 C 494.132812 466.8125 492.261719 465.882812 490.355469 465.046875 C 488.6875 464.316406 486.988281 463.65625 485.558594 463.222656 L 485.558594 463.21875 C 483.582031 462.664062 481.558594 462.347656 479.515625 462.222656 C 477.414062 462.089844 475.304688 462.152344 473.222656 462.351562 C 471.6875 462.5 470.21875 462.078125 469.046875 461.25 C 467.90625 460.445312 467.039062 459.257812 466.640625 457.84375 C 463.964844 451.367188 462.972656 445.804688 463.058594 440.269531 Z M 463.058594 440.269531 " fill-opacity="1" fill-rule="nonzero"/><path fill="#1fbc03" d="M 442.5625 399.109375 C 440.386719 413.738281 439.941406 424.261719 447.640625 438.246094 C 448.488281 440.542969 450.90625 441.898438 453.328125 441.390625 C 458.398438 440.332031 463.648438 439.945312 468.785156 440.804688 C 472.566406 441.511719 478.039062 443.320312 481.558594 444.8125 C 482.128906 445.054688 482.734375 445.238281 483.339844 445.363281 C 486.289062 445.972656 491.171875 445.335938 492.105469 441.882812 C 492.691406 439.707031 491.265625 437.894531 489.605469 436.691406 C 484.28125 432.839844 478.363281 430.308594 471.886719 429.222656 C 466.867188 428.378906 461.019531 429.785156 455.828125 430.789062 C 454.648438 426.375 453.804688 422 453.347656 417.398438 C 452.496094 408.871094 452.558594 400.566406 453.300781 392.023438 C 453.363281 391.304688 453.285156 390.570312 453.046875 389.882812 C 452.144531 387.296875 449.28125 385.917969 446.699219 386.824219 C 419.429688 396.394531 399.4375 404.542969 386.394531 432.257812 C 384.964844 434.472656 385.511719 437.453125 387.679688 439.003906 C 389.90625 440.605469 393.027344 440.089844 394.625 437.863281 C 407.191406 420.351562 422.929688 407.464844 442.5625 399.109375 Z M 442.5625 399.109375 " fill-opacity="1" fill-rule="evenodd"/><path fill="#000000" d="M 444.53125 399.398438 C 443.464844 406.589844 442.820312 412.753906 443.378906 418.738281 C 443.929688 424.671875 445.679688 430.550781 449.386719 437.289062 L 449.457031 437.417969 L 449.511719 437.558594 C 449.761719 438.246094 450.253906 438.792969 450.859375 439.128906 C 451.472656 439.464844 452.195312 439.59375 452.917969 439.441406 C 455.546875 438.890625 458.238281 438.515625 460.945312 438.386719 C 463.667969 438.261719 466.40625 438.386719 469.109375 438.839844 L 469.144531 438.847656 C 471.039062 439.199219 473.28125 439.800781 475.496094 440.492188 C 477.933594 441.257812 480.398438 442.160156 482.328125 442.980469 C 482.539062 443.066406 482.773438 443.152344 483.011719 443.226562 C 483.261719 443.304688 483.503906 443.367188 483.738281 443.414062 C 485.089844 443.695312 486.921875 443.65625 488.382812 443.074219 C 489.257812 442.730469 489.960938 442.175781 490.179688 441.367188 C 490.308594 440.898438 490.234375 440.449219 490.042969 440.054688 C 489.726562 439.402344 489.113281 438.796875 488.4375 438.308594 C 485.871094 436.453125 483.179688 434.921875 480.359375 433.734375 C 477.570312 432.558594 474.636719 431.703125 471.5625 431.1875 C 467.492188 430.507812 462.601562 431.480469 458.074219 432.378906 L 456.210938 432.746094 L 454.386719 433.105469 L 453.90625 431.304688 C 453.304688 429.070312 452.789062 426.824219 452.363281 424.53125 C 451.9375 422.269531 451.605469 419.964844 451.367188 417.59375 C 450.9375 413.273438 450.738281 409 450.738281 404.71875 C 450.738281 400.390625 450.941406 396.125 451.3125 391.855469 C 451.332031 391.617188 451.332031 391.378906 451.304688 391.15625 C 451.277344 390.933594 451.234375 390.726562 451.167969 390.539062 L 451.164062 390.53125 C 450.898438 389.765625 450.328125 389.171875 449.636719 388.835938 C 448.945312 388.503906 448.128906 388.433594 447.359375 388.703125 L 447.351562 388.703125 L 447.351562 388.707031 C 433.851562 393.441406 422.160156 397.824219 412.320312 404.390625 C 402.570312 410.894531 394.542969 419.613281 388.195312 433.105469 L 388.136719 433.230469 L 388.070312 433.332031 C 387.636719 434 387.507812 434.789062 387.644531 435.523438 C 387.785156 436.246094 388.1875 436.925781 388.832031 437.382812 L 388.839844 437.382812 C 389.511719 437.863281 390.3125 438.027344 391.066406 437.902344 C 391.824219 437.78125 392.53125 437.367188 393.011719 436.703125 C 399.398438 427.796875 406.597656 420.070312 414.6875 413.507812 C 422.796875 406.933594 431.796875 401.527344 441.777344 397.277344 L 445.054688 395.886719 Z M 439.421875 419.097656 C 438.917969 413.726562 439.300781 408.351562 440.085938 402.386719 C 431.730469 406.246094 424.121094 410.984375 417.199219 416.59375 C 409.375 422.941406 402.414062 430.414062 396.234375 439.023438 C 395.117188 440.582031 393.464844 441.546875 391.707031 441.835938 C 389.945312 442.125 388.074219 441.746094 386.515625 440.628906 L 386.519531 440.625 C 385.007812 439.542969 384.058594 437.957031 383.734375 436.253906 C 383.417969 434.59375 383.703125 432.8125 384.652344 431.285156 C 391.335938 417.132812 399.808594 407.957031 410.105469 401.085938 C 420.339844 394.253906 432.28125 389.777344 446.042969 384.945312 L 446.050781 384.945312 L 446.050781 384.941406 C 447.859375 384.3125 449.761719 384.472656 451.367188 385.25 C 452.972656 386.023438 454.285156 387.410156 454.921875 389.222656 L 454.925781 389.230469 C 455.09375 389.714844 455.207031 390.207031 455.265625 390.691406 C 455.324219 391.195312 455.332031 391.703125 455.289062 392.199219 C 454.914062 396.46875 454.714844 400.625 454.714844 404.71875 C 454.714844 408.851562 454.90625 412.996094 455.324219 417.207031 C 455.546875 419.433594 455.867188 421.625 456.273438 423.796875 C 456.5625 425.351562 456.902344 426.902344 457.289062 428.46875 L 457.308594 428.464844 C 462.167969 427.5 467.421875 426.453125 472.214844 427.257812 C 475.582031 427.824219 478.8125 428.765625 481.902344 430.066406 C 485.03125 431.386719 487.988281 433.0625 490.777344 435.082031 C 491.917969 435.910156 492.992188 437 493.628906 438.320312 C 494.214844 439.542969 494.429688 440.910156 494.027344 442.398438 C 493.433594 444.601562 491.816406 445.992188 489.847656 446.773438 C 487.636719 447.652344 484.917969 447.722656 482.945312 447.3125 C 482.5625 447.234375 482.191406 447.140625 481.839844 447.03125 C 481.496094 446.925781 481.140625 446.796875 480.785156 446.644531 C 479.011719 445.894531 476.679688 445.042969 474.3125 444.300781 C 472.214844 443.640625 470.136719 443.082031 468.453125 442.769531 C 466.027344 442.363281 463.566406 442.25 461.117188 442.367188 C 458.648438 442.480469 456.171875 442.832031 453.730469 443.339844 C 452.039062 443.695312 450.351562 443.402344 448.941406 442.621094 C 447.5625 441.855469 446.4375 440.628906 445.828125 439.082031 C 441.886719 431.890625 440.019531 425.546875 439.421875 419.097656 Z M 439.421875 419.097656 " fill-opacity="1" fill-rule="nonzero"/></svg>