<svg xmlns="http://www.w3.org/2000/svg" xmlns:xlink="http://www.w3.org/1999/xlink" width="1080" zoomAndPan="magnify" viewBox="0 0 810 809.999993" height="1080" preserveAspectRatio="xMidYMid meet" version="1.0"><defs><clipPath id="0b3eae4f1c"><path d="M 145.265625 315 L 582 315 L 582 507 L 145.265625 507 Z M 145.265625 315 " clip-rule="nonzero"/></clipPath><clipPath id="c32ce755ee"><path d="M 145.265625 315 L 582 315 L 582 507 L 145.265625 507 Z M 145.265625 315 " clip-rule="nonzero"/></clipPath></defs><path fill="#1d1d1b" d="M 214.984375 498.09375 C 214.984375 501.765625 209.386719 504.742188 202.484375 504.742188 C 195.582031 504.742188 189.980469 501.765625 189.980469 498.09375 C 189.980469 494.425781 195.582031 491.449219 202.484375 491.449219 C 209.386719 491.449219 214.984375 494.425781 214.984375 498.09375 " fill-opacity="1" fill-rule="nonzero"/><path fill="#1d1d1b" d="M 264.601562 489.898438 C 264.953125 494.472656 260.042969 498.582031 253.644531 499.070312 C 247.238281 499.558594 241.765625 496.25 241.410156 491.679688 C 241.058594 487.105469 245.964844 482.996094 252.371094 482.507812 C 258.773438 482.019531 264.246094 485.324219 264.601562 489.898438 " fill-opacity="1" fill-rule="nonzero"/><path fill="#1d1d1b" d="M 312.808594 444.328125 C 314.347656 449.6875 310.847656 455.40625 304.980469 457.089844 C 299.117188 458.773438 293.117188 455.785156 291.574219 450.421875 C 290.03125 445.054688 293.53125 439.339844 299.398438 437.65625 C 305.265625 435.972656 311.265625 438.957031 312.808594 444.328125 " fill-opacity="1" fill-rule="nonzero"/><path fill="#1d1d1b" d="M 358.164062 433.6875 C 357.542969 439.191406 351.816406 443.058594 345.378906 442.320312 C 338.945312 441.589844 334.230469 436.535156 334.863281 431.035156 C 335.488281 425.53125 341.210938 421.667969 347.648438 422.402344 C 354.085938 423.132812 358.792969 428.1875 358.164062 433.6875 " fill-opacity="1" fill-rule="nonzero"/><path fill="#1d1d1b" d="M 395.792969 459.273438 C 395.792969 465.84375 390.1875 471.167969 383.269531 471.167969 C 376.351562 471.167969 370.746094 465.84375 370.746094 459.273438 C 370.746094 452.703125 376.351562 447.371094 383.269531 447.371094 C 390.1875 447.371094 395.792969 452.703125 395.792969 459.273438 " fill-opacity="1" fill-rule="nonzero"/><path fill="#1d1d1b" d="M 455.675781 499.792969 C 455.675781 504.398438 450.46875 508.132812 444.046875 508.132812 C 437.628906 508.132812 432.421875 504.398438 432.421875 499.792969 C 432.421875 495.183594 437.628906 491.449219 444.046875 491.449219 C 450.46875 491.449219 455.675781 495.183594 455.675781 499.792969 " fill-opacity="1" fill-rule="nonzero"/><path fill="#1d1d1b" d="M 529.511719 503.035156 C 529.511719 507.605469 523.722656 511.308594 516.578125 511.308594 C 509.4375 511.308594 503.644531 507.605469 503.644531 503.035156 C 503.644531 498.46875 509.4375 494.761719 516.578125 494.761719 C 523.722656 494.761719 529.511719 498.46875 529.511719 503.035156 " fill-opacity="1" fill-rule="nonzero"/><path fill="#39a935" d="M 552.449219 401.816406 C 552.449219 401.816406 522.535156 380.277344 489.136719 403.664062 C 489.136719 403.664062 476.023438 381.4375 445.109375 387.023438 C 445.109375 387.023438 452.933594 341.070312 398.738281 342.90625 C 398.738281 342.90625 363.320312 288.769531 307.152344 338.128906 C 307.152344 338.128906 260.910156 333.78125 250.605469 382.710938 C 250.605469 382.710938 213.945312 385.300781 209.167969 422.71875 C 209.167969 422.71875 193.265625 421.722656 180.523438 431.273438 C 177.753906 433.351562 170.578125 422.839844 167.535156 436.050781 C 165.855469 443.3125 162.203125 445.601562 159.019531 444.808594 C 155.832031 444.011719 147.050781 442.421875 147.074219 461.527344 C 147.09375 479.851562 166.984375 521.238281 225.917969 490.988281 C 225.917969 490.988281 277.132812 503.980469 282.707031 457.820312 C 282.707031 457.820312 314.183594 453.5625 323.738281 426.5 C 323.738281 426.5 350.949219 444.890625 368.46875 433.742188 C 368.46875 433.742188 367.027344 473.929688 414.398438 477.910156 C 414.398438 477.910156 437.074219 519.757812 479.511719 491.277344 C 479.511719 491.277344 521.390625 521.238281 558.023438 491.78125 C 611.273438 448.964844 552.449219 401.816406 552.449219 401.816406 " fill-opacity="1" fill-rule="nonzero"/><path fill="#8bbe41" d="M 552.449219 401.816406 C 552.449219 401.816406 522.535156 380.277344 489.136719 403.664062 C 489.136719 403.664062 476.023438 381.4375 445.109375 387.023438 C 445.109375 387.023438 452.933594 341.070312 398.738281 342.90625 C 398.738281 342.90625 363.320312 288.769531 307.152344 338.128906 C 307.152344 338.128906 260.910156 333.78125 250.605469 382.710938 C 250.605469 382.710938 213.945312 385.300781 209.167969 422.71875 C 209.167969 422.71875 193.265625 421.722656 180.523438 431.273438 C 177.753906 433.351562 170.578125 422.839844 167.535156 436.050781 C 165.855469 443.3125 162.203125 445.601562 159.019531 444.808594 C 155.832031 444.011719 147.050781 442.421875 147.074219 461.527344 C 147.074219 461.527344 153.941406 461.527344 165.335938 453.65625 C 169.929688 450.480469 175.175781 442.945312 180.949219 440.375 C 190.699219 436.050781 201.902344 430.824219 213.667969 432.714844 C 213.667969 432.714844 224.285156 401.507812 255.679688 393.09375 C 255.679688 393.09375 267.308594 347.722656 309.015625 350.289062 C 309.015625 350.289062 355.679688 305.300781 395.792969 353.539062 C 395.792969 353.539062 435.328125 342.796875 439.160156 397.582031 C 439.160156 397.582031 465.558594 389.441406 487.652344 417.761719 C 487.652344 417.761719 520.792969 397.128906 535.902344 404.800781 C 552.324219 413.132812 552.449219 401.816406 552.449219 401.816406 " fill-opacity="1" fill-rule="nonzero"/><g clip-path="url(#0b3eae4f1c)"><path fill="#1d1d1b" d="M 521.78125 506.394531 C 521.78125 506.394531 521.78125 506.394531 521.777344 506.394531 C 500.773438 506.390625 483.664062 496.011719 479.5 493.261719 C 469.730469 499.628906 460.167969 502.855469 451.058594 502.855469 C 428.5625 502.855469 415.90625 483.6875 413.394531 479.476562 C 399.582031 478.164062 381.554688 472.820312 372.214844 455.105469 C 368.230469 447.558594 367.175781 440.320312 366.90625 436.488281 C 363.441406 438.140625 359.496094 438.976562 355.136719 438.976562 C 342.257812 438.976562 329.203125 431.796875 324.5625 428.972656 C 315.230469 451.957031 290.09375 458.09375 284.183594 459.230469 C 282.230469 472.886719 273.953125 494.320312 241.332031 494.320312 C 233.890625 494.320312 228.003906 493.148438 226.128906 492.730469 C 212.222656 499.789062 199.496094 503.371094 188.292969 503.371094 C 159.078125 503.371094 145.445312 478.402344 145.425781 461.527344 C 145.417969 453.5625 146.855469 448.246094 149.828125 445.273438 C 151.5 443.59375 153.597656 442.746094 156.0625 442.746094 C 157.394531 442.746094 158.554688 442.996094 159.421875 443.210938 C 162.175781 443.894531 164.707031 440.972656 165.925781 435.679688 C 166.386719 433.683594 167.785156 427.609375 172.65625 427.609375 C 174.390625 427.609375 176.007812 428.382812 177.429688 429.070312 C 178.199219 429.4375 179.152344 429.894531 179.597656 429.910156 C 190.523438 421.753906 203.761719 421.050781 207.742188 421.039062 C 212.800781 388 242.746094 382.105469 249.246094 381.210938 C 259.519531 335.703125 300.574219 336.113281 306.582031 336.4375 C 322.394531 322.691406 338.128906 315.714844 353.363281 315.714844 C 380.085938 315.714844 396.453125 336.8125 399.585938 341.230469 C 400.359375 341.210938 401.109375 341.203125 401.855469 341.203125 C 418.433594 341.203125 430.738281 345.824219 438.433594 354.933594 C 447.585938 365.773438 447.464844 379.660156 447 385.050781 C 449.660156 384.671875 452.269531 384.472656 454.808594 384.472656 C 475.582031 384.472656 486.429688 396.992188 489.582031 401.363281 C 499.789062 394.5625 510.667969 391.117188 521.945312 391.117188 C 540.203125 391.117188 552.882812 400.097656 553.410156 400.476562 C 554.640625 401.464844 581.953125 423.675781 581.972656 452.023438 C 581.980469 467.019531 574.277344 480.824219 559.058594 493.066406 C 548.058594 501.90625 535.515625 506.394531 521.78125 506.394531 Z M 479.539062 489.277344 L 480.46875 489.933594 C 480.65625 490.070312 499.171875 503.09375 521.777344 503.09375 C 521.78125 503.09375 521.78125 503.09375 521.78125 503.09375 C 534.75 503.09375 546.589844 498.855469 556.992188 490.492188 C 571.386719 478.921875 578.683594 465.984375 578.675781 452.039062 C 578.671875 438.125 571.304688 425.597656 565.121094 417.539062 C 558.355469 408.710938 551.480469 403.15625 551.417969 403.101562 C 551.363281 403.066406 539.09375 394.414062 521.945312 394.414062 C 510.84375 394.414062 500.125 397.980469 490.085938 405.011719 L 488.625 406.035156 L 487.71875 404.496094 C 487.621094 404.335938 477.503906 387.773438 454.808594 387.773438 C 451.777344 387.773438 448.609375 388.0625 445.402344 388.644531 L 443.09375 389.0625 L 443.480469 386.75 C 443.515625 386.574219 446.273438 369.296875 435.902344 357.035156 C 428.855469 348.714844 417.402344 344.496094 401.855469 344.496094 C 400.859375 344.496094 399.84375 344.519531 398.800781 344.550781 L 397.867188 344.582031 L 397.363281 343.804688 C 397.203125 343.558594 380.765625 319.011719 353.363281 319.011719 C 338.789062 319.011719 323.609375 325.855469 308.242188 339.363281 L 307.707031 339.832031 L 307 339.765625 C 306.992188 339.765625 305.984375 339.675781 304.277344 339.675781 C 294.207031 339.675781 260.695312 342.804688 252.21875 383.050781 L 251.964844 384.261719 L 250.726562 384.351562 C 249.285156 384.460938 215.347656 387.324219 210.804688 422.929688 L 210.609375 424.453125 L 209.066406 424.363281 C 209.042969 424.359375 208.605469 424.335938 207.847656 424.335938 C 204.253906 424.335938 191.734375 424.929688 181.511719 432.59375 C 180.96875 432.996094 180.335938 433.203125 179.613281 433.203125 C 178.429688 433.203125 177.253906 432.636719 176.003906 432.042969 C 174.839844 431.484375 173.640625 430.910156 172.65625 430.910156 C 171.164062 430.910156 169.984375 432.761719 169.136719 436.421875 C 167.019531 445.613281 162.195312 446.609375 160.222656 446.609375 C 159.6875 446.609375 159.152344 446.539062 158.621094 446.40625 C 157.941406 446.234375 157.035156 446.042969 156.0625 446.042969 C 154.480469 446.042969 153.207031 446.546875 152.160156 447.601562 C 149.902344 449.855469 148.714844 454.675781 148.722656 461.523438 C 148.734375 473.601562 158.71875 500.078125 188.292969 500.078125 C 199.113281 500.078125 211.519531 496.523438 225.167969 489.519531 L 225.722656 489.234375 L 226.324219 489.390625 C 226.386719 489.40625 232.898438 491.023438 241.332031 491.023438 C 257.621094 491.023438 277.742188 485.230469 281.074219 457.617188 L 281.226562 456.359375 L 282.488281 456.1875 C 282.792969 456.148438 313.082031 451.722656 322.183594 425.949219 L 322.898438 423.9375 L 324.664062 425.132812 C 324.816406 425.238281 340.464844 435.683594 355.136719 435.683594 C 359.925781 435.683594 364.113281 434.5625 367.582031 432.355469 L 370.21875 430.671875 L 370.113281 433.800781 C 370.0625 435.375 369.347656 472.472656 414.535156 476.269531 L 415.421875 476.34375 L 415.84375 477.125 C 415.96875 477.347656 428.316406 499.554688 451.058594 499.554688 C 459.792969 499.554688 469.054688 496.3125 478.59375 489.910156 L 479.539062 489.277344 " fill-opacity="1" fill-rule="nonzero"/></g><path fill="#2d842a" d="M 563.007812 467.324219 C 563.007812 467.324219 517.160156 504.332031 478.933594 478.496094 C 478.933594 478.496094 441.144531 494.761719 418.464844 467.324219 C 418.464844 467.324219 376.730469 459.273438 372.71875 420.273438 C 372.71875 420.273438 340.792969 431.671875 320.214844 413.03125 C 320.214844 413.03125 300.445312 442.753906 278.355469 447.371094 C 278.355469 447.371094 267.308594 491.449219 224.285156 475.128906 C 224.285156 475.128906 206.839844 489.726562 185.722656 488.953125 C 153.941406 487.792969 147.074219 461.527344 147.074219 461.527344 C 147.09375 479.851562 166.984375 521.238281 225.917969 490.988281 C 225.917969 490.988281 277.132812 503.980469 282.707031 457.820312 C 282.707031 457.820312 314.183594 453.5625 323.738281 426.5 C 323.738281 426.5 350.949219 444.890625 368.46875 433.742188 C 368.46875 433.742188 367.027344 473.929688 414.398438 477.910156 C 414.398438 477.910156 437.074219 519.757812 479.511719 491.277344 C 479.511719 491.277344 521.390625 521.238281 558.023438 491.78125 C 611.273438 448.964844 563.007812 467.324219 563.007812 467.324219 " fill-opacity="1" fill-rule="nonzero"/><path fill="#1d1d1b" d="M 149.332031 477.011719 L 149.332031 470.421875 C 154.601562 470.421875 162.234375 465.742188 171.070312 460.332031 C 184.09375 452.355469 200.167969 442.503906 218.371094 441.742188 C 221.707031 433.929688 235.011719 407.53125 264.695312 400.730469 C 266.382812 391.238281 275.191406 357.839844 315.207031 360.03125 C 319.335938 355.859375 334.085938 342.457031 353.238281 342.457031 C 353.257812 342.457031 353.273438 342.457031 353.292969 342.457031 C 365.953125 342.46875 377.808594 348.332031 388.570312 359.875 C 392.695312 358.929688 401.980469 357.804688 411.160156 363.574219 C 422.355469 370.609375 429.339844 385.210938 431.945312 407 C 441.699219 407.890625 473.734375 412.128906 487.109375 430.109375 C 497.394531 424.105469 525.359375 409.335938 535.398438 419.96875 L 530.605469 424.492188 C 527.675781 421.394531 519.140625 422.484375 507.183594 427.476562 C 497.046875 431.714844 487.929688 437.304688 487.839844 437.355469 L 484.980469 439.113281 L 483.269531 436.222656 C 471.222656 415.808594 429.21875 413.394531 428.792969 413.367188 L 425.96875 413.222656 L 425.6875 410.410156 C 423.59375 389.515625 417.359375 375.25 407.652344 369.152344 C 398.300781 363.277344 388.714844 366.652344 388.617188 366.6875 L 386.511719 367.453125 L 385.019531 365.773438 C 375.203125 354.6875 364.523438 349.058594 353.285156 349.046875 C 353.269531 349.042969 353.253906 349.042969 353.238281 349.042969 C 333.964844 349.042969 319.144531 365.445312 318.996094 365.609375 L 317.910156 366.832031 L 316.277344 366.707031 C 274.847656 363.5 271.046875 402.125 270.90625 403.765625 L 270.691406 406.257812 L 268.230469 406.722656 C 236.054688 412.808594 223.847656 445.765625 223.726562 446.101562 L 222.941406 448.277344 L 220.625 448.28125 C 203.351562 448.28125 187.359375 458.078125 174.515625 465.945312 C 164.824219 471.882812 156.457031 477.011719 149.332031 477.011719 " fill-opacity="1" fill-rule="nonzero"/><path fill="#f6ea61" d="M 196.167969 450.816406 C 197.21875 453.308594 193.390625 457.304688 187.628906 459.734375 C 181.855469 462.164062 176.324219 462.121094 175.273438 459.632812 C 174.226562 457.136719 178.050781 453.144531 183.816406 450.710938 C 189.585938 448.277344 195.117188 448.332031 196.167969 450.816406 " fill-opacity="1" fill-rule="nonzero"/><path fill="#f6ea61" d="M 247.671875 409.351562 C 249.523438 411.324219 247.316406 416.390625 242.75 420.667969 C 238.179688 424.949219 232.980469 426.824219 231.128906 424.84375 C 229.28125 422.875 231.484375 417.808594 236.050781 413.527344 C 240.617188 409.246094 245.820312 407.375 247.671875 409.351562 " fill-opacity="1" fill-rule="nonzero"/><path fill="#f6ea61" d="M 293.804688 364.34375 C 295.398438 366.527344 292.585938 371.289062 287.527344 374.976562 C 282.464844 378.664062 277.078125 379.882812 275.480469 377.695312 C 273.890625 375.507812 276.699219 370.75 281.757812 367.066406 C 286.816406 363.378906 292.210938 362.160156 293.804688 364.34375 " fill-opacity="1" fill-rule="nonzero"/><path fill="#f6ea61" d="M 363.4375 345.117188 C 363.589844 347.816406 358.644531 350.289062 352.394531 350.636719 C 346.140625 350.988281 340.949219 349.078125 340.800781 346.382812 C 340.648438 343.679688 345.59375 341.210938 351.847656 340.859375 C 358.097656 340.511719 363.285156 342.417969 363.4375 345.117188 " fill-opacity="1" fill-rule="nonzero"/><path fill="#f6ea61" d="M 426.09375 383.664062 C 424.019531 385.402344 419.078125 382.914062 415.058594 378.117188 C 411.035156 373.316406 409.460938 368.019531 411.539062 366.28125 C 413.613281 364.546875 418.550781 367.03125 422.570312 371.832031 C 426.59375 376.632812 428.171875 381.929688 426.09375 383.664062 " fill-opacity="1" fill-rule="nonzero"/><path fill="#f6ea61" d="M 470.449219 419.835938 C 469.480469 422.363281 463.949219 422.59375 458.105469 420.351562 C 452.253906 418.109375 448.304688 414.246094 449.269531 411.726562 C 450.238281 409.199219 455.761719 408.96875 461.613281 411.210938 C 467.460938 413.445312 471.417969 417.3125 470.449219 419.835938 " fill-opacity="1" fill-rule="nonzero"/><path fill="#f6ea61" d="M 511.488281 421.007812 C 512.472656 423.535156 509.136719 427.195312 504.035156 429.183594 C 498.941406 431.175781 494.007812 430.753906 493.023438 428.234375 C 492.035156 425.71875 495.371094 422.058594 500.46875 420.066406 C 505.570312 418.066406 510.503906 418.492188 511.488281 421.007812 " fill-opacity="1" fill-rule="nonzero"/><g clip-path="url(#c32ce755ee)"><path fill="#1d1d1b" d="M 521.78125 506.394531 C 521.78125 506.394531 521.78125 506.394531 521.777344 506.394531 C 500.773438 506.390625 483.664062 496.011719 479.5 493.261719 C 469.730469 499.628906 460.167969 502.855469 451.058594 502.855469 C 428.5625 502.855469 415.90625 483.6875 413.394531 479.476562 C 399.582031 478.164062 381.554688 472.820312 372.214844 455.105469 C 368.230469 447.558594 367.175781 440.320312 366.90625 436.488281 C 363.441406 438.140625 359.496094 438.976562 355.136719 438.976562 C 342.257812 438.976562 329.203125 431.796875 324.5625 428.972656 C 315.230469 451.957031 290.09375 458.09375 284.183594 459.230469 C 282.230469 472.890625 273.953125 494.320312 241.332031 494.320312 C 233.890625 494.320312 228.003906 493.148438 226.128906 492.730469 C 212.226562 499.792969 199.496094 503.371094 188.292969 503.371094 C 159.078125 503.371094 145.445312 478.402344 145.425781 461.527344 C 145.417969 453.5625 146.855469 448.246094 149.828125 445.273438 C 151.5 443.597656 153.597656 442.746094 156.0625 442.746094 C 157.394531 442.746094 158.554688 442.996094 159.421875 443.210938 C 162.175781 443.898438 164.707031 440.972656 165.925781 435.679688 C 166.386719 433.683594 167.785156 427.609375 172.65625 427.609375 C 174.390625 427.609375 176.007812 428.382812 177.429688 429.070312 C 178.199219 429.441406 179.152344 429.894531 179.597656 429.910156 C 190.523438 421.753906 203.765625 421.050781 207.742188 421.042969 C 212.800781 388 242.746094 382.105469 249.246094 381.210938 C 259.519531 335.703125 300.578125 336.121094 306.582031 336.4375 C 322.394531 322.691406 338.132812 315.714844 353.363281 315.714844 C 380.085938 315.714844 396.453125 336.8125 399.585938 341.230469 C 400.355469 341.210938 401.109375 341.203125 401.855469 341.203125 C 418.433594 341.203125 430.738281 345.824219 438.433594 354.933594 C 447.585938 365.773438 447.464844 379.664062 447 385.050781 C 449.660156 384.671875 452.269531 384.476562 454.808594 384.476562 C 475.582031 384.476562 486.429688 396.992188 489.582031 401.367188 C 499.789062 394.5625 510.667969 391.117188 521.945312 391.117188 C 540.203125 391.117188 552.882812 400.097656 553.410156 400.480469 C 554.640625 401.464844 581.953125 423.679688 581.972656 452.023438 C 581.980469 467.019531 574.277344 480.824219 559.058594 493.066406 C 548.058594 501.910156 535.515625 506.394531 521.78125 506.394531 Z M 479.539062 489.277344 L 480.46875 489.933594 C 480.65625 490.070312 499.171875 503.09375 521.777344 503.09375 C 521.78125 503.09375 521.78125 503.09375 521.78125 503.09375 C 534.75 503.09375 546.589844 498.855469 556.992188 490.492188 C 571.390625 478.921875 578.6875 465.972656 578.675781 452.023438 C 578.65625 425.246094 551.6875 403.320312 551.417969 403.101562 C 551.363281 403.066406 539.09375 394.417969 521.945312 394.417969 C 510.84375 394.417969 500.125 397.980469 490.085938 405.015625 L 488.625 406.035156 L 487.71875 404.496094 C 487.621094 404.335938 477.503906 387.773438 454.808594 387.773438 C 451.777344 387.773438 448.609375 388.0625 445.402344 388.644531 L 443.09375 389.0625 L 443.480469 386.75 C 443.515625 386.574219 446.273438 369.300781 435.898438 357.035156 C 428.855469 348.714844 417.402344 344.496094 401.855469 344.496094 C 400.859375 344.496094 399.84375 344.519531 398.800781 344.550781 L 397.867188 344.582031 L 397.363281 343.804688 C 397.203125 343.558594 380.765625 319.011719 353.363281 319.011719 C 338.789062 319.011719 323.609375 325.855469 308.242188 339.363281 L 307.707031 339.832031 L 307 339.769531 C 306.992188 339.765625 305.984375 339.675781 304.277344 339.675781 C 294.207031 339.675781 260.695312 342.804688 252.21875 383.050781 L 251.964844 384.261719 L 250.726562 384.351562 C 249.285156 384.460938 215.347656 387.328125 210.804688 422.929688 L 210.609375 424.457031 L 209.066406 424.363281 C 209.042969 424.363281 208.605469 424.335938 207.84375 424.335938 C 204.25 424.335938 191.734375 424.929688 181.511719 432.59375 C 180.96875 432.996094 180.335938 433.203125 179.613281 433.203125 C 178.429688 433.203125 177.25 432.636719 176.003906 432.042969 C 174.839844 431.484375 173.640625 430.910156 172.65625 430.910156 C 171.164062 430.910156 169.984375 432.761719 169.136719 436.421875 C 167.019531 445.613281 162.195312 446.609375 160.222656 446.609375 C 159.6875 446.609375 159.152344 446.539062 158.621094 446.40625 C 157.941406 446.234375 157.035156 446.042969 156.0625 446.042969 C 154.480469 446.042969 153.207031 446.550781 152.160156 447.601562 C 149.902344 449.855469 148.714844 454.675781 148.722656 461.523438 C 148.734375 473.601562 158.71875 500.078125 188.292969 500.078125 C 199.113281 500.078125 211.519531 496.523438 225.167969 489.519531 L 225.722656 489.234375 L 226.324219 489.390625 C 226.386719 489.40625 232.898438 491.027344 241.332031 491.027344 C 257.621094 491.027344 277.742188 485.230469 281.074219 457.617188 L 281.226562 456.359375 L 282.488281 456.1875 C 282.792969 456.148438 313.082031 451.722656 322.183594 425.949219 L 322.898438 423.9375 L 324.664062 425.132812 C 324.816406 425.238281 340.464844 435.683594 355.136719 435.683594 C 359.925781 435.683594 364.113281 434.5625 367.582031 432.355469 L 370.21875 430.671875 L 370.113281 433.800781 C 370.0625 435.375 369.347656 472.472656 414.535156 476.269531 L 415.421875 476.34375 L 415.84375 477.125 C 415.96875 477.347656 428.316406 499.554688 451.058594 499.554688 C 459.792969 499.554688 469.054688 496.3125 478.59375 489.910156 L 479.539062 489.277344 " fill-opacity="1" fill-rule="nonzero"/></g><path fill="#39a935" d="M 661.488281 439.222656 C 663.144531 477.21875 631.527344 509.460938 590.859375 511.234375 C 550.195312 513 515.886719 483.636719 514.230469 445.640625 C 512.574219 407.644531 544.195312 375.40625 584.863281 373.632812 C 625.523438 371.859375 659.832031 401.230469 661.488281 439.222656 " fill-opacity="1" fill-rule="nonzero"/><path fill="#8bbe41" d="M 661.488281 439.222656 C 661.488281 439.222656 650.445312 394.617188 603.097656 392.4375 C 542.292969 389.632812 516.578125 430.441406 516.578125 430.441406 C 523.3125 394.617188 558.375 374.789062 584.863281 373.632812 C 625.523438 371.859375 659.832031 401.230469 661.488281 439.222656 " fill-opacity="1" fill-rule="nonzero"/><path fill="#2d842a" d="M 661.488281 439.222656 C 663.144531 477.21875 631.527344 509.460938 590.859375 511.234375 C 565.445312 512.339844 542.515625 501.28125 528.480469 483.558594 C 520.0625 472.925781 514.851562 459.886719 514.230469 445.640625 C 514.230469 445.640625 524.164062 490.1875 587.859375 494.800781 C 656.128906 499.742188 661.488281 439.222656 661.488281 439.222656 " fill-opacity="1" fill-rule="nonzero"/><path fill="#1d1d1b" d="M 587.371094 512.957031 C 547.078125 512.957031 514.230469 483.417969 512.589844 445.710938 C 510.894531 406.867188 543.28125 373.796875 584.785156 371.992188 C 585.96875 371.933594 587.167969 371.910156 588.347656 371.910156 C 628.636719 371.910156 661.492188 401.449219 663.136719 439.152344 C 664.824219 477.996094 632.4375 511.066406 590.929688 512.875 C 589.742188 512.925781 588.546875 512.957031 587.371094 512.957031 Z M 588.347656 375.207031 C 587.21875 375.207031 586.070312 375.230469 584.929688 375.277344 C 545.238281 377.007812 514.265625 408.539062 515.878906 445.570312 C 517.492188 482.5625 550.75 511.355469 590.785156 509.585938 C 630.480469 507.855469 661.457031 476.324219 659.84375 439.292969 C 658.273438 403.355469 626.871094 375.207031 588.347656 375.207031 " fill-opacity="1" fill-rule="nonzero"/><path fill="#1d1d1b" d="M 587.371094 512.957031 C 547.078125 512.957031 514.230469 483.417969 512.589844 445.710938 C 510.894531 406.867188 543.28125 373.796875 584.785156 371.992188 C 585.96875 371.933594 587.167969 371.910156 588.347656 371.910156 C 628.640625 371.910156 661.492188 401.449219 663.136719 439.152344 C 664.824219 477.996094 632.4375 511.066406 590.929688 512.875 C 589.742188 512.925781 588.546875 512.957031 587.371094 512.957031 Z M 588.347656 375.207031 C 587.214844 375.207031 586.074219 375.230469 584.929688 375.277344 C 545.238281 377.007812 514.265625 408.539062 515.878906 445.570312 C 517.492188 482.5625 550.75 511.355469 590.785156 509.585938 C 630.480469 507.855469 661.457031 476.324219 659.84375 439.292969 C 658.273438 403.355469 626.871094 375.207031 588.347656 375.207031 " fill-opacity="1" fill-rule="nonzero"/><path fill="#ffffff" d="M 656.035156 402.917969 C 657.273438 420.796875 646.03125 436.144531 630.9375 437.1875 C 615.835938 438.230469 602.601562 424.578125 601.359375 406.6875 C 600.128906 388.804688 611.363281 373.457031 626.457031 372.414062 C 641.558594 371.371094 654.796875 385.027344 656.035156 402.917969 " fill-opacity="1" fill-rule="nonzero"/><path fill="#1d1d1b" d="M 632.234375 404.558594 C 632.628906 410.351562 629.265625 415.304688 624.710938 415.617188 C 620.15625 415.933594 616.140625 411.492188 615.738281 405.695312 C 615.34375 399.902344 618.707031 394.949219 623.257812 394.640625 C 627.8125 394.324219 631.824219 398.765625 632.234375 404.558594 " fill-opacity="1" fill-rule="nonzero"/><path fill="#1d1d1b" d="M 629.3125 438.890625 C 613.957031 438.890625 600.957031 424.796875 599.714844 406.804688 C 598.417969 388.042969 610.367188 371.878906 626.34375 370.773438 C 642.457031 369.660156 656.386719 384.136719 657.683594 402.800781 C 658.976562 421.5625 647.027344 437.726562 631.050781 438.828125 C 630.464844 438.867188 629.890625 438.890625 629.3125 438.890625 Z M 628.078125 374.007812 C 627.578125 374.007812 627.078125 374.027344 626.570312 374.0625 C 612.40625 375.039062 601.832031 389.625 603.003906 406.578125 C 604.167969 423.445312 616.554688 436.535156 630.820312 435.542969 C 644.988281 434.566406 655.558594 419.976562 654.390625 403.03125 C 653.265625 386.753906 641.707031 374.007812 628.078125 374.007812 " fill-opacity="1" fill-rule="nonzero"/><path fill="#ffffff" d="M 611.648438 404.800781 C 611.648438 425.761719 597.300781 442.753906 579.609375 442.753906 C 561.914062 442.753906 547.574219 425.761719 547.574219 404.800781 C 547.574219 383.839844 561.914062 366.847656 579.609375 366.847656 C 597.300781 366.847656 611.648438 383.839844 611.648438 404.800781 " fill-opacity="1" fill-rule="nonzero"/><path fill="#1d1d1b" d="M 583.75 404.800781 C 583.75 411.59375 579.425781 417.097656 574.085938 417.097656 C 568.746094 417.097656 564.421875 411.59375 564.421875 404.800781 C 564.421875 398.011719 568.746094 392.507812 574.085938 392.507812 C 579.425781 392.507812 583.75 398.011719 583.75 404.800781 " fill-opacity="1" fill-rule="nonzero"/><path fill="#1d1d1b" d="M 579.609375 444.402344 C 561.035156 444.402344 545.925781 426.640625 545.925781 404.800781 C 545.925781 382.964844 561.035156 365.199219 579.609375 365.199219 C 598.1875 365.199219 613.292969 382.964844 613.292969 404.800781 C 613.292969 426.640625 598.1875 444.402344 579.609375 444.402344 Z M 579.609375 368.496094 C 562.851562 368.496094 549.21875 384.785156 549.21875 404.800781 C 549.21875 424.820312 562.851562 441.109375 579.609375 441.109375 C 596.367188 441.109375 610 424.820312 610 404.800781 C 610 384.785156 596.367188 368.496094 579.609375 368.496094 " fill-opacity="1" fill-rule="nonzero"/><path fill="#1d1d1b" d="M 606.957031 473.710938 C 596.101562 473.710938 582.15625 471.414062 564.582031 464.675781 L 565.769531 461.597656 C 617.585938 481.476562 636.625 461.140625 636.808594 460.929688 C 636.808594 460.929688 629.550781 473.710938 606.957031 473.710938 " fill-opacity="1" fill-rule="nonzero"/><path fill="#1d1d1b" d="M 571.722656 455.320312 C 571.722656 455.320312 558.921875 456.921875 562.121094 473.710938 C 562.121094 473.710938 563.511719 461.421875 571.722656 455.320312 " fill-opacity="1" fill-rule="nonzero"/></svg>