<svg xmlns="http://www.w3.org/2000/svg" xmlns:xlink="http://www.w3.org/1999/xlink" width="1080" zoomAndPan="magnify" viewBox="0 0 810 809.999993" height="1080" preserveAspectRatio="xMidYMid meet" version="1.0"><defs><clipPath id="2af64d105a"><path d="M 496 166.492188 L 530 166.492188 L 530 199 L 496 199 Z M 496 166.492188 " clip-rule="nonzero"/></clipPath><clipPath id="dc8c191145"><path d="M 424 646 L 476 646 L 476 687.742188 L 424 687.742188 Z M 424 646 " clip-rule="nonzero"/></clipPath></defs><path fill="#3f3f3f" d="M 318.941406 596.699219 C 319.328125 591.40625 318.492188 586.695312 318.492188 586.695312 C 323.402344 580.429688 318.492188 572.433594 310.851562 566.5 C 303.15625 560.566406 298.636719 548.027344 298.636719 548.027344 L 298.496094 548.027344 C 297.742188 571.566406 300.085938 593.996094 302.820312 611.296875 L 304.214844 611.074219 C 315.425781 612.691406 318.410156 604.109375 318.941406 596.699219 Z M 318.941406 596.699219 " fill-opacity="1" fill-rule="nonzero"/><path fill="#3f3f3f" d="M 303.128906 515.320312 L 303.15625 515.320312 C 302.820312 530.976562 321.644531 564.746094 332.800781 560.925781 C 333.273438 560.761719 333.71875 560.59375 334.140625 560.398438 C 343.925781 556.300781 343.59375 547.359375 343.59375 547.359375 C 355.808594 551.175781 365.234375 530.976562 345.710938 518.777344 C 343.703125 517.523438 341.808594 516.160156 340.023438 514.710938 C 326.273438 503.566406 318.96875 487.65625 317.40625 484.035156 C 311.71875 493.117188 306.527344 503.648438 303.128906 515.320312 Z M 303.128906 515.320312 " fill-opacity="1" fill-rule="nonzero"/><path fill="#3f3f3f" d="M 317.40625 484.035156 C 319.527344 480.636719 321.730469 477.460938 323.933594 474.480469 L 323.734375 474.339844 C 323.734375 474.339844 315.980469 471.96875 306.140625 466.039062 L 305.609375 466.902344 C 305.609375 466.902344 276.773438 514.597656 281.875 584.496094 C 287.425781 599.148438 295.039062 611.355469 304.601562 621.632812 C 304.324219 620.042969 304.019531 618.375 303.714844 616.671875 C 303.433594 614.945312 303.128906 613.164062 302.820312 611.296875 C 300.085938 593.996094 297.742188 571.566406 298.496094 548.027344 C 298.636719 544.378906 298.832031 540.703125 299.109375 537.023438 C 299.695312 529.417969 301.089844 522.175781 303.128906 515.320312 C 306.527344 503.648438 311.71875 493.117188 317.40625 484.035156 Z M 317.40625 484.035156 " fill-opacity="1" fill-rule="nonzero"/><path fill="#3f3f3f" d="M 277.691406 444.640625 C 274.679688 459.464844 272.449219 475.898438 271.445312 494.066406 C 271.390625 495.070312 271.332031 496.070312 271.304688 497.074219 C 279.390625 469.4375 290.96875 456.453125 290.96875 456.453125 L 291.804688 455.507812 C 287.117188 451.355469 282.546875 446.367188 278.554688 440.519531 C 278.25 441.886719 277.96875 443.25 277.691406 444.640625 Z M 277.691406 444.640625 " fill-opacity="1" fill-rule="nonzero"/><path fill="#000000" d="M 249.359375 472.863281 L 249.832031 472.945312 C 255.410156 452.972656 271.667969 431.15625 271.667969 431.15625 L 272.867188 430.574219 C 269.964844 424.441406 267.734375 417.535156 266.566406 409.789062 L 266.511719 409.761719 C 258.730469 428.089844 252.898438 449.074219 249.359375 472.863281 Z M 249.359375 472.863281 " fill-opacity="1" fill-rule="nonzero"/><path fill="#000000" d="M 245.761719 517.550781 C 245.761719 517.550781 245.761719 517.550781 245.761719 517.578125 C 245.761719 549.644531 252.007812 579.539062 267.125 603.917969 L 267.960938 603.414062 C 259.871094 556.164062 264.25 521.089844 271.304688 497.074219 C 271.332031 496.070312 271.390625 495.070312 271.445312 494.066406 C 272.449219 475.898438 274.679688 459.464844 277.691406 444.640625 C 271.917969 450.546875 250.753906 474.84375 245.761719 517.550781 Z M 245.761719 517.550781 " fill-opacity="1" fill-rule="nonzero"/><path fill="#000000" d="M 281.875 584.496094 C 282.9375 598.761719 285.390625 613.972656 289.796875 629.878906 L 289.519531 630.1875 C 295.484375 635.367188 302.175781 640.050781 309.625 644.171875 C 309.066406 642.054688 306.890625 633.835938 304.601562 621.632812 C 295.039062 611.355469 287.425781 599.148438 281.875 584.496094 Z M 281.875 584.496094 " fill-opacity="1" fill-rule="nonzero"/><path fill="#000000" d="M 331.042969 654.257812 C 331.042969 654.257812 316.765625 668.882812 328.253906 675.152344 C 339.773438 681.417969 347.777344 672.726562 347.777344 672.726562 C 347.777344 672.726562 352.320312 684.207031 361.71875 679.691406 C 371.144531 675.152344 367.296875 663.3125 367.296875 663.3125 L 367.410156 662.558594 C 354.078125 660.664062 342.03125 657.710938 331.183594 653.867188 Z M 331.042969 654.257812 " fill-opacity="1" fill-rule="nonzero"/><path fill="#000000" d="M 428.207031 661.359375 L 428.316406 661.917969 C 428.316406 661.917969 423.800781 685.933594 440.867188 684.539062 C 457.933594 683.148438 456.902344 669.578125 456.902344 669.578125 C 456.902344 669.578125 471.542969 675.847656 472.605469 666.097656 C 473.636719 656.347656 463.875 649.046875 463.875 649.046875 L 463.457031 648.265625 C 453.140625 654.007812 441.425781 658.546875 428.207031 661.359375 Z M 428.207031 661.359375 " fill-opacity="1" fill-rule="nonzero"/><path fill="#000000" d="M 508.941406 603.96875 L 509.191406 604.109375 C 509.191406 604.109375 509.191406 625.003906 524.53125 618.402344 C 539.871094 611.769531 530.808594 597.144531 530.808594 597.144531 C 537.777344 599.234375 546.144531 593.996094 539.535156 584.609375 C 532.898438 575.21875 523.136719 572.765625 523.136719 572.765625 L 522.859375 572.683594 C 520.515625 580.484375 517.308594 588.535156 513.152344 596.503906 C 511.84375 599.011719 510.449219 601.488281 508.941406 603.96875 Z M 508.941406 603.96875 " fill-opacity="1" fill-rule="nonzero"/><path fill="#000000" d="M 521.40625 479.773438 L 520.738281 479.941406 C 522.019531 485.234375 523.304688 491.054688 524.421875 497.183594 C 526.316406 507.769531 527.765625 519.359375 528.074219 531.035156 C 529.050781 534.433594 543.71875 551.984375 551.359375 546.996094 C 559.390625 541.789062 554.875 532.371094 554.875 532.371094 C 563.242188 531.3125 571.941406 520.53125 567.0625 512.871094 C 562.179688 505.207031 548.933594 507.632812 540.566406 501.390625 C 532.203125 495.09375 521.40625 479.773438 521.40625 479.773438 Z M 521.40625 479.773438 " fill-opacity="1" fill-rule="nonzero"/><path fill="#000000" d="M 254.710938 261.214844 C 247.128906 261.214844 240.992188 267.039062 240.992188 274.199219 C 240.992188 281.386719 247.128906 287.207031 254.710938 287.207031 C 262.269531 287.207031 268.433594 281.386719 268.433594 274.199219 C 268.433594 267.039062 262.269531 261.214844 254.710938 261.214844 Z M 254.710938 261.214844 " fill-opacity="1" fill-rule="nonzero"/><path fill="#000000" d="M 513.152344 169.277344 C 505.570312 169.277344 499.433594 175.101562 499.433594 182.261719 C 499.433594 189.449219 505.570312 195.273438 513.152344 195.273438 C 520.710938 195.273438 526.847656 189.449219 526.847656 182.261719 C 526.847656 175.101562 520.710938 169.277344 513.152344 169.277344 Z M 513.152344 169.277344 " fill-opacity="1" fill-rule="nonzero"/><path fill="#ffefae" d="M 490.367188 613.859375 C 476.425781 611.074219 455.507812 636.148438 464.570312 635.453125 C 473.636719 634.753906 502.945312 616.367188 490.367188 613.859375 Z M 490.367188 613.859375 " fill-opacity="1" fill-rule="nonzero"/><path fill="#ffefae" d="M 513.375 574.160156 C 513.375 558.140625 455.507812 610.378906 482.699219 602.714844 C 509.890625 595.054688 513.375 592.605469 513.375 574.160156 Z M 513.375 574.160156 " fill-opacity="1" fill-rule="nonzero"/><path fill="#ffefae" d="M 478.515625 533.066406 C 447.839844 552.570312 464.570312 565.800781 495.945312 556.75 C 527.320312 547.695312 523.027344 533.09375 519.652344 518.441406 C 517.558594 509.386719 509.191406 513.566406 478.515625 533.066406 Z M 478.515625 533.066406 " fill-opacity="1" fill-rule="nonzero"/><path fill="#edaf00" d="M 247.042969 491.5 C 246.207031 500.304688 245.761719 509 245.761719 517.550781 C 250.753906 474.84375 271.917969 450.546875 277.691406 444.640625 C 277.96875 443.25 278.25 441.886719 278.554688 440.519531 C 276.464844 437.457031 274.542969 434.140625 272.867188 430.574219 L 271.667969 431.15625 C 271.667969 431.15625 255.410156 452.972656 249.832031 472.945312 L 249.359375 472.863281 C 248.410156 478.90625 247.65625 485.121094 247.042969 491.5 Z M 247.042969 491.5 " fill-opacity="1" fill-rule="nonzero"/><path fill="#edaf00" d="M 266.511719 409.761719 L 266.566406 409.789062 C 267.734375 417.535156 269.964844 424.441406 272.867188 430.574219 C 274.542969 434.140625 276.464844 437.457031 278.554688 440.519531 C 294.871094 365.632812 331.40625 333.871094 331.40625 333.871094 L 330.957031 333.09375 C 303.742188 349.03125 281.515625 374.378906 266.511719 409.761719 Z M 266.511719 409.761719 " fill-opacity="1" fill-rule="nonzero"/><path fill="#edaf00" d="M 271.304688 497.074219 C 264.25 521.089844 259.871094 556.164062 267.960938 603.414062 L 267.125 603.917969 C 273.117188 613.609375 280.535156 622.441406 289.519531 630.1875 L 289.796875 629.878906 C 285.390625 613.972656 282.9375 598.761719 281.875 584.496094 C 273.257812 561.816406 269.578125 533.289062 271.304688 497.074219 Z M 271.304688 497.074219 " fill-opacity="1" fill-rule="nonzero"/><path fill="#ffd62c" d="M 271.304688 497.074219 C 269.578125 533.289062 273.257812 561.816406 281.875 584.496094 C 276.773438 514.597656 305.609375 466.902344 305.609375 466.902344 L 306.140625 466.039062 C 301.621094 463.308594 296.65625 459.851562 291.804688 455.507812 L 290.96875 456.453125 C 290.96875 456.453125 279.390625 469.4375 271.304688 497.074219 Z M 271.304688 497.074219 " fill-opacity="1" fill-rule="nonzero"/><path fill="#ffd62c" d="M 278.554688 440.519531 C 282.546875 446.367188 287.117188 451.355469 291.804688 455.507812 C 296.65625 459.851562 301.621094 463.308594 306.140625 466.039062 C 315.980469 471.96875 323.734375 474.339844 323.734375 474.339844 L 323.933594 474.480469 C 336.621094 457.316406 349.730469 446.984375 351.429688 445.699219 C 341 437.089844 334.195312 422.828125 334.195312 406.667969 C 334.195312 380.3125 352.292969 358.945312 374.632812 358.945312 C 390.582031 358.945312 404.390625 369.839844 410.941406 385.691406 L 411.585938 385.414062 C 411.585938 362.621094 420.285156 342.203125 434.089844 328.300781 L 433.421875 327.605469 C 433.421875 327.605469 381.828125 305.316406 334.890625 330.863281 C 333.550781 331.589844 332.242188 332.339844 330.957031 333.09375 L 331.40625 333.871094 C 331.40625 333.871094 294.871094 365.632812 278.554688 440.519531 Z M 278.554688 440.519531 " fill-opacity="1" fill-rule="nonzero"/><path fill="#ffd62c" d="M 299.109375 537.023438 C 299.695312 529.417969 301.089844 522.175781 303.128906 515.320312 L 303.15625 515.320312 C 302.820312 530.976562 321.644531 564.746094 332.800781 560.925781 C 333.273438 560.761719 333.71875 560.59375 334.140625 560.398438 L 334.195312 560.566406 C 453.417969 608.984375 526.625 551.871094 526.625 551.871094 L 527.183594 551.929688 C 526.875 554.742188 526.457031 557.5 525.925781 560.230469 C 525.144531 564.269531 524.140625 568.421875 522.859375 572.683594 C 520.515625 580.484375 517.308594 588.535156 513.152344 596.503906 L 513.042969 596.449219 C 513.042969 596.449219 414.679688 653.394531 318.941406 596.699219 C 319.328125 591.40625 318.492188 586.695312 318.492188 586.695312 C 323.402344 580.429688 318.492188 572.433594 310.851562 566.5 C 303.15625 560.566406 298.636719 548.027344 298.636719 548.027344 L 298.496094 548.027344 C 298.636719 544.378906 298.832031 540.703125 299.109375 537.023438 Z M 513.375 574.160156 C 513.375 558.140625 455.507812 610.378906 482.699219 602.714844 C 509.890625 595.054688 513.375 592.605469 513.375 574.160156 Z M 513.375 574.160156 " fill-opacity="1" fill-rule="nonzero"/><path fill="#ffd62c" d="M 318.941406 596.699219 C 414.679688 653.394531 513.042969 596.449219 513.042969 596.449219 L 513.152344 596.503906 C 511.84375 599.011719 510.449219 601.488281 508.941406 603.96875 C 500.800781 617.398438 489.835938 630.214844 475.5625 640.550781 L 475.390625 640.328125 C 475.390625 640.328125 372.875 683.148438 303.878906 616.644531 L 303.714844 616.671875 C 303.433594 614.945312 303.128906 613.164062 302.820312 611.296875 L 304.214844 611.074219 C 315.425781 612.691406 318.410156 604.109375 318.941406 596.699219 Z M 490.367188 613.859375 C 476.425781 611.074219 455.507812 636.148438 464.570312 635.453125 C 473.636719 634.753906 502.945312 616.367188 490.367188 613.859375 Z M 490.367188 613.859375 " fill-opacity="1" fill-rule="nonzero"/><path fill="#ffd62c" d="M 303.878906 616.644531 L 303.714844 616.671875 C 304.019531 618.375 304.324219 620.042969 304.601562 621.632812 C 323.625 642.136719 350.339844 654.925781 383.695312 664.007812 L 383.667969 664.285156 C 400.121094 665.347656 414.929688 664.203125 428.207031 661.359375 C 441.425781 658.546875 453.140625 654.007812 463.457031 648.265625 C 467.722656 645.898438 471.765625 643.308594 475.5625 640.550781 L 475.390625 640.328125 C 475.390625 640.328125 372.875 683.148438 303.878906 616.644531 Z M 303.878906 616.644531 " fill-opacity="1" fill-rule="nonzero"/><path fill="#edaf00" d="M 304.601562 621.632812 C 306.890625 633.835938 309.066406 642.054688 309.625 644.171875 C 316.207031 647.847656 323.375 651.082031 331.183594 653.867188 C 342.03125 657.710938 354.078125 660.664062 367.410156 662.558594 C 368.023438 662.667969 368.664062 662.753906 369.277344 662.835938 C 374.210938 663.507812 379.011719 663.980469 383.667969 664.285156 L 383.695312 664.007812 C 350.339844 654.925781 323.625 642.136719 304.601562 621.632812 Z M 304.601562 621.632812 " fill-opacity="1" fill-rule="nonzero"/><path fill="#ffd62c" d="M 323.933594 474.480469 C 336.621094 457.316406 349.730469 446.984375 351.429688 445.699219 C 357.984375 451.164062 365.988281 454.363281 374.632812 454.363281 C 396.160156 454.363281 413.730469 434.527344 414.984375 409.539062 C 423.746094 439.652344 448.425781 461.328125 477.457031 461.328125 C 490.007812 461.328125 501.71875 457.289062 511.703125 450.296875 L 511.980469 450.660156 C 511.980469 450.660156 516.472656 462.53125 520.738281 479.941406 C 522.019531 485.234375 523.304688 491.054688 524.421875 497.183594 L 524.195312 497.210938 C 524.195312 497.210938 448.175781 559.535156 340.132812 514.597656 L 340.023438 514.710938 C 326.273438 503.566406 318.96875 487.65625 317.40625 484.035156 C 319.527344 480.636719 321.730469 477.460938 323.933594 474.480469 Z M 509.890625 475.257812 C 504.3125 467.597656 485.488281 482.921875 465.964844 498.941406 C 446.445312 514.960938 465.964844 516.351562 488.972656 506.601562 C 511.980469 496.851562 518.953125 487.738281 509.890625 475.257812 Z M 509.890625 475.257812 " fill-opacity="1" fill-rule="nonzero"/><path fill="#ffd62c" d="M 527.183594 551.929688 L 526.625 551.871094 C 526.625 551.871094 453.417969 608.984375 334.195312 560.566406 L 334.140625 560.398438 C 343.925781 556.300781 343.59375 547.359375 343.59375 547.359375 C 355.808594 551.175781 365.234375 530.976562 345.710938 518.777344 C 343.703125 517.523438 341.808594 516.160156 340.023438 514.710938 L 340.132812 514.597656 C 448.175781 559.535156 524.195312 497.210938 524.195312 497.210938 L 524.421875 497.183594 C 526.316406 507.769531 527.765625 519.359375 528.074219 531.035156 C 528.242188 538.054688 527.992188 545.074219 527.183594 551.929688 Z M 519.652344 518.441406 C 517.558594 509.386719 509.191406 513.566406 478.515625 533.066406 C 447.839844 552.570312 464.570312 565.800781 495.945312 556.75 C 527.320312 547.695312 523.027344 533.09375 519.652344 518.441406 Z M 519.652344 518.441406 " fill-opacity="1" fill-rule="nonzero"/><path fill="#ffffff" d="M 411.585938 385.414062 L 410.941406 385.691406 C 413.589844 392.015625 415.070312 399.148438 415.070312 406.667969 C 415.070312 407.644531 415.042969 408.589844 414.984375 409.539062 C 423.746094 439.652344 448.425781 461.328125 477.457031 461.328125 C 490.007812 461.328125 501.71875 457.289062 511.703125 450.296875 C 530.695312 436.953125 543.355469 412.882812 543.355469 385.414062 C 543.355469 343.484375 513.851562 309.496094 477.457031 309.496094 C 460.835938 309.496094 445.691406 316.597656 434.089844 328.300781 C 420.285156 342.203125 411.585938 362.621094 411.585938 385.414062 Z M 411.585938 385.414062 " fill-opacity="1" fill-rule="nonzero"/><path fill="#ffefae" d="M 465.964844 498.941406 C 446.445312 514.960938 465.964844 516.351562 488.972656 506.601562 C 511.980469 496.851562 518.953125 487.738281 509.890625 475.257812 C 504.3125 467.597656 485.488281 482.921875 465.964844 498.941406 Z M 465.964844 498.941406 " fill-opacity="1" fill-rule="nonzero"/><path fill="#000000" d="M 546.144531 385.414062 C 546.144531 413.019531 533.871094 438.128906 513.308594 452.578125 C 502.527344 460.125 490.132812 464.117188 477.457031 464.117188 C 447.847656 464.117188 421.667969 442.496094 412.308594 410.316406 C 412.28125 410.210938 412.148438 409.738281 412.148438 409.738281 C 411.734375 408.257812 412.671875 407.003906 414.148438 406.582031 C 415.621094 406.164062 417.234375 407.289062 417.664062 408.765625 C 426.324219 438.539062 450.351562 458.542969 477.457031 458.542969 C 488.980469 458.542969 500.269531 454.902344 510.101562 448.019531 C 529.179688 434.613281 540.566406 411.207031 540.566406 385.414062 C 540.566406 345.089844 512.257812 312.28125 477.457031 312.28125 C 462.265625 312.28125 447.570312 318.667969 436.074219 330.261719 C 422.28125 344.148438 414.371094 364.25 414.371094 385.414062 C 414.371094 386.949219 413.125 388.199219 411.585938 388.199219 C 410.042969 388.199219 408.796875 386.949219 408.796875 385.414062 C 408.796875 362.789062 417.292969 341.257812 432.109375 326.339844 C 444.660156 313.683594 460.765625 306.710938 477.457031 306.710938 C 515.332031 306.710938 546.144531 342.015625 546.144531 385.414062 Z M 546.144531 385.414062 " fill-opacity="1" fill-rule="nonzero"/><path fill="#000000" d="M 434.527344 325.046875 C 435.941406 325.660156 436.589844 327.296875 435.980469 328.710938 C 435.371094 330.121094 433.730469 330.769531 432.316406 330.160156 C 431.8125 329.945312 381.375 308.738281 336.226562 333.308594 C 336.21875 333.316406 332.371094 335.496094 332.371094 335.496094 C 304.707031 351.691406 283.414062 377.042969 269.078125 410.847656 C 261.238281 429.316406 255.53125 450.320312 252.117188 473.273438 C 252.113281 473.296875 249.816406 491.769531 249.816406 491.769531 C 248.976562 500.640625 248.550781 509.316406 248.550781 517.550781 C 248.550781 519.089844 247.300781 520.339844 245.761719 520.339844 C 244.21875 520.339844 242.972656 519.089844 242.972656 517.550781 C 242.972656 509.140625 243.40625 500.285156 244.269531 491.238281 C 244.269531 491.234375 246.601562 472.433594 246.601562 472.433594 C 250.085938 449.035156 255.917969 427.574219 263.941406 408.675781 C 278.753906 373.742188 300.828125 347.503906 329.546875 330.691406 L 333.5625 328.414062 C 381.136719 302.515625 432.371094 324.113281 434.527344 325.046875 Z M 434.527344 325.046875 " fill-opacity="1" fill-rule="nonzero"/><path fill="#000000" d="M 514.589844 449.675781 C 514.777344 450.167969 519.191406 461.902344 523.449219 479.277344 C 523.449219 479.285156 527.164062 496.683594 527.164062 496.683594 C 529.339844 508.839844 530.582031 520.371094 530.859375 530.960938 C 531.042969 538.457031 530.734375 545.617188 529.953125 552.257812 C 529.953125 552.238281 528.664062 560.761719 528.664062 560.761719 C 527.832031 565.054688 526.777344 569.335938 525.53125 573.488281 C 523.027344 581.8125 519.695312 589.992188 515.625 597.789062 C 515.625 597.792969 511.324219 605.414062 511.324219 605.414062 C 502.230469 620.414062 490.746094 632.996094 477.199219 642.804688 C 473.261719 645.671875 469.089844 648.328125 464.808594 650.699219 C 453.769531 656.84375 441.648438 661.347656 428.785156 664.085938 C 414.734375 667.09375 399.496094 668.097656 383.488281 667.066406 C 383.484375 667.066406 368.902344 665.597656 368.902344 665.597656 C 368.667969 665.566406 366.921875 665.300781 366.921875 665.300781 C 353.867188 663.445312 341.496094 660.476562 330.25 656.492188 C 322.375 653.683594 314.976562 650.355469 308.265625 646.601562 C 300.78125 642.460938 293.855469 637.644531 287.6875 632.289062 C 278.734375 624.570312 271.019531 615.515625 264.75 605.378906 C 250.300781 582.074219 242.972656 552.53125 242.972656 517.578125 C 242.972656 516.039062 244.21875 514.792969 245.761719 514.792969 C 247.300781 514.792969 248.550781 516.039062 248.550781 517.578125 C 248.550781 551.476562 255.59375 580.035156 269.496094 602.445312 C 275.460938 612.101562 282.8125 620.722656 291.339844 628.074219 C 297.21875 633.183594 303.824219 637.773438 310.976562 641.734375 C 317.429688 645.34375 324.542969 648.539062 332.117188 651.246094 C 343.011719 655.101562 355.019531 657.984375 367.800781 659.800781 C 367.898438 659.816406 369.425781 660.046875 369.425781 660.046875 C 369.652344 660.074219 383.851562 661.503906 383.851562 661.503906 C 399.34375 662.503906 414.066406 661.535156 427.621094 658.636719 C 439.945312 656.015625 451.539062 651.707031 462.097656 645.832031 C 466.183594 643.566406 470.160156 641.03125 473.917969 638.296875 C 486.867188 628.925781 497.847656 616.886719 506.558594 602.527344 C 506.558594 602.527344 510.679688 595.214844 510.679688 595.214844 C 514.585938 587.726562 517.785156 579.875 520.1875 571.882812 C 521.382812 567.910156 522.394531 563.8125 523.1875 559.699219 L 524.410156 551.625 C 525.164062 545.226562 525.457031 538.328125 525.285156 531.101562 C 525.015625 520.796875 523.800781 509.546875 521.675781 497.675781 L 518.027344 480.59375 C 513.859375 463.578125 509.417969 451.761719 509.375 451.644531 C 508.828125 450.203125 509.558594 448.605469 510.996094 448.054688 C 512.4375 447.511719 514.042969 448.230469 514.589844 449.675781 Z M 514.589844 449.675781 " fill-opacity="1" fill-rule="nonzero"/><path fill="#000000" d="M 457.601562 467.21875 C 458.457031 468.5 458.113281 470.230469 456.835938 471.082031 C 456.113281 471.566406 384.203125 518.769531 342.625 474.859375 C 341.566406 473.746094 341.617188 471.980469 342.734375 470.921875 C 343.855469 469.863281 345.617188 469.914062 346.679688 471.035156 C 385.015625 511.523438 453.050781 466.90625 453.734375 466.453125 C 455.015625 465.597656 456.746094 465.941406 457.601562 467.21875 Z M 457.601562 467.21875 " fill-opacity="1" fill-rule="nonzero"/><path fill="#000000" d="M 352.457031 463.667969 C 352.703125 465.148438 351.679688 466.566406 350.207031 466.867188 C 350.125 466.882812 342.179688 468.742188 344.167969 489.847656 C 344.308594 491.378906 343.183594 492.738281 341.652344 492.882812 C 340.117188 493.027344 338.753906 491.902344 338.613281 490.371094 C 336.117188 463.859375 348.027344 461.53125 349.394531 461.355469 C 350.882812 461.160156 352.207031 462.1875 352.457031 463.667969 Z M 352.457031 463.667969 " fill-opacity="1" fill-rule="nonzero"/><path fill="#000000" d="M 353.652344 444.023438 C 354.582031 445.25 354.335938 446.996094 353.109375 447.925781 C 352.546875 448.347656 339.230469 458.480469 326.175781 476.136719 L 319.773438 485.507812 C 313.5 495.519531 308.804688 505.8125 305.804688 516.097656 C 303.757812 522.992188 302.441406 530.101562 301.890625 537.238281 L 301.285156 548.132812 C 300.65625 567.757812 302.097656 588.871094 305.574219 610.863281 C 305.570312 610.84375 305.960938 613.1875 305.960938 613.1875 L 306.464844 616.226562 C 306.457031 616.183594 306.777344 617.949219 306.777344 617.949219 L 307.351562 621.15625 C 308.839844 629.082031 310.507812 636.582031 312.308594 643.40625 C 312.292969 643.351562 312.480469 643.984375 312.480469 643.984375 C 312.917969 645.457031 312.0625 646.960938 310.585938 647.398438 C 309.109375 647.839844 307.542969 646.953125 307.105469 645.476562 L 306.960938 644.992188 C 305.082031 637.871094 303.378906 630.242188 301.863281 622.144531 C 301.855469 622.113281 300.96875 617.164062 300.96875 617.164062 C 300.960938 617.121094 300.070312 611.75 300.070312 611.75 C 296.535156 589.394531 295.070312 567.933594 295.710938 547.9375 C 295.710938 547.921875 296.328125 536.8125 296.328125 536.8125 C 296.910156 529.285156 298.296875 521.785156 300.453125 514.527344 C 303.589844 503.765625 308.5 493 315.042969 482.558594 L 321.6875 472.824219 C 335.21875 454.527344 349.164062 443.921875 349.746094 443.476562 C 350.976562 442.550781 352.722656 442.792969 353.652344 444.023438 Z M 353.652344 444.023438 " fill-opacity="1" fill-rule="nonzero"/><path fill="#000000" d="M 269.324219 409.375 C 270.382812 416.382812 272.421875 423.117188 275.390625 429.382812 C 276.9375 432.683594 278.777344 435.898438 280.859375 438.945312 C 284.445312 444.207031 288.753906 449.078125 293.65625 453.421875 C 297.789062 457.125 302.472656 460.566406 307.582031 463.65625 C 316.972656 469.316406 324.480469 471.65625 324.554688 471.675781 C 326.023438 472.128906 326.851562 473.6875 326.402344 475.15625 C 325.949219 476.628906 324.390625 477.457031 322.921875 477.003906 C 322.589844 476.902344 314.722656 474.464844 304.699219 468.421875 C 299.289062 465.15625 294.324219 461.507812 289.941406 457.582031 C 284.707031 452.941406 280.097656 447.722656 276.253906 442.085938 C 274.003906 438.792969 272.015625 435.316406 270.34375 431.757812 C 267.148438 425.007812 264.949219 417.753906 263.808594 410.207031 C 263.578125 408.683594 264.625 407.265625 266.148438 407.035156 C 267.671875 406.804688 269.09375 407.851562 269.324219 409.375 Z M 269.324219 409.375 " fill-opacity="1" fill-rule="nonzero"/><path fill="#000000" d="M 500.503906 183.097656 C 501.582031 184.195312 501.566406 185.960938 500.464844 187.035156 C 451.085938 235.46875 439.089844 324.75 438.976562 325.648438 C 438.78125 327.171875 437.382812 328.25 435.855469 328.054688 C 434.328125 327.859375 433.246094 326.464844 433.441406 324.9375 C 433.558594 324.023438 445.78125 232.859375 496.558594 183.058594 C 497.65625 181.980469 499.425781 182 500.503906 183.097656 Z M 500.503906 183.097656 " fill-opacity="1" fill-rule="nonzero"/><path fill="#000000" d="M 341.660156 326.558594 C 342.238281 327.984375 341.550781 329.609375 340.125 330.1875 C 338.699219 330.761719 337.070312 330.078125 336.488281 328.652344 C 308.667969 260.28125 270.957031 272.5625 269.363281 273.117188 C 267.914062 273.625 266.324219 272.875 265.8125 271.421875 C 265.296875 269.976562 266.035156 268.386719 267.492188 267.871094 C 269.28125 267.226562 311.710938 252.964844 341.660156 326.558594 Z M 341.660156 326.558594 " fill-opacity="1" fill-rule="nonzero"/><g clip-path="url(#2af64d105a)"><path fill="#000000" d="M 513.152344 166.492188 C 504.046875 166.492188 496.644531 173.566406 496.644531 182.261719 C 496.644531 190.972656 504.046875 198.058594 513.152344 198.058594 C 522.242188 198.058594 529.636719 190.972656 529.636719 182.261719 C 529.636719 173.566406 522.242188 166.492188 513.152344 166.492188 Z M 513.152344 192.484375 C 507.125 192.484375 502.222656 187.898438 502.222656 182.261719 C 502.222656 176.636719 507.125 172.066406 513.152344 172.066406 C 519.167969 172.066406 524.058594 176.636719 524.058594 182.261719 C 524.058594 187.898438 519.167969 192.484375 513.152344 192.484375 Z M 513.152344 192.484375 " fill-opacity="1" fill-rule="nonzero"/></g><path fill="#000000" d="M 254.710938 258.429688 C 245.609375 258.429688 238.203125 265.503906 238.203125 274.199219 C 238.203125 282.90625 245.609375 289.996094 254.710938 289.996094 C 263.816406 289.996094 271.222656 282.90625 271.222656 274.199219 C 271.222656 265.503906 263.816406 258.429688 254.710938 258.429688 Z M 254.710938 284.421875 C 248.683594 284.421875 243.78125 279.835938 243.78125 274.199219 C 243.78125 268.574219 248.683594 264 254.710938 264 C 260.738281 264 265.644531 268.574219 265.644531 274.199219 C 265.644531 279.835938 260.738281 284.421875 254.710938 284.421875 Z M 254.710938 284.421875 " fill-opacity="1" fill-rule="nonzero"/><path fill="#000000" d="M 523.6875 478.167969 C 523.792969 478.320312 534.332031 493.207031 542.246094 499.164062 C 545.515625 501.605469 549.9375 502.589844 554.207031 503.539062 C 560.058594 504.839844 566.109375 506.183594 569.414062 511.375 C 570.648438 513.3125 571.265625 515.472656 571.265625 517.742188 C 571.265625 519.773438 570.773438 521.882812 569.78125 523.992188 C 567.550781 528.734375 563.152344 532.53125 558.449219 534.21875 C 558.746094 535.433594 558.9375 536.777344 558.9375 538.183594 C 558.9375 542.039062 557.515625 546.324219 552.878906 549.335938 C 551.195312 550.433594 548.285156 551.417969 544.035156 549.839844 C 535.8125 546.78125 526.375 535.210938 525.390625 531.800781 C 525.417969 531.894531 525.363281 529.789062 525.363281 529.789062 C 525.402344 531.292969 526.496094 533.328125 528 533.335938 C 529.503906 533.347656 530.613281 533 530.671875 531.496094 L 530.726562 530.171875 C 531.445312 532.277344 539.667969 542.457031 546.222656 544.707031 C 548.550781 545.503906 549.519531 544.871094 549.835938 544.664062 C 555.585938 540.9375 552.699219 534.304688 552.351562 533.5625 C 551.976562 532.753906 552.007812 531.8125 552.433594 531.03125 C 552.863281 530.253906 553.640625 529.71875 554.523438 529.605469 C 558.4375 529.113281 562.828125 525.679688 564.734375 521.621094 C 565.625 519.726562 566.34375 516.929688 564.707031 514.367188 C 562.640625 511.121094 558.171875 510.128906 552.996094 508.976562 C 548.375 507.949219 543.140625 506.785156 538.898438 503.621094 C 530.273438 497.128906 519.578125 482.015625 519.128906 481.378906 C 518.242188 480.117188 518.542969 478.378906 519.804688 477.492188 C 521.0625 476.609375 522.800781 476.910156 523.6875 478.167969 Z M 523.6875 478.167969 " fill-opacity="1" fill-rule="nonzero"/><path fill="#000000" d="M 523.816406 570.066406 C 524.257812 570.175781 534.664062 572.882812 541.8125 583 C 544.015625 586.128906 544.71875 588.800781 544.71875 590.9375 C 544.71875 593.453125 543.742188 595.230469 543.085938 596.140625 C 541.339844 598.5625 538.390625 599.972656 535.15625 600.269531 C 535.738281 602.042969 536.25 604.117188 536.25 606.441406 C 536.25 607.90625 536.058594 609.4375 535.582031 610.960938 C 534.207031 615.335938 530.859375 618.699219 525.640625 620.957031 C 520.777344 623.050781 516.613281 622.992188 513.257812 620.789062 C 506.597656 616.410156 506.40625 605.355469 506.40625 604.109375 C 506.40625 602.574219 507.652344 601.328125 509.1875 601.328125 C 510.726562 601.324219 511.976562 602.566406 511.980469 604.105469 C 511.992188 606.664062 512.789062 613.816406 516.332031 616.136719 C 518.015625 617.242188 520.40625 617.144531 523.429688 615.84375 C 527.082031 614.265625 529.378906 612.070312 530.25 609.324219 C 531.851562 604.292969 528.464844 598.660156 528.433594 598.601562 C 527.828125 597.617188 527.894531 596.359375 528.601562 595.445312 C 529.304688 594.53125 530.5 594.144531 531.609375 594.476562 C 534.328125 595.292969 537.316406 594.605469 538.5625 592.882812 C 540.054688 590.8125 538.378906 587.816406 537.253906 586.210938 C 531.335938 577.839844 522.535156 575.492188 522.449219 575.46875 C 520.960938 575.082031 520.058594 573.566406 520.4375 572.078125 C 520.820312 570.59375 522.324219 569.691406 523.816406 570.066406 Z M 523.816406 570.066406 " fill-opacity="1" fill-rule="nonzero"/><g clip-path="url(#dc8c191145)"><path fill="#000000" d="M 461.648438 647.375 C 460.722656 648.601562 460.972656 650.347656 462.195312 651.273438 C 462.285156 651.335938 470.679688 657.78125 469.832031 665.796875 C 469.660156 667.371094 469.058594 667.910156 468.558594 668.203125 C 466.089844 669.648438 460.378906 668.027344 457.996094 667.015625 C 457.109375 666.636719 456.085938 666.757812 455.296875 667.316406 C 454.507812 667.871094 454.0625 668.804688 454.121094 669.769531 C 454.1875 670.878906 454.386719 680.640625 440.640625 681.761719 C 437.488281 682.019531 435.175781 681.28125 433.566406 679.5 C 429.699219 675.222656 430.445312 665.726562 431.058594 662.429688 C 431.339844 660.917969 430.339844 659.464844 428.828125 659.179688 C 427.316406 658.898438 425.859375 659.894531 425.578125 661.402344 C 425.464844 661.996094 422.917969 676.015625 429.417969 683.226562 C 432.226562 686.34375 436.15625 687.71875 441.09375 687.316406 C 454.523438 686.222656 458.269531 678.296875 459.300781 673.351562 C 462.683594 674.304688 467.753906 675.128906 471.371094 673.019531 C 472.972656 672.082031 474.964844 670.175781 475.375 666.390625 C 476.5625 655.191406 465.996094 647.152344 465.546875 646.816406 C 464.316406 645.894531 462.574219 646.144531 461.648438 647.375 Z M 459.6875 669.585938 C 459.6875 669.515625 459.683594 669.375 459.683594 669.367188 C 459.6875 669.4375 459.691406 669.507812 459.691406 669.578125 C 459.691406 669.582031 459.6875 669.582031 459.6875 669.585938 Z M 459.6875 669.585938 " fill-opacity="1" fill-rule="nonzero"/></g><path fill="#000000" d="M 332.988281 652.261719 C 334.089844 653.335938 334.113281 655.097656 333.042969 656.199219 C 331.164062 658.128906 325.960938 664.628906 326.628906 669.039062 C 326.773438 669.996094 327.242188 671.421875 329.589844 672.707031 C 338.976562 677.816406 345.464844 671.117188 345.734375 670.828125 C 346.386719 670.136719 347.355469 669.824219 348.289062 670 C 349.222656 670.175781 350.007812 670.8125 350.367188 671.691406 C 350.882812 672.972656 352.839844 676.523438 355.660156 677.617188 C 357.132812 678.183594 358.71875 678.042969 360.511719 677.179688 C 367.597656 673.765625 364.769531 664.554688 364.644531 664.164062 C 364.175781 662.699219 364.984375 661.132812 366.449219 660.664062 C 367.910156 660.191406 369.476562 660.988281 369.949219 662.449219 C 371.542969 667.34375 372.121094 677.773438 362.933594 682.199219 C 359.746094 683.730469 356.523438 683.9375 353.609375 682.796875 C 350.449219 681.5625 348.316406 679.042969 346.949219 676.945312 C 342.597656 679.859375 335.300781 682.160156 326.917969 677.597656 C 322.738281 675.316406 321.453125 672.132812 321.113281 669.859375 C 319.921875 661.921875 328.109375 653.273438 329.046875 652.3125 C 330.121094 651.210938 331.882812 651.191406 332.988281 652.261719 Z M 332.988281 652.261719 " fill-opacity="1" fill-rule="nonzero"/><path fill="#000000" d="M 316.046875 480.703125 C 314.621094 481.285156 313.96875 482.984375 314.546875 484.410156 C 314.546875 484.410156 314.808594 485.050781 314.84375 485.136719 C 316.824219 489.734375 324.363281 505.605469 338.265625 516.871094 L 344.234375 521.136719 C 353.785156 527.101562 355.601562 535.105469 353.171875 540.382812 C 351.863281 543.226562 348.785156 546.0625 344.425781 544.699219 C 343.566406 544.433594 342.636719 544.605469 341.921875 545.144531 C 341.21875 545.667969 340.804688 546.507812 340.804688 547.382812 C 340.804688 547.402344 340.808594 547.464844 340.808594 547.488281 C 340.808594 548.164062 340.601562 554.671875 332.964844 557.871094 L 331.894531 558.289062 C 330.230469 558.863281 328.070312 557.664062 326.554688 556.554688 C 317.0625 549.625 305.695312 526.921875 305.945312 515.382812 C 305.976562 513.839844 304.753906 512.566406 303.214844 512.535156 C 301.675781 512.503906 300.398438 513.722656 300.367188 515.261719 C 300.078125 528.640625 312.277344 553.035156 323.261719 561.054688 C 327.027344 563.804688 330.539062 564.644531 333.726562 563.550781 C 333.726562 563.550781 335.207031 562.964844 335.222656 562.964844 C 342.832031 559.777344 345.226562 554.113281 345.996094 550.519531 C 351.097656 550.75 355.859375 547.875 358.238281 542.710938 C 361.691406 535.21875 359.613281 524.179688 347.191406 516.414062 L 341.777344 512.546875 C 328.871094 502.082031 321.820312 487.234375 320.003906 483.019531 L 319.648438 482.152344 C 319.0625 480.730469 317.46875 480.121094 316.046875 480.703125 Z M 346.382812 547.359375 C 346.382812 547.324219 346.378906 547.269531 346.378906 547.257812 C 346.382812 547.289062 346.382812 547.359375 346.382812 547.359375 Z M 335.222656 562.964844 C 335.21875 562.964844 335.21875 562.96875 335.21875 562.96875 C 335.222656 562.964844 335.222656 562.964844 335.222656 562.964844 Z M 335.222656 562.964844 " fill-opacity="1" fill-rule="nonzero"/><path fill="#000000" d="M 301.257812 547.082031 C 301.304688 547.203125 305.609375 558.9375 312.554688 564.292969 C 318.765625 569.117188 322.53125 574.558594 323.15625 579.625 C 323.21875 580.132812 323.25 580.636719 323.25 581.132812 C 323.25 583.292969 322.519531 585.300781 321.378906 587.164062 C 321.558594 588.425781 321.832031 590.839844 321.832031 593.785156 C 321.832031 594.78125 321.800781 595.832031 321.71875 596.902344 C 321.246094 603.507812 319.199219 608.316406 315.632812 611.1875 C 312.589844 613.632812 308.613281 614.523438 303.816406 613.832031 C 302.292969 613.613281 301.234375 612.199219 301.453125 610.675781 C 301.671875 609.152344 303.089844 608.09375 304.613281 608.316406 C 307.859375 608.785156 310.324219 608.300781 312.132812 606.847656 C 315.011719 604.53125 315.910156 599.941406 316.160156 596.5 C 316.515625 591.640625 315.753906 587.226562 315.746094 587.179688 C 315.609375 586.402344 315.8125 585.601562 316.296875 584.980469 C 317.402344 583.570312 317.835938 582.042969 317.621094 580.308594 C 317.183594 576.773438 314.09375 572.542969 309.140625 568.699219 C 300.902344 562.347656 296.207031 549.515625 296.015625 548.972656 C 295.492188 547.527344 296.234375 545.929688 297.691406 545.410156 C 299.136719 544.886719 300.734375 545.640625 301.257812 547.082031 Z M 301.257812 547.082031 " fill-opacity="1" fill-rule="nonzero"/><path fill="#000000" d="M 305.816406 614.640625 C 372.664062 679.070312 473.308594 638.175781 474.316406 637.753906 C 475.738281 637.164062 477.371094 637.832031 477.964844 639.253906 C 478.558594 640.671875 477.894531 642.304688 476.46875 642.898438 C 475.425781 643.332031 371.453125 685.648438 301.941406 618.652344 C 300.835938 617.582031 300.800781 615.820312 301.871094 614.710938 C 302.941406 613.605469 304.707031 613.574219 305.816406 614.640625 Z M 305.816406 614.640625 " fill-opacity="1" fill-rule="nonzero"/><path fill="#000000" d="M 515.453125 595.050781 C 516.226562 596.386719 515.773438 598.082031 514.4375 598.859375 C 513.441406 599.4375 413.554688 655.964844 317.519531 599.09375 C 317.386719 599.019531 317.0625 598.839844 317.0625 598.839844 C 315.722656 598.082031 315.371094 596.457031 316.125 595.113281 C 316.882812 593.773438 318.707031 593.371094 320.050781 594.128906 L 320.371094 594.308594 C 413.535156 649.476562 510.671875 594.601562 511.644531 594.039062 C 512.976562 593.269531 514.683594 593.71875 515.453125 595.050781 Z M 515.453125 595.050781 " fill-opacity="1" fill-rule="nonzero"/><path fill="#000000" d="M 528.820312 550.160156 C 529.769531 551.375 529.554688 553.121094 528.339844 554.070312 C 527.597656 554.652344 452.480469 611.609375 333.144531 563.144531 C 331.714844 562.566406 331.03125 560.941406 331.609375 559.515625 C 332.191406 558.089844 333.816406 557.402344 335.246094 557.984375 C 451.449219 605.179688 524.1875 550.234375 524.90625 549.675781 C 526.125 548.730469 527.875 548.949219 528.820312 550.160156 Z M 528.820312 550.160156 " fill-opacity="1" fill-rule="nonzero"/><path fill="#000000" d="M 526.355469 495.445312 C 527.328125 496.636719 527.15625 498.390625 525.96875 499.367188 C 525.195312 500 447.394531 562.226562 339.0625 517.171875 C 337.640625 516.578125 336.964844 514.945312 337.558594 513.527344 C 338.152344 512.105469 339.78125 511.4375 341.207031 512.023438 C 446.347656 555.757812 521.679688 495.667969 522.429688 495.058594 C 523.621094 494.082031 525.375 494.257812 526.355469 495.445312 Z M 526.355469 495.445312 " fill-opacity="1" fill-rule="nonzero"/><path fill="#000000" d="M 307.050781 464.515625 C 308.367188 465.308594 308.792969 467.023438 307.996094 468.339844 C 307.714844 468.8125 279.683594 516.171875 284.65625 584.292969 C 285.773438 599.335938 288.40625 614.421875 292.484375 629.136719 C 292.894531 630.621094 292.023438 632.152344 290.539062 632.566406 C 289.054688 632.976562 287.519531 632.105469 287.109375 630.621094 C 282.9375 615.558594 280.238281 600.105469 279.097656 584.703125 C 273.984375 514.726562 302.929688 465.945312 303.21875 465.460938 C 304.019531 464.144531 305.730469 463.722656 307.050781 464.515625 Z M 307.050781 464.515625 " fill-opacity="1" fill-rule="nonzero"/><path fill="#000000" d="M 292.816406 454.371094 C 293.96875 455.394531 294.070312 457.152344 293.054688 458.304688 C 292.941406 458.429688 281.765625 471.257812 273.984375 497.855469 C 265.066406 528.199219 263.96875 563.554688 270.707031 602.941406 C 270.96875 604.460938 269.949219 605.898438 268.429688 606.15625 C 266.910156 606.417969 265.46875 605.398438 265.210938 603.882812 C 258.324219 563.652344 259.472656 527.449219 268.628906 496.289062 C 276.796875 468.375 288.394531 455.152344 288.882812 454.601562 C 289.90625 453.453125 291.667969 453.351562 292.816406 454.371094 Z M 292.816406 454.371094 " fill-opacity="1" fill-rule="nonzero"/><path fill="#000000" d="M 277.257812 441.140625 C 277.257812 441.140625 275.699219 442.695312 275.695312 442.695312 C 269.300781 449.238281 248.050781 473.941406 243.027344 517.019531 L 242.871094 518.195312 C 243.074219 516.675781 244.476562 515.507812 245.996094 515.695312 C 247.515625 515.890625 248.609375 517.167969 248.425781 518.6875 C 248.425781 518.6875 248.492188 518.136719 248.53125 517.871094 C 253.386719 476.339844 273.609375 452.8125 279.726562 446.546875 L 280.976562 445.296875 C 282.0625 444.207031 282.171875 442.335938 281.085938 441.25 C 279.996094 440.164062 278.347656 440.058594 277.257812 441.140625 Z M 275.695312 442.695312 Z M 275.695312 442.695312 " fill-opacity="1" fill-rule="nonzero"/><path fill="#000000" d="M 273.332031 428.925781 C 274.570312 429.84375 274.824219 431.585938 273.90625 432.820312 C 273.746094 433.035156 257.886719 454.464844 252.515625 473.695312 C 252.101562 475.179688 250.566406 476.046875 249.082031 475.632812 C 247.597656 475.21875 246.734375 473.679688 247.148438 472.199219 C 252.796875 451.957031 268.753906 430.402344 269.433594 429.496094 C 270.351562 428.261719 272.097656 428.003906 273.332031 428.925781 Z M 273.332031 428.925781 " fill-opacity="1" fill-rule="nonzero"/><path fill="#000000" d="M 457.601562 382.625 C 457.601562 383.492188 457.582031 384.359375 457.546875 385.222656 C 457.511719 386.082031 457.460938 386.941406 457.390625 387.789062 C 457.324219 388.640625 457.238281 389.480469 457.136719 390.308594 C 457.03125 391.140625 456.914062 391.953125 456.777344 392.753906 C 456.640625 393.554688 456.492188 394.339844 456.324219 395.101562 C 456.15625 395.867188 455.976562 396.609375 455.777344 397.332031 C 455.582031 398.050781 455.371094 398.746094 455.148438 399.417969 C 454.921875 400.085938 454.683594 400.726562 454.433594 401.339844 C 454.183594 401.953125 453.921875 402.535156 453.648438 403.085938 C 453.375 403.636719 453.089844 404.152344 452.796875 404.632812 C 452.503906 405.113281 452.199219 405.558594 451.886719 405.96875 C 451.574219 406.375 451.257812 406.746094 450.929688 407.078125 C 450.601562 407.410156 450.269531 407.703125 449.929688 407.953125 C 449.59375 408.203125 449.25 408.414062 448.902344 408.585938 C 448.554688 408.753906 448.203125 408.878906 447.851562 408.964844 C 447.5 409.050781 447.148438 409.09375 446.792969 409.09375 C 446.441406 409.09375 446.085938 409.050781 445.734375 408.964844 C 445.382812 408.878906 445.03125 408.753906 444.683594 408.585938 C 444.339844 408.414062 443.996094 408.203125 443.65625 407.953125 C 443.316406 407.703125 442.984375 407.410156 442.65625 407.078125 C 442.332031 406.746094 442.011719 406.375 441.699219 405.96875 C 441.386719 405.558594 441.082031 405.113281 440.789062 404.632812 C 440.496094 404.152344 440.210938 403.636719 439.9375 403.085938 C 439.664062 402.535156 439.402344 401.953125 439.152344 401.339844 C 438.902344 400.726562 438.664062 400.085938 438.441406 399.417969 C 438.214844 398.746094 438.003906 398.050781 437.808594 397.332031 C 437.613281 396.609375 437.429688 395.867188 437.261719 395.101562 C 437.097656 394.339844 436.945312 393.554688 436.808594 392.753906 C 436.675781 391.953125 436.554688 391.140625 436.453125 390.308594 C 436.347656 389.480469 436.261719 388.640625 436.195312 387.789062 C 436.125 386.941406 436.074219 386.082031 436.039062 385.222656 C 436.003906 384.359375 435.988281 383.492188 435.988281 382.625 C 435.988281 381.761719 436.003906 380.894531 436.039062 380.03125 C 436.074219 379.167969 436.125 378.3125 436.195312 377.464844 C 436.261719 376.613281 436.347656 375.773438 436.453125 374.945312 C 436.554688 374.113281 436.675781 373.300781 436.808594 372.5 C 436.945312 371.699219 437.097656 370.914062 437.261719 370.152344 C 437.429688 369.386719 437.613281 368.644531 437.808594 367.921875 C 438.003906 367.203125 438.214844 366.507812 438.441406 365.835938 C 438.664062 365.167969 438.902344 364.523438 439.152344 363.910156 C 439.402344 363.300781 439.664062 362.71875 439.9375 362.167969 C 440.210938 361.617188 440.496094 361.101562 440.789062 360.621094 C 441.082031 360.140625 441.386719 359.695312 441.699219 359.285156 C 442.011719 358.875 442.332031 358.507812 442.65625 358.175781 C 442.984375 357.84375 443.316406 357.550781 443.65625 357.300781 C 443.996094 357.046875 444.339844 356.835938 444.683594 356.667969 C 445.03125 356.5 445.382812 356.371094 445.734375 356.289062 C 446.085938 356.203125 446.441406 356.160156 446.792969 356.160156 C 447.148438 356.160156 447.5 356.203125 447.851562 356.289062 C 448.203125 356.371094 448.554688 356.5 448.902344 356.667969 C 449.25 356.835938 449.59375 357.046875 449.929688 357.300781 C 450.269531 357.550781 450.601562 357.84375 450.929688 358.175781 C 451.257812 358.507812 451.574219 358.875 451.886719 359.285156 C 452.199219 359.695312 452.503906 360.140625 452.796875 360.621094 C 453.089844 361.101562 453.375 361.617188 453.648438 362.167969 C 453.921875 362.71875 454.183594 363.300781 454.433594 363.910156 C 454.683594 364.523438 454.921875 365.167969 455.148438 365.835938 C 455.371094 366.507812 455.582031 367.203125 455.777344 367.921875 C 455.976562 368.644531 456.15625 369.386719 456.324219 370.148438 C 456.492188 370.914062 456.640625 371.699219 456.777344 372.5 C 456.914062 373.300781 457.03125 374.113281 457.136719 374.945312 C 457.238281 375.773438 457.324219 376.613281 457.390625 377.464844 C 457.460938 378.3125 457.511719 379.167969 457.546875 380.03125 C 457.582031 380.894531 457.601562 381.761719 457.601562 382.625 Z M 457.601562 382.625 " fill-opacity="1" fill-rule="nonzero"/><path fill="#ffffff" d="M 466.664062 372.527344 C 466.664062 373.144531 466.605469 373.757812 466.484375 374.363281 C 466.363281 374.96875 466.183594 375.554688 465.949219 376.125 C 465.710938 376.695312 465.421875 377.238281 465.078125 377.75 C 464.734375 378.265625 464.34375 378.738281 463.90625 379.175781 C 463.46875 379.613281 462.996094 380.003906 462.480469 380.34375 C 461.96875 380.6875 461.425781 380.976562 460.855469 381.214844 C 460.28125 381.449219 459.695312 381.628906 459.085938 381.75 C 458.480469 381.871094 457.871094 381.929688 457.25 381.929688 C 456.632812 381.929688 456.019531 381.871094 455.414062 381.75 C 454.808594 381.628906 454.21875 381.449219 453.648438 381.214844 C 453.078125 380.976562 452.535156 380.6875 452.023438 380.34375 C 451.507812 380.003906 451.03125 379.613281 450.597656 379.175781 C 450.160156 378.738281 449.769531 378.265625 449.425781 377.75 C 449.082031 377.238281 448.792969 376.695312 448.554688 376.125 C 448.320312 375.554688 448.140625 374.96875 448.019531 374.363281 C 447.898438 373.757812 447.839844 373.144531 447.839844 372.527344 C 447.839844 371.910156 447.898438 371.296875 448.019531 370.691406 C 448.140625 370.085938 448.320312 369.5 448.554688 368.929688 C 448.792969 368.359375 449.082031 367.816406 449.425781 367.304688 C 449.769531 366.789062 450.160156 366.316406 450.597656 365.878906 C 451.03125 365.441406 451.507812 365.050781 452.023438 364.710938 C 452.535156 364.367188 453.078125 364.078125 453.648438 363.839844 C 454.21875 363.605469 454.808594 363.425781 455.414062 363.304688 C 456.019531 363.183594 456.632812 363.125 457.25 363.125 C 457.871094 363.125 458.480469 363.183594 459.085938 363.304688 C 459.695312 363.425781 460.28125 363.605469 460.855469 363.839844 C 461.425781 364.078125 461.96875 364.367188 462.480469 364.710938 C 462.996094 365.050781 463.46875 365.441406 463.90625 365.878906 C 464.34375 366.316406 464.734375 366.789062 465.078125 367.304688 C 465.421875 367.816406 465.710938 368.359375 465.949219 368.929688 C 466.183594 369.5 466.363281 370.085938 466.484375 370.691406 C 466.605469 371.296875 466.664062 371.910156 466.664062 372.527344 Z M 466.664062 372.527344 " fill-opacity="1" fill-rule="nonzero"/><path fill="#ffffff" d="M 326.261719 446.738281 C 336.578125 455.332031 349.175781 460.375 362.78125 460.375 C 396.660156 460.375 424.3125 429.160156 426.285156 389.832031 C 426.375 388.335938 426.417969 386.847656 426.417969 385.3125 C 426.417969 373.476562 424.09375 362.25 419.921875 352.300781 C 409.609375 327.351562 387.882812 310.210938 362.78125 310.210938 C 327.628906 310.210938 299.140625 343.839844 299.140625 385.3125 C 299.140625 410.746094 309.851562 433.191406 326.261719 446.738281 Z M 326.261719 446.738281 " fill-opacity="1" fill-rule="nonzero"/><path fill="#000000" d="M 362.78125 307.425781 C 326.152344 307.425781 296.351562 342.363281 296.351562 385.3125 C 296.351562 410.574219 306.871094 434.34375 324.472656 448.878906 C 335.695312 458.222656 348.941406 463.160156 362.78125 463.160156 C 397.890625 463.160156 427.011719 431.015625 429.070312 390 L 429.207031 385.3125 C 429.207031 373.324219 426.949219 361.855469 422.496094 351.230469 C 411.324219 324.210938 388.441406 307.425781 362.78125 307.425781 Z M 362.78125 457.589844 C 350.261719 457.589844 338.253906 453.097656 328.035156 444.59375 C 311.691406 431.09375 301.929688 408.933594 301.929688 385.3125 C 301.929688 345.4375 329.226562 312.996094 362.78125 312.996094 C 386.144531 312.996094 407.050781 328.464844 417.34375 353.363281 C 417.34375 353.367188 417.347656 353.371094 417.347656 353.378906 C 421.515625 363.316406 423.628906 374.066406 423.628906 385.3125 C 423.628906 385.3125 423.503906 389.664062 423.5 389.691406 C 421.585938 427.765625 394.917969 457.589844 362.78125 457.589844 Z M 422.496094 351.222656 C 422.496094 351.226562 422.496094 351.234375 422.5 351.234375 C 422.496094 351.234375 422.496094 351.226562 422.496094 351.222656 Z M 422.496094 351.222656 " fill-opacity="1" fill-rule="nonzero"/><path fill="#000000" d="M 366.472656 374.882812 C 366.472656 388.085938 370.851562 398.796875 376.246094 398.796875 C 381.628906 398.796875 386.003906 388.085938 386.003906 374.882812 C 386.003906 361.667969 381.628906 350.96875 376.246094 350.96875 C 370.851562 350.96875 366.472656 361.667969 366.472656 374.882812 Z M 366.472656 374.882812 " fill-opacity="1" fill-rule="nonzero"/><path fill="#ffffff" d="M 377.183594 365.753906 C 377.183594 370.445312 380.996094 374.25 385.6875 374.25 C 390.382812 374.25 394.199219 370.445312 394.199219 365.753906 C 394.199219 361.0625 390.382812 357.257812 385.6875 357.257812 C 380.996094 357.257812 377.183594 361.0625 377.183594 365.753906 Z M 377.183594 365.753906 " fill-opacity="1" fill-rule="nonzero"/></svg>