<svg xmlns="http://www.w3.org/2000/svg" xmlns:xlink="http://www.w3.org/1999/xlink" width="1080" zoomAndPan="magnify" viewBox="0 0 810 809.999993" height="1080" preserveAspectRatio="xMidYMid meet" version="1.0"><path fill="#1d1d1b" d="M 473.363281 634.414062 C 468.199219 630.019531 469.242188 620.328125 476.738281 602.984375 C 481.421875 592.15625 487.722656 580.710938 490.800781 575.476562 C 491.160156 571.433594 479.953125 553.152344 462.410156 531.941406 C 461.039062 530.289062 461.273438 527.835938 462.929688 526.476562 C 464.582031 525.105469 467.035156 525.332031 468.402344 526.988281 C 468.484375 527.089844 476.914062 537.296875 484.679688 548.296875 C 499.621094 569.445312 499.722656 575.65625 497.617188 579.222656 C 480.667969 607.882812 476.101562 626.535156 478.402344 628.5 C 480.316406 630.125 497.867188 636.382812 497.460938 638.496094 C 497.09375 640.417969 477.683594 638.097656 473.363281 634.414062 " fill-opacity="1" fill-rule="nonzero"/><path fill="#1d1d1b" d="M 526.421875 631.941406 C 522.601562 631.757812 519.199219 631.265625 517.492188 630.214844 C 515.109375 628.753906 513.230469 627.597656 517.164062 597.222656 C 518.472656 587.113281 520.847656 571.542969 522.113281 566.777344 C 520.371094 561.703125 504.789062 538.675781 490.179688 518.59375 C 488.917969 516.859375 489.304688 514.421875 491.039062 513.164062 C 492.777344 511.898438 495.210938 512.289062 496.472656 514.023438 C 496.558594 514.144531 505.152344 525.980469 513.460938 538.128906 C 531.359375 564.3125 530.574219 566.300781 529.660156 568.601562 C 527.984375 573.488281 522.105469 614.847656 522.679688 623.867188 C 525.011719 627.171875 542.964844 625.46875 543.097656 627.609375 C 543.230469 629.753906 530.875 632.152344 526.421875 631.941406 " fill-opacity="1" fill-rule="nonzero"/><path fill="#1d1d1b" d="M 556.296875 569.617188 C 554.546875 569.53125 553.015625 568.261719 552.671875 566.460938 C 550.105469 553.058594 546.894531 537.929688 545.84375 535.21875 C 543.398438 531.761719 520.773438 511.304688 500.492188 493.605469 C 498.871094 492.195312 498.703125 489.738281 500.117188 488.121094 C 501.527344 486.503906 503.984375 486.335938 505.601562 487.75 C 526.222656 505.742188 551.164062 528.007812 552.890625 531.921875 C 554.71875 536.070312 559.386719 560.207031 560.308594 565.007812 C 560.710938 567.113281 559.332031 569.148438 557.21875 569.554688 C 556.90625 569.613281 556.597656 569.632812 556.296875 569.617188 " fill-opacity="1" fill-rule="nonzero"/><path fill="#7e4e24" d="M 393.222656 482.234375 C 393.222656 482.234375 333.027344 456.109375 284.125 469.265625 C 248.046875 478.972656 206.636719 521.878906 222.789062 593.191406 C 229.789062 624.109375 406.882812 640.710938 446.003906 524.667969 C 458.808594 486.699219 393.222656 482.234375 393.222656 482.234375 " fill-opacity="1" fill-rule="nonzero"/><path fill="#9b602f" d="M 393.222656 482.234375 C 393.222656 482.234375 333.027344 456.109375 284.125 469.265625 C 260.1875 475.707031 233.890625 496.769531 223.632812 531.046875 C 223.632812 531.046875 275.632812 453.664062 393.222656 482.234375 " fill-opacity="1" fill-rule="nonzero"/><path fill="#683b11" d="M 305.550781 566.519531 C 261.460938 594.15625 222.789062 593.191406 222.789062 593.191406 C 229.789062 624.109375 406.882812 640.710938 446.003906 524.667969 C 450.28125 511.976562 389.113281 484.023438 381.25 477.734375 C 381.25 477.734375 371.832031 524.972656 305.550781 566.519531 " fill-opacity="1" fill-rule="nonzero"/><path fill="#1d1d1b" d="M 284.21875 617.554688 C 284.210938 617.554688 284.207031 617.554688 284.203125 617.554688 C 249.742188 615.898438 223.707031 606.058594 220.894531 593.621094 C 211.566406 552.449219 221.902344 523.851562 232.214844 507.105469 C 244.183594 487.675781 263.398438 472.828125 283.617188 467.390625 C 294.976562 464.332031 307.863281 463.128906 321.925781 463.804688 C 357.488281 465.511719 390.164062 478.839844 393.6875 480.316406 C 397.777344 480.632812 433.441406 483.90625 445.597656 502.089844 C 450.035156 508.738281 450.792969 516.546875 447.847656 525.289062 C 423.328125 598.011719 344.382812 620.445312 284.21875 617.554688 Z M 321.738281 467.683594 C 308.082031 467.03125 295.597656 468.191406 284.628906 471.144531 C 265.339844 476.332031 246.984375 490.535156 235.523438 509.140625 C 225.59375 525.273438 215.648438 552.871094 224.683594 592.765625 C 227.039062 603.160156 252.703125 612.152344 284.390625 613.671875 C 284.394531 613.671875 284.402344 613.671875 284.40625 613.671875 C 343.214844 616.496094 420.335938 594.71875 444.164062 524.046875 C 446.707031 516.507812 446.101562 509.847656 442.363281 504.253906 C 430.804688 486.945312 393.464844 484.195312 393.089844 484.171875 L 392.757812 484.148438 L 392.449219 484.015625 C 392.113281 483.867188 358.476562 469.445312 321.738281 467.683594 " fill-opacity="1" fill-rule="nonzero"/><path fill="#7e4e24" d="M 507.871094 490.910156 C 506.4375 520.734375 475.257812 543.46875 438.230469 541.695312 C 401.203125 539.917969 372.34375 514.296875 373.777344 484.46875 C 375.207031 454.644531 406.390625 431.90625 443.417969 433.6875 C 480.449219 435.464844 509.300781 461.085938 507.871094 490.910156 " fill-opacity="1" fill-rule="nonzero"/><path fill="#9b602f" d="M 409.082031 454.003906 C 373.035156 462.660156 373.777344 484.46875 373.777344 484.46875 C 375.207031 454.644531 406.390625 431.90625 443.417969 433.6875 C 443.417969 433.6875 448.765625 444.472656 409.082031 454.003906 " fill-opacity="1" fill-rule="nonzero"/><path fill="#683b11" d="M 507.871094 490.910156 C 506.4375 520.734375 475.257812 543.46875 438.230469 541.695312 C 405.828125 540.140625 379.6875 520.328125 374.617188 495.421875 C 374.617188 495.421875 405.121094 502.84375 434.539062 480.292969 C 457.871094 462.410156 467.390625 437.574219 477.152344 442.816406 C 496.425781 453.164062 508.820312 471.113281 507.871094 490.910156 " fill-opacity="1" fill-rule="nonzero"/><path fill="#1d1d1b" d="M 438.140625 543.632812 C 400.097656 541.808594 370.351562 515.230469 371.835938 484.375 C 373.320312 453.53125 405.46875 429.917969 443.511719 431.746094 C 481.550781 433.574219 511.289062 460.15625 509.8125 491 C 508.328125 521.851562 476.175781 545.460938 438.140625 543.632812 Z M 443.324219 435.628906 C 407.425781 433.90625 377.097656 455.859375 375.714844 484.5625 C 374.339844 513.269531 402.421875 538.03125 438.324219 539.753906 C 474.222656 541.476562 504.550781 519.523438 505.925781 490.816406 C 507.308594 462.109375 479.222656 437.351562 443.324219 435.628906 " fill-opacity="1" fill-rule="nonzero"/><path fill="#1d1d1b" d="M 450.921875 607.085938 C 449.410156 607.015625 448.015625 606.058594 447.457031 604.550781 C 447.042969 603.421875 437.226562 576.78125 433.464844 565.0625 C 429.421875 552.484375 448.523438 509.738281 452.390625 501.292969 C 453.289062 499.34375 455.597656 498.488281 457.542969 499.382812 C 459.496094 500.273438 460.355469 502.582031 459.460938 504.535156 C 450.363281 524.386719 438.570312 555.554688 440.863281 562.683594 C 444.578125 574.25 454.652344 601.585938 454.753906 601.859375 C 455.5 603.871094 454.464844 606.109375 452.453125 606.851562 C 451.949219 607.035156 451.429688 607.109375 450.921875 607.085938 " fill-opacity="1" fill-rule="nonzero"/><path fill="#1d1d1b" d="M 388.4375 644.117188 C 387.765625 642.082031 401.902344 634.167969 402.574219 632.078125 C 402.804688 629.097656 398.601562 614.933594 395.535156 604.574219 C 391.640625 591.449219 387.964844 579.050781 387.726562 573.449219 C 387.242188 562.183594 413.082031 519.316406 418.269531 510.839844 C 419.390625 509.003906 421.785156 508.429688 423.617188 509.546875 C 425.449219 510.667969 426.023438 513.0625 424.898438 514.886719 C 412.519531 535.136719 395.210938 566.585938 395.492188 573.121094 C 395.695312 577.761719 399.566406 590.832031 402.988281 602.363281 C 408.789062 621.929688 411.058594 630.261719 410.132812 633.910156 C 408.242188 641.328125 388.960938 645.695312 388.4375 644.117188 " fill-opacity="1" fill-rule="nonzero"/><path fill="#1d1d1b" d="M 328.039062 642.21875 C 327.671875 640.105469 340.667969 638.542969 347.019531 635.429688 C 350.871094 630.695312 348.933594 598.699219 348.097656 584.917969 C 347.140625 569.089844 347.023438 565.167969 348.019531 562.980469 C 350.253906 558.097656 380.449219 524.039062 389.652344 513.714844 C 391.078125 512.121094 393.535156 511.972656 395.144531 513.402344 C 396.742188 514.832031 396.886719 517.285156 395.457031 518.886719 C 377.46875 539.0625 357.511719 562.144531 355.1875 566.042969 C 354.878906 568.1875 355.398438 576.8125 355.863281 584.449219 C 358.300781 624.78125 357.816406 641.835938 348.484375 643.074219 C 337.996094 644.46875 328.351562 644.050781 328.039062 642.21875 " fill-opacity="1" fill-rule="nonzero"/><path fill="#7e4e24" d="M 572.46875 414.140625 C 570.441406 456.398438 530.785156 488.835938 483.90625 486.582031 C 437.023438 484.335938 400.652344 448.246094 402.683594 405.988281 C 404.71875 363.71875 444.375 331.277344 491.257812 333.527344 C 538.140625 335.78125 574.503906 371.871094 572.46875 414.140625 " fill-opacity="1" fill-rule="nonzero"/><path fill="#9b602f" d="M 437.773438 374.859375 C 403.730469 397.816406 403.671875 421.488281 403.671875 421.488281 C 402.777344 416.457031 402.433594 411.265625 402.683594 405.988281 C 404.71875 363.71875 444.375 331.277344 491.257812 333.527344 C 538.140625 335.78125 482.773438 344.503906 437.773438 374.859375 " fill-opacity="1" fill-rule="nonzero"/><path fill="#683b11" d="M 572.46875 414.140625 C 570.441406 456.398438 530.785156 488.835938 483.90625 486.582031 C 459.164062 485.398438 437.351562 474.789062 422.566406 458.816406 C 422.566406 458.816406 473.789062 492.734375 523.949219 469.945312 C 578.175781 445.3125 573.15625 399.914062 572.46875 414.140625 " fill-opacity="1" fill-rule="nonzero"/><path fill="#1d1d1b" d="M 473.324219 328.738281 C 462.558594 305.554688 463.976562 277.652344 477.429688 248.039062 C 487.527344 225.816406 500.59375 210.679688 501.144531 210.042969 L 504.082031 212.59375 C 503.554688 213.199219 451.949219 273.5 476.851562 327.101562 L 473.324219 328.738281 " fill-opacity="1" fill-rule="nonzero"/><path fill="#1d1d1b" d="M 520.398438 330.1875 C 520.457031 267.632812 589.878906 244.875 590.578125 244.648438 L 591.753906 248.351562 C 591.082031 248.570312 524.34375 270.5 524.292969 330.1875 L 520.398438 330.1875 " fill-opacity="1" fill-rule="nonzero"/><path fill="#1d1d1b" d="M 483.808594 488.523438 C 435.929688 486.230469 398.664062 449.160156 400.746094 405.894531 C 402.824219 362.621094 443.464844 329.289062 491.351562 331.585938 C 539.230469 333.886719 576.492188 370.957031 574.417969 414.230469 C 572.339844 457.496094 531.6875 490.824219 483.808594 488.523438 Z M 491.160156 335.46875 C 445.425781 333.273438 406.605469 364.949219 404.628906 406.082031 C 402.65625 447.203125 438.257812 482.453125 483.996094 484.648438 C 529.734375 486.84375 568.554688 455.167969 570.535156 414.046875 C 572.507812 372.914062 536.902344 337.664062 491.160156 335.46875 " fill-opacity="1" fill-rule="nonzero"/><path fill="#ffffff" d="M 576.390625 369.441406 C 575.109375 396.15625 554.429688 416.867188 530.210938 415.699219 C 505.992188 414.539062 487.394531 391.945312 488.679688 365.234375 C 489.960938 338.523438 510.636719 317.820312 534.855469 318.980469 C 559.078125 320.144531 577.675781 342.738281 576.390625 369.441406 " fill-opacity="1" fill-rule="nonzero"/><path fill="#1d1d1b" d="M 537.191406 367.5625 C 536.871094 374.210938 532.898438 379.421875 528.3125 379.203125 C 523.730469 378.984375 520.269531 373.414062 520.59375 366.765625 C 520.910156 360.117188 524.882812 354.910156 529.46875 355.128906 C 534.054688 355.347656 537.511719 360.917969 537.191406 367.5625 " fill-opacity="1" fill-rule="nonzero"/><path fill="#1d1d1b" d="M 530.117188 417.644531 C 504.863281 416.433594 485.402344 392.878906 486.734375 365.140625 C 488.066406 337.40625 509.695312 315.828125 534.949219 317.039062 C 560.207031 318.25 579.664062 341.800781 578.332031 369.539062 C 576.996094 397.277344 555.371094 418.855469 530.117188 417.644531 Z M 534.761719 320.921875 C 511.65625 319.816406 491.847656 339.734375 490.617188 365.328125 C 489.386719 390.925781 507.195312 412.652344 530.300781 413.761719 C 553.414062 414.871094 573.21875 394.949219 574.449219 369.351562 C 575.675781 343.757812 557.875 322.03125 534.761719 320.921875 " fill-opacity="1" fill-rule="nonzero"/><path fill="#ffffff" d="M 504.421875 365.988281 C 503.054688 394.484375 480.992188 416.578125 455.15625 415.339844 C 429.316406 414.097656 409.472656 389.992188 410.84375 361.496094 C 412.207031 333.007812 434.269531 310.910156 460.113281 312.152344 C 485.953125 313.390625 505.792969 337.5 504.421875 365.988281 " fill-opacity="1" fill-rule="nonzero"/><path fill="#1d1d1b" d="M 462.605469 363.980469 C 462.261719 371.074219 458.023438 376.636719 453.132812 376.402344 C 448.238281 376.167969 444.550781 370.226562 444.890625 363.132812 C 445.234375 356.039062 449.476562 350.480469 454.363281 350.71875 C 459.257812 350.953125 462.945312 356.890625 462.605469 363.980469 " fill-opacity="1" fill-rule="nonzero"/><path fill="#1d1d1b" d="M 455.0625 417.273438 C 428.1875 415.984375 407.484375 390.925781 408.902344 361.40625 C 410.320312 331.886719 433.335938 308.921875 460.207031 310.210938 C 487.074219 311.5 507.78125 336.5625 506.367188 366.082031 C 504.949219 395.601562 481.929688 418.566406 455.0625 417.273438 Z M 460.019531 314.09375 C 435.289062 312.90625 414.101562 334.210938 412.785156 361.589844 C 411.472656 388.96875 430.515625 412.210938 455.25 413.394531 C 479.976562 414.585938 501.164062 393.277344 502.484375 365.898438 C 503.796875 338.519531 484.746094 315.28125 460.019531 314.09375 " fill-opacity="1" fill-rule="nonzero"/><path fill="#1d1d1b" d="M 495.457031 461.269531 C 470.527344 461.269531 452.046875 448.257812 451.785156 448.074219 L 455.628906 442.730469 C 455.628906 442.734375 455.632812 442.734375 455.632812 442.734375 C 457.085938 443.777344 490.449219 467.074219 527.226562 446.152344 L 530.480469 451.871094 C 518.238281 458.835938 506.238281 461.269531 495.457031 461.269531 " fill-opacity="1" fill-rule="nonzero"/><path fill="#1d1d1b" d="M 445.015625 597.871094 C 445.015625 597.871094 447.347656 612.425781 451 615.007812 C 454.652344 617.585938 466.058594 610.375 452.609375 596 C 439.160156 581.628906 445.015625 597.871094 445.015625 597.871094 " fill-opacity="1" fill-rule="nonzero"/><path fill="#1d1d1b" d="M 550.957031 557.734375 C 550.957031 557.734375 549.777344 578.527344 555.070312 578.8125 C 569.457031 579.574219 559.847656 562.496094 558.84375 557.527344 C 557.84375 552.558594 550.957031 557.734375 550.957031 557.734375 " fill-opacity="1" fill-rule="nonzero"/><path fill="#1d1d1b" d="M 508.863281 214.929688 C 505.710938 220.398438 500.351562 223.207031 496.898438 221.21875 C 493.445312 219.222656 493.203125 213.175781 496.359375 207.714844 C 499.511719 202.246094 504.871094 199.433594 508.320312 201.425781 C 511.78125 203.417969 512.019531 209.464844 508.863281 214.929688 " fill-opacity="1" fill-rule="nonzero"/><path fill="#1d1d1b" d="M 593.070312 254.425781 C 587 256.136719 581.195312 254.410156 580.113281 250.570312 C 579.035156 246.738281 583.089844 242.238281 589.164062 240.527344 C 595.238281 238.824219 601.039062 240.546875 602.117188 244.386719 C 603.203125 248.222656 599.148438 252.71875 593.070312 254.425781 " fill-opacity="1" fill-rule="nonzero"/><path fill="#1d1d1b" d="M 460.769531 440.160156 C 460.769531 440.160156 446.441406 439.46875 450.582031 455.050781 C 450.582031 455.050781 452.453125 443.007812 460.769531 440.160156 " fill-opacity="1" fill-rule="nonzero"/><path fill="#1d1d1b" d="M 520.003906 442.996094 C 520.003906 442.996094 534.332031 443.6875 528.710938 458.800781 C 528.710938 458.800781 528.007812 446.632812 520.003906 442.996094 " fill-opacity="1" fill-rule="nonzero"/></svg>