<?xml version="1.0" encoding="UTF-8"?>
<svg version="1.1" xmlns="http://www.w3.org/2000/svg" width="512" height="512">
<path d="M0 0 C3.26198008 0.00315355 6.52304352 -0.02038371 9.78491211 -0.0456543 C49.59576841 -0.16434068 89.50467846 8.31825479 122.09545898 32.31567383 C123.14862305 33.08524414 124.20178711 33.85481445 125.28686523 34.64770508 C133.01349542 40.39408616 140.12680209 46.67933728 147.09545898 53.31567383 C148.15506836 54.29600586 148.15506836 54.29600586 149.23608398 55.29614258 C160.17797026 65.72651791 168.47916519 78.35951905 176.09545898 91.31567383 C176.44705078 91.89833008 176.79864258 92.48098633 177.16088867 93.08129883 C187.33602264 110.06257504 193.86234265 129.83279054 197.09545898 149.31567383 C197.35709839 150.81517578 197.35709839 150.81517578 197.62402344 152.3449707 C199.13613098 161.75483406 199.45492944 170.93848654 199.40795898 180.44067383 C199.40522476 181.59237061 199.40522476 181.59237061 199.4024353 182.76733398 C199.35429995 194.8366073 198.74631138 206.50163876 196.09545898 218.31567383 C195.92916992 219.0865332 195.76288086 219.85739258 195.59155273 220.65161133 C188.85481534 251.091684 174.19376751 280.16343975 152.56811523 302.70239258 C150.78745909 304.58431827 149.13074241 306.45029487 147.49389648 308.44848633 C144.34531019 312.2124315 140.87127113 315.19808567 137.09545898 318.31567383 C135.61239258 319.55510742 135.61239258 319.55510742 134.09936523 320.81958008 C107.32445108 342.78151692 70.44869265 361.20305419 35.09545898 360.31567383 C39.1531053 365.09261587 43.3433209 369.63170836 47.84155273 373.99584961 C60.13505731 385.9268995 76.97065226 402.40658859 79.09545898 420.31567383 C79.00742771 426.66660801 77.5426168 431.1950893 73.90795898 436.44067383 C72.99749421 437.812443 72.09013556 439.18627701 71.18530273 440.56176758 C70.69143066 441.30797363 70.19755859 442.05417969 69.6887207 442.82299805 C67.91228306 445.60225461 66.25196318 448.43376037 64.59936523 451.28833008 C63.99825928 452.31619629 63.39715332 453.3440625 62.77783203 454.40307617 C61.5955725 456.4309475 60.42589925 458.4662226 59.27050781 460.50952148 C55.19786961 467.40458717 51.2809725 471.71530355 43.51342773 474.11254883 C4.28014681 477.40839795 -35.21947012 458.45800823 -69.90454102 442.31567383 C-70.9494873 441.83308105 -71.99443359 441.35048828 -73.07104492 440.85327148 C-87.34387824 434.24603581 -101.19254923 427.01455835 -114.90454102 419.31567383 C-115.75693359 418.84049316 -116.60932617 418.3653125 -117.48754883 417.87573242 C-152.97042862 398.06864805 -187.24023126 375.82943433 -218.90454102 350.31567383 C-219.83395508 349.56930664 -220.76336914 348.82293945 -221.72094727 348.05395508 C-224.46618075 345.82819809 -227.18611138 343.57406152 -229.90454102 341.31567383 C-231.3644043 340.13618164 -231.3644043 340.13618164 -232.85375977 338.93286133 C-240.47642565 332.6786074 -247.56545988 325.88761972 -254.56558228 318.95217896 C-255.60552379 317.92202428 -256.64773755 316.89415714 -257.69247437 315.86886597 C-270.22955566 303.53605174 -286.38050337 287.49934697 -287.20141602 268.98364258 C-287.12857415 264.36953628 -285.70597845 261.06139441 -283.27954102 257.19067383 C-282.88927734 256.53542725 -282.49901367 255.88018066 -282.09692383 255.20507812 C-281.21643508 253.73417761 -280.32653291 252.26888472 -279.42895508 250.80834961 C-277.71313674 248.00269534 -276.039045 245.17406684 -274.36547852 242.34301758 C-273.12992625 240.27055165 -271.89295205 238.19893276 -270.65454102 236.12817383 C-270.06463379 235.1360791 -269.47472656 234.14398438 -268.86694336 233.12182617 C-264.5682932 226.03433714 -261.01435333 220.21341253 -252.72485352 217.81958008 C-230.43455515 213.83696444 -206.67639967 222.21508949 -185.90454102 229.31567383 C-186.17008789 228.33469727 -186.43563477 227.3537207 -186.70922852 226.34301758 C-187.06646993 224.97985956 -187.42321296 223.61657088 -187.77954102 222.25317383 C-188.04057617 221.29701172 -188.04057617 221.29701172 -188.30688477 220.3215332 C-191.59617932 207.59074504 -192.28600813 194.76178691 -192.21704102 181.69067383 C-192.21380829 180.57965805 -192.21380829 180.57965805 -192.21051025 179.44619751 C-191.9797021 129.78575624 -171.78084607 86.03627773 -137.52954102 50.62817383 C-100.11837589 14.07580159 -51.14032886 -0.10285206 0 0 Z " fill="#57D0AD" transform="translate(291.904541015625,23.684326171875)"/>
<path d="M0 0 C0.94004883 0.54253418 1.88009766 1.08506836 2.84863281 1.64404297 C37.51195929 21.69278406 71.43924528 44.33309464 101.82739258 70.47314453 C104.15668138 72.47308031 106.4403694 74.2935796 109 76 C109 76.66 109 77.32 109 78 C109.804375 78.37125 109.804375 78.37125 110.625 78.75 C117.98348879 82.62288884 123.35270198 88.00395135 129.1875 93.875 C129.65465424 94.34430939 130.12180847 94.81361877 130.6031189 95.29714966 C158.96791418 123.87241952 158.96791418 123.87241952 161 141 C160.91196873 147.35093418 159.44715781 151.87941548 155.8125 157.125 C154.90203523 158.49676917 153.99467658 159.87060318 153.08984375 161.24609375 C152.59597168 161.9922998 152.10209961 162.73850586 151.59326172 163.50732422 C149.81682407 166.28658078 148.1565042 169.11808654 146.50390625 171.97265625 C145.90280029 173.00052246 145.30169434 174.02838867 144.68237305 175.08740234 C143.50011352 177.11527368 142.33044027 179.15054877 141.17504883 181.19384766 C137.10241063 188.08891334 133.18551351 192.39962972 125.41796875 194.796875 C86.18468783 198.09272412 46.6850709 179.1423344 12 163 C10.95505371 162.51740723 9.91010742 162.03481445 8.83349609 161.53759766 C-5.43933722 154.93036198 -19.28800821 147.69888452 -33 140 C-33.85239258 139.52481934 -34.70478516 139.04963867 -35.58300781 138.56005859 C-71.0658876 118.75297422 -105.33569024 96.5137605 -137 71 C-137.92941406 70.25363281 -138.85882813 69.50726563 -139.81640625 68.73828125 C-142.56163973 66.51252426 -145.28157037 64.25838769 -148 62 C-148.97324219 61.21367187 -149.94648438 60.42734375 -150.94921875 59.6171875 C-158.57188463 53.36293357 -165.66091887 46.57194589 -172.66104126 39.63650513 C-173.70098278 38.60635045 -174.74319653 37.57848331 -175.78793335 36.55319214 C-188.32501464 24.22037792 -204.47596235 8.18367315 -205.296875 -10.33203125 C-205.22403314 -14.94613755 -203.80143743 -18.25427941 -201.375 -22.125 C-200.98473633 -22.78024658 -200.59447266 -23.43549316 -200.19238281 -24.1105957 C-199.31189406 -25.58149622 -198.42199189 -27.04678911 -197.52441406 -28.50732422 C-195.80859572 -31.31297849 -194.13450399 -34.14160699 -192.4609375 -36.97265625 C-191.22538523 -39.04512218 -189.98841103 -41.11674107 -188.75 -43.1875 C-188.16009277 -44.17959473 -187.57018555 -45.17168945 -186.96240234 -46.19384766 C-182.66375219 -53.28133668 -179.10981232 -59.10226129 -170.8203125 -61.49609375 C-116.60590972 -71.18260062 -44.89809958 -26.1994877 0 0 Z " fill="#A7EED7" transform="translate(210,303)"/>
<path d="M0 0 C3.26198008 0.00315355 6.52304352 -0.02038371 9.78491211 -0.0456543 C49.59576841 -0.16434068 89.50467846 8.31825479 122.09545898 32.31567383 C123.14862305 33.08524414 124.20178711 33.85481445 125.28686523 34.64770508 C133.01349542 40.39408616 140.12680209 46.67933728 147.09545898 53.31567383 C148.15506836 54.29600586 148.15506836 54.29600586 149.23608398 55.29614258 C160.17797026 65.72651791 168.47916519 78.35951905 176.09545898 91.31567383 C176.44705078 91.89833008 176.79864258 92.48098633 177.16088867 93.08129883 C187.33602264 110.06257504 193.86234265 129.83279054 197.09545898 149.31567383 C197.35709839 150.81517578 197.35709839 150.81517578 197.62402344 152.3449707 C199.13613098 161.75483406 199.45492944 170.93848654 199.40795898 180.44067383 C199.40522476 181.59237061 199.40522476 181.59237061 199.4024353 182.76733398 C199.35429995 194.8366073 198.74631138 206.50163876 196.09545898 218.31567383 C195.92916992 219.0865332 195.76288086 219.85739258 195.59155273 220.65161133 C188.85481534 251.091684 174.19376751 280.16343975 152.56811523 302.70239258 C150.78745909 304.58431827 149.13074241 306.45029487 147.49389648 308.44848633 C144.34531019 312.2124315 140.87127113 315.19808567 137.09545898 318.31567383 C135.61239258 319.55510742 135.61239258 319.55510742 134.09936523 320.81958008 C108.00369226 342.22437408 77.3251513 355.14937504 44.09545898 360.31567383 C42.92370117 360.51418945 41.75194336 360.71270508 40.54467773 360.91723633 C36.08280242 361.5330838 33.84488487 361.67650851 29.72045898 359.69067383 C28.03638597 358.16698872 26.38969185 356.60032072 24.79467773 354.98364258 C13.99925109 344.31319917 1.52795931 335.22105766 -10.88110352 326.52661133 C-11.87883789 325.79700195 -12.87657227 325.06739258 -13.90454102 324.31567383 C-13.90454102 323.98567383 -13.90454102 323.65567383 -13.90454102 323.31567383 C-12.83719727 323.28989258 -11.76985352 323.26411133 -10.67016602 323.23754883 C20.01472765 322.19809239 51.02206445 312.87078861 75.09545898 293.31567383 C75.60238281 292.91268066 76.10930664 292.5096875 76.6315918 292.09448242 C95.62490563 276.94654556 109.15500046 258.43499922 119.09545898 236.31567383 C119.56467773 235.29989258 120.03389648 234.28411133 120.51733398 233.23754883 C127.53795058 216.68276154 129.57031478 199.74207742 129.59545898 181.94067383 C129.59985992 181.19179901 129.60426086 180.44292419 129.60879517 179.6713562 C129.70148278 141.88432342 114.28180735 106.53838498 87.90795898 79.69067383 C62.86337842 54.96040778 27.96088349 39.82567579 -7.40454102 39.06567383 C-42.65691552 39.81872856 -75.65459522 49.23087519 -102.90454102 72.31567383 C-103.41178711 72.74460937 -103.9190332 73.17354492 -104.44165039 73.61547852 C-132.21386917 97.35738164 -149.97862526 131.81835803 -152.90454102 168.31567383 C-154.37226551 195.56370735 -150.52508708 221.24127188 -138.16235352 245.77270508 C-136.90454102 248.31567383 -136.90454102 248.31567383 -136.90454102 250.31567383 C-143.8168865 248.1391712 -150.35537117 245.46041163 -156.96704102 242.50317383 C-163.26869114 239.68671168 -169.49980713 237.03754213 -176.07543945 234.93261719 C-184.03997507 232.32983388 -184.03997507 232.32983388 -186.43969727 229.51489258 C-187.35310502 227.07760858 -187.62849182 224.90766826 -187.90454102 222.31567383 C-188.30066875 220.33101358 -188.69742809 218.34645971 -189.10449219 216.36401367 C-198.50062516 169.70177029 -188.71889686 120.22649116 -162.46704102 80.57348633 C-134.98926086 40.39751562 -93.41417545 12.40808689 -45.4987793 3.12915039 C-30.42812437 0.3659265 -15.28668444 -0.03074417 0 0 Z " fill="#65E1C0" transform="translate(291.904541015625,23.684326171875)"/>
<path d="M0 0 C0.33 0 0.66 0 1 0 C1.06316406 0.85980469 1.12632813 1.71960938 1.19140625 2.60546875 C3.91693196 28.91396431 28.03415667 50.43103759 47 67 C47.54092285 67.47501953 48.0818457 67.95003906 48.63916016 68.43945312 C62.50131376 80.57833353 76.89765742 91.83417018 91.91308594 102.50976562 C93.76630566 103.83312234 95.60846653 105.16968831 97.4453125 106.515625 C121.66853691 124.19901553 147.50654587 139.80856269 173.77636719 154.22949219 C175.91745758 155.40543793 178.0561567 156.58574858 180.19238281 157.77050781 C250.5355993 198.60791822 250.5355993 198.60791822 328.6796875 208.3984375 C332.88880504 207.16193116 336.93767789 205.65368865 341 204 C338.838574 207.8731143 336.63849441 211.72203758 334.41308594 215.55859375 C333.39579882 217.31617343 332.38409991 219.07699187 331.37597656 220.83984375 C329.60358177 223.92589587 327.80412484 226.9949072 326 230.0625 C325.4313623 231.061604 324.86272461 232.06070801 324.27685547 233.09008789 C320.15921329 240.01361413 316.23214843 244.3852371 308.41796875 246.796875 C269.18468783 250.09272412 229.6850709 231.1423344 195 215 C193.95505371 214.51740723 192.91010742 214.03481445 191.83349609 213.53759766 C177.56066278 206.93036198 163.71199179 199.69888452 150 192 C149.14760742 191.52481934 148.29521484 191.04963867 147.41699219 190.56005859 C111.9341124 170.75297422 77.66430976 148.5137605 46 123 C45.07058594 122.25363281 44.14117187 121.50726563 43.18359375 120.73828125 C40.43836027 118.51252426 37.71842963 116.25838769 35 114 C34.02675781 113.21367187 33.05351563 112.42734375 32.05078125 111.6171875 C24.42811537 105.36293357 17.33908113 98.57194589 10.33895874 91.63650513 C9.29901722 90.60635045 8.25680347 89.57848331 7.21206665 88.55319214 C-5.32580049 76.21960487 -21.46495924 60.18973038 -22.30078125 41.67578125 C-22.22814199 37.01587738 -20.75680551 33.660056 -18.3125 29.75 C-17.92255859 29.09322266 -17.53261719 28.43644531 -17.13085938 27.75976562 C-15.77501341 25.49305858 -14.38794195 23.24718729 -13 21 C-11.846994 19.09935993 -10.69468259 17.19829835 -9.54296875 15.296875 C-7.24843179 11.53455331 -4.95045822 7.77455163 -2.625 4.03125 C-1.90183594 2.86432617 -1.90183594 2.86432617 -1.1640625 1.67382812 C-0.77992187 1.12146484 -0.39578125 0.56910156 0 0 Z " fill="#2CC3A3" transform="translate(27,251)"/>
<path d="M0 0 C18.16016546 6.17302067 35.73452902 13.66227342 53 22 C54.38493652 22.66467285 54.38493652 22.66467285 55.79785156 23.34277344 C92.01830275 40.80871133 126.63599485 62.15530196 159 86 C159.63309082 86.46325684 160.26618164 86.92651367 160.91845703 87.40380859 C174.6729174 97.48642895 187.5825911 108.3150787 200 120 C200.8146875 120.76054687 201.629375 121.52109375 202.46875 122.3046875 C218.00294456 137.2536898 218.00294456 137.2536898 219.30078125 146.03515625 C219.33228301 151.48496133 219.33228301 151.48496133 217.75 153.9375 C211.53918555 157.70835163 202.62121086 156.50440874 195.84375 155.07421875 C194.05738165 154.63217224 192.27616261 154.16891808 190.5 153.6875 C189.5200708 153.42533691 188.5401416 153.16317383 187.53051758 152.89306641 C174.93319244 149.34873761 162.967222 144.24517115 151 139 C149.92878906 138.53319824 148.85757813 138.06639648 147.75390625 137.58544922 C120.76477679 125.73021809 95.02797875 111.54166856 70 96 C69.04657715 95.40977051 68.0931543 94.81954102 67.11083984 94.21142578 C40.50405562 77.68193259 14.59803797 59.61114752 -8.44921875 38.32421875 C-10.58784094 36.37555075 -12.76921602 34.52755603 -15 32.6875 C-23.31615464 25.43444142 -33.66389344 14.86818305 -35.5625 3.6875 C-34.85813193 0.32218588 -33.6626429 -0.88554829 -31 -3 C-22.17521386 -7.41239307 -8.86491015 -2.79612332 0 0 Z " fill="#8CDBC1" transform="translate(109,270)"/>
<path d="M0 0 C5.79991957 3.84837431 9.26587944 8.67622133 10.6875 15.5 C12.98775864 31.02674585 -3.50800436 49.72079692 -11.3125 62.5 C-7.44495317 60.6640338 -4.26309852 58.22963741 -0.9375 55.5625 C-0.32970703 55.08103516 0.27808594 54.59957031 0.90429688 54.10351562 C3.47965668 52.06281428 6.04788699 50.01341206 8.61035156 47.95654297 C9.8644012 46.95001162 11.12007233 45.94549682 12.37744141 44.94311523 C13.55282556 44.00601034 14.72460608 43.06436097 15.89208984 42.11743164 C22.3636066 36.96547199 27.33740037 34.80428844 35.578125 35.01953125 C41.38685743 35.91711176 46.22231285 38.77325453 50.16015625 43.12890625 C54.56071536 49.42217895 54.17082474 56.12245817 53.6875 63.5 C51.92651091 69.09373006 47.9032118 72.59613537 43.6875 76.5 C44.75514731 79.52500071 45.94644376 81.88449224 47.75 84.5625 C51.17233846 89.7512067 51.60199126 95.40339158 50.6875 101.5 C48.11196109 107.73832954 44.79316129 112.38221551 38.6875 115.5 C37.924375 115.9125 37.16125 116.325 36.375 116.75 C29.56971194 118.64915016 23.63695067 117.9569513 17.42578125 114.56640625 C11.22018104 109.88343548 6.5294491 103.52666495 1.6875 97.5 C0.75748262 96.35728099 -0.17344447 95.21530149 -1.10546875 94.07421875 C-2.64779059 92.18370978 -4.18168413 90.28626005 -5.703125 88.37890625 C-6.49976563 87.44884766 -6.49976563 87.44884766 -7.3125 86.5 C-7.6425 86.5 -7.9725 86.5 -8.3125 86.5 C-2.53121151 106.19618942 5.38430936 124.66702228 18.6875 140.5 C19.39374512 141.35996582 19.39374512 141.35996582 20.11425781 142.23730469 C27.18428482 150.88471212 27.18428482 150.88471212 35.375 158.4375 C38.23259685 160.79993915 38.67111341 161.45165957 39.9375 165.1875 C39.6875 168.5 39.6875 168.5 38.1875 171 C35.42148126 172.65961124 33.86006238 172.82389852 30.703125 172.27636719 C26.25787036 170.56416882 23.16557952 166.75396612 19.9375 163.375 C19.14472656 162.56039307 18.35195313 161.74578613 17.53515625 160.90649414 C-0.72286096 141.81264396 -17.24233279 115.75758456 -22.3125 89.5 C-22.6367395 90.8912207 -22.6367395 90.8912207 -22.9675293 92.31054688 C-23.78215482 95.78812037 -24.61618366 99.26080788 -25.45581055 102.73242188 C-25.81486808 104.22857545 -26.16882327 105.72596395 -26.51733398 107.22460938 C-31.16861574 127.18719202 -31.16861574 127.18719202 -40.56640625 133.58984375 C-45.69108881 136.26109887 -51.69415816 136.18478405 -57.3125 135.5 C-63.62496204 133.03452661 -68.48313776 128.26708393 -71.43359375 122.19140625 C-72.43373725 119.1287446 -72.5447193 116.65322444 -72.5 113.4375 C-72.49355469 112.41527344 -72.48710937 111.39304687 -72.48046875 110.33984375 C-72.33611581 107.89927201 -72.01142207 105.83160404 -71.3125 103.5 C-72.4675 103.273125 -73.6225 103.04625 -74.8125 102.8125 C-81.05871667 101.22879613 -85.77590186 98.46999762 -89.75 93.375 C-93.19800585 87.03066924 -92.98656971 80.56989389 -92.3125 73.5 C-90.36906652 67.63337369 -86.4911203 64.4558277 -81.27734375 61.41015625 C-73.6949517 57.89783548 -65.41535858 59.39695537 -57.59375 61.28515625 C-56.80979858 61.46509628 -56.02584717 61.64503632 -55.21813965 61.83042908 C-52.74734833 62.39857722 -50.27981812 62.97946935 -47.8125 63.5625 C-45.31633193 64.14764444 -42.81960627 64.72990996 -40.32116699 65.30528259 C-38.77394611 65.6620101 -37.22806582 66.02461187 -35.68371582 66.39356995 C-33.90289165 66.806168 -32.10851675 67.1595654 -30.3125 67.5 C-29.9825 67.17 -29.6525 66.84 -29.3125 66.5 C-29.80951416 66.18885254 -30.30652832 65.87770508 -30.81860352 65.55712891 C-35.8114704 62.42761487 -40.79179675 59.27896741 -45.76367188 56.11621094 C-47.36844789 55.09862308 -48.97612882 54.08558801 -50.58789062 53.07910156 C-67.35214999 42.60724426 -67.35214999 42.60724426 -69.921875 34.6015625 C-71.03768179 28.59852196 -71.4222313 22.58549358 -68.25 17.1875 C-64.88389659 12.52674143 -60.82485779 8.3374526 -55.3125 6.5 C-46.35388847 5.62047292 -39.94057614 6.67864262 -32.3125 11.5 C-31.93738281 10.96890625 -31.56226563 10.4378125 -31.17578125 9.890625 C-23.44682167 -0.7780648 -12.6850477 -6.95692631 0 0 Z " fill="#41B58F" transform="translate(291.3125,125.5)"/>
<path d="M0 0 C1.26614136 0.00821777 1.26614136 0.00821777 2.55786133 0.01660156 C3.87911011 0.02288574 3.87911011 0.02288574 5.22705078 0.02929688 C41.10283021 0.61829753 77.83403603 10.9028978 106.93286133 32.32910156 C107.98602539 33.09867188 109.03918945 33.86824219 110.12426758 34.66113281 C117.85089777 40.40751389 124.96420444 46.69276501 131.93286133 53.32910156 C132.63926758 53.98265625 133.34567383 54.63621094 134.07348633 55.30957031 C145.01537261 65.73994565 153.31656753 78.37294679 160.93286133 91.32910156 C161.46024902 92.20308594 161.46024902 92.20308594 161.99829102 93.09472656 C172.17342499 110.07600278 178.699745 129.84621827 181.93286133 149.32910156 C182.1072876 150.32876953 182.28171387 151.3284375 182.46142578 152.35839844 C183.97353332 161.7682618 184.29233178 170.95191427 184.24536133 180.45410156 C184.24353851 181.22189941 184.2417157 181.98969727 184.23983765 182.78076172 C184.19170229 194.85003504 183.58371372 206.51506649 180.93286133 218.32910156 C180.76657227 219.09996094 180.6002832 219.87082031 180.42895508 220.66503906 C173.69221768 251.10511174 159.03116986 280.17686749 137.40551758 302.71582031 C135.62486143 304.597746 133.96814475 306.46372261 132.33129883 308.46191406 C129.18271254 312.22585924 125.70867348 315.2115134 121.93286133 318.32910156 C120.44979492 319.56853516 120.44979492 319.56853516 118.93676758 320.83300781 C93.59021414 341.62334173 63.49283084 354.89824921 31.15454102 359.97998047 C29.21477979 360.28480009 27.28024913 360.62253924 25.34692383 360.96582031 C23.90446289 361.17658203 23.90446289 361.17658203 22.43286133 361.39160156 C21.65942383 361.50632812 20.88598633 361.62105469 20.08911133 361.73925781 C16.70800351 361.0961123 15.15254355 358.82624406 12.93286133 356.32910156 C13.53533691 356.15894531 14.1378125 355.98878906 14.75854492 355.81347656 C39.75580323 348.67818021 63.63700098 338.94235697 83.93286133 322.32910156 C84.46218262 321.89984375 84.99150391 321.47058594 85.53686523 321.02832031 C119.61939566 293.29067608 142.03608038 255.62132085 149.93286133 212.32910156 C150.1777832 211.0490625 150.42270508 209.76902344 150.67504883 208.45019531 C158.02819853 161.76273111 145.8658924 113.39393837 118.43237305 75.17626953 C114.39889324 69.73481501 109.99595019 64.72815246 105.30786133 59.84472656 C102.93286133 57.32910156 102.93286133 57.32910156 100.83129883 54.69628906 C97.92674448 51.07456081 94.49983777 48.28300393 90.93286133 45.32910156 C89.94286133 44.50152344 88.95286133 43.67394531 87.93286133 42.82128906 C60.11733317 20.01098797 27.38425138 7.29623353 -8.06713867 2.32910156 C-5.45371064 -0.28432647 -3.5641391 0.04312508 0 0 Z " fill="#17A889" transform="translate(307.067138671875,23.6708984375)"/>
<path d="M0 0 C2.375 1.125 2.375 1.125 4 3 C5.19308162 6.65878362 5.32667744 8.29997692 3.6875 11.8125 C2 14 2 14 0 15 C-4.35477171 15.49299302 -6.34134023 15.45282859 -10 12.9375 C-12 10 -12 10 -12.0625 6.375 C-11 3 -11 3 -9.375 1.0625 C-6.05609564 -0.422273 -3.59655194 -0.38534485 0 0 Z " fill="#F8CBCE" transform="translate(65,161)"/>
<path d="M0 0 C3.375 1.0625 3.375 1.0625 5.3125 2.6875 C6.797273 6.00640436 6.76034485 8.46594806 6.375 12.0625 C5.25 14.4375 5.25 14.4375 3.375 16.0625 C-0.28378362 17.25558162 -1.92497692 17.38917744 -5.4375 15.75 C-7.625 14.0625 -7.625 14.0625 -8.625 12.0625 C-9.11799302 7.70772829 -9.07782859 5.72115977 -6.5625 2.0625 C-3.625 0.0625 -3.625 0.0625 0 0 Z " fill="#F8CCCE" transform="translate(43.625,140.9375)"/>
<path d="M0 0 C2.5625 2.0625 2.5625 2.0625 4 5 C4 8.77910616 3.83289714 11.00693033 1.375 13.9375 C-1.94390436 15.422273 -4.40344806 15.38534485 -8 15 C-10.375 13.875 -10.375 13.875 -12 12 C-13.19308162 8.34121638 -13.32667744 6.70002308 -11.6875 3.1875 C-8.64413913 -0.75759742 -4.70428376 -0.80724396 0 0 Z " fill="#F8CCCF" transform="translate(495,36)"/>
<path d="M0 0 C2.375 1.125 2.375 1.125 4 3 C5.19308162 6.65878362 5.32667744 8.29997692 3.6875 11.8125 C2 14 2 14 0 15 C-3.51055666 15.26004123 -6.13276702 15.38797265 -9.375 13.9375 C-11.85572029 10.97971812 -12.06584389 8.81894541 -12 5 C-8.64275682 0.06904909 -5.83060884 -0.84808856 0 0 Z " fill="#F8CBCE" transform="translate(27,161)"/>
<path d="M0 0 C2.5625 2.0625 2.5625 2.0625 4 5 C4 8.73665963 3.75990994 10.98678675 1.5 14 C-2.43099663 15.57239865 -6.00375431 15.35721552 -10 14 C-12.1875 11.3125 -12.1875 11.3125 -13 8 C-12.375 4.75 -12.375 4.75 -11 2 C-7.3290609 -0.44729273 -4.26523078 -0.82221316 0 0 Z " fill="#F8CBCD" transform="translate(457,36)"/>
<path d="M0 0 C3.375 1.0625 3.375 1.0625 5.3125 2.6875 C6.81199866 6.03932053 6.82877473 8.43230218 6.375 12.0625 C4.57671456 14.50303024 3.18543868 15.69649544 0.4375 16.9375 C-2.39423888 17.10912054 -4.13026953 16.37551604 -6.625 15.0625 C-9.12531654 11.31202518 -9.16103554 9.50393734 -8.625 5.0625 C-5.94590469 1.1656341 -4.7824172 0.08245547 0 0 Z " fill="#F8CBCE" transform="translate(43.625,178.9375)"/>
<path d="M0 0 C3.375 1.0625 3.375 1.0625 5.3125 2.6875 C6.797273 6.00640436 6.76034485 8.46594806 6.375 12.0625 C4.9435885 14.92532301 4.02170442 15.80032253 1.0625 17 C-2.52959547 17.0835371 -4.59517865 15.92170856 -7.625 14.0625 C-9.19435594 10.92378812 -8.97701103 8.52394178 -8.625 5.0625 C-5.94590469 1.1656341 -4.7824172 0.08245547 0 0 Z " fill="#F8CBCD" transform="translate(472.625,15.9375)"/>
<path d="M0 0 C3.32878632 2.46040728 4.79301948 3.89610387 5.5625 8 C4.84909176 11.80484394 3.9236459 13.4511805 1 16 C-2.93311127 16.63210717 -5.02467068 16.60020266 -8.4375 14.5 C-10.63559176 10.98305319 -10.81157964 8.04133533 -10 4 C-7.317936 -0.12625231 -4.78913194 -0.87963648 0 0 Z " fill="#F8CBCE" transform="translate(463,421)"/>
<path d="M0 0 C2.0913753 1.52311742 2.87489216 2.39163248 3.3984375 4.9375 C3.33651877 10.38634812 3.33651877 10.38634812 1.9375 12.9375 C-1.07436301 14.58916681 -3.58209158 14.88214109 -7 15 C-9.94755732 13.65437601 -11.54277272 12.91445456 -13 10 C-13.37663145 6.53499061 -13.38526209 4.63651997 -11.5625 1.625 C-7.89506113 -0.70069294 -4.23991022 -0.86672198 0 0 Z " fill="#F8CBCE" transform="translate(484,403)"/>
<path d="M0 0 C4.99268902 1.47931526 4.99268902 1.47931526 6.375 4 C7.12971698 10.79245283 7.12971698 10.79245283 4.8125 14.5 C1.42611671 16.58392818 -0.71885318 16.55802097 -4.625 16 C-7.0625 14.4375 -7.0625 14.4375 -8.625 12 C-9.34968526 7.57136786 -9.11954049 5.71933162 -6.5625 2 C-3.625 0 -3.625 0 0 0 Z " fill="#F8CBCE" transform="translate(472.625,54)"/>
<path d="M0 0 C2.875 1.5625 2.875 1.5625 5 4 C5.63210717 7.93311127 5.60020266 10.02467068 3.5 13.4375 C-0.02126244 15.63828902 -2.95439643 15.80414661 -7 15 C-9.5 13.4375 -9.5 13.4375 -11 11 C-11.5625 7.5 -11.5625 7.5 -11 4 C-7.6828559 0.19504059 -4.97314546 -0.82885758 0 0 Z " fill="#F8CBCE" transform="translate(125,455)"/>
<path d="M0 0 C2.875 1.5625 2.875 1.5625 5 4 C5.63210717 7.93311127 5.60020266 10.02467068 3.5 13.4375 C-0.02126244 15.63828902 -2.95439643 15.80414661 -7 15 C-9.5 13.4375 -9.5 13.4375 -11 11 C-11.5625 7.5 -11.5625 7.5 -11 4 C-7.6828559 0.19504059 -4.97314546 -0.82885758 0 0 Z " fill="#F8CBCE" transform="translate(87,455)"/>
<path d="M0 0 C3.32878632 2.46040728 4.79301948 3.89610387 5.5625 8 C4.84909176 11.80484394 3.9236459 13.4511805 1 16 C-2.93311127 16.63210717 -5.02467068 16.60020266 -8.4375 14.5 C-10.63559176 10.98305319 -10.81157964 8.04133533 -10 4 C-7.317936 -0.12625231 -4.78913194 -0.87963648 0 0 Z " fill="#F8CBCE" transform="translate(463,383)"/>
<path d="M0 0 C2.375 1.4375 2.375 1.4375 4 4 C4.5489422 7.10320389 4.56970997 9.89889833 4 13 C2.4375 15.0625 2.4375 15.0625 0 16 C-5.90339426 16.62140992 -5.90339426 16.62140992 -8.875 14.9375 C-10.6155744 11.93984409 -10.88121951 9.44463409 -11 6 C-8.44942407 0.41302415 -6.05735762 -0.60573576 0 0 Z " fill="#F8CBCF" transform="translate(113,24)"/>
<path d="M0 0 C0.78246094 -0.02578125 1.56492187 -0.0515625 2.37109375 -0.078125 C4.5625 0.25 4.5625 0.25 6.32421875 1.515625 C8.48480529 4.54180931 8.09053726 7.6876078 7.5625 11.25 C6.5 13.1875 6.5 13.1875 4.5625 14.25 C0.75988855 15.23586223 -1.58011699 15.54822018 -5.3125 14.25 C-7.4375 12.25 -7.4375 12.25 -8.375 8.8125 C-8.43434526 5.4298199 -8.39890888 3.9340332 -6.4375 1.25 C-4.11063547 0.08656773 -2.59028587 0.05104012 0 0 Z " fill="#F8CBCE" transform="translate(441.4375,402.75)"/>
<path d="M0 0 C2.375 0.9375 2.375 0.9375 4 3 C4.80596676 7.34235152 4.7638671 10.79544034 2.375 14.5625 C-0.70354728 16.42583125 -2.45477556 16.5170119 -6 16 C-8.3125 14.9375 -8.3125 14.9375 -10 13 C-11.10373378 9.02655839 -11.41543583 6.91000228 -9.6875 3.125 C-6.83347494 -0.46895748 -4.43968414 -0.35517473 0 0 Z " fill="#F8CBCE" transform="translate(113,62)"/>
<path d="M0 0 C2.09224429 1.6124625 2.89400954 2.52039317 3.46875 5.12109375 C3.55234657 11.31768953 3.55234657 11.31768953 0.875 14.625 C-2.67982064 16.32513161 -4.28287456 16.21210612 -8 15 C-10.60319541 13.29445818 -10.95803494 12.14849176 -11.8125 9.125 C-12.01832636 5.6945606 -11.72525262 3.95757592 -10 1 C-6.67729523 -1.6106966 -3.93664839 -1.08886019 0 0 Z " fill="#F8CBCE" transform="translate(107,474)"/>
<path d="M0 0 C2.41486943 2.41486943 2.2961925 3.12707789 2.3125 6.4375 C2.32925781 7.21996094 2.34601563 8.00242187 2.36328125 8.80859375 C1.9143852 11.51645057 1.16200951 12.35565474 -1 14 C-4.07276879 14.84991477 -6.16083683 15.23310088 -9.25 14.375 C-11.67537515 12.4693481 -12.25390782 10.98436874 -13 8 C-12.80754716 4.79245266 -12.58086828 2.76569001 -10.625 0.1875 C-6.67964475 -2.69564422 -4.25349703 -1.7194988 0 0 Z " fill="#F8CBCE" transform="translate(108,437)"/>
<path d="M0 0 C0.86625 -0.01933594 1.7325 -0.03867187 2.625 -0.05859375 C5 0.4375 5 0.4375 6.7890625 2.27734375 C8.43215661 5.20841162 8.4141144 7.12458483 8 10.4375 C6.7890625 12.59765625 6.7890625 12.59765625 5 14.4375 C2.625 14.93359375 2.625 14.93359375 0 14.875 C-0.86625 14.87371094 -1.7325 14.87242188 -2.625 14.87109375 C-5.44603608 14.35606907 -6.36040573 13.76995507 -8 11.4375 C-8.3984375 9.5 -8.3984375 9.5 -8.375 7.4375 C-8.38273437 6.756875 -8.39046875 6.07625 -8.3984375 5.375 C-7.43155681 0.67330566 -4.37404408 0.00650899 0 0 Z " fill="#F8CCCE" transform="translate(129,43.5625)"/>
<path d="M0 0 C0.86625 0.0103125 1.7325 0.020625 2.625 0.03125 C3.924375 0.01578125 3.924375 0.01578125 5.25 0 C7.625 0.53125 7.625 0.53125 9.4140625 2.375 C11.05878844 5.30367329 11.0389231 7.21986523 10.625 10.53125 C9.4140625 12.6875 9.4140625 12.6875 7.625 14.53125 C5.25 15.0625 5.25 15.0625 2.625 15.03125 C1.75875 15.0415625 0.8925 15.051875 0 15.0625 C-2.375 14.53125 -2.375 14.53125 -4.1640625 12.6875 C-5.80878844 9.75882671 -5.7889231 7.84263477 -5.375 4.53125 C-3.83775445 1.79396115 -3.11407692 0.69656984 0 0 Z " fill="#F8CBCE" transform="translate(88.375,43.46875)"/>
</svg>
