<svg xmlns="http://www.w3.org/2000/svg" xmlns:xlink="http://www.w3.org/1999/xlink" width="1080" zoomAndPan="magnify" viewBox="0 0 810 809.999993" height="1080" preserveAspectRatio="xMidYMid meet" version="1.0"><defs><g/><clipPath id="a2bb2c248b"><path d="M 113.929688 160 L 454 160 L 454 690 L 113.929688 690 Z M 113.929688 160 " clip-rule="nonzero"/></clipPath><clipPath id="50bc4ed3e3"><path d="M 113.929688 160 L 282 160 L 282 690 L 113.929688 690 Z M 113.929688 160 " clip-rule="nonzero"/></clipPath><clipPath id="36b5ff1f4d"><path d="M 213 47.3125 L 350 47.3125 L 350 62 L 213 62 Z M 213 47.3125 " clip-rule="nonzero"/></clipPath><clipPath id="60ba31dafc"><path d="M 651 515 L 695.929688 515 L 695.929688 546 L 651 546 Z M 651 515 " clip-rule="nonzero"/></clipPath></defs><g fill="#000000" fill-opacity="1"><g transform="translate(211.907513, 419.249999)"><g><path d="M 7.609375 0 L 7.609375 -2.484375 L 11.671875 -2.484375 L 11.671875 -27.8125 L 3.28125 -27.8125 L 3.28125 -22.96875 L 0.46875 -22.96875 L 0.46875 -30.625 L 30.828125 -30.625 L 30.828125 -22.96875 L 28.0625 -22.96875 L 28.0625 -27.8125 L 19.609375 -27.8125 L 19.609375 -2.484375 L 23.6875 -2.484375 L 23.6875 0 Z M 7.609375 0 "/></g></g><g transform="translate(243.161418, 419.249999)"><g><path d="M 3.859375 -27.96875 C 3.859375 -29.082031 4.238281 -30.015625 5 -30.765625 C 5.769531 -31.523438 6.707031 -31.90625 7.8125 -31.90625 C 8.894531 -31.90625 9.8125 -31.523438 10.5625 -30.765625 C 11.320312 -30.015625 11.703125 -29.082031 11.703125 -27.96875 C 11.703125 -26.894531 11.320312 -25.976562 10.5625 -25.21875 C 9.8125 -24.457031 8.894531 -24.078125 7.8125 -24.078125 C 6.707031 -24.078125 5.769531 -24.453125 5 -25.203125 C 4.238281 -25.953125 3.859375 -26.875 3.859375 -27.96875 Z M 11.796875 -2.484375 L 14.90625 -2.484375 L 14.90625 0 L 1.4375 0 L 1.4375 -2.484375 L 4.53125 -2.484375 L 4.53125 -19.3125 L 1.4375 -19.3125 L 1.4375 -21.796875 L 11.796875 -21.796875 Z M 11.796875 -2.484375 "/></g></g><g transform="translate(259.116495, 419.249999)"><g><path d="M 4.15625 -19.3125 L 1 -19.3125 L 1 -21.796875 L 4.15625 -21.796875 L 4.15625 -28.5625 L 11.421875 -28.5625 L 11.421875 -21.796875 L 17.46875 -21.796875 L 17.46875 -19.3125 L 11.421875 -19.3125 L 11.421875 -5.96875 C 11.421875 -4.070312 11.570312 -2.890625 11.875 -2.421875 C 12.175781 -1.953125 12.722656 -1.71875 13.515625 -1.71875 C 14.390625 -1.71875 15.035156 -2.007812 15.453125 -2.59375 C 15.878906 -3.1875 16.109375 -4.097656 16.140625 -5.328125 L 19.203125 -5.328125 C 19.078125 -3.140625 18.476562 -1.601562 17.40625 -0.71875 C 16.332031 0.15625 14.484375 0.59375 11.859375 0.59375 C 8.859375 0.59375 6.820312 0.125 5.75 -0.8125 C 4.6875 -1.75 4.15625 -3.46875 4.15625 -5.96875 Z M 4.15625 -19.3125 "/></g></g><g transform="translate(278.516884, 419.249999)"><g><path d="M 11.796875 -2.484375 L 14.90625 -2.484375 L 14.90625 0 L 1.4375 0 L 1.4375 -2.484375 L 4.53125 -2.484375 L 4.53125 -29.453125 L 1.4375 -29.453125 L 1.4375 -31.90625 L 11.796875 -31.90625 Z M 11.796875 -2.484375 "/></g></g><g transform="translate(294.471962, 419.249999)"><g><path d="M 16.84375 -12.3125 C 16.84375 -15.175781 16.570312 -17.1875 16.03125 -18.34375 C 15.5 -19.5 14.59375 -20.078125 13.3125 -20.078125 C 12.0625 -20.078125 11.164062 -19.507812 10.625 -18.375 C 10.09375 -17.238281 9.828125 -15.335938 9.828125 -12.671875 L 9.828125 -12.3125 Z M 24.8125 -9.859375 L 9.828125 -9.859375 L 9.828125 -9.703125 C 9.828125 -6.878906 10.25 -4.84375 11.09375 -3.59375 C 11.9375 -2.34375 13.304688 -1.71875 15.203125 -1.71875 C 16.773438 -1.71875 18.046875 -2.132812 19.015625 -2.96875 C 19.984375 -3.800781 20.601562 -5.015625 20.875 -6.609375 L 24.28125 -6.609375 C 23.695312 -4.128906 22.53125 -2.304688 20.78125 -1.140625 C 19.03125 0.015625 16.582031 0.59375 13.4375 0.59375 C 9.65625 0.59375 6.753906 -0.398438 4.734375 -2.390625 C 2.722656 -4.378906 1.71875 -7.21875 1.71875 -10.90625 C 1.71875 -14.519531 2.75 -17.335938 4.8125 -19.359375 C 6.882812 -21.378906 9.757812 -22.390625 13.4375 -22.390625 C 17.039062 -22.390625 19.804688 -21.328125 21.734375 -19.203125 C 23.660156 -17.078125 24.6875 -13.960938 24.8125 -9.859375 Z M 24.8125 -9.859375 "/></g></g></g><path fill="#cc882a" d="M 657.785156 536.757812 L 652.226562 536.757812 L 637.238281 574.160156 L 639.261719 580.394531 L 658.945312 575.164062 L 657.785156 536.757812 " fill-opacity="1" fill-rule="nonzero"/><path fill="#b77925" d="M 652.546875 541.488281 L 640.269531 573.316406 L 641.902344 578.992188 L 658.945312 575.164062 L 657.617188 539.625 L 652.546875 541.488281 " fill-opacity="1" fill-rule="nonzero"/><path fill="#ed9e31" d="M 454.648438 253.914062 L 451.148438 256.019531 C 449.953125 254.71875 449.058594 254.066406 448.660156 254.308594 C 448.265625 254.546875 448.421875 255.640625 449.007812 257.304688 L 438.007812 263.910156 C 436.820312 262.609375 435.925781 261.964844 435.523438 262.199219 C 435.125 262.4375 435.28125 263.539062 435.867188 265.199219 L 424.234375 272.1875 L 437.1875 293.761719 L 448.816406 286.769531 C 450.011719 288.070312 450.90625 288.722656 451.304688 288.488281 C 451.703125 288.246094 451.546875 287.148438 450.960938 285.484375 L 461.957031 278.878906 C 463.148438 280.179688 464.042969 280.832031 464.441406 280.589844 C 464.84375 280.351562 464.683594 279.257812 464.101562 277.589844 L 467.597656 275.488281 L 454.648438 253.914062 " fill-opacity="1" fill-rule="nonzero"/><path fill="#e2962f" d="M 434.109375 266.574219 C 434.109375 266.464844 434.117188 266.359375 434.125 266.25 L 424.234375 272.1875 L 437.1875 293.761719 L 448.332031 287.066406 C 440.085938 283.886719 434.109375 275.835938 434.109375 266.574219 " fill-opacity="1" fill-rule="nonzero"/><path fill="#868484" d="M 274.058594 118.773438 L 274.058594 186.621094 L 288.429688 186.621094 L 288.429688 50.929688 L 274.058594 50.929688 L 274.058594 118.773438 " fill-opacity="1" fill-rule="nonzero"/><g clip-path="url(#a2bb2c248b)"><path fill="#ed9e31" d="M 351.734375 215.117188 L 351.734375 160.765625 L 215.664062 160.765625 L 215.664062 215.117188 C 157.355469 230.195312 113.953125 283.417969 113.953125 346.289062 L 113.953125 557.019531 C 113.953125 620.027344 157.550781 673.347656 216.054688 688.289062 C 234.289062 692.941406 253.136719 683.207031 260.28125 665.785156 C 268.867188 644.84375 298.523438 644.84375 307.113281 665.785156 C 314.257812 683.207031 333.109375 692.941406 351.34375 688.289062 C 409.847656 673.347656 453.4375 620.027344 453.4375 557.019531 L 453.4375 346.289062 C 453.4375 283.417969 410.042969 230.195312 351.734375 215.117188 " fill-opacity="1" fill-rule="nonzero"/></g><g clip-path="url(#50bc4ed3e3)"><path fill="#e2962f" d="M 281.242188 160.765625 L 215.664062 160.765625 L 215.664062 215.117188 C 157.355469 230.195312 113.953125 283.417969 113.953125 346.289062 L 113.953125 557.019531 C 113.953125 620.027344 157.550781 673.347656 216.054688 688.289062 C 234.289062 692.941406 253.136719 683.207031 260.28125 665.785156 C 264.726562 654.945312 271.351562 649.734375 281.242188 650.113281 L 281.242188 160.765625 " fill-opacity="1" fill-rule="nonzero"/></g><path fill="#7b7979" d="M 376.9375 173.8125 L 366.398438 143.035156 C 365.769531 141.191406 366.425781 139.621094 367.875 139.03125 C 366.011719 135.589844 362.382812 133.378906 358.386719 133.378906 L 208.339844 133.378906 C 204.398438 133.378906 200.828125 135.527344 198.9375 138.878906 C 200.691406 139.3125 201.542969 141.011719 200.847656 143.035156 L 190.320312 173.8125 C 189.570312 175.992188 187.304688 177.777344 185.109375 178.027344 C 184.429688 184.214844 189.257812 189.972656 195.839844 189.972656 L 370.878906 189.972656 C 377.5 189.972656 382.328125 184.160156 381.597656 177.945312 C 379.582031 177.480469 377.613281 175.8125 376.9375 173.8125 " fill-opacity="1" fill-rule="nonzero"/><path fill="#868484" d="M 376.9375 173.8125 L 366.398438 143.035156 C 365.769531 141.191406 366.425781 139.621094 367.875 139.03125 C 366.011719 135.589844 362.382812 133.378906 358.386719 133.378906 L 281.242188 133.378906 L 281.242188 189.972656 L 370.878906 189.972656 C 377.5 189.972656 382.328125 184.160156 381.597656 177.945312 C 379.582031 177.480469 377.613281 175.8125 376.9375 173.8125 " fill-opacity="1" fill-rule="nonzero"/><path fill="#4f4c4c" d="M 206.554688 178.082031 L 207.980469 178.082031 C 210.328125 178.082031 212.871094 176.160156 213.632812 173.8125 L 223.625 143.035156 C 224.390625 140.691406 223.09375 138.769531 220.746094 138.769531 L 219.320312 138.769531 C 216.980469 138.769531 214.433594 140.691406 213.675781 143.035156 L 203.675781 173.8125 C 202.914062 176.160156 204.207031 178.082031 206.554688 178.082031 " fill-opacity="1" fill-rule="nonzero"/><path fill="#4f4c4c" d="M 243.34375 178.082031 L 244.777344 178.082031 C 247.117188 178.082031 249.359375 176.160156 249.75 173.8125 L 254.875 143.035156 C 255.265625 140.691406 253.664062 138.769531 251.316406 138.769531 L 249.890625 138.769531 C 247.542969 138.769531 245.308594 140.691406 244.917969 143.035156 L 239.792969 173.8125 C 239.402344 176.160156 241.003906 178.082031 243.34375 178.082031 " fill-opacity="1" fill-rule="nonzero"/><path fill="#4f4c4c" d="M 322.273438 178.082031 L 320.847656 178.082031 C 318.5 178.082031 316.257812 176.160156 315.867188 173.8125 L 310.75 143.035156 C 310.359375 140.691406 311.957031 138.769531 314.300781 138.769531 L 315.726562 138.769531 C 318.074219 138.769531 320.308594 140.691406 320.703125 143.035156 L 325.824219 173.8125 C 326.214844 176.160156 324.613281 178.082031 322.273438 178.082031 " fill-opacity="1" fill-rule="nonzero"/><path fill="#4f4c4c" d="M 280.863281 178.082031 L 282.289062 178.082031 C 284.636719 178.082031 286.550781 176.160156 286.550781 173.8125 L 286.550781 143.035156 C 286.550781 140.691406 284.636719 138.769531 282.289062 138.769531 L 280.863281 138.769531 C 278.515625 138.769531 276.597656 140.691406 276.597656 143.035156 L 276.597656 173.8125 C 276.597656 176.160156 278.515625 178.082031 280.863281 178.082031 " fill-opacity="1" fill-rule="nonzero"/><path fill="#4f4c4c" d="M 360.164062 178.082031 L 358.738281 178.082031 C 356.390625 178.082031 353.847656 176.160156 353.085938 173.8125 L 343.09375 143.035156 C 342.328125 140.691406 343.625 138.769531 345.96875 138.769531 L 347.398438 138.769531 C 349.742188 138.769531 352.285156 140.691406 353.050781 143.035156 L 363.042969 173.8125 C 363.804688 176.160156 362.511719 178.082031 360.164062 178.082031 " fill-opacity="1" fill-rule="nonzero"/><g clip-path="url(#36b5ff1f4d)"><path fill="#7b7979" d="M 281.242188 47.5625 L 213.421875 47.5625 L 213.421875 61.941406 L 349.066406 61.941406 L 349.066406 47.5625 L 281.242188 47.5625 " fill-opacity="1" fill-rule="nonzero"/></g><path fill="#e2962f" d="M 291.902344 122.144531 L 270.585938 122.144531 L 267.4375 130.003906 L 268.5625 133.378906 L 293.921875 133.378906 L 295.042969 130.003906 L 291.902344 122.144531 " fill-opacity="1" fill-rule="nonzero"/><path fill="#7b7979" d="M 492.21875 260.890625 L 483.890625 248.347656 L 475.574219 235.8125 L 451.890625 244 L 448.363281 249.042969 L 458.925781 264.941406 L 469.488281 280.847656 L 475.5 279.550781 L 492.21875 260.890625 " fill-opacity="1" fill-rule="nonzero"/><path fill="#868484" d="M 492.21875 260.890625 C 491.367188 261.453125 486.949219 256.296875 482.351562 249.375 C 477.757812 242.453125 474.71875 236.382812 475.574219 235.8125 C 476.417969 235.25 480.839844 240.40625 485.441406 247.328125 C 490.035156 254.25 493.070312 260.320312 492.21875 260.890625 " fill-opacity="1" fill-rule="nonzero"/><path fill="#4f4c4c" d="M 490.480469 258.265625 C 489.808594 258.714844 486.3125 254.640625 482.671875 249.164062 C 479.035156 243.683594 476.636719 238.882812 477.308594 238.433594 C 477.984375 237.988281 481.476562 242.0625 485.113281 247.542969 C 488.75 253.019531 491.15625 257.820312 490.480469 258.265625 " fill-opacity="1" fill-rule="nonzero"/><path fill="#7b7979" d="M 469.488281 280.847656 C 469.03125 281.152344 463.929688 274.277344 458.09375 265.496094 C 452.265625 256.710938 447.90625 249.34375 448.363281 249.042969 C 448.824219 248.738281 453.921875 255.609375 459.753906 264.394531 C 465.585938 273.175781 469.941406 280.546875 469.488281 280.847656 " fill-opacity="1" fill-rule="nonzero"/><path fill="#e9e9e9" d="M 378.453125 581.953125 L 326.734375 587.089844 C 296.480469 590.097656 266.003906 590.097656 235.75 587.089844 L 184.03125 581.953125 C 173.730469 581.953125 165.378906 573.601562 165.378906 563.292969 L 165.378906 325.667969 C 165.378906 315.363281 173.730469 307.007812 184.03125 307.007812 L 252.996094 300.5 C 272.003906 298.707031 291.144531 298.710938 310.152344 300.515625 L 378.453125 307.007812 C 388.753906 307.007812 397.101562 315.363281 397.101562 325.667969 L 397.101562 563.292969 C 397.101562 573.601562 388.753906 581.953125 378.453125 581.953125 " fill-opacity="1" fill-rule="nonzero"/><path fill="#f4f4f4" d="M 281.242188 589.347656 C 266.058594 589.347656 250.875 588.597656 235.75 587.089844 L 184.03125 581.953125 C 173.730469 581.953125 165.378906 573.601562 165.378906 563.292969 L 165.378906 325.667969 C 165.378906 315.363281 173.730469 307.007812 184.03125 307.007812 L 252.996094 300.5 C 262.390625 299.609375 271.816406 299.164062 281.242188 299.160156 L 281.242188 589.347656 " fill-opacity="1" fill-rule="nonzero"/><path fill="#70c72d" d="M 397.101562 347.21875 L 165.378906 347.21875 L 165.378906 333.742188 L 397.101562 333.742188 L 397.101562 347.21875 " fill-opacity="1" fill-rule="nonzero"/><path fill="#70c72d" d="M 297.710938 421.375 C 291.820312 421.375 287.046875 416.59375 287.046875 410.703125 C 287.046875 404.808594 291.820312 400.03125 297.710938 400.03125 C 303.601562 400.03125 308.375 404.808594 308.375 410.703125 C 308.375 416.59375 303.601562 421.375 297.710938 421.375 Z M 259.992188 421.375 C 254.097656 421.375 249.324219 416.59375 249.324219 410.703125 C 249.324219 404.808594 254.097656 400.03125 259.992188 400.03125 C 265.878906 400.03125 270.652344 404.808594 270.652344 410.703125 C 270.652344 416.59375 265.878906 421.375 259.992188 421.375 Z M 279 364.09375 C 255.558594 364.09375 236.5625 383.097656 236.5625 406.546875 C 236.5625 417.976562 241.085938 428.347656 248.429688 435.976562 C 253.007812 448.429688 264.964844 457.308594 279 457.308594 C 293.027344 457.308594 304.984375 448.429688 309.5625 435.976562 C 316.910156 428.347656 321.4375 417.976562 321.4375 406.546875 C 321.4375 383.097656 302.433594 364.09375 279 364.09375 " fill-opacity="1" fill-rule="nonzero"/><path fill="#70c72d" d="M 351.375 459.109375 L 213.4375 496.085938 L 211.113281 487.410156 L 349.050781 450.429688 L 351.375 459.109375 " fill-opacity="1" fill-rule="nonzero"/><path fill="#70c72d" d="M 211.113281 459.109375 L 349.050781 496.085938 L 351.375 487.410156 L 213.4375 450.429688 L 211.113281 459.109375 " fill-opacity="1" fill-rule="nonzero"/><path fill="#f8a534" d="M 372.960938 552.300781 L 189.523438 552.300781 L 189.523438 540.171875 L 372.960938 540.171875 L 372.960938 552.300781 " fill-opacity="1" fill-rule="nonzero"/><path fill="#f8a534" d="M 319.148438 570.273438 L 243.335938 570.273438 L 243.335938 558.144531 L 319.148438 558.144531 L 319.148438 570.273438 " fill-opacity="1" fill-rule="nonzero"/><path fill="#3e6f16" d="M 666.9375 573.484375 C 667.058594 614.433594 586.492188 683.855469 557.074219 709.140625 C 542.617188 721.570312 526.957031 735.597656 509.003906 742.636719 C 489.816406 750.160156 468.253906 747.070312 448.601562 743.363281 C 440.960938 741.917969 432.480469 740.984375 425.714844 736.886719 C 418.394531 732.460938 422.640625 716.90625 423.726562 710.238281 C 426.789062 691.351562 433.414062 673.183594 441.78125 656.046875 C 458.851562 621.0625 483.625 590.671875 507.972656 560.597656 C 532.199219 530.671875 556.441406 500.347656 573.453125 465.585938 C 589.382812 433.027344 597.066406 397.054688 596.34375 360.84375 C 595.632812 325.199219 586.007812 289.78125 568.273438 258.851562 C 559.96875 244.375 549.386719 229.339844 532.738281 224.140625 C 517.261719 219.308594 490.753906 229.953125 477.308594 238.433594 C 476.078125 239.804688 487.023438 257.550781 490.480469 258.265625 C 490.574219 258.210938 490.972656 257.492188 491.476562 256.460938 C 493.734375 251.839844 497.265625 247.964844 501.652344 245.285156 C 508.261719 241.246094 515.308594 237.34375 522.726562 236.546875 C 540.675781 234.601562 552.742188 258.339844 559.785156 271.292969 C 577.109375 303.15625 584.125 339.929688 582.730469 375.96875 C 581.269531 413.585938 568.820312 448.988281 549.679688 481.132812 C 510.191406 547.457031 448.535156 598.429688 420.339844 671.75 C 413.636719 689.195312 409.542969 707.699219 408.484375 726.363281 C 407.421875 744.996094 422.167969 751.75 437.890625 754.949219 C 457.042969 758.851562 476.925781 762.5 496.476562 759.59375 C 515.820312 756.722656 531.222656 746.769531 546.40625 735.019531 C 586.203125 704.234375 680.566406 627.71875 680.40625 573.484375 C 680.382812 564.800781 666.910156 564.792969 666.9375 573.484375 " fill-opacity="1" fill-rule="nonzero"/><path fill="#868484" d="M 680.855469 179.476562 L 644.148438 113.96875 L 631.613281 120.996094 L 666.488281 183.230469 L 666.488281 491.789062 L 680.855469 491.789062 L 680.855469 179.476562 L 680.851562 179.476562 L 680.855469 179.476562 " fill-opacity="1" fill-rule="nonzero"/><path fill="#868484" d="M 690.511719 530.359375 L 656.832031 530.359375 L 659.527344 473.257812 L 687.816406 473.257812 L 690.511719 530.359375 " fill-opacity="1" fill-rule="nonzero"/><path fill="#918f8f" d="M 673.671875 530.359375 L 656.832031 530.359375 L 659.527344 473.257812 L 673.671875 473.257812 L 673.671875 530.359375 " fill-opacity="1" fill-rule="nonzero"/><path fill="#e2962f" d="M 656.832031 530.359375 L 690.511719 530.359375 L 687.816406 587.464844 L 659.527344 587.464844 L 656.832031 530.359375 " fill-opacity="1" fill-rule="nonzero"/><path fill="#ed9e31" d="M 673.671875 530.359375 L 690.511719 530.359375 L 687.816406 587.464844 L 673.671875 587.464844 L 673.671875 530.359375 " fill-opacity="1" fill-rule="nonzero"/><g clip-path="url(#60ba31dafc)"><path fill="#3e6f16" d="M 687.902344 545.351562 L 659.441406 545.351562 C 654.980469 545.351562 651.332031 541.703125 651.332031 537.238281 L 651.332031 523.480469 C 651.332031 519.015625 654.980469 515.363281 659.441406 515.363281 L 687.902344 515.363281 C 692.363281 515.363281 696.011719 519.015625 696.011719 523.480469 L 696.011719 537.238281 C 696.011719 541.703125 692.363281 545.351562 687.902344 545.351562 " fill-opacity="1" fill-rule="nonzero"/></g></svg>