<svg xmlns="http://www.w3.org/2000/svg" xmlns:xlink="http://www.w3.org/1999/xlink" width="1080" zoomAndPan="magnify" viewBox="0 0 810 809.999993" height="1080" preserveAspectRatio="xMidYMid meet" version="1.0"><path fill="#ffc107" d="M 404.761719 668.121094 C 259.5625 668.121094 141.40625 549.964844 141.40625 404.761719 C 141.40625 259.5625 259.5625 141.40625 404.761719 141.40625 C 549.964844 141.40625 668.121094 259.5625 668.121094 404.761719 C 668.121094 549.964844 549.964844 668.121094 404.761719 668.121094 Z M 404.761719 668.121094 " fill-opacity="1" fill-rule="evenodd"/><path fill="#ff9d05" d="M 404.761719 101.546875 C 398.121094 101.546875 392.425781 96.328125 392.425781 89.210938 L 392.425781 12.335938 C 392.425781 5.695312 398.121094 0 404.761719 0 C 411.878906 0 417.101562 5.695312 417.101562 12.335938 L 417.101562 89.210938 C 417.101562 96.328125 411.878906 101.546875 404.761719 101.546875 Z M 404.761719 101.546875 " fill-opacity="1" fill-rule="evenodd"/><path fill="#ff9d05" d="M 562.777344 143.777344 C 560.402344 143.777344 558.507812 143.304688 556.609375 142.355469 C 550.4375 139.035156 548.542969 131.441406 551.863281 125.746094 L 590.773438 58.839844 C 594.09375 52.671875 601.6875 50.773438 607.382812 54.09375 C 613.074219 57.417969 615.449219 65.007812 611.652344 71.175781 L 573.214844 137.609375 C 570.84375 141.878906 567.046875 143.777344 562.777344 143.777344 Z M 562.777344 143.777344 " fill-opacity="1" fill-rule="evenodd"/><path fill="#ff9d05" d="M 678.085938 259.5625 C 673.8125 259.5625 669.542969 257.1875 667.644531 253.390625 C 664.324219 247.222656 666.222656 240.105469 671.914062 236.308594 L 738.824219 197.875 C 744.515625 194.550781 752.109375 196.449219 755.429688 202.617188 C 758.753906 208.3125 756.855469 215.90625 751.160156 219.226562 L 684.253906 257.664062 C 682.355469 259.085938 680.457031 259.5625 678.085938 259.5625 Z M 678.085938 259.5625 " fill-opacity="1" fill-rule="evenodd"/><path fill="#ff9d05" d="M 797.664062 417.101562 L 720.316406 417.101562 C 713.671875 417.101562 707.980469 411.878906 707.980469 404.761719 C 707.980469 398.121094 713.671875 392.425781 720.316406 392.425781 L 797.664062 392.425781 C 804.304688 392.425781 810 398.121094 810 404.761719 C 810 411.878906 804.304688 417.101562 797.664062 417.101562 Z M 797.664062 417.101562 " fill-opacity="1" fill-rule="evenodd"/><path fill="#ff9d05" d="M 744.992188 613.550781 C 742.617188 613.550781 740.71875 613.074219 738.824219 611.652344 L 671.914062 573.214844 C 666.222656 569.894531 664.324219 562.300781 667.644531 556.609375 C 670.964844 550.4375 678.558594 548.542969 684.253906 551.863281 L 751.160156 590.773438 C 756.855469 594.09375 758.753906 601.6875 755.429688 607.382812 C 753.53125 611.175781 749.261719 613.550781 744.992188 613.550781 Z M 744.992188 613.550781 " fill-opacity="1" fill-rule="evenodd"/><path fill="#ff9d05" d="M 601.210938 757.328125 C 596.941406 757.328125 592.671875 754.957031 590.773438 751.160156 L 551.863281 684.253906 C 548.542969 678.558594 550.4375 670.964844 556.609375 667.644531 C 562.300781 664.324219 569.894531 666.222656 573.214844 671.914062 L 611.652344 738.824219 C 615.449219 744.515625 613.074219 752.109375 607.382812 755.429688 C 605.484375 756.855469 603.109375 757.328125 601.210938 757.328125 Z M 601.210938 757.328125 " fill-opacity="1" fill-rule="evenodd"/><path fill="#ff9d05" d="M 404.761719 810 C 398.121094 810 392.425781 804.304688 392.425781 797.664062 L 392.425781 720.316406 C 392.425781 713.671875 398.121094 707.980469 404.761719 707.980469 C 411.878906 707.980469 417.101562 713.671875 417.101562 720.316406 L 417.101562 797.664062 C 417.101562 804.304688 411.878906 810 404.761719 810 Z M 404.761719 810 " fill-opacity="1" fill-rule="evenodd"/><path fill="#ff9d05" d="M 208.789062 757.328125 C 206.414062 757.328125 204.515625 756.855469 202.617188 755.429688 C 196.449219 752.109375 194.550781 744.515625 197.875 738.824219 L 236.308594 671.914062 C 240.105469 666.222656 247.222656 663.847656 253.390625 667.644531 C 259.085938 670.964844 260.984375 678.558594 257.664062 684.253906 L 219.226562 751.160156 C 216.855469 754.957031 213.058594 757.328125 208.789062 757.328125 Z M 208.789062 757.328125 " fill-opacity="1" fill-rule="evenodd"/><path fill="#ff9d05" d="M 65.007812 613.550781 C 60.738281 613.550781 56.46875 611.175781 54.09375 607.382812 C 50.773438 601.6875 52.671875 594.09375 58.839844 590.773438 L 125.746094 551.863281 C 131.441406 548.542969 139.035156 550.4375 142.355469 556.609375 C 145.675781 562.300781 143.777344 569.894531 138.085938 573.214844 L 71.175781 611.652344 C 69.28125 613.074219 66.90625 613.550781 65.007812 613.550781 Z M 65.007812 613.550781 " fill-opacity="1" fill-rule="evenodd"/><path fill="#ff9d05" d="M 89.210938 417.101562 L 12.335938 417.101562 C 5.695312 417.101562 0 411.878906 0 404.761719 C 0 398.121094 5.695312 392.425781 12.335938 392.425781 L 89.210938 392.425781 C 96.328125 392.425781 101.546875 398.121094 101.546875 404.761719 C 101.546875 411.878906 96.328125 417.101562 89.210938 417.101562 Z M 89.210938 417.101562 " fill-opacity="1" fill-rule="evenodd"/><path fill="#ff9d05" d="M 131.914062 259.5625 C 129.542969 259.5625 127.644531 259.085938 125.746094 257.664062 L 58.839844 219.226562 C 52.671875 215.90625 50.773438 208.3125 54.09375 202.617188 C 57.417969 196.449219 65.007812 194.550781 71.175781 197.875 L 138.085938 236.308594 C 143.777344 240.105469 145.675781 247.222656 142.355469 253.390625 C 139.980469 257.1875 135.710938 259.5625 131.914062 259.5625 Z M 131.914062 259.5625 " fill-opacity="1" fill-rule="evenodd"/><path fill="#ff9d05" d="M 247.222656 143.777344 C 242.953125 143.777344 238.683594 141.878906 236.308594 138.085938 L 197.875 71.175781 C 194.550781 65.007812 196.449219 57.417969 202.617188 54.09375 C 208.3125 50.773438 215.90625 52.671875 219.226562 58.839844 L 257.664062 125.746094 C 260.984375 131.441406 259.085938 139.035156 253.390625 142.355469 C 251.492188 143.304688 249.121094 143.777344 247.222656 143.777344 Z M 247.222656 143.777344 " fill-opacity="1" fill-rule="evenodd"/><path fill="#ffffff" d="M 493.972656 554.234375 C 492.546875 554.234375 491.125 554.234375 489.703125 553.285156 L 404.761719 520.542969 L 320.296875 553.285156 C 316.503906 555.183594 311.757812 554.234375 308.4375 551.863281 C 305.113281 549.492188 303.214844 545.695312 303.691406 541.421875 L 308.910156 450.789062 L 251.019531 380.5625 C 248.648438 377.242188 247.699219 372.96875 249.121094 368.699219 C 250.542969 364.902344 253.390625 361.582031 257.664062 360.632812 L 345.449219 337.855469 L 394.796875 260.984375 C 396.695312 257.664062 400.964844 255.765625 404.761719 255.765625 C 409.035156 255.765625 412.828125 257.664062 415.203125 260.984375 L 464.550781 337.855469 L 552.335938 360.632812 C 556.132812 361.582031 559.457031 364.902344 560.878906 368.699219 C 562.300781 372.96875 561.351562 377.242188 558.507812 380.5625 L 501.089844 450.789062 L 506.308594 541.421875 C 506.308594 545.695312 504.410156 549.492188 501.089844 551.863281 C 499.191406 553.761719 496.34375 554.234375 493.972656 554.234375 Z M 493.972656 554.234375 " fill-opacity="1" fill-rule="evenodd"/></svg>