<svg xmlns="http://www.w3.org/2000/svg" xmlns:xlink="http://www.w3.org/1999/xlink" width="1080" zoomAndPan="magnify" viewBox="0 0 810 809.999993" height="1080" preserveAspectRatio="xMidYMid meet" version="1.0"><path fill="#dbbb9c" d="M 466.1875 808.058594 L 0 808.058594 C 0 808.058594 35.222656 750.109375 116.804688 717.734375 C 148.402344 705.171875 186.929688 696.496094 233.09375 696.496094 C 285.605469 696.496094 328.273438 707.761719 362.070312 723.171875 C 434.589844 756.128906 466.1875 808.058594 466.1875 808.058594 Z M 466.1875 808.058594 " fill-opacity="1" fill-rule="nonzero"/><path fill="#82d3f2" d="M 114.214844 568.488281 C 117.972656 578.523438 113.957031 614.265625 110.136719 623.265625 C 106.316406 632.265625 95.957031 636.410156 86.957031 632.589844 C 78.023438 628.769531 73.8125 618.410156 77.632812 609.476562 C 81.453125 600.476562 105.34375 573.214844 114.214844 568.488281 Z M 114.214844 568.488281 " fill-opacity="1" fill-rule="nonzero"/><path fill="#52a7d7" d="M 181.617188 619.964844 C 186.28125 626.4375 190.554688 652.792969 189.648438 660.042969 C 188.675781 667.230469 182.070312 672.28125 174.886719 671.308594 C 167.699219 670.402344 162.648438 663.796875 163.554688 656.613281 C 164.523438 649.425781 176.179688 625.144531 181.617188 619.964844 Z M 181.617188 619.964844 " fill-opacity="1" fill-rule="nonzero"/><path fill="#2f84b9" d="M 354.691406 636.34375 C 356.890625 643.273438 353.070312 650.65625 346.144531 652.855469 C 339.214844 655.058594 331.835938 651.171875 329.632812 644.308594 C 327.496094 637.382812 327.753906 610.445312 330.539062 603.453125 C 337.53125 607.339844 352.488281 629.480469 354.691406 636.34375 Z M 354.691406 636.34375 " fill-opacity="1" fill-rule="nonzero"/><path fill="#349370" d="M 252.777344 532.230469 C 247.078125 540.519531 242.480469 549.648438 239.179688 559.617188 L 239.113281 559.617188 C 210.5625 512.613281 156.949219 485.871094 92.070312 468.386719 C 171.710938 457.835938 225.257812 479.070312 252.777344 532.230469 Z M 252.777344 532.230469 " fill-opacity="1" fill-rule="nonzero"/><path fill="#349370" d="M 233.09375 593.09375 C 277.058594 546.085938 330.863281 510.605469 395.027344 487.554688 C 372.886719 566.480469 317.71875 600.023438 233.09375 593.09375 Z M 233.09375 593.09375 " fill-opacity="1" fill-rule="nonzero"/><path fill="#8bcb8f" d="M 239.113281 559.617188 L 239.179688 559.617188 C 235.683594 569.914062 233.546875 581.113281 233.09375 593.09375 C 152.480469 586.878906 108.582031 542.070312 92.070312 468.386719 C 156.949219 485.871094 210.5625 512.613281 239.113281 559.617188 Z M 239.113281 559.617188 " fill-opacity="1" fill-rule="nonzero"/><path fill="#8bcb8f" d="M 252.777344 532.230469 C 282.625 488.523438 341.546875 469.554688 395.027344 487.554688 C 330.863281 510.605469 277.058594 546.085938 233.09375 593.09375 C 233.546875 581.113281 235.683594 569.914062 239.179688 559.617188 C 242.480469 549.648438 247.078125 540.519531 252.777344 532.230469 Z M 252.777344 532.230469 " fill-opacity="1" fill-rule="nonzero"/><path fill="#8bcb8f" d="M 627.734375 264.109375 C 582.796875 274.144531 538.835938 237.433594 533.332031 186.476562 C 561.886719 219.109375 593.027344 245.847656 627.734375 264.109375 Z M 627.734375 264.109375 " fill-opacity="1" fill-rule="nonzero"/><path fill="#8bcb8f" d="M 646.511719 145.359375 C 635.890625 183.949219 629.933594 223.574219 627.734375 264.109375 C 628.511719 238.207031 618.863281 218.332031 603.839844 205.058594 C 603.839844 178.835938 622.941406 152.222656 646.511719 145.359375 Z M 646.511719 145.359375 " fill-opacity="1" fill-rule="nonzero"/><path fill="#349370" d="M 646.511719 145.359375 C 671.761719 189.066406 665.480469 228.691406 627.734375 264.109375 C 629.933594 223.574219 635.890625 183.949219 646.511719 145.359375 Z M 646.511719 145.359375 " fill-opacity="1" fill-rule="nonzero"/><path fill="#349370" d="M 603.839844 205.058594 C 618.863281 218.332031 628.511719 238.207031 627.734375 264.109375 C 593.027344 245.847656 561.886719 219.109375 533.332031 186.476562 C 559.035156 182.394531 585.519531 188.871094 603.839844 205.058594 Z M 603.839844 205.058594 " fill-opacity="1" fill-rule="nonzero"/><path fill="#8ecaef" d="M 773.871094 198.324219 L 780.667969 191.847656 C 808.898438 164.785156 809.871094 119.914062 782.804688 91.683594 L 711.777344 17.546875 C 696.429688 1.554688 670.984375 0.972656 654.929688 16.382812 L 626.050781 44.027344 L 618.476562 36.128906 C 612.324219 29.785156 602.222656 29.523438 595.8125 35.675781 L 560.785156 69.214844 L 520.511719 107.804688 C 482.179688 87.992188 442.617188 87.214844 401.179688 116.613281 L 419.761719 181.488281 C 423.128906 193.273438 429.34375 204.023438 437.828125 212.890625 L 518.179688 296.742188 C 480.886719 323.675781 451.359375 330.734375 414.453125 323.222656 L 410.246094 290.460938 L 384.152344 300.496094 L 395.480469 389.785156 L 423.324219 392.957031 L 418.855469 358.058594 C 462.109375 366.152344 503.871094 349.445312 545.828125 325.554688 L 602.546875 384.796875 C 608.699219 391.144531 618.796875 391.402344 625.207031 385.25 L 747.972656 267.539062 L 784.488281 232.574219 C 790.898438 226.488281 791.09375 216.324219 785.007812 209.914062 Z M 627.734375 264.109375 C 582.796875 274.144531 538.835938 237.433594 533.332031 186.476562 C 559.035156 182.394531 585.519531 188.871094 603.839844 205.058594 C 603.839844 182.65625 617.828125 159.929688 636.605469 149.570312 C 639.777344 147.753906 643.078125 146.332031 646.511719 145.359375 C 651.820312 154.554688 655.703125 163.554688 658.230469 172.425781 C 667.75 205.574219 657.519531 236.136719 627.734375 264.109375 Z M 757.554688 181.296875 L 642.367188 61.121094 L 652.792969 51.152344 C 670.792969 33.863281 699.410156 34.445312 716.699219 52.511719 L 761.246094 98.933594 C 783 121.660156 782.222656 157.660156 759.496094 179.417969 Z M 757.554688 181.296875 " fill-opacity="1" fill-rule="nonzero"/><path fill="#2f84b9" d="M 520.511719 107.804688 C 518.039062 105.222656 513.933594 105.136719 511.355469 107.617188 L 461.578125 155.382812 C 459 157.855469 458.910156 161.960938 461.390625 164.539062 C 462.660156 165.867188 464.359375 166.53125 466.0625 166.53125 C 467.675781 166.53125 469.296875 165.9375 470.542969 164.730469 L 520.328125 116.96875 C 522.898438 114.488281 522.984375 110.390625 520.511719 107.804688 Z M 520.511719 107.804688 " fill-opacity="1" fill-rule="nonzero"/><path fill="#65b39f" d="M 226.617188 599.570312 L 226.617188 690.023438 C 226.617188 693.597656 229.519531 696.496094 233.09375 696.496094 C 236.667969 696.496094 239.566406 693.597656 239.566406 690.023438 L 239.566406 599.570312 C 239.566406 595.996094 236.667969 593.09375 233.09375 593.09375 C 229.511719 593.09375 226.617188 595.996094 226.617188 599.570312 Z M 226.617188 599.570312 " fill-opacity="1" fill-rule="nonzero"/><path fill="#c2e6f9" d="M 135.835938 452.136719 C 134.941406 452.136719 134.027344 451.949219 133.160156 451.558594 C 129.90625 450.078125 128.46875 446.246094 129.941406 442.988281 C 134.929688 432.019531 140.289062 421.691406 145.882812 412.308594 C 147.714844 409.234375 151.691406 408.238281 154.761719 410.0625 C 157.835938 411.894531 158.839844 415.863281 157.007812 418.941406 C 151.660156 427.914062 146.519531 437.808594 141.742188 448.347656 C 140.652344 450.726562 138.296875 452.136719 135.835938 452.136719 Z M 135.835938 452.136719 " fill-opacity="1" fill-rule="nonzero"/><path fill="#c2e6f9" d="M 166.074219 400.273438 C 164.726562 400.273438 163.367188 399.851562 162.199219 398.984375 C 159.339844 396.839844 158.757812 392.78125 160.894531 389.921875 C 167.25 381.417969 174.289062 373.261719 181.804688 365.671875 C 184.324219 363.121094 188.417969 363.109375 190.960938 365.625 C 193.507812 368.144531 193.527344 372.242188 191.007812 374.78125 C 183.910156 381.941406 177.269531 389.648438 171.265625 397.675781 C 169.996094 399.378906 168.046875 400.273438 166.074219 400.273438 Z M 166.074219 400.273438 " fill-opacity="1" fill-rule="nonzero"/><path fill="#8ecaef" d="M 202.667969 361.878906 C 200.804688 361.878906 198.953125 361.074219 197.675781 359.527344 C 195.398438 356.769531 195.785156 352.691406 198.542969 350.410156 C 207.886719 342.691406 218.242188 335.570312 229.304688 329.25 C 232.40625 327.484375 236.363281 328.566406 238.136719 331.667969 C 239.90625 334.769531 238.824219 338.722656 235.722656 340.496094 C 225.296875 346.449219 215.558594 353.144531 206.792969 360.386719 C 205.582031 361.390625 204.117188 361.878906 202.667969 361.878906 Z M 202.667969 361.878906 " fill-opacity="1" fill-rule="nonzero"/><path fill="#2f84b9" d="M 258.796875 328.734375 C 256.234375 328.734375 253.8125 327.203125 252.796875 324.6875 C 251.449219 321.371094 253.054688 317.597656 256.371094 316.257812 C 267.5 311.75 279.3125 307.988281 291.476562 305.082031 C 294.960938 304.277344 298.449219 306.394531 299.277344 309.871094 C 300.109375 313.347656 297.964844 316.84375 294.488281 317.675781 C 282.949219 320.433594 271.753906 323.992188 261.226562 328.253906 C 260.429688 328.578125 259.609375 328.734375 258.796875 328.734375 Z M 258.796875 328.734375 " fill-opacity="1" fill-rule="nonzero"/><path fill="#115e98" d="M 323.539062 312.214844 C 320.335938 312.214844 317.550781 309.832031 317.128906 306.570312 C 316.671875 303.023438 319.167969 299.777344 322.71875 299.316406 C 335.410156 297.671875 348.792969 296.742188 362.5 296.546875 C 366.164062 296.558594 369.011719 299.355469 369.066406 302.929688 C 369.117188 306.503906 366.253906 309.445312 362.679688 309.496094 C 349.464844 309.683594 336.582031 310.578125 324.375 312.164062 C 324.097656 312.203125 323.8125 312.214844 323.539062 312.214844 Z M 323.539062 312.214844 " fill-opacity="1" fill-rule="nonzero"/><path fill="#8ecaef" d="M 213.863281 464.890625 C 212.964844 464.890625 212.058594 464.703125 211.183594 464.308594 C 207.925781 462.828125 206.488281 458.988281 207.972656 455.738281 C 214.984375 440.320312 223.472656 426.082031 233.203125 413.421875 C 235.378906 410.585938 239.445312 410.058594 242.28125 412.234375 C 245.117188 414.40625 245.648438 418.472656 243.472656 421.308594 C 234.34375 433.191406 226.359375 446.574219 219.753906 461.097656 C 218.675781 463.488281 216.316406 464.890625 213.863281 464.890625 Z M 213.863281 464.890625 " fill-opacity="1" fill-rule="nonzero"/><path fill="#2f84b9" d="M 259.835938 400.273438 C 258.09375 400.273438 256.359375 399.574219 255.082031 398.195312 C 252.652344 395.574219 252.808594 391.472656 255.4375 389.046875 C 265.3125 379.902344 276.230469 371.707031 287.894531 364.679688 C 290.964844 362.835938 294.941406 363.820312 296.785156 366.882812 C 298.632812 369.945312 297.648438 373.925781 294.585938 375.773438 C 283.675781 382.34375 273.46875 390.003906 264.238281 398.550781 C 262.988281 399.703125 261.40625 400.273438 259.835938 400.273438 Z M 259.835938 400.273438 " fill-opacity="1" fill-rule="nonzero"/><path fill="#115e98" d="M 323.546875 360.785156 C 320.984375 360.785156 318.554688 359.25 317.539062 356.722656 C 316.203125 353.402344 317.808594 349.632812 321.132812 348.300781 C 333.433594 343.351562 346.527344 339.3125 361.140625 335.953125 C 364.636719 335.183594 368.101562 337.332031 368.902344 340.808594 C 369.707031 344.292969 367.53125 347.769531 364.046875 348.570312 C 350.101562 351.777344 337.640625 355.617188 325.96875 360.3125 C 325.164062 360.628906 324.351562 360.785156 323.546875 360.785156 Z M 323.546875 360.785156 " fill-opacity="1" fill-rule="nonzero"/><path fill="#2f84b9" d="M 317.273438 469.296875 C 316.839844 469.296875 316.390625 469.25 315.945312 469.160156 C 312.441406 468.425781 310.195312 465.003906 310.925781 461.5 C 313.730469 448.019531 318.179688 435.613281 324.140625 424.632812 C 325.851562 421.484375 329.769531 420.324219 332.921875 422.027344 C 336.0625 423.738281 337.234375 427.667969 335.523438 430.808594 C 330.164062 440.683594 326.15625 451.890625 323.613281 464.132812 C 322.96875 467.195312 320.277344 469.296875 317.273438 469.296875 Z M 317.273438 469.296875 " fill-opacity="1" fill-rule="nonzero"/><path fill="#115e98" d="M 345.8125 411.605469 C 344.257812 411.605469 342.707031 411.046875 341.460938 409.921875 C 338.8125 407.511719 338.625 403.421875 341.027344 400.773438 C 349.25 391.734375 358.949219 383.722656 369.867188 376.964844 C 372.90625 375.074219 376.898438 376.019531 378.777344 379.0625 C 380.660156 382.097656 379.722656 386.09375 376.679688 387.972656 C 366.792969 394.097656 358.019531 401.335938 350.605469 409.488281 C 349.328125 410.890625 347.574219 411.605469 345.8125 411.605469 Z M 345.8125 411.605469 " fill-opacity="1" fill-rule="nonzero"/></svg>