<svg xmlns="http://www.w3.org/2000/svg" xmlns:xlink="http://www.w3.org/1999/xlink" width="1080" zoomAndPan="magnify" viewBox="0 0 810 809.999993" height="1080" preserveAspectRatio="xMidYMid meet" version="1.0"><path fill="#000000" d="M 480.671875 517.398438 C 484.519531 522.578125 484.289062 539.257812 476.609375 536.335938 C 468.9375 533.398438 475.480469 523.933594 475.480469 516.722656 C 475.480469 509.5 467.800781 498.003906 467.800781 498.003906 C 470.265625 497.871094 472.648438 497.691406 474.980469 497.460938 L 475.035156 498.003906 C 478.640625 503.875 480.671875 517.398438 480.671875 517.398438 Z M 480.671875 517.398438 " fill-opacity="1" fill-rule="nonzero"/><path fill="#000000" d="M 463.738281 514.464844 C 457.070312 509.027344 459.621094 506.28125 454.089844 498.34375 C 453.441406 497.40625 452.679688 496.394531 451.773438 495.296875 C 449.984375 493.132812 447.980469 491.1875 445.921875 489.519531 C 444.132812 488.074219 442.277344 486.84375 440.476562 485.859375 C 434.367188 482.527344 428.636719 482.070312 426.710938 486.0625 C 426.183594 487.167969 425.992188 488.007812 426.089844 488.683594 C 426.550781 491.824219 433.171875 491.351562 440.027344 495.976562 C 441.003906 496.640625 441.925781 497.339844 442.804688 498.085938 C 449.484375 503.671875 453.441406 511.164062 454.039062 513.558594 C 454.714844 516.261719 458.777344 528.21875 463.738281 527.542969 C 468.710938 526.867188 471.1875 520.550781 463.738281 514.464844 Z M 463.738281 514.464844 " fill-opacity="1" fill-rule="nonzero"/><path fill="#000000" d="M 374.554688 490.996094 L 374.554688 491.023438 C 370.9375 497.113281 364.164062 498.910156 361.007812 501.613281 C 357.847656 504.320312 360.097656 514.910156 357.621094 514.234375 C 355.140625 513.558594 350.167969 498.460938 355.589844 496.207031 C 360.640625 494.097656 366.492188 490.429688 367.253906 489.941406 C 369.757812 490.296875 372.183594 490.644531 374.554688 490.996094 Z M 374.554688 490.996094 " fill-opacity="1" fill-rule="nonzero"/><path fill="#b4e7ef" d="M 636.25 307.226562 C 637.429688 310.675781 637.835938 314.582031 637.144531 318.777344 C 635.285156 330.058594 619.816406 355.933594 597.410156 381.941406 C 609.195312 365.222656 608.355469 350.359375 597.070312 353.171875 C 583.023438 356.675781 553.039062 386.308594 535.769531 401.1875 L 535.957031 401.484375 C 531.714844 404.027344 529.671875 406.910156 529.671875 406.910156 L 529.539062 406.992188 C 527.679688 403.917969 525.457031 401.054688 522.859375 398.523438 L 522.898438 398.484375 C 522.898438 398.484375 568.28125 356.554688 590.972656 327.136719 C 612.175781 299.652344 630.113281 294.308594 636.25 307.226562 Z M 636.25 307.226562 " fill-opacity="1" fill-rule="nonzero"/><path fill="#e3fcff" d="M 636.25 307.226562 C 630.113281 294.308594 612.175781 299.652344 590.972656 327.136719 C 568.28125 356.554688 522.898438 398.484375 522.898438 398.484375 L 522.859375 398.523438 C 521.488281 397.171875 520.011719 395.925781 518.429688 394.761719 L 518.601562 394.519531 C 518.601562 394.519531 552.242188 362.953125 574.824219 335.222656 C 597.410156 307.496094 605.753906 293.972656 616.824219 293.078125 C 624.828125 292.429688 633.175781 298.246094 636.25 307.226562 Z M 636.25 307.226562 " fill-opacity="1" fill-rule="nonzero"/><path fill="#70d9f2" d="M 597.070312 353.171875 C 608.355469 350.359375 609.195312 365.222656 597.410156 381.941406 C 589.835938 390.730469 581.464844 399.550781 572.5625 407.816406 L 572.183594 408.140625 C 567.128906 402.363281 560.398438 398.617188 553.828125 397.902344 C 545.847656 397.023438 539.941406 399.105469 535.957031 401.484375 L 535.769531 401.1875 C 553.039062 386.308594 583.023438 356.675781 597.070312 353.171875 Z M 597.070312 353.171875 " fill-opacity="1" fill-rule="nonzero"/><path fill="#ffffff" d="M 553.839844 460.335938 C 545.332031 460.242188 537.421875 456.464844 534.414062 453.125 L 533.964844 452.976562 C 538.871094 438.828125 537.828125 420.71875 529.535156 406.992188 L 529.671875 406.910156 C 529.671875 406.910156 531.714844 404.027344 535.957031 401.484375 C 539.941406 399.105469 545.847656 397.023438 553.828125 397.902344 C 560.398438 398.617188 567.128906 402.363281 572.183594 408.140625 C 579.867188 416.851562 583.699219 430.171875 577.304688 444.566406 C 574.703125 450.40625 571.179688 454.304688 567.253906 456.765625 C 563.039062 459.402344 558.351562 460.390625 553.839844 460.335938 Z M 553.839844 460.335938 " fill-opacity="1" fill-rule="nonzero"/><path fill="#b5b51d" d="M 567.375 456.953125 C 571.328125 488.414062 555.289062 511.085938 531.472656 515.828125 C 555.386719 506.929688 569.027344 470.480469 553.839844 460.335938 C 558.351562 460.390625 563.039062 459.402344 567.253906 456.765625 Z M 567.375 456.953125 " fill-opacity="1" fill-rule="nonzero"/><path fill="#d0d839" d="M 509.851562 481.992188 C 511.015625 482.503906 531.757812 491.320312 541.632812 487.167969 C 551.792969 482.882812 552.917969 473.414062 552.917969 473.414062 C 535.808594 487.640625 511.234375 482.300781 509.851562 481.992188 Z M 553.839844 460.335938 C 569.027344 470.480469 555.386719 506.929688 531.472656 515.828125 C 522.695312 517.589844 512.859375 516.898438 502.578125 513.316406 C 497.714844 511.625 493.472656 509.488281 489.773438 507.066406 L 489.9375 506.824219 C 506.546875 517.589844 513.886719 483.597656 492.320312 479.300781 C 503.621094 479.71875 514.890625 476.527344 523.347656 469.355469 C 528.101562 465.328125 531.679688 459.59375 533.964844 452.976562 L 534.414062 453.125 C 537.421875 456.464844 545.332031 460.242188 553.839844 460.335938 Z M 553.839844 460.335938 " fill-opacity="1" fill-rule="nonzero"/><path fill="#ffffff" d="M 552.917969 473.414062 C 552.917969 473.414062 551.792969 482.882812 541.632812 487.167969 C 531.757812 491.320312 511.015625 482.503906 509.851562 481.992188 C 511.234375 482.300781 535.808594 487.640625 552.917969 473.414062 Z M 552.917969 473.414062 " fill-opacity="1" fill-rule="nonzero"/><path fill="#b4e7ef" d="M 533.289062 331.34375 C 534.914062 336.023438 535.78125 341.890625 535.308594 348.75 C 534.617188 358.800781 529.019531 369.644531 523.65625 377.910156 L 523.574219 377.855469 C 530.347656 365.34375 510.367188 355.539062 486.996094 386.308594 L 487.039062 386.757812 C 475.644531 387.730469 464.902344 393.34375 457.34375 402.390625 L 457.328125 402.378906 C 469.359375 388.40625 485.0625 370.027344 495.804688 356.890625 C 513.863281 334.832031 528.195312 324.472656 533.289062 331.34375 Z M 533.289062 331.34375 " fill-opacity="1" fill-rule="nonzero"/><path fill="#ffffff" d="M 492.320312 479.300781 C 482.824219 478.945312 473.316406 476.039062 465.445312 470.765625 C 461.015625 467.816406 457.113281 464.105469 454.039062 459.683594 C 451.164062 455.585938 449.011719 450.882812 447.820312 445.59375 C 447.589844 444.65625 447.398438 443.710938 447.25 442.753906 C 444.636719 426.25 449.089844 412.265625 457.34375 402.390625 C 464.902344 393.34375 475.644531 387.730469 487.039062 386.757812 C 487.851562 386.6875 488.664062 386.648438 489.476562 386.621094 C 498.945312 386.363281 506.882812 388.257812 513.386719 391.652344 C 515.175781 392.574219 516.855469 393.628906 518.429688 394.761719 C 520.011719 395.925781 521.488281 397.171875 522.859375 398.523438 C 525.457031 401.054688 527.679688 403.917969 529.535156 406.992188 C 537.828125 420.71875 538.871094 438.828125 533.964844 452.976562 C 531.679688 459.59375 528.101562 465.328125 523.347656 469.355469 C 514.890625 476.527344 503.621094 479.71875 492.320312 479.300781 Z M 492.320312 479.300781 " fill-opacity="1" fill-rule="nonzero"/><path fill="#e3fcff" d="M 533.289062 331.34375 C 528.195312 324.472656 513.863281 334.832031 495.804688 356.890625 C 485.0625 370.027344 469.359375 388.40625 457.328125 402.378906 C 449.429688 411.550781 443.101562 418.824219 440.828125 421.449219 C 446.828125 412.578125 454.847656 400.671875 463.289062 387.972656 C 480.671875 361.828125 512.058594 320.128906 519.511719 318.777344 C 524.386719 317.898438 530.214844 322.496094 533.289062 331.34375 Z M 533.289062 331.34375 " fill-opacity="1" fill-rule="nonzero"/><path fill="#70d9f2" d="M 486.996094 386.308594 C 510.367188 355.539062 530.347656 365.34375 523.574219 377.855469 L 523.65625 377.910156 C 518.429688 385.972656 513.414062 391.585938 513.414062 391.585938 L 513.386719 391.652344 C 506.886719 388.257812 498.945312 386.363281 489.476562 386.621094 C 488.664062 386.648438 487.851562 386.6875 487.039062 386.757812 Z M 486.996094 386.308594 " fill-opacity="1" fill-rule="nonzero"/><path fill="#e0ed66" d="M 489.9375 506.824219 L 489.773438 507.066406 C 485.183594 504.0625 481.429688 500.640625 478.355469 497.125 C 474.195312 492.335938 471.296875 487.371094 469.320312 483.074219 C 466.132812 476.144531 465.324219 470.9375 465.324219 470.9375 L 465.445312 470.765625 C 473.316406 476.039062 482.824219 478.945312 492.320312 479.300781 C 513.886719 483.597656 506.546875 517.589844 489.9375 506.824219 Z M 489.9375 506.824219 " fill-opacity="1" fill-rule="nonzero"/><path fill="#b5b51d" d="M 478.355469 497.125 C 477.242188 497.246094 476.121094 497.367188 474.980469 497.460938 C 472.648438 497.691406 470.265625 497.871094 467.800781 498.003906 C 463.453125 498.234375 458.902344 498.355469 454.089844 498.34375 C 453.441406 497.40625 452.679688 496.394531 451.773438 495.296875 C 449.984375 493.132812 447.980469 491.1875 445.921875 489.519531 C 464.820312 490.039062 471.1875 488.710938 469.320312 483.074219 C 471.296875 487.371094 474.195312 492.335938 478.355469 497.125 Z M 478.355469 497.125 " fill-opacity="1" fill-rule="nonzero"/><path fill="#d0d839" d="M 469.320312 483.074219 C 471.1875 488.710938 464.820312 490.039062 445.921875 489.519531 C 444.132812 488.074219 442.277344 486.84375 440.476562 485.859375 L 440.488281 485.832031 C 435.097656 469.261719 440.488281 462.945312 441.789062 461.714844 C 442.699219 461.621094 443.566406 461.523438 444.375 461.417969 C 450.675781 460.621094 454.039062 459.683594 454.039062 459.683594 C 457.113281 464.105469 461.015625 467.816406 465.445312 470.765625 L 465.324219 470.9375 C 465.324219 470.9375 466.132812 476.144531 469.320312 483.074219 Z M 469.320312 483.074219 " fill-opacity="1" fill-rule="nonzero"/><path fill="#b4e7ef" d="M 457.328125 402.378906 L 457.34375 402.390625 C 449.089844 412.265625 444.636719 426.25 447.25 442.753906 C 447.398438 443.710938 447.589844 444.65625 447.820312 445.59375 C 445.9375 440.640625 442.316406 434.136719 437.289062 426.644531 C 438.363281 425.074219 439.527344 423.355469 440.785156 421.503906 C 440.800781 421.476562 440.816406 421.460938 440.828125 421.449219 C 443.101562 418.824219 449.429688 411.550781 457.328125 402.378906 Z M 457.328125 402.378906 " fill-opacity="1" fill-rule="nonzero"/><path fill="#b4e7ef" d="M 267.8125 388.082031 C 262.636719 385.539062 257.695312 383.105469 253.074219 380.792969 C 246.816406 377.667969 241.097656 374.515625 235.921875 371.390625 C 225.613281 365.128906 217.429688 358.894531 211.320312 352.820312 L 211.644531 352.496094 C 194.710938 331.191406 224.855469 303.464844 291.574219 323.417969 C 356.210938 342.742188 429.746094 417.609375 434.285156 422.261719 C 434.285156 422.273438 434.296875 422.289062 434.3125 422.289062 C 435.355469 423.773438 436.355469 425.222656 437.289062 426.644531 C 442.316406 434.136719 445.9375 440.640625 447.820312 445.59375 C 449.011719 450.882812 451.164062 455.585938 454.039062 459.683594 C 454.039062 459.683594 450.675781 460.621094 444.375 461.417969 L 444.324219 461.039062 C 444.324219 461.039062 397.921875 405.921875 344.074219 387.324219 C 293.148438 369.742188 270.699219 386.011719 296.183594 401.851562 C 286.277344 397.074219 276.699219 392.4375 267.8125 388.082031 Z M 267.8125 388.082031 " fill-opacity="1" fill-rule="nonzero"/><path fill="#70d9f2" d="M 441.789062 461.714844 C 437.253906 462.1875 431.507812 462.554688 424.679688 462.488281 L 424.679688 462.390625 C 424.679688 462.390625 423.257812 461.730469 420.628906 460.523438 C 404.941406 453.234375 346.496094 426.046875 296.183594 401.851562 C 270.699219 386.011719 293.148438 369.742188 344.074219 387.324219 C 397.921875 405.921875 444.324219 461.039062 444.324219 461.039062 L 444.375 461.417969 C 443.566406 461.523438 442.699219 461.621094 441.789062 461.714844 Z M 441.789062 461.714844 " fill-opacity="1" fill-rule="nonzero"/><path fill="#b5b51d" d="M 440.027344 495.976562 C 441.003906 496.640625 441.925781 497.339844 442.804688 498.085938 C 435.273438 497.800781 427.199219 497.246094 418.554688 496.449219 L 418.554688 496.4375 L 418.582031 496.207031 C 414.871094 495.339844 412.269531 492.050781 410.738281 487.84375 C 412.136719 487.925781 413.503906 488.019531 414.855469 488.089844 C 418.839844 488.304688 422.59375 488.507812 426.089844 488.683594 C 426.550781 491.824219 433.171875 491.351562 440.027344 495.976562 Z M 440.027344 495.976562 " fill-opacity="1" fill-rule="nonzero"/><path fill="#d0d839" d="M 440.488281 485.832031 L 440.476562 485.859375 C 434.367188 482.527344 428.636719 482.070312 426.710938 486.0625 C 426.183594 487.167969 425.992188 488.007812 426.089844 488.683594 C 422.59375 488.507812 418.839844 488.304688 414.855469 488.089844 C 413.503906 488.019531 412.136719 487.925781 410.738281 487.84375 C 407.066406 477.730469 409.601562 462.296875 417.90625 462.621094 L 417.917969 462.3125 C 420.277344 462.417969 422.539062 462.472656 424.679688 462.488281 C 431.507812 462.554688 437.253906 462.1875 441.789062 461.714844 C 440.488281 462.945312 435.097656 469.261719 440.488281 485.832031 Z M 440.488281 485.832031 " fill-opacity="1" fill-rule="nonzero"/><path fill="#70d9f2" d="M 329.332031 442.820312 C 329.304688 442.804688 329.277344 442.804688 329.265625 442.804688 C 329.25 442.804688 329.238281 442.792969 329.210938 442.777344 C 316.640625 439.234375 304.269531 435.882812 292.335938 432.90625 C 278.054688 429.320312 264.386719 426.277344 251.679688 424.085938 C 251.652344 424.085938 251.625 424.085938 251.597656 424.074219 C 251.585938 424.085938 251.585938 424.085938 251.585938 424.074219 C 251.355469 424.03125 251.136719 423.992188 250.90625 423.953125 C 250.878906 423.964844 250.851562 423.953125 250.824219 423.9375 C 248.453125 423.492188 246.695312 422.75 245.570312 421.855469 C 239.027344 416.621094 254.183594 406.207031 298.011719 417.417969 C 350.019531 430.726562 418.433594 459.78125 420.558594 460.671875 L 420.628906 460.523438 C 423.257812 461.730469 424.679688 462.390625 424.679688 462.390625 L 424.679688 462.488281 C 422.539062 462.472656 420.277344 462.417969 417.917969 462.3125 C 409.941406 461.957031 400.753906 461.027344 390.511719 459.171875 C 382.898438 457.804688 374.703125 455.914062 365.976562 453.371094 C 363.445312 452.625 360.910156 451.894531 358.378906 451.164062 C 348.636719 448.324219 338.925781 445.523438 329.332031 442.820312 Z M 329.332031 442.820312 " fill-opacity="1" fill-rule="nonzero"/><path fill="#b4e7ef" d="M 296.183594 401.851562 C 346.496094 426.046875 404.941406 453.234375 420.628906 460.523438 L 420.558594 460.671875 C 418.433594 459.78125 350.019531 430.726562 298.011719 417.417969 C 254.183594 406.207031 239.027344 416.621094 245.570312 421.855469 C 220.222656 414.660156 208.652344 406.574219 202.707031 396.195312 L 202.839844 396.117188 C 191.542969 369.890625 242.238281 377.558594 267.8125 388.082031 C 276.699219 392.4375 286.277344 397.074219 296.183594 401.851562 Z M 296.183594 401.851562 " fill-opacity="1" fill-rule="nonzero"/><path fill="#b5b51d" d="M 418.582031 496.207031 L 418.554688 496.4375 C 413.707031 495.988281 408.667969 495.460938 403.449219 494.851562 C 399.601562 494.40625 395.039062 493.824219 389.890625 493.117188 L 389.902344 493.054688 C 386.449219 492.230469 383.402344 489.007812 381.570312 484.734375 C 391.976562 486.125 401.8125 487.222656 410.738281 487.84375 C 412.269531 492.050781 414.871094 495.339844 418.582031 496.207031 Z M 418.582031 496.207031 " fill-opacity="1" fill-rule="nonzero"/><path fill="#d0d839" d="M 417.917969 462.3125 L 417.90625 462.621094 C 409.601562 462.296875 407.066406 477.730469 410.738281 487.84375 C 401.8125 487.222656 391.976562 486.125 381.570312 484.734375 C 380.417969 482.046875 379.742188 478.917969 379.742188 475.6875 C 379.742188 467.71875 383.671875 459.132812 390.511719 459.171875 C 400.753906 461.027344 409.941406 461.957031 417.917969 462.3125 Z M 417.917969 462.3125 " fill-opacity="1" fill-rule="nonzero"/><path fill="#e3fcff" d="M 339.332031 331.191406 C 378.183594 355.632812 414.667969 394.453125 434.285156 422.261719 C 429.746094 417.609375 356.210938 342.742188 291.574219 323.417969 C 224.855469 303.464844 194.710938 331.191406 211.644531 352.496094 L 211.320312 352.820312 C 191.285156 332.9375 193.332031 314.828125 214.695312 303.695312 C 245.851562 287.464844 285.589844 297.378906 339.332031 331.191406 Z M 339.332031 331.191406 " fill-opacity="1" fill-rule="nonzero"/><path fill="#d0d839" d="M 390.511719 459.171875 C 383.671875 459.132812 379.742188 467.71875 379.742188 475.6875 C 379.742188 478.917969 380.417969 482.046875 381.570312 484.734375 C 375.339844 483.898438 368.902344 482.9375 362.335938 481.90625 C 363.335938 478.648438 362.617188 476.039062 360.328125 475.472656 C 355.941406 474.375 355.398438 476.226562 352.484375 480.328125 C 351.253906 480.125 350.019531 479.90625 348.773438 479.703125 C 344.953125 464.625 350.167969 450.796875 358.378906 451.164062 C 360.910156 451.894531 363.445312 452.625 365.976562 453.371094 C 374.703125 455.914062 382.898438 457.804688 390.511719 459.171875 Z M 390.511719 459.171875 " fill-opacity="1" fill-rule="nonzero"/><path fill="#b5b51d" d="M 367.253906 489.941406 C 364.324219 489.507812 361.320312 489.078125 358.230469 488.617188 C 360.328125 486.371094 361.683594 484.003906 362.335938 481.90625 C 368.902344 482.9375 375.339844 483.898438 381.570312 484.734375 C 383.402344 489.007812 386.449219 492.230469 389.902344 493.054688 L 389.890625 493.117188 C 385.230469 492.496094 380.082031 491.785156 374.554688 490.996094 C 372.183594 490.644531 369.757812 490.296875 367.253906 489.941406 Z M 367.253906 489.941406 " fill-opacity="1" fill-rule="nonzero"/><path fill="#d0d839" d="M 358.378906 451.164062 C 350.167969 450.796875 344.953125 464.625 348.773438 479.703125 C 337.257812 477.769531 325.523438 475.6875 313.96875 473.605469 C 312.707031 469.058594 311.855469 463.214844 313.144531 457.429688 C 313.6875 455.003906 314.375 452.910156 315.21875 451.125 C 316.070312 451.273438 316.882812 451.421875 317.65625 451.570312 C 336.972656 455.179688 343.652344 448.59375 329.265625 442.804688 C 329.277344 442.804688 329.304688 442.804688 329.332031 442.820312 C 338.925781 445.523438 348.636719 448.324219 358.378906 451.164062 Z M 358.378906 451.164062 " fill-opacity="1" fill-rule="nonzero"/><path fill="#000000" d="M 360.328125 475.472656 C 355.941406 474.375 355.398438 476.226562 352.484375 480.328125 C 351.792969 481.285156 350.96875 482.382812 349.9375 483.585938 C 348.800781 484.894531 347.511719 485.980469 346.105469 486.816406 C 340.792969 490.023438 333.992188 489.804688 329.171875 486.0625 C 328.234375 485.328125 327.382812 484.601562 326.609375 483.898438 C 322.300781 480.027344 320.148438 477.09375 317.65625 481.097656 C 317.492188 481.351562 317.328125 481.625 317.152344 481.90625 C 317.058594 482.070312 316.953125 482.246094 316.84375 482.421875 C 313.6875 487.640625 308.375 497.191406 310.203125 498.679688 C 314.039062 501.84375 323.304688 487.859375 325.335938 490.117188 C 327.367188 492.378906 333.910156 500.9375 348.136719 495.296875 C 352.496094 493.566406 355.84375 491.175781 358.230469 488.617188 C 360.328125 486.371094 361.683594 484.003906 362.335938 481.90625 C 363.335938 478.648438 362.617188 476.039062 360.328125 475.472656 Z M 360.328125 475.472656 " fill-opacity="1" fill-rule="nonzero"/><path fill="#b5b51d" d="M 352.820312 480.367188 C 353.132812 481.652344 349.476562 482.289062 349.9375 483.585938 C 348.800781 484.894531 347.511719 485.980469 346.105469 486.816406 C 339.777344 485.882812 333.234375 484.894531 326.609375 483.898438 C 322.300781 480.027344 320.148438 477.09375 317.65625 481.097656 C 317.492188 481.351562 317.328125 481.625 317.152344 481.90625 C 316.84375 481.3125 315.21875 478.09375 313.96875 473.605469 C 325.523438 475.6875 341.304688 478.433594 352.820312 480.367188 Z M 352.820312 480.367188 " fill-opacity="1" fill-rule="nonzero"/><path fill="#e0ed66" d="M 329.265625 442.804688 C 343.652344 448.59375 336.972656 455.179688 317.65625 451.570312 C 316.882812 451.421875 316.070312 451.273438 315.21875 451.125 C 318.386719 444.28125 323.519531 441.832031 329.265625 442.804688 Z M 329.265625 442.804688 " fill-opacity="1" fill-rule="nonzero"/><path fill="#e0ed66" d="M 329.210938 442.777344 C 329.238281 442.792969 329.25 442.804688 329.265625 442.804688 C 323.519531 441.832031 318.386719 444.28125 315.21875 451.125 C 306.097656 449.527344 292.386719 447.609375 277.40625 445.726562 C 280.019531 436.355469 287.324219 432.472656 292.335938 432.90625 C 304.269531 435.882812 316.640625 439.234375 329.210938 442.777344 Z M 329.210938 442.777344 " fill-opacity="1" fill-rule="nonzero"/><path fill="#b5b51d" d="M 317.152344 481.90625 C 317.058594 482.070312 316.953125 482.246094 316.84375 482.421875 C 307.183594 480.976562 297.429688 479.503906 287.835938 478.078125 L 287.851562 477.945312 C 283.472656 476.851562 280.140625 472.804688 278.21875 467.191406 C 289.625 469.179688 301.695312 471.371094 313.96875 473.605469 C 315.21875 478.09375 316.84375 481.3125 317.152344 481.90625 Z M 317.152344 481.90625 " fill-opacity="1" fill-rule="nonzero"/><path fill="#d0d839" d="M 315.21875 451.125 C 314.375 452.910156 313.6875 455.003906 313.144531 457.429688 C 311.855469 463.214844 312.707031 469.058594 313.96875 473.605469 C 301.695312 471.371094 289.625 469.179688 278.21875 467.191406 C 276.566406 462.402344 275.941406 456.453125 276.566406 450.21875 C 276.726562 448.59375 277.011719 447.105469 277.40625 445.726562 C 292.386719 447.609375 306.097656 449.527344 315.21875 451.125 Z M 315.21875 451.125 " fill-opacity="1" fill-rule="nonzero"/><path fill="#e0ed66" d="M 292.335938 432.90625 C 287.324219 432.472656 280.019531 436.355469 277.40625 445.726562 C 263.734375 443.996094 248.996094 442.292969 235.71875 440.859375 C 237.96875 429.835938 245.273438 424.113281 251.585938 424.074219 C 251.585938 424.085938 251.585938 424.085938 251.597656 424.074219 C 251.625 424.085938 251.652344 424.085938 251.679688 424.085938 C 264.386719 426.277344 278.054688 429.320312 292.335938 432.90625 Z M 292.335938 432.90625 " fill-opacity="1" fill-rule="nonzero"/><path fill="#b5b51d" d="M 287.851562 477.945312 L 287.835938 478.078125 C 273.570312 475.945312 259.714844 473.886719 247.207031 472.117188 C 247.183594 472.117188 247.167969 472.101562 247.140625 472.101562 C 243.0625 470.964844 239.351562 466.597656 237.128906 460.523438 C 242.207031 461.402344 247.503906 462.257812 252.964844 463.066406 C 260.835938 464.246094 269.316406 465.652344 278.21875 467.191406 C 280.140625 472.804688 283.472656 476.851562 287.851562 477.945312 Z M 287.851562 477.945312 " fill-opacity="1" fill-rule="nonzero"/><path fill="#d0d839" d="M 277.40625 445.726562 C 277.011719 447.105469 276.726562 448.59375 276.566406 450.21875 C 275.941406 456.453125 276.566406 462.402344 278.21875 467.191406 C 269.316406 465.652344 260.835938 464.246094 252.964844 463.066406 C 247.503906 462.257812 242.207031 461.402344 237.128906 460.523438 C 235.394531 455.777344 234.582031 449.976562 235.246094 443.902344 C 235.351562 442.847656 235.515625 441.832031 235.71875 440.859375 C 248.996094 442.292969 263.734375 443.996094 277.40625 445.726562 Z M 277.40625 445.726562 " fill-opacity="1" fill-rule="nonzero"/><path fill="#e3fcff" d="M 253.074219 380.792969 C 257.695312 383.105469 262.636719 385.539062 267.8125 388.082031 C 242.238281 377.558594 191.542969 369.890625 202.839844 396.117188 L 202.707031 396.195312 C 201.050781 393.34375 199.847656 390.328125 198.882812 387.09375 C 194.046875 370.851562 202.488281 355.890625 235.921875 371.390625 C 241.097656 374.515625 246.816406 377.667969 253.074219 380.792969 Z M 253.074219 380.792969 " fill-opacity="1" fill-rule="nonzero"/><path fill="#e0ed66" d="M 250.90625 423.953125 C 251.125 424.003906 251.355469 424.046875 251.585938 424.074219 C 245.273438 424.113281 237.96875 429.835938 235.71875 440.859375 C 226.628906 439.882812 218.214844 439.019531 211.308594 438.382812 C 208.109375 438.085938 205.128906 437.746094 202.394531 437.382812 C 204.234375 428.105469 210.007812 420.691406 218.988281 420.691406 L 218.988281 420.449219 C 219.21875 420.449219 219.4375 420.449219 219.667969 420.460938 C 229.121094 420.800781 239.59375 422.03125 250.824219 423.9375 C 250.851562 423.953125 250.878906 423.964844 250.90625 423.953125 Z M 250.90625 423.953125 " fill-opacity="1" fill-rule="nonzero"/><path fill="#b5b51d" d="M 247.140625 472.101562 C 245.472656 471.875 243.847656 471.644531 242.238281 471.414062 C 230.667969 469.789062 220.789062 467.894531 212.417969 465.8125 C 207.878906 463.660156 204.667969 459.050781 203.015625 453.339844 C 212.648438 455.886719 224.21875 458.292969 237.128906 460.523438 C 239.351562 466.597656 243.0625 470.964844 247.140625 472.101562 Z M 247.140625 472.101562 " fill-opacity="1" fill-rule="nonzero"/><path fill="#d0d839" d="M 235.71875 440.859375 C 235.515625 441.832031 235.355469 442.847656 235.246094 443.902344 C 234.582031 449.976562 235.394531 455.777344 237.128906 460.523438 C 224.21875 458.292969 212.648438 455.886719 203.015625 453.339844 C 202 449.828125 201.582031 445.886719 201.824219 441.871094 C 201.917969 440.34375 202.109375 438.84375 202.394531 437.382812 C 205.128906 437.746094 208.109375 438.085938 211.308594 438.382812 C 218.214844 439.019531 226.628906 439.882812 235.71875 440.859375 Z M 235.71875 440.859375 " fill-opacity="1" fill-rule="nonzero"/><path fill="#e0ed66" d="M 218.988281 420.449219 L 218.988281 420.691406 C 210.007812 420.691406 204.234375 428.105469 202.394531 437.382812 C 180.296875 434.40625 173.863281 429.117188 193.4375 422.25 C 193.453125 422.234375 193.464844 422.234375 193.476562 422.234375 C 199.957031 420.8125 208.316406 420.097656 218.988281 420.449219 Z M 218.988281 420.449219 " fill-opacity="1" fill-rule="nonzero"/><path fill="#b5b51d" d="M 203.015625 453.339844 C 204.667969 459.050781 207.878906 463.660156 212.417969 465.8125 C 183.546875 458.628906 172.699219 449.242188 172.699219 441.195312 C 172.699219 439.710938 172.886719 438.179688 173.320312 436.679688 L 173.375 436.691406 C 171.964844 442.496094 183.507812 448.1875 203.015625 453.339844 Z M 203.015625 453.339844 " fill-opacity="1" fill-rule="nonzero"/><path fill="#d0d839" d="M 202.394531 437.382812 C 202.109375 438.84375 201.917969 440.34375 201.824219 441.871094 C 201.582031 445.886719 202 449.828125 203.015625 453.339844 C 183.507812 448.1875 171.964844 442.496094 173.375 436.691406 L 173.320312 436.679688 C 175.027344 430.769531 180.527344 425.085938 193.4375 422.25 C 173.863281 429.117188 180.296875 434.40625 202.394531 437.382812 Z M 202.394531 437.382812 " fill-opacity="1" fill-rule="nonzero"/><path fill="#000000" d="M 515 426.640625 C 515 433.605469 509.785156 439.25 503.347656 439.25 C 496.910156 439.25 491.691406 433.605469 491.691406 426.640625 C 491.691406 419.679688 496.910156 414.035156 503.347656 414.035156 C 509.785156 414.035156 515 419.679688 515 426.640625 Z M 515 426.640625 " fill-opacity="1" fill-rule="nonzero"/><path fill="#ffffff" d="M 502.808594 422.253906 C 502.808594 425.785156 499.761719 428.644531 496 428.644531 C 492.238281 428.644531 489.1875 425.785156 489.1875 422.253906 C 489.1875 418.726562 492.238281 415.867188 496 415.867188 C 499.761719 415.867188 502.808594 418.726562 502.808594 422.253906 Z M 502.808594 422.253906 " fill-opacity="1" fill-rule="nonzero"/><path fill="#000000" d="M 557.890625 429.574219 C 557.890625 433.910156 554.640625 437.429688 550.628906 437.429688 C 546.621094 437.429688 543.367188 433.910156 543.367188 429.574219 C 543.367188 425.234375 546.621094 421.714844 550.628906 421.714844 C 554.640625 421.714844 557.890625 425.234375 557.890625 429.574219 Z M 557.890625 429.574219 " fill-opacity="1" fill-rule="nonzero"/><path fill="#ffffff" d="M 550.292969 426.839844 C 550.292969 429.039062 548.394531 430.820312 546.050781 430.820312 C 543.707031 430.820312 541.808594 429.039062 541.808594 426.839844 C 541.808594 424.640625 543.707031 422.859375 546.050781 422.859375 C 548.394531 422.859375 550.292969 424.640625 550.292969 426.839844 Z M 550.292969 426.839844 " fill-opacity="1" fill-rule="nonzero"/><path fill="#000000" d="M 553.570312 472.226562 C 553.082031 471.964844 552.484375 472.023438 552.058594 472.375 C 535.191406 486.410156 510.359375 480.722656 510.113281 480.667969 C 509.429688 480.507812 508.734375 480.890625 508.515625 481.550781 C 508.292969 482.21875 508.613281 482.9375 509.257812 483.21875 C 510.160156 483.617188 531.585938 492.871094 542.160156 488.414062 C 552.921875 483.875 554.21875 473.992188 554.273438 473.574219 C 554.335938 473.023438 554.058594 472.488281 553.570312 472.226562 Z M 541.109375 485.921875 C 536.121094 488.019531 527.96875 486.519531 521.304688 484.601562 C 529.539062 484.753906 540.707031 483.414062 550.4375 476.921875 C 549.175781 479.78125 546.570312 483.617188 541.109375 485.921875 Z M 638.480469 318.992188 C 639.734375 311.367188 637.574219 303.882812 632.5625 298.449219 C 628.253906 293.78125 622.328125 291.269531 616.710938 291.726562 C 607.136719 292.503906 599.769531 301.78125 585.089844 320.261719 L 573.773438 334.375 C 553.007812 359.875 522.480469 388.984375 518.191406 393.042969 C 517.296875 392.433594 516.375 391.863281 515.429688 391.320312 C 519.640625 386.351562 535.449219 366.609375 536.664062 348.847656 C 537.496094 336.632812 534.292969 326.035156 528.085938 320.5 C 525.289062 318.003906 522.15625 316.917969 519.261719 317.441406 C 510.65625 319.003906 477.820312 363.667969 462.15625 387.230469 L 437.355469 424.132812 C 417.890625 395.578125 379.691406 354.992188 340.054688 330.050781 C 284.78125 295.269531 244.75 286.511719 214.070312 302.492188 C 202.207031 308.671875 195.980469 317.085938 196.0625 326.832031 C 196.167969 339.105469 206.078125 352.410156 224.488281 365.507812 C 211.75 361.722656 204.878906 363.945312 201.203125 367.039062 C 196.273438 371.191406 194.957031 378.640625 197.589844 387.484375 C 201.6875 401.238281 210.039062 411.59375 236.582031 420.5 C 230.664062 419.78125 225.015625 419.300781 219.710938 419.109375 C 198.539062 418.355469 184.074219 421.566406 176.714844 428.65625 C 173.152344 432.089844 171.34375 436.308594 171.34375 441.199219 C 171.34375 451.496094 185.796875 460.53125 211.921875 467.066406 C 212.464844 467.320312 213.027344 467.550781 213.601562 467.738281 C 213.910156 467.839844 214.230469 467.800781 214.511719 467.691406 C 222.660156 469.621094 231.855469 471.316406 242.054688 472.75 C 243.726562 472.980469 245.441406 473.222656 247.171875 473.46875 C 247.417969 473.527344 247.664062 473.613281 247.914062 473.648438 C 248.039062 473.667969 248.164062 473.644531 248.285156 473.628906 C 268.308594 476.480469 291.769531 480.019531 314.539062 483.449219 L 314.640625 483.46875 C 306.441406 497.339844 308.523438 499.058594 309.34375 499.730469 C 312.414062 502.253906 316.6875 498.246094 320.464844 494.707031 C 321.808594 493.449219 323.757812 491.640625 324.589844 491.324219 C 324.605469 491.339844 324.644531 491.382812 324.644531 491.382812 C 327.011719 494.078125 334.214844 502.273438 348.636719 496.5625 C 352.753906 494.929688 356.121094 492.609375 358.664062 490.054688 C 360.261719 490.289062 361.804688 490.515625 363.320312 490.738281 C 361.042969 492.0625 357.914062 493.773438 355.066406 494.957031 C 353.410156 495.648438 351.503906 497.550781 351.835938 502.71875 C 352.136719 507.371094 354.546875 514.804688 357.265625 515.546875 C 357.882812 515.710938 358.496094 515.609375 358.988281 515.25 C 360.167969 514.394531 360.257812 512.511719 360.394531 509.664062 C 360.515625 507.140625 360.679688 503.679688 361.886719 502.644531 C 362.8125 501.855469 364.136719 501.117188 365.664062 500.265625 C 368.777344 498.535156 372.589844 496.378906 375.21875 492.457031 C 387.5625 494.214844 396.683594 495.433594 403.300781 496.195312 C 418.03125 497.902344 430.785156 498.953125 442.285156 499.417969 C 448.347656 504.664062 452.144531 511.605469 452.71875 513.890625 C 452.757812 514.050781 457.027344 529.816406 463.925781 528.882812 C 466.675781 528.503906 468.828125 526.699219 469.546875 524.171875 C 470.523438 520.707031 468.722656 516.785156 464.597656 513.417969 C 461.085938 510.550781 460.378906 508.582031 459.394531 505.863281 C 458.78125 504.15625 458.070312 502.1875 456.570312 499.679688 C 460.234375 499.65625 463.738281 499.566406 467.085938 499.394531 C 468.632812 501.835938 474.128906 510.917969 474.128906 516.71875 C 474.128906 518.871094 473.46875 521.359375 472.828125 523.765625 C 471.402344 529.113281 469.789062 535.179688 476.128906 537.59375 C 478.570312 538.527344 480.753906 537.949219 482.265625 535.953125 C 483.792969 533.945312 484.472656 530.664062 484.472656 527.28125 C 484.472656 523.355469 483.539062 519.347656 481.980469 516.984375 C 481.785156 515.710938 480.042969 504.828125 476.917969 498.628906 C 477.238281 498.59375 477.558594 498.5625 477.878906 498.523438 C 483.511719 504.851562 491.316406 510.824219 502.125 514.59375 C 520.355469 520.945312 538.242188 518.585938 551.210938 508.121094 C 564.914062 497.058594 571.292969 478.582031 568.777344 457.367188 C 572.402344 454.890625 575.90625 451.050781 578.546875 445.109375 C 583.402344 434.179688 582.957031 422.761719 577.300781 412.945312 C 576.351562 411.292969 575.257812 409.726562 574.0625 408.265625 C 607.730469 376.851562 635.792969 335.335938 638.480469 318.992188 Z M 532 415.15625 C 539.316406 434.238281 535.128906 457.59375 522.46875 468.328125 C 510.726562 478.28125 492.59375 480.8125 476.273438 474.777344 C 463.042969 469.882812 453.699219 460.371094 449.925781 448.226562 C 449.964844 448.019531 449.976562 447.804688 449.914062 447.585938 C 449.691406 446.820312 449.414062 446.007812 449.097656 445.164062 C 448.902344 444.300781 448.730469 443.429688 448.589844 442.546875 C 446.222656 427.648438 449.683594 413.722656 458.324219 403.335938 C 466.171875 393.902344 477.539062 388.304688 489.511719 387.980469 C 517.125 387.226562 527.984375 404.683594 532 415.15625 Z M 464.414062 388.726562 C 484.472656 358.554688 513.628906 321.214844 519.75 320.105469 C 521.800781 319.730469 524.121094 320.585938 526.28125 322.515625 C 530.59375 326.363281 534.871094 335.257812 533.957031 348.664062 C 532.773438 365.972656 516.265625 386.15625 512.96875 390.023438 C 506.148438 386.699219 498.222656 385.035156 489.4375 385.273438 C 476.6875 385.621094 464.585938 391.574219 456.242188 401.605469 C 448.273438 411.183594 444.46875 423.558594 445.261719 436.945312 C 443.539062 433.761719 441.421875 430.277344 438.976562 426.570312 Z M 198.773438 326.808594 C 198.699219 318.148438 204.421875 310.570312 215.324219 304.890625 C 245.058594 289.402344 284.234375 298.121094 338.609375 332.335938 C 390.597656 365.050781 437.90625 423.585938 446.519531 446.042969 C 447.59375 450.644531 449.386719 454.925781 451.820312 458.8125 C 450 459.195312 446.859375 459.765625 442.511719 460.242188 C 442.128906 460.105469 441.699219 460.132812 441.335938 460.367188 C 436.980469 460.808594 431.539062 461.132812 425.113281 461.101562 C 420.601562 459.007812 311.660156 408.515625 253.6875 379.578125 C 248.765625 377.121094 244.15625 374.628906 239.839844 372.113281 C 239.714844 371.839844 239.515625 371.601562 239.230469 371.460938 C 238.386719 371.042969 237.566406 370.65625 236.757812 370.277344 C 212.511719 355.558594 198.890625 340.144531 198.773438 326.808594 Z M 200.1875 386.714844 C 197.875 378.949219 198.882812 372.53125 202.949219 369.105469 C 208.660156 364.296875 220.105469 365.558594 235.335938 372.601562 C 240.566406 375.765625 246.277344 378.902344 252.472656 381.996094 C 303.695312 407.566406 394.640625 449.929688 418.332031 460.9375 C 410.679688 460.609375 401.914062 459.757812 392.175781 458.074219 C 392.019531 457.980469 391.84375 457.914062 391.652344 457.890625 C 391.371094 457.859375 391.089844 457.84375 390.8125 457.835938 C 383.214844 456.472656 375.046875 454.605469 366.355469 452.074219 C 364.75 451.609375 363.148438 451.140625 361.542969 450.675781 C 361.394531 450.507812 361.214844 450.363281 360.984375 450.289062 C 360.199219 450.027344 359.417969 449.882812 358.648438 449.832031 C 349.457031 447.160156 340.246094 444.496094 331.101562 441.914062 C 330.957031 441.808594 330.792969 441.730469 330.609375 441.6875 C 330.285156 441.613281 329.960938 441.558594 329.640625 441.503906 C 317.664062 438.128906 305.820312 434.914062 294.3125 432.011719 C 294.167969 431.902344 294 431.816406 293.8125 431.769531 C 293.398438 431.671875 292.972656 431.605469 292.535156 431.566406 C 280.730469 428.617188 269.300781 426.023438 258.480469 423.96875 C 258.320312 423.828125 258.132812 423.707031 257.910156 423.65625 C 215.878906 413.726562 204.917969 402.59375 200.1875 386.714844 Z M 348.410156 483.238281 C 347.589844 484.097656 346.683594 484.84375 345.707031 485.460938 C 345.617188 485.425781 345.53125 485.375 345.429688 485.359375 L 327.296875 482.636719 L 325.976562 481.488281 C 323.546875 479.222656 321.789062 477.585938 319.726562 477.863281 C 318.871094 477.976562 318.105469 478.4375 317.386719 479.222656 C 315.671875 475.253906 312.539062 466.355469 314.460938 457.722656 C 315.789062 451.765625 318.230469 447.527344 321.523438 445.464844 C 323.671875 444.113281 326.175781 443.671875 328.96875 444.121094 C 337.117188 446.421875 345.320312 448.78125 353.519531 451.160156 C 352.847656 451.582031 352.199219 452.089844 351.59375 452.710938 C 346.566406 457.824219 343.9375 469.882812 348.410156 483.238281 Z M 340.839844 487.402344 C 337.6875 488.035156 334.386719 487.59375 331.570312 486.011719 Z M 174.054688 441.199219 C 174.054688 437.070312 175.582031 433.507812 178.597656 430.601562 C 184.34375 425.066406 195.089844 422.105469 210.566406 421.753906 C 205.308594 424.96875 201.09375 431.476562 200.472656 441.796875 C 199.964844 450.265625 202.273438 457.875 206.441406 462.769531 C 183.132812 456.035156 174.054688 447.820312 174.054688 441.199219 Z M 212.808594 464.480469 C 206.453125 461.308594 202.550781 452.390625 203.179688 441.960938 C 203.773438 432.046875 208.890625 422.039062 218.984375 422.039062 C 219.246094 422.039062 219.476562 421.945312 219.683594 421.816406 C 227.511719 422.101562 236.085938 423.019531 245.222656 424.421875 C 244.566406 424.769531 243.921875 425.152344 243.296875 425.597656 C 238.109375 429.324219 234.769531 435.769531 233.894531 443.757812 C 232.753906 454.164062 235.972656 464.496094 241.222656 469.890625 C 230.234375 468.316406 220.816406 466.484375 212.808594 464.480469 Z M 247.628906 470.804688 C 241.195312 469.140625 235.109375 457.542969 236.589844 444.054688 C 237.367188 436.945312 240.390625 431.015625 244.878906 427.796875 C 246.953125 426.304688 249.242188 425.492188 251.398438 425.429688 C 262.347656 427.320312 274.015625 429.839844 286.144531 432.777344 C 285.25 433.1875 284.367188 433.691406 283.523438 434.292969 C 278.851562 437.605469 275.902344 443.214844 275.210938 450.082031 C 274.109375 461.09375 276.714844 470.707031 281.679688 475.777344 C 269.75 474 258.199219 472.308594 247.628906 470.804688 Z M 288.535156 476.804688 C 288.425781 476.738281 288.3125 476.667969 288.179688 476.636719 C 281.003906 474.84375 276.589844 463.546875 277.910156 450.351562 C 278.519531 444.273438 281.070312 439.351562 285.09375 436.496094 C 287.339844 434.90625 289.933594 434.09375 292.121094 434.25 C 301.882812 436.691406 311.902344 439.371094 322.046875 442.1875 C 321.371094 442.460938 320.710938 442.777344 320.082031 443.171875 C 316.109375 445.664062 313.324219 450.363281 311.816406 457.140625 C 309.617188 467.011719 313.308594 476.820312 315.113281 480.800781 L 314.941406 480.773438 C 306.167969 479.453125 297.285156 478.113281 288.535156 476.804688 Z M 347.636719 494.046875 C 334.992188 499.058594 328.953125 492.1875 326.683594 489.597656 L 326.339844 489.214844 L 324.855469 488.519531 C 323.261719 488.453125 321.527344 490 318.609375 492.738281 C 316.460938 494.746094 312.535156 498.417969 311.191406 497.683594 C 311.183594 497.628906 311.167969 497.585938 311.167969 497.527344 C 311.167969 495.902344 313.476562 490.578125 318.085938 482.996094 C 318.296875 482.808594 318.449219 482.570312 318.511719 482.300781 C 318.609375 482.136719 318.707031 481.980469 318.808594 481.816406 C 319.289062 481.039062 319.742188 480.589844 320.082031 480.546875 C 320.878906 480.441406 322.53125 481.976562 324.128906 483.464844 L 328.339844 487.132812 C 335.070312 492.355469 345.222656 491.160156 350.972656 484.460938 C 352.601562 482.5625 353.710938 480.953125 354.601562 479.65625 C 356.703125 476.601562 357.078125 476.046875 360.003906 476.777344 C 360.855469 476.992188 361.332031 477.707031 361.410156 478.894531 C 361.664062 482.707031 357.460938 490.15625 347.636719 494.046875 Z M 364.34375 497.902344 C 362.757812 498.789062 361.257812 499.621094 360.125 500.589844 C 358.027344 502.386719 357.847656 506.183594 357.6875 509.535156 C 357.644531 510.449219 357.585938 511.5625 357.472656 512.34375 C 356.339844 510.625 354.507812 505.703125 354.507812 501.628906 C 354.507812 501.320312 354.519531 501.011719 354.539062 500.710938 C 354.636719 499.484375 354.980469 497.925781 356.109375 497.453125 C 360.757812 495.523438 365.941406 492.359375 367.554688 491.351562 C 369.144531 491.582031 370.691406 491.808594 372.1875 492.023438 C 369.972656 494.75 367.015625 496.417969 364.34375 497.902344 Z M 367.820312 488.65625 C 367.605469 488.574219 367.382812 488.53125 367.152344 488.5625 C 365.105469 488.265625 362.980469 487.957031 360.78125 487.628906 C 363.113281 484.550781 364.289062 481.347656 364.113281 478.714844 C 363.953125 476.324219 362.695312 474.660156 360.65625 474.152344 C 355.910156 472.96875 354.5 475.019531 352.367188 478.125 C 351.839844 478.890625 351.210938 479.792969 350.460938 480.78125 C 347.085938 469.210938 349.378906 458.824219 353.527344 454.601562 C 354.9375 453.171875 356.492188 452.480469 358.175781 452.511719 C 360.644531 453.230469 363.109375 453.949219 365.574219 454.664062 C 372.433594 456.664062 378.976562 458.253906 385.179688 459.511719 C 384.835938 459.753906 384.492188 460.007812 384.167969 460.296875 C 380.660156 463.398438 378.394531 469.441406 378.394531 475.691406 C 378.394531 481.738281 380.636719 487.433594 384.023438 490.964844 C 379.242188 490.300781 373.863281 489.535156 367.820312 488.65625 Z M 403.613281 493.507812 C 400.011719 493.09375 395.664062 492.539062 390.457031 491.84375 C 390.378906 491.808594 390.3125 491.753906 390.222656 491.734375 C 385.195312 490.527344 381.105469 483.332031 381.105469 475.691406 C 381.105469 470.183594 383.011719 464.933594 385.964844 462.320312 C 387.328125 461.113281 388.863281 460.515625 390.539062 460.527344 C 398.539062 461.957031 405.90625 462.828125 412.574219 463.304688 C 410.28125 465.390625 408.65625 468.976562 408.019531 473.691406 C 407.003906 481.277344 408.796875 489.972656 413.230469 494.554688 C 410.113281 494.238281 406.921875 493.894531 403.613281 493.507812 Z M 419.425781 495.160156 C 419.269531 495.035156 419.09375 494.9375 418.890625 494.886719 C 412.519531 493.410156 409.515625 482.921875 410.707031 474.046875 C 411.375 469.070312 413.605469 463.804688 417.855469 463.964844 C 418.199219 463.980469 418.511719 463.851562 418.757812 463.648438 C 426.730469 463.964844 433.507812 463.734375 438.945312 463.292969 C 437.15625 466.496094 435.441406 472.6875 438.339844 483.363281 C 435.554688 482.207031 432.910156 481.664062 430.710938 481.929688 C 428.277344 482.226562 426.472656 483.449219 425.492188 485.476562 C 424.652344 487.210938 424.492188 488.566406 424.988281 489.738281 C 425.773438 491.585938 427.941406 492.304688 430.6875 493.207031 C 432.902344 493.9375 435.605469 494.835938 438.378906 496.535156 C 432.4375 496.230469 426.148438 495.777344 419.425781 495.160156 Z M 456.847656 506.777344 C 457.890625 509.671875 458.792969 512.167969 462.882812 515.511719 C 466.085938 518.128906 467.601562 521.089844 466.9375 523.4375 C 466.511719 524.9375 465.25 525.96875 463.558594 526.199219 C 460.1875 526.660156 456.316406 517.109375 455.347656 513.234375 C 454.6875 510.597656 449.820312 500.949219 440.792969 494.863281 C 437.402344 492.570312 434.148438 491.5 431.535156 490.640625 C 429.609375 490.003906 427.789062 489.402344 427.484375 488.679688 C 427.320312 488.296875 427.476562 487.59375 427.933594 486.648438 C 428.503906 485.464844 429.519531 484.800781 431.039062 484.617188 C 435.570312 484.070312 444.171875 488.238281 450.730469 496.164062 C 454.78125 501.0625 455.878906 504.101562 456.847656 506.777344 Z M 454.777344 496.984375 C 454.195312 496.183594 453.570312 495.347656 452.816406 494.441406 C 449.574219 490.523438 445.585938 487.21875 441.648438 484.984375 C 437.03125 470.4375 441.144531 464.433594 442.488281 462.960938 C 448.082031 462.363281 451.8125 461.597656 453.449219 461.21875 C 456.308594 465.148438 459.863281 468.605469 464.042969 471.484375 C 464.441406 473.550781 466.964844 484.949219 475.769531 496.03125 C 469.347656 496.675781 462.453125 496.988281 454.777344 496.984375 Z M 479.335938 517.597656 C 479.371094 517.816406 479.453125 518.023438 479.585938 518.199219 C 482.019531 521.484375 482.734375 530.867188 480.109375 534.316406 C 479.332031 535.335938 478.402344 535.570312 477.097656 535.070312 C 473.222656 533.589844 473.90625 530.246094 475.445312 524.460938 C 476.132812 521.886719 476.835938 519.222656 476.835938 516.71875 C 476.835938 510.941406 472.386719 502.882812 470.164062 499.214844 C 471.460938 499.125 472.730469 499.023438 473.984375 498.914062 C 477.339844 504.570312 479.316406 517.464844 479.335938 517.597656 Z M 549.507812 506.015625 C 537.285156 515.878906 520.34375 518.078125 503.019531 512.039062 C 477.46875 503.132812 469.417969 481.328125 467.308594 473.546875 C 469.808594 474.988281 472.480469 476.261719 475.332031 477.316406 C 492.554688 483.683594 511.742188 480.964844 524.222656 470.386719 C 528.722656 466.574219 532.21875 461.273438 534.601562 455.167969 C 539.125 459.007812 548.976562 462.886719 558.679688 461.347656 C 560.972656 460.980469 563.578125 460.253906 566.207031 458.902344 C 568.230469 478.65625 562.210938 495.761719 549.507812 506.015625 Z M 574.953125 414.296875 C 580.167969 423.34375 580.566406 433.894531 576.070312 444.011719 C 572.371094 452.339844 566.210938 457.40625 558.253906 458.671875 C 548.816406 460.171875 538.996094 455.964844 535.589844 452.398438 C 539.371094 440.703125 539.277344 426.570312 534.53125 414.191406 C 533.574219 411.699219 532.453125 409.363281 531.191406 407.167969 C 532.941406 405.082031 540.117188 397.757812 553.675781 399.242188 C 561.847656 400.136719 570.199219 406.042969 574.953125 414.296875 Z M 572.261719 406.242188 C 567.144531 400.878906 560.523438 397.269531 553.972656 396.554688 C 540.316406 395.058594 532.476562 401.773438 529.710938 404.765625 C 527.113281 400.832031 523.996094 397.449219 520.425781 394.65625 C 525.914062 389.445312 555.539062 361.058594 575.875 336.082031 L 587.214844 321.941406 C 601.40625 304.074219 608.53125 295.105469 616.929688 294.421875 C 621.722656 294.03125 626.820312 296.222656 630.570312 300.285156 C 635.015625 305.097656 636.921875 311.753906 635.804688 318.554688 C 633.492188 332.628906 608.230469 372.675781 572.261719 406.242188 Z M 572.261719 406.242188 " fill-opacity="1" fill-rule="nonzero"/><path fill="#000000" d="M 489.582031 385.042969 C 476.828125 385.386719 464.726562 391.339844 456.382812 401.371094 C 447.234375 412.371094 443.566406 427.0625 446.058594 442.734375 C 448.574219 458.578125 459.296875 471.097656 475.476562 477.078125 C 492.699219 483.449219 511.886719 480.730469 524.363281 470.15625 C 537.84375 458.726562 542.375 434.039062 534.671875 413.957031 C 527.40625 395 510.964844 384.457031 489.582031 385.042969 Z M 476.414062 474.542969 C 461.183594 468.910156 451.09375 457.160156 448.734375 442.3125 C 446.367188 427.417969 449.824219 413.488281 458.464844 403.101562 C 466.3125 393.667969 477.683594 388.074219 489.652344 387.742188 C 517.265625 386.992188 528.125 404.449219 532.144531 414.925781 C 539.460938 434.003906 535.273438 457.359375 522.609375 468.089844 C 510.867188 478.046875 492.734375 480.578125 476.414062 474.542969 Z M 476.414062 474.542969 " fill-opacity="1" fill-rule="nonzero"/><path fill="#000000" d="M 528.703125 405.898438 C 528.269531 406.507812 528.414062 407.347656 529.023438 407.78125 C 529.632812 408.214844 530.476562 408.074219 530.914062 407.464844 C 531.210938 407.050781 538.378906 397.320312 553.820312 399.007812 C 561.988281 399.902344 570.339844 405.808594 575.09375 414.058594 C 580.3125 423.105469 580.707031 433.660156 576.210938 443.777344 C 572.515625 452.105469 566.351562 457.175781 558.398438 458.4375 C 548.804688 459.960938 538.804688 455.589844 535.558594 451.988281 C 535.054688 451.433594 534.199219 451.390625 533.644531 451.886719 C 533.089844 452.386719 533.042969 453.242188 533.542969 453.796875 C 537.285156 457.953125 548.15625 462.804688 558.824219 461.109375 C 565.035156 460.125 573.523438 456.503906 578.6875 444.875 C 583.542969 433.949219 583.097656 422.523438 577.445312 412.710938 C 572.273438 403.738281 563.113281 397.304688 554.113281 396.320312 C 537.035156 394.453125 529.035156 405.429688 528.703125 405.898438 Z M 528.703125 405.898438 " fill-opacity="1" fill-rule="nonzero"/><path fill="#000000" d="M 567.347656 455.382812 C 566.605469 455.476562 566.078125 456.152344 566.171875 456.894531 C 568.753906 477.402344 562.730469 495.21875 549.648438 505.78125 C 537.425781 515.648438 520.484375 517.84375 503.164062 511.804688 C 471.957031 500.925781 466.84375 470.792969 466.796875 470.492188 C 466.679688 469.753906 465.988281 469.25 465.25 469.367188 C 464.511719 469.480469 464.003906 470.171875 464.121094 470.910156 C 464.171875 471.230469 469.496094 502.933594 502.265625 514.359375 C 520.496094 520.710938 538.386719 518.355469 551.351562 507.882812 C 565.179688 496.722656 571.558594 478.015625 568.859375 456.558594 C 568.765625 455.816406 568.089844 455.289062 567.347656 455.382812 Z M 567.347656 455.382812 " fill-opacity="1" fill-rule="nonzero"/><path fill="#000000" d="M 552.199219 472.140625 C 535.328125 486.175781 510.5 480.492188 510.253906 480.429688 C 509.570312 480.269531 508.878906 480.65625 508.65625 481.320312 C 508.433594 481.980469 508.753906 482.707031 509.398438 482.988281 C 510.304688 483.382812 531.726562 492.636719 542.300781 488.179688 C 553.0625 483.640625 554.363281 473.757812 554.414062 473.339844 C 554.476562 472.789062 554.199219 472.257812 553.710938 471.992188 C 553.226562 471.726562 552.625 471.785156 552.199219 472.140625 Z M 550.578125 476.6875 C 549.320312 479.542969 546.710938 483.382812 541.25 485.683594 C 536.261719 487.789062 528.109375 486.285156 521.441406 484.367188 C 529.679688 484.519531 540.851562 483.179688 550.578125 476.6875 Z M 550.578125 476.6875 " fill-opacity="1" fill-rule="nonzero"/><path fill="#000000" d="M 616.851562 291.492188 C 607.277344 292.273438 599.914062 301.546875 585.230469 320.027344 L 573.914062 334.140625 C 551.652344 361.480469 518.152344 392.980469 517.816406 393.296875 C 517.273438 393.808594 517.242188 394.664062 517.757812 395.207031 C 518.269531 395.753906 519.125 395.78125 519.671875 395.269531 C 520.007812 394.953125 553.640625 363.328125 576.019531 335.851562 L 587.355469 321.707031 C 601.546875 303.839844 608.671875 294.871094 617.074219 294.1875 C 621.863281 293.796875 626.964844 295.988281 630.710938 300.050781 C 635.15625 304.863281 637.066406 311.523438 635.949219 318.320312 C 633.621094 332.476562 608.082031 372.910156 571.789062 406.589844 C 571.238281 407.101562 571.207031 407.957031 571.71875 408.503906 C 572.226562 409.050781 573.082031 409.082031 573.632812 408.574219 C 607.550781 377.097656 635.917969 335.191406 638.621094 318.757812 C 639.875 311.132812 637.71875 303.644531 632.707031 298.21875 C 628.394531 293.550781 622.46875 291.035156 616.851562 291.492188 Z M 616.851562 291.492188 " fill-opacity="1" fill-rule="nonzero"/><path fill="#000000" d="M 478.140625 495.171875 C 470.574219 496.238281 462.703125 496.761719 454.082031 496.769531 C 453.332031 496.773438 452.726562 497.378906 452.726562 498.125 C 452.730469 498.875 453.335938 499.476562 454.085938 499.476562 C 462.832031 499.464844 470.824219 498.9375 478.515625 497.851562 C 479.257812 497.746094 479.773438 497.0625 479.667969 496.324219 C 479.566406 495.585938 478.878906 495.066406 478.140625 495.171875 Z M 478.140625 495.171875 " fill-opacity="1" fill-rule="nonzero"/><path fill="#000000" d="M 360.125 488.632812 C 360.027344 489.375 359.34375 489.894531 358.601562 489.792969 L 365.703125 490.753906 C 396.976562 494.953125 421.679688 498.277344 442.480469 499.207031 C 443.226562 499.242188 443.859375 498.664062 443.894531 497.917969 C 443.925781 497.175781 443.347656 496.539062 442.601562 496.507812 C 421.921875 495.578125 397.273438 492.265625 366.066406 488.070312 C 366.0625 488.070312 358.96875 487.117188 358.96875 487.117188 C 359.707031 487.214844 360.226562 487.894531 360.125 488.632812 Z M 360.125 488.632812 " fill-opacity="1" fill-rule="nonzero"/><path fill="#000000" d="M 325.601562 483.84375 C 325.492188 484.582031 326.011719 485.269531 326.75 485.375 L 334.988281 486.570312 L 346.167969 488.167969 C 346.910156 488.273438 347.585938 487.761719 347.695312 487.023438 C 347.800781 486.28125 347.28125 485.59375 346.539062 485.492188 L 335.382812 483.890625 L 327.128906 482.695312 C 326.390625 482.59375 325.707031 483.105469 325.601562 483.84375 Z M 325.601562 483.84375 " fill-opacity="1" fill-rule="nonzero"/><path fill="#000000" d="M 171.5625 436.539062 C 170.28125 440.046875 170.59375 443.496094 172.492188 446.789062 C 179.890625 459.652344 209.472656 466.714844 226.441406 469.777344 C 247.273438 473.539062 279.25 478.558594 316.484375 483.910156 C 317.222656 484.015625 317.910156 483.503906 318.015625 482.765625 C 318.125 482.023438 317.609375 481.339844 316.871094 481.234375 C 279.667969 475.882812 247.722656 470.871094 226.925781 467.117188 C 198.832031 462.042969 179.847656 454.144531 174.839844 445.441406 C 173.339844 442.835938 173.097656 440.226562 174.105469 437.460938 C 179.210938 423.445312 198.5625 418.785156 235.003906 422.789062 C 269.59375 426.59375 326.875 443.035156 368.699219 455.039062 L 376.347656 457.238281 C 417.523438 469.027344 454.210938 461.054688 454.578125 460.976562 C 455.308594 460.8125 455.765625 460.089844 455.601562 459.359375 C 455.4375 458.632812 454.714844 458.171875 453.984375 458.335938 C 453.625 458.414062 417.582031 466.230469 377.097656 454.632812 L 369.445312 452.441406 C 327.527344 440.410156 270.121094 423.925781 235.300781 420.101562 C 197.414062 415.9375 177.15625 421.160156 171.5625 436.539062 Z M 171.5625 436.539062 " fill-opacity="1" fill-rule="nonzero"/><path fill="#000000" d="M 474.84375 496.117188 C 474.101562 496.191406 473.558594 496.855469 473.632812 497.597656 L 473.6875 498.140625 C 473.707031 498.34375 473.773438 498.535156 473.878906 498.710938 C 477.296875 504.277344 479.3125 517.464844 479.332031 517.601562 C 479.363281 517.820312 479.449219 518.027344 479.582031 518.203125 C 482.015625 521.480469 482.734375 530.855469 480.113281 534.3125 C 479.332031 535.335938 478.402344 535.570312 477.089844 535.070312 C 473.222656 533.589844 473.90625 530.246094 475.445312 524.460938 C 476.128906 521.886719 476.835938 519.226562 476.835938 516.722656 C 476.835938 509.175781 469.25 497.734375 468.929688 497.253906 C 468.511719 496.632812 467.671875 496.460938 467.050781 496.878906 C 466.425781 497.292969 466.257812 498.132812 466.671875 498.753906 C 466.75 498.867188 474.128906 509.996094 474.128906 516.722656 C 474.128906 518.875 473.464844 521.359375 472.824219 523.765625 C 471.402344 529.113281 469.789062 535.175781 476.121094 537.597656 C 478.570312 538.53125 480.753906 537.941406 482.269531 535.941406 C 483.792969 533.9375 484.472656 530.65625 484.472656 527.28125 C 484.472656 523.355469 483.539062 519.347656 481.976562 516.984375 C 481.769531 515.636719 479.824219 503.570312 476.359375 497.628906 C 476.34375 497.480469 476.328125 497.328125 476.328125 497.328125 C 476.253906 496.585938 475.589844 496.042969 474.84375 496.117188 Z M 474.84375 496.117188 " fill-opacity="1" fill-rule="nonzero"/><path fill="#000000" d="M 429.21875 482.25 C 427.535156 482.792969 426.246094 483.90625 425.488281 485.476562 C 424.847656 486.828125 424.609375 487.90625 424.746094 488.871094 C 425.113281 491.367188 427.574219 492.179688 430.691406 493.207031 C 433.144531 494.015625 436.195312 495.023438 439.269531 497.097656 L 441.929688 499.117188 C 448.335938 504.472656 452.191406 511.75 452.722656 513.882812 C 452.761719 514.046875 457.03125 529.824219 463.921875 528.882812 C 466.671875 528.507812 468.828125 526.707031 469.539062 524.175781 C 470.523438 520.707031 468.71875 516.785156 464.59375 513.417969 C 461.078125 510.550781 460.371094 508.582031 459.386719 505.859375 C 458.628906 503.75 457.679688 501.125 455.203125 497.570312 L 452.816406 494.4375 C 451.03125 492.277344 448.996094 490.269531 446.773438 488.472656 C 444.984375 487.023438 443.085938 485.746094 441.128906 484.671875 C 436.476562 482.136719 432.246094 481.28125 429.21875 482.25 Z M 455.351562 513.230469 C 454.648438 510.40625 450.5 502.757812 443.675781 497.046875 C 443.675781 497.046875 440.792969 494.859375 440.792969 494.859375 C 437.402344 492.574219 434.152344 491.5 431.542969 490.640625 C 429.398438 489.929688 427.550781 489.324219 427.429688 488.488281 C 427.390625 488.21875 427.445312 487.667969 427.933594 486.640625 C 428.371094 485.738281 429.0625 485.144531 430.050781 484.828125 C 432.332031 484.09375 435.890625 484.902344 439.828125 487.042969 C 441.636719 488.035156 443.402344 489.226562 445.070312 490.574219 C 447.152344 492.257812 449.054688 494.136719 450.730469 496.160156 C 450.730469 496.160156 452.980469 499.113281 452.980469 499.113281 C 455.25 502.375 456.09375 504.714844 456.839844 506.777344 C 457.882812 509.671875 458.785156 512.171875 462.878906 515.511719 L 462.878906 515.507812 C 466.082031 518.128906 467.597656 521.089844 466.933594 523.441406 C 466.511719 524.941406 465.246094 525.972656 463.554688 526.203125 C 460.1875 526.660156 456.324219 517.109375 455.351562 513.230469 Z M 455.351562 513.230469 " fill-opacity="1" fill-rule="nonzero"/><path fill="#000000" d="M 366.519531 488.804688 C 366.457031 488.847656 360.351562 492.75 355.0625 494.957031 C 353.410156 495.648438 351.503906 497.554688 351.835938 502.71875 C 352.136719 507.367188 354.546875 514.796875 357.261719 515.539062 C 357.878906 515.710938 358.492188 515.605469 358.988281 515.242188 C 360.164062 514.390625 360.253906 512.507812 360.390625 509.660156 C 360.515625 507.136719 360.679688 503.679688 361.886719 502.644531 C 362.8125 501.851562 364.136719 501.117188 365.664062 500.265625 C 368.972656 498.421875 373.09375 496.132812 375.71875 491.714844 C 376.101562 491.074219 375.886719 490.242188 375.246094 489.863281 C 374.601562 489.480469 373.769531 489.691406 373.390625 490.335938 C 371.136719 494.125 367.527344 496.132812 364.347656 497.898438 C 362.757812 498.78125 361.253906 499.617188 360.125 500.589844 C 358.03125 502.382812 357.847656 506.179688 357.6875 509.53125 C 357.644531 510.445312 357.582031 511.554688 357.472656 512.332031 C 356.335938 510.617188 354.507812 505.691406 354.507812 501.628906 C 354.507812 501.316406 354.519531 501.011719 354.539062 500.710938 C 354.632812 499.484375 354.980469 497.925781 356.109375 497.453125 C 361.613281 495.15625 367.921875 491.121094 367.984375 491.082031 C 368.386719 490.820312 368.609375 490.386719 368.609375 489.941406 C 368.609375 489.691406 368.539062 489.4375 368.390625 489.214844 C 367.988281 488.582031 367.148438 488.402344 366.519531 488.804688 Z M 366.519531 488.804688 " fill-opacity="1" fill-rule="nonzero"/><path fill="#000000" d="M 352.355469 478.140625 L 351.378906 479.542969 L 348.90625 482.707031 C 347.875 483.898438 346.699219 484.890625 345.410156 485.65625 C 340.507812 488.617188 334.320312 488.347656 330.003906 484.996094 L 327.523438 482.898438 C 327.515625 482.890625 325.972656 481.472656 325.972656 481.472656 C 323.546875 479.214844 321.792969 477.585938 319.730469 477.859375 C 318.515625 478.019531 317.460938 478.84375 316.503906 480.382812 L 316 481.195312 C 315.984375 481.222656 315.6875 481.714844 315.6875 481.714844 C 309.859375 491.351562 308.441406 495.65625 308.441406 497.726562 C 308.441406 498.992188 308.972656 499.421875 309.347656 499.730469 C 312.40625 502.253906 316.6875 498.246094 320.460938 494.707031 C 321.808594 493.449219 323.761719 491.636719 324.59375 491.320312 C 324.605469 491.335938 324.644531 491.378906 324.644531 491.378906 C 327.007812 494.074219 334.210938 502.273438 348.636719 496.554688 C 352.835938 494.886719 356.496094 492.460938 359.222656 489.535156 C 361.339844 487.273438 362.863281 484.773438 363.628906 482.308594 C 363.960938 481.21875 364.128906 480.183594 364.128906 479.230469 C 364.128906 478.09375 363.890625 477.074219 363.421875 476.246094 C 362.816406 475.179688 361.863281 474.457031 360.65625 474.15625 C 355.898438 472.96875 354.488281 475.027344 352.355469 478.140625 Z M 346.804688 487.976562 C 348.332031 487.066406 349.734375 485.882812 350.960938 484.472656 C 350.96875 484.460938 353.585938 481.113281 353.585938 481.113281 C 353.589844 481.109375 354.589844 479.667969 354.589844 479.667969 C 356.691406 476.601562 357.070312 476.050781 360 476.78125 L 360.003906 476.78125 C 360.480469 476.902344 360.824219 477.160156 361.0625 477.574219 C 361.550781 478.4375 361.542969 479.871094 361.039062 481.511719 C 360.402344 483.558594 359.054688 485.753906 357.238281 487.691406 C 354.785156 490.328125 351.460938 492.523438 347.636719 494.042969 C 334.988281 499.058594 328.953125 492.183594 326.683594 489.597656 L 326.34375 489.214844 L 324.859375 488.519531 C 323.261719 488.453125 321.53125 489.996094 318.609375 492.738281 C 316.460938 494.746094 312.523438 498.421875 311.1875 497.675781 C 311.179688 497.632812 311.171875 497.601562 311.171875 497.550781 C 311.171875 496.1875 312.898438 491.5625 318.003906 483.121094 C 317.996094 483.128906 318.324219 482.59375 318.324219 482.59375 C 318.304688 482.617188 318.496094 482.308594 318.496094 482.308594 L 318.800781 481.820312 C 319.289062 481.039062 319.742188 480.585938 320.085938 480.542969 C 320.878906 480.433594 322.53125 481.96875 324.128906 483.453125 L 325.703125 484.90625 C 325.695312 484.894531 328.335938 487.125 328.335938 487.125 C 333.535156 491.164062 340.957031 491.503906 346.804688 487.976562 Z M 360.65625 474.15625 Z M 360.65625 474.15625 " fill-opacity="1" fill-rule="nonzero"/><path fill="#000000" d="M 441.257812 460.503906 C 440.925781 460.761719 433.183594 467.042969 439.183594 486.257812 C 439.40625 486.972656 440.164062 487.371094 440.878906 487.148438 C 441.59375 486.929688 441.992188 486.167969 441.769531 485.453125 C 436.386719 468.214844 442.867188 462.683594 442.933594 462.628906 C 443.507812 462.160156 443.601562 461.3125 443.140625 460.734375 C 442.679688 460.152344 441.84375 460.050781 441.257812 460.503906 Z M 441.257812 460.503906 " fill-opacity="1" fill-rule="nonzero"/><path fill="#000000" d="M 407.769531 476.945312 C 407.109375 490.121094 413.34375 496.1875 418.882812 497.382812 C 419.617188 497.542969 420.335938 497.074219 420.496094 496.347656 C 420.652344 495.613281 420.1875 494.898438 419.457031 494.738281 C 414.953125 493.769531 409.902344 488.5625 410.476562 477.078125 C 411.066406 465.300781 415.601562 463.710938 419.960938 463.710938 C 420.710938 463.710938 421.3125 463.105469 421.3125 462.363281 C 421.3125 461.613281 420.710938 461.007812 419.960938 461.007812 C 412.1875 461.007812 408.3125 466.074219 407.769531 476.945312 Z M 407.769531 476.945312 " fill-opacity="1" fill-rule="nonzero"/><path fill="#000000" d="M 384.414062 460.347656 C 380.988281 462.988281 378.941406 467.476562 378.644531 472.992188 C 378.039062 484.21875 383.453125 492.863281 388.886719 493.894531 C 389.621094 494.035156 390.332031 493.550781 390.472656 492.820312 C 390.613281 492.085938 390.128906 491.378906 389.394531 491.238281 C 385.667969 490.527344 380.800781 483.300781 381.351562 473.140625 C 381.605469 468.421875 383.277344 464.640625 386.066406 462.488281 C 387.933594 461.050781 390.148438 460.457031 392.144531 460.867188 C 392.875 461.015625 393.589844 460.546875 393.742188 459.8125 C 393.890625 459.082031 393.417969 458.367188 392.683594 458.21875 C 389.917969 457.652344 386.898438 458.425781 384.414062 460.347656 Z M 384.414062 460.347656 " fill-opacity="1" fill-rule="nonzero"/><path fill="#000000" d="M 353.945312 450.832031 C 350.136719 453.09375 347.375 458.207031 346.367188 464.863281 C 344.855469 474.847656 348.6875 483.105469 348.855469 483.453125 C 349.171875 484.128906 349.980469 484.414062 350.65625 484.097656 C 351.332031 483.78125 351.621094 482.972656 351.304688 482.300781 C 351.269531 482.222656 347.664062 474.414062 349.046875 465.265625 C 349.917969 459.503906 352.269531 454.976562 355.332031 453.160156 C 356.914062 452.21875 358.597656 452.066406 360.339844 452.699219 C 361.042969 452.957031 361.828125 452.589844 362.078125 451.890625 C 362.332031 451.1875 361.96875 450.410156 361.265625 450.160156 C 358.761719 449.246094 356.226562 449.480469 353.945312 450.832031 Z M 353.945312 450.832031 " fill-opacity="1" fill-rule="nonzero"/><path fill="#000000" d="M 312.304688 455.472656 C 308.824219 468.441406 315.390625 481.894531 315.671875 482.460938 C 316.003906 483.128906 316.820312 483.402344 317.488281 483.074219 C 318.160156 482.742188 318.433594 481.929688 318.101562 481.261719 C 318.035156 481.128906 311.710938 468.136719 314.921875 456.171875 C 318.082031 444.394531 326.386719 443.101562 330.339844 444.0625 C 331.066406 444.238281 331.800781 443.792969 331.976562 443.070312 C 332.15625 442.34375 331.707031 441.613281 330.984375 441.433594 C 326.140625 440.257812 316.003906 441.675781 312.304688 455.472656 Z M 312.304688 455.472656 " fill-opacity="1" fill-rule="nonzero"/><path fill="#000000" d="M 283.554688 434.339844 C 280.574219 436.316406 276.757812 440.386719 275.472656 448.511719 C 272.882812 464.894531 278.945312 477.8125 290.21875 479.921875 C 290.957031 480.058594 291.664062 479.574219 291.800781 478.839844 C 291.9375 478.105469 291.457031 477.398438 290.71875 477.261719 C 280.96875 475.433594 275.800781 463.789062 278.148438 448.929688 C 279.058594 443.1875 281.382812 439.03125 285.054688 436.589844 C 288.753906 434.128906 292.738281 434.210938 294.324219 434.59375 C 295.054688 434.773438 295.785156 434.324219 295.964844 433.601562 C 296.140625 432.875 295.695312 432.144531 294.964844 431.964844 C 292.105469 431.273438 287.464844 431.734375 283.554688 434.339844 Z M 283.554688 434.339844 " fill-opacity="1" fill-rule="nonzero"/><path fill="#000000" d="M 242.996094 426.097656 C 237.820312 430.003906 234.554688 436.632812 233.804688 444.765625 C 232.3125 460.871094 239.96875 471.640625 247.921875 473.589844 C 248.652344 473.769531 249.382812 473.328125 249.5625 472.601562 C 249.742188 471.875 249.296875 471.144531 248.570312 470.964844 C 242.695312 469.523438 235.070312 460.519531 236.5 445.011719 C 237.183594 437.652344 240.070312 431.699219 244.632812 428.253906 C 247.535156 426.0625 250.945312 425.070312 253.757812 425.59375 C 254.492188 425.730469 255.199219 425.246094 255.335938 424.511719 C 255.472656 423.777344 254.988281 423.070312 254.253906 422.933594 C 250.703125 422.273438 246.496094 423.457031 242.996094 426.097656 Z M 242.996094 426.097656 " fill-opacity="1" fill-rule="nonzero"/><path fill="#000000" d="M 200.507812 438.835938 C 198.179688 454.988281 204.792969 465.734375 218.644531 468.3125 C 219.382812 468.449219 220.089844 467.964844 220.226562 467.230469 C 220.363281 466.496094 219.878906 465.789062 219.144531 465.652344 C 206.734375 463.34375 201.066406 453.960938 203.1875 439.222656 C 205.492188 423.234375 216.375 421.433594 222.65625 421.78125 C 223.40625 421.824219 224.042969 421.25 224.085938 420.507812 C 224.125 419.761719 223.554688 419.121094 222.808594 419.082031 C 217.003906 418.757812 203.210938 420.039062 200.507812 438.835938 Z M 200.507812 438.835938 " fill-opacity="1" fill-rule="nonzero"/><path fill="#000000" d="M 214.066406 302.496094 C 203.703125 307.898438 197.5625 315.113281 196.308594 323.367188 C 194.882812 332.722656 199.746094 343.242188 210.363281 353.78125 C 216.664062 360.039062 225.027344 366.355469 235.21875 372.546875 C 240.578125 375.78125 246.378906 378.964844 252.46875 382 L 267.214844 389.292969 C 267.214844 389.292969 295.59375 403.070312 295.59375 403.070312 C 341 424.90625 393.0625 449.207031 420.058594 461.753906 C 420.0625 461.753906 424.105469 463.617188 424.105469 463.617188 C 424.785156 463.929688 425.59375 463.636719 425.910156 462.957031 C 426.222656 462.28125 425.933594 461.480469 425.25 461.164062 L 421.191406 459.296875 C 394.210938 446.757812 342.160156 422.460938 296.769531 400.632812 L 268.410156 386.867188 L 253.683594 379.582031 C 247.65625 376.574219 241.917969 373.429688 236.625 370.234375 C 226.617188 364.15625 218.425781 357.972656 212.277344 351.863281 C 202.292969 341.957031 197.699219 332.242188 198.984375 323.773438 C 200.105469 316.40625 205.753906 309.878906 215.320312 304.894531 C 245.058594 289.40625 284.234375 298.128906 338.609375 332.335938 C 379.195312 357.871094 414.917969 397.15625 433.175781 423.039062 C 433.203125 423.0625 436.160156 427.386719 436.160156 427.386719 C 441.125 434.792969 444.71875 441.25 446.554688 446.074219 C 446.816406 446.769531 447.601562 447.121094 448.300781 446.855469 C 449 446.589844 449.351562 445.808594 449.085938 445.109375 C 447.179688 440.101562 443.492188 433.453125 438.417969 425.890625 C 438.421875 425.902344 435.421875 421.511719 435.421875 421.511719 C 416.988281 395.394531 380.976562 355.792969 340.054688 330.050781 C 284.777344 295.269531 244.746094 286.515625 214.066406 302.496094 Z M 214.066406 302.496094 " fill-opacity="1" fill-rule="nonzero"/><path fill="#000000" d="M 199.015625 369.652344 C 196.265625 373.898438 195.558594 379.40625 196.96875 385.585938 C 199.136719 395.089844 206.285156 405.167969 214.351562 410.089844 C 228.6875 418.835938 245.546875 424.523438 269.015625 428.527344 C 269.757812 428.652344 270.457031 428.160156 270.582031 427.421875 C 270.707031 426.683594 270.210938 425.984375 269.476562 425.859375 C 246.355469 421.917969 229.792969 416.339844 215.765625 407.78125 C 208.273438 403.210938 201.628906 393.835938 199.609375 384.984375 C 198.742188 381.183594 198.328125 375.691406 201.292969 371.121094 C 208.164062 360.519531 229.542969 369.273438 239.882812 375.382812 C 240.523438 375.765625 241.359375 375.550781 241.738281 374.910156 C 242.117188 374.265625 241.90625 373.433594 241.261719 373.054688 C 229.324219 366 206.992188 357.347656 199.015625 369.652344 Z M 199.015625 369.652344 " fill-opacity="1" fill-rule="nonzero"/><path fill="#000000" d="M 498.4375 338.367188 L 493.5625 344.03125 C 478.101562 361.925781 436.574219 425.265625 436.15625 425.902344 C 435.75 426.527344 435.921875 427.367188 436.550781 427.773438 C 437.175781 428.183594 438.015625 428.007812 438.425781 427.382812 C 438.839844 426.746094 480.269531 363.554688 495.609375 345.796875 L 500.492188 340.128906 C 511.710938 327.078125 517.890625 319.890625 521.683594 319.890625 C 522.945312 319.890625 525.445312 321.296875 527.941406 324.378906 C 530.667969 327.746094 536.640625 337.292969 533.226562 353.195312 C 528.632812 374.597656 512.558594 389.988281 512.394531 390.144531 C 511.851562 390.65625 511.828125 391.511719 512.339844 392.054688 C 512.855469 392.597656 513.714844 392.621094 514.257812 392.109375 C 514.941406 391.460938 531.101562 376.007812 535.875 353.765625 C 539.53125 336.722656 533.019531 326.34375 530.050781 322.679688 C 527.304688 319.292969 524.097656 317.1875 521.683594 317.1875 C 516.644531 317.1875 511.3125 323.386719 498.4375 338.367188 Z M 498.4375 338.367188 " fill-opacity="1" fill-rule="nonzero"/></svg>