<svg xmlns="http://www.w3.org/2000/svg" xmlns:xlink="http://www.w3.org/1999/xlink" width="1080" zoomAndPan="magnify" viewBox="0 0 810 809.999993" height="1080" preserveAspectRatio="xMidYMid meet" version="1.0"><defs><clipPath id="8b2279dca5"><path d="M 343 202.792969 L 373 202.792969 L 373 232 L 343 232 Z M 343 202.792969 " clip-rule="nonzero"/></clipPath></defs><path fill="#000000" d="M 369.75 217.039062 C 369.75 223.589844 364.433594 228.90625 357.890625 228.90625 C 351.34375 228.90625 346.03125 223.589844 346.03125 217.039062 C 346.03125 210.488281 351.34375 205.167969 357.890625 205.167969 C 364.433594 205.167969 369.75 210.488281 369.75 217.039062 Z M 359.859375 216.042969 C 362.488281 216.042969 364.601562 213.929688 364.601562 211.292969 C 364.601562 208.683594 362.488281 206.546875 359.859375 206.546875 C 357.25 206.546875 355.113281 208.683594 355.113281 211.292969 C 355.113281 213.929688 357.25 216.042969 359.859375 216.042969 Z M 359.859375 216.042969 " fill-opacity="1" fill-rule="nonzero"/><path fill="#ff4000" d="M 182.691406 291.199219 C 188.332031 286.335938 226.757812 255.425781 270.539062 274.417969 C 317.972656 294.972656 315.199219 358.285156 315.199219 358.285156 C 315.199219 369.160156 317.714844 379.394531 322.125 388.363281 L 321.722656 388.554688 C 309.316406 402.65625 299.757812 417.421875 292.789062 432.355469 L 291.769531 431.878906 C 291.769531 431.878906 281.992188 416.164062 268.667969 414.976562 C 255.3125 413.792969 253.535156 425.660156 260.054688 430.097656 C 260.054688 430.097656 248.789062 429.222656 247.605469 442.5625 C 246.417969 455.90625 271.039062 460.652344 281.992188 460.652344 L 282.609375 460.816406 C 280.855469 467.632812 279.644531 474.417969 278.914062 481.113281 C 277.015625 498.160156 278.199219 514.683594 282.089844 529.945312 C 285.480469 543.261719 290.910156 555.609375 298.148438 566.484375 C 297.292969 568.308594 281.613281 600.046875 245.230469 594.089844 C 207.191406 587.894531 199.644531 541.152344 221.136719 509.53125 C 239.828125 487.621094 267.765625 476.984375 267.765625 476.984375 C 200.503906 445.246094 140.804688 348.863281 182.640625 291.246094 C 182.640625 291.222656 182.667969 291.199219 182.691406 291.199219 Z M 248.601562 394.300781 C 277.84375 394.300781 301.5625 370.558594 301.5625 341.265625 C 301.5625 311.996094 277.84375 288.257812 248.601562 288.257812 C 219.332031 288.257812 195.617188 311.996094 195.617188 341.265625 C 195.617188 370.558594 219.332031 394.300781 248.601562 394.300781 Z M 248.007812 585.402344 C 264.65625 585.402344 278.152344 571.894531 278.152344 555.230469 C 278.152344 538.5625 264.65625 525.054688 248.007812 525.054688 C 231.359375 525.054688 217.863281 538.5625 217.863281 555.230469 C 217.863281 571.894531 231.359375 585.402344 248.007812 585.402344 Z M 248.007812 585.402344 " fill-opacity="1" fill-rule="nonzero"/><path fill="#ff7c33" d="M 195.425781 277.574219 C 190.421875 281.800781 186.199219 286.359375 182.691406 291.199219 C 188.332031 286.335938 226.757812 255.425781 270.539062 274.417969 C 317.972656 294.972656 315.199219 358.285156 315.199219 358.285156 C 315.199219 345.894531 318.449219 334.359375 324.070312 324.554688 L 322.90625 323.863281 C 315.792969 290.628906 260.054688 222.972656 195.425781 277.574219 Z M 195.425781 277.574219 " fill-opacity="1" fill-rule="nonzero"/><path fill="#e53000" d="M 245.230469 594.089844 C 207.191406 587.894531 199.644531 541.152344 221.136719 509.53125 C 216.867188 514.515625 213.097656 520.09375 210.25 526.242188 C 194.832031 559.476562 209.65625 604.582031 250.570312 606.363281 C 291.480469 608.144531 303.339844 575.5 303.339844 575.5 L 304.121094 574.671875 C 302.011719 572.039062 300.019531 569.308594 298.148438 566.484375 C 297.292969 568.308594 281.613281 600.046875 245.230469 594.089844 Z M 245.230469 594.089844 " fill-opacity="1" fill-rule="nonzero"/><path fill="#ffff00" d="M 248.601562 288.257812 C 219.332031 288.257812 195.617188 311.996094 195.617188 341.265625 C 195.617188 370.558594 219.332031 394.300781 248.601562 394.300781 C 277.84375 394.300781 301.5625 370.558594 301.5625 341.265625 C 301.5625 311.996094 277.84375 288.257812 248.601562 288.257812 Z M 248.601562 288.257812 " fill-opacity="1" fill-rule="nonzero"/><path fill="#bf0000" d="M 248.007812 525.054688 C 231.359375 525.054688 217.863281 538.5625 217.863281 555.230469 C 217.863281 571.894531 231.359375 585.402344 248.007812 585.402344 C 264.65625 585.402344 278.152344 571.894531 278.152344 555.230469 C 278.152344 538.5625 264.65625 525.054688 248.007812 525.054688 Z M 248.007812 525.054688 " fill-opacity="1" fill-rule="nonzero"/><path fill="#ef8800" d="M 247.605469 442.5625 C 246.417969 455.90625 271.039062 460.652344 281.992188 460.652344 L 282.609375 460.816406 C 284.105469 454.910156 285.976562 448.972656 288.257812 443.0625 C 289.632812 439.476562 291.125 435.917969 292.789062 432.355469 L 291.769531 431.878906 C 291.769531 431.878906 281.992188 416.164062 268.667969 414.976562 C 255.3125 413.792969 253.535156 425.660156 260.054688 430.097656 C 260.054688 430.097656 248.789062 429.222656 247.605469 442.5625 Z M 247.605469 442.5625 " fill-opacity="1" fill-rule="nonzero"/><path fill="#ef8800" d="M 278.914062 481.113281 C 277.015625 498.160156 278.199219 514.683594 282.089844 529.945312 L 282.585938 529.804688 C 282.585938 529.804688 295.84375 552.878906 324.542969 569.828125 C 312.089844 553.996094 304.859375 533.910156 304.550781 511.023438 C 287.164062 497.730469 279.03125 484.390625 279.03125 481.136719 Z M 278.914062 481.113281 " fill-opacity="1" fill-rule="nonzero"/><path fill="#ef8800" d="M 278.914062 481.113281 L 279.03125 481.136719 C 279.03125 484.390625 287.164062 497.730469 304.550781 511.023438 C 304.527344 510.503906 304.527344 509.980469 304.527344 509.433594 C 304.527344 492.34375 306.449219 477.742188 309.390625 465.375 C 294.445312 453.671875 288.515625 443.15625 288.515625 443.15625 L 288.257812 443.0625 C 285.976562 448.972656 284.105469 454.910156 282.609375 460.816406 C 280.855469 467.632812 279.644531 474.417969 278.914062 481.113281 Z M 278.914062 481.113281 " fill-opacity="1" fill-rule="nonzero"/><path fill="#ef8800" d="M 282.585938 529.804688 L 282.089844 529.945312 C 285.480469 543.261719 290.910156 555.609375 298.148438 566.484375 C 300.019531 569.308594 302.011719 572.039062 304.121094 574.671875 C 312.851562 585.496094 323.570312 594.492188 335.949219 601.019531 C 346.03125 606.363281 357.015625 610.089844 368.445312 612.273438 C 380.800781 614.648438 393.679688 615.242188 406.488281 614.175781 C 420.433594 612.988281 434.285156 609.808594 447.257812 604.75 C 451.503906 603.089844 455.632812 601.257812 459.660156 599.21875 L 459.472656 598.835938 C 401.699219 618.117188 351.175781 603.707031 324.542969 569.828125 C 295.84375 552.878906 282.585938 529.804688 282.585938 529.804688 Z M 282.585938 529.804688 " fill-opacity="1" fill-rule="nonzero"/><path fill="#ef8800" d="M 288.257812 443.0625 L 288.515625 443.15625 C 288.515625 443.15625 294.445312 453.671875 309.390625 465.375 C 317.996094 429.148438 335.359375 412.414062 338.75 409.421875 C 331.898438 403.820312 326.203125 396.625 322.125 388.363281 L 321.722656 388.554688 C 309.316406 402.65625 299.757812 417.421875 292.789062 432.355469 C 291.125 435.917969 289.632812 439.476562 288.257812 443.0625 Z M 288.257812 443.0625 " fill-opacity="1" fill-rule="nonzero"/><path fill="#ffbf00" d="M 304.527344 509.433594 C 304.527344 509.980469 304.527344 510.503906 304.550781 511.023438 C 325.300781 526.90625 359.242188 542.695312 408.289062 541.078125 C 463.742188 539.253906 494.050781 525.53125 509.15625 515.226562 C 509.492188 508.273438 509.324219 500.792969 508.496094 492.816406 C 507.453125 482.660156 505.816406 473.472656 503.847656 465.28125 C 485.964844 479.378906 449.652344 500.390625 395.246094 495.976562 C 353.054688 492.558594 325.800781 478.269531 309.390625 465.375 C 306.449219 477.742188 304.527344 492.34375 304.527344 509.433594 Z M 304.527344 509.433594 " fill-opacity="1" fill-rule="nonzero"/><path fill="#ffbf00" d="M 304.550781 511.023438 C 304.859375 533.910156 312.089844 553.996094 324.542969 569.828125 C 340.457031 579.230469 361.140625 586.730469 386.945312 587.371094 C 440.308594 588.679688 482.050781 567.382812 500.292969 556.128906 C 504.867188 545.140625 508.402344 531.539062 509.15625 515.226562 C 494.050781 525.53125 463.742188 539.253906 408.289062 541.078125 C 359.242188 542.695312 325.300781 526.90625 304.550781 511.023438 Z M 304.550781 511.023438 " fill-opacity="1" fill-rule="nonzero"/><path fill="#ffbf00" d="M 338.75 409.421875 C 335.359375 412.414062 317.996094 429.148438 309.390625 465.375 C 325.800781 478.269531 353.054688 492.558594 395.246094 495.976562 C 449.652344 500.390625 485.964844 479.378906 503.847656 465.28125 C 496.636719 435.296875 485.015625 418.394531 481.71875 414.027344 C 475.054688 420.890625 465.710938 425.160156 455.34375 425.160156 C 438.910156 425.160156 424.988281 414.386719 420.40625 399.59375 L 420.054688 399.308594 C 409.167969 413.410156 392.804688 422.382812 374.492188 422.382812 C 361.066406 422.382812 348.691406 417.566406 338.75 409.421875 Z M 338.75 409.421875 " fill-opacity="1" fill-rule="nonzero"/><path fill="#ef8800" d="M 335.949219 601.019531 C 324.09375 606.363281 318.757812 618.230469 327.058594 625.640625 C 335.359375 633.070312 343.660156 626.257812 343.660156 626.257812 C 343.660156 626.257812 343.375 641.070312 357.890625 638.410156 C 372.40625 635.753906 368.28125 613.203125 368.28125 613.203125 L 368.445312 612.273438 C 357.015625 610.089844 346.03125 606.363281 335.949219 601.019531 Z M 335.949219 601.019531 " fill-opacity="1" fill-rule="nonzero"/><path fill="#ffbf00" d="M 386.945312 587.371094 C 361.140625 586.730469 340.457031 579.230469 324.542969 569.828125 C 351.175781 603.707031 401.699219 618.117188 459.472656 598.835938 L 459.660156 599.21875 C 468.320312 594.828125 476.429688 589.554688 483.734375 583.429688 C 483.78125 583.40625 483.804688 583.382812 483.828125 583.359375 C 488.996094 577.257812 495.261719 568.261719 500.292969 556.128906 C 482.050781 567.382812 440.308594 588.679688 386.945312 587.371094 Z M 386.945312 587.371094 " fill-opacity="1" fill-rule="nonzero"/><path fill="#ef8800" d="M 406.488281 614.175781 L 406.511719 614.386719 C 406.511719 614.386719 399.113281 638.128906 418.367188 641.6875 C 437.628906 645.25 435.5625 628.914062 435.5625 628.914062 C 435.5625 628.914062 445.363281 639.597656 452.757812 629.203125 C 460.160156 618.824219 447.421875 605.175781 447.421875 605.175781 L 447.257812 604.75 C 434.285156 609.808594 420.433594 612.988281 406.488281 614.175781 Z M 406.488281 614.175781 " fill-opacity="1" fill-rule="nonzero"/><path fill="#ff4000" d="M 521.683594 483.582031 L 522.726562 483.511719 C 522.726562 483.511719 555.335938 476.390625 562.144531 462.738281 C 568.972656 449.089844 549.71875 448.214844 545.257812 451.464844 C 545.257812 451.464844 552.371094 437.53125 544.664062 431.597656 C 536.957031 425.660156 515.898438 450.585938 515.898438 450.585938 L 515.464844 450.730469 C 506.101562 420.128906 490.113281 401.609375 490.113281 401.609375 L 489.6875 401.398438 C 491.109375 397.527344 491.894531 393.324219 491.894531 388.957031 C 491.894531 377.515625 486.554688 367.332031 478.210938 360.734375 L 478.253906 360.660156 C 478.253906 360.660156 486.890625 349.101562 500.808594 335.949219 C 514.066406 326.382812 563.828125 294.996094 608.890625 325.835938 C 668.992188 367 633.414062 436.625 633.414062 436.625 L 633.746094 436.867188 C 603.082031 479.691406 541.699219 500.722656 541.699219 500.722656 C 541.699219 500.722656 600.210938 508.179688 601.585938 574.3125 C 601.871094 588.199219 596.132812 600.097656 587.023438 609.070312 C 587 609.09375 586.976562 609.117188 586.953125 609.117188 C 543.335938 639.429688 498.25 599.125 499.007812 567.976562 L 498.9375 567.929688 C 503.46875 562.28125 507.40625 556.15625 510.652344 549.578125 C 513.785156 543.21875 516.273438 536.402344 517.980469 529.210938 C 520.046875 520.546875 521.234375 512.1875 521.753906 504.191406 C 522.253906 497.046875 522.179688 490.160156 521.683594 483.582031 Z M 549.21875 604.390625 C 565.867188 604.390625 579.363281 590.886719 579.363281 574.222656 C 579.363281 557.554688 565.867188 544.046875 549.21875 544.046875 C 532.570312 544.046875 519.074219 557.554688 519.074219 574.222656 C 519.074219 590.886719 532.570312 604.390625 549.21875 604.390625 Z M 571.75 437.03125 C 600.992188 437.03125 624.710938 413.289062 624.710938 383.996094 C 624.710938 354.726562 600.992188 330.988281 571.75 330.988281 C 542.480469 330.988281 518.765625 354.726562 518.765625 383.996094 C 518.765625 413.289062 542.480469 437.03125 571.75 437.03125 Z M 571.75 437.03125 " fill-opacity="1" fill-rule="nonzero"/><path fill="#ffde3b" d="M 483.828125 583.359375 C 484.472656 582.8125 485.089844 582.265625 485.703125 581.746094 C 490.515625 577.519531 494.953125 572.914062 498.9375 567.929688 C 503.46875 562.28125 507.40625 556.15625 510.652344 549.578125 L 510.273438 549.386719 C 510.273438 549.386719 506.761719 552.117188 500.292969 556.128906 C 495.261719 568.261719 488.996094 577.257812 483.828125 583.359375 Z M 483.828125 583.359375 " fill-opacity="1" fill-rule="nonzero"/><path fill="#e53000" d="M 485.703125 581.746094 L 485.964844 582.03125 C 498.511719 636.75 558.800781 636.894531 586.953125 609.117188 C 543.335938 639.429688 498.25 599.125 499.007812 567.976562 L 498.9375 567.929688 C 494.953125 572.914062 490.515625 577.519531 485.703125 581.746094 Z M 485.703125 581.746094 " fill-opacity="1" fill-rule="nonzero"/><path fill="#ffde3b" d="M 489.6875 401.398438 C 487.933594 406.167969 485.179688 410.445312 481.71875 414.027344 C 485.015625 418.394531 496.636719 435.296875 503.847656 465.28125 C 510.890625 459.703125 515.0625 455.214844 516.347656 453.746094 C 516.058594 452.722656 515.777344 451.726562 515.464844 450.730469 C 506.101562 420.128906 490.113281 401.609375 490.113281 401.609375 Z M 489.6875 401.398438 " fill-opacity="1" fill-rule="nonzero"/><path fill="#ffde3b" d="M 509.15625 515.226562 C 508.402344 531.539062 504.867188 545.140625 500.292969 556.128906 C 506.761719 552.117188 510.273438 549.386719 510.273438 549.386719 L 510.652344 549.578125 C 513.785156 543.21875 516.273438 536.402344 517.980469 529.210938 C 520.046875 520.546875 521.234375 512.1875 521.753906 504.191406 C 520.640625 505.613281 516.867188 509.980469 509.15625 515.226562 Z M 509.15625 515.226562 " fill-opacity="1" fill-rule="nonzero"/><path fill="#ffde3b" d="M 503.847656 465.28125 C 505.816406 473.472656 507.453125 482.660156 508.496094 492.816406 C 509.324219 500.792969 509.492188 508.273438 509.15625 515.226562 C 516.867188 509.980469 520.640625 505.613281 521.753906 504.191406 C 522.253906 497.046875 522.179688 490.160156 521.683594 483.582031 C 520.878906 472.757812 518.910156 462.761719 516.347656 453.746094 C 515.0625 455.214844 510.890625 459.703125 503.847656 465.28125 Z M 503.847656 465.28125 " fill-opacity="1" fill-rule="nonzero"/><path fill="#ffde3b" d="M 516.347656 453.746094 C 518.910156 462.761719 520.878906 472.757812 521.683594 483.582031 L 522.726562 483.511719 C 522.726562 483.511719 555.335938 476.390625 562.144531 462.738281 C 568.972656 449.089844 549.71875 448.214844 545.257812 451.464844 C 545.257812 451.464844 552.371094 437.53125 544.664062 431.597656 C 536.957031 425.660156 515.898438 450.585938 515.898438 450.585938 L 515.464844 450.730469 C 515.777344 451.726562 516.058594 452.722656 516.347656 453.746094 Z M 516.347656 453.746094 " fill-opacity="1" fill-rule="nonzero"/><path fill="#ff7c33" d="M 549.40625 303.6875 C 530.503906 310.738281 513.476562 323.984375 500.808594 335.949219 C 514.066406 326.382812 563.828125 294.996094 608.890625 325.835938 C 668.992188 367 633.414062 436.625 633.414062 436.625 L 633.746094 436.867188 C 643.972656 422.597656 650.800781 405.910156 650.800781 386.773438 C 650.800781 310.214844 589.132812 288.851562 549.40625 303.6875 Z M 549.40625 303.6875 " fill-opacity="1" fill-rule="nonzero"/><path fill="#bf0000" d="M 549.21875 544.046875 C 532.570312 544.046875 519.074219 557.554688 519.074219 574.222656 C 519.074219 590.886719 532.570312 604.390625 549.21875 604.390625 C 565.867188 604.390625 579.363281 590.886719 579.363281 574.222656 C 579.363281 557.554688 565.867188 544.046875 549.21875 544.046875 Z M 549.21875 544.046875 " fill-opacity="1" fill-rule="nonzero"/><path fill="#000000" d="M 549.40625 262.738281 C 549.40625 269.289062 544.09375 274.605469 537.546875 274.605469 C 531.003906 274.605469 525.691406 269.289062 525.691406 262.738281 C 525.691406 256.183594 531.003906 250.867188 537.546875 250.867188 C 544.09375 250.867188 549.40625 256.183594 549.40625 262.738281 Z M 541.699219 263.328125 C 544.308594 263.328125 546.441406 261.195312 546.441406 258.582031 C 546.441406 255.972656 544.308594 253.835938 541.699219 253.835938 C 539.089844 253.835938 536.957031 255.972656 536.957031 258.582031 C 536.957031 261.195312 539.089844 263.328125 541.699219 263.328125 Z M 541.699219 263.328125 " fill-opacity="1" fill-rule="nonzero"/><path fill="#ffff00" d="M 571.75 330.988281 C 542.480469 330.988281 518.765625 354.726562 518.765625 383.996094 C 518.765625 413.289062 542.480469 437.03125 571.75 437.03125 C 600.992188 437.03125 624.710938 413.289062 624.710938 383.996094 C 624.710938 354.726562 600.992188 330.988281 571.75 330.988281 Z M 571.75 330.988281 " fill-opacity="1" fill-rule="nonzero"/><path fill="#ffffff" d="M 546.441406 258.582031 C 546.441406 258.894531 546.414062 259.203125 546.351562 259.507812 C 546.289062 259.8125 546.199219 260.109375 546.082031 260.398438 C 545.960938 260.6875 545.816406 260.960938 545.644531 261.21875 C 545.46875 261.480469 545.273438 261.71875 545.054688 261.9375 C 544.832031 262.160156 544.59375 262.355469 544.335938 262.53125 C 544.074219 262.703125 543.800781 262.847656 543.515625 262.96875 C 543.226562 263.085938 542.929688 263.179688 542.625 263.238281 C 542.320312 263.300781 542.011719 263.328125 541.699219 263.328125 C 541.386719 263.328125 541.078125 263.300781 540.773438 263.238281 C 540.46875 263.179688 540.171875 263.085938 539.882812 262.96875 C 539.597656 262.847656 539.324219 262.703125 539.0625 262.53125 C 538.804688 262.355469 538.566406 262.160156 538.34375 261.9375 C 538.125 261.71875 537.929688 261.480469 537.753906 261.21875 C 537.582031 260.960938 537.4375 260.6875 537.316406 260.398438 C 537.199219 260.109375 537.109375 259.8125 537.046875 259.507812 C 536.984375 259.203125 536.957031 258.894531 536.957031 258.582031 C 536.957031 258.269531 536.984375 257.960938 537.046875 257.65625 C 537.109375 257.351562 537.199219 257.054688 537.316406 256.765625 C 537.4375 256.476562 537.582031 256.203125 537.753906 255.945312 C 537.929688 255.683594 538.125 255.445312 538.34375 255.226562 C 538.566406 255.003906 538.804688 254.808594 539.0625 254.632812 C 539.324219 254.460938 539.597656 254.316406 539.882812 254.195312 C 540.171875 254.078125 540.46875 253.984375 540.773438 253.925781 C 541.078125 253.863281 541.386719 253.835938 541.699219 253.835938 C 542.011719 253.835938 542.320312 253.863281 542.625 253.925781 C 542.929688 253.984375 543.226562 254.078125 543.515625 254.195312 C 543.800781 254.316406 544.074219 254.460938 544.335938 254.632812 C 544.59375 254.808594 544.832031 255.003906 545.054688 255.226562 C 545.273438 255.445312 545.46875 255.683594 545.644531 255.945312 C 545.816406 256.203125 545.960938 256.476562 546.082031 256.765625 C 546.199219 257.054688 546.289062 257.351562 546.351562 257.65625 C 546.414062 257.960938 546.441406 258.269531 546.441406 258.582031 Z M 546.441406 258.582031 " fill-opacity="1" fill-rule="nonzero"/><path fill="#000000" d="M 571.75 328.613281 C 541.226562 328.613281 516.394531 353.460938 516.394531 383.996094 C 516.394531 414.550781 541.226562 439.402344 571.75 439.402344 C 602.261719 439.402344 627.082031 414.550781 627.082031 383.996094 C 627.082031 353.460938 602.261719 328.613281 571.75 328.613281 Z M 571.75 434.65625 C 543.84375 434.65625 521.136719 411.933594 521.136719 383.996094 C 521.136719 356.078125 543.84375 333.359375 571.75 333.359375 C 599.644531 333.359375 622.339844 356.078125 622.339844 383.996094 C 622.339844 411.933594 599.644531 434.65625 571.75 434.65625 Z M 571.75 434.65625 " fill-opacity="1" fill-rule="nonzero"/><path fill="#000000" d="M 248.601562 285.882812 C 233.8125 285.882812 219.910156 291.644531 209.457031 302.105469 C 199 312.566406 193.242188 326.476562 193.242188 341.265625 C 193.242188 371.820312 218.078125 396.671875 248.601562 396.671875 C 279.113281 396.671875 303.933594 371.820312 303.933594 341.265625 C 303.933594 310.730469 279.113281 285.882812 248.601562 285.882812 Z M 248.601562 391.925781 C 220.695312 391.925781 197.988281 369.203125 197.988281 341.265625 C 197.988281 327.742188 203.25 315.027344 212.8125 305.464844 C 222.371094 295.898438 235.078125 290.628906 248.601562 290.628906 C 276.496094 290.628906 299.1875 313.347656 299.1875 341.265625 C 299.1875 369.203125 276.496094 391.925781 248.601562 391.925781 Z M 248.601562 391.925781 " fill-opacity="1" fill-rule="nonzero"/><path fill="#000000" d="M 248.007812 522.679688 C 230.082031 522.679688 215.492188 537.28125 215.492188 555.230469 C 215.492188 573.175781 230.082031 587.773438 248.007812 587.773438 C 265.9375 587.773438 280.527344 573.175781 280.527344 555.230469 C 280.527344 537.28125 265.9375 522.679688 248.007812 522.679688 Z M 248.007812 583.027344 C 232.691406 583.027344 220.238281 570.558594 220.238281 555.230469 C 220.238281 539.902344 232.691406 527.429688 248.007812 527.429688 C 263.320312 527.429688 275.78125 539.902344 275.78125 555.230469 C 275.78125 570.558594 263.320312 583.027344 248.007812 583.027344 Z M 248.007812 583.027344 " fill-opacity="1" fill-rule="nonzero"/><path fill="#000000" d="M 549.21875 541.671875 C 531.289062 541.671875 516.703125 556.273438 516.703125 574.222656 C 516.703125 592.164062 531.289062 606.765625 549.21875 606.765625 C 567.148438 606.765625 581.738281 592.164062 581.738281 574.222656 C 581.738281 556.273438 567.148438 541.671875 549.21875 541.671875 Z M 549.21875 602.019531 C 533.902344 602.019531 521.445312 589.550781 521.445312 574.222656 C 521.445312 558.894531 533.902344 546.421875 549.21875 546.421875 C 564.53125 546.421875 576.992188 558.894531 576.992188 574.222656 C 576.992188 589.550781 564.53125 602.019531 549.21875 602.019531 Z M 549.21875 602.019531 " fill-opacity="1" fill-rule="nonzero"/><path fill="#000000" d="M 323.285156 386.773438 C 324.273438 387.640625 324.367188 389.140625 323.5 390.125 C 311.65625 403.589844 302.042969 418.136719 294.933594 433.359375 L 290.472656 443.914062 C 288.269531 449.617188 286.402344 455.503906 284.90625 461.398438 C 283.230469 467.910156 282.007812 474.628906 281.269531 481.375 C 279.433594 497.886719 280.480469 514.03125 284.390625 529.359375 C 287.71875 542.433594 293.011719 554.480469 300.121094 565.167969 L 305.976562 573.1875 C 314.671875 583.972656 325.128906 592.632812 337.058594 598.921875 C 346.734375 604.046875 357.441406 607.757812 368.890625 609.941406 C 380.894531 612.25 393.480469 612.875 406.292969 611.8125 C 420.144531 610.628906 433.636719 607.507812 446.398438 602.539062 C 450.640625 600.878906 454.746094 599.046875 458.589844 597.097656 C 467.246094 592.707031 475.1875 587.496094 482.210938 581.613281 C 483.214844 580.769531 484.710938 580.902344 485.550781 581.90625 C 486.394531 582.910156 486.261719 584.410156 485.257812 585.253906 C 477.957031 591.367188 469.707031 596.785156 460.734375 601.335938 C 456.753906 603.351562 452.507812 605.246094 448.121094 606.960938 C 434.9375 612.097656 421 615.320312 406.691406 616.539062 C 393.441406 617.644531 380.425781 616.992188 367.996094 614.605469 C 356.089844 612.328125 344.933594 608.46875 334.84375 603.121094 C 322.339844 596.527344 311.386719 587.460938 302.277344 576.160156 C 302.273438 576.15625 296.167969 567.796875 296.167969 567.796875 C 288.765625 556.667969 283.253906 544.128906 279.792969 530.535156 C 275.742188 514.644531 274.652344 497.925781 276.554688 480.851562 C 277.320312 473.886719 278.585938 466.945312 280.3125 460.226562 C 281.851562 454.152344 283.777344 448.089844 286.042969 442.207031 L 290.636719 431.351562 C 297.9375 415.71875 307.796875 400.792969 319.941406 386.988281 C 320.808594 386.003906 322.304688 385.90625 323.285156 386.773438 Z M 323.285156 386.773438 " fill-opacity="1" fill-rule="nonzero"/><path fill="#000000" d="M 491.910156 400.058594 C 492.574219 400.832031 508.328125 419.308594 517.738281 450.035156 L 518.628906 453.105469 C 521.46875 463.109375 523.296875 473.3125 524.046875 483.40625 C 524.578125 490.390625 524.601562 497.441406 524.121094 504.355469 C 523.5625 512.871094 522.277344 521.421875 520.289062 529.761719 C 518.578125 536.953125 516.054688 543.972656 512.78125 550.628906 C 509.507812 557.246094 505.476562 563.566406 500.785156 569.414062 C 496.792969 574.414062 492.246094 579.164062 487.265625 583.53125 C 487.234375 583.558594 485.367188 585.167969 485.367188 585.167969 C 484.375 586.023438 482.886719 585.902344 482.03125 584.910156 C 481.179688 583.917969 481.296875 582.40625 482.292969 581.550781 L 484.175781 579.929688 C 488.90625 575.777344 493.265625 571.230469 497.085938 566.445312 C 501.558594 560.863281 505.410156 554.835938 508.527344 548.527344 C 511.644531 542.195312 514.050781 535.511719 515.675781 528.664062 C 517.601562 520.582031 518.847656 512.296875 519.386719 504.035156 C 519.851562 497.34375 519.832031 490.523438 519.316406 483.761719 C 518.589844 473.984375 516.824219 464.101562 514.0625 454.394531 C 514.0625 454.382812 513.203125 451.429688 513.203125 451.429688 C 504.105469 421.710938 488.472656 403.34375 488.320312 403.164062 C 487.464844 402.171875 487.574219 400.671875 488.566406 399.816406 C 489.558594 398.957031 491.054688 399.066406 491.910156 400.058594 Z M 491.910156 400.058594 " fill-opacity="1" fill-rule="nonzero"/><path fill="#000000" d="M 454.972656 436.675781 C 455.929688 437.578125 455.980469 439.074219 455.085938 440.03125 C 454.144531 441.035156 431.648438 464.558594 392.722656 462.140625 C 353.851562 459.730469 338.851562 440.972656 338.230469 440.171875 C 337.429688 439.140625 337.613281 437.65625 338.640625 436.847656 C 339.671875 436.042969 341.164062 436.226562 341.96875 437.253906 C 342.113281 437.433594 356.445312 455.136719 393.019531 457.402344 C 429.632812 459.675781 451.40625 437.011719 451.625 436.785156 C 452.523438 435.828125 454.023438 435.78125 454.972656 436.675781 Z M 454.972656 436.675781 " fill-opacity="1" fill-rule="nonzero"/><path fill="#000000" d="M 450.804688 430.511719 C 451.179688 430.632812 460.046875 433.484375 460.769531 443.578125 C 460.867188 444.890625 459.878906 446.023438 458.574219 446.117188 C 457.265625 446.210938 456.132812 445.226562 456.039062 443.921875 C 455.550781 437.117188 449.640625 435.125 449.386719 435.046875 C 448.148438 434.644531 447.457031 433.3125 447.847656 432.070312 C 448.242188 430.828125 449.558594 430.128906 450.804688 430.511719 Z M 450.804688 430.511719 " fill-opacity="1" fill-rule="nonzero"/><path fill="#000000" d="M 346.695312 430.847656 C 347.257812 432.023438 346.769531 433.445312 345.59375 434.015625 C 345.53125 434.046875 339.210938 437.203125 337.972656 443.609375 C 337.71875 444.894531 336.480469 445.738281 335.191406 445.488281 C 333.910156 445.238281 333.066406 443.992188 333.316406 442.707031 C 335.015625 433.917969 343.1875 429.90625 343.535156 429.738281 C 344.714844 429.175781 346.125 429.671875 346.695312 430.847656 Z M 346.695312 430.847656 " fill-opacity="1" fill-rule="nonzero"/><path fill="#000000" d="M 488.273438 581.5 C 493.125 602.648438 506.058594 617.289062 524.683594 622.726562 C 545.183594 628.703125 570.09375 622.410156 585.289062 607.429688 C 586.21875 606.507812 587.722656 606.515625 588.644531 607.453125 C 589.558594 608.382812 589.550781 609.886719 588.621094 610.808594 C 572.003906 627.199219 545.78125 633.820312 523.359375 627.28125 C 503.003906 621.347656 488.90625 605.460938 483.652344 582.5625 C 483.359375 581.28125 484.15625 580.011719 485.433594 579.714844 C 486.710938 579.425781 487.984375 580.222656 488.273438 581.5 Z M 488.273438 581.5 " fill-opacity="1" fill-rule="nonzero"/><path fill="#000000" d="M 618.582031 310.492188 C 634.359375 321.457031 653.171875 343.59375 653.171875 386.773438 C 653.171875 404.726562 647.285156 422.042969 635.675781 438.25 C 610.855469 472.914062 567.070312 493.199219 549.753906 500.195312 C 566.09375 504.992188 602.859375 521.582031 603.957031 574.265625 C 603.964844 574.617188 603.964844 574.964844 603.964844 575.3125 C 603.964844 588.664062 598.699219 600.902344 588.6875 610.761719 C 587.753906 611.679688 586.253906 611.667969 585.332031 610.734375 C 584.414062 609.796875 584.429688 608.296875 585.359375 607.378906 C 594.679688 598.199219 599.46875 586.78125 599.214844 574.367188 C 597.898438 511.121094 543.703125 503.378906 541.398438 503.078125 C 540.304688 502.9375 539.453125 502.058594 539.339844 500.964844 C 539.230469 499.863281 539.886719 498.835938 540.929688 498.480469 C 541.539062 498.269531 601.960938 477.179688 631.820312 435.480469 C 642.839844 420.097656 648.425781 403.710938 648.425781 386.773438 C 648.425781 345.648438 630.726562 324.714844 615.875 314.394531 C 597.109375 301.355469 571.351562 298.027344 550.238281 305.914062 C 534.695312 311.707031 518.613281 322.394531 502.441406 337.675781 C 488.84375 350.515625 480.242188 361.96875 480.15625 362.085938 C 479.371094 363.132812 477.886719 363.347656 476.839844 362.5625 C 475.785156 361.777344 475.574219 360.289062 476.355469 359.242188 C 476.710938 358.761719 485.273438 347.363281 499.183594 334.222656 C 515.824219 318.503906 532.4375 307.484375 548.578125 301.464844 C 571.449219 292.921875 598.273438 296.382812 618.582031 310.492188 Z M 618.582031 310.492188 " fill-opacity="1" fill-rule="nonzero"/><path fill="#000000" d="M 184.035156 289.328125 C 185.097656 290.097656 185.332031 291.582031 184.5625 292.640625 C 171.132812 311.136719 167.683594 335.167969 174.589844 362.136719 C 186.105469 407.121094 225.714844 454.519531 268.773438 474.835938 C 269.636719 475.246094 270.171875 476.125 270.136719 477.074219 C 270.097656 478.027344 269.496094 478.867188 268.605469 479.203125 C 268.332031 479.304688 241 489.902344 222.941406 511.070312 C 218.53125 516.222656 214.984375 521.660156 212.402344 527.242188 C 204.046875 545.257812 204.867188 567.132812 214.492188 582.980469 C 222.316406 595.855469 235.160156 603.316406 250.671875 603.992188 C 289.277344 605.671875 300.648438 575.953125 301.113281 574.6875 C 301.566406 573.457031 302.925781 572.824219 304.15625 573.277344 C 305.382812 573.726562 306.015625 575.082031 305.566406 576.3125 C 305.441406 576.65625 292.628906 610.566406 250.46875 608.734375 C 233.324219 607.988281 219.109375 599.71875 210.4375 585.445312 C 204.789062 576.148438 201.929688 564.949219 201.929688 553.546875 C 201.929688 543.914062 203.972656 534.136719 208.101562 525.246094 C 210.867188 519.269531 214.644531 513.464844 219.332031 507.984375 C 233.789062 491.035156 253.3125 480.839844 262.191406 476.789062 C 219.757812 454.816406 181.421875 407.953125 169.996094 363.3125 C 167.570312 353.859375 166.371094 344.738281 166.371094 336.050781 C 166.371094 318.644531 171.195312 302.976562 180.722656 289.851562 C 181.492188 288.792969 182.980469 288.558594 184.035156 289.328125 Z M 184.035156 289.328125 " fill-opacity="1" fill-rule="nonzero"/><path fill="#000000" d="M 266.222656 258.214844 C 299.386719 269.5625 321.035156 303.800781 325.226562 323.367188 C 325.5 324.652344 324.683594 325.914062 323.402344 326.1875 C 322.125 326.460938 320.863281 325.644531 320.585938 324.363281 C 316.46875 305.125 294.75 272.992188 264.6875 262.707031 C 242.027344 254.953125 219.234375 260.566406 196.953125 279.390625 C 192.210938 283.394531 188.054688 287.839844 184.609375 292.597656 C 183.839844 293.65625 182.359375 293.894531 181.296875 293.125 C 180.238281 292.355469 180 290.867188 180.769531 289.808594 C 184.441406 284.738281 188.863281 280.011719 193.898438 275.761719 C 217.207031 256.070312 242.214844 250.003906 266.222656 258.214844 Z M 266.222656 258.214844 " fill-opacity="1" fill-rule="nonzero"/><path fill="#000000" d="M 546.109375 429.714844 C 549.539062 432.351562 550.621094 436.117188 550.621094 439.835938 C 550.621094 442.730469 549.957031 445.570312 549.230469 447.847656 C 553.726562 447.207031 559.363281 447.820312 562.851562 450.777344 C 564.929688 452.542969 567.882812 456.578125 564.261719 463.804688 C 557.035156 478.300781 524.609375 485.535156 523.230469 485.832031 C 521.953125 486.113281 520.6875 485.300781 520.410156 484.019531 C 520.132812 482.738281 520.941406 481.472656 522.21875 481.195312 C 530.984375 479.277344 554.859375 472.03125 560.023438 461.679688 C 562.511719 456.710938 560.460938 454.972656 559.789062 454.402344 C 556.4375 451.566406 548.671875 451.914062 546.65625 453.382812 C 545.765625 454.03125 544.558594 453.980469 543.71875 453.273438 C 542.886719 452.558594 542.648438 451.367188 543.144531 450.386719 C 543.203125 450.265625 549.171875 438.058594 543.21875 433.476562 C 539.683594 430.757812 527.171875 440.921875 517.707031 452.121094 C 516.859375 453.117188 515.363281 453.242188 514.363281 452.398438 C 513.363281 451.550781 513.238281 450.054688 514.085938 449.050781 C 517.847656 444.601562 537.066406 422.75 546.109375 429.714844 Z M 546.109375 429.714844 " fill-opacity="1" fill-rule="nonzero"/><path fill="#000000" d="M 254.609375 419.808594 C 254.203125 420.9375 254.011719 422.101562 254.011719 423.257812 C 254.011719 425.03125 254.488281 426.769531 255.34375 428.328125 C 250.902344 429.6875 246.023438 433.527344 245.242188 442.351562 C 245.210938 442.738281 245.191406 443.121094 245.191406 443.503906 C 245.191406 446.667969 246.386719 449.574219 248.742188 452.160156 C 255.984375 460.078125 272.980469 463.027344 281.992188 463.027344 C 283.304688 463.027344 284.367188 461.964844 284.367188 460.652344 C 284.367188 459.339844 283.304688 458.28125 281.992188 458.28125 C 273.433594 458.28125 258.058594 455.3125 252.246094 448.953125 C 250.511719 447.054688 249.765625 445.035156 249.964844 442.773438 C 250.90625 432.195312 258.972656 432.40625 259.890625 432.46875 C 260.953125 432.539062 261.945312 431.882812 262.292969 430.871094 C 262.640625 429.855469 262.273438 428.738281 261.390625 428.136719 C 259.15625 426.617188 258.203125 423.847656 259.074219 421.40625 C 260.132812 418.433594 263.640625 416.914062 268.453125 417.34375 C 280.429688 418.410156 289.660156 432.988281 289.753906 433.136719 C 290.449219 434.25 291.910156 434.585938 293.019531 433.894531 C 294.128906 433.199219 294.472656 431.738281 293.777344 430.625 C 293.355469 429.941406 283.21875 413.890625 268.875 412.613281 C 261.773438 411.980469 256.441406 414.671875 254.609375 419.808594 Z M 260.242188 427.734375 C 260.179688 427.730469 260.117188 427.730469 260.054688 427.722656 C 260.117188 427.722656 260.175781 427.730469 260.242188 427.734375 Z M 260.242188 427.734375 " fill-opacity="1" fill-rule="nonzero"/><path fill="#000000" d="M 449.15625 603.558594 C 449.730469 604.167969 463.121094 618.761719 454.691406 630.578125 C 452.234375 634.035156 449.242188 635.886719 445.796875 636.101562 C 442.648438 636.300781 439.773438 635.011719 437.625 633.625 C 437.179688 636.003906 436.203125 638.761719 433.867188 640.96875 C 430.347656 644.300781 424.988281 645.324219 417.9375 644.019531 C 412.332031 642.988281 408.191406 640.300781 405.625 636.046875 C 400.183594 627.019531 404.078125 614.222656 404.246094 613.679688 C 404.640625 612.433594 405.964844 611.730469 407.214844 612.121094 C 408.464844 612.511719 409.164062 613.839844 408.777344 615.09375 C 408.742188 615.203125 405.351562 626.421875 409.699219 633.605469 C 411.554688 636.6875 414.535156 638.5625 418.800781 639.351562 C 424.261719 640.363281 428.226562 639.75 430.589844 637.539062 C 433.800781 634.53125 433.214844 629.257812 433.210938 629.203125 C 433.089844 628.183594 433.640625 627.199219 434.574219 626.769531 C 435.503906 626.335938 436.605469 626.554688 437.304688 627.304688 C 438.421875 628.511719 442.074219 631.585938 445.519531 631.363281 C 447.488281 631.238281 449.226562 630.078125 450.828125 627.824219 C 457.007812 619.164062 445.804688 606.914062 445.691406 606.792969 C 444.796875 605.832031 444.851562 604.335938 445.804688 603.441406 C 446.765625 602.546875 448.265625 602.597656 449.15625 603.558594 Z M 449.15625 603.558594 " fill-opacity="1" fill-rule="nonzero"/><path fill="#000000" d="M 334.976562 598.855469 C 327.25 602.335938 321.828125 608.53125 320.832031 615.023438 C 320.113281 619.695312 321.761719 624.097656 325.476562 627.40625 C 331.335938 632.65625 337.578125 631.945312 341.773438 630.085938 C 342.308594 632.65625 343.441406 635.894531 346.226562 638.261719 C 349.242188 640.832031 353.308594 641.664062 358.316406 640.746094 C 362.191406 640.039062 365.269531 638.066406 367.460938 634.886719 C 373.082031 626.734375 370.714844 613.339844 370.609375 612.769531 C 370.375 611.484375 369.140625 610.632812 367.855469 610.863281 C 366.566406 611.101562 365.714844 612.335938 365.945312 613.628906 C 365.980469 613.828125 369.46875 633.875 357.464844 636.078125 C 353.933594 636.722656 351.195312 636.246094 349.316406 634.660156 C 346 631.859375 346.03125 626.351562 346.03125 626.296875 C 346.046875 625.378906 345.515625 624.53125 344.691406 624.128906 C 343.867188 623.726562 342.882812 623.835938 342.164062 624.414062 C 341.46875 624.972656 335.167969 629.71875 328.636719 623.871094 C 326.125 621.625 325.046875 618.816406 325.519531 615.742188 C 326.265625 610.902344 330.738281 605.972656 336.925781 603.1875 C 338.117188 602.652344 338.652344 601.242188 338.113281 600.046875 C 337.582031 598.851562 336.171875 598.316406 334.976562 598.855469 Z M 341.289062 626.257812 C 341.289062 626.257812 341.289062 626.226562 341.289062 626.210938 C 341.289062 626.214844 341.289062 626.242188 341.289062 626.257812 Z M 341.289062 626.257812 " fill-opacity="1" fill-rule="nonzero"/><path fill="#000000" d="M 284.644531 528.621094 C 284.773438 528.84375 297.976562 551.382812 325.75 567.785156 C 344.15625 578.65625 364.765625 584.445312 387.003906 584.996094 C 438.871094 586.265625 479.464844 566.191406 499.046875 554.109375 C 505.3125 550.226562 508.785156 547.539062 508.820312 547.515625 C 509.855469 546.710938 511.34375 546.898438 512.144531 547.933594 C 512.953125 548.972656 512.761719 550.460938 511.726562 551.265625 C 511.582031 551.378906 508.046875 554.117188 501.539062 558.148438 C 481.507812 570.507812 439.984375 591.042969 386.886719 589.746094 C 363.828125 589.175781 342.445312 583.160156 323.335938 571.875 C 294.433594 554.804688 281.085938 531.953125 280.53125 530.988281 C 279.878906 529.851562 280.265625 528.402344 281.40625 527.75 C 282.539062 527.09375 283.984375 527.484375 284.644531 528.621094 Z M 284.644531 528.621094 " fill-opacity="1" fill-rule="nonzero"/><path fill="#000000" d="M 281.402344 481.128906 C 281.503906 483.078125 288.183594 495.523438 305.988281 509.140625 C 324.8125 523.542969 357.824219 540.367188 408.210938 538.707031 C 462.324219 536.925781 492.25 523.886719 507.824219 513.265625 C 515.402344 508.109375 518.972656 503.894531 519.886719 502.726562 C 519.890625 502.722656 520.207031 502.308594 520.207031 502.308594 C 521.003906 501.265625 522.53125 501.011719 523.574219 501.804688 C 524.609375 502.601562 524.855469 504.027344 524.0625 505.070312 L 523.613281 505.660156 C 522.3125 507.324219 518.414062 511.800781 510.492188 517.191406 C 494.402344 528.167969 463.621094 541.632812 408.367188 543.453125 C 356.582031 545.160156 322.546875 527.785156 303.109375 512.914062 C 286.078125 499.886719 276.65625 485.859375 276.65625 481.136719 C 276.65625 479.851562 277.6875 478.855469 278.96875 478.820312 C 280.257812 478.785156 281.335938 479.839844 281.402344 481.128906 Z M 281.402344 481.128906 " fill-opacity="1" fill-rule="nonzero"/><path fill="#000000" d="M 290.582031 441.988281 C 290.636719 442.089844 296.515625 452.28125 310.847656 463.503906 C 325.910156 475.332031 352.808594 490.15625 395.433594 493.609375 C 449.59375 498.003906 485.683594 476.578125 502.378906 463.417969 C 509.746094 457.585938 513.816406 453.035156 514.558594 452.183594 C 514.605469 452.132812 515 451.695312 515 451.695312 C 515.878906 450.722656 517.417969 450.605469 518.390625 451.488281 C 519.359375 452.363281 519.472656 453.820312 518.59375 454.792969 L 518.082031 455.359375 C 517.023438 456.578125 512.820312 461.199219 505.316406 467.140625 C 488.074219 480.738281 450.828125 502.871094 395.054688 498.339844 C 351.246094 494.792969 323.496094 479.472656 307.925781 467.242188 C 292.789062 455.386719 286.707031 444.769531 286.449219 444.324219 C 285.808594 443.183594 286.210938 441.734375 287.347656 441.089844 C 288.488281 440.445312 289.933594 440.847656 290.582031 441.988281 Z M 290.582031 441.988281 " fill-opacity="1" fill-rule="nonzero"/><path fill="#000000" d="M 526.742188 259.574219 C 527.175781 260.8125 526.527344 262.171875 525.292969 262.601562 C 455.433594 287.25 453.367188 352.335938 453.351562 352.992188 C 453.328125 354.300781 452.246094 355.34375 450.9375 355.320312 C 449.628906 355.296875 448.585938 354.214844 448.609375 352.902344 C 448.621094 352.21875 450.671875 283.894531 523.714844 258.125 C 524.953125 257.691406 526.3125 258.335938 526.742188 259.574219 Z M 526.742188 259.574219 " fill-opacity="1" fill-rule="nonzero"/><path fill="#000000" d="M 369.382812 224.675781 C 402.6875 277.660156 397.238281 312.144531 396.992188 313.585938 C 396.769531 314.878906 395.546875 315.742188 394.253906 315.523438 C 392.964844 315.300781 392.097656 314.078125 392.3125 312.785156 C 392.371094 312.449219 397.605469 278.480469 365.371094 227.207031 C 364.671875 226.097656 365.003906 224.628906 366.113281 223.933594 C 367.222656 223.234375 368.6875 223.566406 369.382812 224.675781 Z M 369.382812 224.675781 " fill-opacity="1" fill-rule="nonzero"/><path fill="#000000" d="M 537.546875 248.492188 C 529.703125 248.492188 523.316406 254.882812 523.316406 262.738281 C 523.316406 270.589844 529.703125 276.980469 537.546875 276.980469 C 545.394531 276.980469 551.777344 270.589844 551.777344 262.738281 C 551.777344 254.882812 545.394531 248.492188 537.546875 248.492188 Z M 537.546875 248.492188 " fill-opacity="1" fill-rule="nonzero"/><g clip-path="url(#8b2279dca5)"><path fill="#000000" d="M 357.890625 202.792969 C 350.042969 202.792969 343.660156 209.183594 343.660156 217.039062 C 343.660156 224.894531 350.042969 231.28125 357.890625 231.28125 C 365.738281 231.28125 372.121094 224.894531 372.121094 217.039062 C 372.121094 209.183594 365.738281 202.792969 357.890625 202.792969 Z M 357.890625 202.792969 " fill-opacity="1" fill-rule="nonzero"/></g><path fill="#ffffff" d="M 412.0625 322.269531 L 412.980469 322.304688 C 422.550781 315.625 434.183594 311.730469 446.765625 311.730469 C 460.648438 311.730469 473.460938 316.542969 483.527344 324.558594 C 496.953125 335.167969 505.53125 351.546875 505.53125 369.941406 C 505.53125 376.964844 504.273438 383.71875 501.980469 389.945312 C 499.164062 397.613281 494.738281 404.484375 489.167969 410.25 C 478.453125 421.28125 463.433594 428.152344 446.765625 428.152344 C 420.335938 428.152344 397.953125 410.820312 390.59375 387.039062 L 390.019531 386.582031 C 403.484375 369.101562 411.722656 346.734375 412.0625 322.269531 Z M 412.0625 322.269531 " fill-opacity="1" fill-rule="nonzero"/><path fill="#000000" d="M 448.878906 357.039062 C 442.535156 357.039062 437.394531 365.511719 437.394531 375.984375 C 437.394531 386.457031 442.535156 394.929688 448.878906 394.929688 C 455.160156 394.929688 460.269531 386.578125 460.328125 376.195312 C 459.253906 376.703125 458.085938 376.972656 456.832031 376.972656 C 452.167969 376.972656 448.367188 372.960938 448.367188 367.992188 C 448.367188 363.953125 450.910156 360.511719 454.410156 359.40625 C 452.765625 357.90625 450.878906 357.039062 448.878906 357.039062 Z M 448.878906 357.039062 " fill-opacity="1" fill-rule="nonzero"/><path fill="#000000" d="M 485.003906 322.703125 C 499.554688 334.199219 507.902344 351.421875 507.902344 369.941406 C 507.902344 377.09375 506.660156 384.101562 504.210938 390.765625 C 501.320312 398.621094 496.835938 405.730469 490.875 411.898438 C 479.210938 423.910156 463.542969 430.523438 446.765625 430.523438 C 419.730469 430.523438 396.25 413.332031 388.328125 387.742188 C 387.945312 386.492188 388.644531 385.160156 389.894531 384.769531 C 391.144531 384.382812 392.476562 385.085938 392.859375 386.339844 C 400.046875 409.558594 422.214844 425.777344 446.765625 425.777344 C 462.25 425.777344 476.707031 419.675781 487.46875 408.59375 C 492.964844 402.910156 497.097656 396.359375 499.757812 389.125 C 502.015625 382.984375 503.160156 376.53125 503.160156 369.941406 C 503.160156 352.886719 495.46875 337.019531 482.058594 326.417969 C 472.082031 318.476562 459.550781 314.105469 446.765625 314.105469 C 435.0625 314.105469 423.847656 317.613281 414.335938 324.253906 C 413.257812 325 411.785156 324.738281 411.035156 323.660156 C 410.285156 322.585938 410.550781 321.109375 411.625 320.359375 C 421.9375 313.160156 434.089844 309.355469 446.765625 309.355469 C 460.617188 309.355469 474.199219 314.097656 485.003906 322.703125 Z M 485.003906 322.703125 " fill-opacity="1" fill-rule="nonzero"/><path fill="#ffffff" d="M 319.324219 334.050781 C 329.785156 315.820312 348.449219 303.6875 369.75 303.6875 C 402.503906 303.6875 429.042969 332.386719 429.042969 367.78125 C 429.042969 368.117188 429.042969 368.472656 429.019531 368.804688 C 428.804688 384.019531 423.683594 397.933594 415.3125 408.804688 C 404.425781 422.90625 388.058594 431.878906 369.75 431.878906 C 356.324219 431.878906 343.945312 427.0625 334.003906 418.917969 C 327.15625 413.316406 321.460938 406.121094 317.378906 397.859375 C 312.96875 388.886719 310.453125 378.65625 310.453125 367.78125 C 310.453125 355.390625 313.707031 343.851562 319.324219 334.050781 Z M 319.324219 334.050781 " fill-opacity="1" fill-rule="nonzero"/><path fill="#000000" d="M 376.605469 353.539062 C 370.886719 353.539062 366.261719 363.984375 366.261719 376.875 C 366.261719 389.765625 370.886719 400.234375 376.605469 400.234375 C 382.269531 400.234375 386.875 389.886719 386.921875 377.113281 C 385.972656 377.757812 384.90625 378.109375 383.765625 378.109375 C 379.570312 378.109375 376.15625 373.171875 376.15625 367.046875 C 376.15625 362.039062 378.453125 357.8125 381.585938 356.460938 C 380.117188 354.585938 378.40625 353.539062 376.605469 353.539062 Z M 376.605469 353.539062 " fill-opacity="1" fill-rule="nonzero"/><path fill="#000000" d="M 369.75 301.3125 C 348.222656 301.3125 328.605469 313.109375 317.269531 332.871094 C 311.261719 343.347656 308.082031 355.421875 308.082031 367.78125 C 308.082031 378.605469 310.5625 389.371094 315.253906 398.914062 C 319.449219 407.40625 325.417969 414.960938 332.503906 420.753906 C 343.285156 429.585938 356.160156 434.253906 369.75 434.253906 C 388.125 434.253906 405.414062 425.507812 417.1875 410.253906 C 426.132812 398.640625 431.175781 383.929688 431.386719 368.96875 L 431.414062 367.78125 C 431.414062 331.128906 403.75 301.3125 369.75 301.3125 Z M 369.75 429.503906 C 357.269531 429.503906 345.429688 425.210938 335.507812 417.078125 C 328.9375 411.710938 323.402344 404.699219 319.511719 396.8125 C 315.136719 387.921875 312.828125 377.882812 312.828125 367.78125 C 312.828125 356.25 315.785156 344.992188 321.382812 335.234375 C 331.859375 316.964844 349.941406 306.0625 369.75 306.0625 C 401.136719 306.0625 426.671875 333.75 426.671875 367.78125 C 426.671875 367.78125 426.652344 368.640625 426.648438 368.769531 C 426.449219 382.84375 421.753906 396.546875 413.429688 407.355469 C 402.5625 421.433594 386.640625 429.503906 369.75 429.503906 Z M 369.75 429.503906 " fill-opacity="1" fill-rule="nonzero"/></svg>