<svg xmlns="http://www.w3.org/2000/svg" xmlns:xlink="http://www.w3.org/1999/xlink" width="500" zoomAndPan="magnify" viewBox="0 0 375 374.999991" height="500" preserveAspectRatio="xMidYMid meet" version="1.0"><defs><clipPath id="a0aef67df3"><path d="M 44 60 L 321.578125 60 L 321.578125 297.65625 L 44 297.65625 Z M 44 60 " clip-rule="nonzero"/></clipPath><clipPath id="b04fcf2759"><path d="M 43 58.40625 L 159 58.40625 L 159 149 L 43 149 Z M 43 58.40625 " clip-rule="nonzero"/></clipPath></defs><path fill="#a7c957" d="M 310.398438 171.382812 C 310.34375 177.0625 310.207031 182.636719 309.152344 188.234375 C 308.652344 190.882812 308.144531 193.539062 307.597656 196.179688 C 307.039062 198.898438 306.175781 201.410156 305 203.921875 C 303.878906 206.3125 302.882812 208.757812 301.773438 211.152344 C 300.621094 213.648438 299.339844 216.082031 298.023438 218.488281 C 295.460938 223.171875 292.109375 227.117188 288.640625 231.136719 C 286.894531 233.164062 285.101562 235.078125 282.890625 236.605469 C 280.84375 238.019531 278.589844 239.121094 276.355469 240.214844 C 273.957031 241.386719 271.480469 242.457031 268.839844 242.949219 C 266.148438 243.453125 263.453125 243.925781 260.792969 244.582031 C 255.324219 245.933594 249.964844 247.414062 244.683594 249.402344 C 239.59375 251.320312 234.601562 253.464844 229.714844 255.859375 C 227.488281 256.949219 225.425781 258.238281 223.355469 259.601562 C 221.640625 260.730469 219.792969 261.648438 218.199219 262.957031 C 217.230469 263.746094 216.328125 264.378906 215.085938 264.652344 C 213.195312 265.0625 211.148438 265.1875 209.234375 264.886719 C 207.273438 264.578125 205.40625 264.160156 203.40625 264.097656 C 201.785156 264.046875 200.175781 264.265625 198.554688 264.234375 C 196.507812 264.191406 194.460938 263.945312 192.425781 263.769531 C 190.421875 263.597656 188.410156 263.480469 186.417969 263.222656 C 184.707031 263 183.027344 262.617188 181.3125 262.441406 C 179.433594 262.25 177.542969 262.132812 175.65625 262 C 171.84375 261.738281 168.03125 261.433594 164.226562 261.121094 C 162.425781 260.972656 160.625 260.832031 158.828125 260.6875 C 156.75 260.527344 154.683594 260.269531 152.601562 260.449219 C 150.996094 260.585938 149.585938 260.503906 148.078125 259.878906 C 146.398438 259.179688 144.660156 258.257812 143.433594 256.878906 C 142.3125 255.617188 141.382812 254.21875 140.230469 252.976562 C 139.0625 251.722656 137.886719 250.46875 136.71875 249.210938 C 135.230469 247.617188 133.6875 246.058594 132.371094 244.316406 C 131.339844 242.949219 130.394531 241.554688 129.230469 240.289062 C 128.5 239.496094 127.726562 238.8125 126.804688 238.25 C 126.226562 237.898438 125.613281 237.589844 125.0625 237.1875 C 123.578125 236.105469 122.910156 234.429688 122.558594 232.675781 C 122.179688 230.796875 122.34375 229.214844 123.136719 227.484375 C 124.015625 225.570312 124.488281 223.617188 125.117188 221.621094 C 125.601562 220.089844 126.242188 218.621094 126.703125 217.082031 C 127.296875 215.078125 127.734375 213.050781 127.964844 210.976562 C 128.371094 207.28125 129.386719 203.640625 130.308594 200.046875 C 130.828125 198.023438 131.367188 196.003906 132.074219 194.035156 C 132.671875 192.363281 133.140625 190.699219 133.484375 188.957031 C 133.464844 186.171875 133.660156 183.390625 133.640625 180.609375 C 133.621094 177.851562 133.359375 175.113281 133.476562 172.359375 C 133.59375 169.625 133.652344 166.878906 134.03125 164.167969 C 134.402344 161.488281 135.226562 158.90625 135.792969 156.265625 C 136.640625 152.308594 137.328125 148.273438 139.152344 144.621094 C 141.132812 140.652344 142.097656 136.269531 144.242188 132.382812 C 145.507812 130.085938 146.894531 127.8125 148.40625 125.671875 C 149.917969 123.527344 151.777344 121.65625 153.4375 119.632812 C 155.09375 117.613281 156.839844 115.683594 158.675781 113.828125 C 160.523438 111.960938 162.21875 109.925781 164.214844 108.21875 C 166.1875 106.53125 168.425781 105.230469 170.628906 103.878906 C 172.960938 102.453125 175.222656 100.921875 177.636719 99.636719 C 182.199219 97.207031 187.210938 95.410156 192.171875 93.976562 C 194.886719 93.191406 197.628906 92.421875 200.371094 91.730469 C 202.992188 91.070312 205.675781 90.792969 208.363281 90.578125 C 213.910156 90.136719 219.4375 89.945312 225 90 C 230.523438 90.058594 236.003906 91.1875 241.417969 92.210938 C 246.714844 93.214844 252.21875 94.730469 257.035156 97.199219 C 259.359375 98.394531 261.652344 99.628906 264.019531 100.742188 C 266.523438 101.921875 268.90625 103.230469 271.253906 104.703125 C 275.953125 107.652344 280.25 111.109375 284.277344 114.925781 C 286.214844 116.757812 288.164062 118.65625 289.84375 120.734375 C 291.414062 122.675781 292.714844 124.8125 294.210938 126.808594 C 295.78125 128.910156 297.632812 130.785156 299.078125 132.980469 C 300.511719 135.15625 301.546875 137.566406 302.660156 139.910156 C 303.851562 142.421875 305.179688 144.867188 306.222656 147.449219 C 307.214844 149.890625 307.714844 152.425781 308.167969 155.007812 C 308.648438 157.75 309.371094 160.4375 309.859375 163.171875 C 310.34375 165.890625 310.425781 168.628906 310.398438 171.382812 Z M 310.398438 171.382812 " fill-opacity="1" fill-rule="nonzero"/><g clip-path="url(#a0aef67df3)"><path fill="#f2deb9" d="M 320.441406 248.203125 C 319.898438 248.941406 319.199219 249.546875 318.601562 250.238281 C 317.683594 251.308594 317.117188 252.515625 316.574219 253.808594 C 314.121094 259.664062 310.949219 264.90625 306.953125 269.832031 C 305.015625 272.21875 302.964844 274.464844 300.347656 276.109375 C 297.789062 277.714844 294.945312 278.996094 292.160156 280.148438 C 286.339844 282.558594 279.804688 282.851562 273.570312 282.859375 C 270.367188 282.863281 267.09375 282.777344 263.902344 282.46875 C 260.78125 282.167969 257.832031 281.222656 254.804688 280.480469 C 251.570312 279.6875 248.242188 279.175781 244.964844 278.597656 C 241.558594 277.996094 238.066406 277.667969 234.609375 277.585938 C 228 277.429688 221.558594 279.050781 215.28125 280.941406 C 208.917969 282.863281 202.683594 285.144531 196.417969 287.355469 C 189.867188 289.671875 183.34375 291.992188 176.605469 293.726562 C 170.082031 295.40625 163.527344 297.003906 156.777344 297.320312 C 153.574219 297.46875 150.355469 297.441406 147.148438 297.332031 C 143.804688 297.214844 140.414062 297.398438 137.09375 296.925781 C 133.757812 296.453125 130.375 295.558594 127.125 294.675781 C 124.011719 293.832031 120.921875 292.773438 117.898438 291.644531 C 111.957031 289.429688 106.359375 286.292969 101.757812 281.902344 C 97.210938 277.5625 93.398438 272.308594 90.707031 266.621094 C 89.40625 263.875 88.476562 260.992188 87.625 258.082031 C 86.726562 255.011719 85.550781 252.015625 84.808594 248.898438 C 84.03125 245.628906 83.714844 242.28125 82.832031 239.027344 C 81.992188 235.925781 81.195312 232.820312 80.398438 229.703125 C 78.714844 223.140625 77.441406 216.472656 76.730469 209.730469 C 75.976562 202.585938 73.949219 195.636719 72.996094 188.527344 C 72.082031 181.699219 71.667969 174.820312 70.804688 167.988281 C 70.371094 164.527344 70.117188 161.085938 70.011719 157.601562 C 69.90625 154.238281 69.480469 150.9375 69.234375 147.589844 C 68.980469 144.203125 69.550781 140.902344 69.71875 137.53125 C 69.878906 134.320312 69.542969 131.097656 69.949219 127.894531 C 70.683594 122.078125 72.21875 116.09375 75.859375 111.398438 C 77.558594 109.269531 79.519531 107.328125 81.882812 105.941406 C 82.191406 105.757812 82.507812 105.585938 82.828125 105.421875 C 82.167969 102.664062 81.101562 99.992188 79.804688 97.53125 C 77.230469 92.664062 73.707031 88.484375 70.167969 84.304688 C 68.613281 82.46875 66.992188 80.605469 64.875 79.40625 C 63.769531 78.777344 62.589844 78.332031 61.316406 78.222656 C 60.140625 78.121094 58.960938 78.207031 57.789062 78.242188 C 53.511719 78.363281 48.707031 77.84375 45.960938 74.148438 C 43.542969 70.902344 43.59375 66.292969 46.175781 63.160156 C 48.867188 59.886719 53.589844 59.878906 57.144531 61.632812 C 59.144531 62.621094 60.3125 64.277344 61.851562 65.800781 C 63.449219 67.378906 65.671875 68.050781 67.628906 69.046875 C 71.933594 71.238281 75.65625 74.4375 78.609375 78.242188 C 80.105469 80.167969 81.539062 82.144531 82.761719 84.257812 C 84.015625 86.425781 85.070312 88.695312 86.210938 90.921875 C 87.34375 93.144531 88.402344 95.398438 89.011719 97.828125 C 89.441406 99.550781 89.703125 101.308594 89.960938 103.066406 C 90.132812 103.035156 90.304688 103 90.476562 102.972656 C 93.878906 102.414062 97.335938 102.542969 100.761719 102.761719 C 103.390625 102.933594 105.96875 103.1875 108.507812 103.828125 C 109.226562 101.425781 110.265625 99.140625 111.207031 96.816406 C 112.191406 94.390625 112.96875 91.871094 114.125 89.515625 C 115.304688 87.105469 116.921875 84.894531 118.589844 82.800781 C 120.257812 80.707031 122.066406 78.816406 124.15625 77.140625 C 126.011719 75.652344 127.929688 74.214844 130.003906 73.046875 C 131.992188 71.921875 134.097656 71.054688 136.238281 70.261719 C 137.402344 69.832031 138.566406 69.390625 139.621094 68.722656 C 140.640625 68.078125 141.523438 67.242188 142.460938 66.488281 C 144.15625 65.121094 146.003906 64.121094 148.199219 63.878906 C 152.285156 63.429688 156.652344 66.074219 157.894531 70.0625 C 159.171875 74.171875 155.992188 77.667969 152.484375 79.257812 C 150.3125 80.246094 147.957031 80.648438 145.578125 80.609375 C 143.179688 80.570312 140.691406 79.804688 138.304688 80.25 C 136.203125 80.644531 134.710938 82.453125 133.097656 83.714844 C 131.203125 85.203125 129.210938 86.578125 127.40625 88.183594 C 123.808594 91.386719 120.546875 95.359375 118.382812 99.679688 C 117.316406 101.800781 116.417969 104.074219 115.859375 106.386719 C 115.824219 106.53125 115.796875 106.675781 115.765625 106.816406 C 119.261719 108.851562 122.328125 111.597656 124.75 114.890625 C 126.492188 117.257812 128.011719 120.046875 128.65625 122.933594 C 129.027344 124.605469 129.070312 126.429688 129.152344 128.140625 C 129.269531 130.539062 129.359375 132.933594 129.242188 135.332031 C 129.078125 138.617188 129.203125 141.835938 129.433594 145.113281 C 129.550781 146.800781 129.628906 148.496094 129.824219 150.171875 C 130.023438 151.863281 130.40625 153.53125 130.683594 155.207031 C 131.210938 158.398438 131.371094 161.648438 131.726562 164.863281 C 132.109375 168.371094 131.9375 172 132.605469 175.46875 C 133.226562 178.703125 134.296875 181.792969 134.78125 185.0625 C 135.285156 188.472656 135.835938 191.796875 136.769531 195.121094 C 137.6875 198.386719 138.613281 201.664062 139.667969 204.894531 C 141.675781 211.058594 144.339844 216.808594 148.582031 221.75 C 150.625 224.128906 152.386719 226.761719 154.550781 229.03125 C 156.714844 231.308594 159.019531 233.46875 161.402344 235.511719 C 163.894531 237.652344 166.570312 239.664062 169.398438 241.339844 C 172.089844 242.933594 175.0625 244.058594 177.996094 245.117188 C 181.175781 246.265625 184.390625 246.898438 187.707031 247.472656 C 191.191406 248.074219 194.621094 248.589844 198.136719 247.933594 C 204.617188 246.726562 210.707031 243.9375 216.890625 241.734375 C 220.089844 240.597656 223.386719 239.972656 226.652344 239.082031 C 229.816406 238.21875 233.019531 237.464844 236.28125 237.066406 C 239.667969 236.648438 243.101562 236.625 246.507812 236.628906 C 249.734375 236.632812 252.875 237.125 256.058594 237.59375 C 259.246094 238.0625 262.394531 238.753906 265.523438 239.53125 C 268.644531 240.308594 271.613281 241.425781 274.660156 242.429688 C 280.78125 244.453125 286.703125 246.796875 293.132812 247.703125 C 299.359375 248.582031 305.714844 248.128906 311.730469 246.328125 C 312.867188 245.988281 313.820312 245.492188 314.683594 244.664062 C 315.230469 244.140625 315.6875 243.515625 316.269531 243.023438 C 317.542969 241.953125 318.871094 242.472656 319.859375 243.65625 C 321.011719 245.035156 321.585938 246.644531 320.441406 248.203125 Z M 320.441406 248.203125 " fill-opacity="1" fill-rule="nonzero"/></g><path fill="#4c956c" d="M 214.933594 159.207031 C 213.726562 159.863281 212.648438 158.019531 213.855469 157.359375 C 216.46875 155.933594 219.238281 154.71875 222.234375 154.453125 C 225.441406 154.164062 228.574219 155.234375 231.515625 156.398438 C 234.097656 157.425781 236.71875 158.5625 238.761719 160.503906 C 240.820312 162.464844 242.402344 165 243.472656 167.617188 C 244.640625 170.464844 244.921875 173.523438 244.660156 176.574219 C 244.144531 182.484375 241.4375 188.117188 237.421875 192.460938 C 235.445312 194.601562 233.019531 196.414062 230.585938 198.003906 C 228.011719 199.6875 225.238281 200.769531 222.195312 201.230469 C 215.980469 202.171875 209.496094 202.382812 203.351562 200.941406 C 200.5 200.277344 197.574219 199.285156 195.132812 197.628906 C 192.753906 196.023438 190.917969 193.703125 189.214844 191.421875 C 187.414062 189.011719 186.234375 186.308594 185.078125 183.550781 C 183.863281 180.644531 182.929688 177.835938 182.585938 174.6875 C 181.871094 168.214844 182.75 161.8125 184.1875 155.503906 C 184.882812 152.445312 185.851562 149.464844 187.445312 146.75 C 188.96875 144.15625 190.816406 141.703125 192.667969 139.335938 C 194.523438 136.960938 196.613281 134.980469 198.988281 133.140625 C 201.367188 131.304688 203.816406 129.652344 206.667969 128.644531 C 209.675781 127.585938 212.808594 126.847656 215.851562 125.890625 C 218.953125 124.914062 222.105469 124.332031 225.324219 123.898438 C 231.863281 123.015625 238.480469 122.773438 245.015625 123.839844 C 251.238281 124.855469 257.28125 126.804688 262.757812 129.972656 C 265.34375 131.46875 267.597656 133.277344 269.5625 135.53125 C 271.519531 137.773438 273.433594 140.113281 274.980469 142.664062 C 275.761719 143.957031 276.414062 145.3125 277.105469 146.652344 C 277.796875 148.011719 278.527344 149.347656 279.128906 150.75 C 280.375 153.65625 280.699219 156.699219 280.921875 159.828125 C 281.378906 166.339844 281.394531 173.097656 279.902344 179.496094 C 279.175781 182.613281 278.042969 185.617188 277.300781 188.734375 C 276.546875 191.898438 275.558594 194.902344 274.398438 197.941406 C 273.25 200.957031 271.984375 203.839844 270.414062 206.65625 C 268.945312 209.296875 267.75 212.101562 266.167969 214.675781 C 263.015625 219.804688 257.878906 223.683594 252.785156 226.714844 C 250.007812 228.363281 247.226562 230.027344 244.332031 231.464844 C 241.417969 232.910156 238.542969 234.480469 235.558594 235.789062 C 234.3125 236.335938 233.226562 234.492188 234.484375 233.941406 C 237.210938 232.746094 239.808594 231.273438 242.496094 229.988281 C 245.226562 228.675781 247.835938 227.152344 250.441406 225.613281 C 252.96875 224.125 255.464844 222.628906 257.714844 220.734375 C 259.867188 218.917969 262.015625 216.960938 263.640625 214.644531 C 265.277344 212.3125 266.351562 209.648438 267.699219 207.152344 C 269.160156 204.453125 270.597656 201.828125 271.726562 198.964844 C 272.832031 196.15625 273.972656 193.332031 274.707031 190.398438 C 275.441406 187.476562 276.230469 184.605469 277.089844 181.714844 C 277.972656 178.742188 278.488281 175.75 278.75 172.65625 C 279.011719 169.515625 279.195312 166.363281 279.03125 163.210938 C 278.875 160.253906 278.78125 157.15625 278.085938 154.265625 C 277.414062 151.484375 275.890625 149.007812 274.628906 146.46875 C 273.367188 143.929688 271.8125 141.621094 270.027344 139.421875 C 268.246094 137.222656 266.4375 134.992188 264.097656 133.355469 C 261.742188 131.703125 259.15625 130.394531 256.515625 129.257812 C 250.976562 126.878906 244.789062 125.566406 238.773438 125.308594 C 232.632812 125.050781 226.335938 125.609375 220.324219 126.882812 C 217.363281 127.507812 214.53125 128.625 211.613281 129.425781 C 208.777344 130.203125 206.027344 130.957031 203.507812 132.53125 C 201.109375 134.03125 198.75 135.824219 196.769531 137.847656 C 194.816406 139.84375 193.195312 142.128906 191.570312 144.390625 C 189.878906 146.753906 188.339844 149.183594 187.390625 151.949219 C 186.425781 154.769531 185.859375 157.71875 185.328125 160.644531 C 184.773438 163.683594 184.425781 166.722656 184.453125 169.816406 C 184.484375 172.816406 184.640625 175.890625 185.53125 178.773438 C 187.183594 184.140625 189.765625 189.199219 193.539062 193.371094 C 197.398438 197.632812 203.484375 199.289062 209.058594 199.730469 C 212.085938 199.96875 215.121094 199.75 218.140625 199.523438 C 221.054688 199.308594 224.042969 198.996094 226.71875 197.738281 C 229.210938 196.570312 231.503906 194.875 233.617188 193.125 C 235.726562 191.378906 237.5 189.277344 238.914062 186.933594 C 241.84375 182.074219 243.578125 176.195312 242.195312 170.527344 C 241.53125 167.800781 240.085938 165.210938 238.265625 163.097656 C 236.503906 161.050781 234.222656 159.804688 231.757812 158.789062 C 229.058594 157.675781 226.183594 156.527344 223.21875 156.542969 C 220.257812 156.558594 217.484375 157.816406 214.933594 159.207031 Z M 214.933594 159.207031 " fill-opacity="1" fill-rule="nonzero"/><path fill="#805a35" d="M 89.15625 130.394531 L 89.203125 130.472656 L 89.203125 130.558594 C 89.207031 132.171875 88.890625 133.484375 88.199219 134.695312 C 87.664062 135.636719 86.824219 136.214844 85.890625 136.28125 C 85.832031 136.285156 85.773438 136.285156 85.714844 136.285156 C 84.839844 136.285156 83.992188 135.832031 83.367188 135.019531 C 81.855469 133.050781 82.179688 129.621094 84.035156 127.957031 C 85.222656 126.890625 86.660156 126.910156 87.699219 128.007812 C 88.152344 128.484375 88.464844 129.082031 88.761719 129.660156 C 88.890625 129.910156 89.019531 130.15625 89.15625 130.394531 Z M 110.835938 130.472656 L 110.792969 130.394531 C 110.652344 130.15625 110.527344 129.910156 110.398438 129.660156 C 110.097656 129.082031 109.789062 128.484375 109.335938 128.003906 C 108.296875 126.910156 106.859375 126.890625 105.671875 127.957031 C 103.816406 129.617188 103.492188 133.050781 105.003906 135.019531 C 105.628906 135.832031 106.476562 136.285156 107.351562 136.285156 C 107.410156 136.285156 107.46875 136.285156 107.527344 136.28125 C 108.460938 136.214844 109.300781 135.636719 109.835938 134.695312 C 110.527344 133.484375 110.847656 132.167969 110.839844 130.558594 Z M 110.835938 130.472656 " fill-opacity="1" fill-rule="nonzero"/><g clip-path="url(#b04fcf2759)"><path fill="#e4ad81" d="M 99.339844 146.292969 C 99.496094 146.851562 99.148438 147.449219 98.59375 147.605469 C 96.230469 148.285156 93.742188 148.207031 91.320312 147.941406 C 90.722656 147.875 90.28125 147.503906 90.25 146.871094 C 90.226562 146.339844 90.761719 145.742188 91.320312 145.804688 C 93.589844 146.054688 95.878906 146.160156 98.027344 145.546875 C 98.585938 145.386719 99.1875 145.738281 99.339844 146.292969 Z M 158.082031 71.601562 C 157.597656 67.261719 153.933594 63.550781 149.488281 63.515625 C 149.1875 63.515625 148.957031 63.617188 148.789062 63.773438 C 145.253906 63.671875 141.714844 65.382812 139.914062 68.523438 C 138.074219 71.730469 137.480469 77.152344 140.589844 79.832031 C 142.085938 81.125 144.117188 81.304688 146.011719 81.339844 C 148.152344 81.375 150.4375 81.585938 152.476562 80.796875 C 156.101562 79.386719 158.515625 75.492188 158.082031 71.601562 Z M 58.664062 61.613281 C 57.277344 60.511719 55.695312 59.9375 54.019531 59.828125 C 53.953125 59.351562 53.617188 58.898438 53.007812 58.851562 C 49.058594 58.546875 45.503906 61.460938 44.074219 64.992188 C 42.566406 68.714844 43.515625 73.242188 46.144531 76.226562 C 47.492188 77.761719 49.261719 78.613281 51.261719 78.917969 C 53.390625 79.238281 55.746094 79.375 57.804688 78.636719 C 62.269531 77.042969 63.574219 72 62.515625 67.734375 C 61.929688 65.375 60.578125 63.125 58.664062 61.613281 Z M 58.664062 61.613281 " fill-opacity="1" fill-rule="nonzero"/></g></svg>