<svg xmlns="http://www.w3.org/2000/svg" xmlns:xlink="http://www.w3.org/1999/xlink" width="1080" zoomAndPan="magnify" viewBox="0 0 810 809.999993" height="1080" preserveAspectRatio="xMidYMid meet" version="1.0"><defs><clipPath id="3d6f135097"><path d="M 417.625 537 L 448 537 L 448 593.429688 L 417.625 593.429688 Z M 417.625 537 " clip-rule="nonzero"/></clipPath><clipPath id="4752c8d880"><path d="M 213.074219 233.449219 L 593.550781 233.449219 L 593.550781 572.179688 L 213.074219 572.179688 Z M 213.074219 233.449219 " clip-rule="nonzero"/></clipPath></defs><g clip-path="url(#3d6f135097)"><path fill="#000000" d="M 421.414062 537.371094 L 417.878906 537.058594 C 420.023438 545.625 422.285156 554.167969 424.308594 562.765625 C 428.191406 579.257812 425.539062 586.960938 429.589844 591.0625 C 436.6875 598.253906 462.9375 588.351562 436.207031 570.96875 C 432.433594 568.511719 429.164062 565.738281 428.035156 561.609375 L 421.414062 537.371094 " fill-opacity="1" fill-rule="evenodd"/></g><path fill="#4d4d4d" d="M 432.21875 570.886719 C 432.582031 573.6875 432.835938 576.511719 433.042969 579.445312 C 433.167969 581.195312 433.324219 585.449219 434.335938 586.921875 C 434.421875 587.042969 434.515625 587.15625 434.621094 587.265625 C 435.894531 588.554688 438.941406 588.496094 440.566406 588.195312 C 442.230469 587.882812 444.789062 586.925781 445.601562 585.289062 C 447.441406 581.554688 438.183594 575.066406 435.976562 573.628906 C 434.664062 572.773438 433.394531 571.867188 432.21875 570.886719 " fill-opacity="1" fill-rule="evenodd"/><path fill="#000000" d="M 456.089844 526.125 L 452.832031 527.535156 C 458.804688 534.039062 464.867188 540.464844 470.746094 547.054688 C 482.023438 559.691406 489.519531 566.679688 495.28125 566.78125 C 515.417969 567.113281 516.894531 551.089844 485.109375 548.582031 C 480.625 548.226562 476.429688 547.347656 473.472656 544.261719 L 456.089844 526.125 " fill-opacity="1" fill-rule="evenodd"/><path fill="#4d4d4d" d="M 482.382812 549.839844 C 487.261719 554.824219 493.097656 560.027344 496.417969 560.078125 C 499.054688 560.121094 502.265625 559.863281 504.707031 558.773438 C 505.132812 558.582031 506.5625 557.828125 506.6875 557.304688 C 506.652344 556.285156 503.714844 554.546875 502.976562 554.171875 C 498.078125 551.679688 491.261719 550.671875 485.851562 550.246094 C 484.683594 550.152344 483.523438 550.023438 482.382812 549.839844 " fill-opacity="1" fill-rule="evenodd"/><g clip-path="url(#4752c8d880)"><path fill="#000000" d="M 576.40625 411.824219 C 578.933594 415.023438 581.320312 418.328125 583.566406 421.726562 C 590.488281 432.207031 594.082031 444.042969 592.707031 456.640625 C 589.289062 487.957031 557.339844 512.203125 531.320312 525.550781 C 511.445312 535.75 486.203125 544.335938 463.742188 544.796875 C 448.769531 545.105469 433.773438 544.386719 418.9375 542.289062 C 408.019531 558.539062 389.886719 568.789062 370.601562 571.417969 C 345.265625 574.863281 318.210938 564.878906 304.488281 542.574219 C 300.527344 536.136719 297.953125 528.992188 296.933594 521.5 C 295.550781 511.332031 297.117188 501.171875 301.269531 491.851562 C 279.800781 479.957031 259.9375 465.015625 245.992188 444.488281 C 235.761719 429.425781 227.351562 412.292969 221.421875 395.082031 C 213.363281 371.683594 207.910156 341.210938 220.679688 318.519531 C 227.386719 306.59375 238.015625 298.855469 250.808594 294.4375 C 261.164062 290.859375 271.929688 288.390625 282.855469 287.453125 C 286.945312 268.429688 295.292969 243.367188 314.390625 235.710938 C 318.011719 234.261719 321.855469 233.515625 325.75 233.457031 C 347.660156 233.109375 365.238281 252.488281 375.800781 269.714844 C 388.183594 289.90625 395.917969 314.082031 399.574219 337.667969 C 413.078125 325.542969 428.675781 314.640625 445.367188 307.917969 C 461.300781 301.496094 480.59375 298.222656 496.324219 306.984375 C 497.894531 307.859375 499.394531 308.839844 500.820312 309.917969 C 508.398438 315.644531 513.191406 323.628906 515.835938 332.5625 C 528.886719 331.175781 542.546875 331.40625 555.3125 334.265625 C 567.226562 336.933594 579.84375 342.34375 587.285156 352.453125 C 589.605469 355.597656 591.332031 359.09375 592.375 362.859375 C 597.105469 379.972656 586.675781 398.339844 576.40625 411.824219 Z M 311.183594 495.332031 C 307.558594 503.085938 306.144531 511.5625 307.304688 520.089844 C 308.125 526.140625 310.199219 531.886719 313.398438 537.085938 C 324.9375 555.84375 347.996094 563.925781 369.191406 561.039062 C 386.34375 558.707031 402.5625 549.316406 411.59375 534.34375 L 410.554688 530.375 L 415.847656 531.234375 C 431.613281 533.785156 447.570312 534.65625 463.527344 534.328125 C 484.277344 533.902344 508.226562 525.636719 526.546875 516.234375 C 557.535156 500.339844 600.210938 465.902344 574.839844 427.503906 C 571.769531 422.863281 568.417969 418.410156 564.792969 414.191406 L 562.882812 411.96875 L 564.742188 409.703125 C 574.90625 397.28125 590.652344 374.679688 578.863281 358.667969 C 573.039062 350.757812 562.285156 346.558594 553.03125 344.484375 C 539.527344 341.460938 524.628906 341.714844 511 343.726562 L 507.65625 344.21875 L 507.058594 340.886719 C 505.488281 332.101562 501.78125 323.761719 494.515625 318.273438 C 493.472656 317.484375 492.375 316.773438 491.238281 316.136719 C 478.515625 309.050781 462.023438 312.496094 449.273438 317.632812 C 429.769531 325.492188 411.449219 339.871094 396.824219 354.78125 L 391.527344 360.179688 L 390.859375 352.640625 C 388.542969 326.324219 380.769531 297.839844 366.882812 275.195312 C 358.542969 261.589844 343.542969 243.648438 325.914062 243.925781 C 323.285156 243.96875 320.730469 244.449219 318.285156 245.433594 C 301.832031 252.023438 294.976562 279.300781 292.066406 294.730469 L 291.546875 297.46875 L 288.769531 297.570312 C 276.988281 298.019531 265.347656 300.492188 254.21875 304.335938 C 197.828125 323.804688 231.996094 405.253906 254.644531 438.597656 C 269.402344 460.320312 291.574219 475.328125 314.636719 487.097656 L 320.488281 490.09375 L 314.730469 493.265625 C 313.53125 493.925781 312.347656 494.617188 311.183594 495.332031 " fill-opacity="1" fill-rule="evenodd"/></g><path fill="#4b1e09" d="M 496.617188 315.488281 C 523.667969 335.929688 512.851562 395.890625 472.464844 449.414062 C 432.074219 502.941406 377.402344 529.765625 350.355469 509.324219 C 323.304688 488.886719 334.117188 428.925781 374.507812 375.398438 C 414.898438 321.871094 469.570312 295.050781 496.617188 315.488281 " fill-opacity="1" fill-rule="evenodd"/><path fill="#c0e7f1" d="M 325.859375 240.433594 C 359.75 239.898438 394.046875 300.007812 395.105469 367.070312 C 396.167969 434.136719 365.941406 468.945312 346.738281 492.160156 C 312.847656 492.699219 284.515625 438.765625 283.453125 371.703125 C 282.394531 304.640625 291.96875 240.972656 325.859375 240.433594 " fill-opacity="1" fill-rule="evenodd"/><path fill="#c0e7f1" d="M 581.671875 356.59375 C 561.5625 329.289062 482.859375 331.761719 434.410156 374.625 C 385.960938 417.484375 370.835938 476.625 368.898438 492.488281 C 389.007812 519.792969 449.046875 509.675781 503.007812 469.886719 C 556.964844 430.097656 601.777344 383.898438 581.671875 356.59375 " fill-opacity="1" fill-rule="evenodd"/><path fill="#ffffff" d="M 576.269531 364.914062 C 557.324219 339.1875 483.175781 341.511719 437.53125 381.898438 C 391.882812 422.273438 377.636719 477.996094 375.808594 492.941406 C 378.449219 496.523438 381.816406 499.417969 385.796875 501.652344 C 389.910156 481.242188 405.589844 432.695312 446.53125 396.476562 C 488.953125 358.949219 555.980469 354.289062 580.449219 374.46875 C 579.8125 371.074219 578.449219 367.875 576.269531 364.914062 " fill-opacity="1" fill-rule="evenodd"/><path fill="#bb141b" d="M 342.363281 509.261719 C 381.527344 531.050781 420.863281 538.703125 463.597656 537.820312 C 517.121094 536.710938 615.070312 482.054688 577.75 425.582031 C 545.117188 376.203125 491.34375 361.769531 449.726562 377.90625 C 410.578125 393.082031 383.910156 435.011719 342.363281 509.261719 " fill-opacity="1" fill-rule="evenodd"/><path fill="#8f0000" d="M 351.925781 506.472656 C 387.273438 524.753906 423.40625 531.664062 463.453125 530.839844 C 483.65625 530.421875 507.121094 522.277344 524.957031 513.128906 C 553.816406 498.320312 595.886719 465.6875 571.929688 429.429688 C 558.125 408.542969 538.707031 391.929688 514.855469 383.785156 C 494.589844 376.859375 472.308594 376.636719 452.246094 384.414062 C 431.515625 392.449219 415.824219 408.425781 402.460938 425.703125 C 393.253906 437.605469 384.964844 450.375 377.105469 463.195312 C 368.390625 477.414062 360.097656 491.925781 351.925781 506.472656 " fill-opacity="1" fill-rule="evenodd"/><path fill="#ffffff" d="M 323.65625 246.046875 C 354.667969 245.804688 386.554688 304.703125 388.078125 370.101562 C 389.605469 435.503906 362.234375 469.195312 344.855469 491.671875 C 341.910156 491.695312 339.007812 491.234375 336.167969 490.339844 C 348.835938 468.511719 367.097656 435.890625 364 373.378906 C 360.929688 311.417969 336.941406 254.449219 314.101562 248.363281 C 317.015625 246.878906 320.195312 246.074219 323.65625 246.046875 " fill-opacity="1" fill-rule="evenodd"/><path fill="#bb141b" d="M 345.703125 505.015625 C 307.570312 489.328125 272.472656 471.054688 251.761719 440.5625 C 225.820312 402.375 195.125 321.046875 253.082031 301.035156 C 361.667969 263.542969 428.605469 382.035156 345.703125 505.015625 " fill-opacity="1" fill-rule="evenodd"/><path fill="#8f0000" d="M 243.742188 305.203125 C 246.5625 303.613281 249.664062 302.214844 253.082031 301.035156 C 320.648438 277.707031 372.078125 314.777344 381.328125 375.742188 C 385.617188 411.710938 372.296875 466.660156 345.226562 510.828125 C 293.953125 479.449219 265.800781 442.859375 260.6875 435.097656 C 240.464844 404.402344 211.027344 334.570312 243.742188 305.203125 " fill-opacity="1" fill-rule="evenodd"/><path fill="#bf0000" d="M 255.449219 300.246094 C 321.847656 278.585938 372.1875 315.496094 381.328125 375.742188 C 385.339844 409.394531 373.9375 459.660156 350.285156 502.167969 C 333.65625 489.914062 317.945312 476.054688 303.671875 460.875 C 297.660156 454.484375 291.851562 447.808594 286.417969 440.847656 C 283.683594 437.347656 280.785156 433.539062 278.417969 429.742188 C 267.972656 412.960938 258.976562 392.554688 253.140625 373.5 C 247.164062 353.992188 241.273438 324.542969 251.527344 305.898438 C 252.648438 303.859375 253.957031 301.96875 255.449219 300.246094 " fill-opacity="1" fill-rule="evenodd"/><path fill="#bf0000" d="M 518.253906 377.582031 C 495.1875 369.40625 470.886719 369.703125 449.722656 377.90625 C 441.773438 380.988281 434.335938 385.175781 427.183594 390.511719 C 419.152344 397.46875 412.054688 405.613281 405.574219 413.996094 C 396.523438 425.695312 388.375 438.253906 380.648438 450.863281 C 373.257812 462.921875 366.171875 475.183594 359.210938 487.503906 C 391.453125 502.839844 424.472656 508.628906 460.90625 507.875 C 480.003906 507.480469 502.519531 499.574219 519.371094 490.929688 C 543.894531 478.347656 584.746094 449.136719 563.707031 417.296875 C 552.34375 400.109375 536.964844 385.960938 518.253906 377.582031 " fill-opacity="1" fill-rule="evenodd"/><path fill="#ff0000" d="M 486.015625 371.621094 C 473.460938 371.355469 461.136719 373.484375 449.722656 377.90625 C 443.164062 380.449219 436.957031 383.742188 430.96875 387.816406 C 423.726562 393.710938 417.625 401.371094 411.933594 408.726562 C 403.167969 420.0625 395.351562 432.144531 387.871094 444.351562 C 383.273438 451.851562 378.804688 459.421875 374.40625 467.039062 C 400.546875 477.046875 427.320312 480.695312 455.945312 480.105469 C 472.878906 479.757812 493.367188 472.371094 508.332031 464.695312 C 516.957031 460.269531 525.550781 454.839844 533.011719 448.640625 C 544.015625 439.5 557.058594 425.808594 547.394531 411.1875 C 537.777344 396.636719 524.839844 383.316406 508.402344 376.734375 C 501.207031 373.851562 493.648438 372.175781 486.015625 371.621094 " fill-opacity="1" fill-rule="evenodd"/><path fill="#4d4d4d" d="M 439.203125 391.300781 C 444.539062 390.546875 449.492188 391.792969 453.125 394.472656 C 456.851562 397.21875 459.265625 401.523438 459.335938 406.726562 C 459.414062 412.09375 457.015625 417.328125 453.066406 421.375 C 449.089844 425.460938 443.617188 428.261719 437.703125 428.777344 C 431.882812 429.28125 426.84375 427.464844 423.441406 424.203125 C 420.128906 421.035156 418.367188 416.507812 418.828125 411.390625 C 419.28125 406.417969 421.773438 401.746094 425.425781 398.164062 C 429.050781 394.609375 433.867188 392.050781 439.203125 391.300781 " fill-opacity="1" fill-rule="evenodd"/><path fill="#ff0000" d="M 279.382812 294.820312 C 319.058594 289.917969 350.882812 307.191406 368.285156 337.425781 C 372.394531 346.277344 375.054688 355.871094 376.382812 365.6875 C 376.800781 396.902344 360.464844 476.472656 316.71875 442.238281 C 310.902344 436.054688 305.320312 429.640625 300.089844 422.945312 C 297.527344 419.65625 294.933594 416.289062 292.730469 412.75 C 282.582031 396.441406 274.199219 377.335938 268.574219 358.972656 C 263.640625 342.867188 257.546875 315.085938 266.121094 299.492188 C 266.441406 298.910156 266.785156 298.347656 267.148438 297.796875 C 271.1875 296.59375 275.273438 295.59375 279.382812 294.820312 " fill-opacity="1" fill-rule="evenodd"/><path fill="#000000" d="M 531.265625 383.175781 C 520.511719 377.699219 509.285156 374.199219 498.066406 372.601562 C 494.617188 374.992188 492.648438 378.914062 493.324219 383.894531 C 494.128906 389.8125 498.382812 395.4375 504.308594 399.355469 C 509.972656 403.109375 516.609375 404.929688 522.53125 404.125 C 527.730469 403.421875 531.253906 400.800781 532.941406 397.425781 C 534.453125 394.394531 534.539062 390.628906 533.03125 386.695312 C 532.570312 385.492188 531.976562 384.3125 531.265625 383.175781 " fill-opacity="1" fill-rule="evenodd"/><path fill="#000000" d="M 453.957031 486.527344 C 464.800781 483.574219 476.789062 490.914062 480.730469 502.917969 C 484.671875 514.925781 479.082031 527.050781 468.242188 530.003906 C 457.394531 532.957031 445.410156 525.617188 441.464844 513.613281 C 437.523438 501.605469 443.117188 489.480469 453.957031 486.527344 " fill-opacity="1" fill-rule="evenodd"/><path fill="#000000" d="M 555.746094 417.109375 C 565.125 414.796875 574.972656 422.023438 577.738281 433.25 C 580.507812 444.476562 575.144531 455.460938 565.765625 457.773438 C 556.386719 460.085938 546.542969 452.859375 543.773438 441.632812 C 541.003906 430.40625 546.367188 419.425781 555.746094 417.109375 " fill-opacity="1" fill-rule="evenodd"/><path fill="#000000" d="M 259.097656 431.019531 C 262.96875 428.339844 268.554688 427.910156 274.222656 429.683594 C 280.039062 431.503906 285.871094 435.492188 290.136719 441.128906 C 294.355469 446.707031 296.085938 452.621094 295.53125 457.550781 C 294.996094 462.289062 292.355469 466.054688 287.878906 467.824219 C 283.59375 469.515625 278.378906 469.089844 273.382812 467.117188 C 268.496094 465.1875 263.675781 461.71875 259.960938 457.09375 C 256.214844 452.421875 254.171875 447.300781 253.917969 442.707031 C 253.65625 437.941406 255.226562 433.699219 259.097656 431.019531 " fill-opacity="1" fill-rule="evenodd"/><path fill="#272727" d="M 518.253906 377.582031 C 511.589844 375.21875 504.824219 373.566406 498.058594 372.605469 C 494.617188 374.996094 492.648438 378.914062 493.324219 383.894531 C 494.128906 389.8125 498.382812 395.4375 504.308594 399.359375 C 509.976562 403.109375 516.609375 404.929688 522.53125 404.125 C 527.730469 403.417969 531.253906 400.800781 532.941406 397.425781 C 534.453125 394.394531 534.539062 390.628906 533.03125 386.699219 C 532.875 386.289062 532.703125 385.878906 532.515625 385.476562 C 528.007812 382.46875 523.25 379.820312 518.253906 377.582031 Z M 440.261719 507.558594 C 447.03125 507.921875 453.902344 508.019531 460.90625 507.875 C 467.4375 507.738281 474.375 506.726562 481.34375 505.105469 C 481.175781 504.375 480.972656 503.648438 480.730469 502.917969 C 476.789062 490.914062 464.804688 483.574219 453.957031 486.527344 C 444.945312 488.980469 439.5625 497.773438 440.261719 507.558594 Z M 561.09375 458.160156 C 569.960938 446.011719 573.363281 431.949219 563.726562 417.339844 C 561.144531 416.570312 558.429688 416.449219 555.742188 417.109375 C 546.367188 419.425781 541.003906 430.40625 543.773438 441.632812 C 546.082031 451 553.316406 457.578125 561.09375 458.160156 " fill-opacity="1" fill-rule="evenodd"/><path fill="#4d4d4d" d="M 307.152344 295.097656 C 322.351562 297.441406 335.808594 303.449219 347 312.398438 C 346.957031 317.472656 344.980469 322.328125 341.035156 325.882812 C 332.691406 333.410156 318.6875 332.269531 309.753906 323.335938 C 301.417969 314.992188 300.453125 302.808594 307.152344 295.097656 " fill-opacity="1" fill-rule="evenodd"/><path fill="#4d4d4d" d="M 543.242188 438.765625 C 548.089844 433.023438 551.539062 426.449219 550.621094 419.484375 C 545.195312 423.375 542.238281 430.820312 543.242188 438.765625 Z M 533.941406 394.351562 C 526.628906 386.882812 518.125 380.628906 508.402344 376.734375 C 504.75 375.269531 500.996094 374.117188 497.191406 373.265625 C 494.292969 375.6875 492.707031 379.347656 493.324219 383.894531 C 494.128906 389.808594 498.382812 395.4375 504.308594 399.355469 C 509.976562 403.109375 516.609375 404.929688 522.53125 404.125 C 527.730469 403.417969 531.253906 400.804688 532.941406 397.421875 C 533.417969 396.464844 533.75 395.4375 533.941406 394.351562 " fill-opacity="1" fill-rule="evenodd"/><path fill="#ffa996" d="M 349.949219 483.53125 C 365.871094 455.175781 376.382812 422.886719 375.039062 390.386719 C 373.878906 362.363281 363.410156 334.238281 340.398438 316.972656 C 315.4375 298.242188 284.070312 298.457031 255.585938 308.296875 C 246.207031 311.53125 238.375 316.953125 233.445312 325.710938 C 232.738281 326.964844 232.109375 328.257812 231.550781 329.585938 C 236.496094 322.3125 243.671875 317.644531 252.097656 314.738281 C 280.585938 304.902344 311.949219 304.683594 336.914062 323.417969 C 359.921875 340.679688 370.390625 368.800781 371.554688 396.832031 C 372.796875 426.894531 363.894531 456.773438 349.949219 483.53125 " fill-opacity="1" fill-rule="evenodd"/><path fill="#ffa996" d="M 346.839844 507.972656 C 348.300781 508.757812 349.761719 509.519531 351.222656 510.269531 C 358.960938 496.527344 366.824219 482.828125 375.058594 469.390625 C 382.988281 456.453125 391.351562 443.578125 400.640625 431.566406 C 414.445312 413.71875 430.613281 397.390625 452.011719 389.09375 C 472.886719 381 496.0625 381.207031 517.15625 388.410156 C 541.78125 396.820312 561.859375 413.941406 576.117188 435.519531 C 579.425781 440.527344 581.578125 445.472656 582.757812 450.3125 C 582.554688 442.917969 580.199219 435.238281 575.015625 427.386719 C 560.753906 405.8125 540.675781 388.695312 516.046875 380.28125 C 494.957031 373.078125 471.78125 372.875 450.910156 380.964844 C 429.507812 389.261719 413.339844 405.59375 399.535156 423.4375 C 390.246094 435.445312 381.886719 448.324219 373.957031 461.261719 C 364.550781 476.601562 355.640625 492.273438 346.839844 507.972656 " fill-opacity="1" fill-rule="evenodd"/><path fill="#4b1e09" d="M 415.335938 534.855469 C 406.671875 550.164062 389.992188 561.730469 369.660156 564.5 C 337.210938 568.914062 307.746094 549.242188 303.847656 520.5625 C 302.53125 510.867188 304.300781 501.382812 308.480469 492.910156 C 353.179688 464.640625 403.671875 487.421875 415.335938 534.855469 " fill-opacity="1" fill-rule="evenodd"/><path fill="#000000" d="M 304.152344 498.808594 L 306.957031 500.535156 C 300.617188 505.730469 294.203125 510.839844 287.9375 516.125 C 275.921875 526.257812 273.085938 529.460938 267.800781 530.273438 C 258.539062 531.691406 238.46875 507.675781 274.539062 515.640625 C 278.617188 516.539062 282.675781 515.648438 285.800781 513.199219 L 304.152344 498.808594 " fill-opacity="1" fill-rule="evenodd"/><path fill="#4d4d4d" d="M 275.867188 517.808594 C 274.816406 517.765625 273.757812 517.621094 272.710938 517.390625 C 268.929688 516.558594 264.449219 515.738281 260.558594 515.886719 C 259.886719 515.910156 257.882812 516.074219 257.101562 516.515625 C 257.308594 517.949219 259.828125 520.46875 260.753906 521.226562 C 261.863281 522.136719 264.722656 524.027344 266.246094 523.792969 C 266.707031 523.722656 267.160156 523.625 267.605469 523.484375 C 269.527344 522.882812 271.433594 521.40625 272.988281 520.167969 C 273.953125 519.398438 274.914062 518.609375 275.867188 517.808594 " fill-opacity="1" fill-rule="evenodd"/><path fill="#000000" d="M 300.34375 473 C 313.0625 466.222656 330.449219 474.019531 339.171875 490.417969 C 347.894531 506.816406 344.65625 525.605469 331.9375 532.378906 C 319.214844 539.15625 301.832031 531.355469 293.109375 514.960938 C 284.386719 498.566406 287.625 479.777344 300.34375 473 Z M 303.515625 478.050781 C 314.808594 472.035156 330.242188 478.960938 337.988281 493.519531 C 345.734375 508.078125 342.859375 524.757812 331.566406 530.773438 C 320.269531 536.792969 304.835938 529.871094 297.089844 515.3125 C 289.34375 500.75 292.222656 484.070312 303.515625 478.050781 " fill-opacity="1" fill-rule="evenodd"/><path fill="#f6eee1" d="M 303.515625 478.050781 C 314.808594 472.035156 330.242188 478.960938 337.988281 493.519531 C 345.734375 508.078125 342.859375 524.757812 331.566406 530.773438 C 320.269531 536.792969 304.835938 529.871094 297.089844 515.3125 C 289.34375 500.75 292.21875 484.070312 303.515625 478.050781 " fill-opacity="1" fill-rule="evenodd"/><path fill="#000000" d="M 328.1875 497.890625 C 330.410156 497.984375 332.449219 498.742188 334.125 499.964844 C 331.246094 499.898438 328.835938 502.148438 328.710938 505.042969 C 328.585938 507.96875 330.855469 510.449219 333.78125 510.574219 C 335.8125 510.660156 337.617188 509.59375 338.585938 507.957031 C 338.617188 508.386719 338.621094 508.816406 338.605469 509.253906 C 338.34375 515.273438 333.261719 519.933594 327.25 519.679688 C 321.238281 519.417969 316.570312 514.328125 316.832031 508.3125 C 317.09375 502.296875 322.175781 497.628906 328.1875 497.890625 " fill-opacity="1" fill-rule="evenodd"/><path fill="#000000" d="M 405.226562 463.15625 C 389.164062 452.726562 365.265625 461.058594 351.847656 481.761719 C 338.425781 502.460938 340.566406 527.699219 356.625 538.121094 C 372.683594 548.550781 396.582031 540.21875 410 519.515625 C 423.421875 498.816406 421.28125 473.578125 405.226562 463.15625 Z M 400.453125 469.480469 C 386.191406 460.222656 364.972656 467.617188 353.054688 486 C 341.140625 504.378906 343.039062 526.789062 357.300781 536.042969 C 371.554688 545.300781 392.773438 537.902344 404.695312 519.527344 C 416.609375 501.140625 414.710938 478.734375 400.453125 469.480469 " fill-opacity="1" fill-rule="evenodd"/><path fill="#000000" d="M 416.710938 451.71875 C 433.765625 462.789062 432.875 486.367188 422.765625 501.964844 C 422.464844 502.421875 422.15625 502.878906 421.835938 503.332031 C 429.460938 487.285156 428.542969 466.304688 412.480469 455.875 C 406.132812 451.753906 399.25 450.46875 392.53125 451.246094 C 391.808594 451.332031 391.152344 450.855469 391.003906 450.144531 C 390.859375 449.433594 391.273438 448.730469 391.96875 448.523438 C 400.097656 446.082031 408.84375 446.609375 416.710938 451.71875 " fill-opacity="1" fill-rule="evenodd"/><path fill="#f6eee1" d="M 400.453125 469.480469 C 386.191406 460.222656 364.972656 467.621094 353.054688 485.996094 C 341.140625 504.382812 343.039062 526.785156 357.300781 536.042969 C 371.554688 545.300781 392.777344 537.90625 404.695312 519.523438 C 416.609375 501.140625 414.710938 478.738281 400.453125 469.480469 " fill-opacity="1" fill-rule="evenodd"/><path fill="#000000" d="M 365.527344 492.90625 C 362.578125 492.777344 359.789062 493.550781 357.433594 494.96875 C 361.25 495.214844 364.1875 498.46875 364.019531 502.308594 C 363.851562 506.203125 360.5625 509.21875 356.671875 509.050781 C 353.980469 508.933594 351.707031 507.320312 350.617188 505.046875 C 350.527344 505.601562 350.46875 506.175781 350.441406 506.753906 C 350.097656 514.746094 356.292969 521.503906 364.28125 521.851562 C 372.265625 522.195312 379.019531 515.996094 379.363281 508 C 379.710938 500.007812 373.515625 493.25 365.527344 492.90625 " fill-opacity="1" fill-rule="evenodd"/><path fill="#000000" d="M 397.207031 541.683594 C 386.34375 554.484375 367.796875 563.242188 350.222656 562.144531 C 343.828125 561.742188 340.761719 561.316406 336.613281 556.554688 C 333.941406 553.492188 329.644531 550.40625 326.421875 547.773438 C 320.6875 543.09375 318.707031 541.6875 315.996094 535.152344 C 342.96875 553.410156 364.988281 558.570312 395.355469 539.789062 L 397.742188 538.316406 L 398.332031 539.171875 L 399.085938 539.46875 L 397.207031 541.683594 " fill-opacity="1" fill-rule="evenodd"/><path fill="#f6eee1" d="M 392.03125 543.679688 C 369.496094 556.695312 343.65625 557.523438 322.304688 541.90625 C 324.03125 543.578125 325.941406 545.148438 327.671875 546.5625 C 330.949219 549.234375 335.234375 552.316406 337.984375 555.472656 C 341.847656 559.902344 344.621094 560.097656 350.347656 560.457031 C 366.164062 561.445312 381.371094 554.546875 392.03125 543.679688 " fill-opacity="1" fill-rule="evenodd"/><path fill="#000000" d="M 398.5 540.597656 C 396.769531 539.246094 396.328125 536.113281 396.605469 534.5 C 396.949219 536.109375 397.402344 537.324219 399.445312 538.972656 C 401.03125 540.246094 403.054688 540.855469 404.445312 540.621094 C 403.859375 541.464844 400.019531 541.78125 398.5 540.597656 " fill-opacity="1" fill-rule="evenodd"/><path fill="#999999" d="M 418.878906 410.957031 C 427.03125 403.140625 436.082031 396.382812 446.394531 391.507812 C 444.148438 391.035156 441.714844 390.945312 439.203125 391.296875 C 433.867188 392.050781 429.054688 394.609375 425.429688 398.167969 C 421.878906 401.640625 419.429688 406.148438 418.878906 410.957031 Z M 493.261719 383.367188 C 501.363281 384.0625 509.398438 385.761719 517.152344 388.410156 C 522.898438 390.371094 528.402344 392.808594 533.632812 395.667969 C 534.316406 393.378906 534.289062 390.785156 533.5 388.074219 C 527.972656 384.988281 522.152344 382.367188 516.046875 380.28125 C 509.238281 377.953125 502.214844 376.359375 495.117188 375.539062 C 493.671875 377.648438 492.957031 380.296875 493.261719 383.367188 Z M 561.152344 416.792969 C 566.679688 422.519531 571.679688 428.800781 576.117188 435.519531 C 576.976562 436.820312 577.757812 438.117188 578.464844 439.40625 C 578.484375 437.402344 578.25 435.328125 577.742188 433.25 C 577.492188 432.242188 577.183594 431.265625 576.824219 430.324219 C 576.265625 429.347656 575.664062 428.371094 575.015625 427.390625 C 573.671875 425.359375 572.277344 423.375 570.835938 421.425781 C 568.019531 418.871094 564.65625 417.230469 561.152344 416.792969 " fill-opacity="1" fill-rule="evenodd"/><path fill="#4d4d4d" d="M 324.363281 392.535156 C 323.972656 387.183594 325.554688 382.246094 328.472656 378.660156 C 331.472656 374.984375 335.925781 372.648438 341.128906 372.667969 C 346.492188 372.691406 351.550781 375.1875 355.328125 379.207031 C 359.132812 383.261719 361.5625 388.792969 361.671875 394.714844 C 361.78125 400.550781 359.628906 405.554688 356.140625 408.902344 C 352.753906 412.15625 348.113281 413.839844 343.039062 413.28125 C 338.101562 412.742188 333.609375 410.164062 330.28125 406.441406 C 326.980469 402.75 324.75 397.882812 324.363281 392.535156 " fill-opacity="1" fill-rule="evenodd"/><path fill="#000000" d="M 218.234375 355.039062 C 218.316406 353.394531 218.523438 351.804688 218.851562 350.273438 C 219.183594 348.710938 219.652344 347.171875 220.238281 345.714844 C 220.863281 344.152344 221.660156 342.609375 222.601562 341.195312 C 223.632812 339.652344 224.761719 338.289062 226.375 336.914062 C 227.992188 335.539062 230.042969 334.332031 232.066406 333.703125 C 234.433594 332.964844 236.972656 332.851562 239.46875 333.582031 C 242.425781 334.441406 245.269531 336.460938 247.507812 339.652344 C 250.070312 343.308594 251.65625 348.148438 251.738281 353.800781 C 251.824219 359.453125 250.367188 364.671875 247.789062 368.738281 C 245.402344 372.496094 242.363281 375.03125 239.128906 376.347656 C 236.394531 377.460938 233.648438 377.664062 231.109375 377.066406 C 228.933594 376.554688 226.773438 375.335938 225.140625 373.875 C 223.5 372.414062 222.421875 370.949219 221.460938 369.277344 C 220.59375 367.773438 219.910156 366.148438 219.402344 364.507812 C 218.929688 363.003906 218.59375 361.425781 218.398438 359.828125 C 218.214844 358.300781 218.15625 356.6875 218.234375 355.039062 " fill-opacity="1" fill-rule="evenodd"/><path fill="#999999" d="M 345.003906 320.71875 C 343.53125 319.425781 341.996094 318.167969 340.398438 316.972656 C 329.078125 308.480469 316.445312 303.882812 303.359375 302.3125 C 302.78125 304.511719 302.605469 306.828125 302.835938 309.164062 C 314.859375 311.042969 326.453125 315.566406 336.914062 323.417969 C 338.160156 324.347656 339.363281 325.316406 340.539062 326.316406 C 340.707031 326.171875 340.875 326.027344 341.035156 325.882812 C 342.71875 324.367188 344.035156 322.621094 345.003906 320.71875 " fill-opacity="1" fill-rule="evenodd"/><path fill="#272727" d="M 295.128906 451.425781 C 292.140625 447.972656 289.226562 444.449219 286.417969 440.847656 C 284.285156 438.113281 282.046875 435.195312 280.046875 432.242188 C 283.789062 434.375 287.308594 437.394531 290.136719 441.128906 C 292.714844 444.535156 294.363281 448.066406 295.128906 451.425781 Z M 250.316406 363.351562 C 248.339844 355.410156 246.699219 346.617188 246.148438 337.9375 C 246.621094 338.464844 247.074219 339.039062 247.507812 339.65625 C 250.070312 343.308594 251.65625 348.148438 251.738281 353.804688 C 251.789062 357.191406 251.285156 360.429688 250.316406 363.351562 " fill-opacity="1" fill-rule="evenodd"/><path fill="#1a1a1a" d="M 278.371094 468.546875 C 269.09375 461.253906 260.851562 453.085938 254.003906 443.734375 C 253.964844 443.386719 253.933594 443.042969 253.917969 442.707031 C 253.671875 438.234375 255.042969 434.222656 258.410156 431.53125 C 259.179688 432.769531 259.941406 433.964844 260.6875 435.097656 C 263.4375 439.269531 272.855469 451.789062 288.949219 467.34375 C 288.605469 467.519531 288.246094 467.679688 287.878906 467.824219 C 285.011719 468.957031 281.726562 469.140625 278.371094 468.546875 " fill-opacity="1" fill-rule="evenodd"/><path fill="#971016" d="M 402.042969 531.515625 C 404.117188 529.742188 406.691406 529.277344 407.800781 530.484375 C 408.90625 531.6875 408.121094 534.105469 406.046875 535.878906 C 403.976562 537.65625 401.398438 538.117188 400.292969 536.910156 C 399.1875 535.707031 399.96875 533.289062 402.042969 531.515625 " fill-opacity="1" fill-rule="evenodd"/><path fill="#000000" d="M 296.792969 463.238281 C 282.171875 469.480469 279.707031 487.757812 285.402344 501.121094 C 285.570312 501.515625 285.746094 501.910156 285.933594 502.300781 C 282.210938 488.921875 285.726562 472.886719 299.496094 467.007812 C 303.796875 465.171875 308.121094 464.746094 312.25 465.390625 C 312.964844 465.503906 313.648438 465.046875 313.820312 464.34375 C 313.992188 463.636719 313.601562 462.921875 312.910156 462.6875 C 307.835938 460.96875 302.292969 460.890625 296.792969 463.238281 " fill-opacity="1" fill-rule="evenodd"/></svg>