<svg xmlns="http://www.w3.org/2000/svg" xmlns:xlink="http://www.w3.org/1999/xlink" width="32" zoomAndPan="magnify" viewBox="0 0 350 350" height="32" preserveAspectRatio="xMidYMid meet" version="1.0"><defs><clipPath id="86a7073254"><path d="M 38 11 L 350 11 L 350 366 L 38 366 Z M 38 11 " clip-rule="nonzero"/></clipPath><clipPath id="ee3c8458fb"><path d="M 46.636719 -7.074219 L 354.835938 15.164062 L 328.382812 381.710938 L 20.183594 359.472656 Z M 46.636719 -7.074219 " clip-rule="nonzero"/></clipPath><clipPath id="eca3b57c60"><path d="M 46.636719 -7.074219 L 354.835938 15.164062 L 328.382812 381.710938 L 20.183594 359.472656 Z M 46.636719 -7.074219 " clip-rule="nonzero"/></clipPath><clipPath id="b14293a5e5"><path d="M 46.636719 -7.074219 L 354.835938 15.164062 L 328.382812 381.710938 L 20.183594 359.472656 Z M 46.636719 -7.074219 " clip-rule="nonzero"/></clipPath><clipPath id="6ded3f35e6"><path d="M 83 278 L 273 278 L 273 366 L 83 366 Z M 83 278 " clip-rule="nonzero"/></clipPath><clipPath id="5f900bf5e1"><path d="M 46.636719 -7.074219 L 354.835938 15.164062 L 328.382812 381.710938 L 20.183594 359.472656 Z M 46.636719 -7.074219 " clip-rule="nonzero"/></clipPath><clipPath id="81637d532e"><path d="M 46.636719 -7.074219 L 354.835938 15.164062 L 328.382812 381.710938 L 20.183594 359.472656 Z M 46.636719 -7.074219 " clip-rule="nonzero"/></clipPath><clipPath id="5e92cbeb12"><path d="M 46.636719 -7.074219 L 354.835938 15.164062 L 328.382812 381.710938 L 20.183594 359.472656 Z M 46.636719 -7.074219 " clip-rule="nonzero"/></clipPath></defs><g clip-path="url(#86a7073254)"><g clip-path="url(#ee3c8458fb)"><g clip-path="url(#eca3b57c60)"><g clip-path="url(#b14293a5e5)"><path fill="#a7c957" d="M 174.339844 354.875 C 165.546875 359.21875 155.597656 362.125 143.035156 364.03125 C 135.445312 365.179688 127.996094 366.152344 120.644531 365.621094 C 119.269531 365.523438 117.902344 365.371094 116.535156 365.15625 C 110.332031 364.191406 104.109375 362.757812 98.089844 361.371094 C 95.507812 360.777344 92.929688 360.183594 90.34375 359.625 C 88.449219 359.210938 87.269531 357.886719 87.015625 355.894531 C 86.871094 354.734375 86.707031 353.574219 86.542969 352.414062 C 86.074219 349.070312 85.585938 345.617188 85.542969 342.199219 C 85.488281 337.675781 85.976562 333.125 86.445312 328.722656 C 86.785156 325.554688 87.136719 322.277344 87.28125 319.050781 C 87.375 316.890625 87.191406 314.703125 87.011719 312.585938 C 86.9375 311.710938 86.863281 310.832031 86.808594 309.953125 C 86.273438 301.523438 84.875 293.105469 83.605469 285.878906 C 81.507812 273.953125 78.4375 262.453125 74.472656 251.699219 C 72.351562 245.941406 70.089844 240.125 67.902344 234.5 C 65.9375 229.445312 63.902344 224.21875 61.976562 219.046875 L 59.902344 213.476562 C 55.390625 201.390625 50.726562 188.890625 46.507812 176.46875 C 43.011719 166.167969 40.980469 154.464844 40.292969 140.691406 C 40.132812 137.4375 39.820312 134.132812 39.519531 130.933594 C 39.25 128.078125 38.972656 125.125 38.800781 122.210938 L 38.738281 121.136719 C 38.425781 116.054688 38.101562 110.800781 40.167969 105.785156 L 40.351562 105.335938 C 40.625 104.648438 40.910156 103.9375 41.34375 103.316406 C 42.46875 101.710938 44.082031 100.804688 45.773438 100.824219 C 47.433594 100.84375 48.972656 101.757812 50.023438 103.332031 C 52.5625 107.144531 54.21875 111.507812 54.941406 116.308594 C 55.3125 118.777344 55.648438 121.253906 55.984375 123.730469 C 56.542969 127.832031 57.117188 132.078125 57.855469 136.214844 C 58.820312 141.640625 60.195312 147.066406 61.523438 152.15625 C 61.710938 152.875 62.273438 153.535156 62.871094 154.234375 C 63.003906 154.390625 63.140625 154.550781 63.273438 154.710938 C 63.382812 154.53125 63.496094 154.351562 63.609375 154.171875 C 64.113281 153.378906 64.585938 152.632812 64.742188 151.847656 C 65.878906 146.148438 65.726562 140.015625 64.265625 132.550781 C 63.65625 129.441406 62.929688 126.296875 62.226562 123.253906 C 61.304688 119.269531 60.355469 115.148438 59.652344 111.046875 C 58.09375 101.953125 56.648438 92.039062 55.109375 79.855469 C 54.753906 77.0625 55.105469 74.207031 55.566406 71.03125 C 56.140625 67.042969 58.289062 64.199219 61.777344 62.800781 C 64.640625 61.65625 67.199219 62.253906 68.800781 64.441406 L 68.960938 64.660156 C 70.722656 67.066406 72.546875 69.554688 73.257812 72.332031 C 76.9375 86.714844 80.378906 100.8125 82.011719 115.183594 C 82.953125 123.421875 84.363281 131.507812 85.484375 137.636719 C 85.835938 139.542969 86.738281 141.414062 87.609375 143.226562 C 87.835938 143.691406 88.058594 144.15625 88.273438 144.621094 C 88.414062 144.921875 88.828125 145.1875 89.230469 145.449219 C 89.328125 145.511719 89.421875 145.570312 89.515625 145.636719 C 89.605469 145.535156 89.695312 145.4375 89.789062 145.339844 C 90.160156 144.9375 90.511719 144.558594 90.613281 144.167969 C 91.695312 139.960938 91.902344 135.378906 91.277344 129.316406 C 90.933594 125.949219 90.355469 122.539062 89.800781 119.242188 C 89.496094 117.460938 89.199219 115.679688 88.929688 113.890625 C 88.46875 110.839844 88.003906 107.785156 87.539062 104.734375 C 86.191406 95.890625 84.796875 86.746094 83.589844 77.726562 C 82.550781 69.945312 83.085938 63.644531 85.277344 57.894531 C 85.945312 56.144531 86.761719 54.621094 87.699219 53.367188 C 89.441406 51.050781 91.867188 49.746094 94.53125 49.695312 C 97.195312 49.648438 99.78125 50.917969 101.621094 53.183594 C 103.867188 55.949219 105.175781 59.390625 105.617188 63.703125 C 106.3125 70.46875 106.925781 77.359375 107.519531 84.019531 C 107.765625 86.832031 108.015625 89.644531 108.273438 92.457031 C 108.589844 95.921875 108.898438 99.390625 109.203125 102.855469 C 110.046875 112.328125 110.917969 122.121094 111.949219 131.730469 C 112.226562 134.328125 113.226562 136.921875 114.195312 139.429688 L 114.671875 140.671875 C 114.855469 141.160156 115.453125 141.589844 116.027344 142.003906 C 116.191406 142.125 116.355469 142.242188 116.511719 142.363281 C 116.632812 142.210938 116.757812 142.058594 116.878906 141.902344 C 117.339844 141.335938 117.777344 140.800781 117.894531 140.242188 C 119.5 132.601562 119.933594 126.292969 119.269531 120.378906 C 118.757812 115.835938 118.210938 111.292969 117.664062 106.75 C 116.988281 101.128906 116.289062 95.316406 115.667969 89.589844 C 115.152344 84.800781 114.902344 80.460938 114.902344 76.324219 C 114.90625 73.242188 115.324219 70.492188 116.144531 68.144531 C 116.800781 66.265625 117.917969 65.027344 119.378906 64.570312 C 120.898438 64.089844 122.71875 64.53125 124.492188 65.808594 C 127.761719 68.171875 129.972656 71.792969 130.886719 76.285156 C 132.601562 84.722656 133.675781 91.253906 134.371094 97.464844 C 135.996094 111.890625 137.839844 127.253906 140.980469 142.488281 C 142.578125 150.246094 144.367188 158.101562 146.101562 165.699219 L 146.824219 168.855469 C 146.925781 169.304688 147.191406 169.734375 147.492188 170.1875 C 147.636719 169.652344 147.765625 169.144531 147.792969 168.632812 C 147.972656 165.332031 148.144531 161.800781 148.183594 158.335938 C 148.207031 156.574219 148.175781 154.777344 148.148438 153.039062 C 148.113281 150.960938 148.074219 148.8125 148.125 146.699219 C 148.292969 139.777344 148.46875 133.527344 148.914062 127.132812 C 149.027344 125.511719 149.683594 123.675781 150.921875 121.511719 C 152.355469 119.011719 154.449219 117.40625 156.816406 116.988281 C 159.25 116.558594 161.867188 117.394531 164.175781 119.34375 C 166.523438 121.324219 168.261719 124.074219 169.488281 127.753906 C 169.980469 129.238281 170.480469 130.726562 170.980469 132.210938 C 173.371094 139.320312 175.84375 146.671875 177.792969 154.035156 C 180.683594 164.949219 181.117188 176.703125 179.160156 191.03125 C 176.890625 207.652344 172.039062 223.886719 167.355469 239.585938 L 165.882812 244.523438 C 163.234375 253.441406 162.269531 263.253906 162.925781 274.527344 C 163.863281 290.625 167 306.523438 169.949219 319.957031 C 170.707031 323.40625 171.449219 326.855469 172.191406 330.304688 C 173.601562 336.839844 175.058594 343.601562 176.582031 350.230469 C 177.121094 352.542969 176.511719 353.800781 174.339844 354.875 Z M 348.742188 75.179688 L 348.628906 74.707031 C 348.457031 73.988281 348.277344 73.246094 347.933594 72.566406 C 347.054688 70.816406 345.585938 69.6875 343.914062 69.464844 C 342.277344 69.242188 340.613281 69.929688 339.347656 71.335938 C 336.285156 74.742188 334.019531 78.828125 332.613281 83.472656 C 331.890625 85.867188 331.203125 88.273438 330.515625 90.675781 C 329.375 94.652344 328.195312 98.765625 326.875 102.753906 C 325.140625 107.988281 322.996094 113.15625 320.957031 118.003906 C 320.667969 118.6875 320.015625 119.261719 319.324219 119.867188 C 319.164062 120.003906 319.007812 120.140625 318.855469 120.28125 C 318.773438 120.085938 318.683594 119.890625 318.597656 119.695312 C 318.214844 118.839844 317.855469 118.035156 317.8125 117.230469 C 317.503906 111.429688 318.535156 105.386719 321.058594 98.203125 C 322.105469 95.21875 323.273438 92.210938 324.40625 89.304688 C 325.890625 85.492188 327.425781 81.546875 328.710938 77.589844 C 331.558594 68.808594 334.410156 59.207031 337.683594 47.371094 C 338.433594 44.660156 338.496094 41.78125 338.5 38.574219 C 338.5 34.542969 336.785156 31.417969 333.53125 29.539062 C 330.863281 27.992188 328.242188 28.21875 326.347656 30.152344 L 326.160156 30.34375 C 324.070312 32.472656 321.910156 34.671875 320.804688 37.324219 C 315.097656 51.027344 309.667969 64.484375 305.984375 78.46875 C 303.871094 86.488281 301.316406 94.289062 299.324219 100.191406 C 298.703125 102.03125 297.542969 103.753906 296.417969 105.417969 C 296.128906 105.847656 295.84375 106.273438 295.5625 106.703125 C 295.382812 106.980469 294.933594 107.1875 294.496094 107.386719 C 294.394531 107.433594 294.289062 107.480469 294.1875 107.527344 C 294.113281 107.417969 294.039062 107.308594 293.960938 107.199219 C 293.652344 106.746094 293.359375 106.320312 293.3125 105.921875 C 292.847656 101.597656 293.300781 97.035156 294.789062 91.125 C 295.613281 87.839844 296.675781 84.550781 297.699219 81.363281 C 298.25 79.644531 298.804688 77.929688 299.328125 76.199219 C 300.21875 73.242188 301.117188 70.289062 302.015625 67.335938 C 304.621094 58.777344 307.3125 49.925781 309.800781 41.175781 C 311.949219 33.621094 312.320312 27.308594 310.980469 21.304688 C 310.570312 19.476562 309.980469 17.855469 309.230469 16.480469 C 307.839844 13.933594 305.628906 12.296875 303 11.863281 C 300.367188 11.433594 297.628906 12.320312 295.484375 14.296875 C 292.863281 16.710938 291.074219 19.929688 290.015625 24.132812 C 288.355469 30.730469 286.761719 37.457031 285.21875 43.960938 C 284.570312 46.710938 283.917969 49.460938 283.257812 52.210938 C 282.449219 55.59375 281.648438 58.976562 280.84375 62.359375 C 278.652344 71.613281 276.382812 81.183594 273.984375 90.550781 C 273.335938 93.078125 271.972656 95.5 270.65625 97.84375 L 270.003906 99.007812 C 269.753906 99.460938 269.101562 99.800781 268.472656 100.132812 C 268.292969 100.222656 268.113281 100.320312 267.941406 100.414062 C 267.84375 100.246094 267.746094 100.078125 267.644531 99.910156 C 267.269531 99.28125 266.914062 98.6875 266.878906 98.117188 C 266.386719 90.328125 266.859375 84.019531 268.367188 78.265625 C 269.523438 73.851562 270.714844 69.449219 271.902344 65.046875 C 273.382812 59.570312 274.914062 53.902344 276.351562 48.3125 C 277.554688 43.640625 278.421875 39.382812 279.015625 35.292969 C 279.453125 32.242188 279.4375 29.457031 278.960938 27.019531 C 278.582031 25.0625 277.652344 23.679688 276.273438 23.015625 C 274.832031 22.320312 272.972656 22.496094 271.035156 23.507812 C 267.457031 25.375 264.75 28.644531 263.203125 32.957031 C 260.335938 40.941406 258.273438 47.445312 256.710938 53.417969 C 253.035156 67.460938 249 82.398438 243.707031 97.027344 C 241.023438 104.445312 238.132812 111.929688 235.339844 119.171875 L 234.140625 122.28125 C 233.976562 122.707031 233.648438 123.097656 233.289062 123.503906 C 233.21875 122.953125 233.164062 122.429688 233.210938 121.921875 C 233.507812 118.628906 233.84375 115.109375 234.300781 111.675781 C 234.53125 109.929688 234.820312 108.15625 235.097656 106.441406 C 235.429688 104.390625 235.777344 102.269531 236.03125 100.164062 C 236.859375 93.292969 237.582031 87.085938 238.058594 80.691406 C 238.179688 79.066406 237.792969 77.15625 236.878906 74.839844 C 235.820312 72.160156 233.976562 70.269531 231.695312 69.515625 C 229.347656 68.742188 226.640625 69.195312 224.074219 70.789062 C 221.464844 72.414062 219.351562 74.886719 217.609375 78.351562 C 216.90625 79.753906 216.199219 81.15625 215.492188 82.554688 C 212.105469 89.242188 208.605469 96.164062 205.617188 103.167969 C 201.1875 113.554688 199.070312 125.125 198.953125 139.585938 C 198.8125 156.359375 201.28125 173.121094 203.664062 189.328125 L 204.414062 194.433594 C 205.75 203.636719 205.300781 213.488281 203.03125 224.546875 C 199.792969 240.339844 194.402344 255.628906 189.554688 268.5 C 188.304688 271.820312 187.066406 275.140625 185.832031 278.46875 C 183.503906 284.71875 181.097656 291.183594 178.644531 297.503906 C 177.785156 299.71875 178.207031 301.050781 180.199219 302.421875 C 188.277344 307.980469 197.703125 312.289062 209.867188 315.980469 C 217.210938 318.207031 224.441406 320.238281 231.792969 320.769531 C 233.167969 320.867188 234.546875 320.914062 235.929688 320.898438 C 242.207031 320.835938 248.574219 320.308594 254.730469 319.800781 C 257.367188 319.582031 260.007812 319.367188 262.644531 319.183594 C 264.578125 319.046875 265.9375 317.90625 266.472656 315.972656 C 266.78125 314.84375 267.113281 313.71875 267.441406 312.589844 C 268.386719 309.351562 269.363281 306.003906 269.898438 302.628906 C 270.601562 298.164062 270.769531 293.589844 270.9375 289.167969 C 271.058594 285.980469 271.179688 282.6875 271.503906 279.46875 C 271.714844 277.320312 272.214844 275.179688 272.695312 273.113281 C 272.894531 272.253906 273.09375 271.398438 273.273438 270.539062 C 274.839844 263.09375 277.054688 255.8125 279.902344 247.175781 C 283.691406 235.667969 288.382812 224.726562 293.84375 214.660156 C 296.769531 209.269531 299.839844 203.84375 302.808594 198.59375 C 305.484375 193.867188 308.25 188.984375 310.898438 184.136719 L 313.753906 178.921875 C 319.953125 167.609375 326.363281 155.910156 332.320312 144.222656 C 337.261719 134.53125 340.953125 123.242188 343.609375 109.707031 C 344.238281 106.511719 345.019531 103.285156 345.777344 100.164062 C 346.453125 97.375 347.152344 94.492188 347.738281 91.632812 L 347.957031 90.578125 C 348.996094 85.589844 350.066406 80.4375 348.742188 75.179688 Z M 348.742188 75.179688 " fill-opacity="1" fill-rule="nonzero"/></g></g></g></g><g clip-path="url(#6ded3f35e6)"><g clip-path="url(#5f900bf5e1)"><g clip-path="url(#81637d532e)"><g clip-path="url(#5e92cbeb12)"><path fill="#4c956c" d="M 175.691406 354.269531 C 174.972656 355.070312 173.96875 355.503906 173 355.921875 C 171.78125 356.453125 170.550781 356.957031 169.316406 357.445312 C 151.636719 364.421875 132.246094 367.441406 113.308594 365.3125 C 108.628906 364.789062 103.980469 363.941406 99.417969 362.777344 C 97.109375 362.1875 94.820312 361.511719 92.558594 360.753906 C 90.585938 360.089844 88.414062 359.46875 86.816406 358.070312 C 85.160156 356.621094 84.730469 354.527344 84.429688 352.441406 C 84.0625 349.894531 83.8125 347.332031 83.667969 344.761719 C 83.535156 342.449219 83.199219 339.824219 83.65625 337.535156 C 83.894531 336.335938 84.542969 335.15625 85.695312 334.851562 C 85.804688 334.492188 86.097656 334.210938 86.585938 334.285156 C 93.199219 335.296875 99.867188 335.90625 106.550781 336.21875 C 118.269531 336.769531 130.011719 336.429688 141.730469 335.925781 C 147.039062 335.695312 152.398438 335.609375 157.683594 335 C 162.589844 334.433594 167.429688 333.257812 171.597656 330.503906 C 171.988281 330.242188 172.664062 330.5 172.832031 330.925781 C 174.914062 336.160156 176.207031 341.667969 176.582031 347.292969 C 176.730469 349.457031 177.277344 352.503906 175.691406 354.269531 Z M 272.4375 298.972656 C 272.5 297.574219 272.117188 295.882812 270.796875 295.328125 C 270.742188 294.960938 270.488281 294.644531 269.996094 294.648438 C 258.277344 294.738281 246.597656 293.5625 235.019531 291.804688 C 229.140625 290.910156 223.285156 289.871094 217.4375 288.777344 C 212.085938 287.777344 206.691406 286.863281 201.386719 285.609375 C 195.972656 284.332031 190.625 282.460938 186.410156 278.699219 C 186.058594 278.386719 185.355469 278.546875 185.128906 278.9375 C 182.664062 283.214844 180.753906 287.792969 179.535156 292.578125 C 178.976562 294.777344 178.25 297.269531 178.316406 299.554688 C 178.378906 301.742188 180.015625 302.824219 181.714844 303.863281 C 189.84375 308.835938 198.550781 312.890625 207.609375 315.855469 C 216.640625 318.816406 226.042969 320.714844 235.527344 321.34375 C 240.230469 321.652344 244.949219 321.640625 249.648438 321.3125 C 254.289062 320.992188 259.097656 320.496094 263.601562 319.292969 C 265.828125 318.699219 267.625 317.59375 268.628906 315.453125 C 269.800781 312.96875 270.363281 310.0625 270.960938 307.394531 C 271.578125 304.667969 272.304688 301.773438 272.4375 298.972656 Z M 272.4375 298.972656 " fill-opacity="1" fill-rule="nonzero"/></g></g></g></g></svg>