<svg xmlns="http://www.w3.org/2000/svg" xmlns:xlink="http://www.w3.org/1999/xlink" width="500" zoomAndPan="magnify" viewBox="0 0 375 374.999991" height="500" preserveAspectRatio="xMidYMid meet" version="1.0"><defs><clipPath id="3c08dd4463"><path d="M 21 6 L 354 6 L 354 364 L 21 364 Z M 21 6 " clip-rule="nonzero"/></clipPath><clipPath id="2fbc3155d3"><path d="M -23.972656 32.097656 L 300.984375 -33.453125 L 375.132812 334.144531 L 50.179688 399.691406 Z M -23.972656 32.097656 " clip-rule="nonzero"/></clipPath><clipPath id="b6b3c0eb47"><path d="M -23.972656 32.097656 L 300.984375 -33.453125 L 375.132812 334.144531 L 50.179688 399.691406 Z M -23.972656 32.097656 " clip-rule="nonzero"/></clipPath><clipPath id="2c3cd12228"><path d="M 77 88 L 291 88 L 291 290 L 77 290 Z M 77 88 " clip-rule="nonzero"/></clipPath><clipPath id="b5bf006692"><path d="M -23.972656 32.097656 L 300.984375 -33.453125 L 375.132812 334.144531 L 50.179688 399.691406 Z M -23.972656 32.097656 " clip-rule="nonzero"/></clipPath><clipPath id="5d64d52274"><path d="M -23.972656 32.097656 L 300.984375 -33.453125 L 375.132812 334.144531 L 50.179688 399.691406 Z M -23.972656 32.097656 " clip-rule="nonzero"/></clipPath><clipPath id="08da4d8fd0"><path d="M 98 132 L 248 132 L 248 238 L 98 238 Z M 98 132 " clip-rule="nonzero"/></clipPath><clipPath id="a8f8fd384e"><path d="M -23.972656 32.097656 L 300.984375 -33.453125 L 375.132812 334.144531 L 50.179688 399.691406 Z M -23.972656 32.097656 " clip-rule="nonzero"/></clipPath><clipPath id="a4cce5560f"><path d="M -23.972656 32.097656 L 300.984375 -33.453125 L 375.132812 334.144531 L 50.179688 399.691406 Z M -23.972656 32.097656 " clip-rule="nonzero"/></clipPath><clipPath id="b1a30381c6"><path d="M 110 140 L 237 140 L 237 197 L 110 197 Z M 110 140 " clip-rule="nonzero"/></clipPath><clipPath id="ead3d53b82"><path d="M -23.972656 32.097656 L 300.984375 -33.453125 L 375.132812 334.144531 L 50.179688 399.691406 Z M -23.972656 32.097656 " clip-rule="nonzero"/></clipPath><clipPath id="380f08e6c0"><path d="M -23.972656 32.097656 L 300.984375 -33.453125 L 375.132812 334.144531 L 50.179688 399.691406 Z M -23.972656 32.097656 " clip-rule="nonzero"/></clipPath><clipPath id="a245ff742d"><path d="M 50 13 L 337 13 L 337 337 L 50 337 Z M 50 13 " clip-rule="nonzero"/></clipPath><clipPath id="55e571c3cc"><path d="M -23.972656 32.097656 L 300.984375 -33.453125 L 375.132812 334.144531 L 50.179688 399.691406 Z M -23.972656 32.097656 " clip-rule="nonzero"/></clipPath><clipPath id="77a5d4d76c"><path d="M -23.972656 32.097656 L 300.984375 -33.453125 L 375.132812 334.144531 L 50.179688 399.691406 Z M -23.972656 32.097656 " clip-rule="nonzero"/></clipPath></defs><g clip-path="url(#3c08dd4463)"><g clip-path="url(#2fbc3155d3)"><g clip-path="url(#b6b3c0eb47)"><path fill="#f2dcc0" d="M 337.921875 159.105469 C 347.472656 215.246094 344.199219 303.011719 344.050781 306.859375 C 345.335938 309.238281 354.152344 325.660156 353.847656 328.59375 C 353.632812 330.660156 328.863281 340.277344 298.746094 348.230469 C 290.066406 350.523438 280.082031 352.921875 269.203125 355.113281 C 243.773438 360.246094 213.464844 364.265625 183.523438 363.261719 C 102.304688 360.53125 37.757812 338.117188 36.972656 334.21875 C 36.269531 330.742188 43.367188 313.816406 44.246094 311.734375 C 43.03125 309.078125 29.3125 278.375 23.621094 232.453125 C 20.140625 204.363281 20.296875 176.152344 24.089844 148.605469 C 28.816406 114.246094 39.246094 80.832031 55.082031 49.28125 C 53.921875 47.09375 45.25 30.070312 49.769531 17.847656 L 49.863281 17.59375 L 50.128906 17.554688 C 50.820312 17.460938 119.429688 7.96875 169.835938 6.511719 C 211.242188 5.316406 258.71875 8.625 287.085938 10.601562 C 293.628906 11.058594 299.28125 11.453125 303.5625 11.699219 L 303.925781 11.722656 L 303.980469 12.078125 C 305.777344 23.410156 296.414062 39.734375 295.113281 41.933594 C 297.359375 46.042969 328.503906 103.753906 337.921875 159.105469 Z M 337.921875 159.105469 " fill-opacity="1" fill-rule="nonzero"/></g></g></g><g clip-path="url(#2c3cd12228)"><g clip-path="url(#b5bf006692)"><g clip-path="url(#5d64d52274)"><path fill="#fefee3" d="M 283.898438 144.46875 C 284.238281 146.589844 284.390625 148.734375 284.550781 151.003906 C 284.65625 152.523438 284.765625 154.089844 284.9375 155.652344 C 285.085938 156.996094 285.273438 158.324219 285.472656 159.730469 C 285.792969 162.019531 286.125 164.386719 286.273438 166.804688 C 286.324219 167.664062 286.371094 168.546875 286.414062 169.453125 C 286.550781 172.101562 286.691406 174.84375 287.042969 177.671875 C 287.484375 181.230469 287.917969 184.914062 288.332031 188.527344 C 288.726562 191.957031 288.996094 195.628906 289.132812 199.433594 C 289.1875 200.945312 289.261719 202.449219 289.335938 203.949219 C 289.4375 205.976562 289.542969 208.070312 289.585938 210.117188 C 289.613281 211.519531 289.652344 212.914062 289.691406 214.296875 C 289.75 216.441406 289.8125 218.660156 289.828125 220.804688 C 289.84375 222.988281 289.808594 225.152344 289.773438 227.242188 C 289.753906 228.679688 289.730469 230.09375 289.722656 231.488281 C 289.710938 234.757812 289.660156 237.910156 289.613281 240.921875 L 289.589844 242.171875 C 289.558594 244.34375 289.457031 246.425781 289.355469 248.4375 C 289.28125 249.957031 289.207031 251.429688 289.171875 252.84375 C 289.066406 256.898438 288.925781 260.570312 288.816406 263.515625 C 288.710938 266.320312 289.382812 267.949219 289.925781 269.261719 C 290.660156 271.046875 291.195312 272.339844 288.964844 274.792969 C 287.589844 276.304688 286.589844 276.921875 285.609375 277.121094 C 284.824219 277.277344 284.054688 277.167969 283.117188 277.03125 C 281.695312 276.824219 279.921875 276.566406 276.976562 277.066406 C 275.410156 277.332031 273.667969 277.503906 271.820312 277.691406 C 269.78125 277.894531 267.675781 278.105469 265.398438 278.46875 C 263.460938 278.773438 261.417969 279.058594 259.257812 279.355469 C 257.523438 279.59375 255.726562 279.84375 253.863281 280.121094 L 250.746094 280.589844 C 248.0625 280.996094 245.261719 281.417969 242.339844 281.828125 C 240.90625 282.03125 239.449219 282.246094 237.96875 282.460938 C 235.644531 282.804688 233.257812 283.15625 230.804688 283.480469 C 228.890625 283.734375 226.96875 283.882812 224.9375 284.042969 C 223.066406 284.191406 221.132812 284.34375 219.199219 284.582031 C 217.527344 284.789062 215.839844 285.03125 214.128906 285.277344 C 212.023438 285.578125 209.851562 285.886719 207.652344 286.140625 C 205.367188 286.40625 203.046875 286.644531 200.691406 286.882812 C 199.164062 287.039062 197.621094 287.199219 196.066406 287.367188 C 194.535156 287.53125 192.984375 287.75 191.480469 287.960938 C 189.40625 288.257812 187.261719 288.558594 185.136719 288.726562 C 182.992188 288.890625 180.824219 288.933594 178.726562 288.976562 C 177.214844 289.003906 175.652344 289.035156 174.128906 289.113281 C 172.578125 289.191406 171.035156 289.308594 169.496094 289.425781 C 167.410156 289.585938 165.253906 289.75 163.144531 289.804688 C 160.5 289.878906 157.859375 289.878906 155.308594 289.878906 C 154.246094 289.878906 153.1875 289.878906 152.140625 289.882812 C 149.992188 289.894531 147.859375 289.796875 145.796875 289.699219 C 144.191406 289.625 142.675781 289.554688 141.144531 289.53125 C 139.355469 289.503906 137.566406 289.59375 135.835938 289.679688 C 133.863281 289.777344 132 289.867188 130.132812 289.804688 C 127.972656 289.730469 125.871094 289.53125 123.839844 289.339844 C 122.214844 289.1875 120.679688 289.042969 119.160156 288.964844 C 117.238281 288.863281 115.363281 288.90625 113.554688 288.945312 C 111.65625 288.988281 109.863281 289.027344 108.136719 288.90625 C 105.582031 288.722656 103.179688 288.441406 101.058594 288.195312 C 99.683594 288.035156 98.390625 287.882812 97.183594 287.773438 C 94.644531 287.539062 93.175781 287.636719 92.101562 287.703125 C 90.183594 287.828125 89.386719 287.878906 86.285156 286.070312 L 86.125 285.980469 L 86.078125 285.804688 C 85.476562 283.644531 84.859375 280.386719 84.136719 275.542969 C 83.652344 272.292969 83.175781 268.714844 82.730469 264.914062 C 82.5625 263.480469 82.320312 262.019531 82.066406 260.472656 C 81.742188 258.488281 81.40625 256.4375 81.195312 254.289062 C 80.855469 250.816406 80.554688 247.148438 80.261719 243.597656 C 80.078125 241.367188 79.9375 239.121094 79.789062 236.746094 C 79.707031 235.476562 79.628906 234.1875 79.539062 232.894531 C 79.4375 231.394531 79.304688 229.882812 79.171875 228.355469 C 78.992188 226.351562 78.808594 224.277344 78.695312 222.191406 C 78.589844 220.257812 78.652344 218.265625 78.710938 216.339844 C 78.769531 214.546875 78.828125 212.699219 78.75 210.875 C 78.683594 209.304688 78.59375 207.726562 78.5 206.144531 C 78.371094 204 78.242188 201.785156 78.183594 199.585938 C 78.136719 197.859375 78 196.09375 77.871094 194.386719 C 77.71875 192.390625 77.5625 190.328125 77.542969 188.285156 C 77.519531 186.277344 77.6875 184.246094 77.847656 182.28125 C 77.988281 180.539062 78.136719 178.738281 78.148438 176.976562 C 78.160156 175.222656 78.058594 173.4375 77.960938 171.710938 C 77.847656 169.726562 77.734375 167.675781 77.789062 165.664062 C 77.820312 164.589844 77.84375 163.515625 77.867188 162.449219 C 77.929688 159.78125 77.992188 157.027344 78.132812 154.355469 C 78.316406 150.792969 78.605469 147.261719 78.882812 143.847656 L 78.945312 143.070312 C 79.066406 141.597656 79.152344 140.132812 79.238281 138.683594 C 79.378906 136.289062 79.511719 134.027344 79.785156 131.773438 C 80.058594 129.472656 80.578125 127.253906 81.078125 125.105469 C 81.4375 123.566406 81.777344 122.113281 82.027344 120.652344 C 82.605469 117.292969 83.347656 113.886719 84.429688 109.597656 L 84.902344 107.695312 C 85.703125 104.457031 86.460938 101.402344 87.539062 98.679688 L 87.609375 98.503906 L 87.78125 98.429688 C 90.433594 97.320312 93.878906 96.292969 98.628906 95.203125 C 101.558594 94.535156 105.460938 93.679688 109.691406 93.035156 C 112.28125 92.644531 114.96875 92.371094 117.816406 92.082031 C 118.824219 91.980469 119.84375 91.878906 120.875 91.769531 C 123.4375 91.496094 126.027344 91.308594 128.765625 91.113281 C 129.867188 91.035156 130.972656 90.957031 132.09375 90.871094 C 134.433594 90.691406 136.761719 90.585938 139.226562 90.476562 C 140.582031 90.414062 141.945312 90.355469 143.320312 90.277344 C 144.949219 90.191406 146.625 90.042969 148.246094 89.902344 C 150.296875 89.722656 152.421875 89.539062 154.542969 89.457031 C 156.261719 89.394531 158.023438 89.246094 159.726562 89.097656 C 161.703125 88.933594 163.746094 88.757812 165.773438 88.710938 C 167.734375 88.664062 169.722656 88.78125 171.648438 88.894531 C 173.414062 88.996094 175.246094 89.105469 177.03125 89.082031 C 178.75 89.0625 180.492188 89 182.175781 88.941406 C 184.175781 88.867188 186.246094 88.792969 188.269531 88.789062 C 190.0625 88.789062 191.871094 88.722656 193.621094 88.660156 C 195.558594 88.59375 197.5625 88.519531 199.515625 88.535156 C 201.628906 88.546875 203.746094 88.613281 205.792969 88.679688 C 207.464844 88.730469 209.121094 88.78125 210.757812 88.808594 C 212.785156 88.839844 214.789062 89.015625 216.730469 89.1875 C 218.546875 89.351562 220.265625 89.503906 221.984375 89.539062 C 225.902344 89.628906 229.660156 89.71875 233.222656 89.824219 C 235.046875 89.878906 236.820312 89.910156 238.535156 89.945312 C 240.59375 89.984375 242.570312 90.019531 244.453125 90.085938 C 246.675781 90.167969 248.742188 90.058594 250.738281 89.957031 C 252.507812 89.863281 254.179688 89.777344 255.714844 89.84375 C 258.429688 89.960938 260.007812 89.675781 261.160156 89.46875 C 263.050781 89.125 264.089844 88.9375 267.144531 90.832031 C 270.269531 92.773438 270.429688 93.804688 270.753906 95.859375 C 270.941406 97.046875 271.195312 98.667969 272.1875 101.144531 L 272.28125 101.378906 C 273.410156 104.195312 274.8125 107.699219 276.121094 111.679688 C 276.757812 113.617188 277.238281 115.710938 277.742188 117.925781 C 278.089844 119.4375 278.445312 120.996094 278.871094 122.585938 C 279.214844 123.867188 279.613281 125.15625 280.035156 126.515625 C 280.714844 128.714844 281.417969 130.984375 281.933594 133.398438 C 282.652344 136.769531 283.222656 140.257812 283.898438 144.46875 Z M 283.898438 144.46875 " fill-opacity="1" fill-rule="nonzero"/></g></g></g><g clip-path="url(#08da4d8fd0)"><g clip-path="url(#a8f8fd384e)"><g clip-path="url(#a4cce5560f)"><path fill="#a7c957" d="M 177.644531 186.265625 C 180.246094 171.683594 187.441406 152.480469 198.972656 143.191406 C 218.984375 127.03125 246.460938 132.734375 247.503906 139.890625 C 247.949219 142.949219 245.613281 145.679688 243.285156 147.738281 C 233.695312 156.277344 212.589844 162.351562 192.339844 185.816406 C 188.898438 189.804688 186.082031 194.332031 184.375 199.316406 C 179.851562 212.695312 184.167969 222.746094 187.902344 236.46875 C 188.210938 237.589844 186.746094 238.339844 186.007812 237.417969 C 177.886719 227.324219 182.777344 210.527344 173.175781 202.128906 C 170.703125 199.964844 167.585938 198.742188 164.523438 197.558594 C 145.710938 190.351562 126.550781 184.089844 107.117188 178.757812 C 104.933594 178.160156 102.703125 177.554688 100.875 176.21875 C 99.058594 174.882812 97.71875 172.636719 98.125 170.414062 C 98.464844 168.527344 99.933594 167.078125 101.390625 165.859375 C 113.316406 155.828125 130.199219 152 145.277344 155.9375 C 160.363281 159.890625 169.847656 174.546875 177.644531 186.265625 Z M 177.644531 186.265625 " fill-opacity="1" fill-rule="nonzero"/></g></g></g><g clip-path="url(#b1a30381c6)"><g clip-path="url(#ead3d53b82)"><g clip-path="url(#380f08e6c0)"><path fill="#4c956c" d="M 111.671875 171.460938 C 110.5 171.78125 110.132812 169.929688 111.300781 169.613281 C 117.292969 167.996094 123.402344 166.25 129.671875 166.464844 C 134.996094 166.644531 139.890625 168.660156 144.703125 170.773438 C 149.089844 172.699219 153.492188 174.578125 157.757812 176.765625 C 166.132812 181.0625 174.03125 186.609375 179.074219 194.730469 C 178.53125 194.699219 177.988281 194.667969 177.445312 194.632812 C 180.757812 189.429688 184.054688 184.214844 187.558594 179.140625 C 199.417969 161.953125 214.84375 145.746094 235.882812 140.753906 C 237.066406 140.472656 237.433594 142.324219 236.257812 142.601562 C 230.632812 143.9375 225.277344 146.167969 220.28125 149.0625 C 201.804688 159.761719 190.195312 178.121094 179.019531 195.679688 C 178.609375 196.320312 177.75 196.160156 177.390625 195.582031 C 174.6875 191.226562 171.035156 187.574219 166.925781 184.539062 C 159.429688 179.003906 150.710938 175.382812 142.199219 171.730469 C 137.421875 169.683594 132.648438 168.15625 127.390625 168.347656 C 122.035156 168.546875 116.8125 170.074219 111.671875 171.460938 Z M 111.671875 171.460938 " fill-opacity="1" fill-rule="nonzero"/></g></g></g><g clip-path="url(#a245ff742d)"><g clip-path="url(#55e571c3cc)"><g clip-path="url(#77a5d4d76c)"><path fill="#805a35" d="M 291.722656 44.519531 C 291.828125 45.003906 291.519531 45.484375 291.03125 45.589844 C 290.351562 45.738281 289.757812 45.863281 289.230469 45.96875 C 286.703125 46.480469 285.71875 46.570312 284.148438 46.714844 C 282.851562 46.832031 281.074219 46.996094 277.566406 47.484375 C 276.21875 47.671875 274.773438 47.914062 273.242188 48.175781 C 270.539062 48.632812 267.46875 49.15625 264.140625 49.484375 C 262.730469 49.621094 261.269531 49.792969 259.765625 49.96875 C 256.855469 50.304688 253.847656 50.65625 250.628906 50.859375 C 249.554688 50.925781 248.460938 51.003906 247.351562 51.078125 C 244.050781 51.300781 240.636719 51.535156 237.0625 51.640625 C 233.949219 51.730469 230.78125 51.699219 227.425781 51.667969 C 226.121094 51.65625 224.804688 51.644531 223.472656 51.636719 C 222.097656 51.632812 220.683594 51.609375 219.234375 51.585938 C 216.316406 51.542969 213.300781 51.492188 210.140625 51.574219 C 206.15625 51.679688 202.007812 51.84375 197.613281 52.015625 L 196.796875 52.046875 C 194.734375 52.128906 192.679688 52.136719 190.507812 52.144531 C 188.203125 52.152344 185.816406 52.160156 183.433594 52.265625 C 181.296875 52.363281 179.179688 52.527344 176.9375 52.699219 C 176.664062 52.722656 176.378906 52.742188 176.105469 52.761719 C 176.03125 52.800781 175.949219 52.828125 175.863281 52.847656 C 175.746094 52.871094 175.625 52.871094 175.5 52.84375 C 175.472656 52.839844 175.449219 52.820312 175.425781 52.8125 C 173.671875 52.945312 171.890625 53.074219 170.097656 53.152344 C 167.996094 53.246094 165.828125 53.425781 163.730469 53.601562 C 161.453125 53.789062 159.101562 53.984375 156.753906 54.078125 C 152.328125 54.257812 147.859375 54.402344 143.386719 54.542969 C 141.628906 54.601562 139.867188 54.671875 138.105469 54.746094 C 135.453125 54.855469 132.707031 54.96875 130.007812 55.019531 C 127.011719 55.078125 123.980469 55.070312 121.046875 55.058594 C 119.566406 55.054688 118.089844 55.050781 116.621094 55.054688 C 114.101562 55.058594 111.585938 54.882812 109.152344 54.710938 C 108.914062 54.691406 108.671875 54.679688 108.433594 54.660156 C 108.429688 54.664062 108.425781 54.664062 108.421875 54.664062 C 108.414062 54.667969 108.40625 54.667969 108.398438 54.671875 C 108.25 54.695312 108.109375 54.671875 107.972656 54.628906 C 106.394531 54.523438 104.796875 54.417969 103.234375 54.386719 L 100.875 54.34375 C 97.0625 54.269531 93.460938 54.203125 89.851562 54.015625 C 86.089844 53.820312 82.144531 53.597656 78.316406 53.273438 C 78.292969 53.285156 78.28125 53.304688 78.257812 53.316406 C 78.191406 53.347656 78.121094 53.371094 78.050781 53.386719 C 77.78125 53.4375 77.507812 53.359375 77.300781 53.183594 C 77.03125 53.160156 76.753906 53.140625 76.480469 53.113281 C 71.140625 52.601562 66.910156 52.082031 63.164062 51.476562 C 62.671875 51.398438 62.339844 50.933594 62.417969 50.441406 C 62.496094 49.949219 62.964844 49.613281 63.453125 49.695312 C 67.074219 50.28125 71.171875 50.789062 76.300781 51.285156 C 74.898438 48.28125 74.777344 47.859375 73.765625 44.089844 L 73.175781 41.890625 C 72.550781 39.589844 72.257812 36.960938 71.949219 34.175781 C 71.816406 32.957031 71.675781 31.695312 71.503906 30.410156 C 71.046875 27.050781 70.570312 23.109375 70.621094 18.882812 C 70.625 18.382812 71.035156 17.980469 71.535156 17.988281 C 72.035156 17.996094 72.433594 18.40625 72.425781 18.902344 C 72.375 23.011719 72.847656 26.871094 73.292969 30.167969 C 73.46875 31.46875 73.609375 32.742188 73.746094 33.976562 C 74.046875 36.691406 74.332031 39.25 74.917969 41.417969 L 75.511719 43.621094 C 76.585938 47.644531 76.59375 47.664062 78.382812 51.46875 C 82.210938 51.792969 86.171875 52.019531 89.945312 52.210938 C 93.523438 52.398438 97.113281 52.464844 100.910156 52.539062 L 103.273438 52.582031 C 104.558594 52.609375 105.859375 52.683594 107.152344 52.765625 C 106.144531 46.976562 106.132812 46.699219 105.929688 41.320312 C 105.886719 40.1875 105.835938 38.824219 105.761719 37.128906 L 105.71875 36.105469 C 105.519531 31.402344 105.289062 26.074219 105.597656 20.242188 C 105.625 19.742188 106.054688 19.363281 106.546875 19.386719 C 107.046875 19.414062 107.425781 19.835938 107.402344 20.335938 C 107.097656 26.082031 107.324219 31.367188 107.523438 36.03125 L 107.566406 37.050781 C 107.636719 38.75 107.691406 40.113281 107.734375 41.25 C 107.9375 46.640625 107.945312 46.800781 109.003906 52.886719 C 109.097656 52.894531 109.1875 52.898438 109.277344 52.90625 C 111.679688 53.078125 114.164062 53.253906 116.617188 53.246094 C 118.089844 53.242188 119.570312 53.246094 121.054688 53.253906 C 123.976562 53.261719 126.996094 53.273438 129.972656 53.214844 C 132.652344 53.160156 135.390625 53.050781 138.035156 52.941406 C 138.183594 52.933594 138.332031 52.929688 138.480469 52.921875 C 138.714844 50.722656 138.902344 49.566406 139.070312 48.546875 C 139.328125 46.960938 139.535156 45.707031 139.796875 41.09375 C 139.917969 38.972656 139.964844 36.554688 140.019531 34 C 140.050781 32.324219 140.089844 30.5625 140.144531 28.722656 C 140.238281 25.863281 140.253906 22.796875 140.269531 19.554688 L 140.292969 16.339844 C 140.292969 15.839844 140.703125 15.4375 141.203125 15.445312 C 141.699219 15.445312 142.101562 15.855469 142.097656 16.351562 L 142.078125 19.5625 C 142.058594 22.820312 142.042969 25.898438 141.953125 28.777344 C 141.894531 30.613281 141.855469 32.371094 141.824219 34.035156 C 141.769531 36.609375 141.722656 39.042969 141.601562 41.195312 C 141.332031 45.90625 141.121094 47.199219 140.851562 48.839844 C 140.695312 49.792969 140.519531 50.867188 140.308594 52.855469 C 141.316406 52.8125 142.324219 52.769531 143.332031 52.738281 C 147.804688 52.597656 152.265625 52.453125 156.6875 52.273438 C 158.992188 52.183594 161.328125 51.988281 163.585938 51.800781 C 165.699219 51.625 167.882812 51.445312 170.023438 51.347656 C 171.679688 51.273438 173.332031 51.15625 174.964844 51.035156 C 175.179688 50.042969 175.355469 49.269531 175.5 48.632812 C 176.113281 45.957031 176.191406 45.613281 176.605469 39.671875 C 176.828125 36.492188 176.90625 32.578125 176.847656 27.363281 C 176.816406 24.28125 176.515625 20.957031 176.195312 17.441406 L 175.984375 15.074219 C 175.941406 14.578125 176.296875 14.144531 176.808594 14.09375 C 177.304688 14.050781 177.742188 14.421875 177.785156 14.917969 L 177.996094 17.277344 C 178.316406 20.832031 178.621094 24.1875 178.652344 27.339844 C 178.710938 32.609375 178.632812 36.566406 178.40625 39.796875 C 177.984375 45.878906 177.886719 46.300781 177.261719 49.035156 C 177.144531 49.550781 177.003906 50.160156 176.84375 50.894531 C 178.988281 50.730469 181.203125 50.558594 183.355469 50.460938 C 185.777344 50.351562 188.183594 50.34375 190.503906 50.339844 C 192.660156 50.332031 194.695312 50.324219 196.730469 50.242188 L 197.546875 50.210938 C 201.945312 50.039062 206.101562 49.875 210.097656 49.769531 C 211.839844 49.726562 213.53125 49.71875 215.1875 49.730469 C 215.296875 49.039062 215.390625 48.453125 215.46875 47.945312 C 215.984375 44.714844 215.992188 44.65625 216.457031 38.566406 C 216.554688 37.3125 216.703125 35.996094 216.859375 34.597656 C 217.128906 32.207031 217.433594 29.5 217.503906 26.671875 C 217.554688 24.660156 217.347656 22.550781 217.128906 20.316406 C 216.953125 18.519531 216.769531 16.660156 216.71875 14.75 C 216.703125 14.25 217.101562 13.839844 217.59375 13.820312 C 218.09375 13.808594 218.507812 14.199219 218.519531 14.699219 C 218.574219 16.546875 218.753906 18.375 218.925781 20.144531 C 219.148438 22.433594 219.363281 24.59375 219.308594 26.71875 C 219.234375 29.621094 218.925781 32.375 218.652344 34.800781 C 218.496094 36.179688 218.351562 37.484375 218.257812 38.707031 C 217.789062 44.867188 217.777344 44.929688 217.253906 48.226562 C 217.183594 48.667969 217.101562 49.171875 217.011719 49.75 C 217.769531 49.757812 218.523438 49.769531 219.265625 49.78125 C 220.707031 49.804688 222.117188 49.828125 223.484375 49.832031 C 224.816406 49.839844 226.140625 49.851562 227.445312 49.863281 C 230.78125 49.894531 233.933594 49.925781 237.011719 49.835938 C 240.554688 49.730469 243.949219 49.5 247.234375 49.277344 C 248.347656 49.199219 249.441406 49.125 250.515625 49.058594 C 251.003906 49.027344 251.480469 48.988281 251.964844 48.949219 C 253.007812 42.308594 253.015625 42.097656 253.207031 35.664062 L 253.277344 33.378906 C 253.46875 27.203125 253.238281 21.753906 252.59375 17.183594 C 252.519531 16.691406 252.859375 16.25 253.359375 16.164062 C 253.851562 16.09375 254.308594 16.4375 254.378906 16.929688 C 255.042969 21.605469 255.277344 27.160156 255.082031 33.4375 L 255.011719 35.71875 C 254.820312 42.128906 254.808594 42.460938 253.816406 48.792969 C 255.785156 48.609375 257.695312 48.390625 259.558594 48.175781 C 261.074219 48 262.542969 47.828125 263.964844 47.6875 C 267.234375 47.367188 270.265625 46.851562 272.945312 46.398438 C 274.488281 46.136719 275.945312 45.886719 277.320312 45.695312 C 277.660156 45.648438 277.972656 45.605469 278.285156 45.566406 L 278.859375 43.953125 C 280.351562 39.773438 280.378906 39.691406 281.445312 33.289062 C 282.277344 28.296875 282.625 24.054688 282.507812 20.316406 C 282.492188 19.816406 282.882812 19.410156 283.382812 19.386719 C 283.878906 19.371094 284.296875 19.761719 284.3125 20.261719 C 284.433594 24.117188 284.078125 28.476562 283.226562 33.585938 C 282.132812 40.148438 282.074219 40.3125 280.558594 44.558594 L 280.289062 45.308594 C 281.988281 45.101562 283.105469 44.996094 283.988281 44.917969 C 285.867188 44.742188 286.816406 44.65625 290.652344 43.828125 C 290.65625 43.824219 290.660156 43.824219 290.664062 43.824219 C 291.144531 43.726562 291.617188 44.035156 291.722656 44.519531 Z M 335.734375 305.328125 C 335.519531 305.390625 314.03125 311.929688 285.714844 318.734375 C 259.601562 325.011719 222.171875 332.804688 192.179688 334.289062 C 152.007812 336.28125 120.773438 329.492188 90.570312 322.929688 C 78.164062 320.234375 65.339844 317.449219 52.039062 315.296875 C 51.550781 315.21875 51.082031 315.550781 51.003906 316.042969 C 50.925781 316.535156 51.257812 317 51.75 317.078125 C 65.003906 319.222656 77.804688 322.003906 90.1875 324.695312 C 120.503906 331.28125 151.855469 338.09375 192.269531 336.09375 C 212.023438 335.117188 234.960938 331.417969 255.796875 327.214844 C 266.75 325.007812 277.125 322.65625 286.148438 320.488281 C 314.515625 313.671875 336.046875 307.117188 336.261719 307.054688 C 336.738281 306.90625 337.003906 306.402344 336.859375 305.925781 C 336.714844 305.449219 336.207031 305.191406 335.734375 305.328125 Z M 85.390625 292.570312 L 85.554688 292.664062 C 89.785156 294.996094 91.261719 294.746094 93.707031 294.328125 C 95.433594 294.035156 97.585938 293.667969 101.632812 294.003906 C 103.320312 294.144531 105.121094 294.335938 107.027344 294.539062 C 110.175781 294.875 113.746094 295.257812 117.519531 295.46875 C 120.246094 295.621094 123.074219 295.601562 126.066406 295.582031 C 128.464844 295.566406 130.941406 295.550781 133.472656 295.625 C 135.203125 295.675781 136.964844 295.75 138.75 295.824219 C 142.199219 295.960938 145.765625 296.109375 149.414062 296.113281 C 152.902344 296.117188 156.378906 295.980469 160.0625 295.835938 C 161.8125 295.769531 163.578125 295.699219 165.355469 295.644531 L 166.609375 295.609375 C 171.394531 295.464844 176.339844 295.316406 181.289062 294.992188 C 185.949219 294.6875 190.695312 294.171875 195.285156 293.675781 L 197.164062 293.472656 C 199.773438 293.191406 202.375 292.953125 204.894531 292.722656 C 208.199219 292.421875 211.320312 292.132812 214.425781 291.761719 C 217.148438 291.4375 219.839844 291.167969 222.445312 290.910156 C 225.65625 290.585938 228.6875 290.285156 231.671875 289.894531 C 238.890625 288.941406 244.191406 288.21875 248.863281 287.546875 C 255.234375 286.628906 260.960938 285.730469 266.011719 284.933594 L 271.449219 284.085938 C 276.078125 283.363281 280.074219 282.738281 283.140625 282.207031 C 283.222656 282.191406 283.304688 282.175781 283.382812 282.160156 C 287.832031 281.265625 291.027344 277.191406 291.015625 272.378906 C 291.007812 270.566406 291.066406 268.511719 291.136719 266.128906 C 291.230469 262.785156 291.339844 259 291.296875 254.800781 C 291.269531 252.125 291.128906 249.320312 290.980469 246.347656 C 290.832031 243.414062 290.679688 240.378906 290.625 237.234375 C 290.582031 234.617188 290.65625 231.972656 290.738281 229.175781 C 290.828125 226.082031 290.917969 222.878906 290.839844 219.652344 C 290.765625 216.632812 290.535156 213.566406 290.3125 210.601562 C 290.105469 207.886719 289.894531 205.074219 289.800781 202.261719 L 289.785156 201.808594 L 289.332031 201.828125 C 288.378906 201.859375 287.441406 201.890625 286.507812 201.921875 C 282.0625 202.066406 277.867188 202.207031 273.644531 202.71875 C 268.96875 203.285156 263.988281 204.125 257.964844 205.375 L 256.949219 205.585938 C 251.855469 206.636719 247.042969 207.632812 242.46875 208.976562 C 237.785156 210.355469 232.859375 212.042969 227.414062 214.136719 C 223.207031 215.757812 219.429688 217.609375 215.78125 219.402344 C 214.824219 219.871094 213.886719 220.328125 212.964844 220.773438 C 207.167969 223.566406 202.566406 225.980469 198.898438 228.15625 C 195.140625 230.382812 193.609375 232.28125 192.492188 233.671875 C 191.058594 235.449219 190.273438 236.429688 185.980469 236.574219 C 181.109375 236.738281 179.863281 235.738281 177.980469 234.222656 C 176.335938 232.898438 174.289062 231.253906 169.363281 229.632812 C 164.453125 228.015625 158.453125 226.476562 151.53125 225.0625 C 145.082031 223.742188 139.132812 222.847656 133.339844 222.328125 C 127.199219 221.773438 121.011719 221.558594 114.945312 221.695312 C 109.042969 221.824219 102.871094 222.320312 96.601562 223.171875 C 91.703125 223.835938 86.875 225.066406 81.765625 226.367188 C 80.78125 226.621094 79.792969 226.871094 78.789062 227.125 L 78.429688 227.214844 L 78.449219 227.585938 C 78.558594 229.550781 78.648438 231.480469 78.738281 233.378906 C 78.910156 236.960938 79.070312 240.34375 79.324219 243.738281 C 79.503906 246.117188 79.640625 248.464844 79.769531 250.734375 C 79.957031 253.992188 80.132812 257.070312 80.421875 260.039062 C 81.085938 266.839844 81.65625 272 82.21875 276.285156 C 83.3125 284.640625 84.765625 290.332031 85.339844 292.390625 Z M 85.390625 292.570312 " fill-opacity="1" fill-rule="nonzero"/></g></g></g></svg>