<svg xmlns="http://www.w3.org/2000/svg" xmlns:xlink="http://www.w3.org/1999/xlink" width="32" zoomAndPan="magnify" viewBox="0 0 350 350" height="32" preserveAspectRatio="xMidYMid meet" version="1.0"><defs><clipPath id="014a09dcdf"><path d="M 8 58 L 370 58 L 370 284 L 8 284 Z M 8 58 " clip-rule="nonzero"/></clipPath><clipPath id="142cab3804"><path d="M 48.214844 26.015625 L 388.433594 150.414062 L 309.105469 367.367188 L -31.113281 242.96875 Z M 48.214844 26.015625 " clip-rule="nonzero"/></clipPath><clipPath id="ea55482b9e"><path d="M 48.214844 26.015625 L 388.433594 150.414062 L 309.105469 367.367188 L -31.113281 242.96875 Z M 48.214844 26.015625 " clip-rule="nonzero"/></clipPath><clipPath id="783014d062"><path d="M 48.214844 26.015625 L 388.433594 150.414062 L 309.105469 367.367188 L -31.113281 242.96875 Z M 48.214844 26.015625 " clip-rule="nonzero"/></clipPath><clipPath id="e6178dbbaa"><path d="M 16 113 L 373 113 L 373 307 L 16 307 Z M 16 113 " clip-rule="nonzero"/></clipPath><clipPath id="04e4f69dd8"><path d="M 48.214844 26.015625 L 388.433594 150.414062 L 309.105469 367.367188 L -31.113281 242.96875 Z M 48.214844 26.015625 " clip-rule="nonzero"/></clipPath><clipPath id="4017bd449c"><path d="M 48.214844 26.015625 L 388.433594 150.414062 L 309.105469 367.367188 L -31.113281 242.96875 Z M 48.214844 26.015625 " clip-rule="nonzero"/></clipPath><clipPath id="790150ef1b"><path d="M 48.214844 26.015625 L 388.433594 150.414062 L 309.105469 367.367188 L -31.113281 242.96875 Z M 48.214844 26.015625 " clip-rule="nonzero"/></clipPath><clipPath id="1639900a0a"><path d="M 57 171 L 162 171 L 162 249 L 57 249 Z M 57 171 " clip-rule="nonzero"/></clipPath><clipPath id="4c407c9584"><path d="M 48.214844 26.015625 L 388.433594 150.414062 L 309.105469 367.367188 L -31.113281 242.96875 Z M 48.214844 26.015625 " clip-rule="nonzero"/></clipPath><clipPath id="a72941ae0c"><path d="M 48.214844 26.015625 L 388.433594 150.414062 L 309.105469 367.367188 L -31.113281 242.96875 Z M 48.214844 26.015625 " clip-rule="nonzero"/></clipPath><clipPath id="9909af77a2"><path d="M 48.214844 26.015625 L 388.433594 150.414062 L 309.105469 367.367188 L -31.113281 242.96875 Z M 48.214844 26.015625 " clip-rule="nonzero"/></clipPath></defs><g clip-path="url(#014a09dcdf)"><g clip-path="url(#142cab3804)"><g clip-path="url(#ea55482b9e)"><g clip-path="url(#783014d062)"><path fill="#4c956c" d="M 368.402344 196.347656 C 357.414062 184.644531 351.015625 169.417969 348.316406 153.75 C 347.578125 149.449219 347.175781 145.105469 347.296875 140.746094 L 347.289062 140.75 L 347.296875 140.382812 C 347.296875 140.359375 347.304688 140.339844 347.304688 140.3125 C 347.335938 138.640625 347.339844 137.859375 347.339844 137.859375 C 345.425781 138.527344 344.578125 139.792969 344.578125 139.792969 L 344.582031 139.800781 C 338.84375 146.242188 333.929688 153.554688 330.722656 161.582031 C 329.886719 163.675781 329.441406 165.90625 328.566406 167.976562 C 327.703125 170.015625 326.054688 171.507812 324.269531 172.75 C 320.59375 175.316406 316.238281 177 312.148438 178.789062 C 303.519531 182.566406 295.007812 186.609375 286.277344 190.164062 C 281.984375 191.910156 277.625 193.5 273.339844 195.28125 C 269.628906 196.820312 265.808594 198.589844 261.6875 198.324219 C 259.414062 198.179688 257.222656 197.53125 255.070312 196.828125 C 252.832031 196.097656 250.597656 195.363281 248.359375 194.640625 C 243.742188 193.148438 239.132812 191.628906 234.609375 189.871094 C 230.089844 188.113281 225.675781 186.085938 221.324219 183.945312 C 219.144531 182.875 216.984375 181.773438 214.832031 180.652344 C 213.851562 180.140625 212.867188 179.648438 211.902344 179.113281 C 211.246094 178.75 210.988281 177.996094 210.210938 177.8125 C 209.269531 177.589844 208.546875 178.328125 207.871094 178.859375 C 206.890625 179.632812 205.914062 180.40625 204.941406 181.1875 C 203.09375 182.671875 201.265625 184.175781 199.46875 185.714844 C 195.996094 188.691406 192.632812 191.796875 189.566406 195.191406 C 183.472656 201.941406 178.566406 210.125 175.601562 218.730469 C 174.054688 223.210938 173.265625 227.890625 172.410156 232.535156 C 171.542969 237.242188 170.414062 241.890625 169.289062 246.539062 C 167.019531 255.929688 164.9375 265.363281 162.824219 274.789062 C 162.300781 277.128906 161.777344 279.46875 161.261719 281.808594 C 161.082031 282.636719 161.625 283.691406 162.636719 283.441406 C 169.46875 281.757812 175.914062 278.917969 182.214844 275.84375 C 185.476562 274.253906 188.699219 272.585938 191.976562 271.035156 C 195.378906 269.429688 198.835938 267.953125 202.273438 266.433594 C 209.175781 263.378906 215.71875 259.757812 222.347656 256.167969 C 229.140625 252.492188 236.171875 249.253906 243.109375 245.859375 C 246.589844 244.15625 250.070312 242.484375 253.625 240.945312 C 257.078125 239.453125 260.554688 238.007812 263.957031 236.40625 C 270.847656 233.167969 277.554688 229.5 284.1875 225.765625 C 290.820312 222.03125 297.421875 218.222656 303.839844 214.128906 C 310.042969 210.175781 315.765625 205.527344 322.320312 202.140625 C 325.628906 200.425781 329.046875 198.9375 332.453125 197.433594 C 333.972656 196.765625 335.527344 195.867188 337.144531 195.46875 C 338.851562 195.046875 340.625 195.566406 342.21875 196.175781 C 348.777344 198.675781 355.539062 199.660156 362.546875 199.058594 C 364.269531 198.914062 366.132812 198.523438 367.828125 198.199219 C 367.871094 198.191406 367.910156 198.171875 367.949219 198.160156 C 367.964844 198.15625 367.976562 198.15625 367.992188 198.15625 C 368.964844 198 369.898438 197.28125 369.898438 197.28125 C 369.183594 197.398438 368.402344 196.347656 368.402344 196.347656 Z M 232.398438 218.871094 C 225.632812 222.058594 218.652344 224.773438 211.972656 228.144531 C 208.75 229.773438 205.578125 231.503906 202.363281 233.152344 C 199.066406 234.839844 195.699219 236.390625 192.34375 237.957031 C 189.304688 239.375 186.269531 240.792969 183.234375 242.214844 C 186.257812 232.5 190.222656 222.96875 194.78125 213.898438 C 195.386719 212.691406 196.007812 211.488281 196.640625 210.292969 C 197.304688 209.035156 198.125 207.792969 198.6875 206.488281 C 198.707031 206.449219 198.722656 206.402344 198.742188 206.359375 C 198.976562 206.480469 199.296875 206.554688 199.515625 206.640625 C 200.925781 207.191406 202.351562 207.707031 203.78125 208.199219 C 208.945312 209.976562 214.15625 211.601562 219.328125 213.359375 C 222.359375 214.390625 225.398438 215.398438 228.484375 216.261719 C 229.265625 216.480469 230.050781 216.691406 230.835938 216.894531 C 231.382812 217.03125 232.148438 217.058594 232.582031 217.441406 C 232.949219 217.761719 233.085938 218.347656 232.851562 218.753906 C 232.707031 218.761719 232.558594 218.796875 232.398438 218.871094 Z M 202.285156 176.921875 C 200.984375 177.773438 199.21875 177.410156 197.808594 177.085938 C 195.375 176.527344 192.929688 175.914062 190.554688 175.132812 C 187.035156 173.976562 184.089844 172.148438 181.378906 169.640625 C 180.546875 168.871094 179.738281 168.078125 178.933594 167.277344 C 178.453125 166.796875 177.972656 166.3125 177.496094 165.828125 C 176.980469 165.308594 176.304688 164.789062 175.882812 164.191406 C 175.421875 163.542969 175.660156 162.691406 175.714844 161.953125 C 175.777344 161.175781 175.832031 160.394531 175.875 159.617188 C 175.972656 157.984375 176.035156 156.351562 176.066406 154.71875 C 176.128906 151.417969 176.070312 148.117188 175.882812 144.824219 C 175.703125 141.679688 175.449219 138.566406 174.699219 135.5 C 173.996094 132.605469 172.960938 129.808594 171.816406 127.058594 C 170.660156 124.269531 169.523438 121.449219 168.171875 118.746094 C 166.792969 115.988281 165 113.644531 163.03125 111.285156 C 161 108.855469 158.902344 106.472656 156.691406 104.203125 C 147.492188 94.757812 135.941406 87.746094 123.296875 83.988281 C 116.839844 82.070312 110.1875 80.960938 103.476562 80.46875 C 97.28125 80.015625 90.925781 79.726562 84.742188 80.457031 C 79.304688 81.101562 73.667969 82.355469 68.554688 84.316406 C 63.105469 86.40625 58.34375 89.730469 54.113281 93.710938 C 44.488281 102.757812 38.691406 114.835938 34.453125 127.175781 C 32.300781 133.453125 31.023438 139.808594 30.742188 146.445312 C 30.472656 152.75 30.8125 158.980469 31.90625 165.199219 C 32.988281 171.328125 34.171875 177.621094 36.132812 183.539062 C 38.125 189.554688 40.925781 195.316406 43.710938 201 C 43.90625 201.230469 44 201.535156 43.921875 201.886719 C 43.90625 202.011719 43.863281 202.125 43.804688 202.230469 C 43.011719 204.101562 42.441406 206.046875 41.734375 207.949219 C 41.1875 209.421875 40.480469 210.953125 39.207031 211.933594 C 37.710938 213.085938 35.710938 213.332031 33.878906 213.160156 C 32.515625 213.03125 31.445312 211.382812 30.558594 210.4375 C 29.480469 209.28125 28.429688 208.101562 27.414062 206.890625 C 23.554688 202.292969 20.277344 197.277344 17.503906 191.960938 C 11.703125 180.847656 8.707031 168.628906 8.269531 156.117188 C 8.042969 149.71875 8.96875 143.347656 10.046875 137.058594 C 11.179688 130.441406 12.496094 123.800781 14.851562 117.492188 C 17.140625 111.351562 20.042969 105.355469 23.519531 99.796875 C 26.929688 94.34375 31.132812 89.484375 35.695312 84.964844 C 44.449219 76.285156 54.496094 69.175781 66.050781 64.730469 C 77.457031 60.339844 89.695312 58.300781 101.902344 58.851562 C 114.695312 59.425781 127.519531 62.511719 139.277344 67.566406 C 150.769531 72.511719 161.058594 79.609375 169.8125 88.53125 C 174.089844 92.886719 177.996094 97.585938 181.265625 102.75 C 184.609375 108.035156 187.421875 113.660156 189.761719 119.460938 C 192.101562 125.253906 193.660156 131.320312 195.113281 137.386719 C 196.554688 143.394531 197.757812 149.480469 198.421875 155.628906 C 198.6875 158.113281 199.109375 160.515625 199.828125 162.910156 C 200.460938 165.011719 201.269531 167.054688 202.039062 169.109375 C 202.816406 171.179688 204.796875 175.269531 202.285156 176.921875 Z M 202.285156 176.921875 " fill-opacity="1" fill-rule="nonzero"/></g></g></g></g><g clip-path="url(#e6178dbbaa)"><g clip-path="url(#04e4f69dd8)"><g clip-path="url(#4017bd449c)"><g clip-path="url(#790150ef1b)"><path fill="#2c6e49" d="M 346.40625 138.277344 C 346.351562 138.308594 346.296875 138.335938 346.246094 138.363281 C 346.296875 138.332031 346.351562 138.304688 346.40625 138.277344 Z M 345.542969 138.828125 C 345.546875 138.828125 345.546875 138.828125 345.546875 138.828125 C 345.546875 138.828125 345.546875 138.828125 345.542969 138.828125 Z M 347.027344 137.988281 C 347.085938 137.960938 347.144531 137.9375 347.203125 137.914062 C 347.140625 137.9375 347.085938 137.960938 347.027344 137.988281 Z M 372.8125 190.34375 C 372.894531 184.976562 371.183594 179.84375 369.613281 174.78125 C 367.894531 169.238281 366.273438 163.667969 364.589844 158.113281 C 362.90625 152.5625 361.417969 146.804688 357.734375 142.175781 C 355.945312 139.921875 353.699219 137.917969 350.746094 137.511719 C 349.644531 137.359375 348.4375 137.484375 347.339844 137.871094 C 347.339844 137.941406 347.335938 138.71875 347.304688 140.3125 C 347.304688 140.339844 347.296875 140.359375 347.296875 140.382812 L 347.289062 140.75 L 347.296875 140.746094 C 347.175781 145.105469 347.578125 149.449219 348.316406 153.75 C 351.019531 169.417969 357.414062 184.644531 368.402344 196.347656 C 368.402344 196.347656 369.175781 197.390625 369.890625 197.28125 C 370.308594 196.980469 370.695312 196.613281 371.042969 196.179688 C 372.316406 194.574219 372.78125 192.355469 372.8125 190.34375 Z M 367.933594 198.164062 C 367.941406 198.160156 367.949219 198.160156 367.953125 198.15625 C 367.953125 198.15625 367.953125 198.15625 367.949219 198.15625 C 367.945312 198.160156 367.941406 198.160156 367.933594 198.164062 Z M 367.71875 198.21875 C 367.707031 198.222656 367.695312 198.222656 367.683594 198.226562 C 367.695312 198.222656 367.703125 198.222656 367.71875 198.21875 Z M 218.828125 171.234375 C 219.226562 169.054688 218.128906 167.097656 216.199219 166.089844 C 211.429688 163.597656 206.230469 161.902344 201.125 160.257812 C 190.894531 156.960938 180.613281 153.761719 170.59375 149.855469 C 160.582031 145.953125 151.300781 140.472656 141.402344 136.3125 C 132.6875 132.652344 123.660156 129.875 114.691406 126.917969 C 108.828125 124.984375 102.90625 123.253906 97.066406 121.246094 C 91.046875 119.175781 85.019531 117.15625 79.070312 114.886719 C 77.507812 114.292969 75.996094 113.40625 74.324219 113.15625 C 72.835938 112.933594 71.386719 113.371094 69.988281 113.835938 C 69.8125 113.847656 69.644531 113.910156 69.484375 114.019531 C 69.167969 114.171875 68.996094 114.414062 68.9375 114.683594 C 63.128906 123.347656 58.386719 132.613281 54.421875 142.257812 C 50.378906 152.109375 47 162.25 43.433594 172.277344 C 39.816406 182.4375 36.414062 192.679688 32.714844 202.808594 C 29.015625 212.941406 25.292969 223.0625 21.476562 233.152344 C 20.523438 235.667969 19.582031 238.1875 18.667969 240.71875 C 17.800781 243.113281 16.957031 245.539062 16.585938 248.070312 C 16.308594 249.960938 16.140625 252.46875 17.535156 253.992188 C 18.25 254.773438 19.300781 254.871094 20.214844 255.285156 C 21.394531 255.820312 22.515625 256.597656 23.652344 257.234375 C 32.898438 262.417969 42.417969 267.21875 52.019531 271.714844 C 61.800781 276.292969 71.882812 280.464844 82.089844 283.988281 C 87.226562 285.761719 92.40625 287.414062 97.527344 289.238281 C 102.644531 291.0625 107.71875 293.007812 112.878906 294.71875 C 117.953125 296.402344 123.148438 297.632812 128.304688 299.019531 C 133.304688 300.367188 138.183594 302.101562 143.164062 303.511719 C 148.03125 304.890625 152.980469 305.917969 158.050781 306.058594 C 160.003906 306.113281 162.054688 306.242188 163.59375 304.8125 C 165.261719 303.265625 165.9375 300.753906 166.777344 298.714844 C 168.851562 293.679688 170.980469 288.667969 173.027344 283.621094 C 175.074219 278.578125 176.9375 273.457031 178.960938 268.402344 C 182.980469 258.347656 187.167969 248.375 191.058594 238.273438 C 194.941406 228.179688 199.535156 218.386719 203.46875 208.316406 C 205.433594 203.292969 207.300781 198.230469 209.320312 193.226562 C 211.339844 188.21875 213.664062 183.34375 215.882812 178.425781 C 216.410156 177.257812 216.929688 176.085938 217.4375 174.90625 C 217.949219 173.722656 218.59375 172.511719 218.828125 171.234375 Z M 218.828125 171.234375 " fill-opacity="1" fill-rule="nonzero"/></g></g></g></g><g clip-path="url(#1639900a0a)"><g clip-path="url(#4c407c9584)"><g clip-path="url(#a72941ae0c)"><g clip-path="url(#9909af77a2)"><path fill="#a7c957" d="M 153.828125 208.617188 C 151.402344 209.519531 148.832031 210.105469 146.253906 210.292969 C 144.007812 210.457031 141.765625 210.3125 139.519531 210.183594 C 136.859375 210.03125 134.199219 210.066406 131.539062 209.910156 C 130.246094 209.835938 128.953125 209.824219 127.703125 210.207031 C 126.78125 210.492188 125.898438 210.910156 125.046875 211.359375 C 121.480469 213.222656 118.226562 215.710938 115.101562 218.25 C 121.226562 218.308594 127.550781 218.59375 133.234375 221.066406 C 135.339844 221.988281 137.546875 223.171875 138.96875 225.039062 C 140.144531 226.578125 140.515625 228.605469 139.226562 230.210938 C 137.953125 231.796875 135.761719 232.234375 133.832031 232.269531 C 132.496094 232.292969 131.152344 232.113281 129.828125 231.957031 C 128.398438 231.792969 126.972656 231.585938 125.554688 231.347656 C 122.675781 230.863281 119.824219 230.238281 117 229.507812 C 115.574219 229.136719 114.152344 228.738281 112.742188 228.320312 C 111.402344 227.917969 110.082031 227.40625 108.730469 227.058594 C 107.347656 226.703125 106.167969 227.175781 104.90625 227.722656 C 103.554688 228.308594 102.203125 228.90625 100.859375 229.511719 C 98.445312 230.589844 96.042969 231.683594 93.621094 232.738281 C 98.605469 235.21875 104.355469 235.492188 109.757812 236.460938 C 112.257812 236.914062 114.753906 237.5 117.09375 238.515625 C 118.855469 239.277344 120.949219 240.671875 121.011719 242.808594 C 121.082031 245.015625 119.144531 246.691406 117.269531 247.445312 C 116.160156 247.890625 114.984375 248.117188 113.808594 248.304688 C 112.507812 248.511719 111.203125 248.683594 109.894531 248.800781 C 104.945312 249.238281 99.828125 248.917969 95.210938 246.9375 C 91.195312 245.214844 87.636719 242.289062 85.734375 238.304688 C 80.78125 239.738281 75.816406 241.125 70.855469 242.527344 C 68.601562 243.164062 66.351562 243.804688 64.101562 244.453125 C 62.523438 244.90625 60.921875 245.355469 59.269531 244.996094 C 58.644531 244.859375 58.015625 244.589844 57.605469 244.082031 C 57.324219 243.738281 56.976562 243.132812 57.351562 242.75 C 57.570312 242.523438 57.902344 242.378906 58.179688 242.230469 C 58.65625 241.976562 59.140625 241.746094 59.628906 241.515625 C 60.621094 241.046875 61.621094 240.597656 62.621094 240.144531 C 64.097656 239.476562 65.503906 238.648438 66.949219 237.917969 C 67.929688 237.425781 68.914062 236.96875 69.953125 236.617188 C 70.9375 236.289062 71.941406 236.011719 72.902344 235.617188 C 73.960938 235.183594 74.988281 234.675781 76.019531 234.175781 C 76.527344 233.929688 77.039062 233.6875 77.542969 233.4375 C 78.027344 233.199219 78.433594 232.851562 78.875 232.550781 C 80.152344 231.703125 81.292969 230.679688 82.1875 229.429688 C 83.152344 228.085938 83.710938 226.589844 84.261719 225.046875 C 84.878906 223.320312 85.476562 221.574219 85.671875 219.742188 C 85.851562 218.074219 85.910156 216.398438 85.960938 214.726562 C 86.140625 208.914062 86.222656 202.890625 89.359375 197.773438 C 90.6875 195.605469 92.636719 193.710938 95.285156 193.464844 C 96.414062 193.359375 97.660156 193.515625 98.585938 194.226562 C 99.605469 195.007812 99.632812 196.074219 99.71875 197.253906 C 99.820312 198.601562 100.085938 199.910156 100.113281 201.265625 C 100.140625 202.648438 100.042969 204.035156 99.832031 205.402344 C 99.417969 208.097656 98.589844 210.71875 97.515625 213.21875 C 95.476562 217.972656 92.613281 222.316406 89.59375 226.503906 C 89.804688 226.386719 90.015625 226.269531 90.222656 226.15625 C 93.226562 224.496094 96.234375 222.855469 99.242188 221.199219 C 100.726562 220.382812 102.289062 219.628906 103.707031 218.699219 C 104.980469 217.871094 106.121094 216.78125 106.808594 215.414062 C 107.496094 214.039062 107.769531 212.503906 107.972656 210.992188 C 108.167969 209.550781 108.257812 208.09375 108.296875 206.640625 C 108.375 203.734375 108.238281 200.828125 108.261719 197.921875 C 108.28125 195.0625 108.460938 192.191406 109.160156 189.410156 C 109.726562 187.164062 110.628906 184.46875 112.941406 183.460938 C 115.238281 182.464844 117.324219 184.289062 117.875 186.460938 C 118.21875 187.8125 118.085938 189.300781 118.050781 190.675781 C 118.007812 192.296875 117.90625 193.914062 117.746094 195.527344 C 117.15625 201.523438 115.761719 207.425781 113.6875 213.078125 C 116.179688 211.460938 118.546875 209.660156 120.910156 207.863281 C 122.113281 206.953125 123.277344 205.980469 124.632812 205.300781 C 125.335938 204.949219 125.644531 204.472656 125.65625 203.675781 C 125.667969 202.921875 125.445312 202.167969 125.292969 201.433594 C 124.164062 195.898438 123.25 190.019531 124.105469 184.378906 C 124.496094 181.808594 125.296875 179.273438 126.703125 177.074219 C 127.398438 175.988281 128.25 174.992188 129.222656 174.148438 C 130.074219 173.414062 131.046875 172.726562 132.171875 172.511719 C 134.855469 172 136.636719 174.578125 137.171875 176.878906 C 137.457031 178.101562 137.425781 179.375 137.324219 180.617188 C 137.222656 181.898438 137.070312 183.179688 136.875 184.449219 C 136.132812 189.34375 134.828125 194.324219 132.382812 198.667969 C 132.542969 198.605469 132.707031 198.546875 132.867188 198.472656 C 134.9375 197.503906 136.578125 195.714844 137.882812 193.882812 C 139.226562 192.003906 140.328125 189.90625 140.988281 187.691406 C 141.855469 184.769531 142.394531 181.753906 143.792969 179.019531 C 145.078125 176.511719 147.089844 174.476562 149.582031 173.148438 C 150.574219 172.621094 151.648438 172.253906 152.742188 171.992188 C 154.074219 171.675781 155.46875 171.421875 156.839844 171.339844 C 158.117188 171.265625 159.507812 171.425781 160.40625 172.441406 C 161.242188 173.386719 161.503906 174.800781 161.28125 176.019531 C 161.03125 177.386719 160.46875 178.742188 159.890625 180.003906 C 159.304688 181.289062 158.609375 182.53125 157.839844 183.71875 C 156.230469 186.207031 154.28125 188.464844 152.191406 190.558594 C 148.480469 194.277344 144.289062 197.472656 139.988281 200.484375 C 145.011719 199.109375 150.347656 197.894531 155.449219 199.226562 C 156.445312 199.484375 157.460938 199.90625 158.160156 200.683594 C 158.867188 201.46875 159.066406 202.554688 158.871094 203.574219 C 158.378906 206.167969 156.160156 207.75 153.828125 208.617188 Z M 153.828125 208.617188 " fill-opacity="1" fill-rule="nonzero"/></g></g></g></g></svg>