<svg xmlns="http://www.w3.org/2000/svg" xmlns:xlink="http://www.w3.org/1999/xlink" width="500" zoomAndPan="magnify" viewBox="0 0 375 374.999991" height="500" preserveAspectRatio="xMidYMid meet" version="1.0"><defs><clipPath id="2a563f0dda"><path d="M 104 105 L 299 105 L 299 302 L 104 302 Z M 104 105 " clip-rule="nonzero"/></clipPath><clipPath id="0ff743040b"><path d="M 154.679688 50.445312 L 309.128906 116.542969 L 220.015625 324.777344 L 65.5625 258.679688 Z M 154.679688 50.445312 " clip-rule="nonzero"/></clipPath><clipPath id="6e24f51d64"><path d="M 154.679688 50.445312 L 309.128906 116.542969 L 220.015625 324.777344 L 65.5625 258.679688 Z M 154.679688 50.445312 " clip-rule="nonzero"/></clipPath><clipPath id="e7c7f54b9e"><path d="M 106 107 L 295 107 L 295 293 L 106 293 Z M 106 107 " clip-rule="nonzero"/></clipPath><clipPath id="c71353d1e5"><path d="M 154.679688 50.445312 L 309.128906 116.542969 L 220.015625 324.777344 L 65.5625 258.679688 Z M 154.679688 50.445312 " clip-rule="nonzero"/></clipPath><clipPath id="ce486646a6"><path d="M 154.679688 50.445312 L 309.128906 116.542969 L 220.015625 324.777344 L 65.5625 258.679688 Z M 154.679688 50.445312 " clip-rule="nonzero"/></clipPath><clipPath id="f9fa7da7b2"><path d="M 154.972656 288.800781 C 156.324219 289.378906 157.734375 289.828125 159.164062 290.128906 L 159.835938 290.277344 C 175.03125 293.53125 190.464844 293.667969 205.703125 290.675781 C 216.328125 288.59375 224.113281 279.488281 224.210938 269.03125 L 224.25 264.855469 C 224.269531 262.628906 223.746094 260.46875 222.753906 258.53125 C 223.3125 256.578125 223.613281 254.550781 223.628906 252.523438 L 223.652344 250.050781 C 237.238281 241.75 248.042969 229.308594 254.324219 214.632812 C 260.976562 199.089844 262.101562 182.546875 258.59375 167.203125 L 286.5625 152.269531 L 270.023438 149.164062 L 294.246094 112.605469 L 252.070312 133.621094 L 255.898438 113.816406 L 242.894531 135.214844 C 235.3125 125.996094 225.480469 118.40625 213.769531 113.394531 C 174.671875 96.664062 129.257812 114.859375 112.527344 153.949219 C 97.785156 188.398438 110.058594 228.375 141.027344 248.71875 L 141 251.75 C 140.972656 254.480469 141.445312 257.183594 142.386719 259.742188 C 141.894531 261.140625 141.632812 262.613281 141.621094 264.105469 L 141.574219 268.785156 C 141.5 277.429688 146.757812 285.285156 154.972656 288.800781 Z M 119.050781 156.742188 C 134.242188 121.246094 175.480469 104.730469 210.976562 119.917969 C 246.472656 135.109375 262.992188 176.34375 247.800781 211.839844 C 241.316406 226.992188 230.089844 238.679688 216.59375 245.921875 L 216.535156 252.457031 C 216.511719 255.015625 215.851562 257.460938 214.703125 259.617188 C 216.269531 260.917969 217.171875 262.796875 217.15625 264.800781 L 217.113281 268.964844 C 217.046875 276.070312 211.675781 282.273438 204.339844 283.710938 C 190.042969 286.515625 175.570312 286.390625 161.324219 283.339844 L 160.65625 283.191406 C 159.644531 282.980469 158.679688 282.667969 157.761719 282.277344 C 152.304688 279.9375 148.621094 274.679688 148.671875 268.847656 L 148.714844 264.171875 C 148.730469 262.613281 149.296875 261.140625 150.316406 259.949219 C 148.882812 257.550781 148.066406 254.757812 148.097656 251.820312 L 148.15625 244.789062 C 118.066406 227.273438 105.007812 189.554688 119.050781 156.742188 Z M 119.050781 156.742188 " clip-rule="nonzero"/></clipPath><linearGradient x1="-69.167115" gradientTransform="matrix(0.453042, 0.193882, -0.193882, 0.453042, 154.574342, 50.687109)" y1="-25.829562" x2="505.621034" gradientUnits="userSpaceOnUse" y2="434.970474" id="82e8c46a71"><stop stop-opacity="1" stop-color="rgb(77.999878%, 92.199707%, 50.59967%)" offset="0"/><stop stop-opacity="1" stop-color="rgb(77.999878%, 92.199707%, 50.59967%)" offset="0.125"/><stop stop-opacity="1" stop-color="rgb(77.999878%, 92.199707%, 50.59967%)" offset="0.15625"/><stop stop-opacity="1" stop-color="rgb(77.999878%, 92.199707%, 50.59967%)" offset="0.164063"/><stop stop-opacity="1" stop-color="rgb(77.653503%, 92.086792%, 50.195312%)" offset="0.167969"/><stop stop-opacity="1" stop-color="rgb(77.308655%, 91.973877%, 49.790955%)" offset="0.171875"/><stop stop-opacity="1" stop-color="rgb(76.953125%, 91.85791%, 49.375916%)" offset="0.175781"/><stop stop-opacity="1" stop-color="rgb(76.597595%, 91.743469%, 48.960876%)" offset="0.179688"/><stop stop-opacity="1" stop-color="rgb(76.242065%, 91.627502%, 48.545837%)" offset="0.183594"/><stop stop-opacity="1" stop-color="rgb(75.886536%, 91.511536%, 48.130798%)" offset="0.1875"/><stop stop-opacity="1" stop-color="rgb(75.531006%, 91.395569%, 47.715759%)" offset="0.191406"/><stop stop-opacity="1" stop-color="rgb(75.177002%, 91.281128%, 47.30072%)" offset="0.195313"/><stop stop-opacity="1" stop-color="rgb(74.821472%, 91.165161%, 46.885681%)" offset="0.199219"/><stop stop-opacity="1" stop-color="rgb(74.465942%, 91.049194%, 46.470642%)" offset="0.203125"/><stop stop-opacity="1" stop-color="rgb(74.110413%, 90.933228%, 46.055603%)" offset="0.207031"/><stop stop-opacity="1" stop-color="rgb(73.754883%, 90.817261%, 45.640564%)" offset="0.210938"/><stop stop-opacity="1" stop-color="rgb(73.399353%, 90.701294%, 45.223999%)" offset="0.214844"/><stop stop-opacity="1" stop-color="rgb(73.045349%, 90.586853%, 44.80896%)" offset="0.21875"/><stop stop-opacity="1" stop-color="rgb(72.689819%, 90.470886%, 44.393921%)" offset="0.222656"/><stop stop-opacity="1" stop-color="rgb(72.33429%, 90.354919%, 43.978882%)" offset="0.226563"/><stop stop-opacity="1" stop-color="rgb(71.97876%, 90.238953%, 43.563843%)" offset="0.230469"/><stop stop-opacity="1" stop-color="rgb(71.62323%, 90.124512%, 43.148804%)" offset="0.234375"/><stop stop-opacity="1" stop-color="rgb(71.2677%, 90.008545%, 42.733765%)" offset="0.238281"/><stop stop-opacity="1" stop-color="rgb(70.913696%, 89.892578%, 42.318726%)" offset="0.242188"/><stop stop-opacity="1" stop-color="rgb(70.558167%, 89.776611%, 41.903687%)" offset="0.246094"/><stop stop-opacity="1" stop-color="rgb(70.202637%, 89.66217%, 41.488647%)" offset="0.25"/><stop stop-opacity="1" stop-color="rgb(69.847107%, 89.546204%, 41.073608%)" offset="0.253906"/><stop stop-opacity="1" stop-color="rgb(69.493103%, 89.430237%, 40.658569%)" offset="0.257812"/><stop stop-opacity="1" stop-color="rgb(69.137573%, 89.31427%, 40.242004%)" offset="0.261719"/><stop stop-opacity="1" stop-color="rgb(68.782043%, 89.198303%, 39.826965%)" offset="0.265625"/><stop stop-opacity="1" stop-color="rgb(68.426514%, 89.082336%, 39.411926%)" offset="0.269531"/><stop stop-opacity="1" stop-color="rgb(68.070984%, 88.967896%, 38.996887%)" offset="0.273438"/><stop stop-opacity="1" stop-color="rgb(67.715454%, 88.851929%, 38.581848%)" offset="0.277344"/><stop stop-opacity="1" stop-color="rgb(67.36145%, 88.735962%, 38.166809%)" offset="0.28125"/><stop stop-opacity="1" stop-color="rgb(67.00592%, 88.619995%, 37.75177%)" offset="0.285156"/><stop stop-opacity="1" stop-color="rgb(66.650391%, 88.505554%, 37.336731%)" offset="0.289062"/><stop stop-opacity="1" stop-color="rgb(66.294861%, 88.389587%, 36.921692%)" offset="0.292969"/><stop stop-opacity="1" stop-color="rgb(65.939331%, 88.273621%, 36.506653%)" offset="0.296875"/><stop stop-opacity="1" stop-color="rgb(65.583801%, 88.157654%, 36.091614%)" offset="0.300781"/><stop stop-opacity="1" stop-color="rgb(65.229797%, 88.043213%, 35.676575%)" offset="0.304688"/><stop stop-opacity="1" stop-color="rgb(64.874268%, 87.927246%, 35.26001%)" offset="0.308594"/><stop stop-opacity="1" stop-color="rgb(64.518738%, 87.811279%, 34.844971%)" offset="0.3125"/><stop stop-opacity="1" stop-color="rgb(64.163208%, 87.695312%, 34.429932%)" offset="0.316406"/><stop stop-opacity="1" stop-color="rgb(63.807678%, 87.580872%, 34.014893%)" offset="0.320312"/><stop stop-opacity="1" stop-color="rgb(63.452148%, 87.464905%, 33.599854%)" offset="0.324219"/><stop stop-opacity="1" stop-color="rgb(63.098145%, 87.348938%, 33.184814%)" offset="0.328125"/><stop stop-opacity="1" stop-color="rgb(62.742615%, 87.232971%, 32.769775%)" offset="0.332031"/><stop stop-opacity="1" stop-color="rgb(62.387085%, 87.117004%, 32.354736%)" offset="0.335938"/><stop stop-opacity="1" stop-color="rgb(62.031555%, 87.001038%, 31.939697%)" offset="0.339844"/><stop stop-opacity="1" stop-color="rgb(61.676025%, 86.886597%, 31.524658%)" offset="0.34375"/><stop stop-opacity="1" stop-color="rgb(61.320496%, 86.77063%, 31.108093%)" offset="0.347656"/><stop stop-opacity="1" stop-color="rgb(60.966492%, 86.654663%, 30.693054%)" offset="0.351562"/><stop stop-opacity="1" stop-color="rgb(60.610962%, 86.538696%, 30.278015%)" offset="0.355469"/><stop stop-opacity="1" stop-color="rgb(60.255432%, 86.424255%, 29.862976%)" offset="0.359375"/><stop stop-opacity="1" stop-color="rgb(59.899902%, 86.308289%, 29.447937%)" offset="0.363281"/><stop stop-opacity="1" stop-color="rgb(59.544373%, 86.192322%, 29.032898%)" offset="0.367188"/><stop stop-opacity="1" stop-color="rgb(59.188843%, 86.076355%, 28.617859%)" offset="0.371094"/><stop stop-opacity="1" stop-color="rgb(58.834839%, 85.961914%, 28.20282%)" offset="0.375"/><stop stop-opacity="1" stop-color="rgb(58.479309%, 85.845947%, 27.787781%)" offset="0.378906"/><stop stop-opacity="1" stop-color="rgb(58.123779%, 85.72998%, 27.372742%)" offset="0.382812"/><stop stop-opacity="1" stop-color="rgb(57.76825%, 85.614014%, 26.957703%)" offset="0.386719"/><stop stop-opacity="1" stop-color="rgb(57.41272%, 85.498047%, 26.542664%)" offset="0.390625"/><stop stop-opacity="1" stop-color="rgb(57.05719%, 85.38208%, 26.126099%)" offset="0.394531"/><stop stop-opacity="1" stop-color="rgb(56.703186%, 85.267639%, 25.71106%)" offset="0.398438"/><stop stop-opacity="1" stop-color="rgb(56.347656%, 85.151672%, 25.296021%)" offset="0.402344"/><stop stop-opacity="1" stop-color="rgb(55.992126%, 85.035706%, 24.880981%)" offset="0.40625"/><stop stop-opacity="1" stop-color="rgb(55.636597%, 84.919739%, 24.465942%)" offset="0.410156"/><stop stop-opacity="1" stop-color="rgb(55.281067%, 84.805298%, 24.050903%)" offset="0.414062"/><stop stop-opacity="1" stop-color="rgb(54.925537%, 84.689331%, 23.635864%)" offset="0.417969"/><stop stop-opacity="1" stop-color="rgb(54.571533%, 84.573364%, 23.220825%)" offset="0.421875"/><stop stop-opacity="1" stop-color="rgb(54.216003%, 84.457397%, 22.805786%)" offset="0.425781"/><stop stop-opacity="1" stop-color="rgb(53.860474%, 84.342957%, 22.390747%)" offset="0.429688"/><stop stop-opacity="1" stop-color="rgb(53.504944%, 84.22699%, 21.975708%)" offset="0.433594"/><stop stop-opacity="1" stop-color="rgb(53.15094%, 84.111023%, 21.560669%)" offset="0.4375"/><stop stop-opacity="1" stop-color="rgb(52.856445%, 84.014893%, 21.21582%)" offset="0.441406"/><stop stop-opacity="1" stop-color="rgb(52.561951%, 83.918762%, 20.870972%)" offset="0.445312"/><stop stop-opacity="1" stop-color="rgb(52.931213%, 84.039307%, 21.302795%)" offset="0.449219"/><stop stop-opacity="1" stop-color="rgb(53.300476%, 84.159851%, 21.736145%)" offset="0.453125"/><stop stop-opacity="1" stop-color="rgb(53.669739%, 84.280396%, 22.167969%)" offset="0.457031"/><stop stop-opacity="1" stop-color="rgb(54.040527%, 84.40094%, 22.599792%)" offset="0.460938"/><stop stop-opacity="1" stop-color="rgb(54.40979%, 84.521484%, 23.031616%)" offset="0.464844"/><stop stop-opacity="1" stop-color="rgb(54.779053%, 84.642029%, 23.464966%)" offset="0.46875"/><stop stop-opacity="1" stop-color="rgb(55.148315%, 84.761047%, 23.89679%)" offset="0.472656"/><stop stop-opacity="1" stop-color="rgb(55.519104%, 84.881592%, 24.328613%)" offset="0.476562"/><stop stop-opacity="1" stop-color="rgb(55.888367%, 85.002136%, 24.760437%)" offset="0.480469"/><stop stop-opacity="1" stop-color="rgb(56.259155%, 85.122681%, 25.192261%)" offset="0.484375"/><stop stop-opacity="1" stop-color="rgb(56.628418%, 85.243225%, 25.624084%)" offset="0.488281"/><stop stop-opacity="1" stop-color="rgb(56.997681%, 85.36377%, 26.057434%)" offset="0.492188"/><stop stop-opacity="1" stop-color="rgb(57.366943%, 85.484314%, 26.489258%)" offset="0.496094"/><stop stop-opacity="1" stop-color="rgb(57.737732%, 85.604858%, 26.921082%)" offset="0.5"/><stop stop-opacity="1" stop-color="rgb(58.106995%, 85.723877%, 27.352905%)" offset="0.503906"/><stop stop-opacity="1" stop-color="rgb(58.477783%, 85.844421%, 27.786255%)" offset="0.507812"/><stop stop-opacity="1" stop-color="rgb(58.847046%, 85.964966%, 28.218079%)" offset="0.511719"/><stop stop-opacity="1" stop-color="rgb(59.216309%, 86.08551%, 28.649902%)" offset="0.515625"/><stop stop-opacity="1" stop-color="rgb(59.585571%, 86.206055%, 29.081726%)" offset="0.519531"/><stop stop-opacity="1" stop-color="rgb(59.95636%, 86.326599%, 29.51355%)" offset="0.523438"/><stop stop-opacity="1" stop-color="rgb(60.325623%, 86.447144%, 29.945374%)" offset="0.527344"/><stop stop-opacity="1" stop-color="rgb(60.696411%, 86.567688%, 30.378723%)" offset="0.53125"/><stop stop-opacity="1" stop-color="rgb(61.065674%, 86.686707%, 30.810547%)" offset="0.535156"/><stop stop-opacity="1" stop-color="rgb(61.434937%, 86.807251%, 31.242371%)" offset="0.539062"/><stop stop-opacity="1" stop-color="rgb(61.804199%, 86.927795%, 31.674194%)" offset="0.542969"/><stop stop-opacity="1" stop-color="rgb(62.174988%, 87.04834%, 32.106018%)" offset="0.546875"/><stop stop-opacity="1" stop-color="rgb(62.54425%, 87.168884%, 32.537842%)" offset="0.550781"/><stop stop-opacity="1" stop-color="rgb(62.915039%, 87.289429%, 32.971191%)" offset="0.554688"/><stop stop-opacity="1" stop-color="rgb(63.284302%, 87.409973%, 33.403015%)" offset="0.558594"/><stop stop-opacity="1" stop-color="rgb(63.653564%, 87.530518%, 33.834839%)" offset="0.5625"/><stop stop-opacity="1" stop-color="rgb(64.022827%, 87.649536%, 34.266663%)" offset="0.566406"/><stop stop-opacity="1" stop-color="rgb(64.393616%, 87.770081%, 34.700012%)" offset="0.570312"/><stop stop-opacity="1" stop-color="rgb(64.762878%, 87.890625%, 35.131836%)" offset="0.574219"/><stop stop-opacity="1" stop-color="rgb(65.133667%, 88.011169%, 35.56366%)" offset="0.578125"/><stop stop-opacity="1" stop-color="rgb(65.50293%, 88.131714%, 35.995483%)" offset="0.582031"/><stop stop-opacity="1" stop-color="rgb(65.872192%, 88.252258%, 36.427307%)" offset="0.585938"/><stop stop-opacity="1" stop-color="rgb(66.241455%, 88.372803%, 36.859131%)" offset="0.589844"/><stop stop-opacity="1" stop-color="rgb(66.612244%, 88.493347%, 37.29248%)" offset="0.59375"/><stop stop-opacity="1" stop-color="rgb(66.981506%, 88.612366%, 37.724304%)" offset="0.597656"/><stop stop-opacity="1" stop-color="rgb(67.352295%, 88.73291%, 38.156128%)" offset="0.601562"/><stop stop-opacity="1" stop-color="rgb(67.721558%, 88.853455%, 38.587952%)" offset="0.605469"/><stop stop-opacity="1" stop-color="rgb(68.09082%, 88.973999%, 39.021301%)" offset="0.609375"/><stop stop-opacity="1" stop-color="rgb(68.460083%, 89.094543%, 39.453125%)" offset="0.613281"/><stop stop-opacity="1" stop-color="rgb(68.830872%, 89.215088%, 39.884949%)" offset="0.617188"/><stop stop-opacity="1" stop-color="rgb(69.200134%, 89.335632%, 40.316772%)" offset="0.621094"/><stop stop-opacity="1" stop-color="rgb(69.570923%, 89.456177%, 40.748596%)" offset="0.625"/><stop stop-opacity="1" stop-color="rgb(69.940186%, 89.575195%, 41.18042%)" offset="0.628906"/><stop stop-opacity="1" stop-color="rgb(70.309448%, 89.69574%, 41.61377%)" offset="0.632812"/><stop stop-opacity="1" stop-color="rgb(70.678711%, 89.816284%, 42.045593%)" offset="0.636719"/><stop stop-opacity="1" stop-color="rgb(71.0495%, 89.936829%, 42.477417%)" offset="0.640625"/><stop stop-opacity="1" stop-color="rgb(71.418762%, 90.057373%, 42.909241%)" offset="0.644531"/><stop stop-opacity="1" stop-color="rgb(71.789551%, 90.177917%, 43.341064%)" offset="0.648438"/><stop stop-opacity="1" stop-color="rgb(72.158813%, 90.298462%, 43.772888%)" offset="0.652344"/><stop stop-opacity="1" stop-color="rgb(72.528076%, 90.419006%, 44.206238%)" offset="0.65625"/><stop stop-opacity="1" stop-color="rgb(72.897339%, 90.538025%, 44.638062%)" offset="0.660156"/><stop stop-opacity="1" stop-color="rgb(73.268127%, 90.658569%, 45.069885%)" offset="0.664062"/><stop stop-opacity="1" stop-color="rgb(73.63739%, 90.779114%, 45.501709%)" offset="0.667969"/><stop stop-opacity="1" stop-color="rgb(74.008179%, 90.899658%, 45.935059%)" offset="0.671875"/><stop stop-opacity="1" stop-color="rgb(74.377441%, 91.020203%, 46.366882%)" offset="0.675781"/><stop stop-opacity="1" stop-color="rgb(74.746704%, 91.140747%, 46.798706%)" offset="0.679688"/><stop stop-opacity="1" stop-color="rgb(75.115967%, 91.261292%, 47.23053%)" offset="0.683594"/><stop stop-opacity="1" stop-color="rgb(75.486755%, 91.381836%, 47.662354%)" offset="0.6875"/><stop stop-opacity="1" stop-color="rgb(75.856018%, 91.500854%, 48.094177%)" offset="0.691406"/><stop stop-opacity="1" stop-color="rgb(76.226807%, 91.621399%, 48.527527%)" offset="0.695312"/><stop stop-opacity="1" stop-color="rgb(76.596069%, 91.741943%, 48.959351%)" offset="0.699219"/><stop stop-opacity="1" stop-color="rgb(76.965332%, 91.862488%, 49.391174%)" offset="0.703125"/><stop stop-opacity="1" stop-color="rgb(77.334595%, 91.983032%, 49.822998%)" offset="0.707031"/><stop stop-opacity="1" stop-color="rgb(77.705383%, 92.103577%, 50.254822%)" offset="0.710938"/><stop stop-opacity="1" stop-color="rgb(77.851868%, 92.150879%, 50.427246%)" offset="0.71875"/><stop stop-opacity="1" stop-color="rgb(77.999878%, 92.199707%, 50.59967%)" offset="0.75"/><stop stop-opacity="1" stop-color="rgb(77.999878%, 92.199707%, 50.59967%)" offset="1"/></linearGradient><clipPath id="a92edc2283"><path d="M 150 245 L 216 245 L 216 284 L 150 284 Z M 150 245 " clip-rule="nonzero"/></clipPath><clipPath id="2dfc788f07"><path d="M 154.679688 50.445312 L 309.128906 116.542969 L 220.015625 324.777344 L 65.5625 258.679688 Z M 154.679688 50.445312 " clip-rule="nonzero"/></clipPath><clipPath id="2542c1aeef"><path d="M 154.679688 50.445312 L 309.128906 116.542969 L 220.015625 324.777344 L 65.5625 258.679688 Z M 154.679688 50.445312 " clip-rule="nonzero"/></clipPath><clipPath id="30bf8a9fd3"><path d="M 130 168 L 238 168 L 238 203 L 130 203 Z M 130 168 " clip-rule="nonzero"/></clipPath><clipPath id="04008920f9"><path d="M 154.679688 50.445312 L 309.128906 116.542969 L 220.015625 324.777344 L 65.5625 258.679688 Z M 154.679688 50.445312 " clip-rule="nonzero"/></clipPath><clipPath id="991e94be18"><path d="M 154.679688 50.445312 L 309.128906 116.542969 L 220.015625 324.777344 L 65.5625 258.679688 Z M 154.679688 50.445312 " clip-rule="nonzero"/></clipPath><clipPath id="49546656f4"><path d="M 115 116 L 252 116 L 252 253 L 115 253 Z M 115 116 " clip-rule="nonzero"/></clipPath><clipPath id="3b599437de"><path d="M 154.679688 50.445312 L 309.128906 116.542969 L 220.015625 324.777344 L 65.5625 258.679688 Z M 154.679688 50.445312 " clip-rule="nonzero"/></clipPath><clipPath id="f828e8c756"><path d="M 154.679688 50.445312 L 309.128906 116.542969 L 220.015625 324.777344 L 65.5625 258.679688 Z M 154.679688 50.445312 " clip-rule="nonzero"/></clipPath><clipPath id="785a530629"><path d="M 104 105 L 299 105 L 299 302 L 104 302 Z M 104 105 " clip-rule="nonzero"/></clipPath><clipPath id="e2a1e986a8"><path d="M 154.679688 50.445312 L 309.128906 116.542969 L 220.015625 324.777344 L 65.5625 258.679688 Z M 154.679688 50.445312 " clip-rule="nonzero"/></clipPath><clipPath id="eac1ed42f6"><path d="M 154.679688 50.445312 L 309.128906 116.542969 L 220.015625 324.777344 L 65.5625 258.679688 Z M 154.679688 50.445312 " clip-rule="nonzero"/></clipPath></defs><g clip-path="url(#2a563f0dda)"><g clip-path="url(#0ff743040b)"><g clip-path="url(#6e24f51d64)"><path fill="#537b37" d="M 290.96875 159.511719 C 291.1875 159.003906 291.167969 158.457031 290.972656 157.984375 L 290.980469 157.984375 L 288.410156 151.570312 C 288.234375 151.109375 287.886719 150.714844 287.410156 150.488281 C 287.386719 150.476562 287.363281 150.464844 287.339844 150.457031 C 287.296875 150.4375 287.25 150.417969 287.207031 150.402344 C 287.101562 150.367188 286.992188 150.339844 286.886719 150.324219 L 279.425781 148.921875 L 298.480469 120.164062 C 298.863281 119.585938 298.902344 118.871094 298.632812 118.265625 L 298.636719 118.265625 L 296.105469 111.96875 C 296.082031 111.898438 296.054688 111.832031 296.023438 111.765625 L 296 111.703125 L 295.996094 111.710938 C 295.921875 111.566406 295.835938 111.425781 295.722656 111.300781 C 295.523438 111.074219 295.285156 110.90625 295.023438 110.792969 C 294.503906 110.570312 293.898438 110.574219 293.367188 110.839844 L 259.015625 127.957031 L 260.425781 120.660156 C 260.511719 120.199219 260.433594 119.742188 260.226562 119.355469 L 257.789062 113.289062 C 257.632812 112.726562 257.234375 112.246094 256.671875 112.003906 C 256.652344 111.996094 256.628906 111.988281 256.605469 111.976562 C 255.714844 111.632812 254.707031 111.976562 254.210938 112.792969 L 242.625 131.863281 C 234.925781 123.15625 225.269531 116.175781 214.542969 111.582031 C 174.449219 94.425781 127.871094 113.082031 110.714844 153.175781 C 103.417969 170.222656 102.363281 189.40625 107.746094 207.195312 C 108.753906 210.515625 109.972656 213.753906 111.390625 216.890625 C 116.664062 231.945312 126.375 245.082031 139.160156 254.484375 C 139.347656 256.273438 139.726562 258.042969 140.304688 259.765625 C 139.882812 261.171875 139.664062 262.625 139.648438 264.089844 L 139.605469 268.769531 C 139.566406 273.023438 140.714844 277.097656 142.796875 280.644531 C 144.480469 287.847656 149.589844 294 156.789062 297.082031 C 158.257812 297.710938 159.792969 298.199219 161.347656 298.527344 L 162.007812 298.671875 C 177.472656 301.984375 193.171875 302.121094 208.675781 299.078125 C 220.214844 296.816406 228.667969 286.910156 228.773438 275.519531 L 228.8125 271.34375 C 228.832031 269.097656 228.355469 266.855469 227.4375 264.808594 C 227.921875 262.902344 228.175781 260.957031 228.191406 259.007812 L 228.207031 257.625 C 241.664062 249.128906 252.480469 236.476562 258.726562 221.878906 C 265.140625 206.894531 266.753906 190.617188 263.429688 174.707031 L 290.042969 160.5 C 290.441406 160.296875 290.777344 159.957031 290.96875 159.511719 Z M 290.96875 159.511719 " fill-opacity="1" fill-rule="nonzero"/></g></g></g><g clip-path="url(#e7c7f54b9e)"><g clip-path="url(#c71353d1e5)"><g clip-path="url(#ce486646a6)"><g clip-path="url(#f9fa7da7b2)"><path fill="url(#82e8c46a71)" d="M 128.195312 25.601562 L 26.527344 263.171875 L 263.835938 364.730469 L 365.503906 127.160156 Z M 128.195312 25.601562 " fill-rule="nonzero"/></g></g></g></g><g clip-path="url(#a92edc2283)"><g clip-path="url(#2dfc788f07)"><g clip-path="url(#2542c1aeef)"><path fill="#ffd535" d="M 209.210938 265.542969 C 210.945312 264.457031 212.472656 263.03125 213.671875 261.332031 C 214.644531 262.242188 215.191406 263.476562 215.183594 264.78125 L 215.144531 268.945312 C 215.125 270.617188 214.773438 272.234375 214.132812 273.722656 C 212.417969 277.738281 208.648438 280.859375 203.960938 281.777344 C 189.929688 284.53125 175.722656 284.410156 161.742188 281.410156 L 161.066406 281.265625 C 154.976562 279.957031 150.585938 274.746094 150.640625 268.867188 L 150.6875 264.191406 C 150.691406 263.289062 150.964844 262.421875 151.46875 261.679688 C 153.636719 264.425781 156.640625 266.335938 160.054688 267.117188 L 160.726562 267.269531 C 174.980469 270.539062 189.457031 270.664062 203.769531 267.644531 L 204.308594 267.53125 C 204.539062 267.480469 204.765625 267.425781 204.984375 267.371094 C 205.058594 267.351562 205.128906 267.328125 205.195312 267.308594 C 205.351562 267.269531 205.503906 267.222656 205.660156 267.175781 C 205.738281 267.152344 205.816406 267.125 205.894531 267.101562 C 206.035156 267.050781 206.175781 267.007812 206.308594 266.957031 C 206.398438 266.925781 206.488281 266.894531 206.570312 266.859375 C 206.699219 266.808594 206.828125 266.761719 206.953125 266.710938 C 207.042969 266.671875 207.144531 266.625 207.234375 266.585938 C 207.347656 266.539062 207.460938 266.488281 207.566406 266.4375 C 207.675781 266.386719 207.78125 266.335938 207.886719 266.28125 C 207.980469 266.238281 208.070312 266.191406 208.152344 266.148438 C 208.277344 266.082031 208.402344 266.011719 208.527344 265.949219 C 208.585938 265.914062 208.648438 265.878906 208.707031 265.84375 C 208.851562 265.761719 209 265.671875 209.144531 265.585938 C 209.167969 265.566406 209.1875 265.554688 209.210938 265.542969 Z M 169.425781 252.90625 C 169.40625 252.90625 169.386719 252.902344 169.371094 252.894531 C 168.859375 252.792969 168.347656 252.683594 167.839844 252.5625 C 167.734375 252.539062 167.621094 252.511719 167.515625 252.488281 C 167.070312 252.382812 166.632812 252.277344 166.195312 252.167969 C 166.015625 252.117188 165.835938 252.074219 165.660156 252.023438 C 165.273438 251.925781 164.890625 251.820312 164.507812 251.714844 C 164.273438 251.644531 164.042969 251.582031 163.808594 251.511719 C 163.472656 251.410156 163.132812 251.3125 162.792969 251.207031 C 162.519531 251.121094 162.242188 251.035156 161.964844 250.941406 C 161.660156 250.84375 161.363281 250.75 161.070312 250.652344 C 160.746094 250.539062 160.429688 250.429688 160.109375 250.316406 C 159.851562 250.226562 159.589844 250.136719 159.335938 250.042969 C 158.960938 249.902344 158.585938 249.757812 158.210938 249.613281 C 158.011719 249.535156 157.808594 249.457031 157.605469 249.382812 C 157.027344 249.152344 156.449219 248.914062 155.875 248.667969 C 155.363281 248.449219 154.863281 248.222656 154.355469 247.992188 C 154.058594 247.859375 153.769531 247.71875 153.472656 247.582031 C 153.277344 247.488281 153.082031 247.398438 152.886719 247.304688 C 152.511719 247.121094 152.148438 246.9375 151.777344 246.75 C 151.671875 246.699219 151.5625 246.640625 151.449219 246.585938 C 151.054688 246.382812 150.65625 246.171875 150.265625 245.960938 C 150.21875 245.9375 150.167969 245.910156 150.121094 245.886719 L 150.066406 251.839844 C 150.011719 257.777344 153.863281 263.082031 159.359375 264.878906 C 159.375 264.886719 159.390625 264.886719 159.398438 264.890625 C 159.761719 265.007812 160.125 265.109375 160.496094 265.195312 L 161.167969 265.347656 C 175.136719 268.554688 189.332031 268.675781 203.363281 265.714844 L 203.902344 265.597656 C 204.246094 265.527344 204.585938 265.441406 204.917969 265.335938 C 204.980469 265.320312 205.039062 265.304688 205.101562 265.285156 C 205.417969 265.1875 205.726562 265.078125 206.03125 264.957031 C 206.09375 264.929688 206.15625 264.902344 206.21875 264.875 C 206.535156 264.742188 206.84375 264.605469 207.144531 264.453125 C 207.152344 264.449219 207.164062 264.445312 207.175781 264.4375 C 207.488281 264.277344 207.792969 264.101562 208.09375 263.914062 C 208.117188 263.902344 208.144531 263.886719 208.164062 263.875 C 211.996094 261.472656 214.519531 257.179688 214.558594 252.4375 L 214.613281 246.984375 C 200.453125 254.023438 184.605469 256.027344 169.425781 252.90625 Z M 169.425781 252.90625 " fill-opacity="1" fill-rule="nonzero"/></g></g></g><g clip-path="url(#30bf8a9fd3)"><g clip-path="url(#04008920f9)"><g clip-path="url(#991e94be18)"><path fill="#86d635" d="M 213.519531 174.972656 C 213.722656 174.5 213.503906 173.867188 213 173.679688 C 211.964844 173.296875 210.890625 173.007812 209.8125 172.789062 C 205.695312 171.949219 201.425781 172.960938 197.699219 174.769531 C 193.003906 176.859375 189.285156 180.640625 186.3125 184.761719 C 186.054688 185.132812 185.804688 185.519531 185.5625 185.902344 C 187.882812 179.472656 193.265625 174.167969 199.386719 171.214844 C 203.273438 169.492188 207.484375 168 211.792969 168.375 C 215.183594 168.417969 218.273438 170.035156 221.25 171.515625 C 226.425781 174.023438 231.996094 175.964844 237.800781 175.996094 C 236.925781 179.433594 235.617188 182.84375 233.214844 185.527344 C 229.125 189.636719 223.464844 192.675781 217.535156 192.242188 C 212.367188 191.820312 207.671875 189.480469 202.804688 187.847656 C 196.609375 185.65625 190.320312 186.9375 185.257812 190.910156 C 188.855469 182.058594 197.929688 174.03125 207.878906 174.503906 C 209.296875 174.625 210.679688 174.96875 212.023438 175.421875 C 212.566406 175.6875 213.265625 175.582031 213.519531 174.972656 Z M 154.738281 181.054688 C 156.699219 180.417969 158.757812 180.011719 160.824219 180.015625 C 168.425781 179.625 175.121094 183.882812 179.835938 189.589844 C 175.03125 180.839844 166.804688 173.613281 156.542969 173.1875 C 149.675781 173.183594 144.078125 178.496094 140.519531 183.917969 C 137.339844 189.53125 136.429688 194.3125 130.527344 198.015625 C 130.585938 198.050781 130.640625 198.085938 130.691406 198.125 C 131.285156 198.464844 131.914062 198.75 132.542969 199.023438 C 140.015625 202.355469 148.546875 203.78125 156.554688 201.640625 C 161.816406 200.257812 166.34375 197.242188 171.546875 195.753906 C 174.671875 194.949219 177.945312 194.332031 181.15625 194.808594 C 180.992188 194.566406 180.824219 194.320312 180.640625 194.054688 C 176.03125 186.796875 168.421875 181.042969 159.453125 182.058594 C 157.949219 182.191406 156.328125 182.574219 154.953125 183.0625 C 153.882812 183.25 152.046875 184.773438 151.378906 183.394531 C 151.171875 182.902344 151.402344 182.304688 151.902344 182.101562 C 152.832031 181.714844 153.78125 181.371094 154.738281 181.054688 Z M 154.738281 181.054688 " fill-opacity="1" fill-rule="nonzero"/></g></g></g><g clip-path="url(#49546656f4)"><g clip-path="url(#3b599437de)"><g clip-path="url(#f828e8c756)"><path fill="#c7eb81" d="M 151.269531 244.265625 C 151.324219 244.292969 151.375 244.320312 151.429688 244.347656 C 151.949219 244.625 152.46875 244.894531 152.996094 245.160156 C 153.050781 245.1875 153.105469 245.214844 153.164062 245.242188 C 153.671875 245.496094 154.183594 245.738281 154.691406 245.976562 C 154.769531 246.011719 154.84375 246.050781 154.917969 246.082031 C 155.496094 246.351562 156.074219 246.609375 156.648438 246.855469 L 156.652344 246.859375 C 157.21875 247.101562 157.785156 247.332031 158.359375 247.554688 C 158.550781 247.632812 158.75 247.707031 158.941406 247.785156 C 159.3125 247.925781 159.691406 248.074219 160.0625 248.203125 C 160.3125 248.300781 160.558594 248.386719 160.808594 248.46875 C 161.128906 248.585938 161.449219 248.695312 161.773438 248.808594 C 162.054688 248.902344 162.335938 248.992188 162.613281 249.082031 C 162.902344 249.171875 163.183594 249.265625 163.472656 249.351562 C 163.785156 249.449219 164.105469 249.542969 164.421875 249.636719 C 164.664062 249.707031 164.90625 249.777344 165.144531 249.84375 C 165.503906 249.945312 165.863281 250.042969 166.226562 250.140625 C 166.410156 250.1875 166.59375 250.234375 166.777344 250.277344 C 167.199219 250.382812 167.613281 250.488281 168.039062 250.589844 C 168.125 250.609375 168.21875 250.628906 168.304688 250.648438 C 172.929688 251.707031 177.589844 252.253906 182.214844 252.328125 C 182.542969 245.523438 183.242188 238.730469 183.332031 231.914062 C 183.429688 220.332031 183.351562 208.738281 182.78125 197.171875 C 182.136719 197.003906 181.476562 196.851562 180.816406 196.746094 C 179.464844 196.542969 178.121094 196.570312 176.773438 196.722656 C 169.925781 197.34375 164.183594 201.4375 157.71875 203.359375 C 148.984375 205.921875 139.558594 204.402344 131.382812 200.667969 C 129.828125 200.015625 127.078125 198.667969 128.960938 196.773438 C 133.703125 193.480469 134.738281 191.3125 137.085938 186.203125 C 138.800781 182.386719 141.359375 178.996094 144.515625 176.257812 C 147.597656 173.535156 151.453125 171.433594 155.628906 171.230469 C 163.539062 171.074219 170.996094 175.285156 176.210938 181.03125 C 178.765625 183.851562 180.859375 187.089844 182.515625 190.515625 C 182.5625 190.082031 182.613281 189.648438 182.675781 189.214844 C 184.8125 176.546875 197.257812 167.324219 209.667969 166.351562 C 211.710938 166.320312 213.789062 166.476562 215.773438 166.992188 C 217.71875 167.539062 219.523438 168.5 221.335938 169.371094 C 224.839844 171.078125 228.464844 172.589844 232.265625 173.433594 C 233.535156 173.683594 234.808594 173.839844 235.976562 173.929688 C 237.195312 174.144531 238.898438 173.625 239.683594 174.835938 C 240.085938 175.660156 239.664062 176.578125 239.464844 177.410156 C 238.335938 181.363281 236.605469 185.359375 233.40625 188.074219 C 227.785156 193.15625 220.261719 195.679688 212.84375 193.414062 C 208.46875 192.3125 204.429688 190.1875 200.046875 189.148438 C 194.949219 187.839844 189.578125 189.722656 185.703125 193.09375 C 185.304688 193.4375 184.941406 193.765625 184.605469 194.113281 C 185.328125 209.773438 185.78125 225.496094 184.898438 241.148438 C 184.660156 244.878906 184.378906 248.601562 184.1875 252.332031 C 210.304688 252 235.070312 236.582031 245.988281 211.066406 C 260.75 176.570312 244.695312 136.492188 210.199219 121.730469 C 175.703125 106.96875 135.625 123.023438 120.863281 157.515625 C 107.121094 189.628906 120.082031 226.570312 149.765625 243.433594 C 150.261719 243.714844 150.765625 243.996094 151.269531 244.265625 Z M 239.503906 157.28125 C 240.699219 157.445312 240.632812 159.171875 239.421875 159.253906 C 238.710938 159.097656 238.488281 159.300781 238.300781 159.988281 C 237.84375 161.234375 238.367188 162.683594 239.355469 163.523438 C 240.011719 164.085938 241.300781 164.34375 241.804688 163.46875 C 241.882812 163.28125 241.898438 163.074219 241.886719 162.871094 C 241.875 162.335938 242.304688 161.871094 242.84375 161.851562 C 244.160156 161.875 243.972656 163.546875 243.550781 164.386719 C 242.761719 165.960938 240.664062 166.367188 239.144531 165.671875 C 237.261719 164.847656 236.078125 162.742188 236.152344 160.710938 C 236.238281 158.925781 237.429688 156.792969 239.503906 157.28125 Z M 214.210938 129.28125 C 215.851562 129.929688 217.441406 130.765625 218.875 131.796875 C 219.304688 132.121094 219.429688 132.71875 219.113281 133.167969 C 218.816406 133.597656 218.175781 133.730469 217.746094 133.414062 C 215.621094 131.9375 213.34375 130.679688 210.746094 130.613281 C 205.605469 130.476562 208.878906 135.238281 211.15625 136.886719 C 213.433594 138.648438 216.367188 139.25 218.769531 140.820312 C 222.28125 142.929688 224.96875 146.121094 227.707031 149.074219 C 228.625 150 232.183594 153.480469 233.273438 151.863281 C 234.039062 149.859375 232.707031 147.519531 231.679688 145.910156 C 229.636719 143.148438 227.121094 140.898438 224.480469 138.75 C 223.871094 138.300781 222.949219 137.660156 223.535156 136.816406 C 223.828125 136.398438 224.480469 136.242188 224.902344 136.574219 C 227.820312 138.886719 230.679688 141.351562 232.949219 144.316406 C 234.25 146.089844 235.328125 148.160156 235.464844 150.382812 C 235.605469 155.179688 231.503906 155.003906 228.578125 152.511719 C 224.695312 149.363281 222.058594 145.003906 217.703125 142.476562 C 214.347656 140.507812 210.242188 139.640625 207.824219 136.351562 C 203.117188 130.605469 208.355469 127.054688 214.210938 129.28125 Z M 153 233.203125 C 150.226562 234.765625 145.632812 232.3125 142.996094 231.097656 C 136.535156 227.398438 130.84375 221.257812 127.472656 214.628906 C 126.335938 212.222656 123.988281 206.183594 127.6875 205.082031 C 133.046875 203.945312 136.039062 213.5625 139.53125 216.613281 C 139.890625 216.988281 140.253906 217.371094 140.660156 217.6875 C 141.015625 217.867188 141.246094 218.265625 141.207031 218.671875 C 140.992188 219.851562 139.765625 219.722656 139.113281 218.964844 C 136.371094 216.558594 134.671875 213.3125 132.617188 210.359375 C 131.808594 209.316406 131.066406 208.160156 129.964844 207.398438 C 128.929688 206.816406 127.5625 206.523438 127.695312 208.199219 C 128.027344 213.664062 131.925781 218.578125 135.460938 222.511719 C 139.394531 226.730469 144.253906 230.429688 149.988281 231.644531 C 152.417969 232.230469 152.996094 230.628906 151.492188 228.878906 C 149.496094 227.152344 146.941406 226.210938 144.84375 224.601562 C 143.804688 223.824219 144.921875 222.277344 145.992188 223 C 148.453125 224.980469 151.859375 225.789062 153.648438 228.5 C 154.574219 229.960938 154.535156 232.175781 153 233.203125 Z M 153 233.203125 " fill-opacity="1" fill-rule="nonzero"/></g></g></g><g clip-path="url(#785a530629)"><g clip-path="url(#e2a1e986a8)"><g clip-path="url(#eac1ed42f6)"><path fill="#537b37" d="M 290.96875 159.511719 C 291.1875 159.003906 291.167969 158.457031 290.972656 157.984375 L 290.980469 157.984375 L 288.410156 151.570312 C 288.234375 151.109375 287.886719 150.714844 287.410156 150.488281 C 287.386719 150.476562 287.363281 150.464844 287.339844 150.457031 C 287.296875 150.4375 287.25 150.417969 287.207031 150.402344 C 287.101562 150.367188 286.992188 150.339844 286.886719 150.324219 L 279.425781 148.921875 L 298.480469 120.164062 C 298.863281 119.585938 298.902344 118.871094 298.632812 118.265625 L 298.636719 118.265625 L 296.105469 111.96875 C 296.082031 111.898438 296.054688 111.832031 296.023438 111.765625 L 296 111.703125 L 295.996094 111.710938 C 295.921875 111.566406 295.835938 111.425781 295.722656 111.300781 C 295.523438 111.074219 295.285156 110.90625 295.023438 110.792969 C 294.503906 110.570312 293.898438 110.574219 293.367188 110.839844 L 259.015625 127.957031 L 260.425781 120.660156 C 260.511719 120.199219 260.433594 119.742188 260.226562 119.355469 L 257.789062 113.289062 C 257.632812 112.726562 257.234375 112.246094 256.671875 112.003906 C 256.652344 111.996094 256.628906 111.988281 256.605469 111.976562 C 255.714844 111.632812 254.707031 111.976562 254.210938 112.792969 L 242.625 131.863281 C 234.925781 123.15625 225.269531 116.175781 214.542969 111.582031 C 174.449219 94.425781 127.871094 113.082031 110.714844 153.175781 C 103.417969 170.222656 102.363281 189.40625 107.746094 207.195312 C 108.753906 210.515625 109.972656 213.753906 111.390625 216.890625 C 116.664062 231.945312 126.375 245.082031 139.160156 254.484375 C 139.347656 256.273438 139.726562 258.042969 140.304688 259.765625 C 139.882812 261.171875 139.664062 262.625 139.648438 264.089844 L 139.605469 268.769531 C 139.566406 273.023438 140.714844 277.097656 142.796875 280.644531 C 144.480469 287.847656 149.589844 294 156.789062 297.082031 C 158.257812 297.710938 159.792969 298.199219 161.347656 298.527344 L 162.007812 298.671875 C 177.472656 301.984375 193.171875 302.121094 208.675781 299.078125 C 220.214844 296.816406 228.667969 286.910156 228.773438 275.519531 L 228.8125 271.34375 C 228.832031 269.097656 228.355469 266.855469 227.4375 264.808594 C 227.921875 262.902344 228.175781 260.957031 228.191406 259.007812 L 228.207031 257.625 C 241.664062 249.128906 252.480469 236.476562 258.726562 221.878906 C 265.140625 206.894531 266.753906 190.617188 263.429688 174.707031 L 290.042969 160.5 C 290.441406 160.296875 290.777344 159.957031 290.96875 159.511719 Z M 141.574219 268.785156 L 141.621094 264.105469 C 141.632812 262.613281 141.894531 261.140625 142.386719 259.742188 C 141.445312 257.183594 140.972656 254.480469 141 251.75 L 141.027344 248.71875 C 110.058594 228.375 97.785156 188.398438 112.527344 153.949219 C 129.257812 114.859375 174.671875 96.664062 213.769531 113.394531 C 225.480469 118.40625 235.3125 125.996094 242.894531 135.214844 L 255.898438 113.816406 L 252.070312 133.621094 L 294.246094 112.605469 L 270.023438 149.164062 L 286.5625 152.269531 L 258.59375 167.203125 C 262.101562 182.546875 260.976562 199.089844 254.324219 214.632812 C 248.042969 229.308594 237.238281 241.75 223.652344 250.050781 L 223.628906 252.523438 C 223.613281 254.550781 223.3125 256.578125 222.753906 258.53125 C 223.746094 260.46875 224.269531 262.628906 224.25 264.855469 L 224.210938 269.03125 C 224.113281 279.488281 216.328125 288.59375 205.703125 290.675781 C 190.464844 293.667969 175.03125 293.53125 159.835938 290.277344 L 159.164062 290.128906 C 157.734375 289.828125 156.324219 289.378906 154.972656 288.800781 C 146.757812 285.285156 141.5 277.429688 141.574219 268.785156 Z M 148.097656 251.820312 C 148.066406 254.757812 148.882812 257.550781 150.316406 259.949219 C 149.296875 261.140625 148.730469 262.613281 148.714844 264.171875 L 148.671875 268.847656 C 148.621094 274.679688 152.304688 279.9375 157.761719 282.277344 C 158.679688 282.667969 159.644531 282.980469 160.65625 283.191406 L 161.324219 283.339844 C 175.570312 286.390625 190.042969 286.515625 204.339844 283.710938 C 211.675781 282.273438 217.046875 276.070312 217.113281 268.964844 L 217.15625 264.800781 C 217.171875 262.796875 216.269531 260.917969 214.703125 259.617188 C 215.851562 257.460938 216.511719 255.015625 216.535156 252.457031 L 216.59375 245.921875 C 230.089844 238.679688 241.316406 226.992188 247.800781 211.839844 C 262.992188 176.34375 246.472656 135.109375 210.976562 119.917969 C 175.480469 104.730469 134.242188 121.246094 119.050781 156.742188 C 105.007812 189.554688 118.066406 227.273438 148.15625 244.789062 Z M 213.671875 261.332031 C 214.644531 262.242188 215.191406 263.476562 215.183594 264.78125 L 215.144531 268.945312 C 215.125 270.617188 214.773438 272.234375 214.132812 273.722656 C 212.417969 277.738281 208.648438 280.859375 203.960938 281.777344 C 189.929688 284.53125 175.722656 284.410156 161.742188 281.410156 L 161.066406 281.265625 C 154.976562 279.957031 150.585938 274.746094 150.640625 268.867188 L 150.6875 264.191406 C 150.691406 263.289062 150.964844 262.421875 151.46875 261.679688 C 153.636719 264.425781 156.640625 266.335938 160.054688 267.117188 L 160.726562 267.269531 C 174.980469 270.539062 189.457031 270.664062 203.769531 267.644531 L 204.308594 267.53125 C 204.539062 267.480469 204.765625 267.425781 204.984375 267.371094 C 205.058594 267.351562 205.128906 267.328125 205.195312 267.308594 C 205.351562 267.269531 205.503906 267.222656 205.660156 267.175781 C 205.738281 267.152344 205.816406 267.125 205.894531 267.101562 C 206.035156 267.050781 206.175781 267.007812 206.308594 266.957031 C 206.398438 266.925781 206.488281 266.894531 206.570312 266.859375 C 206.699219 266.808594 206.828125 266.761719 206.953125 266.710938 C 207.042969 266.671875 207.144531 266.625 207.234375 266.585938 C 207.347656 266.539062 207.460938 266.488281 207.566406 266.4375 C 207.675781 266.386719 207.78125 266.335938 207.886719 266.28125 C 207.980469 266.238281 208.070312 266.191406 208.152344 266.148438 C 208.277344 266.082031 208.402344 266.011719 208.527344 265.949219 C 208.585938 265.914062 208.648438 265.878906 208.707031 265.84375 C 208.851562 265.761719 209 265.671875 209.144531 265.585938 C 209.167969 265.566406 209.1875 265.554688 209.210938 265.542969 C 210.945312 264.457031 212.472656 263.03125 213.671875 261.332031 Z M 214.558594 252.4375 C 214.519531 257.179688 211.996094 261.472656 208.164062 263.875 C 208.144531 263.886719 208.117188 263.902344 208.09375 263.914062 C 207.792969 264.101562 207.488281 264.277344 207.175781 264.4375 C 207.164062 264.445312 207.152344 264.449219 207.144531 264.453125 C 206.84375 264.605469 206.535156 264.742188 206.21875 264.875 C 206.15625 264.902344 206.09375 264.929688 206.03125 264.957031 C 205.726562 265.078125 205.417969 265.1875 205.101562 265.285156 C 205.039062 265.304688 204.980469 265.320312 204.917969 265.335938 C 204.585938 265.441406 204.246094 265.527344 203.902344 265.597656 L 203.363281 265.714844 C 189.332031 268.675781 175.136719 268.554688 161.167969 265.347656 L 160.496094 265.195312 C 160.125 265.109375 159.761719 265.007812 159.398438 264.890625 C 159.390625 264.886719 159.375 264.886719 159.359375 264.878906 C 153.863281 263.082031 150.011719 257.777344 150.066406 251.839844 L 150.121094 245.886719 C 150.167969 245.910156 150.21875 245.9375 150.265625 245.960938 C 150.65625 246.171875 151.054688 246.382812 151.449219 246.585938 C 151.5625 246.640625 151.671875 246.699219 151.777344 246.75 C 152.148438 246.9375 152.511719 247.121094 152.886719 247.304688 C 153.082031 247.398438 153.277344 247.488281 153.472656 247.582031 C 153.769531 247.71875 154.058594 247.859375 154.355469 247.992188 C 154.863281 248.222656 155.363281 248.449219 155.875 248.667969 C 156.449219 248.914062 157.027344 249.152344 157.605469 249.382812 C 157.808594 249.457031 158.011719 249.535156 158.210938 249.613281 C 158.585938 249.757812 158.960938 249.902344 159.335938 250.042969 C 159.589844 250.136719 159.851562 250.226562 160.109375 250.316406 C 160.429688 250.429688 160.746094 250.539062 161.070312 250.652344 C 161.363281 250.75 161.660156 250.84375 161.964844 250.941406 C 162.242188 251.035156 162.519531 251.121094 162.792969 251.207031 C 163.132812 251.3125 163.472656 251.410156 163.808594 251.511719 C 164.042969 251.582031 164.273438 251.644531 164.507812 251.714844 C 164.890625 251.820312 165.273438 251.925781 165.660156 252.023438 C 165.835938 252.074219 166.015625 252.117188 166.195312 252.167969 C 166.632812 252.277344 167.070312 252.382812 167.515625 252.488281 C 167.621094 252.511719 167.734375 252.539062 167.839844 252.5625 C 168.347656 252.683594 168.859375 252.792969 169.371094 252.894531 C 169.386719 252.902344 169.40625 252.90625 169.425781 252.90625 C 184.605469 256.027344 200.453125 254.023438 214.613281 246.984375 Z M 120.863281 157.515625 C 135.625 123.023438 175.703125 106.96875 210.199219 121.730469 C 244.695312 136.492188 260.75 176.570312 245.988281 211.066406 C 235.070312 236.582031 210.304688 252 184.1875 252.332031 C 184.378906 248.601562 184.660156 244.878906 184.898438 241.148438 C 185.78125 225.496094 185.328125 209.773438 184.605469 194.113281 C 184.941406 193.765625 185.304688 193.4375 185.703125 193.09375 C 189.578125 189.722656 194.949219 187.839844 200.046875 189.148438 C 204.429688 190.1875 208.46875 192.3125 212.84375 193.414062 C 220.261719 195.679688 227.785156 193.15625 233.40625 188.074219 C 236.605469 185.359375 238.335938 181.363281 239.464844 177.410156 C 239.664062 176.578125 240.085938 175.660156 239.683594 174.835938 C 238.898438 173.625 237.195312 174.144531 235.976562 173.929688 C 234.808594 173.839844 233.535156 173.683594 232.265625 173.433594 C 228.464844 172.589844 224.839844 171.078125 221.335938 169.371094 C 219.523438 168.5 217.71875 167.539062 215.773438 166.992188 C 213.789062 166.476562 211.710938 166.320312 209.667969 166.351562 C 197.257812 167.324219 184.8125 176.546875 182.675781 189.214844 C 182.613281 189.648438 182.5625 190.082031 182.515625 190.515625 C 180.859375 187.089844 178.765625 183.851562 176.210938 181.03125 C 170.996094 175.285156 163.539062 171.074219 155.628906 171.230469 C 151.453125 171.433594 147.597656 173.535156 144.515625 176.257812 C 141.359375 178.996094 138.800781 182.386719 137.085938 186.203125 C 134.738281 191.3125 133.703125 193.480469 128.960938 196.773438 C 127.078125 198.667969 129.828125 200.015625 131.382812 200.667969 C 139.558594 204.402344 148.984375 205.921875 157.71875 203.359375 C 164.183594 201.4375 169.925781 197.34375 176.773438 196.722656 C 178.121094 196.570312 179.464844 196.542969 180.816406 196.746094 C 181.476562 196.851562 182.136719 197.003906 182.78125 197.171875 C 183.351562 208.738281 183.429688 220.332031 183.332031 231.914062 C 183.242188 238.730469 182.542969 245.523438 182.214844 252.328125 C 177.589844 252.253906 172.929688 251.707031 168.304688 250.648438 C 168.21875 250.628906 168.125 250.609375 168.039062 250.589844 C 167.613281 250.488281 167.199219 250.382812 166.777344 250.277344 C 166.59375 250.234375 166.410156 250.1875 166.226562 250.140625 C 165.863281 250.042969 165.503906 249.945312 165.144531 249.84375 C 164.90625 249.777344 164.664062 249.707031 164.421875 249.636719 C 164.105469 249.542969 163.785156 249.449219 163.472656 249.351562 C 163.183594 249.265625 162.902344 249.171875 162.613281 249.082031 C 162.335938 248.992188 162.054688 248.902344 161.773438 248.808594 C 161.449219 248.695312 161.128906 248.585938 160.808594 248.46875 C 160.558594 248.386719 160.3125 248.300781 160.0625 248.203125 C 159.691406 248.074219 159.3125 247.925781 158.941406 247.785156 C 158.75 247.707031 158.550781 247.632812 158.359375 247.554688 C 157.785156 247.332031 157.21875 247.101562 156.652344 246.859375 L 156.648438 246.855469 C 156.074219 246.609375 155.496094 246.351562 154.917969 246.082031 C 154.84375 246.050781 154.769531 246.011719 154.691406 245.976562 C 154.183594 245.738281 153.671875 245.496094 153.164062 245.242188 C 153.105469 245.214844 153.050781 245.1875 152.996094 245.160156 C 152.46875 244.894531 151.949219 244.625 151.429688 244.347656 C 151.375 244.320312 151.324219 244.292969 151.269531 244.265625 C 150.765625 243.996094 150.261719 243.714844 149.765625 243.433594 C 120.082031 226.570312 107.121094 189.628906 120.863281 157.515625 Z M 213 173.679688 C 211.964844 173.296875 210.890625 173.007812 209.8125 172.789062 C 205.695312 171.949219 201.425781 172.960938 197.699219 174.769531 C 193.003906 176.859375 189.285156 180.640625 186.3125 184.761719 C 186.054688 185.132812 185.804688 185.519531 185.5625 185.902344 C 187.882812 179.472656 193.265625 174.167969 199.386719 171.214844 C 203.273438 169.492188 207.484375 168 211.792969 168.375 C 215.183594 168.417969 218.273438 170.035156 221.25 171.515625 C 226.425781 174.023438 231.996094 175.964844 237.800781 175.996094 C 236.925781 179.433594 235.617188 182.84375 233.214844 185.527344 C 229.125 189.636719 223.464844 192.675781 217.535156 192.242188 C 212.367188 191.820312 207.671875 189.480469 202.804688 187.847656 C 196.609375 185.65625 190.320312 186.9375 185.257812 190.910156 C 188.855469 182.058594 197.929688 174.03125 207.878906 174.503906 C 209.296875 174.625 210.679688 174.96875 212.023438 175.421875 C 212.566406 175.6875 213.265625 175.582031 213.519531 174.972656 C 213.722656 174.5 213.503906 173.867188 213 173.679688 Z M 151.378906 183.394531 C 152.046875 184.773438 153.882812 183.25 154.953125 183.0625 C 156.328125 182.574219 157.949219 182.191406 159.453125 182.058594 C 168.421875 181.042969 176.03125 186.796875 180.640625 194.054688 C 180.824219 194.320312 180.992188 194.566406 181.15625 194.808594 C 177.945312 194.332031 174.671875 194.949219 171.546875 195.753906 C 166.34375 197.242188 161.816406 200.257812 156.554688 201.640625 C 148.546875 203.78125 140.015625 202.355469 132.542969 199.023438 C 131.914062 198.75 131.285156 198.464844 130.691406 198.125 C 130.640625 198.085938 130.585938 198.050781 130.527344 198.015625 C 136.429688 194.3125 137.339844 189.53125 140.519531 183.917969 C 144.078125 178.496094 149.675781 173.183594 156.542969 173.1875 C 166.804688 173.613281 175.03125 180.839844 179.835938 189.589844 C 175.121094 183.882812 168.425781 179.625 160.824219 180.015625 C 158.757812 180.011719 156.699219 180.417969 154.738281 181.054688 C 153.78125 181.371094 152.832031 181.714844 151.902344 182.101562 C 151.402344 182.304688 151.171875 182.902344 151.378906 183.394531 Z M 236.152344 160.710938 C 236.238281 158.925781 237.429688 156.792969 239.503906 157.28125 C 240.699219 157.445312 240.632812 159.171875 239.421875 159.253906 C 238.710938 159.097656 238.488281 159.300781 238.300781 159.988281 C 237.84375 161.234375 238.367188 162.683594 239.355469 163.523438 C 240.011719 164.085938 241.300781 164.34375 241.804688 163.46875 C 241.882812 163.28125 241.898438 163.074219 241.886719 162.871094 C 241.875 162.335938 242.304688 161.871094 242.84375 161.851562 C 244.160156 161.875 243.972656 163.546875 243.550781 164.386719 C 242.761719 165.960938 240.664062 166.367188 239.144531 165.671875 C 237.261719 164.847656 236.078125 162.742188 236.152344 160.710938 Z M 214.210938 129.28125 C 215.851562 129.929688 217.441406 130.765625 218.875 131.796875 C 219.304688 132.121094 219.429688 132.71875 219.113281 133.167969 C 218.816406 133.597656 218.175781 133.730469 217.746094 133.414062 C 215.621094 131.9375 213.34375 130.679688 210.746094 130.613281 C 205.605469 130.476562 208.878906 135.238281 211.15625 136.886719 C 213.433594 138.648438 216.367188 139.25 218.769531 140.820312 C 222.28125 142.929688 224.96875 146.121094 227.707031 149.074219 C 228.625 150 232.183594 153.480469 233.273438 151.863281 C 234.039062 149.859375 232.707031 147.519531 231.679688 145.910156 C 229.636719 143.148438 227.121094 140.898438 224.480469 138.75 C 223.871094 138.300781 222.949219 137.660156 223.535156 136.816406 C 223.828125 136.398438 224.480469 136.242188 224.902344 136.574219 C 227.820312 138.886719 230.679688 141.351562 232.949219 144.316406 C 234.25 146.089844 235.328125 148.160156 235.464844 150.382812 C 235.605469 155.179688 231.503906 155.003906 228.578125 152.511719 C 224.695312 149.363281 222.058594 145.003906 217.703125 142.476562 C 214.347656 140.507812 210.242188 139.640625 207.824219 136.351562 C 203.117188 130.605469 208.355469 127.054688 214.210938 129.28125 Z M 153 233.203125 C 150.226562 234.765625 145.632812 232.3125 142.996094 231.097656 C 136.535156 227.398438 130.84375 221.257812 127.472656 214.628906 C 126.335938 212.222656 123.988281 206.183594 127.6875 205.082031 C 133.046875 203.945312 136.039062 213.5625 139.53125 216.613281 C 139.890625 216.988281 140.253906 217.371094 140.660156 217.6875 C 141.015625 217.867188 141.246094 218.265625 141.207031 218.671875 C 140.992188 219.851562 139.765625 219.722656 139.113281 218.964844 C 136.371094 216.558594 134.671875 213.3125 132.617188 210.359375 C 131.808594 209.316406 131.066406 208.160156 129.964844 207.398438 C 128.929688 206.816406 127.5625 206.523438 127.695312 208.199219 C 128.027344 213.664062 131.925781 218.578125 135.460938 222.511719 C 139.394531 226.730469 144.253906 230.429688 149.988281 231.644531 C 152.417969 232.230469 152.996094 230.628906 151.492188 228.878906 C 149.496094 227.152344 146.941406 226.210938 144.84375 224.601562 C 143.804688 223.824219 144.921875 222.277344 145.992188 223 C 148.453125 224.980469 151.859375 225.789062 153.648438 228.5 C 154.574219 229.960938 154.535156 232.175781 153 233.203125 Z M 153 233.203125 " fill-opacity="1" fill-rule="nonzero"/></g></g></g></svg>