<svg xmlns="http://www.w3.org/2000/svg" xmlns:xlink="http://www.w3.org/1999/xlink" width="500" zoomAndPan="magnify" viewBox="0 0 375 374.999991" height="500" preserveAspectRatio="xMidYMid meet" version="1.0"><defs><clipPath id="a5837cb0dd"><path d="M 80.238281 171 L 152 171 L 152 220 L 80.238281 220 Z M 80.238281 171 " clip-rule="nonzero"/></clipPath></defs><path fill="#dd873a" d="M 225.085938 236.207031 C 215.675781 228.90625 210.003906 227.734375 204.101562 224.347656 C 203.632812 224.128906 203.1875 223.875 202.757812 223.585938 C 194.808594 218.621094 188.4375 210.207031 184.285156 201.503906 C 182.542969 197.847656 181.199219 194.050781 180.253906 190.109375 L 170.082031 190.109375 C 157.867188 189.992188 149.039062 189.761719 142.433594 189.585938 L 140.738281 192.214844 C 120.632812 222.476562 119.578125 206.585938 103.621094 209.800781 C 96.78125 223.820312 95.554688 241.992188 98.710938 256.714844 C 103.738281 280.257812 121.332031 300.941406 145.589844 308.828125 C 174.992188 318.351562 199.542969 304.328125 203.515625 301.933594 C 228.535156 287.09375 235.785156 261.796875 237.945312 248.59375 C 235.550781 246.140625 232.101562 241.640625 225.085938 236.207031 Z M 225.085938 236.207031 " fill-opacity="1" fill-rule="nonzero"/><path fill="#443e3c" d="M 204.101562 224.347656 C 185.632812 231.941406 152.3125 232.878906 130.335938 225.339844 C 121.917969 222.417969 118.703125 217.980469 120.804688 211.144531 C 124.546875 210.910156 128.640625 208.574219 135.128906 200.160156 C 137.816406 200.21875 140.679688 200.628906 143.542969 200.917969 C 148.804688 201.445312 153.597656 201.796875 158.042969 202.03125 C 159.199219 198.78125 159.824219 195.429688 159.910156 191.980469 C 159.96875 190.226562 160.027344 179.828125 153.191406 172.117188 C 153.980469 171.015625 154.546875 169.808594 154.882812 168.492188 C 157.339844 172.175781 160.203125 177.957031 163.359375 186.605469 C 167.277344 197.238281 167.746094 201.972656 168.035156 202.261719 C 168.445312 202.085938 168.5625 191.222656 180.078125 175.15625 C 179.335938 177.453125 179.027344 179.808594 179.144531 182.222656 C 176.804688 187.539062 174.523438 194.550781 174.347656 202.144531 C 178.03125 202.03125 181.304688 201.796875 184.285156 201.503906 C 188.4375 210.207031 194.808594 218.621094 202.757812 223.585938 C 203.1875 223.875 203.632812 224.128906 204.101562 224.347656 Z M 204.101562 224.347656 " fill-opacity="1" fill-rule="nonzero"/><path fill="#71725d" d="M 278.160156 130.636719 C 274.070312 122.691406 254.195312 124.617188 242.796875 127.304688 C 237.679688 128.492188 232.714844 130.128906 227.890625 132.210938 C 226.664062 137.003906 224.035156 141.675781 219.824219 147.636719 C 213.335938 156.808594 205.914062 161.132812 195.390625 167.558594 C 189.722656 171.066406 186.039062 173.226562 183.703125 173.636719 C 182.953125 173.804688 182.25 173.691406 181.597656 173.285156 L 181.539062 173.285156 C 178.558594 171.007812 183.058594 163.234375 184.695312 147.167969 C 186.332031 131.101562 183.117188 127.949219 187.324219 122.515625 C 191.535156 117.082031 199.074219 115.738281 206.617188 112.171875 C 208.914062 111.125 211.058594 109.820312 213.046875 108.257812 C 210.707031 94.527344 202.757812 81.617188 197.203125 72.5625 C 196.5625 71.511719 195.566406 69.992188 193.8125 69.523438 C 184.34375 66.835938 160.378906 95.929688 160.496094 125.726562 C 160.554688 148.511719 174.582031 170.1875 181.1875 173.050781 C 180.710938 173.71875 180.34375 174.4375 180.078125 175.210938 C 179.335938 177.511719 179.027344 179.867188 179.144531 182.28125 C 179.253906 184.929688 179.625 187.539062 180.253906 190.109375 C 181.199219 194.050781 182.542969 197.847656 184.285156 201.503906 C 188.4375 210.207031 194.808594 218.621094 202.757812 223.585938 C 203.1875 223.875 203.632812 224.128906 204.101562 224.347656 C 210.003906 227.734375 215.675781 228.90625 225.085938 236.207031 C 232.101562 241.640625 235.550781 246.140625 237.945312 248.59375 C 239.347656 250.054688 240.34375 250.753906 241.511719 250.464844 C 247.824219 248.652344 251.976562 216.753906 235.957031 194.375 C 232.007812 188.984375 227.3125 184.351562 221.871094 180.472656 C 235.902344 182.574219 244.902344 182.398438 251.273438 178.367188 C 259.984375 172.933594 264.367188 164.578125 273.195312 147.871094 C 279.738281 135.308594 278.921875 132.152344 278.160156 130.636719 Z M 278.160156 130.636719 " fill-opacity="1" fill-rule="nonzero"/><g clip-path="url(#a5837cb0dd)"><path fill="#959e81" d="M 112.039062 171.179688 C 100.464844 174.394531 90.292969 181.289062 84.683594 200.335938 C 83.511719 204.132812 80.238281 209.15625 80.707031 215.816406 C 81.410156 225.164062 89.535156 213.128906 102.6875 209.976562 L 103.621094 209.800781 C 111.6875 208.164062 115.953125 211.4375 120.804688 211.144531 C 124.546875 210.910156 128.640625 208.574219 135.128906 200.160156 C 136.824219 197.941406 138.632812 195.3125 140.738281 192.214844 L 142.433594 189.585938 C 147.050781 182.574219 150.089844 177.433594 151.960938 173.695312 C 145.007812 180.644531 125.890625 182.398438 112.039062 171.179688 Z M 112.039062 171.179688 " fill-opacity="1" fill-rule="nonzero"/></g><path fill="#959e81" d="M 227.074219 112.113281 C 221.578125 86.175781 225.671875 98.445312 213.046875 108.199219 C 211.058594 109.761719 208.914062 111.066406 206.617188 112.113281 C 199.074219 115.679688 191.535156 116.90625 187.324219 122.457031 C 183.117188 128.007812 186.273438 131.628906 184.695312 147.109375 C 183.117188 162.59375 178.441406 171.121094 181.597656 173.285156 C 183.644531 174.6875 187.617188 172.351562 195.390625 167.558594 C 205.914062 161.132812 213.335938 156.808594 219.824219 147.636719 C 224.035156 141.675781 226.664062 137.003906 227.890625 132.210938 C 229.296875 126.546875 228.886719 120.644531 227.074219 112.113281 Z M 227.074219 112.113281 " fill-opacity="1" fill-rule="nonzero"/><path fill="#71725d" d="M 131.152344 125.785156 C 113.089844 114.859375 88.65625 118.367188 87.195312 123.742188 C 86.613281 125.785156 89.945312 126.894531 93.683594 133.613281 C 97.425781 140.332031 97.015625 145.066406 99.414062 152.308594 C 102.21875 160.78125 106.777344 166.917969 112.039062 171.179688 C 125.890625 182.398438 145.007812 180.644531 151.960938 173.695312 L 153.015625 172.464844 C 153.074219 172.351562 153.191406 172.234375 153.191406 172.117188 C 153.980469 171.015625 154.546875 169.808594 154.882812 168.492188 C 158.390625 156.339844 146.992188 135.367188 131.152344 125.785156 Z M 131.152344 125.785156 " fill-opacity="1" fill-rule="nonzero"/><path fill="#b64c36" d="M 215.441406 240.707031 C 220 232.820312 210.414062 230.890625 210.0625 236.441406 C 209.539062 239.1875 209.832031 234.980469 206.617188 235.15625 C 201.9375 235.332031 202.582031 241.582031 206.5 243.511719 C 210.414062 245.4375 213.628906 243.917969 215.441406 240.707031 Z M 215.441406 240.707031 " fill-opacity="1" fill-rule="nonzero"/><path fill="#b64c36" d="M 174.699219 239.421875 C 172.128906 241.582031 171.71875 237.257812 168.679688 237.257812 C 168.011719 237.25 167.394531 237.429688 166.835938 237.796875 C 166.277344 238.164062 165.867188 238.65625 165.609375 239.273438 C 165.351562 239.890625 165.289062 240.527344 165.425781 241.183594 C 165.558594 241.835938 165.863281 242.398438 166.339844 242.867188 C 170.960938 248.710938 173.882812 254.4375 179.550781 243.453125 C 181.128906 240.296875 177.738281 236.792969 174.699219 239.421875 Z M 174.699219 239.421875 " fill-opacity="1" fill-rule="nonzero"/><path fill="#b64c36" d="M 119.167969 235.097656 C 115.546875 237.375 114.550781 239.070312 114.84375 233.929688 C 115.078125 229.78125 108.53125 229.429688 108.296875 233.929688 C 108.0625 237.257812 109.175781 242.34375 111.980469 243.976562 C 114.785156 245.613281 118.761719 243.101562 122.5 240.765625 C 126.242188 238.425781 122.558594 233.050781 119.167969 235.097656 Z M 119.167969 235.097656 " fill-opacity="1" fill-rule="nonzero"/><path fill="#b64c36" d="M 144.304688 238.894531 C 140.386719 239.070312 141.441406 243.277344 139.863281 240.179688 C 136.53125 233.578125 129.691406 238.542969 133.667969 242.75 C 134.542969 243.628906 135.128906 246.957031 138.578125 247.949219 C 142.023438 248.945312 147.578125 244.738281 147.578125 242.167969 C 147.570312 241.734375 147.480469 241.320312 147.3125 240.921875 C 147.144531 240.527344 146.90625 240.175781 146.601562 239.871094 C 146.296875 239.566406 145.945312 239.328125 145.546875 239.160156 C 145.152344 238.992188 144.738281 238.902344 144.304688 238.894531 Z M 144.304688 238.894531 " fill-opacity="1" fill-rule="nonzero"/><path fill="#b64c36" d="M 198.492188 257.941406 C 195.683594 257.296875 194.28125 260.6875 192.644531 258.117188 C 190.308594 254.550781 183.410156 258.933594 188.902344 264.71875 C 195.976562 272.078125 205.621094 259.578125 198.492188 257.941406 Z M 198.492188 257.941406 " fill-opacity="1" fill-rule="nonzero"/><path fill="#b64c36" d="M 162.367188 267.816406 C 164.53125 264.660156 159.679688 260.6875 156.871094 264.308594 C 156.054688 264.894531 155.585938 264.484375 155.644531 263.726562 C 155.753906 263.40625 155.8125 263.078125 155.820312 262.738281 C 155.832031 262.402344 155.789062 262.070312 155.695312 261.746094 C 155.605469 261.421875 155.46875 261.117188 155.285156 260.835938 C 155.097656 260.550781 154.878906 260.304688 154.617188 260.089844 C 154.359375 259.871094 154.070312 259.699219 153.757812 259.574219 C 153.445312 259.445312 153.121094 259.363281 152.785156 259.335938 C 152.449219 259.304688 152.117188 259.324219 151.789062 259.394531 C 151.457031 259.46875 151.144531 259.585938 150.851562 259.753906 C 143.894531 264.25 155.644531 277.746094 162.367188 267.816406 Z M 162.367188 267.816406 " fill-opacity="1" fill-rule="nonzero"/><path fill="#b64c36" d="M 118.644531 262.207031 C 116.421875 258.058594 109.523438 262.613281 113.324219 267.640625 C 117.882812 273.65625 125.484375 267.054688 122.328125 263.609375 C 121.097656 261.796875 118.9375 262.671875 118.644531 262.207031 Z M 118.644531 262.207031 " fill-opacity="1" fill-rule="nonzero"/><path fill="#b64c36" d="M 141.089844 283.53125 C 138.867188 284.816406 138.402344 282.070312 136.472656 281.484375 C 128.40625 279.265625 133.492188 298.722656 142.492188 291.300781 C 149.507812 285.515625 145.179688 281.136719 141.089844 283.53125 Z M 141.089844 283.53125 " fill-opacity="1" fill-rule="nonzero"/><path fill="#b64c36" d="M 188.203125 283.179688 C 187.675781 284.289062 188.085938 284.875 186.976562 283.589844 C 185.863281 282.304688 180.953125 282.597656 181.480469 286.746094 C 182.882812 291.710938 192.9375 293.519531 194.28125 286.6875 C 195.335938 281.601562 189.957031 279.96875 188.203125 283.179688 Z M 188.203125 283.179688 " fill-opacity="1" fill-rule="nonzero"/><path fill="#b64c36" d="M 221.753906 270.386719 C 221.054688 267.640625 217.019531 267.113281 215.734375 269.683594 C 215.414062 269.539062 215.082031 269.449219 214.734375 269.414062 C 214.386719 269.375 214.042969 269.394531 213.703125 269.464844 C 213.359375 269.539062 213.039062 269.664062 212.738281 269.839844 C 212.433594 270.015625 212.167969 270.234375 211.9375 270.492188 C 211.703125 270.753906 211.519531 271.046875 211.382812 271.367188 C 211.242188 271.6875 211.15625 272.019531 211.125 272.367188 C 211.09375 272.714844 211.117188 273.058594 211.195312 273.398438 C 211.273438 273.738281 211.402344 274.058594 211.585938 274.359375 C 213.980469 279.851562 223.390625 277.105469 221.753906 270.386719 Z M 221.753906 270.386719 " fill-opacity="1" fill-rule="nonzero"/><path fill="#b64c36" d="M 166.167969 292.0625 C 164.761719 292.46875 164.179688 291.417969 163.535156 291.066406 C 155.761719 286.511719 156.113281 309.355469 169.324219 297.550781 C 171.71875 295.390625 169.265625 291.125 166.167969 292.0625 Z M 166.167969 292.0625 " fill-opacity="1" fill-rule="nonzero"/></svg>