<svg xmlns="http://www.w3.org/2000/svg" xmlns:xlink="http://www.w3.org/1999/xlink" width="500" zoomAndPan="magnify" viewBox="0 0 375 374.999991" height="500" preserveAspectRatio="xMidYMid meet" version="1.0"><defs><clipPath id="1cc46203c5"><path d="M 110 232 L 223 232 L 223 337.515625 L 110 337.515625 Z M 110 232 " clip-rule="nonzero"/></clipPath></defs><g clip-path="url(#1cc46203c5)"><path fill="#443e3c" d="M 206.582031 290.171875 C 203.207031 312.808594 209.132812 322.46875 200.726562 330.613281 C 193.695312 337.515625 182.671875 337.375 167.234375 337.167969 C 151.796875 336.960938 144.148438 336.824219 137.808594 331.304688 C 128.089844 322.953125 133.605469 311.910156 127.539062 288.101562 C 120.234375 259.875 107.003906 254.492188 111.277344 244.828125 C 113.414062 239.859375 120.097656 237.308594 131.8125 235.652344 L 136.773438 235.097656 C 141.320312 234.617188 146.558594 234.269531 152.484375 233.925781 L 157.863281 233.648438 L 162.132812 233.511719 C 162.273438 236.480469 161.71875 239.101562 160.136719 241.035156 C 159.929688 241.378906 147.664062 241.722656 141.253906 241.722656 C 129.746094 241.65625 124.921875 249.800781 126.160156 254.5625 C 127.746094 260.703125 141.320312 258.632812 171.023438 257.941406 C 189.90625 257.527344 214.921875 259.875 205.757812 244.761719 C 201.964844 238.550781 194.9375 240.136719 179.84375 240.550781 C 179.777344 237.859375 179.777344 235.304688 179.84375 232.820312 C 185.21875 232.683594 189.90625 232.546875 193.902344 232.546875 L 193.972656 232.546875 L 199.070312 232.683594 C 216.574219 233.097656 219.675781 235.445312 221.261719 238.066406 C 227.464844 247.9375 211.339844 258.355469 206.582031 290.171875 Z M 206.582031 290.171875 " fill-opacity="1" fill-rule="nonzero"/></g><path fill="#d1a482" d="M 239.800781 107.011719 C 226.066406 123.175781 213.316406 140.082031 201.550781 157.734375 L 200.585938 156.492188 C 184.1875 133.167969 210.375 83.960938 228.980469 82.234375 C 230.976562 82.027344 236.007812 82.167969 241.796875 79.335938 C 245.726562 77.359375 249.058594 74.644531 251.789062 71.195312 C 261.78125 60.082031 280.941406 48.765625 289.277344 53.457031 C 289.785156 53.742188 290.242188 54.085938 290.65625 54.492188 C 248.207031 93.347656 237.9375 113.773438 244.347656 94.105469 C 247.242188 85.066406 256.132812 78.234375 255.925781 77.957031 C 255.71875 77.679688 237.871094 86.929688 239.800781 107.011719 Z M 239.800781 107.011719 " fill-opacity="1" fill-rule="nonzero"/><path fill="#d1a482" d="M 282.527344 134.824219 C 280.390625 139.585938 276.183594 144.347656 268.605469 148.210938 C 266.46875 149.316406 264.816406 150.007812 263.988281 150.351562 C 219.332031 167.121094 211.476562 165.394531 206.652344 162.429688 C 206.113281 162.132812 205.609375 161.785156 205.136719 161.394531 L 204.996094 161.394531 C 208.648438 155.664062 212.578125 149.730469 216.78125 143.519531 C 231.390625 152.285156 246.414062 135.511719 245.3125 134.203125 C 245.175781 134.0625 226.292969 149.867188 220.847656 137.792969 C 258.75 84.167969 294.308594 59.667969 290.863281 54.699219 C 291.355469 55.179688 291.746094 55.730469 292.035156 56.355469 C 293.136719 58.21875 293.6875 60.566406 294.308594 63.050781 C 298.71875 81.613281 284.109375 89.34375 283.628906 112.671875 C 283.421875 123.296875 285.902344 127.578125 282.527344 134.824219 Z M 282.527344 134.824219 " fill-opacity="1" fill-rule="nonzero"/><path fill="#d1a482" d="M 145.113281 196.933594 C 146.902344 199.417969 149.179688 202.871094 151.519531 206.804688 C 139.394531 217.226562 120.164062 219.917969 108.3125 212.257812 C 99.355469 206.390625 95.976562 202.042969 91.222656 173.054688 C 87.84375 152.765625 67.308594 135.789062 74.683594 124.195312 C 74.992188 123.6875 75.335938 123.203125 75.71875 122.746094 L 76.0625 122.332031 C 77.371094 125.921875 94.875 147.109375 113.757812 164.773438 C 106.660156 170.019531 88.535156 156.5625 88.398438 156.769531 C 88.257812 156.976562 99.214844 171.953125 117.476562 168.226562 C 128.433594 178.164062 135.601562 183.753906 145.113281 196.933594 Z M 145.113281 196.933594 " fill-opacity="1" fill-rule="nonzero"/><path fill="#d1a482" d="M 155.65625 202.59375 C 152.875 198.386719 149.773438 194.429688 146.351562 190.722656 C 158.066406 178.371094 144.835938 159.804688 143.25 160.703125 C 143.046875 160.839844 149.730469 172.640625 147.316406 179.40625 C 146.972656 180.441406 145.664062 183.960938 142.632812 185.132812 C 139.597656 186.308594 90.394531 135.445312 88.257812 133.234375 C 81.367188 125.988281 77.644531 122.539062 76.476562 121.917969 L 77.234375 121.226562 C 77.921875 120.617188 78.679688 120.113281 79.507812 119.710938 C 89.84375 114.394531 100.800781 128.335938 125.472656 136.203125 C 140.839844 141.105469 142.425781 137.515625 148.695312 142 C 163.375 152.558594 171.300781 183.753906 155.65625 202.59375 Z M 155.65625 202.59375 " fill-opacity="1" fill-rule="nonzero"/><path fill="#71725d" d="M 76.476562 121.917969 L 76.0625 122.332031 C 75.878906 121.871094 76.015625 121.734375 76.476562 121.917969 Z M 76.476562 121.917969 " fill-opacity="1" fill-rule="nonzero"/><path fill="#71725d" d="M 220.847656 137.722656 C 258.75 84.167969 294.308594 59.667969 290.863281 54.699219 L 290.65625 54.492188 C 248.207031 93.347656 237.9375 113.773438 244.347656 94.105469 C 247.242188 85.066406 256.132812 78.234375 255.925781 77.957031 C 255.71875 77.679688 237.871094 86.929688 239.800781 107.011719 C 226.066406 123.175781 213.316406 140.082031 201.550781 157.734375 C 187.011719 179.820312 174.402344 203.351562 170.058594 223.230469 C 165.71875 243.105469 171.230469 226.128906 155.65625 202.59375 C 152.875 198.386719 149.773438 194.429688 146.351562 190.722656 C 158.066406 178.371094 144.835938 159.804688 143.25 160.703125 C 143.046875 160.839844 149.730469 172.644531 147.316406 179.40625 C 146.972656 180.441406 145.664062 183.960938 142.632812 185.132812 C 139.597656 186.308594 90.394531 135.445312 88.257812 133.234375 C 81.367188 125.988281 77.644531 122.539062 76.476562 121.917969 L 76.0625 122.332031 C 77.371094 125.921875 94.875 147.109375 113.757812 164.773438 C 106.660156 170.019531 88.535156 156.5625 88.398438 156.769531 C 88.257812 156.976562 99.214844 171.953125 117.476562 168.226562 C 128.433594 178.164062 135.601562 183.753906 145.113281 196.933594 C 146.902344 199.417969 149.179688 202.871094 151.519531 206.804688 C 156.621094 215.15625 161.789062 225.644531 162.132812 233.511719 C 162.273438 236.480469 161.71875 239.101562 160.136719 241.035156 C 159.929688 241.378906 147.664062 241.722656 141.253906 241.722656 C 129.746094 241.65625 124.921875 249.800781 126.160156 254.5625 C 127.746094 260.703125 141.324219 258.632812 171.023438 257.941406 C 189.90625 257.527344 214.921875 259.875 205.757812 244.761719 C 201.964844 238.550781 194.9375 240.136719 179.84375 240.550781 C 179.777344 237.859375 179.777344 235.304688 179.84375 232.820312 C 180.535156 206.597656 189.628906 185.824219 205 161.324219 C 208.652344 155.597656 212.578125 149.660156 216.78125 143.449219 C 231.390625 152.214844 246.414062 135.445312 245.3125 134.132812 C 245.175781 133.996094 226.292969 149.800781 220.847656 137.722656 Z M 220.847656 137.722656 " fill-opacity="1" fill-rule="nonzero"/><path fill="#d8b7a0" d="M 131.882812 240 C 130.847656 239.03125 131.054688 237.167969 131.8125 235.652344 L 136.773438 235.097656 C 137.1875 237.515625 134.5 242.828125 131.882812 240 Z M 131.882812 240 " fill-opacity="1" fill-rule="nonzero"/><path fill="#d8b7a0" d="M 152.484375 233.925781 C 152.074219 235.582031 152.554688 237.445312 154.277344 237.859375 C 156 238.273438 157.863281 235.789062 157.863281 233.648438 Z M 152.484375 233.925781 " fill-opacity="1" fill-rule="nonzero"/><path fill="#d8b7a0" d="M 192.59375 236.132812 C 192.316406 235.167969 192.9375 233.71875 193.902344 232.546875 L 193.972656 232.546875 L 199.070312 232.683594 C 199.484375 235.445312 193.695312 240.621094 192.59375 236.132812 Z M 192.59375 236.132812 " fill-opacity="1" fill-rule="nonzero"/><path fill="#d8b7a0" d="M 134.707031 263.945312 C 134.535156 263.679688 134.320312 263.453125 134.066406 263.265625 C 133.808594 263.082031 133.523438 262.949219 133.21875 262.875 C 132.910156 262.796875 132.597656 262.777344 132.285156 262.820312 C 131.96875 262.863281 131.675781 262.960938 131.398438 263.117188 C 129.8125 264.152344 130.710938 264.84375 128.640625 269.8125 C 127.953125 271.539062 130.160156 274.089844 132.640625 272.160156 C 133.257812 271.539062 135.671875 265.671875 134.707031 263.945312 Z M 134.707031 263.945312 " fill-opacity="1" fill-rule="nonzero"/><path fill="#d8b7a0" d="M 146.144531 264.359375 C 143.046875 264.5 144.214844 267.328125 142.839844 270.917969 C 142.082031 272.640625 144.355469 275.125 146.765625 273.195312 C 147.800781 272.160156 150.351562 264.152344 146.144531 264.359375 Z M 146.144531 264.359375 " fill-opacity="1" fill-rule="nonzero"/><path fill="#d8b7a0" d="M 159.101562 272.917969 C 163.511719 273.882812 166.335938 259.117188 160.480469 262.910156 C 159.859375 263.324219 154.898438 271.953125 159.101562 272.917969 Z M 159.101562 272.917969 " fill-opacity="1" fill-rule="nonzero"/><path fill="#d8b7a0" d="M 173.230469 274.78125 C 175.917969 274.710938 175.296875 272.226562 176.398438 269.398438 C 177.5 266.570312 175.367188 265.050781 173.917969 265.535156 C 171.367188 266.363281 169.023438 274.988281 173.230469 274.78125 Z M 173.230469 274.78125 " fill-opacity="1" fill-rule="nonzero"/><path fill="#d8b7a0" d="M 192.523438 263.464844 C 189.285156 257.941406 184.253906 270.503906 188.597656 271.46875 C 192.9375 272.433594 192.9375 264.152344 192.523438 263.464844 Z M 192.523438 263.464844 " fill-opacity="1" fill-rule="nonzero"/><path fill="#d8b7a0" d="M 205.34375 264.222656 C 202.378906 263.53125 202.585938 266.5 200.726562 270.089844 C 198.863281 273.675781 203.414062 275.195312 204.792969 272.503906 C 206.167969 269.8125 208.582031 264.914062 205.34375 264.222656 Z M 205.34375 264.222656 " fill-opacity="1" fill-rule="nonzero"/><path fill="#d8b7a0" d="M 139.460938 283.0625 C 136.636719 285.273438 137.53125 292.449219 141.320312 289.964844 C 145.113281 287.480469 143.25 280.648438 139.460938 283.0625 Z M 139.460938 283.0625 " fill-opacity="1" fill-rule="nonzero"/><path fill="#d8b7a0" d="M 160.617188 281.269531 C 158.273438 276.921875 153.796875 284.652344 155.3125 286.996094 C 157.65625 291.34375 162.132812 283.683594 160.617188 281.269531 Z M 160.617188 281.269531 " fill-opacity="1" fill-rule="nonzero"/><path fill="#d8b7a0" d="M 180.878906 280.714844 C 181.429688 278.09375 177.433594 276.988281 176.46875 279.199219 C 175.503906 281.40625 173.160156 284.996094 175.570312 286.238281 C 179.15625 288.171875 180.878906 280.921875 180.878906 280.714844 Z M 180.878906 280.714844 " fill-opacity="1" fill-rule="nonzero"/><path fill="#d8b7a0" d="M 190.527344 286.996094 C 194.730469 289.207031 198.65625 276.921875 193.007812 278.785156 C 191.421875 279.265625 187.5625 285.410156 190.527344 286.996094 Z M 190.527344 286.996094 " fill-opacity="1" fill-rule="nonzero"/><path fill="#d8b7a0" d="M 199.140625 303.078125 C 201.277344 302.386719 204.445312 295.277344 200.792969 294.382812 C 197.140625 293.484375 198.175781 296.867188 196.453125 299.558594 C 196.21875 299.976562 196.121094 300.425781 196.15625 300.90625 C 196.1875 301.386719 196.351562 301.816406 196.644531 302.199219 C 196.9375 302.582031 197.308594 302.851562 197.761719 303.011719 C 198.214844 303.171875 198.675781 303.191406 199.140625 303.078125 Z M 199.140625 303.078125 " fill-opacity="1" fill-rule="nonzero"/><path fill="#d8b7a0" d="M 184.667969 295.832031 C 183.636719 296.933594 184.324219 297.417969 183.636719 298.382812 C 181.359375 300.730469 185.152344 304.113281 187.289062 301.421875 C 190.800781 297.003906 187.148438 293.347656 184.667969 295.832031 Z M 184.667969 295.832031 " fill-opacity="1" fill-rule="nonzero"/><path fill="#d8b7a0" d="M 195.902344 323.160156 C 193.628906 319.640625 188.320312 326.816406 190.183594 328.886719 C 192.523438 332.40625 197.832031 325.230469 195.902344 323.160156 Z M 195.902344 323.160156 " fill-opacity="1" fill-rule="nonzero"/><path fill="#d8b7a0" d="M 155.171875 322.402344 C 152.898438 318.882812 147.59375 326.058594 149.453125 328.128906 C 151.726562 331.648438 157.035156 324.539062 155.171875 322.402344 Z M 155.171875 322.402344 " fill-opacity="1" fill-rule="nonzero"/><path fill="#d8b7a0" d="M 173.4375 322.402344 C 171.160156 318.882812 165.855469 326.058594 167.785156 328.128906 C 170.058594 331.648438 175.367188 324.472656 173.4375 322.402344 Z M 173.4375 322.402344 " fill-opacity="1" fill-rule="nonzero"/><path fill="#d8b7a0" d="M 154.761719 294.863281 C 150.695312 292.726562 146.007812 304.800781 152.074219 302.800781 C 153.589844 302.316406 157.929688 296.519531 154.761719 294.863281 Z M 154.761719 294.863281 " fill-opacity="1" fill-rule="nonzero"/><path fill="#d8b7a0" d="M 134.5 301.972656 C 133.878906 304.800781 139.394531 307.148438 140.21875 299.488281 C 140.359375 296.105469 134.777344 296.105469 134.5 301.972656 Z M 134.5 301.972656 " fill-opacity="1" fill-rule="nonzero"/><path fill="#d8b7a0" d="M 143.804688 312.1875 C 143.320312 314.738281 142.082031 315.292969 142.5625 316.742188 C 142.695312 317.195312 142.941406 317.574219 143.296875 317.882812 C 143.65625 318.191406 144.066406 318.378906 144.535156 318.449219 C 145 318.515625 145.449219 318.449219 145.878906 318.253906 C 146.308594 318.058594 146.648438 317.761719 146.902344 317.363281 C 151.519531 309.703125 144.421875 309.148438 143.804688 312.1875 Z M 143.804688 312.1875 " fill-opacity="1" fill-rule="nonzero"/><path fill="#d8b7a0" d="M 167.234375 309.976562 C 167.210938 309.785156 167.160156 309.597656 167.089844 309.417969 C 167.019531 309.238281 166.929688 309.066406 166.816406 308.910156 C 166.703125 308.75 166.570312 308.609375 166.425781 308.484375 C 166.277344 308.359375 166.113281 308.253906 165.941406 308.167969 C 165.765625 308.082031 165.585938 308.019531 165.394531 307.980469 C 165.203125 307.9375 165.011719 307.921875 164.820312 307.929688 C 164.625 307.9375 164.433594 307.96875 164.25 308.023438 C 164.0625 308.078125 163.886719 308.152344 163.71875 308.253906 C 162.339844 309.289062 161.375 312.738281 161.582031 313.429688 C 161.601562 313.625 161.644531 313.816406 161.710938 314 C 161.78125 314.183594 161.867188 314.359375 161.980469 314.519531 C 162.089844 314.683594 162.21875 314.828125 162.367188 314.960938 C 162.515625 315.089844 162.675781 315.199219 162.851562 315.289062 C 163.023438 315.378906 163.207031 315.445312 163.398438 315.488281 C 163.589844 315.53125 163.785156 315.550781 163.980469 315.542969 C 164.179688 315.539062 164.371094 315.507812 164.558594 315.453125 C 164.75 315.398438 164.929688 315.324219 165.097656 315.222656 C 166.476562 314.1875 167.441406 310.667969 167.234375 309.976562 Z M 167.234375 309.976562 " fill-opacity="1" fill-rule="nonzero"/><path fill="#d8b7a0" d="M 167.027344 299.351562 C 169.230469 303.558594 173.640625 296.519531 172.125 294.105469 C 169.851562 289.894531 165.441406 296.933594 167.027344 299.351562 Z M 167.027344 299.351562 " fill-opacity="1" fill-rule="nonzero"/><path fill="#d8b7a0" d="M 185.703125 309.910156 C 183.636719 306.664062 179.777344 311.980469 180.464844 314.1875 C 181.636719 319.226562 188.253906 312.667969 185.703125 309.910156 Z M 185.703125 309.910156 " fill-opacity="1" fill-rule="nonzero"/><path fill="#d8b7a0" d="M 203.828125 308.875 C 201.414062 305.148438 197.074219 312.117188 198.453125 314.324219 C 200.933594 318.882812 205.480469 310.738281 203.828125 308.875 Z M 203.828125 308.875 " fill-opacity="1" fill-rule="nonzero"/><path fill="#d8b7a0" d="M 122.992188 250.421875 C 120.371094 245.519531 114.308594 255.734375 120.097656 256.492188 C 122.507812 256.492188 123.886719 251.800781 122.992188 250.421875 Z M 122.992188 250.421875 " fill-opacity="1" fill-rule="nonzero"/><path fill="#d8b7a0" d="M 218.4375 242.070312 C 217.953125 239.929688 214.921875 239.792969 214.09375 241.515625 C 213.269531 243.242188 211.40625 245.933594 212.714844 247.382812 C 215.058594 250.972656 219.125 244.140625 218.4375 242.070312 Z M 218.4375 242.070312 " fill-opacity="1" fill-rule="nonzero"/></svg>