<svg xmlns="http://www.w3.org/2000/svg" xmlns:xlink="http://www.w3.org/1999/xlink" width="500" zoomAndPan="magnify" viewBox="0 0 375 374.999991" height="500" preserveAspectRatio="xMidYMid meet" version="1.0"><defs><clipPath id="2e7183c854"><path d="M 188 98 L 314.851562 98 L 314.851562 222 L 188 222 Z M 188 98 " clip-rule="nonzero"/></clipPath></defs><path fill="#cc9473" d="M 186.992188 185.753906 C 188.375 185.898438 189.613281 186.402344 190.703125 187.269531 C 190.089844 185.429688 189.652344 183.546875 189.398438 181.625 L 184.453125 181.625 L 184.453125 182.863281 C 184.441406 183.230469 184.5 183.585938 184.625 183.929688 C 184.746094 184.277344 184.929688 184.585938 185.171875 184.859375 C 185.414062 185.136719 185.699219 185.355469 186.027344 185.523438 C 186.351562 185.6875 186.699219 185.789062 187.0625 185.824219 Z M 186.992188 185.753906 " fill-opacity="1" fill-rule="nonzero"/><path fill="#cc9473" d="M 160.894531 334.945312 C 173.121094 337.492188 197.773438 335.632812 209.792969 330.265625 C 230.808594 320.835938 238.636719 296.613281 234.449219 276.039062 C 230.261719 255.464844 216.9375 237.503906 204.78125 219.613281 C 198.324219 210.046875 197.089844 202.753906 197.5 197.316406 C 195.851562 197.246094 194.066406 195.113281 192.554688 192.015625 C 191.527344 194.839844 186.582031 197.453125 174.148438 196.972656 C 165.359375 196.558594 162.820312 197.179688 161.171875 194.5625 C 158.902344 190.847656 159.796875 188.507812 162.40625 187.0625 C 163.292969 186.589844 164.054688 185.964844 164.699219 185.191406 C 165.339844 184.414062 165.8125 183.550781 166.113281 182.589844 C 166.226562 182.34375 166.316406 182.09375 166.390625 181.832031 C 157.324219 182.039062 154.441406 182.382812 152.996094 184.585938 C 150.25 188.644531 163.640625 206.605469 150.664062 226.5625 C 143.175781 238.191406 134.730469 240.945312 127.65625 258.628906 C 112.132812 297.441406 131.980469 328.820312 160.894531 334.945312 Z M 160.894531 334.945312 " fill-opacity="1" fill-rule="nonzero"/><path fill="#71725d" d="M 75.046875 89.277344 C 76.285156 88.589844 83.425781 84.527344 91.53125 86.25 C 95.859375 87.144531 100.597656 89.828125 102.175781 87.96875 C 102.503906 87.570312 102.664062 87.109375 102.65625 86.59375 C 102.589844 83.222656 94.414062 79.644531 88.304688 79.023438 C 74.84375 77.578125 67.152344 89.691406 63.648438 87.144531 C 60.144531 84.597656 62.617188 64.023438 76.695312 57.484375 C 86.105469 53.148438 98.398438 56.039062 106.984375 64.917969 C 104.761719 60.1875 101.558594 56.265625 97.367188 53.148438 C 88.371094 46.75 79.304688 48.46875 78.621094 45.097656 C 77.933594 41.726562 86.585938 36.015625 95.101562 34.019531 C 103.617188 32.023438 118.109375 32.4375 124.425781 41.105469 C 129.234375 47.574219 126.898438 55.214844 127.863281 59.617188 C 112.476562 81.089844 94.894531 117.148438 89.058594 158.917969 C 87.203125 155.957031 85.625 151.140625 82.742188 148.042969 C 81.296875 146.460938 79.445312 145.222656 78.34375 143.433594 C 74.5 137.242188 82.257812 121.207031 85.488281 116.734375 C 88.714844 112.261719 92.90625 109.921875 92.90625 109.921875 C 97.023438 106.410156 98.671875 105.242188 98.398438 104.554688 C 98.125 103.867188 92.421875 104.003906 87.480469 106.066406 C 76.351562 110.679688 74.363281 120.382812 69.484375 119.554688 C 65.777344 119.003906 63.511719 112.605469 63.234375 108.339844 C 62.550781 99.53125 69.484375 92.375 75.046875 89.277344 Z M 106.503906 71.386719 C 105.816406 68.496094 100.734375 66.980469 97.09375 68.425781 C 94.894531 69.320312 92.425781 71.589844 92.765625 73.792969 C 93.109375 75.996094 98.535156 79.09375 102.449219 77.371094 C 104.855469 76.339844 107.050781 73.65625 106.503906 71.386719 Z M 129.851562 62.507812 C 134.730469 65.054688 140.703125 55.695312 155.675781 54.25 C 159.179688 53.90625 162.75 53.632812 166.871094 55.144531 C 177.925781 59.207031 181.363281 72.210938 181.703125 73.65625 C 184.726562 85.699219 179.371094 98.359375 176.347656 98.222656 C 173.324219 98.085938 174.835938 88.589844 167.007812 80.195312 C 162.0625 74.894531 154.851562 71.316406 153.273438 72.832031 C 151.691406 74.34375 154.988281 79.300781 155.539062 80.125 C 160.003906 87.695312 164.949219 87.351562 168.519531 92.234375 C 174.492188 100.289062 171.265625 114.601562 164.191406 122.789062 C 162.132812 125.199219 158.765625 129.191406 156.292969 128.292969 C 150.730469 126.367188 157.875 103.523438 146.679688 92.855469 C 145.511719 91.753906 143.246094 89.894531 142.488281 90.445312 C 141.734375 90.996094 145.855469 97.328125 148.191406 106.066406 C 149.015625 109.234375 151.96875 121.894531 145.441406 133.113281 C 143.453125 136.550781 142.007812 139.097656 140.085938 139.03125 C 132.394531 138.753906 129.304688 98.015625 126.28125 98.222656 C 125.046875 98.359375 123.945312 106 124.496094 113.84375 C 125.59375 130.359375 133.011719 137.792969 128.824219 145.292969 C 127.585938 147.5625 126.007812 149.078125 122.230469 150.867188 C 114.539062 154.582031 105.472656 150.179688 95.238281 159.949219 C 94.65625 160.527344 93.992188 160.984375 93.246094 161.324219 C 96.40625 141.4375 106.847656 90.101562 128.890625 61.75 Z M 133.628906 78.75 C 135.554688 81.363281 139.332031 84.390625 141.664062 83.222656 C 142.96875 82.535156 143.453125 80.605469 143.453125 79.230469 C 143.175781 73.585938 133.628906 68.976562 131.5 70.765625 C 129.371094 72.554688 131.84375 76.269531 133.628906 78.75 Z M 117.628906 114.808594 C 111.378906 113.15625 109.9375 125.128906 115.429688 127.539062 C 122.984375 130.773438 122.640625 116.253906 117.628906 114.808594 Z M 117.628906 114.808594 " fill-opacity="1" fill-rule="nonzero"/><g clip-path="url(#2e7183c854)"><path fill="#71725d" d="M 200.246094 151.347656 C 202.351562 150.21875 204.59375 149.601562 206.976562 149.488281 L 207.046875 149.488281 C 212.058594 149.558594 216.9375 151.140625 221.949219 152.863281 C 247.359375 161.945312 266.863281 175.019531 270.78125 177.566406 C 280.601562 184.101562 294.199219 192.910156 311.230469 203.234375 C 308.003906 204.542969 303.265625 205.503906 300.035156 207.777344 C 298.25 209.015625 296.808594 210.664062 294.816406 211.492188 C 288.222656 214.449219 273.457031 204.472656 269.476562 200.6875 C 265.492188 196.902344 263.773438 192.292969 263.773438 192.292969 C 260.890625 187.75 259.996094 185.894531 259.242188 186.097656 C 258.484375 186.304688 257.867188 191.949219 259.242188 197.179688 C 262.195312 208.808594 271.464844 212.25 270.023438 216.929688 C 268.925781 220.507812 262.261719 221.8125 258.003906 221.539062 C 249.214844 220.988281 243.171875 213.074219 240.835938 207.085938 C 240.355469 205.847656 237.332031 198.140625 240.21875 190.367188 C 241.730469 186.167969 244.957031 181.832031 243.378906 179.972656 C 243.035156 179.632812 242.621094 179.425781 242.140625 179.355469 C 238.777344 178.941406 234.105469 186.511719 232.59375 192.566406 C 229.296875 205.640625 240.148438 215 237.128906 218.097656 C 234.105469 221.195312 214.121094 215.894531 209.726562 201.03125 C 206.773438 191.054688 211.304688 179.285156 221.332031 171.992188 C 216.339844 173.53125 212.011719 176.171875 208.351562 179.90625 C 200.726562 187.886719 201.140625 197.109375 197.707031 197.316406 L 197.5 197.316406 C 195.851562 197.246094 194.066406 195.113281 192.554688 192.015625 C 191.800781 190.488281 191.183594 188.90625 190.703125 187.269531 C 190.089844 185.429688 189.652344 183.546875 189.398438 181.625 C 189.257812 180.871094 189.191406 180.113281 189.121094 179.425781 C 188.296875 170.410156 190.769531 156.371094 200.246094 151.347656 Z M 229.917969 176.671875 C 231.703125 177.222656 234.585938 173.710938 235.890625 170.960938 C 237.195312 168.207031 238.019531 163.183594 235.890625 161.738281 C 233.761719 160.292969 232.730469 161.394531 231.496094 162.152344 C 226.757812 165.042969 227.375 175.707031 229.917969 176.671875 Z M 222.222656 148.9375 L 222.15625 148.9375 C 225.316406 144.464844 216.9375 137.242188 217.691406 122.171875 C 217.828125 118.660156 218.035156 115.082031 220.09375 111.230469 C 225.726562 100.769531 238.980469 99.253906 240.492188 99.117188 C 252.855469 97.808594 264.597656 104.96875 264.050781 107.925781 C 263.5 110.886719 254.367188 107.996094 244.820312 114.667969 C 238.914062 118.796875 234.449219 125.472656 235.683594 127.195312 C 236.921875 128.914062 242.277344 126.4375 243.171875 126.023438 C 251.273438 122.582031 251.6875 117.699219 257.042969 114.808594 C 265.765625 110.058594 279.5 115.21875 286.644531 123.410156 C 288.636719 125.816406 292.070312 129.738281 290.902344 132.078125 C 288.15625 137.308594 266.589844 126.988281 254.503906 136.550781 C 253.265625 137.585938 251.136719 139.582031 251.550781 140.40625 C 251.960938 141.230469 258.828125 137.996094 267.757812 136.964844 C 271.054688 136.550781 283.964844 135.453125 294.128906 143.433594 C 297.21875 145.910156 299.554688 147.699219 299.210938 149.695312 C 297.839844 157.195312 257.113281 154.511719 256.976562 157.542969 C 256.90625 158.847656 264.324219 160.980469 272.152344 161.53125 C 288.636719 162.769531 297.015625 156.507812 303.8125 161.671875 C 305.875 163.253906 307.109375 165.042969 308.414062 169.03125 C 310.957031 177.152344 305.324219 185.480469 313.566406 197.039062 C 315.144531 199.3125 314.9375 200.757812 313.703125 201.859375 C 299.898438 193.875 267.757812 172.40625 267.414062 172.128906 C 248.320312 159.398438 233.351562 152.449219 222.222656 148.9375 Z M 284.378906 172.40625 C 288.636719 165.453125 274.214844 163.734375 272.152344 168.484375 C 269.542969 174.46875 281.21875 177.566406 284.378906 172.40625 Z M 284.378906 172.40625 " fill-opacity="1" fill-rule="nonzero"/></g><path fill="#443e3c" d="M 127.863281 59.617188 C 135.898438 48.402344 143.382812 41.175781 148.191406 39.25 C 159.796875 34.570312 176.621094 37.871094 188.640625 51.222656 C 189.507812 52.214844 190.285156 53.269531 190.976562 54.386719 C 191.9375 55.695312 200.179688 67.667969 201.550781 83.015625 C 203.339844 102.078125 193.859375 118.59375 188.230469 150.867188 C 192.351562 148.183594 197.019531 146.394531 199.5625 145.910156 C 202.101562 145.429688 210.617188 145.222656 222.15625 148.9375 L 222.222656 148.9375 C 233.351562 152.449219 248.320312 159.398438 267.414062 172.128906 C 267.757812 172.40625 299.898438 193.875 313.703125 201.859375 C 312.953125 202.445312 312.128906 202.90625 311.230469 203.234375 C 294.199219 192.910156 280.601562 184.101562 270.78125 177.566406 C 266.863281 175.019531 247.359375 161.945312 221.949219 152.863281 C 216.9375 151.140625 212.058594 149.558594 207.046875 149.488281 L 206.976562 149.488281 C 204.214844 149.441406 201.535156 149.902344 198.941406 150.867188 C 193.859375 152.65625 189.878906 156.164062 186.855469 159.125 C 185.550781 167.863281 184.796875 175.296875 184.453125 181.558594 L 184.453125 182.796875 C 184.441406 183.164062 184.5 183.519531 184.625 183.863281 C 184.746094 184.207031 184.929688 184.515625 185.171875 184.792969 C 185.414062 185.066406 185.699219 185.285156 186.027344 185.453125 C 186.351562 185.621094 186.699219 185.71875 187.0625 185.753906 C 188.445312 185.898438 189.679688 186.402344 190.769531 187.269531 C 192.351562 188.4375 193.175781 190.296875 192.625 192.015625 C 191.59375 194.839844 186.648438 197.453125 174.21875 196.972656 C 165.429688 196.558594 162.886719 197.179688 161.238281 194.5625 C 158.972656 190.847656 159.867188 188.507812 162.476562 187.0625 C 163.359375 186.589844 164.125 185.964844 164.765625 185.191406 C 165.410156 184.414062 165.878906 183.550781 166.183594 182.589844 C 166.292969 182.34375 166.386719 182.09375 166.457031 181.832031 C 167.695312 178.390625 170.371094 174.746094 172.296875 171.921875 C 177.101562 164.699219 180.742188 152.105469 188.089844 126.988281 C 195.441406 101.871094 202.515625 76.960938 190.425781 58.585938 C 189.191406 56.726562 180.332031 43.652344 165.703125 41.933594 C 153.820312 40.554688 144.34375 47.367188 141.597656 49.296875 C 136.78125 52.835938 132.570312 56.988281 128.960938 61.75 C 106.914062 90.101562 96.476562 141.4375 93.316406 161.324219 C 91.53125 161.945312 90.292969 160.84375 89.128906 158.917969 C 94.894531 117.148438 112.476562 81.089844 127.863281 59.617188 Z M 127.863281 59.617188 " fill-opacity="1" fill-rule="nonzero"/><path fill="#443e3c" d="M 167.625 226.082031 C 156.773438 219.0625 166.734375 209.015625 172.089844 217.476562 C 177.925781 223.742188 171.816406 228.488281 167.625 226.082031 Z M 167.625 226.082031 " fill-opacity="1" fill-rule="nonzero"/><path fill="#443e3c" d="M 210.410156 263.652344 C 207.253906 262.828125 200.523438 254.777344 208.078125 251.542969 C 214.601562 249.820312 221.332031 265.167969 210.410156 263.652344 Z M 210.410156 263.652344 " fill-opacity="1" fill-rule="nonzero"/><path fill="#443e3c" d="M 160.414062 261.863281 C 164.125 256.082031 171.882812 264.273438 170.511719 268.675781 C 168.242188 277.964844 155.746094 266.957031 160.414062 261.863281 Z M 160.414062 261.863281 " fill-opacity="1" fill-rule="nonzero"/><path fill="#443e3c" d="M 202.652344 298.542969 C 208.28125 294.136719 213.984375 302.257812 212.199219 305.628906 C 209.792969 313.128906 196.8125 303.976562 202.652344 298.542969 Z M 202.652344 298.542969 " fill-opacity="1" fill-rule="nonzero"/><path fill="#443e3c" d="M 136.308594 303.632812 C 138.78125 293.175781 155.125 308.796875 144.757812 313.199219 C 140.222656 314.4375 135.277344 306.9375 136.308594 303.632812 Z M 136.308594 303.632812 " fill-opacity="1" fill-rule="nonzero"/></svg>