<svg xmlns="http://www.w3.org/2000/svg" xmlns:xlink="http://www.w3.org/1999/xlink" width="500" zoomAndPan="magnify" viewBox="0 0 375 374.999991" height="500" preserveAspectRatio="xMidYMid meet" version="1.0"><defs><clipPath id="91806cfa8d"><path d="M 77.511719 179 L 182 179 L 182 243 L 77.511719 243 Z M 77.511719 179 " clip-rule="nonzero"/></clipPath><clipPath id="d29ef4ef25"><path d="M 208 187 L 283.011719 187 L 283.011719 214 L 208 214 Z M 208 187 " clip-rule="nonzero"/></clipPath><clipPath id="f55e297586"><path d="M 209 146 L 283.011719 146 L 283.011719 211 L 209 211 Z M 209 146 " clip-rule="nonzero"/></clipPath><clipPath id="99e3e64b77"><path d="M 102 326 L 283.011719 326 L 283.011719 333.453125 L 102 333.453125 Z M 102 326 " clip-rule="nonzero"/></clipPath><clipPath id="161dfb2ae1"><path d="M 102 326 L 174 326 L 174 333.453125 L 102 333.453125 Z M 102 326 " clip-rule="nonzero"/></clipPath></defs><g clip-path="url(#91806cfa8d)"><path fill="#b4b97a" d="M 77.5 197.988281 C 105.71875 183.941406 100.097656 179.835938 127.933594 179.835938 C 155.765625 179.835938 181.640625 226.988281 181.640625 240.011719 C 181.640625 253.035156 166.339844 217.535156 138.507812 217.535156 C 110.675781 217.535156 95.453125 217.480469 77.5 197.988281 " fill-opacity="1" fill-rule="nonzero"/></g><path fill="#dfdac4" d="M 102.554688 195.261719 C 125.414062 189.761719 128.320312 194.746094 150.832031 200.246094 L 150.832031 203.125 C 129.828125 191.820312 104.125 198.53125 82.773438 197.988281 L 102.554688 195.261719 " fill-opacity="1" fill-rule="nonzero"/><path fill="#708c73" d="M 154.695312 149.667969 C 156.820312 138.191406 140.792969 106.269531 140.34375 97.167969 C 139.695312 84.089844 175.429688 108.777344 189.753906 122.152344 C 204.078125 135.53125 213.464844 171.460938 198.003906 166.355469 C 170.226562 157.183594 151.644531 166.15625 154.695312 149.667969 " fill-opacity="1" fill-rule="nonzero"/><path fill="#627964" d="M 169.328125 160.992188 C 161.316406 164.667969 153.550781 155.855469 154.695312 149.667969 C 156.820312 138.191406 140.792969 106.269531 140.34375 97.167969 C 139.695312 84.089844 187.125 108.167969 189.753906 122.152344 C 191.40625 130.9375 167.976562 145.972656 169.328125 160.992188 " fill-opacity="1" fill-rule="nonzero"/><path fill="#c6c6c5" d="M 133.878906 182.296875 C 116.53125 175.207031 112.9375 152.503906 117.5625 137.238281 C 128.316406 136.773438 158.78125 137.808594 167.84375 156.832031 C 176.910156 175.855469 181.808594 203.238281 169.328125 209.1875 C 165.207031 197.289062 152.484375 189.902344 133.878906 182.296875 " fill-opacity="1" fill-rule="nonzero"/><path fill="#dfdac4" d="M 119.277344 140.660156 L 120 139.988281 L 165.566406 188.832031 L 164.84375 189.503906 L 119.277344 140.660156 " fill-opacity="1" fill-rule="nonzero"/><path fill="#e1adb1" d="M 168.859375 224.964844 L 206.726562 224.964844 C 232.753906 224.964844 253.890625 246.097656 253.890625 272.132812 L 253.890625 279.1875 C 253.890625 305.222656 232.753906 326.355469 206.726562 326.355469 L 168.859375 326.355469 C 142.832031 326.355469 121.699219 305.222656 121.699219 279.1875 L 121.699219 272.132812 C 121.699219 246.097656 142.832031 224.964844 168.859375 224.964844 " fill-opacity="1" fill-rule="nonzero"/><path fill="#d5a5a9" d="M 168.847656 226.050781 L 171.257812 226.105469 C 171.339844 226.109375 171.351562 226.148438 171.28125 226.195312 C 113.070312 264.058594 147.59375 312.875 176.796875 326.359375 L 168.863281 326.359375 C 142.832031 326.359375 121.703125 305.226562 121.703125 279.191406 L 121.703125 272.136719 C 121.703125 246.101562 142.828125 225.453125 168.847656 226.050781 " fill-opacity="1" fill-rule="nonzero"/><path fill="#917174" d="M 188.042969 223.875 C 212.941406 223.875 233.125 228.132812 233.125 233.378906 C 233.125 238.628906 212.941406 242.882812 188.042969 242.882812 C 163.148438 242.882812 142.964844 238.628906 142.964844 233.378906 C 142.964844 228.132812 163.148438 223.875 188.042969 223.875 " fill-opacity="1" fill-rule="nonzero"/><path fill="#8a6c6f" d="M 142.964844 233.378906 C 143.503906 227.148438 153.484375 226.351562 169.503906 224.964844 C 167.914062 224.246094 152.671875 238.574219 155.65625 240.117188 C 151.894531 240.085938 142.511719 238.621094 142.964844 233.378906 " fill-opacity="1" fill-rule="nonzero"/><path fill="#917174" d="M 186.851562 222.539062 C 190.644531 221.902344 198.714844 219.222656 204.242188 219.105469 C 216.941406 228.917969 223.660156 232.75 218.726562 235.851562 L 185.074219 242.382812 L 169.503906 227.144531 C 172.683594 222.761719 177.394531 224.117188 186.851562 222.539062 " fill-opacity="1" fill-rule="nonzero"/><path fill="#c2c882" d="M 182.355469 145.070312 L 187.914062 145.660156 L 185.640625 166.96875 L 180.082031 166.375 L 182.355469 145.070312 " fill-opacity="1" fill-rule="nonzero"/><path fill="#627964" d="M 119.609375 205.625 C 136.527344 197.203125 133.160156 194.742188 149.847656 194.742188 C 166.542969 194.742188 182.058594 223.015625 182.058594 230.828125 C 182.058594 238.636719 172.882812 217.34375 156.191406 217.34375 C 139.5 217.34375 130.375 217.316406 119.609375 205.625 " fill-opacity="1" fill-rule="nonzero"/><path fill="#c2c882" d="M 196.519531 157.65625 C 205.242188 131.503906 249.492188 129.214844 257.972656 133.28125 C 243.066406 147.90625 232.960938 153.890625 229.863281 170.304688 C 226.410156 188.5625 201.199219 192.398438 192.921875 188.953125 C 184.644531 185.507812 190.226562 176.535156 196.519531 157.65625 " fill-opacity="1" fill-rule="nonzero"/><g clip-path="url(#d29ef4ef25)"><path fill="#708c73" d="M 208.253906 208.746094 C 207.695312 205.160156 222.746094 193.386719 236.222656 188.710938 C 255.464844 182.035156 282.324219 198.398438 283.019531 205.625 C 269.917969 204.476562 261.242188 209.191406 246.855469 212.90625 C 228.828125 214.28125 208.816406 212.328125 208.253906 208.746094 " fill-opacity="1" fill-rule="nonzero"/></g><g clip-path="url(#f55e297586)"><path fill="#dfdac4" d="M 283.019531 153.214844 C 257.667969 148.1875 261.230469 143.730469 239.207031 149.730469 C 217.1875 155.734375 206.875 198.621094 209.683594 208.925781 C 212.488281 219.226562 216.945312 187.839844 238.964844 181.839844 C 260.988281 175.835938 273.019531 172.511719 283.019531 153.214844 " fill-opacity="1" fill-rule="nonzero"/></g><path fill="#deded6" d="M 215.785156 181.890625 C 232.695312 171.359375 241.019531 163.195312 275.265625 154.046875 L 275.265625 157.226562 C 249.300781 162.332031 229.679688 175.492188 216.402344 186.265625 L 215.785156 181.890625 " fill-opacity="1" fill-rule="nonzero"/><path fill="#708c73" d="M 164.902344 166.867188 C 165.921875 159.984375 175.972656 156.125 196.535156 175.027344 C 212.882812 166.859375 223.519531 168.140625 222.503906 175.027344 C 221.484375 181.914062 202.054688 205.222656 186.851562 202.972656 C 171.648438 200.722656 163.886719 173.753906 164.902344 166.867188 " fill-opacity="1" fill-rule="nonzero"/><path fill="#c2c882" d="M 161.640625 173.714844 C 165.503906 151.984375 170.289062 188.984375 182.25 195.261719 C 193.082031 198.175781 226.023438 158.757812 223.566406 175.863281 C 223.496094 200.671875 202.984375 235.160156 185.078125 229.550781 C 170.625 225.019531 157.773438 195.445312 161.640625 173.714844 " fill-opacity="1" fill-rule="nonzero"/><path fill="#dfdac4" d="M 216.132812 221.53125 C 222.539062 211.851562 221.253906 207.449219 238.234375 208.554688 C 257.101562 209.785156 259.660156 218.1875 258.742188 231.664062 C 252.480469 230.441406 230.457031 244.480469 221.40625 235.683594 C 196.808594 211.769531 213.78125 225.082031 216.132812 221.53125 " fill-opacity="1" fill-rule="nonzero"/><path fill="#708c73" d="M 188.839844 226.109375 C 186.914062 244.886719 181.578125 237.082031 181.640625 229.570312 C 181.71875 219.773438 198.160156 210.980469 218.726562 210.980469 C 239.292969 210.980469 236.617188 229.078125 258.742188 231.664062 C 252.480469 230.441406 230.457031 244.480469 221.40625 235.683594 C 207.160156 221.835938 195.734375 223.214844 188.839844 226.109375 " fill-opacity="1" fill-rule="nonzero"/><path fill="#c2c882" d="M 155.65625 284.597656 L 144.886719 269.621094 L 166.429688 269.621094 Z M 155.65625 284.597656 " fill-opacity="1" fill-rule="nonzero"/><path fill="#c2c882" d="M 188.367188 287.394531 L 177.597656 272.417969 L 199.140625 272.417969 Z M 188.367188 287.394531 " fill-opacity="1" fill-rule="nonzero"/><path fill="#c2c882" d="M 220.566406 284.773438 L 209.792969 269.796875 L 231.335938 269.796875 Z M 220.566406 284.773438 " fill-opacity="1" fill-rule="nonzero"/><path fill="#dfdac4" d="M 205.011719 275.433594 L 194.238281 290.414062 L 215.785156 290.414062 Z M 205.011719 275.433594 " fill-opacity="1" fill-rule="nonzero"/><path fill="#dfdac4" d="M 235.351562 272.023438 L 224.578125 287.003906 L 246.125 287.003906 Z M 235.351562 272.023438 " fill-opacity="1" fill-rule="nonzero"/><path fill="#dfdac4" d="M 171.410156 274.738281 L 160.636719 289.710938 L 182.179688 289.710938 Z M 171.410156 274.738281 " fill-opacity="1" fill-rule="nonzero"/><path fill="#dfdac4" d="M 140.34375 272.023438 L 129.570312 287.003906 L 151.117188 287.003906 Z M 140.34375 272.023438 " fill-opacity="1" fill-rule="nonzero"/><g clip-path="url(#99e3e64b77)"><path fill="#917174" d="M 102.554688 326.359375 L 283.019531 326.359375 L 283.019531 333.140625 L 102.554688 333.140625 L 102.554688 326.359375 " fill-opacity="1" fill-rule="nonzero"/></g><g clip-path="url(#161dfb2ae1)"><path fill="#8a6c6f" d="M 102.554688 326.359375 L 173.152344 326.359375 L 173.152344 333.140625 L 102.554688 333.140625 L 102.554688 326.359375 " fill-opacity="1" fill-rule="nonzero"/></g><path fill="#c2c882" d="M 161.875 106.871094 C 164.644531 80.785156 206.742188 66.628906 222.949219 59.191406 C 229.519531 69.445312 223.984375 95.054688 220.195312 113.058594 C 216.199219 132.03125 204.546875 146.035156 185.789062 154.046875 C 168.152344 152.175781 159.105469 132.957031 161.875 106.871094 " fill-opacity="1" fill-rule="nonzero"/><path fill="#dfdac4" d="M 218.726562 69.222656 L 211.015625 87.613281 C 202.660156 100.703125 194.828125 116.082031 189.570312 145.628906 L 185.074219 145.039062 C 186.082031 127.824219 203.242188 92.660156 218.726562 69.222656 " fill-opacity="1" fill-rule="nonzero"/></svg>