<svg xmlns="http://www.w3.org/2000/svg" xmlns:xlink="http://www.w3.org/1999/xlink" width="500" zoomAndPan="magnify" viewBox="0 0 375 374.999991" height="500" preserveAspectRatio="xMidYMid meet" version="1.0"><defs><clipPath id="521ba9aec9"><path d="M 86.789062 147 L 278 147 L 278 329 L 86.789062 329 Z M 86.789062 147 " clip-rule="nonzero"/></clipPath><clipPath id="e2d99b8c00"><path d="M 137 22.378906 L 228 22.378906 L 228 178 L 137 178 Z M 137 22.378906 " clip-rule="nonzero"/></clipPath></defs><g clip-path="url(#521ba9aec9)"><path fill="#d68c45" d="M 277.949219 169.359375 C 277.671875 176.175781 277.390625 182.320312 276.703125 188.527344 C 276.035156 194.566406 275.109375 200.785156 273.875 207.53125 C 273.226562 211.027344 272.144531 214.011719 270.65625 216.40625 C 269.027344 219.027344 266.222656 221.121094 262.9375 222.171875 C 262.777344 223.636719 262.621094 225.105469 262.46875 226.578125 C 262.09375 230.132812 261.707031 233.808594 261.261719 237.402344 C 260.988281 239.613281 260.757812 241.867188 260.53125 244.046875 C 260.238281 246.917969 259.929688 249.886719 259.527344 252.796875 C 259.144531 255.550781 258.597656 258.320312 258.066406 261 C 257.609375 263.304688 257.136719 265.691406 256.773438 268.050781 C 255.863281 273.96875 255.082031 278.824219 254.320312 283.339844 C 253.921875 285.691406 253.621094 288.105469 253.328125 290.4375 C 252.988281 293.148438 252.636719 295.953125 252.136719 298.683594 C 251.355469 302.90625 250.371094 307.308594 247.703125 310.675781 C 246.105469 312.667969 243.808594 313.878906 241.585938 315.046875 C 241.246094 315.226562 240.90625 315.40625 240.570312 315.585938 L 239.703125 316.054688 C 234.890625 318.644531 230.347656 321.09375 225.550781 322.734375 C 219.949219 324.652344 214.078125 325.734375 209.359375 326.601562 C 203.339844 327.707031 197.949219 328.417969 192.878906 328.773438 C 191.023438 328.894531 187.523438 328.949219 183.839844 328.949219 C 178.988281 328.949219 173.8125 328.855469 171.648438 328.703125 C 165.726562 328.289062 160.328125 327.625 155.144531 326.671875 C 149.917969 325.710938 144.363281 324.617188 138.957031 322.765625 C 133.761719 320.988281 128.746094 318.289062 123.890625 315.679688 C 121.785156 314.539062 119.109375 312.910156 117.125 310.425781 C 114.5 307.105469 113.570312 302.941406 112.777344 298.609375 C 112.363281 296.363281 111.878906 294.082031 111.414062 291.878906 C 110.828125 289.113281 110.21875 286.253906 109.742188 283.417969 C 109.164062 280.015625 108.648438 276.546875 108.148438 273.191406 C 107.894531 271.496094 107.640625 269.800781 107.382812 268.105469 C 106.953125 265.320312 106.660156 262.476562 106.375 259.722656 C 106.136719 257.421875 105.894531 255.042969 105.570312 252.71875 C 105.261719 250.503906 104.902344 248.261719 104.554688 246.09375 C 104.101562 243.246094 103.628906 240.308594 103.269531 237.398438 C 102.992188 235.140625 102.652344 232.875 102.328125 230.683594 C 101.925781 227.988281 101.511719 225.199219 101.199219 222.398438 C 97.925781 221.347656 95.125 219.253906 93.492188 216.628906 C 92.140625 214.449219 91.710938 211.808594 91.296875 209.257812 C 91.199219 208.65625 91.101562 208.058594 90.996094 207.46875 C 89.808594 201 88.863281 194.617188 88.183594 188.488281 C 87.414062 181.550781 87.074219 174.613281 86.863281 169.347656 C 86.761719 166.796875 87.664062 164.609375 89.335938 163.347656 C 93.359375 160.3125 98.398438 157.71875 103.910156 155.847656 C 108.542969 154.273438 113.738281 152.96875 119.796875 151.851562 C 123.742188 151.128906 127.554688 150.683594 130.914062 150.296875 C 132.726562 150.085938 134.4375 149.886719 135.972656 149.667969 C 140.253906 149.050781 144.773438 148.730469 149.558594 148.390625 L 151.367188 148.257812 C 155.890625 147.933594 161.265625 147.578125 166.796875 147.425781 C 171.789062 147.289062 176.984375 147.234375 182.25 147.265625 C 187.148438 147.292969 192.347656 147.402344 197.699219 147.585938 C 198.886719 147.625 200.054688 147.664062 201.207031 147.703125 C 205.476562 147.84375 209.507812 147.972656 213.140625 148.210938 C 219.332031 148.621094 224.945312 149.152344 228.535156 149.667969 C 233.148438 150.328125 239.253906 151.4375 244.613281 152.421875 C 249.457031 153.316406 255.074219 154.417969 260.46875 156.25 C 266.738281 158.378906 271.386719 160.671875 275.09375 163.46875 C 276.972656 164.890625 278.042969 167.089844 277.949219 169.359375 Z M 277.949219 169.359375 " fill-opacity="1" fill-rule="nonzero"/></g><path fill="#805a35" d="M 270.808594 168.21875 C 270.804688 169.628906 269.96875 171.085938 268.390625 172.433594 C 266.195312 174.296875 262.839844 175.511719 260.429688 176.027344 C 258.1875 176.503906 255.671875 176.988281 252.726562 177.503906 C 251.6875 177.683594 250.636719 177.925781 249.523438 178.183594 C 248.085938 178.515625 246.597656 178.855469 245.039062 179.089844 C 243.730469 179.28125 242.40625 179.359375 241 179.445312 C 239.769531 179.519531 238.492188 179.59375 237.21875 179.753906 C 235.800781 179.933594 234.375 180.050781 232.867188 180.175781 C 231.734375 180.269531 230.582031 180.363281 229.417969 180.488281 C 228.386719 180.597656 227.34375 180.730469 226.292969 180.859375 C 224.78125 181.050781 223.21875 181.246094 221.632812 181.386719 C 220.511719 181.488281 219.355469 181.632812 218.234375 181.769531 C 216.808594 181.945312 215.328125 182.128906 213.839844 182.234375 C 212.265625 182.347656 210.632812 182.421875 209.054688 182.492188 C 208.046875 182.535156 207.03125 182.582031 206.007812 182.640625 C 204.257812 182.734375 202.441406 182.796875 200.691406 182.859375 C 199.855469 182.886719 199.023438 182.914062 198.179688 182.949219 C 197.203125 182.984375 196.222656 183.035156 195.238281 183.082031 C 193.640625 183.15625 191.992188 183.238281 190.351562 183.273438 C 188.839844 183.304688 187.289062 183.289062 185.792969 183.269531 C 184.703125 183.257812 183.613281 183.246094 182.507812 183.25 C 181.328125 183.253906 180.113281 183.320312 178.941406 183.382812 C 177.683594 183.453125 176.390625 183.519531 175.097656 183.519531 C 174.953125 183.519531 174.8125 183.519531 174.671875 183.519531 C 173.289062 183.5 171.890625 183.359375 170.535156 183.226562 C 169.324219 183.105469 168.074219 182.980469 166.839844 182.941406 C 165.65625 182.90625 164.4375 182.929688 163.261719 182.957031 C 161.867188 182.984375 160.421875 183.015625 158.996094 182.945312 C 157.832031 182.886719 156.640625 182.878906 155.484375 182.871094 C 154.066406 182.859375 152.597656 182.847656 151.152344 182.75 C 149.566406 182.640625 147.957031 182.476562 146.398438 182.316406 C 145.378906 182.210938 144.359375 182.105469 143.339844 182.015625 C 141.9375 181.890625 140.535156 181.636719 139.175781 181.390625 C 137.996094 181.175781 136.777344 180.957031 135.578125 180.824219 C 134.648438 180.722656 133.722656 180.628906 132.792969 180.535156 C 131.152344 180.371094 129.453125 180.199219 127.78125 179.976562 C 126.617188 179.820312 125.421875 179.726562 124.265625 179.632812 C 122.855469 179.519531 121.394531 179.402344 119.972656 179.179688 C 118.308594 178.914062 116.632812 178.582031 115.011719 178.261719 C 114.09375 178.082031 113.175781 177.898438 112.257812 177.726562 C 110.730469 177.445312 109.207031 177.078125 107.730469 176.71875 C 106.6875 176.46875 105.648438 176.214844 104.605469 175.992188 C 102.457031 175.535156 99.109375 174.289062 96.757812 172.289062 C 95.09375 170.871094 94.210938 169.375 94.210938 167.957031 C 94.210938 166.765625 94.816406 165.640625 96.015625 164.621094 C 98.378906 162.613281 100.910156 161.121094 103.535156 160.191406 C 105.316406 159.5625 107.269531 159.230469 109.15625 158.90625 C 110.109375 158.746094 111.097656 158.578125 112.035156 158.375 C 113.496094 158.058594 114.90625 157.675781 116.269531 157.3125 C 117.746094 156.914062 119.144531 156.539062 120.429688 156.292969 C 121.925781 156.007812 123.507812 155.820312 125.183594 155.621094 C 126.152344 155.507812 127.148438 155.390625 128.160156 155.25 C 128.976562 155.136719 129.808594 155.007812 130.65625 154.878906 C 132.335938 154.621094 134.074219 154.359375 135.878906 154.167969 C 137.203125 154.023438 138.535156 154.011719 139.945312 153.996094 C 141.160156 153.980469 142.414062 153.96875 143.664062 153.863281 C 144.816406 153.769531 145.960938 153.597656 147.167969 153.414062 C 148.539062 153.207031 149.957031 152.988281 151.398438 152.898438 C 152.734375 152.816406 154.113281 152.855469 155.445312 152.898438 C 156.671875 152.933594 157.9375 152.96875 159.1875 152.914062 C 160.367188 152.859375 161.585938 152.738281 162.757812 152.621094 C 164.125 152.488281 165.539062 152.347656 166.949219 152.304688 C 168.410156 152.261719 169.90625 152.265625 171.351562 152.273438 C 172.472656 152.277344 173.601562 152.28125 174.730469 152.261719 C 175.933594 152.246094 177.164062 152.160156 178.355469 152.078125 C 179.714844 151.984375 181.121094 151.890625 182.511719 151.886719 C 183.898438 151.875 185.257812 152.011719 186.59375 152.140625 C 187.808594 152.253906 189.0625 152.371094 190.289062 152.386719 C 191.441406 152.402344 192.613281 152.386719 193.742188 152.371094 C 195.164062 152.351562 196.632812 152.332031 198.070312 152.375 C 199.503906 152.414062 200.945312 152.535156 202.335938 152.652344 C 203.488281 152.746094 204.679688 152.847656 205.839844 152.898438 C 206.964844 152.949219 208.082031 152.972656 209.195312 152.996094 C 210.648438 153.03125 212.15625 153.0625 213.617188 153.152344 C 214.722656 153.222656 215.824219 153.265625 216.914062 153.3125 C 218.390625 153.371094 219.917969 153.433594 221.394531 153.554688 C 222.960938 153.6875 224.507812 153.898438 226 154.101562 C 227.050781 154.242188 228.089844 154.386719 229.117188 154.496094 C 230.300781 154.625 231.488281 154.695312 232.636719 154.761719 C 234.113281 154.851562 235.507812 154.933594 236.886719 155.128906 C 237.644531 155.238281 238.398438 155.339844 239.140625 155.441406 C 241.054688 155.699219 242.863281 155.941406 244.597656 156.273438 C 245.90625 156.523438 247.335938 156.890625 248.847656 157.28125 C 250.1875 157.628906 251.570312 157.988281 253.003906 158.296875 C 253.816406 158.472656 254.640625 158.628906 255.46875 158.789062 C 257.484375 159.171875 259.566406 159.566406 261.472656 160.242188 C 264.003906 161.136719 266.367188 162.5625 268.917969 164.730469 C 270.171875 165.796875 270.808594 166.972656 270.808594 168.21875 Z M 270.808594 168.21875 " fill-opacity="1" fill-rule="nonzero"/><g clip-path="url(#e2d99b8c00)"><path fill="#a7c957" d="M 149.753906 70.546875 C 155.183594 105.636719 158.929688 140.992188 160.96875 176.449219 C 158.167969 176.417969 155.375 176.386719 151.964844 177.253906 C 151.65625 175.457031 151.359375 173.671875 151.066406 171.894531 C 151.128906 172.992188 151.1875 174.089844 151.230469 175.191406 C 149.363281 175.050781 147.5 174.902344 146.089844 174.820312 C 139.371094 157.792969 136.691406 139.203125 138.300781 120.980469 C 138.398438 119.929688 139.847656 119.730469 140.222656 120.710938 C 142.839844 127.574219 144.984375 134.617188 146.675781 141.777344 C 140.359375 91.917969 140.402344 54.816406 141.265625 41.449219 C 141.316406 40.695312 142.355469 40.539062 142.640625 41.226562 C 146.488281 50.523438 148.207031 60.585938 149.753906 70.546875 Z M 226.785156 86 C 226.75 85.226562 225.765625 84.929688 225.289062 85.550781 C 223.039062 88.484375 221.761719 92.136719 220.628906 95.699219 C 217.558594 105.371094 215.050781 115.222656 213.105469 125.183594 C 213.226562 85.082031 210.109375 42.652344 206.222656 23.988281 C 205.949219 22.667969 204.089844 22.582031 203.703125 23.882812 C 200.199219 35.632812 197.429688 61.953125 196.113281 90.835938 C 195 75.890625 193.53125 60.96875 191.691406 46.097656 C 191.128906 41.574219 190.5 36.953125 188.75 32.789062 C 188.347656 31.84375 187.007812 31.898438 186.671875 32.863281 C 185.203125 37.191406 184.980469 41.925781 184.785156 46.53125 C 184.101562 62.65625 183.421875 78.769531 182.746094 94.894531 C 182.191406 108.085938 181.644531 121.320312 181.605469 134.535156 C 179.851562 123.375 177.53125 112.304688 174.636719 101.382812 C 174.390625 100.441406 173.070312 100.355469 172.691406 101.261719 C 171.855469 103.257812 171.621094 105.554688 171.457031 107.746094 C 169.71875 130.925781 171.058594 154.320312 175.425781 177.136719 C 178.46875 177.222656 180.679688 177.265625 182.875 177.054688 C 183.21875 177.019531 183.578125 176.96875 183.914062 176.871094 C 183.957031 177.210938 183.992188 177.550781 184.039062 177.890625 C 189.066406 177.550781 193.785156 177.488281 198.507812 177.414062 C 198.507812 177.332031 198.507812 177.253906 198.511719 177.171875 C 201.039062 177.21875 203.347656 177.105469 205.640625 176.980469 C 206.472656 176.933594 207.347656 176.875 208.140625 176.636719 C 208.140625 176.808594 208.136719 176.980469 208.140625 177.148438 C 210.710938 176.960938 214.503906 177.128906 216.628906 174.660156 C 217.617188 173.519531 218.035156 171.992188 218.410156 170.53125 C 225.460938 142.992188 228.292969 114.382812 226.785156 86 Z M 226.785156 86 " fill-opacity="1" fill-rule="nonzero"/></g><path fill="#2c6e49" d="M 262.015625 224.582031 C 260.699219 224.882812 259.371094 225.109375 258.042969 225.34375 C 252.960938 226.230469 248.015625 227.765625 242.976562 228.867188 C 240.324219 229.445312 237.617188 229.867188 234.9375 230.289062 C 232.3125 230.703125 229.652344 230.847656 227.054688 231.429688 C 224.492188 232.007812 221.976562 232.511719 219.371094 232.871094 C 216.726562 233.234375 214.097656 233.550781 211.429688 233.6875 C 208.746094 233.824219 206.097656 234.191406 203.425781 234.476562 C 200.734375 234.761719 198.082031 234.5 195.386719 234.601562 C 192.738281 234.699219 190.042969 234.738281 187.40625 234.976562 C 186.121094 235.09375 184.855469 235.347656 183.574219 235.507812 C 182.214844 235.679688 180.859375 235.671875 179.492188 235.605469 C 176.796875 235.46875 174.148438 235.328125 171.449219 235.425781 C 170.121094 235.472656 168.78125 235.53125 167.457031 235.410156 C 166.1875 235.296875 164.941406 235.03125 163.691406 234.789062 C 161.070312 234.289062 158.398438 234.339844 155.746094 234.148438 C 153.078125 233.960938 150.359375 234.105469 147.703125 233.777344 C 145.136719 233.457031 142.6875 232.558594 140.109375 232.285156 C 137.480469 232.007812 134.875 231.867188 132.285156 231.300781 C 127.066406 230.164062 121.832031 229.144531 116.570312 228.207031 C 113.988281 227.75 111.5625 226.925781 109.050781 226.195312 C 106.488281 225.449219 103.839844 225.070312 101.257812 224.402344 C 100.023438 224.082031 100.550781 222.175781 101.785156 222.492188 C 104.667969 223.238281 107.617188 223.667969 110.464844 224.554688 C 111.832031 224.980469 113.183594 225.453125 114.578125 225.789062 C 116.039062 226.144531 117.523438 226.375 119.003906 226.625 C 121.957031 227.125 124.894531 227.75 127.839844 228.304688 C 130.707031 228.84375 133.511719 229.695312 136.421875 229.984375 C 139.050781 230.246094 141.628906 230.414062 144.207031 231.039062 C 145.519531 231.355469 146.832031 231.714844 148.175781 231.851562 C 149.464844 231.984375 150.761719 231.960938 152.050781 231.976562 C 154.621094 232 157.191406 232.253906 159.757812 232.382812 C 161.105469 232.449219 162.433594 232.558594 163.761719 232.796875 C 164.992188 233.019531 166.210938 233.320312 167.457031 233.433594 C 170.121094 233.675781 172.808594 233.300781 175.476562 233.394531 C 178.121094 233.488281 180.777344 233.871094 183.421875 233.546875 C 184.753906 233.386719 186.070312 233.121094 187.40625 233 C 188.667969 232.886719 189.945312 232.886719 191.210938 232.832031 C 193.902344 232.714844 196.554688 232.617188 199.25 232.691406 C 201.941406 232.761719 204.597656 232.355469 207.265625 232.046875 C 209.828125 231.75 212.410156 231.746094 214.976562 231.464844 C 217.621094 231.175781 220.320312 230.867188 222.929688 230.351562 C 225.472656 229.851562 227.933594 229.183594 230.511719 228.867188 C 235.796875 228.226562 241.015625 227.339844 246.171875 226.03125 C 248.652344 225.402344 251.152344 224.832031 253.640625 224.226562 C 256.238281 223.597656 258.886719 223.269531 261.488281 222.675781 C 262.730469 222.390625 263.253906 224.300781 262.015625 224.582031 Z M 148.789062 159.476562 C 149.074219 161.003906 149.371094 162.527344 149.480469 164.078125 C 149.589844 165.554688 149.578125 167.042969 149.675781 168.519531 C 149.867188 171.535156 150.417969 174.554688 150.835938 177.542969 C 151.011719 178.796875 152.917969 178.261719 152.742188 177.015625 C 152.320312 173.992188 151.761719 170.945312 151.617188 167.894531 C 151.546875 166.410156 151.550781 164.917969 151.40625 163.441406 C 151.257812 161.933594 150.976562 160.441406 150.699219 158.953125 C 149.585938 153 149.09375 146.9375 148.261719 140.941406 C 148.085938 139.683594 146.179688 140.21875 146.351562 141.46875 C 147.1875 147.460938 147.679688 153.523438 148.789062 159.476562 Z M 182.257812 167.789062 C 182.257812 171.238281 182.679688 174.613281 182.925781 178.046875 C 183.015625 179.308594 184.996094 179.320312 184.902344 178.046875 C 184.691406 175.046875 184.25 172.070312 184.238281 169.058594 C 184.222656 166.042969 184.050781 163.058594 183.859375 160.050781 C 183.660156 157 183.304688 153.960938 183.097656 150.914062 C 182.894531 147.914062 182.695312 144.917969 182.492188 141.921875 C 182.253906 138.503906 181.941406 135.089844 181.703125 131.675781 C 181.613281 130.410156 179.636719 130.402344 179.726562 131.675781 C 180.144531 137.667969 180.632812 143.65625 181.035156 149.652344 C 181.441406 155.691406 182.261719 161.730469 182.257812 167.789062 Z M 196.113281 104.207031 C 196.460938 107.144531 196.398438 110.03125 196.40625 112.984375 C 196.414062 115.972656 196.851562 118.933594 196.957031 121.917969 C 197.171875 127.886719 197.292969 133.832031 197.136719 139.804688 C 196.976562 145.707031 197.066406 151.628906 197.0625 157.53125 C 197.058594 164.25 197.070312 170.945312 196.828125 177.65625 C 196.78125 178.933594 198.757812 178.929688 198.804688 177.65625 C 199.234375 165.792969 199.046875 153.914062 199.074219 142.042969 C 199.089844 136.070312 199.296875 130.121094 199.027344 124.152344 C 198.898438 121.21875 198.652344 118.308594 198.464844 115.382812 C 198.273438 112.402344 198.566406 109.414062 198.324219 106.433594 C 198.191406 104.785156 197.941406 103.148438 197.789062 101.503906 C 197.632812 99.808594 197.574219 98.101562 197.472656 96.402344 C 197.269531 93.054688 197.285156 89.691406 197.050781 86.34375 C 196.964844 85.082031 194.984375 85.074219 195.074219 86.34375 C 195.28125 89.320312 195.242188 92.308594 195.425781 95.289062 C 195.609375 98.269531 195.761719 101.238281 196.113281 104.207031 Z M 209.414062 176.90625 C 210.332031 173.542969 210.542969 170.058594 210.824219 166.601562 C 211.121094 162.996094 211.476562 159.394531 211.835938 155.792969 C 212.195312 152.199219 212.289062 148.5625 212.46875 144.957031 C 212.648438 141.386719 213.046875 137.855469 213.429688 134.304688 C 213.648438 132.289062 214.160156 130.316406 214.3125 128.289062 C 214.46875 126.21875 214.328125 124.132812 214.480469 122.058594 C 214.574219 120.789062 212.59375 120.796875 212.5 122.058594 C 212.367188 123.871094 212.453125 125.683594 212.378906 127.496094 C 212.304688 129.28125 211.933594 131.011719 211.65625 132.773438 C 211.378906 134.542969 211.253906 136.335938 211.039062 138.113281 C 210.824219 139.859375 210.660156 141.601562 210.570312 143.359375 C 210.476562 145.167969 210.339844 146.972656 210.25 148.777344 C 210.164062 150.535156 210.164062 152.292969 210.019531 154.042969 C 209.726562 157.597656 209.34375 161.144531 209.015625 164.691406 C 208.652344 168.601562 208.542969 172.566406 207.503906 176.378906 C 207.167969 177.609375 209.078125 178.132812 209.414062 176.90625 Z M 209.414062 176.90625 " fill-opacity="1" fill-rule="nonzero"/></svg>