<svg xmlns="http://www.w3.org/2000/svg" xmlns:xlink="http://www.w3.org/1999/xlink" width="500" zoomAndPan="magnify" viewBox="0 0 375 374.999991" height="500" preserveAspectRatio="xMidYMid meet" version="1.0"><path fill="#b4bf54" d="M 235.605469 236.464844 C 236.203125 236.304688 236.691406 235.8125 236.671875 235.023438 C 236.570312 231.417969 234.832031 227.707031 233.984375 224.191406 C 233.71875 223.078125 233.46875 221.972656 233.230469 220.863281 C 236.269531 224.476562 238.785156 228.4375 240.015625 233.429688 C 240.140625 233.933594 240.464844 234.226562 240.847656 234.332031 C 240.917969 235.089844 240.960938 235.863281 240.960938 236.640625 C 239.171875 236.582031 237.386719 236.523438 235.605469 236.464844 Z M 231.078125 236.316406 C 231.324219 235.542969 231.148438 234.683594 230.285156 233.980469 C 221.894531 227.222656 214.257812 219.542969 207.8125 210.910156 C 204.800781 206.886719 201.660156 202.628906 199.542969 198.050781 C 196.882812 192.273438 197.976562 186.304688 199.269531 180.332031 C 201.535156 169.890625 203.109375 158.882812 206.773438 148.808594 C 209.933594 140.117188 216.023438 133.429688 224.941406 130.511719 C 233.765625 127.625 243.300781 128.710938 251.335938 133.277344 C 247.355469 135.644531 243.992188 138.921875 239.867188 141.003906 C 236.527344 142.691406 232.730469 142.945312 229.171875 144.082031 C 229.160156 142.644531 228.765625 141.207031 228.5 139.796875 C 228.222656 138.292969 227.96875 136.789062 227.570312 135.308594 C 227.097656 133.570312 224.148438 133.847656 224.316406 135.75 C 224.445312 137.210938 224.707031 138.648438 224.949219 140.097656 C 225.203125 141.589844 225.316406 143.179688 225.839844 144.597656 C 225.9375 144.871094 226.09375 145.09375 226.28125 145.273438 C 223.992188 146.496094 221.921875 148.082031 220.082031 149.90625 C 219.015625 148.609375 217.753906 147.441406 216.660156 146.449219 C 215.59375 145.46875 213.640625 146.761719 214.550781 148.070312 C 215.4375 149.34375 216.222656 150.667969 217.078125 151.964844 C 217.246094 152.210938 217.402344 152.472656 217.566406 152.734375 C 217.433594 152.898438 217.296875 153.058594 217.175781 153.222656 C 211.898438 160.136719 209.347656 168.957031 209.515625 177.597656 C 209.746094 189.09375 214.214844 200.199219 221.824219 208.800781 C 222.171875 209.1875 222.527344 209.566406 222.882812 209.949219 C 215.449219 204.386719 210.753906 195.765625 206.851562 187.261719 C 206.253906 185.960938 204.234375 186.890625 204.585938 188.207031 C 207.941406 200.75 216.683594 212.511719 229.019531 217.304688 C 229.328125 219.738281 229.769531 222.152344 230.308594 224.578125 C 231.113281 228.175781 231.679688 232.722656 233.769531 235.8125 C 233.972656 236.113281 234.265625 236.324219 234.578125 236.433594 C 233.410156 236.394531 232.25 236.347656 231.078125 236.316406 Z M 217.253906 235.914062 C 209.472656 235.726562 201.695312 235.570312 193.917969 235.433594 C 196.914062 231.484375 198.996094 226.292969 200.996094 221.964844 C 202.070312 219.640625 203.265625 217.078125 203.9375 214.449219 C 209.984375 222.429688 216.933594 229.726562 224.65625 236.121094 C 222.183594 236.050781 219.71875 235.980469 217.253906 235.914062 Z M 186.960938 235.324219 C 188.054688 231.699219 188.53125 227.746094 188.640625 223.871094 C 190.28125 222.042969 191.636719 219.816406 192.972656 217.863281 C 195.003906 214.886719 196.746094 211.84375 198.359375 208.632812 C 199.191406 206.984375 196.902344 205.648438 195.890625 207.183594 C 194.03125 210 192.144531 212.804688 190.246094 215.585938 C 189.714844 216.367188 189.132812 217.128906 188.542969 217.902344 C 188.457031 216.378906 188.335938 214.820312 188.144531 213.257812 C 188.230469 213.121094 188.304688 212.964844 188.359375 212.785156 C 189.285156 209.605469 190.761719 207.4375 192.707031 204.773438 C 193.625 203.503906 194.507812 202.167969 195.058594 200.722656 C 196.1875 203.101562 197.59375 205.378906 199.078125 207.625 C 199.652344 208.496094 200.253906 209.34375 200.851562 210.203125 C 200.4375 214.652344 198.570312 218.558594 196.460938 222.722656 C 194.34375 226.914062 191.300781 230.976562 189.65625 235.363281 C 188.757812 235.34375 187.859375 235.335938 186.960938 235.324219 Z M 185.476562 202.871094 C 188.09375 199.5625 190.539062 196.148438 192.660156 192.570312 C 192.796875 193.859375 193.050781 195.097656 193.390625 196.300781 C 193.21875 196.460938 193.089844 196.667969 193.011719 196.941406 C 192.066406 200.328125 188.847656 203.34375 186.84375 206.59375 C 186.472656 205.308594 186.023438 204.058594 185.476562 202.871094 Z M 182.917969 235.257812 C 181.90625 235.246094 180.898438 235.234375 179.890625 235.21875 C 179.890625 235.167969 179.898438 235.113281 179.878906 235.058594 C 179.738281 234.648438 179.605469 234.238281 179.472656 233.832031 C 179.417969 233.65625 179.3125 233.546875 179.1875 233.46875 C 179.15625 233.398438 179.121094 233.332031 179.097656 233.261719 C 179.089844 233.234375 179.089844 233.207031 179.089844 233.1875 C 178.578125 230.234375 177.199219 227.367188 176.15625 224.558594 C 175.324219 222.308594 174.5625 220.003906 173.574219 217.8125 C 176.34375 213.785156 179.609375 210 182.695312 206.304688 C 183.089844 211.195312 183.820312 215.949219 183.765625 220.894531 C 183.714844 225.695312 183.324219 230.476562 182.917969 235.257812 Z M 166.765625 235.058594 C 166.773438 235.042969 166.773438 235.039062 166.773438 235.023438 C 167.144531 230.042969 168.890625 225.546875 171.324219 221.355469 C 171.921875 223.125 172.609375 224.878906 173.226562 226.625 C 174.125 229.183594 174.839844 231.90625 176.183594 234.273438 C 176.222656 234.570312 176.265625 234.875 176.304688 235.175781 C 173.128906 235.136719 169.949219 235.089844 166.765625 235.058594 Z M 134.238281 234.871094 C 131.421875 234.871094 128.613281 234.875 125.796875 234.882812 C 125.917969 234.578125 125.957031 234.21875 125.902344 233.84375 C 130.679688 225.804688 135.460938 217.765625 140.246094 209.730469 C 141.003906 212.667969 142.292969 215.546875 143.347656 218.113281 C 145.648438 223.726562 147.945312 229.355469 150.363281 234.933594 C 144.988281 234.894531 139.613281 234.871094 134.238281 234.871094 Z M 302.886719 282.253906 C 302.839844 275.132812 302.804688 268.023438 302.679688 260.90625 C 302.621094 257.457031 302.585938 254.003906 302.476562 250.550781 C 302.410156 248.726562 302.574219 246.59375 302.398438 244.574219 C 303.21875 242.984375 302.96875 240.929688 301.085938 240.246094 C 300.21875 238.96875 298.621094 238.769531 297.503906 239.625 C 287.84375 238.238281 277.890625 237.933594 268.066406 237.632812 C 280.207031 224.398438 297.714844 215.714844 302.527344 197.152344 C 305.1875 186.894531 304.382812 176.09375 303.570312 165.640625 C 302.789062 155.648438 301.285156 145.253906 294.019531 137.714844 C 287.324219 130.765625 277.347656 127.367188 267.78125 128.179688 C 263.109375 128.574219 258.609375 129.820312 254.351562 131.738281 C 254.28125 131.492188 254.140625 131.253906 253.898438 131.039062 C 239.976562 118.972656 216.652344 123.496094 206.40625 138.1875 C 203.082031 142.964844 201.015625 148.503906 199.484375 154.253906 C 197.761719 147.65625 194.429688 141.511719 189.441406 136.777344 C 181.269531 129.015625 168.582031 125.632812 157.894531 129.871094 C 148.734375 133.5 142.210938 142.878906 142.253906 152.558594 C 141.257812 149.484375 141.023438 146.402344 140.484375 142.949219 C 139.84375 138.882812 137.878906 135.09375 134.9375 132.195312 C 127.621094 124.984375 118.339844 125.992188 109.273438 128.8125 C 100.070312 131.667969 90.429688 134.847656 83.535156 141.90625 C 69.996094 155.746094 71.226562 179.226562 77.953125 196.0625 C 81.539062 205.042969 87.351562 212.820312 95.707031 217.890625 C 103.761719 222.769531 114.144531 225.382812 120.324219 232.863281 C 119.914062 233.539062 119.511719 234.21875 119.101562 234.902344 C 116.367188 234.914062 113.628906 234.921875 110.890625 234.941406 C 107 234.964844 103.109375 234.992188 99.21875 235.03125 C 95.101562 235.070312 91.296875 234.765625 87.492188 236.542969 C 85.5 237.46875 85.011719 240.421875 86.15625 242.214844 C 85.816406 247.515625 86.488281 252.847656 86.949219 258.160156 C 87.449219 263.949219 88.050781 269.730469 88.609375 275.519531 C 89.753906 287.308594 90.984375 299.082031 92.175781 310.863281 C 92.214844 311.261719 92.304688 311.617188 92.421875 311.957031 C 91.765625 314.011719 92.46875 316.535156 95.15625 317.300781 C 120.363281 324.488281 147.160156 322.875 173.070312 322.667969 C 200 322.445312 226.925781 322.273438 253.855469 321.84375 C 261.394531 321.71875 268.933594 321.601562 276.472656 321.476562 C 283.402344 321.371094 290.40625 321.273438 297.277344 320.253906 C 297.714844 320.320312 298.175781 320.277344 298.664062 320.097656 C 298.75 320.066406 298.828125 320.03125 298.90625 319.996094 C 299.007812 319.980469 299.121094 319.96875 299.230469 319.949219 C 300.289062 319.761719 300.921875 319.117188 301.1875 318.324219 C 304.023438 314.894531 302.9375 308.375 302.9375 304.253906 C 302.9375 296.917969 302.925781 289.585938 302.886719 282.253906 " fill-opacity="1" fill-rule="nonzero"/><path fill="#000000" d="M 282.425781 247.132812 C 282.21875 246.945312 282.003906 246.769531 281.769531 246.613281 C 282.199219 246.625 282.636719 246.640625 283.070312 246.65625 C 282.847656 246.808594 282.640625 246.96875 282.425781 247.132812 Z M 261.914062 237.433594 C 261.074219 237.40625 260.226562 237.371094 259.398438 237.339844 C 258.347656 237.300781 257.308594 237.261719 256.261719 237.222656 C 259.746094 229.671875 261.074219 221.378906 261.398438 213.03125 C 264.300781 209.507812 268.40625 207.445312 272.675781 205.691406 C 273.800781 205.226562 274.921875 204.757812 276.039062 204.296875 C 277.445312 205.152344 279.050781 205.691406 280.644531 206.074219 C 282.230469 206.457031 284.339844 207.179688 285.867188 206.335938 C 286.355469 206.0625 285.921875 205.328125 285.433594 205.585938 C 284.15625 206.261719 281.640625 205.175781 280.324219 204.777344 C 279.34375 204.484375 278.4375 204.101562 277.566406 203.65625 C 281.386719 202.039062 285.164062 200.371094 288.886719 198.476562 C 290.273438 197.777344 289.289062 195.335938 287.8125 195.933594 C 285.433594 196.886719 283.023438 197.789062 280.617188 198.691406 C 281.933594 195.285156 284.019531 192.320312 285.816406 189.128906 C 286.015625 188.769531 285.507812 188.34375 285.230469 188.671875 C 282.542969 191.828125 280.304688 195.375 278.992188 199.308594 C 276.507812 200.242188 274.027344 201.191406 271.582031 202.203125 C 272.519531 199.140625 273.1875 195.855469 273.882812 192.78125 C 274.007812 192.242188 273.269531 192.066406 273.070312 192.5625 C 271.777344 195.695312 270.566406 199.375 270.125 202.816406 C 269.761719 202.976562 269.386719 203.125 269.023438 203.285156 C 266.480469 204.394531 264 205.710938 261.824219 207.378906 C 261.9375 206.277344 262.058594 205.175781 262.132812 204.070312 C 262.160156 203.902344 262.1875 203.726562 262.210938 203.558594 C 262.316406 203.40625 262.410156 203.246094 262.480469 203.050781 C 265.160156 195.421875 270.34375 190.53125 277.105469 186.414062 C 277.863281 185.957031 278.589844 185.457031 279.289062 184.941406 C 281.015625 184.632812 282.847656 184.515625 284.324219 184.09375 C 286.890625 183.359375 289.28125 182.296875 291.578125 180.933594 C 292.03125 180.667969 291.632812 180.042969 291.175781 180.246094 C 287.996094 181.660156 284.707031 182.867188 281.28125 183.507812 C 281.203125 183.523438 281.132812 183.535156 281.058594 183.546875 C 282.945312 181.9375 284.625 180.132812 286.128906 178.175781 C 289.015625 177.300781 291.96875 176.046875 293.660156 173.597656 C 293.863281 173.296875 293.453125 172.875 293.15625 173.089844 C 291.652344 174.148438 290.296875 175.234375 288.566406 175.925781 C 288.210938 176.066406 287.84375 176.191406 287.480469 176.3125 C 288.695312 174.527344 289.804688 172.648438 290.8125 170.691406 C 291.613281 169.132812 289.523438 168.007812 288.503906 169.34375 C 286.015625 172.636719 283.8125 176.113281 280.847656 179.007812 C 280.703125 179.140625 280.550781 179.265625 280.414062 179.398438 C 280.46875 176.527344 280.9375 173.75 281.515625 170.882812 C 281.59375 170.5 281.027344 170.195312 280.847656 170.597656 C 279.425781 173.691406 278.984375 177.121094 279.109375 180.5 C 276.441406 182.574219 273.433594 184.027344 270.625 185.976562 C 266.628906 188.757812 263.410156 192.328125 261.042969 196.460938 C 260.792969 192.464844 260.523438 188.472656 260.316406 184.496094 C 261.140625 179.160156 263.585938 174.898438 267.175781 170.992188 C 267.875 170.839844 268.601562 170.765625 269.332031 170.617188 C 271.09375 170.261719 272.804688 169.558594 274.464844 168.886719 C 277.449219 167.660156 280.292969 166.191406 282.992188 164.417969 C 283.441406 164.121094 283.050781 163.453125 282.570312 163.691406 C 278.960938 165.480469 275.308594 167.238281 271.484375 168.515625 C 270.730469 168.769531 269.917969 168.910156 269.089844 169.042969 C 269.148438 168.988281 269.203125 168.9375 269.253906 168.886719 C 271.800781 166.457031 274.703125 164.167969 277.242188 161.589844 C 281.085938 160.25 285.777344 159.207031 288.09375 155.871094 C 288.332031 155.519531 287.800781 155.128906 287.507812 155.421875 C 285.320312 157.632812 282.203125 158.511719 279.191406 159.453125 C 280.207031 158.230469 281.117188 156.933594 281.847656 155.519531 C 282.4375 154.382812 280.976562 153.132812 280.019531 154.109375 C 278.679688 155.484375 277.292969 156.808594 275.894531 158.113281 C 275.960938 157.515625 275.984375 156.902344 276.039062 156.273438 C 276.273438 153.417969 276.746094 150.589844 276.988281 147.734375 C 277.019531 147.277344 276.34375 147.226562 276.210938 147.628906 C 274.996094 151.535156 275.433594 156.011719 274.082031 159.808594 C 272.285156 161.457031 270.46875 163.089844 268.691406 164.757812 C 268.6875 163.578125 268.542969 162.402344 268.492188 161.1875 C 268.378906 158.699219 268.738281 156.296875 269.15625 153.847656 C 269.234375 153.398438 268.632812 153.234375 268.46875 153.65625 C 266.9375 157.730469 267.546875 161.800781 267.371094 166.011719 C 266.304688 167.035156 265.246094 168.074219 264.214844 169.144531 C 262.761719 170.675781 261.289062 172.433594 260.035156 174.34375 C 260.054688 166.269531 260.777344 158.242188 263.152344 150.296875 C 263.566406 148.914062 261.394531 147.921875 260.761719 149.292969 C 255.714844 160.269531 255.289062 171.914062 255.804688 183.703125 C 254.257812 182.847656 252.570312 182.199219 250.867188 181.601562 C 249.421875 176.390625 248.078125 171.15625 246.457031 165.992188 C 246.144531 164.996094 244.671875 165.40625 244.894531 166.417969 C 245.960938 171.246094 247.253906 176.015625 248.503906 180.804688 C 246.890625 180.265625 245.304688 179.726562 243.808594 179.070312 C 243.242188 178.820312 242.695312 178.546875 242.167969 178.257812 C 241.308594 173.925781 240.054688 169.515625 238.628906 165.347656 C 238.304688 164.402344 236.964844 164.785156 237.140625 165.757812 C 237.792969 169.398438 238.636719 173.128906 239.683594 176.730469 C 236.144531 174.199219 233.464844 170.765625 231.414062 166.738281 C 230.699219 165.316406 228.441406 166.308594 228.863281 167.816406 C 230.417969 173.328125 234.199219 178.128906 239.09375 181.128906 C 241.566406 182.640625 244.320312 183.652344 247.035156 184.632812 C 250.25 185.785156 253.125 187.164062 256.070312 188.8125 C 256.414062 194.515625 256.851562 200.234375 256.976562 205.910156 C 255.441406 204.519531 253.625 203.492188 251.691406 202.679688 C 250.214844 200.851562 248.480469 199.410156 247.199219 197.375 C 245.929688 195.347656 245.109375 193.144531 244.257812 190.917969 C 244.101562 190.515625 243.351562 190.523438 243.421875 191.035156 C 243.867188 194.488281 245.765625 198.71875 248.480469 201.527344 C 248.296875 201.46875 248.121094 201.410156 247.9375 201.355469 C 244.925781 200.457031 241.96875 199.515625 239.144531 198.308594 C 238.167969 196.714844 237.726562 194.355469 237.160156 192.898438 C 236.417969 190.984375 235.519531 189.210938 234.382812 187.507812 C 234.042969 187 233.261719 187.441406 233.5625 187.980469 C 235.058594 190.652344 236.019531 193.570312 237.042969 196.445312 C 237.171875 196.796875 237.289062 197.160156 237.414062 197.523438 C 235.089844 196.40625 232.871094 195.066406 230.808594 193.351562 C 229.496094 192.253906 227.601562 194.050781 228.898438 195.25 C 232.964844 199.027344 237.296875 201.855469 242.574219 203.695312 C 247.082031 205.257812 252.449219 206.171875 255.433594 210.195312 C 255.695312 212.789062 255.921875 215.378906 256.128906 217.980469 C 255.589844 224.902344 253.324219 231.429688 247.972656 236.699219 C 247.90625 236.765625 247.867188 236.828125 247.835938 236.898438 C 246.933594 236.863281 246.03125 236.828125 245.128906 236.796875 C 244.828125 231.957031 243.414062 227 240.515625 223.144531 C 240.296875 222.847656 240.027344 222.671875 239.761719 222.578125 C 237.847656 219.394531 235.261719 216.507812 232.769531 213.898438 C 232.285156 213.394531 231.8125 212.886719 231.332031 212.382812 C 231.207031 212.050781 230.964844 211.832031 230.6875 211.699219 C 224.921875 205.59375 219.667969 199.566406 216.902344 191.320312 C 213.304688 180.589844 213.84375 165.441406 221.1875 156.03125 C 221.808594 155.886719 222.316406 155.355469 222.367188 154.644531 C 225.046875 151.722656 228.480469 149.484375 232.792969 148.324219 C 237.320312 147.101562 241.371094 146.714844 245.351562 143.957031 C 249.324219 141.214844 252.929688 138.210938 257.417969 136.273438 C 266.4375 132.402344 276.941406 132.429688 285.394531 137.683594 C 294.136719 143.125 296.902344 152.605469 297.835938 162.3125 C 298.78125 172.046875 299.765625 182.304688 298.085938 191.996094 C 296.300781 202.285156 290.746094 209.960938 283.070312 216.773438 C 275.960938 223.078125 267.976562 228.554688 262.332031 236.308594 C 262.058594 236.671875 261.9375 237.058594 261.914062 237.433594 Z M 235.605469 236.464844 C 236.203125 236.304688 236.691406 235.8125 236.671875 235.023438 C 236.570312 231.417969 234.832031 227.707031 233.984375 224.191406 C 233.71875 223.078125 233.46875 221.972656 233.230469 220.863281 C 236.269531 224.476562 238.785156 228.4375 240.015625 233.429688 C 240.140625 233.933594 240.464844 234.226562 240.847656 234.332031 C 240.917969 235.089844 240.960938 235.863281 240.960938 236.640625 C 239.171875 236.582031 237.386719 236.523438 235.605469 236.464844 Z M 231.078125 236.316406 C 231.324219 235.542969 231.148438 234.683594 230.285156 233.980469 C 221.894531 227.222656 214.257812 219.542969 207.8125 210.910156 C 204.800781 206.886719 201.660156 202.628906 199.542969 198.050781 C 196.882812 192.273438 197.976562 186.304688 199.269531 180.332031 C 201.535156 169.890625 203.109375 158.882812 206.773438 148.808594 C 209.933594 140.117188 216.023438 133.429688 224.941406 130.511719 C 233.765625 127.625 243.300781 128.710938 251.335938 133.277344 C 247.355469 135.644531 243.992188 138.921875 239.867188 141.003906 C 236.527344 142.691406 232.730469 142.945312 229.171875 144.082031 C 229.160156 142.644531 228.765625 141.207031 228.5 139.796875 C 228.222656 138.292969 227.96875 136.789062 227.570312 135.308594 C 227.097656 133.570312 224.148438 133.847656 224.316406 135.75 C 224.445312 137.210938 224.707031 138.648438 224.949219 140.097656 C 225.203125 141.589844 225.316406 143.179688 225.839844 144.597656 C 225.9375 144.871094 226.09375 145.09375 226.28125 145.273438 C 223.992188 146.496094 221.921875 148.082031 220.082031 149.90625 C 219.015625 148.609375 217.753906 147.441406 216.660156 146.449219 C 215.59375 145.46875 213.640625 146.761719 214.550781 148.070312 C 215.4375 149.34375 216.222656 150.667969 217.078125 151.964844 C 217.246094 152.210938 217.402344 152.472656 217.566406 152.734375 C 217.433594 152.898438 217.296875 153.058594 217.175781 153.222656 C 211.898438 160.136719 209.347656 168.957031 209.515625 177.597656 C 209.746094 189.09375 214.214844 200.199219 221.824219 208.800781 C 222.171875 209.1875 222.527344 209.566406 222.882812 209.949219 C 215.449219 204.386719 210.753906 195.765625 206.851562 187.261719 C 206.253906 185.960938 204.234375 186.890625 204.585938 188.207031 C 207.941406 200.75 216.683594 212.511719 229.019531 217.304688 C 229.328125 219.738281 229.769531 222.152344 230.308594 224.578125 C 231.113281 228.175781 231.679688 232.722656 233.769531 235.8125 C 233.972656 236.113281 234.265625 236.324219 234.578125 236.433594 C 233.410156 236.394531 232.25 236.347656 231.078125 236.316406 Z M 217.253906 235.914062 C 209.472656 235.726562 201.695312 235.570312 193.917969 235.433594 C 196.914062 231.484375 198.996094 226.292969 200.996094 221.964844 C 202.070312 219.640625 203.265625 217.078125 203.9375 214.449219 C 209.984375 222.429688 216.933594 229.726562 224.65625 236.121094 C 222.183594 236.050781 219.71875 235.980469 217.253906 235.914062 Z M 195.515625 292.21875 C 195.742188 291.777344 195.925781 291.308594 196.0625 290.8125 C 196.238281 291.21875 196.414062 291.636719 196.589844 292.042969 C 196.230469 292.101562 195.875 292.152344 195.515625 292.21875 Z M 186.960938 235.324219 C 188.054688 231.699219 188.53125 227.746094 188.640625 223.871094 C 190.28125 222.042969 191.636719 219.816406 192.972656 217.863281 C 195.003906 214.886719 196.746094 211.84375 198.359375 208.632812 C 199.191406 206.984375 196.902344 205.648438 195.890625 207.183594 C 194.03125 210 192.144531 212.804688 190.246094 215.585938 C 189.714844 216.367188 189.132812 217.128906 188.542969 217.902344 C 188.457031 216.378906 188.335938 214.820312 188.144531 213.257812 C 188.230469 213.121094 188.304688 212.964844 188.359375 212.785156 C 189.285156 209.605469 190.761719 207.4375 192.707031 204.773438 C 193.625 203.503906 194.507812 202.167969 195.058594 200.722656 C 196.1875 203.101562 197.59375 205.378906 199.078125 207.625 C 199.652344 208.496094 200.253906 209.34375 200.851562 210.203125 C 200.4375 214.652344 198.570312 218.558594 196.460938 222.722656 C 194.34375 226.914062 191.300781 230.976562 189.65625 235.363281 C 188.757812 235.34375 187.859375 235.335938 186.960938 235.324219 Z M 185.476562 202.871094 C 188.09375 199.5625 190.539062 196.148438 192.660156 192.570312 C 192.796875 193.859375 193.050781 195.097656 193.390625 196.300781 C 193.21875 196.460938 193.089844 196.667969 193.011719 196.941406 C 192.066406 200.328125 188.847656 203.34375 186.84375 206.59375 C 186.472656 205.308594 186.023438 204.058594 185.476562 202.871094 Z M 182.917969 235.257812 C 181.90625 235.246094 180.898438 235.234375 179.890625 235.21875 C 179.890625 235.167969 179.898438 235.113281 179.878906 235.058594 C 179.738281 234.648438 179.605469 234.238281 179.472656 233.832031 C 179.417969 233.65625 179.3125 233.546875 179.1875 233.46875 C 179.15625 233.398438 179.121094 233.332031 179.097656 233.261719 C 179.089844 233.234375 179.089844 233.207031 179.089844 233.1875 C 178.578125 230.234375 177.199219 227.367188 176.15625 224.558594 C 175.324219 222.308594 174.5625 220.003906 173.574219 217.8125 C 176.34375 213.785156 179.609375 210 182.695312 206.304688 C 183.089844 211.195312 183.820312 215.949219 183.765625 220.894531 C 183.714844 225.695312 183.324219 230.476562 182.917969 235.257812 Z M 166.765625 235.058594 C 166.773438 235.042969 166.773438 235.039062 166.773438 235.023438 C 167.144531 230.042969 168.890625 225.546875 171.324219 221.355469 C 171.921875 223.125 172.609375 224.878906 173.226562 226.625 C 174.125 229.183594 174.839844 231.90625 176.183594 234.273438 C 176.222656 234.570312 176.265625 234.875 176.304688 235.175781 C 173.128906 235.136719 169.949219 235.089844 166.765625 235.058594 Z M 174.066406 258.835938 C 173.996094 258.667969 173.925781 258.492188 173.859375 258.316406 C 174.074219 258.34375 174.28125 258.367188 174.496094 258.394531 C 174.601562 258.410156 174.703125 258.414062 174.808594 258.429688 C 174.550781 258.550781 174.300781 258.6875 174.066406 258.835938 Z M 160.019531 234.992188 C 160.003906 234.726562 159.988281 234.453125 159.964844 234.183594 C 160.019531 234.089844 160.066406 233.992188 160.082031 233.859375 C 160.496094 229.023438 160.378906 224.144531 160.816406 219.304688 C 160.855469 218.910156 160.898438 218.519531 160.945312 218.121094 C 161.570312 216.035156 161.902344 213.621094 161.921875 211.253906 C 162.140625 209.738281 162.339844 208.234375 162.449219 206.722656 C 165.5 197.25 175.960938 194.183594 183.683594 189.210938 C 185.328125 188.15625 183.902344 185.808594 182.167969 186.625 C 180.683594 187.324219 179.121094 188.023438 177.527344 188.75 C 177.664062 188.3125 177.808594 187.875 177.976562 187.449219 C 178.402344 186.359375 178.941406 185.324219 179.550781 184.328125 C 179.835938 183.867188 179.136719 183.476562 178.832031 183.910156 C 177.855469 185.285156 177.066406 186.765625 176.515625 188.367188 C 176.414062 188.648438 176.246094 189.023438 176.128906 189.398438 C 174.925781 189.960938 173.722656 190.542969 172.539062 191.152344 C 172.8125 188.84375 173.234375 186.628906 174.238281 184.417969 C 174.414062 184.027344 173.863281 183.683594 173.65625 184.074219 C 172.390625 186.410156 171.40625 189.09375 171.328125 191.792969 C 167.40625 193.921875 163.761719 196.460938 161.257812 199.878906 C 161.554688 197.421875 161.960938 194.960938 162.515625 192.507812 C 162.785156 192.386719 163.035156 192.183594 163.222656 191.898438 C 165.144531 188.972656 166.789062 185.96875 168.941406 183.183594 C 170.820312 180.765625 172.839844 178.441406 174.824219 176.101562 C 178.570312 175.070312 182.601562 175.152344 185.964844 173 C 186.371094 172.738281 186.011719 172.121094 185.589844 172.347656 C 182.601562 173.964844 179.214844 174.074219 175.960938 174.746094 C 177.703125 172.652344 179.460938 170.496094 181.015625 168.210938 C 184.59375 166.839844 188.757812 165.121094 190.242188 161.664062 C 190.433594 161.210938 189.84375 160.832031 189.5625 161.265625 C 187.890625 163.902344 185.003906 165.355469 182.089844 166.546875 C 183.578125 164.121094 184.792969 161.554688 185.484375 158.777344 C 185.824219 157.421875 183.859375 156.492188 183.160156 157.796875 C 179.832031 164.011719 175.777344 169.402344 171.183594 174.746094 C 169.480469 176.730469 167.628906 178.773438 165.882812 180.914062 C 168.179688 173.671875 170.378906 166.371094 170.285156 158.90625 C 172.617188 154.609375 174.015625 149.425781 173.300781 144.671875 C 173.234375 144.261719 172.582031 144.371094 172.582031 144.769531 C 172.570312 148.992188 171.601562 152.480469 170.132812 156.039062 C 169.96875 154.3125 169.675781 152.574219 169.214844 150.828125 C 168.757812 149.097656 166.292969 149.855469 166.574219 151.554688 C 167.640625 158.023438 166.683594 164.316406 165.039062 170.527344 C 163.242188 167.597656 161.726562 164.578125 160.429688 161.449219 C 161.394531 158.664062 161.550781 155.335938 161.011719 152.480469 C 160.925781 152.054688 160.253906 152.164062 160.253906 152.585938 C 160.253906 154.992188 160.042969 157.246094 159.691406 159.546875 C 158.707031 156.964844 157.863281 154.320312 157.136719 151.601562 C 156.796875 150.308594 154.582031 150.515625 154.734375 151.925781 C 155.578125 159.890625 158.578125 167.429688 163.054688 174.054688 C 163.265625 174.378906 163.542969 174.585938 163.835938 174.710938 C 162.125 180.285156 160.097656 185.808594 158.742188 191.335938 C 157.757812 195.324219 157.160156 199.394531 156.789062 203.480469 C 155.402344 199.636719 153.429688 195.902344 151.148438 192.808594 C 151.011719 192.617188 150.855469 192.476562 150.6875 192.367188 C 152.964844 187.855469 154.5625 183.144531 154.402344 178.300781 C 154.226562 172.976562 151.820312 168.546875 149.039062 164.265625 C 148.683594 163.453125 148.332031 162.648438 148.007812 161.832031 C 147.753906 160.917969 147.53125 159.984375 147.289062 159.066406 C 147.316406 158.847656 147.304688 158.609375 147.246094 158.347656 C 144.875 148.296875 151.332031 137.585938 161.179688 134.632812 C 171.4375 131.558594 182.804688 136.320312 188.90625 144.816406 C 195.550781 154.066406 196.558594 166.0625 193.523438 176.800781 C 190.371094 187.972656 183.273438 196.714844 176.046875 205.515625 C 168.960938 214.144531 162.175781 223.464844 161.675781 235.007812 C 161.121094 235 160.566406 235 160.019531 234.992188 Z M 154.617188 234.960938 C 154.597656 234.804688 154.570312 234.640625 154.5 234.480469 C 152.378906 229.261719 150.121094 224.097656 147.902344 218.925781 C 146.671875 216.054688 145.324219 213.207031 144.363281 210.226562 C 143.773438 208.382812 143.464844 206.574219 143.265625 204.730469 C 145.105469 201.804688 147.132812 198.742188 148.957031 195.566406 C 151.445312 200.566406 153.277344 205.378906 154.886719 210.789062 C 155 211.167969 155.1875 211.453125 155.410156 211.667969 C 155.441406 215.457031 155.609375 219.3125 155.917969 223.125 C 155.835938 226.65625 155.832031 230.191406 156 233.675781 C 156.027344 234.246094 156.242188 234.675781 156.546875 234.972656 C 155.90625 234.964844 155.261719 234.960938 154.617188 234.960938 Z M 134.238281 234.871094 C 131.421875 234.871094 128.613281 234.875 125.796875 234.882812 C 125.917969 234.578125 125.957031 234.21875 125.902344 233.84375 C 130.679688 225.804688 135.460938 217.765625 140.246094 209.730469 C 141.003906 212.667969 142.292969 215.546875 143.347656 218.113281 C 145.648438 223.726562 147.945312 229.355469 150.363281 234.933594 C 144.988281 234.894531 139.613281 234.871094 134.238281 234.871094 Z M 123.609375 220.230469 C 122.523438 215.019531 120.976562 209.882812 118.808594 205.015625 C 118.789062 204.964844 118.757812 204.921875 118.730469 204.875 C 118.273438 198.140625 124.035156 192.808594 127.535156 187.601562 C 127.699219 187.34375 127.863281 187.085938 128.027344 186.824219 C 129.757812 185.929688 131.382812 184.765625 132.929688 183.691406 C 135.25 182.082031 137.214844 180.277344 138.75 177.902344 C 139.007812 177.5 138.390625 177.15625 138.109375 177.53125 C 135.878906 180.582031 132.644531 182.953125 129.21875 184.820312 C 130.597656 182.28125 131.652344 179.625 132.425781 176.859375 C 133.425781 175.632812 134.394531 174.378906 135.410156 173.167969 C 136.839844 171.441406 138.292969 169.675781 139.347656 167.691406 C 139.527344 167.339844 139.042969 166.90625 138.769531 167.242188 C 137.238281 169.175781 135.710938 171.097656 134.101562 172.96875 C 133.777344 173.347656 133.4375 173.726562 133.101562 174.105469 C 133.355469 172.921875 133.5625 171.71875 133.734375 170.507812 C 133.953125 168.871094 131.480469 168.117188 131.1875 169.804688 C 130.765625 172.242188 130.101562 174.550781 129.238281 176.761719 C 128.820312 175.203125 128.359375 172.777344 128.28125 172.46875 C 127.761719 170.339844 127.433594 168.238281 127.304688 166.050781 C 127.273438 165.511719 126.515625 165.523438 126.472656 166.050781 C 126.277344 168.332031 126.648438 170.550781 127.167969 172.773438 C 127.535156 174.328125 127.746094 176.832031 128.566406 178.355469 C 127.296875 181.226562 125.703125 183.933594 123.882812 186.539062 C 124.15625 183.945312 123.785156 181.160156 123.285156 178.90625 C 123.1875 178.453125 122.40625 178.546875 122.457031 179.019531 C 122.796875 182.09375 123.195312 185.902344 122.101562 188.984375 C 121.859375 189.304688 121.617188 189.621094 121.363281 189.9375 C 118.90625 193.066406 116.707031 196.230469 115.59375 199.761719 C 115.21875 197.503906 114.929688 195.234375 114.769531 192.949219 C 114.566406 190.039062 114.515625 187.117188 114.46875 184.210938 C 115.417969 181.230469 116.097656 178.222656 117.382812 175.308594 C 118.464844 172.871094 119.660156 170.480469 120.761719 168.042969 C 124.730469 164.007812 127.519531 158.847656 129.25 153.515625 C 129.410156 153.003906 128.632812 152.800781 128.449219 153.292969 C 126.984375 157.253906 124.9375 160.710938 122.464844 163.902344 C 123.625 160.800781 124.574219 157.375 124.578125 154.054688 C 125.210938 152.730469 125.816406 151.398438 126.394531 150.050781 C 127.441406 147.597656 128.683594 145.097656 128.441406 142.375 C 128.398438 141.855469 127.683594 141.855469 127.636719 142.375 C 127.371094 145.566406 126.023438 148.804688 124.4375 151.898438 C 124.253906 150.582031 123.910156 149.296875 123.316406 148.070312 C 122.808594 147.015625 121.128906 147.550781 121.152344 148.660156 C 121.203125 151.664062 121.332031 154.519531 120.792969 157.445312 C 119.570312 154.332031 117.917969 151.300781 116.433594 148.335938 C 116.238281 147.941406 115.664062 148.234375 115.75 148.628906 C 116.535156 152.410156 118.886719 155.851562 120.289062 159.433594 C 120.296875 159.4375 120.304688 159.445312 120.3125 159.457031 C 119.777344 161.359375 119.066406 163.195312 118.289062 165.003906 C 117.496094 161.851562 116.335938 158.828125 114.769531 155.933594 C 114.5 155.453125 113.832031 155.878906 114.039062 156.355469 C 115.542969 159.761719 116.6875 163.246094 117.453125 166.855469 C 117.222656 167.367188 116.988281 167.871094 116.746094 168.386719 C 115.941406 170.09375 114.980469 171.921875 114.078125 173.808594 C 113.585938 167.878906 112.355469 162.097656 109.070312 156.660156 C 108.191406 155.207031 106.140625 156.480469 106.824219 157.972656 C 109.785156 164.402344 110.253906 171.460938 110.277344 178.582031 C 108.164062 177.496094 105.945312 176.59375 103.8125 175.527344 C 103.148438 173.347656 103.460938 170.953125 103.203125 168.644531 C 102.925781 166.25 102.277344 164.03125 101.328125 161.828125 C 101.152344 161.421875 100.519531 161.710938 100.632812 162.113281 C 101.554688 165.464844 101.976562 168.78125 102.035156 172.25 C 102.050781 173.089844 102.089844 173.90625 102.207031 174.683594 C 101.503906 174.296875 100.828125 173.867188 100.15625 173.421875 C 98.21875 169.292969 97.671875 164.707031 95.285156 160.703125 C 95.082031 160.359375 94.464844 160.585938 94.621094 160.984375 C 95.71875 163.816406 96.585938 166.695312 97.328125 169.644531 C 97.503906 170.359375 97.695312 171.089844 97.933594 171.804688 C 95.796875 170.113281 93.871094 168.164062 92.21875 166.015625 C 91.042969 164.5 88.40625 165.914062 89.558594 167.566406 C 91.09375 169.773438 92.785156 171.777344 94.710938 173.570312 C 91.613281 173.898438 88.773438 173.582031 85.785156 171.675781 C 85.453125 171.460938 85.0625 171.960938 85.363281 172.234375 C 88.179688 174.808594 92.519531 175.878906 96.285156 174.9375 C 97.035156 175.542969 97.808594 176.125 98.628906 176.675781 C 99.503906 177.261719 100.410156 177.800781 101.335938 178.304688 C 97.894531 180.464844 94.972656 182.121094 90.390625 181.097656 C 89.742188 180.953125 89.519531 181.835938 90.117188 182.070312 C 94.691406 183.839844 99.277344 182.082031 102.890625 179.128906 C 105.34375 180.382812 107.867188 181.5 110.257812 182.867188 C 110.214844 187.691406 110.15625 192.5 110.730469 197.101562 C 110.859375 198.171875 111.015625 199.234375 111.191406 200.296875 C 110.84375 200.175781 110.507812 200.066406 110.171875 199.957031 C 110.078125 199.753906 109.875 199.605469 109.601562 199.574219 C 109.570312 199.566406 109.539062 199.566406 109.507812 199.5625 C 109.402344 199.546875 109.304688 199.585938 109.210938 199.644531 C 109.179688 199.632812 109.160156 199.625 109.140625 199.621094 C 108.863281 199.152344 107.019531 197.730469 106.726562 197.464844 C 105.753906 196.550781 104.867188 195.550781 104.085938 194.46875 C 102.785156 192.683594 101.878906 190.722656 100.953125 188.734375 C 100.769531 188.347656 100.226562 188.636719 100.296875 188.996094 C 100.828125 191.585938 102.128906 193.972656 103.742188 196.042969 C 104.382812 196.875 105.171875 197.824219 106.042969 198.683594 C 104.007812 198.101562 101.945312 197.523438 99.929688 196.847656 C 97.507812 194.246094 96.082031 190.730469 94.347656 187.6875 C 94.082031 187.207031 93.390625 187.628906 93.617188 188.109375 C 94.816406 190.652344 95.941406 193.566406 97.585938 195.992188 C 94.878906 194.917969 92.324219 193.546875 90.136719 191.554688 C 88.902344 190.433594 87.222656 192.132812 88.3125 193.378906 C 90.320312 195.660156 92.683594 197.363281 95.265625 198.71875 C 93.761719 199.253906 92.238281 199.761719 90.703125 200.28125 C 90.207031 200.445312 90.40625 201.164062 90.917969 201.054688 C 92.675781 200.675781 94.4375 200.351562 96.175781 199.867188 C 96.46875 199.78125 96.765625 199.699219 97.074219 199.601562 C 98.964844 200.464844 100.957031 201.175781 102.988281 201.832031 C 103.257812 201.921875 103.539062 202.007812 103.820312 202.089844 C 103.414062 202.398438 103.003906 202.6875 102.542969 202.933594 C 101.414062 203.550781 100.253906 203.992188 99.246094 204.816406 C 98.886719 205.109375 99.363281 205.730469 99.738281 205.464844 C 100.945312 204.621094 102.441406 204.335938 103.714844 203.609375 C 104.261719 203.292969 104.828125 202.933594 105.34375 202.519531 C 107.535156 203.125 109.839844 203.738281 111.671875 204.859375 C 111.828125 204.957031 111.96875 205.0625 112.113281 205.179688 C 112.914062 208.917969 113.929688 212.613281 115.09375 216.273438 C 116.042969 219.246094 116.988281 222.425781 118.085938 225.550781 C 114.808594 222.808594 110.996094 220.699219 107.058594 218.707031 C 99.734375 214.988281 92.78125 211.234375 87.894531 204.402344 C 83.078125 197.671875 80.425781 189.59375 79.117188 181.5 C 77.632812 172.375 77.46875 162.15625 81.445312 153.605469 C 85.558594 144.769531 93.5 139.648438 102.421875 136.445312 C 110.128906 133.667969 120.421875 129.035156 128.203125 133.550781 C 131.515625 135.46875 134.101562 138.667969 135.074219 142.394531 C 136.171875 146.617188 135.773438 150.859375 137.472656 154.988281 C 140.316406 161.890625 146.296875 167.265625 148.507812 174.429688 C 150.160156 179.785156 148.429688 185.007812 145.929688 189.800781 C 143.289062 194.863281 140.160156 199.699219 137.226562 204.597656 C 133.054688 211.578125 128.878906 218.550781 124.703125 225.53125 C 124.359375 223.691406 123.949219 221.886719 123.609375 220.230469 Z M 302.886719 282.253906 C 302.839844 275.132812 302.804688 268.023438 302.679688 260.90625 C 302.621094 257.457031 302.585938 254.003906 302.476562 250.550781 C 302.410156 248.726562 302.574219 246.59375 302.398438 244.574219 C 303.21875 242.984375 302.96875 240.929688 301.085938 240.246094 C 300.21875 238.96875 298.621094 238.769531 297.503906 239.625 C 287.84375 238.238281 277.890625 237.933594 268.066406 237.632812 C 280.207031 224.398438 297.714844 215.714844 302.527344 197.152344 C 305.1875 186.894531 304.382812 176.09375 303.570312 165.640625 C 302.789062 155.648438 301.285156 145.253906 294.019531 137.714844 C 287.324219 130.765625 277.347656 127.367188 267.78125 128.179688 C 263.109375 128.574219 258.609375 129.820312 254.351562 131.738281 C 254.28125 131.492188 254.140625 131.253906 253.898438 131.039062 C 239.976562 118.972656 216.652344 123.496094 206.40625 138.1875 C 203.082031 142.964844 201.015625 148.503906 199.484375 154.253906 C 197.761719 147.65625 194.429688 141.511719 189.441406 136.777344 C 181.269531 129.015625 168.582031 125.632812 157.894531 129.871094 C 148.734375 133.5 142.210938 142.878906 142.253906 152.558594 C 141.257812 149.484375 141.023438 146.402344 140.484375 142.949219 C 139.84375 138.882812 137.878906 135.09375 134.9375 132.195312 C 127.621094 124.984375 118.339844 125.992188 109.273438 128.8125 C 100.070312 131.667969 90.429688 134.847656 83.535156 141.90625 C 69.996094 155.746094 71.226562 179.226562 77.953125 196.0625 C 81.539062 205.042969 87.351562 212.820312 95.707031 217.890625 C 103.761719 222.769531 114.144531 225.382812 120.324219 232.863281 C 119.914062 233.539062 119.511719 234.21875 119.101562 234.902344 C 116.367188 234.914062 113.628906 234.921875 110.890625 234.941406 C 107 234.964844 103.109375 234.992188 99.21875 235.03125 C 95.101562 235.070312 91.296875 234.765625 87.492188 236.542969 C 85.5 237.46875 85.011719 240.421875 86.15625 242.214844 C 85.816406 247.515625 86.488281 252.847656 86.949219 258.160156 C 87.449219 263.949219 88.050781 269.730469 88.609375 275.519531 C 89.753906 287.308594 90.984375 299.082031 92.175781 310.863281 C 92.214844 311.261719 92.304688 311.617188 92.421875 311.957031 C 91.765625 314.011719 92.46875 316.535156 95.15625 317.300781 C 120.363281 324.488281 147.160156 322.875 173.070312 322.667969 C 200 322.445312 226.925781 322.273438 253.855469 321.84375 C 261.394531 321.71875 268.933594 321.601562 276.472656 321.476562 C 283.402344 321.371094 290.40625 321.273438 297.277344 320.253906 C 297.714844 320.320312 298.175781 320.277344 298.664062 320.097656 C 298.75 320.066406 298.828125 320.03125 298.90625 319.996094 C 299.007812 319.980469 299.121094 319.96875 299.230469 319.949219 C 300.289062 319.761719 300.921875 319.117188 301.1875 318.324219 C 304.023438 314.894531 302.9375 308.375 302.9375 304.253906 C 302.9375 296.917969 302.925781 289.585938 302.886719 282.253906 " fill-opacity="1" fill-rule="nonzero"/><path fill="#7a890c" d="M 193.390625 196.300781 C 193.21875 196.460938 193.089844 196.667969 193.011719 196.941406 C 192.066406 200.328125 188.847656 203.34375 186.84375 206.59375 C 186.472656 205.308594 186.023438 204.058594 185.476562 202.871094 C 188.09375 199.5625 190.539062 196.148438 192.660156 192.570312 C 192.796875 193.859375 193.050781 195.097656 193.390625 196.300781 " fill-opacity="1" fill-rule="nonzero"/><path fill="#7a890c" d="M 200.851562 210.203125 C 200.4375 214.652344 198.570312 218.558594 196.460938 222.722656 C 194.34375 226.914062 191.300781 230.976562 189.65625 235.363281 C 188.757812 235.34375 187.859375 235.335938 186.960938 235.324219 C 188.054688 231.699219 188.53125 227.746094 188.640625 223.871094 C 190.28125 222.042969 191.636719 219.816406 192.972656 217.863281 C 195.003906 214.886719 196.746094 211.84375 198.359375 208.632812 C 199.191406 206.984375 196.902344 205.648438 195.890625 207.183594 C 194.03125 210 192.144531 212.804688 190.246094 215.585938 C 189.714844 216.367188 189.132812 217.128906 188.542969 217.902344 C 188.457031 216.378906 188.335938 214.820312 188.144531 213.257812 C 188.230469 213.121094 188.304688 212.964844 188.359375 212.785156 C 189.285156 209.605469 190.761719 207.4375 192.707031 204.773438 C 193.625 203.503906 194.507812 202.167969 195.058594 200.722656 C 196.1875 203.101562 197.59375 205.378906 199.078125 207.625 C 199.652344 208.496094 200.253906 209.34375 200.851562 210.203125 " fill-opacity="1" fill-rule="nonzero"/><path fill="#7a890c" d="M 236.671875 235.023438 C 236.570312 231.417969 234.832031 227.707031 233.984375 224.191406 C 233.71875 223.078125 233.46875 221.972656 233.230469 220.863281 C 236.269531 224.476562 238.785156 228.4375 240.015625 233.429688 C 240.140625 233.933594 240.464844 234.226562 240.847656 234.332031 C 240.917969 235.089844 240.960938 235.863281 240.960938 236.640625 C 239.171875 236.582031 237.386719 236.523438 235.605469 236.464844 C 236.203125 236.304688 236.691406 235.8125 236.671875 235.023438 " fill-opacity="1" fill-rule="nonzero"/><path fill="#7a890c" d="M 224.316406 135.75 C 224.445312 137.210938 224.707031 138.648438 224.949219 140.097656 C 225.203125 141.589844 225.316406 143.179688 225.839844 144.597656 C 225.9375 144.871094 226.09375 145.09375 226.28125 145.273438 C 223.992188 146.496094 221.921875 148.082031 220.082031 149.90625 C 219.015625 148.609375 217.753906 147.441406 216.660156 146.449219 C 215.59375 145.46875 213.640625 146.761719 214.550781 148.070312 C 215.4375 149.34375 216.222656 150.667969 217.078125 151.964844 C 217.246094 152.210938 217.402344 152.472656 217.566406 152.734375 C 217.433594 152.898438 217.296875 153.058594 217.175781 153.222656 C 211.898438 160.136719 209.347656 168.957031 209.515625 177.597656 C 209.746094 189.09375 214.214844 200.199219 221.824219 208.800781 C 222.171875 209.1875 222.527344 209.566406 222.882812 209.949219 C 215.449219 204.386719 210.753906 195.765625 206.851562 187.261719 C 206.253906 185.960938 204.234375 186.890625 204.585938 188.207031 C 207.941406 200.75 216.683594 212.511719 229.019531 217.304688 C 229.328125 219.738281 229.769531 222.152344 230.308594 224.578125 C 231.113281 228.175781 231.679688 232.722656 233.769531 235.8125 C 233.972656 236.113281 234.265625 236.324219 234.578125 236.433594 C 233.410156 236.394531 232.25 236.347656 231.078125 236.316406 C 231.324219 235.542969 231.148438 234.683594 230.285156 233.980469 C 221.894531 227.222656 214.257812 219.542969 207.8125 210.910156 C 204.800781 206.886719 201.660156 202.628906 199.542969 198.050781 C 196.882812 192.273438 197.976562 186.304688 199.269531 180.332031 C 201.535156 169.890625 203.109375 158.882812 206.773438 148.808594 C 209.933594 140.117188 216.023438 133.429688 224.941406 130.511719 C 233.765625 127.625 243.300781 128.710938 251.335938 133.277344 C 247.355469 135.644531 243.992188 138.921875 239.867188 141.003906 C 236.527344 142.691406 232.730469 142.945312 229.171875 144.082031 C 229.160156 142.644531 228.765625 141.207031 228.5 139.796875 C 228.222656 138.292969 227.96875 136.789062 227.570312 135.308594 C 227.097656 133.570312 224.148438 133.847656 224.316406 135.75 " fill-opacity="1" fill-rule="nonzero"/><path fill="#7a890c" d="M 183.765625 220.894531 C 183.714844 225.695312 183.324219 230.476562 182.917969 235.257812 C 181.90625 235.246094 180.898438 235.234375 179.890625 235.21875 C 179.890625 235.167969 179.898438 235.113281 179.878906 235.058594 C 179.738281 234.648438 179.605469 234.238281 179.472656 233.832031 C 179.417969 233.65625 179.3125 233.546875 179.1875 233.46875 C 179.15625 233.398438 179.121094 233.332031 179.097656 233.261719 C 179.089844 233.234375 179.089844 233.207031 179.089844 233.1875 C 178.578125 230.234375 177.199219 227.367188 176.15625 224.558594 C 175.324219 222.308594 174.5625 220.003906 173.574219 217.8125 C 176.34375 213.785156 179.609375 210 182.695312 206.304688 C 183.089844 211.195312 183.820312 215.949219 183.765625 220.894531 " fill-opacity="1" fill-rule="nonzero"/></svg>