<svg xmlns="http://www.w3.org/2000/svg" xmlns:xlink="http://www.w3.org/1999/xlink" width="500" zoomAndPan="magnify" viewBox="0 0 375 374.999991" height="500" preserveAspectRatio="xMidYMid meet" version="1.0"><defs><clipPath id="0376460a99"><path d="M 127 247.433594 L 234.304688 247.433594 L 234.304688 310.667969 L 127 310.667969 Z M 127 247.433594 " clip-rule="nonzero"/></clipPath><clipPath id="291516c5c9"><path d="M 127 248 L 158 248 L 158 310.667969 L 127 310.667969 Z M 127 248 " clip-rule="nonzero"/></clipPath><clipPath id="58e5f970e5"><path d="M 149 104.417969 L 214 104.417969 L 214 234 L 149 234 Z M 149 104.417969 " clip-rule="nonzero"/></clipPath><clipPath id="8209330b27"><path d="M 176.769531 138 L 257.882812 138 L 257.882812 232.8125 L 176.769531 232.8125 Z M 176.769531 138 " clip-rule="nonzero"/></clipPath></defs><g clip-path="url(#0376460a99)"><path fill="#dd9f36" d="M 180.367188 250.292969 C 140.65625 250.292969 130.71875 248.832031 127.078125 248.019531 L 136.875 302.359375 C 136.875 302.359375 137.109375 308.257812 142.699219 308.699219 C 148.292969 309.148438 156.441406 310.667969 180.667969 310.667969 C 204.898438 310.667969 213.046875 309.148438 218.640625 308.699219 C 224.226562 308.257812 224.464844 302.359375 224.464844 302.359375 L 234.289062 247.871094 C 231.164062 248.640625 222.613281 250.292969 180.367188 250.292969 " fill-opacity="1" fill-rule="nonzero"/></g><g clip-path="url(#291516c5c9)"><path fill="#c99136" d="M 153.703125 303.871094 L 143.195312 249.621094 C 133.121094 249.128906 129.113281 248.46875 127.082031 248.019531 L 136.875 302.359375 C 136.875 302.359375 137.109375 308.257812 142.699219 308.699219 C 145.851562 308.953125 149.816406 309.546875 157.015625 310.015625 C 153.933594 307.921875 153.703125 303.871094 153.703125 303.871094 " fill-opacity="1" fill-rule="nonzero"/></g><path fill="#b87d33" d="M 142.449219 305.117188 L 132.066406 248.800781 C 129.585938 248.515625 128.089844 248.242188 127.082031 248.019531 L 136.875 302.359375 C 136.875 302.359375 137.109375 308.257812 142.699219 308.699219 C 142.972656 308.722656 143.265625 308.75 143.554688 308.777344 C 142.539062 306.96875 142.449219 305.117188 142.449219 305.117188 " fill-opacity="1" fill-rule="nonzero"/><path fill="#c37928" d="M 180.632812 223.214844 C 154.117188 223.152344 120.457031 226.355469 120.457031 229.53125 C 120.460938 229.53125 121.097656 243.039062 121.230469 244.210938 C 121.363281 245.382812 122.84375 246.839844 125.320312 247.515625 C 127.792969 248.1875 131.980469 251.007812 180.367188 251.007812 C 228.757812 251.007812 232.945312 248.1875 235.421875 247.515625 C 237.894531 246.839844 239.378906 245.382812 239.507812 244.210938 C 239.640625 243.039062 240.589844 229.53125 240.589844 229.53125 C 240.589844 226.355469 207.15625 223.28125 180.632812 223.214844 " fill-opacity="1" fill-rule="nonzero"/><path fill="#b66d29" d="M 143.21875 245.574219 C 143.019531 244.136719 141.949219 231.976562 141.34375 225.085938 C 129.234375 226.28125 120.460938 227.910156 120.460938 229.53125 C 120.460938 229.53125 121.097656 243.039062 121.230469 244.210938 C 121.363281 245.382812 122.84375 246.839844 125.320312 247.515625 C 127.035156 247.980469 129.589844 249.480469 147.140625 250.351562 C 144.855469 249.136719 143.441406 247.21875 143.21875 245.574219 " fill-opacity="1" fill-rule="nonzero"/><path fill="#a8621e" d="M 237.761719 245.644531 C 235.21875 246.339844 230.898438 249.238281 181.042969 249.238281 C 131.199219 249.238281 126.878906 246.339844 124.328125 245.644531 C 122.988281 245.277344 121.9375 244.6875 121.21875 244.035156 C 121.222656 244.105469 121.226562 244.171875 121.230469 244.210938 C 121.363281 245.382812 122.84375 246.839844 125.320312 247.515625 C 127.792969 248.1875 131.980469 251.007812 180.367188 251.007812 C 228.757812 251.007812 232.945312 248.1875 235.421875 247.515625 C 237.273438 247.007812 238.570312 246.0625 239.15625 245.128906 C 238.730469 245.328125 238.273438 245.503906 237.765625 245.644531 " fill-opacity="1" fill-rule="nonzero"/><path fill="#a05a28" d="M 180.636719 236.273438 C 201.945312 236.273438 240.589844 232.707031 240.589844 229.53125 C 240.589844 226.355469 207.15625 223.28125 180.632812 223.214844 C 154.117188 223.152344 120.457031 226.355469 120.457031 229.53125 C 120.460938 232.707031 159.332031 236.273438 180.636719 236.273438 " fill-opacity="1" fill-rule="nonzero"/><path fill="#6a2f17" d="M 180.628906 234.964844 C 160.425781 234.964844 125.011719 231.554688 125.011719 229.515625 C 125.007812 227.476562 155.054688 224.523438 179.910156 224.523438 L 180.628906 224.527344 C 205.761719 224.585938 236.035156 227.617188 236.035156 229.515625 C 236.035156 231.417969 200.757812 234.964844 180.628906 234.964844 " fill-opacity="1" fill-rule="nonzero"/><path fill="#efeebd" d="M 205.933594 152.410156 C 209.703125 145.152344 215.140625 140.0625 220.847656 132.878906 C 226.558594 125.691406 226.558594 119.429688 226.558594 116.480469 C 226.558594 113.53125 228.765625 117.402344 230.789062 121.640625 C 232.816406 125.878906 249.9375 157.378906 241.472656 180.964844 C 233 204.546875 209.984375 216.152344 206.304688 217.441406 C 202.621094 218.734375 189.179688 184.648438 205.933594 152.40625 " fill-opacity="1" fill-rule="nonzero"/><path fill="#aecb87" d="M 118.105469 177.832031 C 117.984375 171.835938 123.445312 157.015625 131.914062 140.246094 C 140.386719 123.480469 143.144531 108.925781 143.332031 107.269531 C 143.515625 105.609375 144.25 111.136719 147.195312 117.21875 C 150.144531 123.296875 161.738281 132.625 166.53125 143.378906 C 172.605469 157.015625 181.261719 227.023438 173.527344 229.605469 C 165.792969 232.179688 155.851562 232.921875 139.460938 220.394531 C 123.074219 207.863281 118.472656 195.890625 118.105469 177.832031 " fill-opacity="1" fill-rule="nonzero"/><path fill="#98b776" d="M 164.878906 226.386719 C 163.777344 225.363281 162.765625 224.421875 162.152344 223.75 C 162.148438 223.75 162.148438 223.746094 162.148438 223.746094 C 162.144531 223.746094 162.144531 223.742188 162.140625 223.742188 C 162.132812 223.738281 162.132812 223.734375 162.128906 223.726562 C 162.125 223.726562 162.125 223.722656 162.125 223.722656 L 162.117188 223.714844 C 162.113281 223.710938 162.113281 223.710938 162.113281 223.707031 C 161.429688 222.960938 160.753906 222.175781 160.085938 221.375 C 160.085938 221.371094 160.078125 221.371094 160.074219 221.371094 C 157.105469 217.824219 154.144531 213.703125 150.695312 208.601562 C 148.996094 206.085938 145.78125 202.828125 141.984375 199.300781 C 141.367188 189.757812 141.644531 179.851562 144.25 171.75 C 150.371094 152.71875 159.167969 141.535156 160.269531 140.617188 C 160.375 140.527344 160.453125 140.488281 160.507812 140.488281 C 161.035156 140.488281 159.480469 144.148438 159.167969 146.511719 C 159.035156 147.503906 158.933594 148.507812 158.863281 149.523438 C 156.34375 152.773438 154.304688 156.003906 153.089844 159.128906 C 147.933594 172.398438 150.097656 186.125 152.675781 198.652344 C 154.148438 205.820312 158.6875 216.554688 163.4375 224.179688 L 163.445312 224.191406 L 163.445312 224.195312 C 163.925781 224.960938 164.398438 225.691406 164.878906 226.386719 " fill-opacity="1" fill-rule="nonzero"/><g clip-path="url(#58e5f970e5)"><path fill="#cae9b0" d="M 153.089844 159.128906 C 156.675781 149.898438 167.449219 139.789062 176.519531 130.851562 C 184.234375 123.246094 184.988281 112.980469 185.171875 108.375 C 185.355469 103.769531 185.355469 103.402344 188.121094 106.164062 C 190.878906 108.925781 206.535156 125.691406 210.953125 148.171875 C 215.371094 170.648438 214.265625 186.859375 209.847656 194.597656 C 205.429688 202.335938 179.328125 232 173.25 233.289062 C 167.175781 234.582031 155.253906 211.183594 152.675781 198.65625 C 150.097656 186.125 147.933594 172.402344 153.089844 159.132812 " fill-opacity="1" fill-rule="nonzero"/></g><path fill="#5c2d19" d="M 172.75 233.34375 C 172.519531 233.34375 172.277344 233.308594 172.023438 233.246094 L 172.03125 233.246094 C 172.277344 233.308594 172.519531 233.34375 172.75 233.34375 C 172.921875 233.34375 173.089844 233.324219 173.25 233.285156 C 173.089844 233.324219 172.921875 233.34375 172.75 233.34375 M 173.257812 233.285156 L 173.265625 233.285156 L 173.257812 233.285156 M 173.265625 233.285156 C 173.273438 233.28125 173.28125 233.28125 173.285156 233.28125 C 173.28125 233.28125 173.273438 233.28125 173.265625 233.285156 M 171.140625 232.90625 C 170.847656 232.761719 170.550781 232.582031 170.246094 232.375 C 170.550781 232.582031 170.847656 232.761719 171.140625 232.90625 " fill-opacity="1" fill-rule="nonzero"/><path fill="#80a865" d="M 164.878906 226.386719 C 164.398438 225.691406 163.925781 224.960938 163.445312 224.195312 C 163.925781 224.960938 164.398438 225.691406 164.878906 226.386719 M 163.445312 224.191406 L 163.4375 224.179688 C 163.441406 224.183594 163.441406 224.191406 163.445312 224.191406 " fill-opacity="1" fill-rule="nonzero"/><path fill="#a7d28c" d="M 172.75 233.34375 C 172.519531 233.34375 172.277344 233.308594 172.03125 233.246094 C 172.253906 233.285156 172.496094 233.308594 172.75 233.308594 C 172.921875 233.308594 173.097656 233.300781 173.285156 233.28125 C 173.28125 233.28125 173.273438 233.28125 173.265625 233.285156 L 173.25 233.285156 C 173.089844 233.324219 172.921875 233.34375 172.75 233.34375 M 171.140625 232.90625 C 170.847656 232.761719 170.550781 232.582031 170.246094 232.375 C 170.167969 231.304688 167.304688 228.640625 164.878906 226.386719 C 164.398438 225.691406 163.925781 224.960938 163.445312 224.195312 L 163.445312 224.191406 C 163.441406 224.191406 163.441406 224.183594 163.4375 224.179688 C 159.71875 218.214844 156.132812 210.351562 154.042969 203.769531 C 158.566406 199.726562 166.820312 191.03125 172.148438 178.476562 C 183.285156 152.222656 184.019531 145.316406 183.746094 143.378906 C 183.625 142.511719 183.773438 141.976562 184.109375 141.976562 C 184.519531 141.976562 185.195312 142.78125 185.957031 144.761719 C 186.851562 147.097656 189.035156 152.582031 190.980469 158.566406 C 189.582031 164.328125 186.871094 170.816406 179.191406 182.898438 C 175.320312 188.980469 170.628906 196.578125 170.492188 212.378906 C 170.402344 222.203125 171.039062 217.90625 170.03125 229.605469 C 169.878906 231.308594 170.292969 232.378906 171.140625 232.90625 " fill-opacity="1" fill-rule="nonzero"/><path fill="#678c4c" d="M 169.203125 232.828125 C 156.675781 231.355469 147.566406 232.734375 130.257812 220.394531 C 112.835938 207.964844 110.554688 193.496094 108.160156 183.726562 C 105.769531 173.960938 109.453125 158.667969 110.003906 155.910156 C 110.554688 153.144531 111.292969 155.910156 111.476562 158.667969 C 111.660156 161.4375 115.527344 175.253906 124.179688 183.359375 C 132.835938 191.464844 146.460938 202.335938 150.695312 208.601562 C 154.933594 214.863281 158.429688 219.652344 162.113281 223.707031 C 164.476562 226.316406 173.222656 233.300781 169.203125 232.828125 " fill-opacity="1" fill-rule="nonzero"/><path fill="#678c4c" d="M 115.949219 171.808594 C 113 165.875 111.585938 160.316406 111.476562 158.667969 C 111.292969 155.910156 110.554688 153.144531 110.003906 155.910156 C 109.820312 156.816406 109.300781 159.09375 108.765625 162.078125 C 110.625 165.527344 113.007812 168.996094 115.949219 171.808594 " fill-opacity="1" fill-rule="nonzero"/><path fill="#532c1a" d="M 169.554688 232.851562 C 170.058594 232.851562 170.261719 232.675781 170.246094 232.375 C 170.261719 232.675781 170.058594 232.851562 169.554688 232.851562 " fill-opacity="1" fill-rule="nonzero"/><path fill="#709944" d="M 164.878906 226.386719 C 163.777344 225.363281 162.765625 224.421875 162.152344 223.75 C 162.765625 224.421875 163.777344 225.363281 164.878906 226.386719 " fill-opacity="1" fill-rule="nonzero"/><path fill="#79ab49" d="M 170.246094 232.375 C 170.167969 231.304688 167.304688 228.640625 164.878906 226.386719 C 167.304688 228.640625 170.167969 231.304688 170.246094 232.375 " fill-opacity="1" fill-rule="nonzero"/><path fill="#709944" d="M 162.148438 223.746094 C 162.144531 223.746094 162.144531 223.742188 162.140625 223.742188 C 162.144531 223.742188 162.144531 223.746094 162.148438 223.746094 M 162.140625 223.742188 C 162.132812 223.738281 162.132812 223.734375 162.128906 223.726562 C 162.132812 223.734375 162.132812 223.738281 162.140625 223.742188 M 162.117188 223.714844 C 162.113281 223.710938 162.113281 223.710938 162.113281 223.707031 C 162.113281 223.710938 162.113281 223.710938 162.117188 223.714844 M 162.113281 223.707031 C 161.425781 222.957031 160.75 222.179688 160.074219 221.371094 C 160.078125 221.371094 160.085938 221.371094 160.085938 221.375 C 160.753906 222.175781 161.429688 222.960938 162.113281 223.707031 " fill-opacity="1" fill-rule="nonzero"/><path fill="#50793a" d="M 169.554688 232.851562 C 169.449219 232.851562 169.332031 232.84375 169.203125 232.828125 C 156.675781 231.355469 147.566406 232.734375 130.257812 220.394531 C 121.96875 214.480469 117.109375 208.101562 114.035156 201.988281 C 116.316406 204.386719 119.019531 206.757812 122.25 209.0625 C 139.039062 221.039062 148.117188 220.097656 160.074219 221.371094 C 160.75 222.179688 161.425781 222.957031 162.113281 223.707031 C 162.113281 223.710938 162.113281 223.710938 162.117188 223.714844 L 162.125 223.722656 C 162.125 223.722656 162.125 223.726562 162.128906 223.726562 C 162.132812 223.734375 162.132812 223.738281 162.140625 223.742188 C 162.144531 223.742188 162.144531 223.746094 162.148438 223.746094 C 162.148438 223.746094 162.148438 223.75 162.152344 223.75 C 162.765625 224.421875 163.777344 225.363281 164.878906 226.386719 C 167.304688 228.640625 170.167969 231.304688 170.246094 232.375 C 170.261719 232.675781 170.058594 232.851562 169.554688 232.851562 " fill-opacity="1" fill-rule="nonzero"/><path fill="#f0f59c" d="M 170.03125 229.605469 C 171.039062 217.90625 170.402344 222.203125 170.492188 212.378906 C 170.628906 196.578125 175.320312 188.980469 179.191406 182.898438 C 192.855469 161.410156 190.789062 157.613281 193.597656 144.117188 C 194.839844 138.160156 196.53125 145.824219 198.386719 154.015625 C 201.007812 165.628906 210.257812 182.625 206.484375 197.359375 C 201.105469 218.367188 168.894531 242.726562 170.03125 229.605469 " fill-opacity="1" fill-rule="nonzero"/><g clip-path="url(#8209330b27)"><path fill="#80d085" d="M 221.21875 196.996094 C 229.683594 189.070312 240.917969 180.964844 244.234375 169.171875 C 247.546875 157.378906 247.914062 148.90625 247.546875 142.460938 C 247.179688 136.011719 248.835938 136.007812 251.410156 146.144531 C 253.992188 156.277344 257.488281 170.460938 257.859375 180.226562 C 258.230469 189.996094 254.542969 210.441406 235.761719 220.023438 C 222.457031 226.8125 177.710938 233.417969 177.027344 232.460938 C 175.183594 229.878906 186.542969 219.355469 193.136719 214.957031 C 203.082031 208.324219 208.507812 208.882812 221.21875 196.996094 " fill-opacity="1" fill-rule="nonzero"/></g><path fill="#d0d687" d="M 221.46875 196.757812 L 221.488281 196.738281 L 221.46875 196.757812 M 221.492188 196.738281 C 225.476562 193.03125 230.03125 189.277344 234.082031 185.121094 C 234.078125 185.125 234.078125 185.128906 234.078125 185.132812 C 230.03125 189.285156 225.476562 193.039062 221.492188 196.738281 " fill-opacity="1" fill-rule="nonzero"/><path fill="#70c06a" d="M 180.167969 230.382812 C 186.378906 226.519531 194.179688 219.238281 199.816406 211.082031 C 206.183594 207.847656 211.625 205.964844 221.21875 196.996094 C 221.296875 196.921875 221.375 196.847656 221.457031 196.769531 L 221.488281 196.738281 L 221.492188 196.738281 C 225.476562 193.039062 230.03125 189.285156 234.078125 185.132812 C 233.578125 195.65625 228.902344 213.0625 212.007812 221.679688 C 205.742188 224.878906 192.496094 228.035156 180.167969 230.382812 " fill-opacity="1" fill-rule="nonzero"/><path fill="#e8e7ce" d="M 200.65625 209.832031 C 200.808594 209.601562 200.960938 209.367188 201.109375 209.128906 C 200.960938 209.367188 200.808594 209.601562 200.65625 209.832031 " fill-opacity="1" fill-rule="nonzero"/><path fill="#dad99c" d="M 201.109375 209.128906 C 202.816406 206.453125 204.257812 203.703125 205.320312 200.96875 C 204.257812 203.703125 202.816406 206.453125 201.109375 209.128906 " fill-opacity="1" fill-rule="nonzero"/><path fill="#b8d794" d="M 205.320312 200.96875 C 205.734375 199.894531 206.089844 198.820312 206.382812 197.757812 C 206.089844 198.820312 205.734375 199.894531 205.320312 200.96875 M 206.382812 197.757812 C 206.386719 197.742188 206.390625 197.726562 206.394531 197.707031 C 206.390625 197.726562 206.386719 197.738281 206.382812 197.757812 M 206.394531 197.707031 C 206.410156 197.660156 206.417969 197.609375 206.433594 197.5625 C 206.417969 197.609375 206.410156 197.660156 206.394531 197.707031 M 206.433594 197.554688 C 206.4375 197.546875 206.4375 197.542969 206.441406 197.539062 C 206.4375 197.542969 206.4375 197.550781 206.433594 197.554688 M 206.441406 197.535156 C 206.441406 197.523438 206.441406 197.519531 206.445312 197.515625 C 206.441406 197.519531 206.441406 197.523438 206.441406 197.535156 M 206.445312 197.507812 C 206.449219 197.5 206.449219 197.496094 206.449219 197.488281 C 206.449219 197.492188 206.449219 197.5 206.445312 197.507812 M 206.457031 197.484375 C 206.457031 197.480469 206.460938 197.46875 206.460938 197.464844 C 206.460938 197.46875 206.457031 197.472656 206.457031 197.484375 M 206.460938 197.457031 C 206.460938 197.453125 206.464844 197.445312 206.464844 197.441406 C 206.464844 197.445312 206.460938 197.453125 206.460938 197.457031 M 206.46875 197.433594 L 206.46875 197.417969 L 206.46875 197.433594 M 206.472656 197.410156 C 206.472656 197.40625 206.472656 197.398438 206.480469 197.390625 C 206.472656 197.398438 206.472656 197.40625 206.472656 197.410156 M 206.480469 197.382812 C 206.484375 197.378906 206.484375 197.367188 206.484375 197.359375 C 206.484375 197.367188 206.484375 197.378906 206.480469 197.382812 " fill-opacity="1" fill-rule="nonzero"/><path fill="#dbe081" d="M 175.191406 232.835938 L 172.148438 229.742188 C 172.148438 229.742188 171.5 217.8125 178.128906 210.441406 C 184.15625 203.742188 198.078125 197.875 207.375 189.90625 C 207.375 192.429688 207.109375 194.929688 206.484375 197.359375 C 206.484375 197.367188 206.484375 197.378906 206.480469 197.382812 L 206.480469 197.390625 C 206.472656 197.398438 206.472656 197.40625 206.472656 197.410156 C 206.472656 197.410156 206.472656 197.414062 206.46875 197.417969 L 206.46875 197.433594 C 206.46875 197.433594 206.464844 197.4375 206.464844 197.441406 C 206.464844 197.445312 206.460938 197.453125 206.460938 197.457031 L 206.460938 197.464844 C 206.460938 197.46875 206.457031 197.480469 206.457031 197.484375 L 206.453125 197.488281 C 206.453125 197.496094 206.453125 197.5 206.445312 197.507812 L 206.445312 197.515625 C 206.441406 197.519531 206.441406 197.523438 206.441406 197.535156 L 206.441406 197.539062 C 206.4375 197.542969 206.4375 197.546875 206.433594 197.554688 L 206.433594 197.5625 C 206.417969 197.609375 206.410156 197.660156 206.394531 197.707031 C 206.390625 197.726562 206.386719 197.742188 206.382812 197.757812 C 206.089844 198.820312 205.734375 199.894531 205.320312 200.96875 C 204.257812 203.703125 202.816406 206.453125 201.109375 209.128906 C 200.960938 209.367188 200.808594 209.601562 200.65625 209.832031 C 200.382812 210.253906 200.097656 210.667969 199.816406 211.082031 C 197.746094 212.132812 195.578125 213.328125 193.136719 214.957031 L 193.121094 214.96875 L 193.117188 214.96875 C 193.113281 214.96875 193.113281 214.972656 193.105469 214.976562 C 193.09375 214.984375 193.09375 214.988281 193.085938 214.988281 L 193.085938 214.992188 C 193.082031 214.992188 193.078125 214.996094 193.070312 215 C 193.066406 215.007812 193.0625 215.007812 193.058594 215.011719 C 193.054688 215.011719 193.054688 215.015625 193.050781 215.015625 C 193.042969 215.015625 193.042969 215.019531 193.039062 215.023438 L 193.035156 215.023438 C 193.03125 215.027344 193.027344 215.027344 193.027344 215.035156 C 193.019531 215.035156 193.019531 215.035156 193.015625 215.039062 C 193.011719 215.042969 193.007812 215.042969 193.003906 215.042969 L 193.003906 215.046875 C 193 215.046875 192.992188 215.050781 192.988281 215.054688 C 192.980469 215.0625 192.972656 215.066406 192.960938 215.074219 C 192.957031 215.078125 192.949219 215.082031 192.945312 215.089844 L 192.9375 215.089844 C 192.929688 215.09375 192.925781 215.101562 192.917969 215.105469 L 192.910156 215.105469 C 192.90625 215.109375 192.898438 215.117188 192.894531 215.121094 L 192.890625 215.125 C 192.890625 215.125 192.882812 215.128906 192.878906 215.128906 C 192.875 215.132812 192.875 215.132812 192.871094 215.132812 C 192.871094 215.136719 192.867188 215.136719 192.867188 215.136719 C 192.863281 215.144531 192.855469 215.148438 192.851562 215.148438 C 192.851562 215.148438 192.847656 215.152344 192.84375 215.152344 L 192.84375 215.15625 C 192.828125 215.164062 192.816406 215.171875 192.808594 215.179688 L 192.800781 215.179688 C 192.800781 215.183594 192.796875 215.183594 192.796875 215.1875 L 192.792969 215.1875 C 192.785156 215.191406 192.785156 215.199219 192.773438 215.199219 C 192.773438 215.203125 192.773438 215.203125 192.769531 215.203125 C 192.769531 215.207031 192.765625 215.207031 192.761719 215.210938 C 192.757812 215.210938 192.757812 215.210938 192.753906 215.214844 C 192.746094 215.21875 192.742188 215.21875 192.738281 215.226562 L 192.734375 215.230469 C 192.734375 215.230469 192.730469 215.230469 192.730469 215.234375 C 192.726562 215.234375 192.726562 215.238281 192.71875 215.238281 C 192.714844 215.238281 192.710938 215.242188 192.707031 215.25 L 192.703125 215.25 L 192.6875 215.261719 C 192.683594 215.265625 192.679688 215.265625 192.679688 215.269531 L 192.675781 215.269531 C 192.667969 215.277344 192.660156 215.277344 192.65625 215.28125 C 192.65625 215.285156 192.65625 215.285156 192.652344 215.285156 C 192.648438 215.289062 192.640625 215.289062 192.636719 215.292969 C 192.636719 215.292969 192.632812 215.292969 192.632812 215.296875 C 192.628906 215.304688 192.625 215.304688 192.621094 215.308594 L 192.613281 215.3125 C 192.609375 215.3125 192.609375 215.3125 192.605469 215.316406 C 192.605469 215.316406 192.597656 215.320312 192.597656 215.324219 L 192.59375 215.324219 C 192.585938 215.332031 192.582031 215.332031 192.582031 215.335938 C 192.578125 215.335938 192.574219 215.339844 192.574219 215.339844 C 192.570312 215.34375 192.566406 215.34375 192.566406 215.347656 C 192.558594 215.347656 192.558594 215.347656 192.554688 215.351562 C 192.554688 215.351562 192.550781 215.359375 192.546875 215.359375 C 192.542969 215.359375 192.542969 215.363281 192.539062 215.367188 C 192.53125 215.367188 192.53125 215.367188 192.527344 215.371094 C 192.523438 215.371094 192.523438 215.375 192.519531 215.375 L 192.515625 215.378906 C 192.503906 215.386719 192.503906 215.386719 192.5 215.390625 C 192.496094 215.394531 192.496094 215.394531 192.492188 215.394531 C 192.492188 215.394531 192.492188 215.398438 192.488281 215.398438 C 192.484375 215.402344 192.476562 215.402344 192.472656 215.40625 L 192.46875 215.414062 C 192.460938 215.417969 192.449219 215.425781 192.441406 215.429688 C 192.4375 215.429688 192.4375 215.429688 192.4375 215.433594 C 192.433594 215.441406 192.429688 215.441406 192.421875 215.445312 L 192.417969 215.445312 C 192.414062 215.449219 192.410156 215.453125 192.402344 215.457031 C 192.390625 215.46875 192.378906 215.472656 192.367188 215.480469 C 185.9375 219.976562 175.992188 229.285156 176.882812 232.167969 C 176.289062 232.4375 175.722656 232.660156 175.191406 232.835938 " fill-opacity="1" fill-rule="nonzero"/><path fill="#76c274" d="M 176.882812 232.167969 C 175.992188 229.285156 185.9375 219.976562 192.367188 215.480469 C 186.65625 219.472656 178.171875 227.265625 176.976562 230.976562 C 178.03125 230.78125 179.09375 230.585938 180.167969 230.382812 C 179.007812 231.101562 177.90625 231.703125 176.882812 232.167969 M 192.367188 215.480469 C 192.378906 215.472656 192.390625 215.46875 192.402344 215.457031 C 192.390625 215.46875 192.378906 215.472656 192.367188 215.480469 M 192.402344 215.457031 C 192.410156 215.453125 192.414062 215.449219 192.417969 215.445312 C 192.414062 215.449219 192.410156 215.453125 192.402344 215.457031 M 192.421875 215.445312 C 192.429688 215.441406 192.433594 215.441406 192.4375 215.433594 C 192.433594 215.441406 192.429688 215.441406 192.421875 215.445312 M 192.441406 215.429688 C 192.449219 215.425781 192.460938 215.417969 192.46875 215.414062 C 192.460938 215.417969 192.449219 215.425781 192.441406 215.429688 M 192.472656 215.40625 C 192.476562 215.402344 192.484375 215.402344 192.488281 215.398438 C 192.484375 215.402344 192.476562 215.402344 192.472656 215.40625 M 192.492188 215.394531 C 192.496094 215.394531 192.496094 215.394531 192.5 215.390625 C 192.496094 215.394531 192.496094 215.394531 192.492188 215.394531 M 192.515625 215.378906 L 192.519531 215.375 L 192.515625 215.378906 M 192.527344 215.371094 C 192.53125 215.367188 192.53125 215.367188 192.539062 215.367188 C 192.53125 215.367188 192.53125 215.367188 192.527344 215.371094 M 192.546875 215.359375 C 192.550781 215.359375 192.554688 215.351562 192.554688 215.351562 C 192.554688 215.351562 192.550781 215.359375 192.546875 215.359375 M 192.566406 215.347656 C 192.566406 215.34375 192.570312 215.34375 192.574219 215.339844 C 192.570312 215.34375 192.566406 215.34375 192.566406 215.347656 M 192.582031 215.335938 C 192.582031 215.332031 192.585938 215.332031 192.59375 215.324219 C 192.585938 215.332031 192.582031 215.332031 192.582031 215.335938 M 192.597656 215.324219 C 192.597656 215.320312 192.605469 215.316406 192.605469 215.316406 C 192.605469 215.316406 192.597656 215.320312 192.597656 215.324219 M 192.613281 215.3125 L 192.621094 215.308594 L 192.613281 215.3125 M 192.632812 215.296875 C 192.632812 215.292969 192.636719 215.292969 192.636719 215.292969 L 192.632812 215.296875 M 192.652344 215.285156 C 192.65625 215.285156 192.65625 215.285156 192.65625 215.28125 C 192.65625 215.285156 192.65625 215.285156 192.652344 215.285156 M 192.675781 215.269531 L 192.679688 215.269531 L 192.675781 215.269531 M 192.703125 215.25 L 192.707031 215.25 L 192.703125 215.25 M 192.71875 215.238281 C 192.726562 215.238281 192.726562 215.234375 192.730469 215.234375 C 192.726562 215.234375 192.726562 215.238281 192.71875 215.238281 M 192.734375 215.230469 L 192.738281 215.226562 L 192.734375 215.230469 M 192.753906 215.214844 C 192.757812 215.210938 192.757812 215.210938 192.761719 215.210938 C 192.757812 215.210938 192.757812 215.210938 192.753906 215.214844 M 192.769531 215.203125 C 192.773438 215.203125 192.773438 215.203125 192.773438 215.199219 C 192.773438 215.203125 192.773438 215.203125 192.769531 215.203125 M 192.792969 215.1875 L 192.796875 215.1875 L 192.792969 215.1875 M 192.800781 215.179688 L 192.808594 215.179688 L 192.800781 215.179688 M 192.84375 215.15625 L 192.84375 215.152344 L 192.84375 215.15625 M 192.851562 215.148438 C 192.855469 215.148438 192.863281 215.144531 192.867188 215.136719 C 192.863281 215.144531 192.855469 215.148438 192.851562 215.148438 M 192.871094 215.132812 C 192.875 215.132812 192.875 215.132812 192.878906 215.128906 C 192.875 215.128906 192.875 215.132812 192.871094 215.132812 M 192.890625 215.125 L 192.894531 215.121094 L 192.890625 215.125 M 192.910156 215.105469 L 192.917969 215.105469 L 192.910156 215.105469 M 192.9375 215.089844 L 192.945312 215.089844 L 192.9375 215.089844 M 192.988281 215.054688 C 192.992188 215.050781 193 215.046875 193.003906 215.046875 C 193 215.046875 192.992188 215.050781 192.988281 215.054688 M 193.003906 215.042969 C 193.007812 215.042969 193.011719 215.042969 193.015625 215.039062 C 193.011719 215.042969 193.007812 215.042969 193.003906 215.042969 M 193.027344 215.035156 C 193.027344 215.027344 193.03125 215.027344 193.035156 215.023438 C 193.03125 215.027344 193.027344 215.027344 193.027344 215.035156 M 193.039062 215.023438 C 193.042969 215.019531 193.042969 215.015625 193.050781 215.015625 C 193.042969 215.015625 193.042969 215.019531 193.039062 215.023438 M 193.058594 215.011719 C 193.0625 215.007812 193.066406 215.007812 193.070312 215 C 193.066406 215.007812 193.0625 215.007812 193.058594 215.011719 M 193.070312 215 C 193.078125 214.996094 193.082031 214.992188 193.085938 214.992188 C 193.082031 214.992188 193.078125 214.996094 193.070312 215 M 193.085938 214.988281 C 193.09375 214.988281 193.09375 214.984375 193.105469 214.976562 C 193.097656 214.984375 193.09375 214.988281 193.085938 214.988281 M 193.105469 214.976562 C 193.113281 214.972656 193.113281 214.96875 193.117188 214.96875 C 193.117188 214.96875 193.109375 214.972656 193.105469 214.976562 M 193.121094 214.96875 L 193.136719 214.957031 C 195.578125 213.328125 197.746094 212.132812 199.816406 211.082031 C 197.746094 212.132812 195.578125 213.328125 193.136719 214.957031 L 193.121094 214.96875 " fill-opacity="1" fill-rule="nonzero"/><path fill="#c0cb62" d="M 192.417969 215.445312 L 192.421875 215.445312 L 192.417969 215.445312 M 192.4375 215.433594 C 192.4375 215.429688 192.4375 215.429688 192.441406 215.429688 C 192.4375 215.429688 192.4375 215.429688 192.4375 215.433594 M 192.46875 215.414062 L 192.472656 215.40625 C 192.472656 215.40625 192.46875 215.40625 192.46875 215.414062 M 192.488281 215.398438 C 192.492188 215.398438 192.492188 215.394531 192.492188 215.394531 C 192.492188 215.398438 192.492188 215.398438 192.488281 215.398438 M 192.5 215.390625 C 192.503906 215.386719 192.503906 215.386719 192.515625 215.378906 C 192.503906 215.386719 192.503906 215.386719 192.5 215.390625 M 192.519531 215.375 C 192.523438 215.375 192.523438 215.371094 192.527344 215.371094 C 192.523438 215.371094 192.523438 215.375 192.519531 215.375 M 192.539062 215.367188 C 192.542969 215.363281 192.542969 215.359375 192.546875 215.359375 C 192.542969 215.359375 192.542969 215.363281 192.539062 215.367188 M 192.554688 215.351562 C 192.558594 215.347656 192.558594 215.347656 192.566406 215.347656 C 192.558594 215.347656 192.558594 215.347656 192.554688 215.351562 M 192.574219 215.339844 C 192.574219 215.339844 192.578125 215.335938 192.582031 215.335938 C 192.578125 215.335938 192.574219 215.339844 192.574219 215.339844 M 192.59375 215.324219 L 192.597656 215.324219 L 192.59375 215.324219 M 192.605469 215.316406 C 192.609375 215.3125 192.609375 215.3125 192.613281 215.3125 C 192.609375 215.3125 192.609375 215.3125 192.605469 215.316406 M 192.621094 215.308594 C 192.625 215.304688 192.628906 215.304688 192.632812 215.296875 C 192.628906 215.304688 192.625 215.304688 192.621094 215.308594 M 192.636719 215.292969 C 192.640625 215.289062 192.648438 215.289062 192.652344 215.285156 C 192.648438 215.289062 192.640625 215.289062 192.636719 215.292969 M 192.65625 215.28125 C 192.660156 215.277344 192.667969 215.277344 192.675781 215.269531 C 192.667969 215.277344 192.660156 215.277344 192.65625 215.28125 M 192.679688 215.269531 C 192.679688 215.265625 192.683594 215.265625 192.6875 215.261719 C 192.683594 215.265625 192.679688 215.265625 192.679688 215.269531 M 192.6875 215.261719 L 192.703125 215.25 L 192.6875 215.261719 M 192.707031 215.25 C 192.710938 215.242188 192.714844 215.238281 192.71875 215.238281 C 192.714844 215.238281 192.710938 215.242188 192.707031 215.25 M 192.730469 215.234375 C 192.730469 215.230469 192.734375 215.230469 192.734375 215.230469 L 192.730469 215.234375 M 192.738281 215.226562 C 192.742188 215.21875 192.746094 215.21875 192.753906 215.214844 C 192.746094 215.21875 192.742188 215.21875 192.738281 215.226562 M 192.761719 215.210938 C 192.765625 215.207031 192.769531 215.207031 192.769531 215.203125 C 192.769531 215.207031 192.765625 215.207031 192.761719 215.210938 M 192.773438 215.199219 C 192.785156 215.199219 192.785156 215.191406 192.792969 215.1875 C 192.785156 215.191406 192.785156 215.199219 192.773438 215.199219 M 192.796875 215.1875 C 192.796875 215.183594 192.800781 215.183594 192.800781 215.179688 C 192.800781 215.183594 192.796875 215.183594 192.796875 215.1875 M 192.808594 215.179688 C 192.816406 215.171875 192.828125 215.164062 192.84375 215.15625 C 192.828125 215.164062 192.816406 215.171875 192.808594 215.179688 M 192.84375 215.152344 C 192.847656 215.152344 192.851562 215.148438 192.851562 215.148438 C 192.851562 215.148438 192.847656 215.152344 192.84375 215.152344 M 192.867188 215.136719 C 192.867188 215.136719 192.871094 215.136719 192.871094 215.132812 C 192.871094 215.136719 192.867188 215.136719 192.867188 215.136719 M 192.878906 215.128906 C 192.882812 215.128906 192.890625 215.125 192.890625 215.125 C 192.890625 215.125 192.882812 215.128906 192.878906 215.128906 M 192.894531 215.121094 C 192.898438 215.117188 192.90625 215.109375 192.910156 215.105469 C 192.90625 215.109375 192.898438 215.117188 192.894531 215.121094 M 192.917969 215.105469 C 192.925781 215.101562 192.929688 215.09375 192.9375 215.089844 C 192.929688 215.09375 192.925781 215.101562 192.917969 215.105469 M 192.945312 215.089844 C 192.949219 215.082031 192.957031 215.078125 192.960938 215.074219 C 192.957031 215.078125 192.949219 215.082031 192.945312 215.089844 M 192.960938 215.074219 C 192.972656 215.066406 192.980469 215.0625 192.988281 215.054688 C 192.980469 215.0625 192.972656 215.066406 192.960938 215.074219 M 193.003906 215.046875 L 193.003906 215.042969 L 193.003906 215.046875 M 193.015625 215.039062 C 193.019531 215.035156 193.019531 215.035156 193.027344 215.035156 C 193.019531 215.035156 193.019531 215.039062 193.015625 215.039062 M 193.035156 215.023438 L 193.039062 215.023438 L 193.035156 215.023438 M 193.050781 215.015625 C 193.054688 215.015625 193.054688 215.011719 193.058594 215.011719 C 193.054688 215.011719 193.054688 215.015625 193.050781 215.015625 M 193.085938 214.992188 L 193.085938 214.988281 L 193.085938 214.992188 M 193.117188 214.96875 L 193.121094 214.96875 L 193.117188 214.96875 " fill-opacity="1" fill-rule="nonzero"/><path fill="#68b460" d="M 176.976562 230.976562 C 178.171875 227.265625 186.65625 219.472656 192.367188 215.480469 C 192.378906 215.472656 192.390625 215.46875 192.402344 215.457031 C 192.410156 215.453125 192.414062 215.449219 192.417969 215.445312 L 192.421875 215.445312 C 192.429688 215.441406 192.433594 215.441406 192.4375 215.433594 C 192.4375 215.429688 192.4375 215.429688 192.441406 215.429688 C 192.449219 215.425781 192.460938 215.417969 192.46875 215.414062 C 192.46875 215.40625 192.472656 215.40625 192.472656 215.40625 C 192.476562 215.402344 192.484375 215.402344 192.488281 215.398438 C 192.492188 215.398438 192.492188 215.398438 192.492188 215.394531 C 192.496094 215.394531 192.496094 215.394531 192.5 215.390625 C 192.503906 215.386719 192.503906 215.386719 192.515625 215.378906 L 192.519531 215.375 C 192.523438 215.375 192.523438 215.371094 192.527344 215.371094 C 192.53125 215.367188 192.53125 215.367188 192.539062 215.367188 C 192.542969 215.363281 192.542969 215.359375 192.546875 215.359375 C 192.550781 215.359375 192.554688 215.351562 192.554688 215.351562 C 192.558594 215.347656 192.558594 215.347656 192.566406 215.347656 C 192.566406 215.34375 192.570312 215.34375 192.574219 215.339844 C 192.574219 215.339844 192.578125 215.335938 192.582031 215.335938 C 192.582031 215.332031 192.585938 215.332031 192.59375 215.324219 L 192.597656 215.324219 C 192.597656 215.320312 192.605469 215.316406 192.605469 215.316406 C 192.609375 215.3125 192.609375 215.3125 192.613281 215.3125 L 192.621094 215.308594 C 192.625 215.304688 192.628906 215.304688 192.632812 215.296875 L 192.636719 215.292969 C 192.640625 215.289062 192.648438 215.289062 192.652344 215.285156 C 192.65625 215.285156 192.65625 215.285156 192.65625 215.28125 C 192.660156 215.277344 192.667969 215.277344 192.675781 215.269531 L 192.679688 215.269531 C 192.679688 215.265625 192.683594 215.265625 192.6875 215.261719 L 192.703125 215.25 L 192.707031 215.25 C 192.710938 215.242188 192.714844 215.238281 192.71875 215.238281 C 192.726562 215.238281 192.726562 215.234375 192.730469 215.234375 L 192.738281 215.226562 C 192.742188 215.222656 192.746094 215.222656 192.753906 215.214844 C 192.757812 215.210938 192.757812 215.210938 192.761719 215.210938 C 192.765625 215.207031 192.769531 215.207031 192.769531 215.203125 C 192.773438 215.203125 192.773438 215.203125 192.773438 215.199219 C 192.785156 215.199219 192.785156 215.191406 192.792969 215.1875 L 192.796875 215.1875 C 192.796875 215.183594 192.800781 215.183594 192.800781 215.179688 L 192.808594 215.179688 C 192.816406 215.171875 192.828125 215.164062 192.84375 215.15625 L 192.84375 215.152344 C 192.847656 215.152344 192.851562 215.148438 192.851562 215.148438 C 192.855469 215.148438 192.863281 215.144531 192.867188 215.136719 C 192.867188 215.136719 192.871094 215.136719 192.871094 215.132812 C 192.875 215.132812 192.875 215.128906 192.878906 215.128906 C 192.882812 215.128906 192.890625 215.125 192.890625 215.125 L 192.894531 215.121094 C 192.898438 215.117188 192.90625 215.109375 192.910156 215.105469 L 192.917969 215.105469 C 192.925781 215.101562 192.929688 215.09375 192.9375 215.089844 L 192.945312 215.089844 C 192.949219 215.082031 192.957031 215.078125 192.960938 215.074219 C 192.972656 215.066406 192.980469 215.0625 192.988281 215.054688 C 192.992188 215.050781 193 215.046875 193.003906 215.046875 L 193.003906 215.042969 C 193.007812 215.042969 193.011719 215.042969 193.015625 215.039062 C 193.019531 215.039062 193.019531 215.035156 193.027344 215.035156 C 193.027344 215.027344 193.03125 215.027344 193.035156 215.023438 L 193.039062 215.023438 C 193.042969 215.019531 193.042969 215.015625 193.046875 215.015625 C 193.054688 215.015625 193.054688 215.011719 193.058594 215.011719 C 193.0625 215.007812 193.066406 215.007812 193.070312 215 C 193.078125 214.996094 193.082031 214.992188 193.085938 214.992188 L 193.085938 214.988281 C 193.09375 214.988281 193.097656 214.984375 193.105469 214.980469 C 193.109375 214.972656 193.117188 214.96875 193.117188 214.96875 L 193.121094 214.96875 L 193.136719 214.957031 C 195.578125 213.328125 197.746094 212.132812 199.816406 211.082031 C 194.179688 219.238281 186.378906 226.519531 180.167969 230.382812 C 179.09375 230.585938 178.03125 230.78125 176.976562 230.976562 " fill-opacity="1" fill-rule="nonzero"/><path fill="#b9dd33" d="M 172.332031 232.460938 C 171.226562 227.300781 176.109375 212.28125 184.207031 207.128906 C 192.308594 201.96875 206.304688 197.730469 212.195312 188.148438 C 218.085938 178.570312 216.980469 172.121094 216.429688 167.699219 C 215.875 163.277344 222.507812 175.808594 224.347656 183.359375 C 226.1875 190.914062 229.503906 202.335938 220.109375 211.179688 C 214.230469 216.714844 205.507812 221.589844 194.332031 224.816406 C 184.761719 227.574219 173.089844 236.003906 172.332031 232.460938 " fill-opacity="1" fill-rule="nonzero"/></svg>