<svg xmlns="http://www.w3.org/2000/svg" xmlns:xlink="http://www.w3.org/1999/xlink" width="500" zoomAndPan="magnify" viewBox="0 0 375 374.999991" height="500" preserveAspectRatio="xMidYMid meet" version="1.0"><defs><clipPath id="ea6bce03a1"><path d="M 96.429688 58 L 278.679688 58 L 278.679688 345 L 96.429688 345 Z M 96.429688 58 " clip-rule="nonzero"/></clipPath><clipPath id="c90e394768"><path d="M 96.429688 58 L 278.679688 58 L 278.679688 345 L 96.429688 345 Z M 96.429688 58 " clip-rule="nonzero"/></clipPath></defs><g clip-path="url(#ea6bce03a1)"><path fill="#b4906f" d="M 193.777344 73.976562 C 193.824219 73.386719 192.847656 73.25 192.738281 73.835938 C 191.167969 81.953125 190.972656 90.710938 191.507812 98.941406 C 191.550781 99.609375 192.558594 99.621094 192.554688 98.941406 C 192.527344 94.769531 192.503906 90.601562 192.714844 86.433594 C 192.929688 82.265625 193.457031 78.132812 193.777344 73.976562 Z M 194.214844 92.222656 C 193.0625 96.257812 192.371094 100.5 192.894531 104.699219 C 192.972656 105.328125 193.917969 105.375 193.917969 104.699219 C 193.898438 100.535156 194.046875 96.519531 195.09375 92.460938 C 195.242188 91.890625 194.378906 91.652344 194.214844 92.222656 Z M 194.214844 92.222656 C 193.0625 96.257812 192.371094 100.5 192.894531 104.699219 C 192.972656 105.328125 193.917969 105.375 193.917969 104.699219 C 193.898438 100.535156 194.046875 96.519531 195.09375 92.460938 C 195.242188 91.890625 194.378906 91.652344 194.214844 92.222656 Z M 193.777344 73.976562 C 193.824219 73.386719 192.847656 73.25 192.738281 73.835938 C 191.167969 81.953125 190.972656 90.710938 191.507812 98.941406 C 191.550781 99.609375 192.558594 99.621094 192.554688 98.941406 C 192.527344 94.769531 192.503906 90.601562 192.714844 86.433594 C 192.929688 82.265625 193.457031 78.132812 193.777344 73.976562 Z M 193.777344 73.976562 C 193.824219 73.386719 192.847656 73.25 192.738281 73.835938 C 191.167969 81.953125 190.972656 90.710938 191.507812 98.941406 C 191.550781 99.609375 192.558594 99.621094 192.554688 98.941406 C 192.527344 94.769531 192.503906 90.601562 192.714844 86.433594 C 192.929688 82.265625 193.457031 78.132812 193.777344 73.976562 Z M 194.214844 92.222656 C 193.0625 96.257812 192.371094 100.5 192.894531 104.699219 C 192.972656 105.328125 193.917969 105.375 193.917969 104.699219 C 193.898438 100.535156 194.046875 96.519531 195.09375 92.460938 C 195.242188 91.890625 194.378906 91.652344 194.214844 92.222656 Z M 194.214844 92.222656 C 193.0625 96.257812 192.371094 100.5 192.894531 104.699219 C 192.972656 105.328125 193.917969 105.375 193.917969 104.699219 C 193.898438 100.535156 194.046875 96.519531 195.09375 92.460938 C 195.242188 91.890625 194.378906 91.652344 194.214844 92.222656 Z M 193.777344 73.976562 C 193.824219 73.386719 192.847656 73.25 192.738281 73.835938 C 191.167969 81.953125 190.972656 90.710938 191.507812 98.941406 C 191.550781 99.609375 192.558594 99.621094 192.554688 98.941406 C 192.527344 94.769531 192.503906 90.601562 192.714844 86.433594 C 192.929688 82.265625 193.457031 78.132812 193.777344 73.976562 Z M 193.777344 73.976562 C 193.824219 73.386719 192.847656 73.25 192.738281 73.835938 C 191.167969 81.953125 190.972656 90.710938 191.507812 98.941406 C 191.550781 99.609375 192.558594 99.621094 192.554688 98.941406 C 192.527344 94.769531 192.503906 90.601562 192.714844 86.433594 C 192.929688 82.265625 193.457031 78.132812 193.777344 73.976562 Z M 194.214844 92.222656 C 193.0625 96.257812 192.371094 100.5 192.894531 104.699219 C 192.972656 105.328125 193.917969 105.375 193.917969 104.699219 C 193.898438 100.535156 194.046875 96.519531 195.09375 92.460938 C 195.242188 91.890625 194.378906 91.652344 194.214844 92.222656 Z M 194.214844 92.222656 C 193.0625 96.257812 192.371094 100.5 192.894531 104.699219 C 192.972656 105.328125 193.917969 105.375 193.917969 104.699219 C 193.898438 100.535156 194.046875 96.519531 195.09375 92.460938 C 195.242188 91.890625 194.378906 91.652344 194.214844 92.222656 Z M 193.777344 73.976562 C 193.824219 73.386719 192.847656 73.25 192.738281 73.835938 C 191.167969 81.953125 190.972656 90.710938 191.507812 98.941406 C 191.550781 99.609375 192.558594 99.621094 192.554688 98.941406 C 192.527344 94.769531 192.503906 90.601562 192.714844 86.433594 C 192.929688 82.265625 193.457031 78.132812 193.777344 73.976562 Z M 192.554688 98.941406 C 192.527344 94.769531 192.503906 90.601562 192.714844 86.433594 C 192.929688 82.265625 193.457031 78.132812 193.777344 73.976562 C 193.824219 73.386719 192.847656 73.25 192.738281 73.835938 C 191.167969 81.953125 190.972656 90.710938 191.507812 98.941406 C 191.550781 99.609375 192.558594 99.621094 192.554688 98.941406 Z M 192.894531 104.699219 C 192.972656 105.328125 193.917969 105.375 193.917969 104.699219 C 193.898438 100.535156 194.046875 96.519531 195.09375 92.460938 C 195.242188 91.890625 194.378906 91.652344 194.214844 92.222656 C 193.0625 96.257812 192.371094 100.5 192.894531 104.699219 Z M 268.636719 136.191406 C 267.640625 134.890625 266.484375 133.800781 265.09375 132.890625 C 264.523438 132.519531 263.808594 133.253906 264.160156 133.820312 C 264.824219 134.867188 265.09375 135.898438 265.050781 137.058594 C 264.09375 137.15625 263.136719 137.257812 262.175781 137.359375 C 261.507812 135.636719 260.289062 134.441406 258.535156 133.707031 C 257.992188 133.476562 257.59375 134.113281 257.675781 134.566406 C 257.890625 135.777344 258.105469 136.988281 258.316406 138.199219 C 253.882812 137.390625 249.371094 138.457031 245.777344 141.136719 C 245.507812 140.351562 244.792969 139.730469 243.804688 139.710938 C 243.4375 139.707031 243.109375 140.03125 243.117188 140.402344 C 243.050781 140.636719 242.980469 140.875 242.910156 141.109375 C 242.777344 141.023438 242.640625 140.941406 242.503906 140.855469 C 242.121094 140.613281 241.621094 140.851562 241.5 141.261719 C 241.355469 141.742188 241.273438 142.179688 241.222656 142.628906 C 241.097656 142.59375 240.945312 142.558594 240.734375 142.507812 C 240.273438 142.402344 239.917969 142.714844 239.875 143.160156 C 239.855469 143.382812 239.832031 143.605469 239.804688 143.832031 C 237.503906 144.71875 235.175781 145.5 232.808594 146.171875 C 234.96875 142.851562 237.050781 139.5625 240.042969 136.871094 C 243.328125 133.925781 247.3125 131.769531 251.558594 130.582031 C 259.699219 128.304688 267.976562 130.011719 275.0625 134.285156 C 272.761719 134.191406 270.554688 134.910156 268.636719 136.191406 Z M 204.246094 133.660156 C 203.753906 130.496094 204.679688 127.566406 206.125 124.785156 C 207.1875 122.738281 209.070312 118.335938 211.972656 118.800781 C 212.660156 118.914062 213.488281 118.195312 212.984375 117.480469 C 212.773438 117.175781 212.589844 116.890625 212.425781 116.589844 C 213.410156 116.511719 214.394531 116.429688 215.382812 116.347656 C 216.027344 116.292969 216.5 115.636719 216.140625 115.023438 C 215.945312 114.691406 215.753906 114.359375 215.5625 114.027344 C 215.644531 114.007812 215.734375 113.988281 215.820312 113.96875 C 216.371094 113.847656 216.617188 113.15625 216.339844 112.691406 C 215.871094 111.910156 215.355469 111.203125 214.769531 110.527344 C 217.199219 108.167969 221.035156 105.113281 223.988281 108.253906 C 224.449219 108.746094 225.40625 108.53125 225.546875 107.84375 C 225.683594 107.160156 225.691406 106.621094 225.542969 105.933594 C 225.246094 104.605469 225.078125 103.796875 226.03125 102.738281 C 227.464844 101.15625 228.992188 99.714844 230.839844 98.632812 C 234.300781 96.613281 238.320312 95.714844 242.148438 94.664062 C 245.269531 93.804688 248.566406 92.917969 251.695312 91.6875 C 247.753906 94.460938 244.015625 97.585938 240.386719 100.699219 C 235.53125 104.859375 230.902344 109.324219 226.816406 114.253906 C 220.335938 122.074219 214.984375 131.21875 213.085938 141.246094 C 211.957031 138.851562 211.53125 135.84375 211.265625 133.414062 C 210.929688 130.375 211.148438 127.4375 211.484375 124.417969 C 211.550781 123.820312 210.570312 123.695312 210.441406 124.273438 C 209.695312 127.664062 209.6875 131.273438 210.179688 134.699219 C 210.558594 137.359375 211.105469 140.765625 212.785156 143.058594 C 212.636719 144.074219 212.523438 145.097656 212.449219 146.132812 C 212.429688 146.449219 212.566406 146.691406 212.773438 146.855469 C 212.738281 146.917969 212.703125 146.980469 212.667969 147.042969 C 208.726562 143.457031 205.101562 139.09375 204.246094 133.660156 Z M 249.96875 101.617188 C 249.371094 103.140625 248.84375 104.6875 248.382812 106.253906 C 248.136719 107.101562 248.023438 108.195312 247.246094 108.765625 C 246.617188 109.21875 245.53125 109.300781 244.792969 109.546875 C 242.144531 110.425781 239.871094 112.035156 238.0625 114.144531 C 237.375 114.945312 238.21875 115.929688 239.136719 115.539062 C 240.480469 114.96875 241.828125 114.640625 243.242188 114.515625 C 240.75 119.207031 237.773438 123.585938 234.328125 127.617188 C 234.28125 127.605469 234.234375 127.59375 234.183594 127.589844 C 231.800781 127.402344 229.660156 127.761719 227.464844 128.726562 C 227.148438 128.863281 226.945312 129.378906 227.070312 129.703125 C 227.3125 130.335938 227.621094 130.890625 228.007812 131.375 C 227.582031 131.480469 227.15625 131.636719 226.714844 131.84375 C 225.953125 132.203125 226.296875 133.210938 226.925781 133.457031 C 228.917969 134.242188 225.566406 138.625 224.835938 139.539062 C 223.589844 141.101562 222.082031 142.480469 220.390625 143.546875 C 218.707031 144.613281 216.875 145.390625 215.105469 146.261719 C 214.910156 146.109375 214.691406 145.996094 214.460938 145.941406 C 216.867188 134.5625 222.402344 124.257812 230.011719 115.5 C 234.070312 110.828125 238.601562 106.585938 243.308594 102.570312 C 246.625 99.75 250.121094 97.113281 253.457031 94.304688 C 252.128906 96.65625 250.957031 99.097656 249.96875 101.617188 Z M 185.335938 127.367188 C 184.199219 123.761719 182.644531 120.375 181.316406 116.851562 C 181.25 116.679688 181.160156 116.535156 181.058594 116.402344 C 181.085938 115.648438 181.085938 114.894531 181.058594 114.144531 C 181.894531 112.359375 183.015625 110.65625 183.421875 108.710938 C 183.742188 107.195312 183.792969 105.652344 183.714844 104.109375 C 184.179688 108.519531 184.574219 113.035156 185.808594 117.242188 C 186.886719 120.910156 188.957031 124.351562 192.4375 126.046875 C 192.273438 129.472656 191.898438 132.882812 191.292969 136.238281 C 190.730469 139.363281 189.726562 142.585938 188.96875 145.835938 C 188.671875 143.285156 188.324219 140.742188 187.882812 138.210938 C 187.25 134.546875 186.453125 130.921875 185.335938 127.367188 Z M 166.949219 84.824219 C 159.347656 76.753906 149.554688 70.761719 138.945312 67.542969 C 137.144531 66.996094 135.316406 66.539062 133.472656 66.167969 C 137.523438 66.097656 141.570312 66.148438 145.589844 66.648438 C 149.359375 67.113281 153.09375 67.984375 156.621094 69.402344 C 157.9375 69.929688 161.324219 70.890625 161.382812 72.546875 C 161.429688 73.96875 160.648438 75.054688 161.015625 76.539062 C 161.152344 77.074219 161.847656 77.554688 162.398438 77.324219 C 163.210938 76.984375 164.027344 76.648438 164.839844 76.3125 C 165.171875 78.144531 166.605469 79.609375 168.125 80.859375 C 170.605469 82.90625 172.675781 84.988281 174.179688 87.710938 C 174.066406 87.703125 173.945312 87.699219 173.820312 87.703125 C 173.339844 87.714844 172.820312 88.230469 173.03125 88.746094 C 173.847656 90.785156 175.316406 92.085938 176.992188 93.449219 C 179.296875 95.320312 180.804688 96.988281 181.265625 100.039062 C 181.777344 103.433594 182.148438 107.140625 180.679688 110.347656 C 179.144531 100.769531 173.402344 91.675781 166.949219 84.824219 Z M 178.453125 114.964844 C 178.1875 114.523438 177.894531 114.089844 177.566406 113.671875 C 176.871094 112.785156 176.082031 112.003906 175.191406 111.3125 C 173.828125 110.257812 173.136719 109.234375 173.316406 107.46875 C 173.472656 105.933594 173.570312 103.984375 171.933594 103.171875 C 171.492188 102.953125 171.007812 102.871094 170.542969 102.917969 C 170.574219 102.257812 170.605469 101.589844 170.632812 100.929688 C 170.679688 99.988281 169.507812 99.890625 169.039062 100.496094 C 167.796875 102.109375 166.519531 103.695312 165.253906 105.292969 C 163.660156 101.539062 161.136719 98.363281 157.832031 95.929688 C 158.289062 94.875 158.742188 93.8125 159.199219 92.757812 C 159.414062 92.257812 159.179688 91.503906 158.511719 91.554688 C 157.929688 91.449219 157.785156 91.113281 158.074219 90.53125 C 158.140625 89.808594 157.210938 89.59375 156.753906 89.988281 C 156.03125 90.609375 155.300781 91.230469 154.574219 91.855469 C 152.164062 89.464844 149.878906 86.832031 147.125 84.839844 C 145.609375 83.738281 143.859375 82.933594 142.101562 83.105469 C 142.726562 81.65625 143.628906 80.390625 144.847656 79.273438 C 145.390625 78.777344 145.15625 77.675781 144.386719 77.539062 C 141.023438 76.9375 137.714844 77.8125 135.199219 80.007812 C 132.773438 74.910156 129.121094 70.546875 124.527344 67.332031 C 150.199219 68.851562 174.671875 87.777344 179.066406 113.539062 C 178.84375 114.007812 178.636719 114.480469 178.453125 114.964844 Z M 186.613281 103.335938 C 187.320312 103.652344 187.925781 103.382812 188.21875 102.679688 C 189.101562 100.570312 187.796875 98.707031 186.582031 97.050781 C 185.902344 96.117188 184.878906 94.984375 184.820312 93.769531 C 184.765625 92.738281 185.167969 92.039062 185.152344 91.191406 C 185.867188 90.773438 186.722656 90.289062 186.992188 89.609375 C 187.425781 88.542969 187.15625 86.839844 187.265625 85.671875 C 187.550781 82.59375 188.078125 79.539062 188.816406 76.535156 C 189.933594 71.972656 191.574219 67.582031 193.65625 63.394531 C 193.769531 68.609375 194.679688 73.773438 196.425781 78.714844 C 194.734375 80.921875 194.777344 83.921875 196.328125 86.261719 C 196.664062 86.773438 197.597656 86.769531 197.738281 86.078125 C 197.761719 85.949219 197.792969 85.828125 197.824219 85.714844 C 197.824219 88.472656 198.421875 91.160156 199.613281 93.730469 C 199.621094 93.804688 199.628906 93.882812 199.65625 93.964844 C 199.910156 94.75 199.902344 95.453125 199.835938 96.1875 C 198.6875 97.625 199.542969 100.203125 199.644531 101.890625 C 199.824219 104.894531 199.800781 107.921875 199.613281 110.929688 C 199.433594 113.789062 199.160156 116.707031 198.507812 119.496094 C 198.039062 121.496094 196.445312 125.277344 193.953125 124.351562 C 193.9375 121.226562 193.730469 118.097656 193.320312 114.960938 C 193.234375 114.289062 192.1875 114.253906 192.242188 114.960938 C 192.484375 117.917969 192.574219 120.910156 192.511719 123.898438 C 192.492188 123.902344 192.476562 123.910156 192.457031 123.921875 C 189.503906 121.832031 188.023438 118.5 187.351562 114.886719 C 186.621094 110.957031 186.238281 106.945312 185.78125 102.96875 C 186.058594 103.089844 186.335938 103.214844 186.613281 103.335938 Z M 152.707031 144.261719 C 152.078125 142.761719 151.039062 141.335938 150.242188 140.1875 C 148.644531 137.902344 146.757812 135.8125 144.621094 134.023438 C 140.117188 130.265625 134.574219 127.910156 128.6875 127.621094 C 125.5625 127.464844 122.34375 128.023438 119.351562 129.167969 C 120.574219 128.265625 121.921875 127.519531 123.53125 127.019531 C 127.222656 125.882812 131.195312 126.132812 134.894531 127.089844 C 141.210938 128.722656 147.65625 132.277344 151.476562 137.710938 C 151.371094 137.914062 151.355469 138.171875 151.480469 138.417969 C 152.453125 140.292969 152.859375 142.265625 152.707031 144.261719 Z M 151.714844 146.769531 C 150.851562 146.863281 149.632812 147.230469 148.78125 147.09375 C 147.355469 146.863281 147.128906 146.113281 146.546875 145.128906 C 145.742188 143.769531 144.941406 142.394531 143.847656 141.242188 C 142.253906 139.5625 140.171875 138.574219 137.902344 138.824219 C 137.742188 138.214844 137.585938 137.605469 137.429688 136.996094 C 137.300781 136.496094 136.644531 136.335938 136.285156 136.691406 C 136.285156 136.511719 136.285156 136.332031 136.28125 136.152344 C 136.175781 135.542969 135.304688 135.519531 135.019531 135.988281 C 134.351562 137.105469 133.992188 138.246094 133.9375 139.480469 C 132.355469 138.734375 130.695312 138.21875 128.941406 137.988281 C 127.933594 137.851562 126.960938 138.011719 126.617188 136.949219 C 126.28125 135.90625 126.542969 134.074219 126.515625 132.984375 C 126.496094 132.242188 125.617188 132.109375 125.21875 132.636719 C 124.257812 133.890625 123.296875 135.140625 122.339844 136.394531 C 121.921875 135.730469 121.5 135.070312 121.085938 134.40625 C 120.757812 133.882812 119.960938 133.980469 119.78125 134.578125 C 119.523438 135.425781 119.371094 136.25 119.3125 137.105469 C 118.34375 137.117188 117.5 137.449219 116.789062 138.046875 C 116.601562 137.515625 116.410156 136.984375 116.21875 136.453125 C 116.0625 136.011719 115.582031 135.769531 115.148438 136.015625 C 112.761719 137.378906 110.539062 139.363281 108.886719 141.707031 C 111.996094 134.167969 119.265625 129.199219 128.019531 129.289062 C 133.128906 129.339844 138.074219 131.101562 142.191406 134.09375 C 144.171875 135.53125 145.960938 137.230469 147.527344 139.105469 C 149.054688 140.933594 151.769531 144.132812 151.929688 146.78125 C 151.863281 146.765625 151.792969 146.757812 151.714844 146.769531 Z M 152.519531 133.183594 C 149.882812 129.421875 146.449219 126.433594 142.265625 124.488281 C 142.347656 124.164062 142.433594 123.839844 142.515625 123.515625 C 142.695312 122.832031 141.96875 122.324219 141.371094 122.632812 C 141.023438 122.175781 140.824219 121.746094 140.773438 121.351562 C 141.246094 120.84375 141.582031 120.203125 141.6875 119.417969 C 141.777344 118.75 140.933594 117.957031 140.375 118.648438 C 139.867188 119.285156 139.316406 120.015625 139.023438 120.800781 C 137.085938 121.8125 133.410156 119.488281 131.816406 118.84375 C 129.648438 117.96875 127.390625 117.734375 125.113281 117.953125 C 125.609375 115.113281 126.679688 112.457031 128.257812 110.027344 C 128.898438 109.035156 127.496094 108.058594 126.679688 108.808594 C 124.09375 111.179688 121.867188 113.863281 119.980469 116.820312 C 119.066406 116.703125 118.195312 116.792969 117.234375 117.015625 C 116.464844 117.191406 112.089844 118.429688 112.566406 116.113281 C 112.753906 115.195312 111.515625 114.191406 110.808594 115.085938 C 109.726562 116.464844 108.652344 117.839844 107.578125 119.21875 L 106.847656 118.398438 C 106.53125 118.042969 106.003906 118.046875 105.609375 118.242188 C 103.550781 119.25 101.648438 120.59375 100.03125 122.21875 C 101.914062 117.433594 106.132812 113.597656 110.507812 111.019531 C 116.660156 107.398438 124.199219 105.203125 131.359375 106.347656 C 138.738281 107.527344 144.28125 112.730469 149.558594 117.625 C 153.566406 121.339844 157.199219 125.3125 159.996094 129.90625 C 157.132812 129.960938 154.5 131.070312 152.519531 133.183594 Z M 277.699219 133.6875 C 270.285156 127.832031 260.074219 126.066406 251.046875 128.730469 C 242.082031 131.378906 234.777344 138.136719 231.023438 146.652344 C 231.023438 146.652344 230.789062 148.257812 228.792969 149.277344 C 227.621094 150.238281 226.503906 151.296875 225.296875 152.167969 C 222.808594 153.957031 220.027344 155.273438 217.441406 156.910156 C 215.3125 158.257812 213.292969 159.785156 211.402344 161.464844 C 211.957031 159.773438 212.527344 158.089844 213.074219 156.394531 C 213.933594 153.746094 214.578125 150.945312 215.667969 148.386719 C 215.742188 148.210938 215.785156 148.035156 215.804688 147.863281 C 216.949219 147.289062 218.132812 146.765625 219.285156 146.1875 C 221.53125 145.0625 223.582031 143.601562 225.277344 141.738281 C 226.785156 140.085938 228.019531 138.199219 228.902344 136.140625 C 229.316406 135.175781 229.78125 134.390625 229.351562 133.386719 C 229.277344 133.214844 229.1875 133.0625 229.085938 132.925781 C 229.453125 132.898438 229.832031 132.925781 230.207031 133.019531 C 231.113281 133.175781 231.875 131.847656 230.890625 131.40625 C 230.101562 131.046875 229.507812 130.59375 229.082031 129.917969 C 230.261719 129.480469 231.460938 129.253906 232.699219 129.230469 C 232.535156 129.496094 232.371094 129.757812 232.207031 130.027344 C 231.703125 130.851562 232.890625 131.792969 233.558594 131.066406 C 238.320312 125.957031 242.328125 120.238281 245.503906 114.019531 C 245.808594 113.421875 245.4375 112.691406 244.742188 112.683594 C 243.816406 112.671875 242.925781 112.742188 242.050781 112.886719 C 242.332031 112.691406 242.621094 112.5 242.921875 112.320312 C 244.351562 111.480469 245.851562 111.191406 247.355469 110.597656 C 249.796875 109.628906 249.921875 106.535156 250.664062 104.339844 C 252.3125 99.464844 254.664062 94.914062 257.527344 90.675781 C 257.542969 90.65625 257.5625 90.640625 257.582031 90.625 C 257.722656 90.492188 257.808594 90.339844 257.863281 90.183594 C 258.746094 88.902344 259.675781 87.644531 260.644531 86.417969 C 260.738281 86.296875 260.789062 86.167969 260.800781 86.039062 C 260.9375 85.898438 261.082031 85.765625 261.214844 85.621094 C 261.847656 84.9375 260.914062 84.0625 260.214844 84.621094 C 253.644531 89.894531 245.777344 91.550781 237.855469 93.789062 C 234.265625 94.800781 230.652344 96.019531 227.6875 98.351562 C 226.285156 99.445312 224.648438 100.859375 223.703125 102.386719 C 222.945312 103.601562 223.386719 104.59375 223.652344 105.675781 C 219.929688 103.757812 215.589844 107.089844 212.953125 109.882812 C 212.632812 110.222656 212.613281 110.769531 212.953125 111.113281 C 213.40625 111.570312 213.800781 112.046875 214.164062 112.550781 C 214.101562 112.566406 214.035156 112.582031 213.96875 112.59375 C 213.410156 112.714844 213.175781 113.410156 213.445312 113.875 L 213.921875 114.699219 L 211.101562 114.914062 C 210.570312 114.957031 210.027344 115.460938 210.242188 116.046875 C 210.375 116.414062 210.527344 116.761719 210.691406 117.105469 C 208.871094 117.488281 207.492188 118.960938 206.40625 120.605469 C 204.425781 123.609375 202.59375 127.113281 202.28125 130.75 C 201.738281 137.136719 205.828125 143.839844 210.683594 147.9375 C 210.175781 149.546875 209.695312 151.167969 209.277344 152.800781 C 209.246094 152.902344 209.253906 152.992188 209.277344 153.070312 C 209.144531 153.328125 209.007812 153.574219 208.882812 153.832031 C 207.691406 156.246094 206.683594 158.769531 205.773438 161.300781 C 203.917969 166.433594 202.429688 171.679688 201.273438 177.019531 C 200.113281 182.367188 199.304688 187.789062 198.824219 193.242188 C 198.523438 196.65625 198.238281 200.167969 198.238281 203.660156 C 196.214844 203.191406 194.128906 202.8125 192.007812 202.539062 C 192.203125 199.957031 191.617188 197.113281 191.480469 194.699219 C 191.265625 190.925781 191.074219 187.152344 190.929688 183.375 C 190.648438 175.816406 190.542969 168.246094 190.148438 160.691406 C 190.0625 158.984375 189.964844 157.28125 189.847656 155.574219 C 189.957031 152 190.367188 148.597656 191.179688 145.101562 C 191.976562 141.675781 192.792969 138.285156 193.273438 134.800781 C 193.667969 131.953125 193.878906 129.113281 193.9375 126.277344 C 195.054688 126.511719 196.328125 126.125 197.328125 125.410156 C 199.316406 123.980469 200.082031 121.464844 200.515625 119.164062 C 201.148438 115.816406 201.425781 112.367188 201.476562 108.96875 C 201.503906 107.128906 201.4375 105.292969 201.296875 103.457031 C 201.21875 102.414062 201.117188 101.363281 200.992188 100.324219 C 200.933594 99.839844 200.699219 98.871094 200.644531 98.078125 C 200.875 98.050781 201.097656 97.933594 201.226562 97.71875 C 201.964844 96.484375 201.820312 94.800781 201.375 93.492188 C 201.296875 93.257812 201.15625 93.101562 200.988281 93.003906 C 199.632812 89.753906 199.230469 86.292969 199.785156 82.8125 C 199.925781 81.929688 199.035156 81.414062 198.339844 81.96875 C 197.703125 82.472656 197.230469 83.039062 196.890625 83.671875 C 196.644531 82.242188 197.175781 80.777344 198.292969 79.648438 C 198.535156 79.402344 198.675781 78.996094 198.554688 78.660156 C 196.34375 72.40625 195.34375 65.929688 195.710938 59.308594 C 195.765625 58.308594 194.335938 57.984375 193.863281 58.808594 C 188.597656 67.976562 185.578125 78.214844 185.011719 88.765625 C 184.507812 89.101562 184.003906 89.4375 183.5 89.769531 C 183.132812 90.011719 182.867188 90.496094 183.019531 90.945312 C 183.355469 91.925781 182.527344 93.328125 182.734375 94.457031 C 182.894531 95.3125 183.316406 96.105469 183.777344 96.839844 C 184.507812 97.996094 185.976562 99.347656 186.238281 100.792969 C 185.835938 100.613281 185.433594 100.433594 185.027344 100.257812 C 184.464844 100.007812 183.566406 100.207031 183.402344 100.859375 C 183.375 100.617188 183.339844 100.375 183.308594 100.132812 C 182.96875 97.703125 182.253906 95.550781 180.445312 93.832031 C 179.023438 92.476562 177.097656 91.523438 175.761719 90.070312 C 176.304688 90.113281 176.894531 89.679688 176.648438 89.0625 C 175.605469 86.46875 174.164062 84.105469 172.304688 82.007812 C 170.707031 80.203125 166.273438 77.765625 167 74.972656 C 167.1875 74.238281 166.464844 73.316406 165.660156 73.632812 C 164.847656 73.957031 164.03125 74.28125 163.210938 74.601562 C 163.4375 73.476562 164.019531 72.375 163.609375 71.175781 C 163.085938 69.632812 161.46875 68.925781 160.113281 68.230469 C 156.324219 66.292969 152.191406 65.101562 147.996094 64.429688 C 139.511719 63.074219 130.886719 63.546875 122.429688 64.757812 C 122.269531 64.785156 122.140625 64.851562 122.046875 64.941406 C 121.441406 64.929688 120.835938 64.921875 120.230469 64.929688 C 119.128906 64.941406 118.609375 66.535156 119.648438 67.078125 C 126.074219 70.441406 131.027344 75.796875 133.917969 82.4375 C 134.1875 83.054688 135.214844 83.15625 135.632812 82.660156 C 137.242188 80.722656 139.472656 79.5625 141.898438 79.433594 C 140.785156 80.882812 140.011719 82.527344 139.609375 84.375 C 139.429688 85.175781 140.28125 85.945312 141.042969 85.480469 C 143.484375 83.992188 146.183594 86.410156 147.898438 88.003906 C 149.902344 89.863281 151.960938 91.664062 153.964844 93.519531 C 154.296875 93.832031 154.769531 93.820312 155.105469 93.519531 C 155.554688 93.121094 156.007812 92.71875 156.457031 92.320312 C 156.523438 92.484375 156.644531 92.628906 156.785156 92.710938 C 156.976562 92.820312 157.15625 92.902344 157.328125 92.96875 C 156.878906 93.910156 156.425781 94.851562 155.976562 95.789062 C 155.753906 96.246094 155.875 96.707031 156.292969 97 C 159.953125 99.546875 162.648438 103.128906 164.105469 107.335938 C 164.300781 107.90625 165.171875 108.324219 165.625 107.738281 C 166.683594 106.371094 167.726562 104.992188 168.78125 103.621094 C 168.765625 103.925781 168.746094 104.230469 168.730469 104.535156 C 168.6875 105.371094 169.988281 105.757812 170.351562 104.976562 C 170.960938 104.21875 171.402344 104.621094 171.664062 106.191406 C 171.648438 106.621094 171.605469 107.046875 171.535156 107.46875 C 171.472656 108.105469 171.367188 108.730469 171.441406 109.375 C 171.570312 110.464844 172.078125 111.210938 172.917969 111.875 C 175.683594 114.070312 177.660156 116.195312 178.554688 119.734375 C 178.601562 119.910156 178.683594 120.042969 178.792969 120.140625 C 179.492188 122.957031 179.929688 125.925781 180.378906 128.734375 C 180.964844 132.402344 181.5 136.082031 181.929688 139.769531 C 182.777344 147.089844 183.246094 154.457031 183.519531 161.824219 C 183.796875 169.257812 183.96875 176.695312 184.257812 184.132812 C 184.40625 187.910156 184.585938 191.683594 184.898438 195.453125 C 185.070312 197.503906 185.0625 199.875 185.488281 202.054688 C 183.992188 202.023438 182.5 202.050781 181.015625 202.144531 C 181.058594 200.195312 180.894531 198.230469 180.773438 196.308594 C 180.578125 193.277344 180.308594 190.253906 179.949219 187.242188 C 179.222656 181.152344 178.210938 175.097656 176.882812 169.105469 C 174.277344 157.324219 170.800781 145.3125 164.761719 134.820312 C 164.574219 134.496094 164.292969 134.316406 163.992188 134.246094 C 163.988281 134.238281 163.988281 134.234375 163.988281 134.230469 C 162.3125 128.359375 158.582031 123.335938 154.449219 118.941406 C 150.183594 114.402344 145.441406 109.585938 140.023438 106.429688 C 129.125 100.085938 114.769531 103.605469 105.273438 110.984375 C 100.359375 114.800781 96.421875 120.179688 96.828125 126.660156 C 96.800781 126.863281 96.84375 127.050781 96.945312 127.203125 C 97.378906 128.15625 98.957031 128.023438 99.023438 126.773438 C 99.03125 126.640625 99.042969 126.515625 99.054688 126.382812 C 100.882812 123.84375 103.085938 121.847656 105.878906 120.402344 C 106.214844 120.789062 106.554688 121.179688 106.890625 121.566406 C 107.230469 121.953125 108.027344 121.984375 108.359375 121.566406 C 109.277344 120.410156 110.191406 119.25 111.101562 118.089844 C 111.492188 118.578125 112.042969 118.972656 112.71875 119.253906 C 115.304688 120.324219 117.648438 118.316406 120.207031 118.945312 C 120.660156 119.058594 121.128906 118.871094 121.371094 118.472656 C 122.15625 117.179688 123.011719 115.949219 123.933594 114.773438 C 123.539062 116.140625 123.261719 117.546875 123.117188 119.003906 C 123.054688 119.652344 123.753906 119.972656 124.28125 119.886719 C 126.636719 119.5 128.984375 119.703125 131.203125 120.613281 C 132.949219 121.328125 134.597656 122.414062 136.5 122.671875 C 137.304688 122.78125 138.140625 122.710938 138.910156 122.472656 C 138.957031 122.652344 139.027344 122.832031 139.125 123.011719 C 139.488281 123.691406 140.070312 124.109375 140.71875 124.222656 C 140.679688 124.382812 140.632812 124.546875 140.59375 124.710938 C 140.515625 125.019531 140.640625 125.449219 140.953125 125.59375 C 145.417969 127.652344 149.164062 130.894531 151.65625 135.148438 C 151.933594 135.617188 152.699219 135.78125 153.082031 135.328125 C 155.113281 132.9375 158.066406 131.605469 161.21875 132.058594 C 161.6875 132.949219 162.128906 133.859375 162.535156 134.800781 C 162.347656 135.070312 162.269531 135.417969 162.398438 135.820312 C 165.003906 144 167.902344 152.0625 170.285156 160.300781 C 168.835938 159.191406 167.277344 158.199219 165.746094 157.21875 C 163.503906 155.785156 161.324219 154.28125 159.265625 152.59375 C 157.269531 150.960938 155.488281 149.082031 153.511719 147.433594 C 153.515625 147.421875 153.519531 147.414062 153.527344 147.402344 C 154.46875 144.589844 154.402344 141.699219 153.363281 139 C 153.601562 138.78125 153.710938 138.425781 153.511719 138.089844 C 149.460938 131.414062 141.773438 127.058594 134.277344 125.425781 C 127.820312 124.023438 118.726562 125.160156 114.984375 131.378906 C 109.449219 134.925781 105.535156 140.726562 105.992188 147.75 C 106.007812 147.953125 106.082031 148.109375 106.191406 148.21875 C 106.191406 148.230469 106.1875 148.242188 106.1875 148.25 C 106.082031 148.980469 107.070312 149.300781 107.320312 148.5625 C 108.855469 144.015625 111.121094 140.328125 115.144531 137.730469 C 115.371094 138.347656 115.601562 138.957031 115.828125 139.574219 C 116.046875 140.164062 116.765625 140.257812 117.128906 139.742188 C 117.746094 138.785156 118.636719 138.386719 119.800781 138.550781 C 120.253906 138.609375 120.699219 138.371094 120.703125 137.859375 C 120.710938 137.429688 120.746094 137.015625 120.804688 136.605469 C 121.09375 137.058594 121.386719 137.507812 121.675781 137.960938 C 121.980469 138.4375 122.5625 138.378906 122.878906 137.960938 C 123.589844 137.023438 124.308594 136.089844 125.027344 135.152344 C 124.96875 136.691406 125.046875 138.382812 126.109375 139.003906 C 126.964844 139.511719 128.316406 139.28125 129.261719 139.4375 C 131.050781 139.734375 132.726562 140.378906 134.316406 141.242188 C 134.742188 141.472656 135.433594 141.199219 135.375 140.636719 C 135.265625 139.632812 135.355469 138.71875 135.671875 137.832031 C 135.859375 137.988281 136.078125 138.085938 136.308594 138.101562 L 136.75 139.765625 C 136.84375 140.128906 137.226562 140.316406 137.578125 140.234375 C 141.867188 139.28125 144.089844 143.71875 145.921875 146.722656 C 147.328125 149.03125 149.175781 148.417969 151.621094 148.175781 C 154.414062 152.117188 158.8125 155.238281 162.839844 157.804688 C 165.597656 159.558594 168.554688 161.09375 171.082031 163.140625 C 171.6875 165.363281 172.25 167.597656 172.75 169.855469 C 174.023438 175.59375 175.023438 181.398438 175.714844 187.242188 C 176.066406 190.257812 176.359375 193.277344 176.578125 196.308594 C 176.71875 198.367188 176.730469 200.484375 176.941406 202.558594 C 174.246094 202.949219 171.605469 203.5625 169.085938 204.449219 C 158.433594 208.195312 150.800781 217.128906 148.53125 228.199219 C 147.328125 234.058594 147.476562 239.996094 148.984375 245.5625 C 149.085938 246.0625 149.195312 246.554688 149.3125 247.054688 C 148.039062 258.46875 147.871094 270.066406 147.332031 281.523438 C 146.734375 294.269531 145.871094 307.082031 146.050781 319.847656 C 146.101562 323.429688 151.160156 323.28125 151.511719 319.847656 C 152.808594 307.273438 153.089844 294.558594 153.617188 281.929688 C 153.925781 274.519531 154.417969 267.050781 154.652344 259.589844 C 156.054688 261.816406 157.652344 263.921875 159.402344 265.851562 C 163.304688 270.160156 168.070312 273.367188 173.3125 275.488281 C 172.933594 297.671875 171.933594 319.902344 172.957031 342.066406 C 173.109375 345.382812 177.964844 345.390625 178.121094 342.066406 C 179.121094 320.40625 178.1875 298.679688 177.792969 277.003906 C 180.402344 277.726562 183.09375 278.210938 185.832031 278.441406 C 190.457031 278.832031 195.125 278.382812 199.644531 277.28125 C 199.609375 277.414062 199.585938 277.550781 199.578125 277.703125 C 199.398438 282.019531 199.457031 286.328125 199.835938 290.632812 C 200.203125 294.761719 200.582031 299.144531 201.835938 303.109375 C 202.386719 304.839844 205.359375 304.652344 205.171875 302.660156 C 204.769531 298.503906 203.875 294.410156 203.507812 290.242188 C 203.144531 286.074219 202.992188 281.886719 203.058594 277.703125 C 203.070312 277.160156 202.875 276.753906 202.574219 276.476562 C 206.773438 275.164062 210.804688 273.296875 214.507812 271.011719 C 215.652344 270.308594 216.789062 269.566406 217.898438 268.78125 C 217.976562 271.65625 218.316406 274.5625 218.582031 277.328125 C 219.070312 282.472656 219.675781 287.609375 220.449219 292.722656 C 221.203125 297.6875 222.050781 302.640625 223.054688 307.558594 C 224.074219 312.558594 225.019531 317.757812 226.917969 322.507812 C 227.472656 323.890625 228.601562 324.839844 230.171875 324.628906 C 231.484375 324.453125 232.917969 323.183594 232.742188 321.71875 C 232.132812 316.734375 230.800781 311.851562 229.769531 306.9375 C 228.742188 302.027344 227.769531 297.109375 226.9375 292.160156 C 226.128906 287.363281 225.375 282.546875 224.753906 277.722656 C 224.433594 275.222656 224.097656 272.726562 223.785156 270.230469 C 223.550781 268.359375 223.386719 266.449219 223.003906 264.59375 C 224.121094 263.511719 225.164062 262.359375 226.097656 261.125 C 229.179688 257.046875 230.5625 252.132812 230.902344 247.082031 C 231.578125 237.136719 228.96875 226.421875 222.792969 218.527344 C 218.078125 212.503906 211.574219 208.171875 204.449219 205.515625 C 204.519531 201.671875 204.492188 197.828125 204.796875 193.980469 C 205.210938 188.8125 205.921875 183.664062 206.921875 178.578125 C 207.738281 174.449219 208.746094 170.359375 209.914062 166.316406 C 210.652344 165.457031 211.414062 164.613281 212.246094 163.828125 C 214.460938 161.738281 216.859375 159.871094 219.441406 158.253906 C 221.808594 156.769531 224.3125 155.480469 226.53125 153.765625 C 228.765625 152.035156 230.867188 150.042969 233.003906 148.191406 C 233.179688 148.039062 233.226562 147.824219 233.1875 147.621094 C 235.777344 146.886719 238.316406 145.980469 240.792969 144.910156 C 241.015625 144.816406 241.117188 144.542969 241.132812 144.320312 C 241.136719 144.246094 241.144531 144.167969 241.152344 144.097656 C 241.273438 144.144531 241.390625 144.1875 241.511719 144.230469 C 241.957031 144.464844 242.542969 144.179688 242.535156 143.644531 C 242.496094 143.261719 242.515625 142.886719 242.574219 142.515625 C 242.703125 142.59375 242.824219 142.675781 242.949219 142.753906 C 243.273438 142.964844 243.691406 142.8125 243.890625 142.507812 C 244.152344 142.109375 244.3125 141.757812 244.398438 141.378906 C 244.574219 141.59375 244.5625 141.910156 244.351562 142.324219 C 243.753906 142.976562 244.675781 143.90625 245.324219 143.296875 C 249.003906 139.839844 254.109375 138.53125 259 139.777344 C 259.554688 139.917969 259.953125 139.4375 259.863281 138.914062 L 259.296875 135.710938 C 260.128906 136.351562 260.707031 137.226562 261.027344 138.296875 C 261.105469 138.566406 261.394531 138.84375 261.699219 138.8125 C 263.035156 138.667969 264.367188 138.527344 265.699219 138.382812 C 266.113281 138.335938 266.351562 138.09375 266.394531 137.6875 C 266.484375 136.933594 266.460938 136.226562 266.324219 135.542969 C 266.914062 136.089844 267.449219 136.699219 267.945312 137.382812 C 268.125 137.628906 268.519531 137.832031 268.808594 137.609375 C 270.941406 135.980469 273.230469 135.363281 275.890625 135.355469 C 276.128906 135.355469 276.269531 135.238281 276.335938 135.085938 C 276.398438 135.128906 276.460938 135.167969 276.523438 135.207031 C 277.425781 135.8125 278.570312 134.375 277.699219 133.6875 Z M 193.777344 73.976562 C 193.824219 73.386719 192.847656 73.25 192.738281 73.835938 C 191.167969 81.953125 190.972656 90.710938 191.507812 98.941406 C 191.550781 99.609375 192.558594 99.621094 192.554688 98.941406 C 192.527344 94.769531 192.503906 90.601562 192.714844 86.433594 C 192.929688 82.265625 193.457031 78.132812 193.777344 73.976562 Z M 194.214844 92.222656 C 193.0625 96.257812 192.371094 100.5 192.894531 104.699219 C 192.972656 105.328125 193.917969 105.375 193.917969 104.699219 C 193.898438 100.535156 194.046875 96.519531 195.09375 92.460938 C 195.242188 91.890625 194.378906 91.652344 194.214844 92.222656 Z M 194.214844 92.222656 C 193.0625 96.257812 192.371094 100.5 192.894531 104.699219 C 192.972656 105.328125 193.917969 105.375 193.917969 104.699219 C 193.898438 100.535156 194.046875 96.519531 195.09375 92.460938 C 195.242188 91.890625 194.378906 91.652344 194.214844 92.222656 Z M 193.777344 73.976562 C 193.824219 73.386719 192.847656 73.25 192.738281 73.835938 C 191.167969 81.953125 190.972656 90.710938 191.507812 98.941406 C 191.550781 99.609375 192.558594 99.621094 192.554688 98.941406 C 192.527344 94.769531 192.503906 90.601562 192.714844 86.433594 C 192.929688 82.265625 193.457031 78.132812 193.777344 73.976562 Z M 193.777344 73.976562 C 193.824219 73.386719 192.847656 73.25 192.738281 73.835938 C 191.167969 81.953125 190.972656 90.710938 191.507812 98.941406 C 191.550781 99.609375 192.558594 99.621094 192.554688 98.941406 C 192.527344 94.769531 192.503906 90.601562 192.714844 86.433594 C 192.929688 82.265625 193.457031 78.132812 193.777344 73.976562 Z M 194.214844 92.222656 C 193.0625 96.257812 192.371094 100.5 192.894531 104.699219 C 192.972656 105.328125 193.917969 105.375 193.917969 104.699219 C 193.898438 100.535156 194.046875 96.519531 195.09375 92.460938 C 195.242188 91.890625 194.378906 91.652344 194.214844 92.222656 Z M 194.214844 92.222656 C 193.0625 96.257812 192.371094 100.5 192.894531 104.699219 C 192.972656 105.328125 193.917969 105.375 193.917969 104.699219 C 193.898438 100.535156 194.046875 96.519531 195.09375 92.460938 C 195.242188 91.890625 194.378906 91.652344 194.214844 92.222656 Z M 193.777344 73.976562 C 193.824219 73.386719 192.847656 73.25 192.738281 73.835938 C 191.167969 81.953125 190.972656 90.710938 191.507812 98.941406 C 191.550781 99.609375 192.558594 99.621094 192.554688 98.941406 C 192.527344 94.769531 192.503906 90.601562 192.714844 86.433594 C 192.929688 82.265625 193.457031 78.132812 193.777344 73.976562 Z M 193.777344 73.976562 C 193.824219 73.386719 192.847656 73.25 192.738281 73.835938 C 191.167969 81.953125 190.972656 90.710938 191.507812 98.941406 C 191.550781 99.609375 192.558594 99.621094 192.554688 98.941406 C 192.527344 94.769531 192.503906 90.601562 192.714844 86.433594 C 192.929688 82.265625 193.457031 78.132812 193.777344 73.976562 Z M 194.214844 92.222656 C 193.0625 96.257812 192.371094 100.5 192.894531 104.699219 C 192.972656 105.328125 193.917969 105.375 193.917969 104.699219 C 193.898438 100.535156 194.046875 96.519531 195.09375 92.460938 C 195.242188 91.890625 194.378906 91.652344 194.214844 92.222656 Z M 194.214844 92.222656 C 193.0625 96.257812 192.371094 100.5 192.894531 104.699219 C 192.972656 105.328125 193.917969 105.375 193.917969 104.699219 C 193.898438 100.535156 194.046875 96.519531 195.09375 92.460938 C 195.242188 91.890625 194.378906 91.652344 194.214844 92.222656 Z M 193.777344 73.976562 C 193.824219 73.386719 192.847656 73.25 192.738281 73.835938 C 191.167969 81.953125 190.972656 90.710938 191.507812 98.941406 C 191.550781 99.609375 192.558594 99.621094 192.554688 98.941406 C 192.527344 94.769531 192.503906 90.601562 192.714844 86.433594 C 192.929688 82.265625 193.457031 78.132812 193.777344 73.976562 " fill-opacity="1" fill-rule="nonzero"/></g><path fill="#000000" d="M 192.714844 86.433594 C 192.503906 90.601562 192.527344 94.769531 192.554688 98.941406 C 192.558594 99.621094 191.550781 99.609375 191.507812 98.941406 C 190.972656 90.710938 191.167969 81.953125 192.738281 73.835938 C 192.847656 73.25 193.824219 73.386719 193.777344 73.976562 C 193.457031 78.132812 192.929688 82.265625 192.714844 86.433594 " fill-opacity="1" fill-rule="nonzero"/><path fill="#000000" d="M 195.09375 92.460938 C 194.046875 96.519531 193.898438 100.535156 193.917969 104.699219 C 193.917969 105.375 192.972656 105.328125 192.894531 104.699219 C 192.371094 100.5 193.0625 96.257812 194.214844 92.222656 C 194.378906 91.652344 195.242188 91.890625 195.09375 92.460938 " fill-opacity="1" fill-rule="nonzero"/><g clip-path="url(#c90e394768)"><path fill="#000000" d="M 268.636719 136.191406 C 267.640625 134.890625 266.484375 133.800781 265.09375 132.890625 C 264.523438 132.519531 263.808594 133.253906 264.160156 133.820312 C 264.824219 134.867188 265.09375 135.898438 265.050781 137.058594 C 264.09375 137.15625 263.136719 137.257812 262.175781 137.359375 C 261.507812 135.636719 260.289062 134.441406 258.535156 133.707031 C 257.992188 133.476562 257.59375 134.113281 257.675781 134.566406 C 257.890625 135.777344 258.105469 136.988281 258.316406 138.199219 C 253.882812 137.390625 249.371094 138.457031 245.777344 141.136719 C 245.507812 140.351562 244.792969 139.730469 243.804688 139.710938 C 243.4375 139.707031 243.109375 140.03125 243.117188 140.402344 C 243.050781 140.636719 242.980469 140.875 242.910156 141.109375 C 242.777344 141.023438 242.640625 140.941406 242.503906 140.855469 C 242.121094 140.613281 241.621094 140.851562 241.5 141.261719 C 241.355469 141.742188 241.273438 142.179688 241.222656 142.628906 C 241.097656 142.59375 240.945312 142.558594 240.734375 142.507812 C 240.273438 142.402344 239.917969 142.714844 239.875 143.160156 C 239.855469 143.382812 239.832031 143.605469 239.804688 143.832031 C 237.503906 144.71875 235.175781 145.5 232.808594 146.171875 C 234.96875 142.851562 237.050781 139.5625 240.042969 136.871094 C 243.328125 133.925781 247.3125 131.769531 251.558594 130.582031 C 259.699219 128.304688 267.976562 130.011719 275.0625 134.285156 C 272.761719 134.191406 270.554688 134.910156 268.636719 136.191406 Z M 204.246094 133.660156 C 203.753906 130.496094 204.679688 127.566406 206.125 124.785156 C 207.1875 122.738281 209.070312 118.335938 211.972656 118.800781 C 212.660156 118.914062 213.488281 118.195312 212.984375 117.480469 C 212.773438 117.175781 212.589844 116.890625 212.425781 116.589844 C 213.410156 116.511719 214.394531 116.429688 215.382812 116.347656 C 216.027344 116.292969 216.5 115.636719 216.140625 115.023438 C 215.945312 114.691406 215.753906 114.359375 215.5625 114.027344 C 215.644531 114.007812 215.734375 113.988281 215.820312 113.96875 C 216.371094 113.847656 216.617188 113.15625 216.339844 112.691406 C 215.871094 111.910156 215.355469 111.203125 214.769531 110.527344 C 217.199219 108.167969 221.035156 105.113281 223.988281 108.253906 C 224.449219 108.746094 225.40625 108.53125 225.546875 107.84375 C 225.683594 107.160156 225.691406 106.621094 225.542969 105.933594 C 225.246094 104.605469 225.078125 103.796875 226.03125 102.738281 C 227.464844 101.15625 228.992188 99.714844 230.839844 98.632812 C 234.300781 96.613281 238.320312 95.714844 242.148438 94.664062 C 245.269531 93.804688 248.566406 92.917969 251.695312 91.6875 C 247.753906 94.460938 244.015625 97.585938 240.386719 100.699219 C 235.53125 104.859375 230.902344 109.324219 226.816406 114.253906 C 220.335938 122.074219 214.984375 131.21875 213.085938 141.246094 C 211.957031 138.851562 211.53125 135.84375 211.265625 133.414062 C 210.929688 130.375 211.148438 127.4375 211.484375 124.417969 C 211.550781 123.820312 210.570312 123.695312 210.441406 124.273438 C 209.695312 127.664062 209.6875 131.273438 210.179688 134.699219 C 210.558594 137.359375 211.105469 140.765625 212.785156 143.058594 C 212.636719 144.074219 212.523438 145.097656 212.449219 146.132812 C 212.429688 146.449219 212.566406 146.691406 212.773438 146.855469 C 212.738281 146.917969 212.703125 146.980469 212.667969 147.042969 C 208.726562 143.457031 205.101562 139.09375 204.246094 133.660156 Z M 249.96875 101.617188 C 249.371094 103.140625 248.84375 104.6875 248.382812 106.253906 C 248.136719 107.101562 248.023438 108.195312 247.246094 108.765625 C 246.617188 109.21875 245.53125 109.300781 244.792969 109.546875 C 242.144531 110.425781 239.871094 112.035156 238.0625 114.144531 C 237.375 114.945312 238.21875 115.929688 239.136719 115.539062 C 240.480469 114.96875 241.828125 114.640625 243.242188 114.515625 C 240.75 119.207031 237.773438 123.585938 234.328125 127.617188 C 234.28125 127.605469 234.234375 127.59375 234.183594 127.589844 C 231.800781 127.402344 229.660156 127.761719 227.464844 128.726562 C 227.148438 128.863281 226.945312 129.378906 227.070312 129.703125 C 227.3125 130.335938 227.621094 130.890625 228.007812 131.375 C 227.582031 131.480469 227.15625 131.636719 226.714844 131.84375 C 225.953125 132.203125 226.296875 133.210938 226.925781 133.457031 C 228.917969 134.242188 225.566406 138.625 224.835938 139.539062 C 223.589844 141.101562 222.082031 142.480469 220.390625 143.546875 C 218.707031 144.613281 216.875 145.390625 215.105469 146.261719 C 214.910156 146.109375 214.691406 145.996094 214.460938 145.941406 C 216.867188 134.5625 222.402344 124.257812 230.011719 115.5 C 234.070312 110.828125 238.601562 106.585938 243.308594 102.570312 C 246.625 99.75 250.121094 97.113281 253.457031 94.304688 C 252.128906 96.65625 250.957031 99.097656 249.96875 101.617188 Z M 207.917969 220.011719 C 208.335938 220.214844 208.746094 220.429688 209.152344 220.652344 C 210.714844 221.964844 212.191406 223.359375 213.574219 224.792969 C 213.148438 224.453125 212.714844 224.128906 212.273438 223.816406 C 205.125 218.832031 196.007812 216.945312 187.425781 218.105469 C 179.214844 219.214844 169.730469 223.457031 165.769531 231.1875 C 161.253906 240.007812 168.398438 247.871094 176.75 250.132812 C 186.414062 252.75 197.398438 251.242188 206.203125 246.597656 C 209.671875 244.765625 213.320312 241.78125 213.050781 237.453125 C 212.78125 233.152344 208.945312 229.96875 205.359375 228.195312 C 201.257812 226.164062 196.632812 225.425781 192.082031 225.542969 C 187.554688 225.65625 182.460938 226.34375 178.371094 228.382812 C 174.78125 230.167969 171.886719 234.144531 173.449219 238.246094 C 174.972656 242.253906 179.34375 243.800781 183.292969 244.003906 C 188.546875 244.269531 194.046875 243.417969 199.128906 242.136719 C 202.476562 241.292969 207.667969 239.054688 205.992188 234.585938 C 204.597656 230.867188 198.820312 230.035156 195.445312 229.9375 C 191.628906 229.824219 186.113281 230.6875 183.34375 233.628906 C 182.382812 234.65625 182.242188 236.066406 182.914062 237.300781 C 183.871094 239.074219 186.027344 239.53125 187.863281 239.757812 C 190.164062 240.039062 192.488281 239.949219 194.765625 239.496094 C 195.992188 239.253906 198.351562 238.941406 198.765625 237.425781 C 199.777344 233.761719 191.476562 234.785156 190.066406 234.773438 C 189.195312 234.765625 189.195312 236.113281 190.066406 236.132812 C 191.125 236.148438 192.1875 236.167969 193.242188 236.183594 C 194.066406 236.195312 195.621094 235.929688 196.351562 236.328125 C 196.953125 236.652344 197.300781 236.894531 196.5 237.503906 C 196.261719 237.691406 195.425781 237.796875 195.078125 237.871094 C 193.707031 238.164062 192.308594 238.316406 190.90625 238.324219 C 189.71875 238.332031 184.148438 238.273438 184.285156 236.140625 C 184.429688 233.902344 188.234375 233.042969 189.976562 232.589844 C 193.789062 231.601562 198.421875 231.660156 202.011719 233.457031 C 203.015625 233.957031 204.15625 234.746094 204.207031 236.011719 C 204.261719 237.351562 203.070312 238.421875 202.003906 239.007812 C 200.230469 239.988281 197.949219 240.324219 195.980469 240.734375 C 191.875 241.578125 187.496094 242.175781 183.292969 241.917969 C 179.292969 241.675781 173.191406 238.863281 175.640625 233.808594 C 177.429688 230.105469 182.09375 229.132812 185.765625 228.453125 C 189.667969 227.734375 193.765625 227.488281 197.703125 228.121094 C 201.386719 228.714844 205.230469 230.082031 208.019531 232.644531 C 211.402344 235.753906 211.648438 239.863281 207.964844 242.816406 C 201.824219 247.742188 192.410156 249.414062 184.757812 249.023438 C 177.625 248.664062 166.511719 245.777344 166.679688 236.6875 C 166.816406 229.285156 175.054688 224.214844 181.238281 222.074219 C 187.898438 219.773438 195.230469 219.617188 201.984375 221.605469 C 208.554688 223.539062 216.269531 228.039062 218.292969 235.042969 C 220.542969 242.808594 212.554688 247.628906 206.625 250.339844 C 202.742188 252.109375 198.691406 253.617188 194.46875 254.332031 C 189.90625 255.105469 185.191406 254.875 180.632812 254.160156 C 174.78125 253.242188 168.140625 251.769531 163.339844 247.984375 C 160.179688 237.8125 161.992188 226.285156 170.53125 218.964844 C 174.527344 217.226562 178.964844 216.375 183.292969 216.148438 C 191.429688 215.722656 200.503906 216.394531 207.917969 220.011719 Z M 221.011719 237.417969 C 221.683594 239.96875 221.964844 242.617188 221.820312 245.273438 C 219.035156 248.539062 214.40625 250.828125 210.9375 252.753906 C 207.195312 254.824219 203.347656 256.746094 199.25 258.003906 C 195.148438 259.265625 190.972656 259.601562 186.703125 259.582031 C 181.1875 259.554688 175.515625 259.445312 170.066406 258.355469 C 168.1875 256.488281 166.546875 254.363281 165.199219 252.011719 C 168.820312 253.984375 172.855469 255.136719 176.875 255.949219 C 182.382812 257.0625 188.046875 257.644531 193.644531 256.910156 C 198.738281 256.242188 203.5625 254.4375 208.199219 252.292969 C 212.015625 250.527344 215.886719 248.320312 218.496094 244.9375 C 220.382812 242.496094 221.113281 239.929688 221.011719 237.417969 Z M 221.015625 250.324219 C 220.980469 250.460938 220.9375 250.585938 220.898438 250.71875 C 214.550781 255.683594 208.019531 259.871094 200.308594 262.507812 C 194.894531 264.359375 188.710938 265.921875 182.691406 266.074219 C 179.441406 264.988281 176.371094 263.40625 173.625 261.394531 C 175.417969 261.621094 177.21875 261.773438 179.003906 261.867188 C 184.035156 262.144531 189.207031 262.363281 194.210938 261.683594 C 199.410156 260.96875 204.3125 259.023438 208.964844 256.65625 C 212.609375 254.804688 217.496094 252.535156 221.234375 249.429688 C 221.167969 249.730469 221.097656 250.03125 221.015625 250.324219 Z M 216.746094 258.011719 C 215.992188 258.742188 215.191406 259.425781 214.355469 260.082031 C 212.164062 261.804688 209.785156 263.34375 207.289062 264.664062 C 205.527344 265.507812 203.695312 266.207031 201.792969 266.71875 C 196.980469 268 192.007812 268.132812 187.257812 267.253906 C 191.839844 266.589844 196.367188 265.605469 200.738281 264.078125 C 207.476562 261.71875 214.265625 258.222656 219.828125 253.566406 C 219.027344 255.226562 218 256.679688 216.746094 258.011719 Z M 192.527344 212.496094 C 195.171875 212.871094 197.722656 213.683594 200.160156 214.808594 C 198.039062 214.375 195.886719 214.082031 193.726562 213.875 C 188.851562 213.417969 183.914062 213.335938 179.058594 214.019531 C 183.375 212.4375 188.074219 211.863281 192.527344 212.496094 Z M 185.335938 127.367188 C 184.199219 123.761719 182.644531 120.375 181.316406 116.851562 C 181.25 116.679688 181.160156 116.535156 181.058594 116.402344 C 181.085938 115.648438 181.085938 114.894531 181.058594 114.144531 C 181.894531 112.359375 183.015625 110.65625 183.421875 108.710938 C 183.742188 107.195312 183.792969 105.652344 183.714844 104.109375 C 184.179688 108.519531 184.574219 113.035156 185.808594 117.242188 C 186.886719 120.910156 188.957031 124.351562 192.4375 126.046875 C 192.273438 129.472656 191.898438 132.882812 191.292969 136.238281 C 190.730469 139.363281 189.726562 142.585938 188.96875 145.835938 C 188.671875 143.285156 188.324219 140.742188 187.882812 138.210938 C 187.25 134.546875 186.453125 130.921875 185.335938 127.367188 Z M 166.949219 84.824219 C 159.347656 76.753906 149.554688 70.761719 138.945312 67.542969 C 137.144531 66.996094 135.316406 66.539062 133.472656 66.167969 C 137.523438 66.097656 141.570312 66.148438 145.589844 66.648438 C 149.359375 67.113281 153.09375 67.984375 156.621094 69.402344 C 157.9375 69.929688 161.324219 70.890625 161.382812 72.546875 C 161.429688 73.96875 160.648438 75.054688 161.015625 76.539062 C 161.152344 77.074219 161.847656 77.554688 162.398438 77.324219 C 163.210938 76.984375 164.027344 76.648438 164.839844 76.3125 C 165.171875 78.144531 166.605469 79.609375 168.125 80.859375 C 170.605469 82.90625 172.675781 84.988281 174.179688 87.710938 C 174.066406 87.703125 173.945312 87.699219 173.820312 87.703125 C 173.339844 87.714844 172.820312 88.230469 173.03125 88.746094 C 173.847656 90.785156 175.316406 92.085938 176.992188 93.449219 C 179.296875 95.320312 180.804688 96.988281 181.265625 100.039062 C 181.777344 103.433594 182.148438 107.140625 180.679688 110.347656 C 179.144531 100.769531 173.402344 91.675781 166.949219 84.824219 Z M 178.453125 114.964844 C 178.1875 114.523438 177.894531 114.089844 177.566406 113.671875 C 176.871094 112.785156 176.082031 112.003906 175.191406 111.3125 C 173.828125 110.257812 173.136719 109.234375 173.316406 107.46875 C 173.472656 105.933594 173.570312 103.984375 171.933594 103.171875 C 171.492188 102.953125 171.007812 102.871094 170.542969 102.917969 C 170.574219 102.257812 170.605469 101.589844 170.632812 100.929688 C 170.679688 99.988281 169.507812 99.890625 169.039062 100.496094 C 167.796875 102.109375 166.519531 103.695312 165.253906 105.292969 C 163.660156 101.539062 161.136719 98.363281 157.832031 95.929688 C 158.289062 94.875 158.742188 93.8125 159.199219 92.757812 C 159.414062 92.257812 159.179688 91.503906 158.511719 91.554688 C 157.929688 91.449219 157.785156 91.113281 158.074219 90.53125 C 158.140625 89.808594 157.210938 89.59375 156.753906 89.988281 C 156.03125 90.609375 155.300781 91.230469 154.574219 91.855469 C 152.164062 89.464844 149.878906 86.832031 147.125 84.839844 C 145.609375 83.738281 143.859375 82.933594 142.101562 83.105469 C 142.726562 81.65625 143.628906 80.390625 144.847656 79.273438 C 145.390625 78.777344 145.15625 77.675781 144.386719 77.539062 C 141.023438 76.9375 137.714844 77.8125 135.199219 80.007812 C 132.773438 74.910156 129.121094 70.546875 124.527344 67.332031 C 150.199219 68.851562 174.671875 87.777344 179.066406 113.539062 C 178.84375 114.007812 178.636719 114.480469 178.453125 114.964844 Z M 186.613281 103.335938 C 187.320312 103.652344 187.925781 103.382812 188.21875 102.679688 C 189.101562 100.570312 187.796875 98.707031 186.582031 97.050781 C 185.902344 96.117188 184.878906 94.984375 184.820312 93.769531 C 184.765625 92.738281 185.167969 92.039062 185.152344 91.191406 C 185.867188 90.773438 186.722656 90.289062 186.992188 89.609375 C 187.425781 88.542969 187.15625 86.839844 187.265625 85.671875 C 187.550781 82.59375 188.078125 79.539062 188.816406 76.535156 C 189.933594 71.972656 191.574219 67.582031 193.65625 63.394531 C 193.769531 68.609375 194.679688 73.773438 196.425781 78.714844 C 194.734375 80.921875 194.777344 83.921875 196.328125 86.261719 C 196.664062 86.773438 197.597656 86.769531 197.738281 86.078125 C 197.761719 85.949219 197.792969 85.828125 197.824219 85.714844 C 197.824219 88.472656 198.421875 91.160156 199.613281 93.730469 C 199.621094 93.804688 199.628906 93.882812 199.65625 93.964844 C 199.910156 94.75 199.902344 95.453125 199.835938 96.1875 C 198.6875 97.625 199.542969 100.203125 199.644531 101.890625 C 199.824219 104.894531 199.800781 107.921875 199.613281 110.929688 C 199.433594 113.789062 199.160156 116.707031 198.507812 119.496094 C 198.039062 121.496094 196.445312 125.277344 193.953125 124.351562 C 193.9375 121.226562 193.730469 118.097656 193.320312 114.960938 C 193.234375 114.289062 192.1875 114.253906 192.242188 114.960938 C 192.484375 117.917969 192.574219 120.910156 192.511719 123.898438 C 192.492188 123.902344 192.476562 123.910156 192.457031 123.921875 C 189.503906 121.832031 188.023438 118.5 187.351562 114.886719 C 186.621094 110.957031 186.238281 106.945312 185.78125 102.96875 C 186.058594 103.089844 186.335938 103.214844 186.613281 103.335938 Z M 152.707031 144.261719 C 152.078125 142.761719 151.039062 141.335938 150.242188 140.1875 C 148.644531 137.902344 146.757812 135.8125 144.621094 134.023438 C 140.117188 130.265625 134.574219 127.910156 128.6875 127.621094 C 125.5625 127.464844 122.34375 128.023438 119.351562 129.167969 C 120.574219 128.265625 121.921875 127.519531 123.53125 127.019531 C 127.222656 125.882812 131.195312 126.132812 134.894531 127.089844 C 141.210938 128.722656 147.65625 132.277344 151.476562 137.710938 C 151.371094 137.914062 151.355469 138.171875 151.480469 138.417969 C 152.453125 140.292969 152.859375 142.265625 152.707031 144.261719 Z M 151.714844 146.769531 C 150.851562 146.863281 149.632812 147.230469 148.78125 147.09375 C 147.355469 146.863281 147.128906 146.113281 146.546875 145.128906 C 145.742188 143.769531 144.941406 142.394531 143.847656 141.242188 C 142.253906 139.5625 140.171875 138.574219 137.902344 138.824219 C 137.742188 138.214844 137.585938 137.605469 137.429688 136.996094 C 137.300781 136.496094 136.644531 136.335938 136.285156 136.691406 C 136.285156 136.511719 136.285156 136.332031 136.28125 136.152344 C 136.175781 135.542969 135.304688 135.519531 135.019531 135.988281 C 134.351562 137.105469 133.992188 138.246094 133.9375 139.480469 C 132.355469 138.734375 130.695312 138.21875 128.941406 137.988281 C 127.933594 137.851562 126.960938 138.011719 126.617188 136.949219 C 126.28125 135.90625 126.542969 134.074219 126.515625 132.984375 C 126.496094 132.242188 125.617188 132.109375 125.21875 132.636719 C 124.257812 133.890625 123.296875 135.140625 122.339844 136.394531 C 121.921875 135.730469 121.5 135.070312 121.085938 134.40625 C 120.757812 133.882812 119.960938 133.980469 119.78125 134.578125 C 119.523438 135.425781 119.371094 136.25 119.3125 137.105469 C 118.34375 137.117188 117.5 137.449219 116.789062 138.046875 C 116.601562 137.515625 116.410156 136.984375 116.21875 136.453125 C 116.0625 136.011719 115.582031 135.769531 115.148438 136.015625 C 112.761719 137.378906 110.539062 139.363281 108.886719 141.707031 C 111.996094 134.167969 119.265625 129.199219 128.019531 129.289062 C 133.128906 129.339844 138.074219 131.101562 142.191406 134.09375 C 144.171875 135.53125 145.960938 137.230469 147.527344 139.105469 C 149.054688 140.933594 151.769531 144.132812 151.929688 146.78125 C 151.863281 146.765625 151.792969 146.757812 151.714844 146.769531 Z M 152.519531 133.183594 C 149.882812 129.421875 146.449219 126.433594 142.265625 124.488281 C 142.347656 124.164062 142.433594 123.839844 142.515625 123.515625 C 142.695312 122.832031 141.96875 122.324219 141.371094 122.632812 C 141.023438 122.175781 140.824219 121.746094 140.773438 121.351562 C 141.246094 120.84375 141.582031 120.203125 141.6875 119.417969 C 141.777344 118.75 140.933594 117.957031 140.375 118.648438 C 139.867188 119.285156 139.316406 120.015625 139.023438 120.800781 C 137.085938 121.8125 133.410156 119.488281 131.816406 118.84375 C 129.648438 117.96875 127.390625 117.734375 125.113281 117.953125 C 125.609375 115.113281 126.679688 112.457031 128.257812 110.027344 C 128.898438 109.035156 127.496094 108.058594 126.679688 108.808594 C 124.09375 111.179688 121.867188 113.863281 119.980469 116.820312 C 119.066406 116.703125 118.195312 116.792969 117.234375 117.015625 C 116.464844 117.191406 112.089844 118.429688 112.566406 116.113281 C 112.753906 115.195312 111.515625 114.191406 110.808594 115.085938 C 109.726562 116.464844 108.652344 117.839844 107.578125 119.21875 L 106.847656 118.398438 C 106.53125 118.042969 106.003906 118.046875 105.609375 118.242188 C 103.550781 119.25 101.648438 120.59375 100.03125 122.21875 C 101.914062 117.433594 106.132812 113.597656 110.507812 111.019531 C 116.660156 107.398438 124.199219 105.203125 131.359375 106.347656 C 138.738281 107.527344 144.28125 112.730469 149.558594 117.625 C 153.566406 121.339844 157.199219 125.3125 159.996094 129.90625 C 157.132812 129.960938 154.5 131.070312 152.519531 133.183594 Z M 277.699219 133.6875 C 270.285156 127.832031 260.074219 126.066406 251.046875 128.730469 C 242.082031 131.378906 234.777344 138.136719 231.023438 146.652344 C 231.023438 146.652344 230.789062 148.257812 228.792969 149.277344 C 227.621094 150.238281 226.503906 151.296875 225.296875 152.167969 C 222.808594 153.957031 220.027344 155.273438 217.441406 156.910156 C 215.3125 158.257812 213.292969 159.785156 211.402344 161.464844 C 211.957031 159.773438 212.527344 158.089844 213.074219 156.394531 C 213.933594 153.746094 214.578125 150.945312 215.667969 148.386719 C 215.742188 148.210938 215.785156 148.035156 215.804688 147.863281 C 216.949219 147.289062 218.132812 146.765625 219.285156 146.1875 C 221.53125 145.0625 223.582031 143.601562 225.277344 141.738281 C 226.785156 140.085938 228.019531 138.199219 228.902344 136.140625 C 229.316406 135.175781 229.78125 134.390625 229.351562 133.386719 C 229.277344 133.214844 229.1875 133.0625 229.085938 132.925781 C 229.453125 132.898438 229.832031 132.925781 230.207031 133.019531 C 231.113281 133.175781 231.875 131.847656 230.890625 131.40625 C 230.101562 131.046875 229.507812 130.59375 229.082031 129.917969 C 230.261719 129.480469 231.460938 129.253906 232.699219 129.230469 C 232.535156 129.496094 232.371094 129.757812 232.207031 130.027344 C 231.703125 130.851562 232.890625 131.792969 233.558594 131.066406 C 238.320312 125.957031 242.328125 120.238281 245.503906 114.019531 C 245.808594 113.421875 245.4375 112.691406 244.742188 112.683594 C 243.816406 112.671875 242.925781 112.742188 242.050781 112.886719 C 242.332031 112.691406 242.621094 112.5 242.921875 112.320312 C 244.351562 111.480469 245.851562 111.191406 247.355469 110.597656 C 249.796875 109.628906 249.921875 106.535156 250.664062 104.339844 C 252.3125 99.464844 254.664062 94.914062 257.527344 90.675781 C 257.542969 90.65625 257.5625 90.640625 257.582031 90.625 C 257.722656 90.492188 257.808594 90.339844 257.863281 90.183594 C 258.746094 88.902344 259.675781 87.644531 260.644531 86.417969 C 260.738281 86.296875 260.789062 86.167969 260.800781 86.039062 C 260.9375 85.898438 261.082031 85.765625 261.214844 85.621094 C 261.847656 84.9375 260.914062 84.0625 260.214844 84.621094 C 253.644531 89.894531 245.777344 91.550781 237.855469 93.789062 C 234.265625 94.800781 230.652344 96.019531 227.6875 98.351562 C 226.285156 99.445312 224.648438 100.859375 223.703125 102.386719 C 222.945312 103.601562 223.386719 104.59375 223.652344 105.675781 C 219.929688 103.757812 215.589844 107.089844 212.953125 109.882812 C 212.632812 110.222656 212.613281 110.769531 212.953125 111.113281 C 213.40625 111.570312 213.800781 112.046875 214.164062 112.550781 C 214.101562 112.566406 214.035156 112.582031 213.96875 112.59375 C 213.410156 112.714844 213.175781 113.410156 213.445312 113.875 L 213.921875 114.699219 L 211.101562 114.914062 C 210.570312 114.957031 210.027344 115.460938 210.242188 116.046875 C 210.375 116.414062 210.527344 116.761719 210.691406 117.105469 C 208.871094 117.488281 207.492188 118.960938 206.40625 120.605469 C 204.425781 123.609375 202.59375 127.113281 202.28125 130.75 C 201.738281 137.136719 205.828125 143.839844 210.683594 147.9375 C 210.175781 149.546875 209.695312 151.167969 209.277344 152.800781 C 209.246094 152.902344 209.253906 152.992188 209.277344 153.070312 C 209.144531 153.328125 209.007812 153.574219 208.882812 153.832031 C 207.691406 156.246094 206.683594 158.769531 205.773438 161.300781 C 203.917969 166.433594 202.429688 171.679688 201.273438 177.019531 C 200.113281 182.367188 199.304688 187.789062 198.824219 193.242188 C 198.523438 196.65625 198.238281 200.167969 198.238281 203.660156 C 196.214844 203.191406 194.128906 202.8125 192.007812 202.539062 C 192.203125 199.957031 191.617188 197.113281 191.480469 194.699219 C 191.265625 190.925781 191.074219 187.152344 190.929688 183.375 C 190.648438 175.816406 190.542969 168.246094 190.148438 160.691406 C 190.0625 158.984375 189.964844 157.28125 189.847656 155.574219 C 189.957031 152 190.367188 148.597656 191.179688 145.101562 C 191.976562 141.675781 192.792969 138.285156 193.273438 134.800781 C 193.667969 131.953125 193.878906 129.113281 193.9375 126.277344 C 195.054688 126.511719 196.328125 126.125 197.328125 125.410156 C 199.316406 123.980469 200.082031 121.464844 200.515625 119.164062 C 201.148438 115.816406 201.425781 112.367188 201.476562 108.96875 C 201.503906 107.128906 201.4375 105.292969 201.296875 103.457031 C 201.21875 102.414062 201.117188 101.363281 200.992188 100.324219 C 200.933594 99.839844 200.699219 98.871094 200.644531 98.078125 C 200.875 98.050781 201.097656 97.933594 201.226562 97.71875 C 201.964844 96.484375 201.820312 94.800781 201.375 93.492188 C 201.296875 93.257812 201.15625 93.101562 200.988281 93.003906 C 199.632812 89.753906 199.230469 86.292969 199.785156 82.8125 C 199.925781 81.929688 199.035156 81.414062 198.339844 81.96875 C 197.703125 82.472656 197.230469 83.039062 196.890625 83.671875 C 196.644531 82.242188 197.175781 80.777344 198.292969 79.648438 C 198.535156 79.402344 198.675781 78.996094 198.554688 78.660156 C 196.34375 72.40625 195.34375 65.929688 195.710938 59.308594 C 195.765625 58.308594 194.335938 57.984375 193.863281 58.808594 C 188.597656 67.976562 185.578125 78.214844 185.011719 88.765625 C 184.507812 89.101562 184.003906 89.4375 183.5 89.769531 C 183.132812 90.011719 182.867188 90.496094 183.019531 90.945312 C 183.355469 91.925781 182.527344 93.328125 182.734375 94.457031 C 182.894531 95.3125 183.316406 96.105469 183.777344 96.839844 C 184.507812 97.996094 185.976562 99.347656 186.238281 100.792969 C 185.835938 100.613281 185.433594 100.433594 185.027344 100.257812 C 184.464844 100.007812 183.566406 100.207031 183.402344 100.859375 C 183.375 100.617188 183.339844 100.375 183.308594 100.132812 C 182.96875 97.703125 182.253906 95.550781 180.445312 93.832031 C 179.023438 92.476562 177.097656 91.523438 175.761719 90.070312 C 176.304688 90.113281 176.894531 89.679688 176.648438 89.0625 C 175.605469 86.46875 174.164062 84.105469 172.304688 82.007812 C 170.707031 80.203125 166.273438 77.765625 167 74.972656 C 167.1875 74.238281 166.464844 73.316406 165.660156 73.632812 C 164.847656 73.957031 164.03125 74.28125 163.210938 74.601562 C 163.4375 73.476562 164.019531 72.375 163.609375 71.175781 C 163.085938 69.632812 161.46875 68.925781 160.113281 68.230469 C 156.324219 66.292969 152.191406 65.101562 147.996094 64.429688 C 139.511719 63.074219 130.886719 63.546875 122.429688 64.757812 C 122.269531 64.785156 122.140625 64.851562 122.046875 64.941406 C 121.441406 64.929688 120.835938 64.921875 120.230469 64.929688 C 119.128906 64.941406 118.609375 66.535156 119.648438 67.078125 C 126.074219 70.441406 131.027344 75.796875 133.917969 82.4375 C 134.1875 83.054688 135.214844 83.15625 135.632812 82.660156 C 137.242188 80.722656 139.472656 79.5625 141.898438 79.433594 C 140.785156 80.882812 140.011719 82.527344 139.609375 84.375 C 139.429688 85.175781 140.28125 85.945312 141.042969 85.480469 C 143.484375 83.992188 146.183594 86.410156 147.898438 88.003906 C 149.902344 89.863281 151.960938 91.664062 153.964844 93.519531 C 154.296875 93.832031 154.769531 93.820312 155.105469 93.519531 C 155.554688 93.121094 156.007812 92.71875 156.457031 92.320312 C 156.523438 92.484375 156.644531 92.628906 156.785156 92.710938 C 156.976562 92.820312 157.15625 92.902344 157.328125 92.96875 C 156.878906 93.910156 156.425781 94.851562 155.976562 95.789062 C 155.753906 96.246094 155.875 96.707031 156.292969 97 C 159.953125 99.546875 162.648438 103.128906 164.105469 107.335938 C 164.300781 107.90625 165.171875 108.324219 165.625 107.738281 C 166.683594 106.371094 167.726562 104.992188 168.78125 103.621094 C 168.765625 103.925781 168.746094 104.230469 168.730469 104.535156 C 168.6875 105.371094 169.988281 105.757812 170.351562 104.976562 C 170.960938 104.21875 171.402344 104.621094 171.664062 106.191406 C 171.648438 106.621094 171.605469 107.046875 171.535156 107.46875 C 171.472656 108.105469 171.367188 108.730469 171.441406 109.375 C 171.570312 110.464844 172.078125 111.210938 172.917969 111.875 C 175.683594 114.070312 177.660156 116.195312 178.554688 119.734375 C 178.601562 119.910156 178.683594 120.042969 178.792969 120.140625 C 179.492188 122.957031 179.929688 125.925781 180.378906 128.734375 C 180.964844 132.402344 181.5 136.082031 181.929688 139.769531 C 182.777344 147.089844 183.246094 154.457031 183.519531 161.824219 C 183.796875 169.257812 183.96875 176.695312 184.257812 184.132812 C 184.40625 187.910156 184.585938 191.683594 184.898438 195.453125 C 185.070312 197.503906 185.0625 199.875 185.488281 202.054688 C 183.992188 202.023438 182.5 202.050781 181.015625 202.144531 C 181.058594 200.195312 180.894531 198.230469 180.773438 196.308594 C 180.578125 193.277344 180.308594 190.253906 179.949219 187.242188 C 179.222656 181.152344 178.210938 175.097656 176.882812 169.105469 C 174.277344 157.324219 170.800781 145.3125 164.761719 134.820312 C 164.574219 134.496094 164.292969 134.316406 163.992188 134.246094 C 163.988281 134.238281 163.988281 134.234375 163.988281 134.230469 C 162.3125 128.359375 158.582031 123.335938 154.449219 118.941406 C 150.183594 114.402344 145.441406 109.585938 140.023438 106.429688 C 129.125 100.085938 114.769531 103.605469 105.273438 110.984375 C 100.359375 114.800781 96.421875 120.179688 96.828125 126.660156 C 96.800781 126.863281 96.84375 127.050781 96.945312 127.203125 C 97.378906 128.15625 98.957031 128.023438 99.023438 126.773438 C 99.03125 126.640625 99.042969 126.515625 99.054688 126.382812 C 100.882812 123.84375 103.085938 121.847656 105.878906 120.402344 C 106.214844 120.789062 106.554688 121.179688 106.890625 121.566406 C 107.230469 121.953125 108.027344 121.984375 108.359375 121.566406 C 109.277344 120.410156 110.191406 119.25 111.101562 118.089844 C 111.492188 118.578125 112.042969 118.972656 112.71875 119.253906 C 115.304688 120.324219 117.648438 118.316406 120.207031 118.945312 C 120.660156 119.058594 121.128906 118.871094 121.371094 118.472656 C 122.15625 117.179688 123.011719 115.949219 123.933594 114.773438 C 123.539062 116.140625 123.261719 117.546875 123.117188 119.003906 C 123.054688 119.652344 123.753906 119.972656 124.28125 119.886719 C 126.636719 119.5 128.984375 119.703125 131.203125 120.613281 C 132.949219 121.328125 134.597656 122.414062 136.5 122.671875 C 137.304688 122.78125 138.140625 122.710938 138.910156 122.472656 C 138.957031 122.652344 139.027344 122.832031 139.125 123.011719 C 139.488281 123.691406 140.070312 124.109375 140.71875 124.222656 C 140.679688 124.382812 140.632812 124.546875 140.59375 124.710938 C 140.515625 125.019531 140.640625 125.449219 140.953125 125.59375 C 145.417969 127.652344 149.164062 130.894531 151.65625 135.148438 C 151.933594 135.617188 152.699219 135.78125 153.082031 135.328125 C 155.113281 132.9375 158.066406 131.605469 161.21875 132.058594 C 161.6875 132.949219 162.128906 133.859375 162.535156 134.800781 C 162.347656 135.070312 162.269531 135.417969 162.398438 135.820312 C 165.003906 144 167.902344 152.0625 170.285156 160.300781 C 168.835938 159.191406 167.277344 158.199219 165.746094 157.21875 C 163.503906 155.785156 161.324219 154.28125 159.265625 152.59375 C 157.269531 150.960938 155.488281 149.082031 153.511719 147.433594 C 153.515625 147.421875 153.519531 147.414062 153.527344 147.402344 C 154.46875 144.589844 154.402344 141.699219 153.363281 139 C 153.601562 138.78125 153.710938 138.425781 153.511719 138.089844 C 149.460938 131.414062 141.773438 127.058594 134.277344 125.425781 C 127.820312 124.023438 118.726562 125.160156 114.984375 131.378906 C 109.449219 134.925781 105.535156 140.726562 105.992188 147.75 C 106.007812 147.953125 106.082031 148.109375 106.191406 148.21875 C 106.191406 148.230469 106.1875 148.242188 106.1875 148.25 C 106.082031 148.980469 107.070312 149.300781 107.320312 148.5625 C 108.855469 144.015625 111.121094 140.328125 115.144531 137.730469 C 115.371094 138.347656 115.601562 138.957031 115.828125 139.574219 C 116.046875 140.164062 116.765625 140.257812 117.128906 139.742188 C 117.746094 138.785156 118.636719 138.386719 119.800781 138.550781 C 120.253906 138.609375 120.699219 138.371094 120.703125 137.859375 C 120.710938 137.429688 120.746094 137.015625 120.804688 136.605469 C 121.09375 137.058594 121.386719 137.507812 121.675781 137.960938 C 121.980469 138.4375 122.5625 138.378906 122.878906 137.960938 C 123.589844 137.023438 124.308594 136.089844 125.027344 135.152344 C 124.96875 136.691406 125.046875 138.382812 126.109375 139.003906 C 126.964844 139.511719 128.316406 139.28125 129.261719 139.4375 C 131.050781 139.734375 132.726562 140.378906 134.316406 141.242188 C 134.742188 141.472656 135.433594 141.199219 135.375 140.636719 C 135.265625 139.632812 135.355469 138.71875 135.671875 137.832031 C 135.859375 137.988281 136.078125 138.085938 136.308594 138.101562 L 136.75 139.765625 C 136.84375 140.128906 137.226562 140.316406 137.578125 140.234375 C 141.867188 139.28125 144.089844 143.71875 145.921875 146.722656 C 147.328125 149.03125 149.175781 148.417969 151.621094 148.175781 C 154.414062 152.117188 158.8125 155.238281 162.839844 157.804688 C 165.597656 159.558594 168.554688 161.09375 171.082031 163.140625 C 171.6875 165.363281 172.25 167.597656 172.75 169.855469 C 174.023438 175.59375 175.023438 181.398438 175.714844 187.242188 C 176.066406 190.257812 176.359375 193.277344 176.578125 196.308594 C 176.71875 198.367188 176.730469 200.484375 176.941406 202.558594 C 174.246094 202.949219 171.605469 203.5625 169.085938 204.449219 C 158.433594 208.195312 150.800781 217.128906 148.53125 228.199219 C 147.328125 234.058594 147.476562 239.996094 148.984375 245.5625 C 149.085938 246.0625 149.195312 246.554688 149.3125 247.054688 C 148.039062 258.46875 147.871094 270.066406 147.332031 281.523438 C 146.734375 294.269531 145.871094 307.082031 146.050781 319.847656 C 146.101562 323.429688 151.160156 323.28125 151.511719 319.847656 C 152.808594 307.273438 153.089844 294.558594 153.617188 281.929688 C 153.925781 274.519531 154.417969 267.050781 154.652344 259.589844 C 156.054688 261.816406 157.652344 263.921875 159.402344 265.851562 C 163.304688 270.160156 168.070312 273.367188 173.3125 275.488281 C 172.933594 297.671875 171.933594 319.902344 172.957031 342.066406 C 173.109375 345.382812 177.964844 345.390625 178.121094 342.066406 C 179.121094 320.40625 178.1875 298.679688 177.792969 277.003906 C 180.402344 277.726562 183.09375 278.210938 185.832031 278.441406 C 190.457031 278.832031 195.125 278.382812 199.644531 277.28125 C 199.609375 277.414062 199.585938 277.550781 199.578125 277.703125 C 199.398438 282.019531 199.457031 286.328125 199.835938 290.632812 C 200.203125 294.761719 200.582031 299.144531 201.835938 303.109375 C 202.386719 304.839844 205.359375 304.652344 205.171875 302.660156 C 204.769531 298.503906 203.875 294.410156 203.507812 290.242188 C 203.144531 286.074219 202.992188 281.886719 203.058594 277.703125 C 203.070312 277.160156 202.875 276.753906 202.574219 276.476562 C 206.773438 275.164062 210.804688 273.296875 214.507812 271.011719 C 215.652344 270.308594 216.789062 269.566406 217.898438 268.78125 C 217.976562 271.65625 218.316406 274.5625 218.582031 277.328125 C 219.070312 282.472656 219.675781 287.609375 220.449219 292.722656 C 221.203125 297.6875 222.050781 302.640625 223.054688 307.558594 C 224.074219 312.558594 225.019531 317.757812 226.917969 322.507812 C 227.472656 323.890625 228.601562 324.839844 230.171875 324.628906 C 231.484375 324.453125 232.917969 323.183594 232.742188 321.71875 C 232.132812 316.734375 230.800781 311.851562 229.769531 306.9375 C 228.742188 302.027344 227.769531 297.109375 226.9375 292.160156 C 226.128906 287.363281 225.375 282.546875 224.753906 277.722656 C 224.433594 275.222656 224.097656 272.726562 223.785156 270.230469 C 223.550781 268.359375 223.386719 266.449219 223.003906 264.59375 C 224.121094 263.511719 225.164062 262.359375 226.097656 261.125 C 229.179688 257.046875 230.5625 252.132812 230.902344 247.082031 C 231.578125 237.136719 228.96875 226.421875 222.792969 218.527344 C 218.078125 212.503906 211.574219 208.171875 204.449219 205.515625 C 204.519531 201.671875 204.492188 197.828125 204.796875 193.980469 C 205.210938 188.8125 205.921875 183.664062 206.921875 178.578125 C 207.738281 174.449219 208.746094 170.359375 209.914062 166.316406 C 210.652344 165.457031 211.414062 164.613281 212.246094 163.828125 C 214.460938 161.738281 216.859375 159.871094 219.441406 158.253906 C 221.808594 156.769531 224.3125 155.480469 226.53125 153.765625 C 228.765625 152.035156 230.867188 150.042969 233.003906 148.191406 C 233.179688 148.039062 233.226562 147.824219 233.1875 147.621094 C 235.777344 146.886719 238.316406 145.980469 240.792969 144.910156 C 241.015625 144.816406 241.117188 144.542969 241.132812 144.320312 C 241.136719 144.246094 241.144531 144.167969 241.152344 144.097656 C 241.273438 144.144531 241.390625 144.1875 241.511719 144.230469 C 241.957031 144.464844 242.542969 144.179688 242.535156 143.644531 C 242.496094 143.261719 242.515625 142.886719 242.574219 142.515625 C 242.703125 142.59375 242.824219 142.675781 242.949219 142.753906 C 243.273438 142.964844 243.691406 142.8125 243.890625 142.507812 C 244.152344 142.109375 244.3125 141.757812 244.398438 141.378906 C 244.574219 141.59375 244.5625 141.910156 244.351562 142.324219 C 243.753906 142.976562 244.675781 143.90625 245.324219 143.296875 C 249.003906 139.839844 254.109375 138.53125 259 139.777344 C 259.554688 139.917969 259.953125 139.4375 259.863281 138.914062 L 259.296875 135.710938 C 260.128906 136.351562 260.707031 137.226562 261.027344 138.296875 C 261.105469 138.566406 261.394531 138.84375 261.699219 138.8125 C 263.035156 138.667969 264.367188 138.527344 265.699219 138.382812 C 266.113281 138.335938 266.351562 138.09375 266.394531 137.6875 C 266.484375 136.933594 266.460938 136.226562 266.324219 135.542969 C 266.914062 136.089844 267.449219 136.699219 267.945312 137.382812 C 268.125 137.628906 268.519531 137.832031 268.808594 137.609375 C 270.941406 135.980469 273.230469 135.363281 275.890625 135.355469 C 276.128906 135.355469 276.269531 135.238281 276.335938 135.085938 C 276.398438 135.128906 276.460938 135.167969 276.523438 135.207031 C 277.425781 135.8125 278.570312 134.375 277.699219 133.6875 " fill-opacity="1" fill-rule="nonzero"/></g><path fill="#7a890c" d="M 152.707031 144.261719 C 152.078125 142.761719 151.039062 141.335938 150.242188 140.1875 C 148.644531 137.902344 146.757812 135.8125 144.621094 134.023438 C 140.117188 130.265625 134.574219 127.910156 128.6875 127.621094 C 125.5625 127.464844 122.34375 128.023438 119.351562 129.167969 C 120.574219 128.265625 121.921875 127.519531 123.53125 127.019531 C 127.222656 125.882812 131.195312 126.132812 134.894531 127.089844 C 141.210938 128.722656 147.65625 132.277344 151.476562 137.710938 C 151.371094 137.914062 151.355469 138.171875 151.480469 138.417969 C 152.453125 140.292969 152.859375 142.265625 152.707031 144.261719 " fill-opacity="1" fill-rule="nonzero"/><path fill="#b4bf54" d="M 151.929688 146.78125 C 151.863281 146.765625 151.792969 146.757812 151.714844 146.769531 C 150.851562 146.863281 149.632812 147.230469 148.78125 147.09375 C 147.355469 146.863281 147.128906 146.113281 146.546875 145.128906 C 145.742188 143.769531 144.941406 142.394531 143.847656 141.242188 C 142.253906 139.5625 140.171875 138.574219 137.902344 138.824219 C 137.742188 138.214844 137.585938 137.605469 137.429688 136.996094 C 137.300781 136.496094 136.644531 136.335938 136.285156 136.691406 C 136.285156 136.511719 136.285156 136.332031 136.28125 136.152344 C 136.175781 135.542969 135.304688 135.519531 135.019531 135.988281 C 134.351562 137.105469 133.992188 138.246094 133.9375 139.480469 C 132.355469 138.734375 130.695312 138.21875 128.941406 137.988281 C 127.933594 137.851562 126.960938 138.011719 126.617188 136.949219 C 126.28125 135.90625 126.542969 134.074219 126.515625 132.984375 C 126.496094 132.242188 125.617188 132.109375 125.21875 132.636719 C 124.257812 133.890625 123.296875 135.140625 122.339844 136.394531 C 121.921875 135.730469 121.5 135.070312 121.085938 134.40625 C 120.757812 133.882812 119.960938 133.980469 119.78125 134.578125 C 119.523438 135.425781 119.371094 136.25 119.3125 137.105469 C 118.34375 137.117188 117.5 137.449219 116.789062 138.046875 C 116.601562 137.515625 116.410156 136.984375 116.21875 136.453125 C 116.0625 136.011719 115.582031 135.769531 115.148438 136.015625 C 112.761719 137.378906 110.539062 139.363281 108.886719 141.707031 C 111.996094 134.167969 119.265625 129.199219 128.019531 129.289062 C 133.128906 129.339844 138.074219 131.101562 142.191406 134.09375 C 144.171875 135.53125 145.960938 137.230469 147.527344 139.105469 C 149.054688 140.933594 151.769531 144.132812 151.929688 146.78125 " fill-opacity="1" fill-rule="nonzero"/><path fill="#b4bf54" d="M 275.0625 134.285156 C 272.761719 134.191406 270.554688 134.910156 268.636719 136.191406 C 267.640625 134.890625 266.484375 133.800781 265.09375 132.890625 C 264.523438 132.519531 263.808594 133.253906 264.160156 133.820312 C 264.824219 134.867188 265.09375 135.898438 265.050781 137.058594 C 264.09375 137.15625 263.136719 137.257812 262.175781 137.359375 C 261.507812 135.636719 260.289062 134.441406 258.535156 133.707031 C 257.992188 133.476562 257.59375 134.113281 257.675781 134.566406 C 257.890625 135.777344 258.105469 136.988281 258.316406 138.199219 C 253.882812 137.390625 249.371094 138.457031 245.777344 141.136719 C 245.507812 140.351562 244.792969 139.730469 243.804688 139.710938 C 243.4375 139.707031 243.109375 140.03125 243.117188 140.402344 C 243.050781 140.636719 242.980469 140.875 242.910156 141.109375 C 242.777344 141.023438 242.640625 140.941406 242.503906 140.855469 C 242.121094 140.613281 241.621094 140.851562 241.5 141.261719 C 241.355469 141.742188 241.273438 142.179688 241.222656 142.628906 C 241.097656 142.59375 240.945312 142.558594 240.734375 142.507812 C 240.273438 142.402344 239.917969 142.714844 239.875 143.160156 C 239.855469 143.382812 239.832031 143.605469 239.804688 143.832031 C 237.503906 144.71875 235.175781 145.5 232.808594 146.171875 C 234.96875 142.851562 237.050781 139.5625 240.042969 136.871094 C 243.328125 133.925781 247.3125 131.769531 251.558594 130.582031 C 259.699219 128.304688 267.976562 130.011719 275.0625 134.285156 " fill-opacity="1" fill-rule="nonzero"/><path fill="#7a890c" d="M 180.679688 110.347656 C 179.144531 100.769531 173.402344 91.675781 166.949219 84.824219 C 159.347656 76.753906 149.554688 70.761719 138.945312 67.542969 C 137.144531 66.996094 135.316406 66.539062 133.472656 66.167969 C 137.523438 66.097656 141.570312 66.148438 145.589844 66.648438 C 149.359375 67.113281 153.09375 67.984375 156.621094 69.402344 C 157.9375 69.929688 161.324219 70.890625 161.382812 72.546875 C 161.429688 73.96875 160.648438 75.054688 161.015625 76.539062 C 161.152344 77.074219 161.847656 77.554688 162.398438 77.324219 C 163.210938 76.984375 164.027344 76.648438 164.839844 76.3125 C 165.171875 78.144531 166.605469 79.609375 168.125 80.859375 C 170.605469 82.90625 172.675781 84.988281 174.179688 87.710938 C 174.066406 87.703125 173.945312 87.699219 173.820312 87.703125 C 173.339844 87.714844 172.820312 88.230469 173.03125 88.746094 C 173.847656 90.785156 175.316406 92.085938 176.992188 93.449219 C 179.296875 95.320312 180.804688 96.988281 181.265625 100.039062 C 181.777344 103.433594 182.148438 107.140625 180.679688 110.347656 " fill-opacity="1" fill-rule="nonzero"/><path fill="#b4bf54" d="M 253.457031 94.304688 C 252.128906 96.65625 250.957031 99.097656 249.96875 101.617188 C 249.371094 103.140625 248.84375 104.6875 248.382812 106.253906 C 248.136719 107.101562 248.023438 108.195312 247.246094 108.765625 C 246.617188 109.21875 245.53125 109.300781 244.792969 109.546875 C 242.144531 110.425781 239.871094 112.035156 238.0625 114.144531 C 237.375 114.945312 238.21875 115.929688 239.136719 115.539062 C 240.480469 114.96875 241.828125 114.640625 243.242188 114.515625 C 240.75 119.207031 237.773438 123.585938 234.328125 127.617188 C 234.28125 127.605469 234.234375 127.59375 234.183594 127.589844 C 231.800781 127.402344 229.660156 127.761719 227.464844 128.726562 C 227.148438 128.863281 226.945312 129.378906 227.070312 129.703125 C 227.3125 130.335938 227.621094 130.890625 228.007812 131.375 C 227.582031 131.480469 227.15625 131.636719 226.714844 131.84375 C 225.953125 132.203125 226.296875 133.210938 226.925781 133.457031 C 228.917969 134.242188 225.566406 138.625 224.835938 139.539062 C 223.589844 141.101562 222.082031 142.480469 220.390625 143.546875 C 218.707031 144.613281 216.875 145.390625 215.105469 146.261719 C 214.910156 146.109375 214.691406 145.996094 214.460938 145.941406 C 216.867188 134.5625 222.402344 124.257812 230.011719 115.5 C 234.070312 110.828125 238.601562 106.585938 243.308594 102.570312 C 246.625 99.75 250.121094 97.113281 253.457031 94.304688 " fill-opacity="1" fill-rule="nonzero"/><path fill="#7a890c" d="M 251.695312 91.6875 C 247.753906 94.460938 244.015625 97.585938 240.386719 100.699219 C 235.53125 104.859375 230.902344 109.324219 226.816406 114.253906 C 220.335938 122.074219 214.984375 131.21875 213.085938 141.246094 C 211.957031 138.851562 211.53125 135.84375 211.265625 133.414062 C 210.929688 130.375 211.148438 127.4375 211.484375 124.417969 C 211.550781 123.820312 210.570312 123.695312 210.441406 124.273438 C 209.695312 127.664062 209.6875 131.273438 210.179688 134.699219 C 210.558594 137.359375 211.105469 140.765625 212.785156 143.058594 C 212.636719 144.074219 212.523438 145.097656 212.449219 146.132812 C 212.429688 146.449219 212.566406 146.691406 212.773438 146.855469 C 212.738281 146.917969 212.703125 146.980469 212.667969 147.042969 C 208.726562 143.457031 205.101562 139.09375 204.246094 133.660156 C 203.753906 130.496094 204.679688 127.566406 206.125 124.785156 C 207.1875 122.738281 209.070312 118.335938 211.972656 118.800781 C 212.660156 118.914062 213.488281 118.195312 212.984375 117.480469 C 212.773438 117.175781 212.589844 116.890625 212.425781 116.589844 C 213.410156 116.511719 214.394531 116.429688 215.382812 116.347656 C 216.027344 116.292969 216.5 115.636719 216.140625 115.023438 C 215.945312 114.691406 215.753906 114.359375 215.5625 114.027344 C 215.644531 114.007812 215.734375 113.988281 215.820312 113.96875 C 216.371094 113.847656 216.617188 113.15625 216.339844 112.691406 C 215.871094 111.910156 215.355469 111.203125 214.769531 110.527344 C 217.199219 108.167969 221.035156 105.113281 223.988281 108.253906 C 224.449219 108.746094 225.40625 108.53125 225.546875 107.84375 C 225.683594 107.160156 225.691406 106.621094 225.542969 105.933594 C 225.246094 104.605469 225.078125 103.796875 226.03125 102.738281 C 227.464844 101.15625 228.992188 99.714844 230.839844 98.632812 C 234.300781 96.613281 238.320312 95.714844 242.148438 94.664062 C 245.269531 93.804688 248.566406 92.917969 251.695312 91.6875 " fill-opacity="1" fill-rule="nonzero"/><path fill="#b4bf54" d="M 195.09375 92.460938 C 194.046875 96.519531 193.898438 100.535156 193.917969 104.699219 C 193.917969 105.375 192.972656 105.328125 192.894531 104.699219 C 192.371094 100.5 193.0625 96.257812 194.214844 92.222656 C 194.378906 91.652344 195.242188 91.890625 195.09375 92.460938 Z M 192.554688 98.941406 C 192.558594 99.621094 191.550781 99.609375 191.507812 98.941406 C 190.972656 90.710938 191.167969 81.953125 192.738281 73.835938 C 192.847656 73.25 193.824219 73.386719 193.777344 73.976562 C 193.457031 78.132812 192.929688 82.265625 192.714844 86.433594 C 192.503906 90.601562 192.527344 94.769531 192.554688 98.941406 Z M 199.65625 93.964844 C 199.628906 93.882812 199.621094 93.804688 199.613281 93.730469 C 198.421875 91.160156 197.824219 88.472656 197.824219 85.714844 C 197.792969 85.828125 197.761719 85.949219 197.738281 86.078125 C 197.597656 86.769531 196.664062 86.773438 196.328125 86.261719 C 194.777344 83.921875 194.734375 80.921875 196.425781 78.714844 C 194.679688 73.773438 193.769531 68.609375 193.65625 63.394531 C 191.574219 67.582031 189.933594 71.972656 188.816406 76.535156 C 188.078125 79.539062 187.550781 82.59375 187.265625 85.671875 C 187.15625 86.839844 187.425781 88.542969 186.992188 89.609375 C 186.722656 90.289062 185.867188 90.773438 185.152344 91.191406 C 185.167969 92.039062 184.765625 92.738281 184.820312 93.769531 C 184.878906 94.984375 185.902344 96.117188 186.582031 97.050781 C 187.796875 98.707031 189.101562 100.570312 188.21875 102.679688 C 187.925781 103.382812 187.320312 103.652344 186.613281 103.335938 C 186.335938 103.214844 186.058594 103.089844 185.78125 102.96875 C 186.238281 106.945312 186.621094 110.957031 187.351562 114.886719 C 188.023438 118.5 189.503906 121.832031 192.457031 123.921875 C 192.476562 123.910156 192.492188 123.902344 192.511719 123.898438 C 192.574219 120.910156 192.484375 117.917969 192.242188 114.960938 C 192.1875 114.253906 193.234375 114.289062 193.320312 114.960938 C 193.730469 118.097656 193.9375 121.226562 193.953125 124.351562 C 196.445312 125.277344 198.039062 121.496094 198.507812 119.496094 C 199.160156 116.707031 199.433594 113.789062 199.613281 110.929688 C 199.800781 107.921875 199.824219 104.894531 199.644531 101.890625 C 199.542969 100.203125 198.6875 97.625 199.835938 96.1875 C 199.902344 95.453125 199.910156 94.75 199.65625 93.964844 " fill-opacity="1" fill-rule="nonzero"/><path fill="#b4bf54" d="M 159.996094 129.90625 C 157.132812 129.960938 154.5 131.070312 152.519531 133.183594 C 149.882812 129.421875 146.449219 126.433594 142.265625 124.488281 C 142.347656 124.164062 142.433594 123.839844 142.515625 123.515625 C 142.695312 122.832031 141.96875 122.324219 141.371094 122.632812 C 141.023438 122.175781 140.824219 121.746094 140.773438 121.351562 C 141.246094 120.84375 141.582031 120.203125 141.6875 119.417969 C 141.777344 118.75 140.933594 117.957031 140.375 118.648438 C 139.867188 119.285156 139.316406 120.015625 139.023438 120.800781 C 137.085938 121.8125 133.410156 119.488281 131.816406 118.84375 C 129.648438 117.96875 127.390625 117.734375 125.113281 117.953125 C 125.609375 115.113281 126.679688 112.457031 128.257812 110.027344 C 128.898438 109.035156 127.496094 108.058594 126.679688 108.808594 C 124.09375 111.179688 121.867188 113.863281 119.980469 116.820312 C 119.066406 116.703125 118.195312 116.792969 117.234375 117.015625 C 116.464844 117.191406 112.089844 118.429688 112.566406 116.113281 C 112.753906 115.195312 111.515625 114.191406 110.808594 115.085938 C 109.726562 116.464844 108.652344 117.839844 107.578125 119.21875 L 106.847656 118.398438 C 106.53125 118.042969 106.003906 118.046875 105.609375 118.242188 C 103.550781 119.25 101.648438 120.59375 100.03125 122.21875 C 101.914062 117.433594 106.132812 113.597656 110.507812 111.019531 C 116.660156 107.398438 124.199219 105.203125 131.359375 106.347656 C 138.738281 107.527344 144.28125 112.730469 149.558594 117.625 C 153.566406 121.339844 157.199219 125.3125 159.996094 129.90625 " fill-opacity="1" fill-rule="nonzero"/><path fill="#b4bf54" d="M 179.066406 113.539062 C 178.84375 114.007812 178.636719 114.480469 178.453125 114.964844 C 178.1875 114.523438 177.894531 114.089844 177.566406 113.671875 C 176.871094 112.785156 176.082031 112.003906 175.191406 111.3125 C 173.828125 110.257812 173.136719 109.234375 173.316406 107.46875 C 173.472656 105.933594 173.570312 103.984375 171.933594 103.171875 C 171.492188 102.953125 171.007812 102.871094 170.542969 102.917969 C 170.574219 102.257812 170.605469 101.589844 170.632812 100.929688 C 170.679688 99.988281 169.507812 99.890625 169.039062 100.496094 C 167.796875 102.109375 166.519531 103.695312 165.253906 105.292969 C 163.660156 101.539062 161.136719 98.363281 157.832031 95.929688 C 158.289062 94.875 158.742188 93.8125 159.199219 92.757812 C 159.414062 92.257812 159.179688 91.503906 158.511719 91.554688 C 157.929688 91.449219 157.785156 91.113281 158.074219 90.53125 C 158.140625 89.808594 157.210938 89.59375 156.753906 89.988281 C 156.03125 90.609375 155.300781 91.230469 154.574219 91.855469 C 152.164062 89.464844 149.878906 86.832031 147.125 84.839844 C 145.609375 83.738281 143.859375 82.933594 142.101562 83.105469 C 142.726562 81.65625 143.628906 80.390625 144.847656 79.273438 C 145.390625 78.777344 145.15625 77.675781 144.386719 77.539062 C 141.023438 76.9375 137.714844 77.8125 135.199219 80.007812 C 132.773438 74.910156 129.121094 70.546875 124.527344 67.332031 C 150.199219 68.851562 174.671875 87.777344 179.066406 113.539062 " fill-opacity="1" fill-rule="nonzero"/></svg>