<svg xmlns="http://www.w3.org/2000/svg" xmlns:xlink="http://www.w3.org/1999/xlink" width="500" zoomAndPan="magnify" viewBox="0 0 375 374.999991" height="500" preserveAspectRatio="xMidYMid meet" version="1.0"><path fill="#d8b7a0" d="M 244.121094 261.761719 C 243.625 264.519531 242.949219 267.230469 242.101562 269.902344 C 240.753906 274.074219 239.140625 278.3125 237.523438 282.28125 L 235.636719 286.921875 L 234.222656 290.554688 C 233.011719 293.71875 231.730469 296.945312 230.382812 300.109375 C 229.039062 303.269531 227.824219 306.027344 226.410156 308.855469 C 225.023438 311.660156 223.472656 314.371094 221.765625 316.996094 C 219.679688 320.234375 217.234375 323.171875 214.425781 325.808594 C 212.292969 327.84375 209.941406 329.574219 207.359375 331 C 204.78125 332.425781 202.0625 333.496094 199.207031 334.21875 C 185.871094 337.515625 174.625 334.824219 165.199219 328.164062 C 161.09375 325.253906 157.4375 321.871094 154.222656 318.003906 C 152.496094 315.957031 150.878906 313.824219 149.371094 311.613281 C 147.269531 308.601562 145.339844 305.484375 143.582031 302.261719 C 142.636719 300.578125 141.695312 298.832031 140.820312 297.015625 L 138.664062 292.707031 C 137.183594 289.816406 135.835938 286.988281 134.558594 284.367188 C 133.277344 281.742188 131.324219 277.570312 130.046875 274.542969 C 128.765625 271.515625 127.890625 269.230469 127.148438 266.875 C 123.109375 253.957031 125.667969 245.953125 142.03125 243.125 C 146.273438 242.453125 161.292969 241.109375 178.464844 240.367188 C 178.058594 242.050781 177.65625 243.730469 177.183594 245.414062 C 177.105469 245.710938 176.976562 245.984375 176.808594 246.242188 C 176.636719 246.496094 176.429688 246.71875 176.1875 246.90625 C 175.945312 247.09375 175.675781 247.238281 175.386719 247.339844 C 175.097656 247.441406 174.796875 247.496094 174.492188 247.5 C 154.289062 248.105469 146.8125 246.691406 141.5625 252.613281 C 127.753906 268.488281 163.917969 263.578125 191.863281 263.039062 C 210.652344 262.703125 244.121094 265.394531 232.875 250.660156 C 228.433594 244.808594 220.015625 246.355469 199.609375 246.824219 C 199.050781 246.832031 198.539062 246.6875 198.0625 246.398438 C 197.589844 246.105469 197.230469 245.710938 196.984375 245.210938 C 196.09375 243.464844 195.308594 241.667969 194.625 239.828125 C 215.636719 239.425781 235.839844 240.367188 240.214844 244.402344 C 244.59375 248.441406 245.335938 254.898438 244.121094 261.761719 Z M 244.121094 261.761719 " fill-opacity="1" fill-rule="nonzero"/><path fill="#443e3c" d="M 232.875 250.660156 C 228.433594 244.808594 220.015625 246.355469 199.609375 246.824219 C 199.050781 246.832031 198.539062 246.6875 198.0625 246.398438 C 197.589844 246.105469 197.230469 245.710938 196.984375 245.210938 C 196.09375 243.464844 195.308594 241.667969 194.625 239.828125 C 190.449219 228.59375 192.335938 220.65625 197.523438 213.253906 L 198.597656 211.773438 C 198.027344 210.328125 197.734375 208.824219 197.722656 207.265625 C 196.597656 208.035156 195.542969 208.886719 194.558594 209.824219 C 194.15625 210.195312 193.6875 210.433594 193.148438 210.542969 C 192.613281 210.648438 192.085938 210.605469 191.574219 210.410156 C 191.058594 210.21875 190.636719 209.90625 190.300781 209.472656 C 189.964844 209.039062 189.769531 208.550781 189.710938 208.007812 L 187.960938 188.96875 C 187.949219 188.628906 187.96875 188.292969 188.027344 187.960938 C 188.835938 184.933594 190.585938 176.253906 194.425781 170.871094 C 193.621094 169.957031 192.925781 168.972656 192.335938 167.910156 L 191.460938 168.785156 C 191.046875 169.214844 190.546875 169.492188 189.960938 169.613281 C 189.375 169.734375 188.804688 169.679688 188.253906 169.449219 C 187.703125 169.21875 187.261719 168.851562 186.9375 168.351562 C 186.613281 167.847656 186.460938 167.296875 186.476562 166.699219 C 186.746094 150.082031 191.730469 136.222656 199.476562 125.460938 C 198.550781 125.058594 197.722656 124.511719 196.992188 123.820312 C 196.265625 123.125 195.675781 122.324219 195.230469 121.421875 C 192.582031 124.550781 190.363281 127.957031 188.585938 131.652344 C 186.804688 135.34375 185.519531 139.199219 184.726562 143.21875 C 184.054688 146.988281 179.273438 150.082031 175.835938 144.5 L 172.671875 139.386719 C 171.921875 139.980469 171.089844 140.429688 170.179688 140.730469 C 169.027344 141.183594 167.839844 141.5 166.613281 141.671875 C 173.210938 156.070312 180.820312 163.269531 182.503906 181.5 C 182.773438 184.664062 182.707031 184.328125 182.570312 184.664062 C 178.464844 181.769531 172.941406 178.40625 168.835938 177.128906 C 168.445312 178.261719 167.972656 179.359375 167.421875 180.425781 C 172.808594 181.03125 178.53125 189.035156 182.4375 193.003906 C 182.988281 193.566406 183.257812 194.238281 183.246094 195.023438 C 183.507812 210.332031 181.914062 225.449219 178.464844 240.367188 C 178.058594 242.050781 177.65625 243.730469 177.183594 245.414062 C 177.105469 245.710938 176.976562 245.984375 176.808594 246.242188 C 176.636719 246.496094 176.429688 246.71875 176.1875 246.90625 C 175.945312 247.09375 175.675781 247.238281 175.386719 247.339844 C 175.097656 247.441406 174.796875 247.496094 174.492188 247.5 C 154.289062 248.105469 146.8125 246.691406 141.5625 252.613281 C 127.753906 268.488281 163.917969 263.578125 191.863281 263.039062 C 210.652344 262.703125 244.121094 265.394531 232.875 250.660156 Z M 232.875 250.660156 " fill-opacity="1" fill-rule="nonzero"/><path fill="#dd873a" d="M 268.902344 185.671875 C 262.707031 172.351562 224.324219 169.863281 207.355469 188.296875 C 200.28125 195.898438 197.589844 202.15625 197.722656 207.265625 C 197.734375 208.824219 198.027344 210.328125 198.597656 211.773438 C 203.179688 223.210938 223.515625 227.179688 233.011719 226.710938 C 259.476562 225.363281 276.378906 201.683594 268.902344 185.671875 Z M 268.902344 185.671875 " fill-opacity="1" fill-rule="nonzero"/><path fill="#dd873a" d="M 156.914062 151.832031 C 136.644531 134.878906 98.796875 145.304688 105.261719 163.738281 C 117.921875 199.800781 157.855469 197.175781 167.417969 180.425781 C 167.972656 179.359375 168.445312 178.261719 168.835938 177.128906 C 170.921875 170.0625 168.027344 161.183594 156.914062 151.832031 Z M 156.914062 151.832031 " fill-opacity="1" fill-rule="nonzero"/><path fill="#dd873a" d="M 224.390625 57.308594 C 195.636719 71.976562 188.160156 108.574219 195.230469 121.421875 C 195.675781 122.324219 196.265625 123.125 196.992188 123.820312 C 197.722656 124.511719 198.550781 125.058594 199.476562 125.460938 C 201.046875 126.054688 202.640625 126.121094 204.257812 125.660156 C 208.632812 124.519531 242.640625 122.769531 248.902344 95.992188 C 252.808594 79.507812 241.628906 48.765625 224.390625 57.308594 Z M 224.390625 57.308594 " fill-opacity="1" fill-rule="nonzero"/><path fill="#dd873a" d="M 151.660156 75.203125 C 145.667969 72.3125 137.925781 70.160156 131.730469 73.589844 C 126.679688 76.414062 126.140625 84.015625 125.535156 89.0625 C 120.28125 136.222656 153.414062 143.421875 166.613281 141.671875 C 167.839844 141.5 169.027344 141.183594 170.179688 140.730469 C 171.089844 140.429688 171.921875 139.980469 172.671875 139.386719 C 183.3125 130.640625 182.371094 89.871094 151.660156 75.203125 Z M 151.660156 75.203125 " fill-opacity="1" fill-rule="nonzero"/><path fill="#dd873a" d="M 239.542969 127.8125 C 204.996094 122.433594 184.324219 152.503906 192.335938 167.910156 C 192.925781 168.972656 193.621094 169.957031 194.425781 170.871094 C 198.464844 175.242188 205.941406 177.597656 217.386719 175.917969 C 246.410156 171.746094 265.605469 131.851562 239.542969 127.8125 Z M 239.542969 127.8125 " fill-opacity="1" fill-rule="nonzero"/><path fill="#71725d" d="M 244.121094 261.761719 C 243.625 264.519531 242.949219 267.230469 242.101562 269.902344 C 202.035156 284.769531 151.660156 281.136719 130.046875 274.542969 C 128.898438 271.785156 127.890625 269.230469 127.148438 266.875 C 145.871094 269.632812 195.300781 283.355469 244.121094 261.761719 Z M 244.121094 261.761719 " fill-opacity="1" fill-rule="nonzero"/><path fill="#71725d" d="M 237.523438 282.28125 L 235.636719 286.921875 L 234.222656 290.554688 C 226.476562 292.804688 218.617188 294.542969 210.644531 295.765625 C 202.667969 296.992188 194.648438 297.695312 186.585938 297.878906 C 178.519531 298.058594 170.476562 297.71875 162.457031 296.851562 C 154.4375 295.988281 146.503906 294.605469 138.664062 292.707031 C 137.183594 289.816406 135.835938 286.988281 134.558594 284.367188 C 142.957031 286.722656 151.480469 288.449219 160.132812 289.550781 C 168.785156 290.652344 177.472656 291.113281 186.195312 290.9375 C 194.914062 290.761719 203.578125 289.949219 212.175781 288.496094 C 220.777344 287.046875 229.226562 284.972656 237.523438 282.28125 Z M 237.523438 282.28125 " fill-opacity="1" fill-rule="nonzero"/><path fill="#71725d" d="M 230.382812 300.109375 C 229.171875 303.070312 227.824219 306.027344 226.410156 308.855469 C 203.449219 316.121094 179.472656 318.609375 155.433594 313.160156 C 153.210938 312.621094 151.191406 312.152344 149.371094 311.613281 C 147.269531 308.601562 145.339844 305.484375 143.582031 302.261719 C 161.761719 310.199219 193.277344 313.160156 230.382812 300.109375 Z M 230.382812 300.109375 " fill-opacity="1" fill-rule="nonzero"/><path fill="#71725d" d="M 221.765625 316.996094 C 219.679688 320.234375 217.234375 323.171875 214.425781 325.808594 C 197.992188 329.441406 182.839844 331.730469 165.199219 328.164062 C 161.09375 325.253906 157.4375 321.871094 154.222656 318.003906 C 179.609375 326.617188 197.792969 322.578125 221.765625 316.996094 Z M 221.765625 316.996094 " fill-opacity="1" fill-rule="nonzero"/></svg>