<svg xmlns="http://www.w3.org/2000/svg" xmlns:xlink="http://www.w3.org/1999/xlink" width="500" zoomAndPan="magnify" viewBox="0 0 375 374.999991" height="500" preserveAspectRatio="xMidYMid meet" version="1.0"><defs><clipPath id="c81e19bffe"><path d="M 121 197 L 255.484375 197 L 255.484375 313 L 121 313 Z M 121 197 " clip-rule="nonzero"/></clipPath><clipPath id="76c80c06ea"><path d="M 121 232 L 255.484375 232 L 255.484375 261 L 121 261 Z M 121 232 " clip-rule="nonzero"/></clipPath></defs><g clip-path="url(#c81e19bffe)"><path fill="#a84e2c" d="M 255.277344 232.183594 C 254.457031 215.636719 254.128906 202.636719 231.820312 197.886719 C 232.3125 202.910156 232.746094 206.734375 232.855469 209.792969 C 235.917969 209.628906 239.910156 209.847656 243.027344 212.359375 C 246.144531 214.871094 247.949219 218.695312 247.074219 222.082031 C 245.597656 228.035156 235.097656 230.273438 227.0625 231.585938 C 202.78125 235.460938 134.921875 241.851562 131.039062 224.867188 C 130 220.386719 133.828125 215.855469 134.046875 215.582031 C 137.21875 211.921875 142.140625 211.105469 147.609375 211.105469 C 147.554688 209.355469 147.5 207.390625 147.390625 205.207031 C 147.28125 203.019531 147.335938 202.3125 147.28125 201 C 142.554688 202.324219 138.074219 204.21875 133.828125 206.679688 C 123.546875 212.742188 119.777344 228.363281 121.414062 245.675781 C 121.742188 248.898438 122.234375 252.175781 122.890625 255.453125 C 123.730469 259.375 124.808594 263.234375 126.117188 267.03125 C 127.101562 269.871094 128.25 272.710938 129.507812 275.496094 C 133.445312 284.125 138.804688 291.933594 145.3125 297.832031 C 147.164062 299.554688 149.152344 301.101562 151.273438 302.476562 C 154.566406 304.605469 158.027344 306.40625 161.660156 307.882812 C 177.410156 314.273438 195.890625 314.4375 212.1875 308.101562 C 216.972656 306.246094 221.472656 303.859375 225.695312 300.945312 C 230.078125 297.953125 234.027344 294.46875 237.542969 290.492188 C 241.0625 286.519531 244.039062 282.175781 246.472656 277.460938 C 248.777344 273.058594 250.617188 268.472656 251.996094 263.699219 C 253.425781 258.6875 254.390625 253.589844 254.894531 248.40625 C 255.222656 245.292969 255.386719 242.070312 255.441406 238.738281 C 255.441406 236.589844 255.386719 234.40625 255.277344 232.183594 Z M 255.277344 232.183594 " fill-opacity="1" fill-rule="nonzero"/></g><path fill="#443e3c" d="M 247.074219 222.082031 C 245.597656 228.035156 235.097656 230.273438 227.0625 231.585938 C 202.78125 235.460938 134.921875 241.851562 131.039062 224.867188 C 130 220.386719 133.828125 215.855469 134.046875 215.582031 C 137.21875 211.921875 142.140625 211.105469 147.609375 211.105469 C 147.71875 212.851562 147.773438 214.324219 147.828125 215.691406 C 148.046875 219.570312 148.320312 221.863281 148.867188 222.847656 C 149.414062 223.828125 151.109375 226.230469 158.597656 227.652344 L 158.652344 227.652344 C 164.886719 228.855469 175.167969 229.453125 192.394531 228.636719 C 209.617188 227.816406 219.1875 226.121094 224.109375 224.429688 C 224.144531 224.429688 224.164062 224.410156 224.164062 224.375 C 227.773438 223.121094 229.03125 221.808594 229.90625 220.824219 C 231.875 218.3125 232.691406 215.855469 232.855469 212.523438 C 232.910156 211.613281 232.910156 210.703125 232.855469 209.792969 C 235.917969 209.628906 239.910156 209.847656 243.027344 212.359375 C 246.144531 214.871094 247.949219 218.695312 247.074219 222.082031 Z M 247.074219 222.082031 " fill-opacity="1" fill-rule="nonzero"/><path fill="#959e81" d="M 232.855469 209.792969 C 232.746094 206.734375 232.3125 202.910156 231.820312 197.886719 C 231.546875 195.484375 231.273438 192.808594 231.054688 189.75 C 230.5625 183.796875 230.34375 177.789062 230.234375 171.78125 L 228.976562 171.78125 C 226.351562 170.90625 225.09375 167.792969 225.75 165.390625 C 226.078125 163.859375 228.15625 161.675781 230.179688 160.3125 C 230.234375 145.890625 230.726562 131.417969 230.179688 116.945312 L 228.8125 116.945312 C 226.132812 116.074219 224.875 112.960938 225.53125 110.554688 C 225.859375 109.136719 227.664062 107.171875 229.523438 105.804688 C 229.140625 101.164062 228.648438 96.464844 227.9375 91.824219 C 227.390625 88.164062 226.679688 84.339844 225.09375 81.0625 C 222.742188 76.09375 217.492188 73.855469 212.734375 73.363281 C 205.460938 72.597656 198.351562 76.148438 193.050781 81.390625 C 191.769531 82.628906 190.621094 83.972656 189.605469 85.433594 C 190.3125 86.1875 190.859375 87.042969 191.246094 88 C 192.394531 92.207031 188.785156 95.210938 184.738281 94.390625 C 180.582031 105.257812 180.035156 117.984375 179.324219 129.5625 C 179.105469 133.167969 178.941406 136.828125 178.832031 140.429688 C 177.769531 139.625 176.65625 138.898438 175.496094 138.246094 C 169.425781 135.023438 162.863281 135.625 157.507812 139.9375 C 158.160156 140.921875 158.707031 141.960938 159.308594 142.996094 C 160.730469 142.996094 160.019531 152.664062 154.0625 150.589844 C 153.1875 150.371094 152.203125 149.441406 151.273438 148.242188 C 149.359375 152.445312 148.429688 157.253906 147.992188 162.003906 C 147.359375 168.890625 147.085938 175.789062 147.171875 182.703125 C 149.6875 183.523438 152.09375 185.433594 153.023438 187.5625 C 154.171875 191.933594 150.890625 194.171875 147.226562 194.007812 C 147.226562 196.03125 147.226562 198.378906 147.28125 201.054688 C 147.335938 202.363281 147.335938 203.730469 147.390625 205.261719 C 147.445312 206.789062 147.554688 209.410156 147.609375 211.160156 C 147.664062 212.90625 147.773438 214.378906 147.828125 215.746094 C 148.046875 219.625 148.320312 221.917969 148.867188 222.902344 C 149.414062 223.882812 151.109375 226.285156 158.597656 227.707031 L 158.652344 227.707031 C 164.886719 228.910156 175.167969 229.507812 192.394531 228.691406 C 209.617188 227.871094 219.1875 226.175781 224.109375 224.484375 C 224.144531 224.484375 224.164062 224.464844 224.164062 224.429688 C 227.773438 223.171875 229.03125 221.863281 229.90625 220.878906 C 231.875 218.367188 232.691406 215.910156 232.855469 212.578125 C 232.914062 211.648438 232.914062 210.722656 232.855469 209.792969 Z M 232.855469 209.792969 " fill-opacity="1" fill-rule="nonzero"/><path fill="#eaded6" d="M 232.964844 104.222656 C 232.09375 104.222656 230.78125 104.875 229.523438 105.75 C 228.265625 106.625 225.859375 109.082031 225.53125 110.5 C 224.875 112.90625 226.132812 116.019531 228.8125 116.890625 L 230.179688 116.890625 C 237.011719 116.507812 241.332031 105.476562 232.964844 104.222656 Z M 232.964844 104.222656 " fill-opacity="1" fill-rule="nonzero"/><path fill="#eaded6" d="M 233.183594 159.054688 C 232.363281 159.054688 231.273438 159.546875 230.179688 160.257812 C 228.15625 161.621094 226.078125 163.804688 225.75 165.335938 C 225.09375 167.738281 226.351562 170.851562 228.976562 171.726562 L 230.234375 171.726562 C 237.121094 171.507812 241.550781 160.3125 233.183594 159.054688 Z M 233.183594 159.054688 " fill-opacity="1" fill-rule="nonzero"/><path fill="#eaded6" d="M 153.023438 187.507812 C 152.09375 185.378906 149.6875 183.46875 147.171875 182.648438 C 144.65625 181.828125 142.960938 181.992188 141.59375 183.195312 C 140.226562 184.398438 138.914062 186.636719 140.28125 189.859375 C 140.644531 190.460938 141.074219 191.007812 141.574219 191.503906 C 142.074219 192 142.628906 192.425781 143.234375 192.785156 C 143.839844 193.140625 144.480469 193.417969 145.15625 193.617188 C 145.832031 193.816406 146.523438 193.929688 147.226562 193.953125 C 150.890625 194.117188 154.171875 191.878906 153.023438 187.507812 Z M 153.023438 187.507812 " fill-opacity="1" fill-rule="nonzero"/><path fill="#eaded6" d="M 200.484375 127.597656 C 199.28125 129.015625 198.84375 131.527344 200.8125 134.367188 C 207.375 141.578125 214.867188 135.515625 211.859375 129.726562 C 209.890625 126.996094 202.890625 123.390625 200.484375 127.597656 Z M 200.484375 127.597656 " fill-opacity="1" fill-rule="nonzero"/><path fill="#eaded6" d="M 190.261719 188.492188 C 182.878906 190.566406 181.675781 201.054688 189.167969 201.054688 C 197.09375 200.015625 200.265625 187.183594 190.261719 188.492188 Z M 190.261719 188.492188 " fill-opacity="1" fill-rule="nonzero"/><path fill="#eaded6" d="M 159.308594 142.941406 C 158.707031 141.90625 158.160156 140.867188 157.507812 139.886719 C 156.195312 137.753906 154.71875 136.0625 152.367188 136.664062 C 150.015625 137.261719 148.757812 138.082031 148.320312 141.742188 C 148.320312 143.324219 149.742188 146.164062 151.273438 148.1875 C 152.804688 150.207031 153.1875 150.316406 154.0625 150.535156 C 160.019531 152.609375 160.730469 142.941406 159.308594 142.941406 Z M 159.308594 142.941406 " fill-opacity="1" fill-rule="nonzero"/><path fill="#eaded6" d="M 191.246094 87.945312 C 190.859375 86.988281 190.3125 86.132812 189.605469 85.378906 C 184.847656 80.027344 175.003906 81.117188 178.558594 89.472656 C 180.308594 92.421875 182.605469 93.953125 184.738281 94.335938 C 188.785156 95.15625 192.394531 92.152344 191.246094 87.945312 Z M 191.246094 87.945312 " fill-opacity="1" fill-rule="nonzero"/><g clip-path="url(#76c80c06ea)"><path fill="#cc9473" d="M 238.871094 232.128906 C 230.617188 232.949219 230.234375 242.945312 227.992188 245.347656 C 223.453125 247.695312 216.398438 234.480469 205.953125 237.703125 C 197.09375 240.433594 198.023438 251.792969 190.425781 250.425781 C 182.824219 249.0625 180.582031 239.011719 176.152344 239.613281 C 161.496094 241.523438 158.925781 258.730469 150.945312 246.441406 C 140.171875 229.835938 131.09375 247.804688 123.273438 246.277344 L 121.414062 245.675781 C 121.742188 248.898438 122.234375 252.175781 122.890625 255.453125 C 125.578125 255.765625 128.1875 255.4375 130.710938 254.46875 C 133.828125 253.210938 136.125 250.863281 138.96875 249.28125 C 142.742188 247.148438 142.6875 252.449219 147.226562 256.816406 C 153.40625 262.714844 161.605469 259.984375 168.058594 254.414062 C 179.105469 244.910156 170.300781 250.535156 183.316406 257.472656 C 196.328125 264.410156 201.742188 256.378906 206.390625 248.953125 C 208.195312 246.113281 209.015625 245.128906 213.882812 248.625 C 239.472656 267.085938 236.574219 237.867188 241.332031 242.726562 C 246.089844 247.585938 250.683594 249.007812 254.894531 248.40625 C 255.222656 245.292969 255.386719 242.070312 255.441406 238.738281 C 248.933594 242.34375 247.402344 231.3125 238.871094 232.128906 Z M 239.691406 241.25 C 239.691406 241.414062 239.308594 240.980469 239.691406 241.25 Z M 239.691406 241.25 " fill-opacity="1" fill-rule="nonzero"/></g><path fill="#cc9473" d="M 251.996094 263.699219 C 250.617188 268.472656 248.777344 273.058594 246.472656 277.460938 C 244.398438 278.0625 242.285156 278.28125 240.128906 278.117188 C 231.929688 277.40625 226.679688 270.742188 224.710938 273.203125 C 222.742188 275.660156 224.109375 277.460938 219.898438 281.175781 C 208.359375 291.445312 199.554688 279.375 197.476562 277.84375 C 195.398438 276.316406 186.816406 294.9375 169.808594 279.15625 C 165.488281 275.222656 165.214844 275.332031 161.878906 279.375 C 146.023438 298.707031 136.125 273.640625 129.507812 275.496094 C 128.25 272.710938 127.101562 269.871094 126.117188 267.03125 C 127.910156 266.429688 129.746094 266.207031 131.628906 266.367188 C 133.511719 266.53125 135.285156 267.058594 136.945312 267.957031 C 140.117188 269.652344 142.523438 272.382812 145.09375 274.785156 C 157.613281 286.144531 153.40625 253.648438 178.121094 274.292969 C 188.238281 282.8125 190.097656 258.128906 204.96875 272.21875 C 218.96875 285.546875 210.984375 259.710938 228.867188 263.917969 C 234.824219 265.28125 237.394531 270.851562 245.214844 268.339844 C 247.953125 267.488281 250.214844 265.941406 251.996094 263.699219 Z M 251.996094 263.699219 " fill-opacity="1" fill-rule="nonzero"/><path fill="#cc9473" d="M 225.695312 300.945312 C 221.472656 303.859375 216.972656 306.246094 212.1875 308.101562 C 208.75 306.417969 205.667969 304.234375 202.945312 301.546875 C 201.796875 300.402344 191.574219 316.347656 180.035156 305.699219 C 175.550781 301.65625 176.699219 298.980469 169.917969 303.566406 C 167.332031 305.320312 164.578125 306.757812 161.660156 307.882812 C 158.027344 306.40625 154.566406 304.605469 151.273438 302.476562 C 149.152344 301.101562 147.164062 299.554688 145.3125 297.832031 L 146.242188 298.214844 C 160.292969 306.246094 165.597656 289.585938 177.300781 292.316406 C 184.957031 294.066406 185.449219 302.695312 191.300781 298.980469 C 195.507812 296.304688 200.59375 285.925781 210.4375 295.976562 C 215.359375 301.054688 221.046875 302.257812 225.695312 300.945312 Z M 225.695312 300.945312 " fill-opacity="1" fill-rule="nonzero"/></svg>