<svg xmlns="http://www.w3.org/2000/svg" xmlns:xlink="http://www.w3.org/1999/xlink" width="500" zoomAndPan="magnify" viewBox="0 0 375 374.999991" height="500" preserveAspectRatio="xMidYMid meet" version="1.0"><defs><clipPath id="efa6ae56d6"><path d="M 142 245 L 210 245 L 210 335.25 L 142 335.25 Z M 142 245 " clip-rule="nonzero"/></clipPath></defs><g clip-path="url(#efa6ae56d6)"><path fill="#d8b7a0" d="M 209.773438 275.34375 C 209.773438 277.199219 209.773438 279.265625 209.707031 281.402344 C 209.15625 305.640625 208.878906 317.757812 205.503906 324.371094 C 200.199219 334.90625 191.792969 334.972656 177.183594 335.042969 C 162.578125 335.113281 152.449219 335.25 146.660156 324.300781 C 146.296875 323.609375 145.976562 322.898438 145.695312 322.167969 C 145.125 320.832031 144.691406 319.453125 144.386719 318.035156 C 143.007812 311.976562 143.007812 303.300781 142.941406 288.769531 C 142.941406 277.683594 142.941406 270.039062 143.699219 264.253906 C 143.964844 262.011719 144.496094 259.832031 145.28125 257.714844 C 145.585938 256.914062 145.929688 256.132812 146.316406 255.371094 C 147.558594 253.101562 149.140625 251.101562 160.164062 248.347656 C 160.097656 250 159.890625 251.929688 159.613281 254.132812 C 159.339844 256.335938 147.625 257.988281 155.203125 266.527344 C 160.371094 272.449219 169.191406 268.9375 181.9375 268.867188 C 200.199219 268.800781 214.460938 256.75 189.792969 253.167969 C 189.605469 253.144531 189.425781 253.085938 189.265625 252.984375 C 189.101562 252.882812 188.96875 252.753906 188.863281 252.597656 C 188.757812 252.4375 188.6875 252.261719 188.660156 252.074219 C 188.628906 251.886719 188.640625 251.699219 188.691406 251.515625 C 189.234375 249.621094 189.601562 247.695312 189.792969 245.730469 C 193.105469 246.027344 196.363281 246.601562 199.578125 247.453125 C 200.875 247.695312 202.074219 248.179688 203.175781 248.90625 C 204.277344 249.636719 205.191406 250.550781 205.917969 251.652344 C 208.121094 254.890625 209.292969 259.710938 209.636719 268.664062 C 209.707031 270.726562 209.773438 272.933594 209.773438 275.34375 Z M 209.773438 275.34375 " fill-opacity="1" fill-rule="nonzero"/></g><path fill="#959e81" d="M 286.117188 67.109375 C 278.125 64.628906 260.210938 98.714844 244.019531 105.535156 C 240.78125 106.910156 234.167969 108.355469 232.71875 115.863281 C 232.453125 117.394531 231.738281 118.679688 230.582031 119.71875 C 227.414062 122.402344 225.414062 119.03125 221.96875 122.75 C 223.554688 116 223.96875 109.25 223.96875 102.433594 C 223.96875 88.179688 222.109375 73.375 225.003906 56.09375 C 228.035156 37.5 225.414062 37.777344 215.21875 50.03125 C 189.035156 81.570312 187.039062 93.550781 184.625 95.34375 C 182.214844 97.132812 178.632812 95.824219 176.082031 97.269531 C 170.570312 100.574219 175.875 112.28125 169.742188 114.277344 C 167.46875 114.96875 163.957031 113.589844 163.886719 120.957031 C 163.609375 139.207031 164.230469 143.542969 162.507812 143.75 C 162.175781 143.792969 161.847656 143.867188 161.53125 143.976562 C 161.210938 144.082031 160.90625 144.222656 160.617188 144.390625 C 160.324219 144.5625 160.054688 144.757812 159.804688 144.984375 C 159.554688 145.207031 159.328125 145.457031 159.128906 145.726562 C 158.929688 145.996094 158.757812 146.285156 158.617188 146.589844 C 158.476562 146.894531 158.367188 147.210938 158.292969 147.539062 C 158.214844 147.867188 158.171875 148.199219 158.164062 148.535156 C 158.152344 148.871094 158.179688 149.203125 158.238281 149.535156 C 159.753906 158.347656 163.957031 168.746094 170.226562 171.777344 L 170.363281 171.777344 C 171.355469 172.234375 172.386719 172.554688 173.464844 172.742188 C 181.730469 173.910156 192.480469 166.75 200.816406 158.761719 C 201.070312 158.527344 201.371094 158.378906 201.710938 158.324219 C 202.054688 158.269531 202.382812 158.3125 202.699219 158.457031 C 203.015625 158.597656 203.265625 158.816406 203.449219 159.109375 C 203.632812 159.402344 203.722656 159.722656 203.710938 160.070312 C 202.886719 173.980469 201.921875 178.59375 205.710938 182.382812 L 206.328125 183 L 208.121094 184.378906 C 221.902344 193.8125 240.089844 178.59375 252.425781 166.128906 C 290.457031 127.914062 295.074219 69.933594 286.117188 67.109375 Z M 286.117188 67.109375 " fill-opacity="1" fill-rule="nonzero"/><path fill="#71725d" d="M 208.121094 184.445312 L 206.328125 183.070312 L 205.710938 182.449219 C 197.371094 196.222656 187.589844 216.949219 183.179688 231.066406 C 183.054688 231.34375 182.859375 231.554688 182.59375 231.703125 C 182.328125 231.851562 182.042969 231.90625 181.742188 231.867188 C 181.441406 231.828125 181.179688 231.703125 180.960938 231.488281 C 180.742188 231.277344 180.609375 231.019531 180.5625 230.722656 C 179.390625 211.300781 176.152344 186.375 173.464844 172.808594 C 172.386719 172.625 171.355469 172.300781 170.363281 171.84375 L 170.226562 171.84375 C 171.742188 185.410156 176.425781 211.371094 174.222656 226.933594 C 173.601562 231.546875 170.226562 249.039062 167.46875 244.90625 C 148.039062 215.503906 141.21875 199.941406 140.527344 191.882812 C 139.746094 192.664062 138.871094 193.332031 137.910156 193.878906 C 139.289062 201.386719 143.007812 211.371094 150.65625 223.972656 C 158.304688 236.574219 160.855469 237.539062 160.164062 248.417969 C 160.097656 250.070312 159.890625 252 159.613281 254.203125 C 159.339844 256.40625 147.625 258.058594 155.203125 266.597656 C 160.371094 272.519531 169.191406 269.007812 181.9375 268.9375 C 200.199219 268.867188 214.460938 256.820312 189.792969 253.238281 C 189.605469 253.214844 189.425781 253.152344 189.265625 253.054688 C 189.101562 252.953125 188.96875 252.824219 188.863281 252.664062 C 188.757812 252.507812 188.6875 252.332031 188.660156 252.144531 C 188.628906 251.957031 188.640625 251.769531 188.691406 251.585938 C 189.234375 249.691406 189.601562 247.761719 189.792969 245.800781 C 190.484375 235.195312 183.59375 231.066406 206.675781 187.132812 C 207.15625 186.097656 207.640625 185.273438 208.121094 184.445312 Z M 208.121094 184.445312 " fill-opacity="1" fill-rule="nonzero"/><path fill="#959e81" d="M 129.574219 151.738281 C 129.25 151.402344 128.996094 151.023438 128.816406 150.59375 C 128.636719 150.164062 128.539062 149.71875 128.523438 149.25 C 128.511719 148.785156 128.585938 148.335938 128.742188 147.894531 C 128.898438 147.457031 129.128906 147.0625 129.4375 146.710938 C 130.882812 145.128906 131.640625 142.855469 130.332031 141.476562 C 125.234375 135.96875 121.167969 140.582031 119.308594 123.367188 C 117.722656 108.632812 85.890625 96.582031 82.308594 101.265625 C 80.171875 104.019531 90.160156 110.078125 95.8125 127.570312 C 99.601562 139.480469 96.433594 141.203125 99.738281 155.320312 C 107.800781 190.367188 127.507812 199.457031 137.910156 193.8125 C 138.871094 193.261719 139.746094 192.597656 140.527344 191.816406 C 147.28125 185.203125 147.003906 169.988281 129.574219 151.738281 Z M 129.574219 151.738281 " fill-opacity="1" fill-rule="nonzero"/><path fill="#dd873a" d="M 209.773438 275.34375 C 206.054688 276.097656 205.777344 276.855469 203.847656 275.894531 C 203.476562 275.664062 203.160156 275.375 202.898438 275.019531 C 202.636719 274.667969 202.453125 274.28125 202.34375 273.855469 C 202.234375 273.433594 202.207031 273.003906 202.265625 272.570312 C 202.324219 272.136719 202.460938 271.730469 202.679688 271.347656 C 203.367188 270.246094 206.675781 268.867188 209.636719 268.664062 C 209.707031 270.726562 209.773438 272.933594 209.773438 275.34375 Z M 209.773438 275.34375 " fill-opacity="1" fill-rule="nonzero"/><path fill="#dd873a" d="M 189.722656 292.625 C 192 291.179688 191.859375 285.328125 184.558594 287.667969 C 180.285156 288.632812 182.214844 295.105469 186.28125 294.003906 C 189.105469 293.109375 189.242188 293.109375 189.722656 292.625 Z M 189.722656 292.625 " fill-opacity="1" fill-rule="nonzero"/><path fill="#dd873a" d="M 167.195312 275.546875 C 164.988281 273.828125 158.441406 273.484375 159.132812 278.714844 C 159.820312 283.949219 171.949219 280.367188 167.195312 275.546875 Z M 167.195312 275.546875 " fill-opacity="1" fill-rule="nonzero"/><path fill="#dd873a" d="M 155.894531 292.144531 C 154.378906 289.527344 149.140625 290.558594 148.175781 292.007812 C 142.664062 297.996094 159.199219 299.925781 155.894531 292.144531 Z M 155.894531 292.144531 " fill-opacity="1" fill-rule="nonzero"/><path fill="#dd873a" d="M 146.109375 264.253906 C 145.304688 264.394531 144.503906 264.394531 143.699219 264.253906 C 143.964844 262.011719 144.496094 259.832031 145.28125 257.714844 L 146.109375 257.714844 C 150.382812 257.714844 150.519531 264.394531 146.109375 264.253906 Z M 146.109375 264.253906 " fill-opacity="1" fill-rule="nonzero"/><path fill="#dd873a" d="M 203.847656 301.09375 C 203.503906 301.234375 202.539062 300.890625 201.507812 301.507812 C 198.820312 303.023438 199.441406 307.707031 203.78125 307.707031 C 211.910156 307.773438 208.671875 298.339844 203.847656 301.09375 Z M 203.847656 301.09375 " fill-opacity="1" fill-rule="nonzero"/><path fill="#dd873a" d="M 176.703125 309.632812 C 174.289062 307.773438 168.503906 307.914062 169.121094 312.800781 C 169.742188 317.691406 181.320312 314.246094 176.703125 309.632812 Z M 176.703125 309.632812 " fill-opacity="1" fill-rule="nonzero"/><path fill="#dd873a" d="M 146.660156 324.300781 C 146.296875 323.609375 145.976562 322.898438 145.695312 322.167969 C 145.125 320.832031 144.691406 319.453125 144.386719 318.035156 C 146.523438 316.933594 149.761719 316.863281 151.484375 318.449219 C 154.859375 321.824219 150.449219 324.578125 146.660156 324.300781 Z M 146.660156 324.300781 " fill-opacity="1" fill-rule="nonzero"/><path fill="#dd873a" d="M 195.789062 327.191406 C 193.859375 323.886719 186.691406 326.296875 187.933594 330.222656 C 189.171875 334.148438 197.855469 332.082031 195.789062 327.191406 Z M 195.789062 327.191406 " fill-opacity="1" fill-rule="nonzero"/></svg>