<svg xmlns="http://www.w3.org/2000/svg" xmlns:xlink="http://www.w3.org/1999/xlink" width="500" zoomAndPan="magnify" viewBox="0 0 375 374.999991" height="500" preserveAspectRatio="xMidYMid meet" version="1.0"><defs><clipPath id="961070f4a0"><path d="M 115 225 L 253 225 L 253 331.882812 L 115 331.882812 Z M 115 225 " clip-rule="nonzero"/></clipPath></defs><path fill="#cc9473" d="M 191.546875 245 L 191.273438 245 L 191.816406 244.867188 Z M 191.546875 245 " fill-opacity="1" fill-rule="nonzero"/><path fill="#cc9473" d="M 204.273438 233.449219 L 205.964844 230.609375 Z M 204.273438 233.449219 " fill-opacity="1" fill-rule="nonzero"/><g clip-path="url(#961070f4a0)"><path fill="#cc9473" d="M 252.671875 267.769531 C 252.539062 271.214844 252.402344 274.523438 252.335938 277.5625 C 252.199219 279.589844 252.132812 281.550781 252.0625 283.375 C 251.523438 294.25 250.777344 302.292969 249.21875 308.4375 C 248.847656 309.957031 248.375 311.445312 247.796875 312.898438 C 246.929688 315.136719 245.710938 317.160156 244.144531 318.976562 C 233.246094 331.542969 216.050781 331.613281 186.128906 331.746094 C 156.210938 331.882812 132.722656 331.882812 121.550781 316.34375 C 120.945312 315.457031 120.402344 314.535156 119.925781 313.574219 C 119.175781 312.105469 118.589844 310.574219 118.167969 308.980469 C 116.339844 302.5625 116.136719 293.914062 116 280.941406 L 116 275.335938 C 115.933594 261.148438 115.933594 251.824219 118.234375 244.867188 C 119.140625 241.957031 120.585938 239.34375 122.566406 237.027344 C 122.703125 236.894531 122.769531 236.757812 122.90625 236.691406 C 125.679688 233.515625 129.539062 230.8125 162.300781 226.757812 L 163.722656 226.558594 C 164.21875 229.257812 164.761719 231.757812 165.347656 234.054688 C 166.839844 239.324219 169.070312 243.445312 173.742188 245.742188 C 178.414062 248.039062 185.519531 248.039062 189.246094 245.136719 L 189.378906 245 L 189.71875 245.136719 C 194.457031 247.09375 200.683594 246.6875 204.882812 244.054688 C 209.078125 241.417969 210.296875 238.3125 211.246094 233.921875 C 211.828125 231.019531 212.214844 228.09375 212.394531 225.136719 C 218.691406 225.542969 225.324219 226.152344 232.027344 227.164062 C 236.019531 227.773438 240.757812 228.652344 244.957031 232.164062 C 247.578125 234.445312 249.429688 237.238281 250.507812 240.542969 C 251.320312 242.984375 251.882812 245.484375 252.199219 248.039062 C 252.875 253.109375 253.011719 259.527344 252.671875 267.769531 Z M 252.671875 267.769531 " fill-opacity="1" fill-rule="nonzero"/></g><path fill="#443e3c" d="M 226.746094 249.121094 C 214.289062 253.175781 204.273438 252.769531 195.808594 252.769531 C 169.75 252.835938 151.742188 257.027344 141.046875 250 C 127.574219 241.082031 143.011719 236.015625 165.347656 234.054688 C 166.839844 239.324219 169.070312 243.445312 173.742188 245.742188 C 178.414062 248.039062 185.519531 248.039062 189.246094 245.136719 L 189.378906 245 L 189.71875 245.136719 C 194.457031 247.09375 200.683594 246.6875 204.882812 244.054688 C 209.078125 241.417969 210.296875 238.3125 211.246094 233.921875 C 235.613281 235.949219 250.914062 241.285156 226.746094 249.121094 Z M 226.746094 249.121094 " fill-opacity="1" fill-rule="nonzero"/><path fill="#71725d" d="M 161.421875 95.558594 C 164.199219 94.476562 171.78125 107.382812 176.585938 117.582031 C 176.246094 137.109375 172.320312 146.160156 169.410156 156.292969 C 166.296875 149.875 163.65625 146.226562 161.289062 143.59375 C 162.363281 139.699219 163.019531 135.734375 163.25 131.703125 C 164.875 110.894531 158.578125 96.640625 161.421875 95.558594 Z M 161.421875 95.558594 " fill-opacity="1" fill-rule="nonzero"/><path fill="#959e81" d="M 180.714844 155.550781 C 182.203125 152.917969 183.761719 150.347656 185.316406 147.714844 L 212.125 102.179688 C 212.144531 99.570312 211.828125 97.003906 211.175781 94.476562 C 209.28125 87.722656 206.167969 86.707031 203.324219 78.195312 C 197.164062 59.683594 204.609375 46.105469 201.226562 44.617188 C 197.839844 43.132812 184.4375 57.320312 178.617188 76.574219 C 174.285156 90.964844 176.722656 98.734375 176.585938 115.488281 L 176.585938 117.582031 C 176.246094 137.109375 172.320312 146.160156 169.410156 156.292969 C 166.296875 149.875 163.65625 146.226562 161.289062 143.59375 C 160.476562 142.648438 159.664062 141.90625 158.917969 141.160156 C 153.300781 135.6875 152.960938 137.039062 147.75 131.636719 C 133.734375 116.976562 132.652344 104.070312 117.964844 94.949219 C 114.851562 92.992188 111.804688 91.167969 110.246094 92.25 C 107.472656 94.207031 113.429688 102.789062 119.65625 117.378906 C 123.027344 121.085938 126.097656 125.027344 128.863281 129.203125 C 141.925781 149.066406 135.632812 156.96875 148.898438 181.019531 C 150.457031 183.859375 152.148438 186.628906 153.910156 189.332031 C 160.8125 200.074219 168.664062 209.195312 173.605469 215.003906 C 176.246094 218.113281 178.820312 220.949219 181.257812 223.652344 C 180.714844 212.300781 180.445312 197.777344 176.449219 183.925781 C 175.707031 181.359375 173.675781 175.007812 175.367188 167.308594 C 176.246094 163.050781 178.480469 159.265625 180.714844 155.550781 Z M 180.714844 155.550781 " fill-opacity="1" fill-rule="nonzero"/><path fill="#959e81" d="M 181.324219 241.894531 C 177.535156 240 174.417969 237.027344 171.507812 233.582031 C 168.597656 230.136719 166.296875 226.625 163.589844 222.976562 L 162.910156 222.097656 C 163.722656 226.488281 164.332031 230.476562 165.347656 234.054688 C 166.839844 239.324219 169.070312 243.445312 173.742188 245.742188 C 178.414062 248.039062 185.519531 248.039062 189.246094 245.136719 C 186.128906 245.066406 182.8125 243.988281 181.324219 241.894531 Z M 181.324219 241.894531 " fill-opacity="1" fill-rule="nonzero"/><path fill="#959e81" d="M 211.652344 221.085938 C 208.738281 225.542969 206.4375 229.867188 204.273438 233.449219 C 200.480469 239.730469 197.097656 244.191406 191.546875 245 C 190.941406 245.113281 190.332031 245.15625 189.71875 245.136719 C 194.457031 247.09375 200.683594 246.691406 204.882812 244.054688 C 209.078125 241.417969 210.296875 238.3125 211.246094 233.921875 C 212.191406 229.53125 212.394531 224.734375 212.867188 219.261719 C 212.433594 219.847656 212.027344 220.457031 211.652344 221.085938 Z M 211.652344 221.085938 " fill-opacity="1" fill-rule="nonzero"/><path fill="#959e81" d="M 252.0625 119.609375 C 250.042969 122.046875 248.171875 124.589844 246.445312 127.242188 C 233.3125 147.105469 239.675781 155.078125 226.339844 179.128906 C 218.488281 193.316406 207.792969 205.816406 201.632812 213.042969 C 199.261719 215.816406 196.960938 218.3125 194.796875 220.679688 C 194.863281 214.867188 195.203125 208.316406 197.097656 201.558594 C 203.324219 178.589844 220.042969 174.738281 219.433594 154.199219 C 219.230469 147.648438 217.539062 148.660156 216.320312 139.539062 C 216.246094 139.023438 216.199219 138.507812 216.1875 137.984375 C 219.523438 135.539062 222.636719 132.835938 225.527344 129.878906 C 239.609375 115.21875 240.691406 102.316406 255.378906 93.195312 C 258.425781 91.300781 261.539062 89.410156 263.097656 90.492188 C 266.074219 92.652344 258.765625 102.585938 252.0625 119.609375 Z M 252.0625 119.609375 " fill-opacity="1" fill-rule="nonzero"/><path fill="#71725d" d="M 189.378906 245 L 189.71875 245.136719 L 189.246094 245.136719 Z M 189.378906 245 " fill-opacity="1" fill-rule="nonzero"/><path fill="#71725d" d="M 276.230469 101.773438 C 273.320312 99.746094 262.015625 107.382812 252.0625 119.609375 C 250.042969 122.046875 248.171875 124.589844 246.445312 127.242188 C 233.3125 147.105469 239.675781 155.078125 226.339844 179.128906 C 218.488281 193.316406 207.792969 205.816406 201.632812 213.042969 C 199.261719 215.816406 196.960938 218.3125 194.796875 220.679688 C 194.863281 214.867188 195.203125 208.316406 197.097656 201.558594 C 203.324219 178.589844 220.042969 174.738281 219.433594 154.199219 C 219.230469 147.648438 217.539062 148.660156 216.320312 139.539062 C 216.246094 139.023438 216.199219 138.507812 216.1875 137.984375 C 213.140625 111.097656 226.339844 91.03125 223.429688 89.546875 C 222.617188 89.140625 220.382812 90.355469 214.425781 98.328125 L 212.125 102.179688 L 180.714844 155.550781 C 178.480469 159.265625 176.246094 163.050781 175.367188 167.308594 C 173.675781 175.007812 175.707031 181.359375 176.449219 183.925781 C 180.445312 197.777344 180.714844 212.300781 181.257812 223.652344 C 178.820312 220.949219 176.246094 218.113281 173.605469 215.003906 C 167.445312 207.773438 156.75 195.277344 148.898438 181.019531 C 135.632812 156.96875 141.925781 149.066406 128.863281 129.203125 C 126.097656 125.027344 123.027344 121.085938 119.65625 117.378906 C 110.652344 107.652344 101.582031 101.910156 99.007812 103.734375 C 96.4375 105.558594 102.054688 114.542969 104.425781 135.011719 C 105.847656 147.714844 104.019531 147.308594 105.371094 153.863281 C 108.148438 167.441406 116.472656 170.886719 138.476562 194.734375 C 151.945312 209.398438 159.121094 217.164062 162.910156 222.097656 L 163.589844 222.976562 C 166.296875 226.625 168.800781 230.273438 171.507812 233.582031 L 172.660156 234.800781 C 172.988281 235.234375 173.347656 235.640625 173.742188 236.015625 L 173.945312 236.21875 L 175.636719 237.839844 C 175.808594 238.054688 176.011719 238.234375 176.246094 238.378906 C 177.785156 239.773438 179.476562 240.945312 181.324219 241.894531 C 182.8125 243.988281 186.128906 245.066406 189.246094 245.136719 L 189.378906 245 L 189.71875 245.136719 C 196.691406 245.136719 200.753906 239.460938 204.273438 233.449219 C 206.4375 229.867188 208.738281 225.542969 211.652344 221.085938 C 212.027344 220.457031 212.429688 219.847656 212.867188 219.261719 C 216.726562 214.125 224.039062 206.695312 236.832031 192.777344 C 258.765625 168.996094 267.089844 165.550781 269.867188 151.972656 C 271.21875 145.417969 269.394531 145.753906 270.8125 133.054688 C 273.183594 112.582031 278.9375 103.664062 276.230469 101.773438 Z M 276.230469 101.773438 " fill-opacity="1" fill-rule="nonzero"/><path fill="#a84e2c" d="M 252.199219 248.039062 C 251.726562 248.753906 251.179688 249.398438 250.550781 249.976562 C 249.921875 250.554688 249.234375 251.050781 248.484375 251.460938 C 247.734375 251.875 246.949219 252.191406 246.121094 252.414062 C 245.296875 252.632812 244.457031 252.753906 243.601562 252.769531 C 239.8125 252.972656 240.488281 251.757812 239.472656 255.40625 C 237.171875 263.78125 228.03125 264.796875 219.570312 261.957031 C 211.109375 259.121094 217.335938 275.539062 193.644531 266.753906 C 184.101562 263.175781 181.730469 270.875 173.742188 271.144531 C 165.753906 271.417969 161.625 264.121094 155.9375 265 C 150.253906 265.875 141.183594 276.011719 133.667969 257.296875 C 131.976562 253.109375 128.929688 256.621094 124.734375 254.863281 C 121.957031 253.714844 119.386719 249.660156 118.234375 244.867188 C 119.140625 241.957031 120.585938 239.34375 122.566406 237.027344 C 121.347656 242.703125 124.257812 250.335938 127.304688 250.742188 C 130.351562 251.148438 133.195312 249.054688 136.308594 252.566406 C 138.40625 255 138.675781 258.511719 140.4375 261.148438 C 144.429688 267.226562 151.066406 260.675781 156.34375 260.269531 C 166.363281 259.527344 167.3125 271.078125 180.242188 263.714844 C 188.363281 259.121094 191.070312 260.878906 199.128906 263.984375 C 209.6875 267.972656 208.941406 261.214844 213.070312 258.105469 C 218.691406 253.851562 225.054688 261.6875 231.957031 257.835938 C 235.953125 255.539062 234.597656 252.632812 236.289062 250.269531 C 240.015625 245.136719 247.257812 252.90625 250.4375 240.746094 L 250.4375 240.542969 C 251.277344 242.984375 251.863281 245.480469 252.199219 248.039062 Z M 252.199219 248.039062 " fill-opacity="1" fill-rule="nonzero"/><path fill="#a84e2c" d="M 252.335938 277.632812 C 252.199219 279.660156 252.132812 281.617188 252.0625 283.441406 C 243.535156 287.429688 233.246094 282.765625 226.609375 289.996094 C 216.457031 301.074219 210.363281 291.277344 201.699219 290.46875 C 195.878906 289.925781 194.050781 297.425781 182.746094 297.628906 C 171.441406 297.832031 169.273438 290.875 163.25 290.601562 C 157.226562 290.332031 152.082031 296.75 144.632812 293.914062 C 139.21875 291.886719 136.851562 286.144531 132.042969 283.375 C 128.660156 281.347656 124.734375 283.171875 121.011719 282.765625 C 119.222656 282.550781 117.550781 281.988281 116 281.078125 L 116 275.335938 C 116.699219 276.097656 117.507812 276.71875 118.425781 277.195312 C 119.347656 277.671875 120.320312 277.972656 121.347656 278.105469 C 127.980469 279.050781 130.960938 274.589844 139.488281 283.710938 C 153.230469 298.441406 155.9375 279.859375 170.15625 288.171875 C 193.101562 301.546875 190.191406 281.957031 205.289062 286.550781 C 209.753906 287.902344 215.914062 292.765625 220.585938 289.453125 C 222.886719 287.832031 224.445312 285.199219 226.8125 283.441406 C 234.328125 277.902344 244.683594 284.183594 252.335938 277.632812 Z M 252.335938 277.632812 " fill-opacity="1" fill-rule="nonzero"/><path fill="#a84e2c" d="M 249.21875 308.574219 C 248.847656 310.09375 248.375 311.578125 247.796875 313.03125 C 242.449219 312.289062 238.726562 312.898438 234.125 317.085938 C 218.015625 331.476562 215.375 313.910156 205.492188 318.84375 C 200.480469 321.34375 196.691406 324.585938 190.734375 323.574219 C 184.777344 322.558594 181.054688 318.910156 175.839844 318.976562 C 170.628906 319.046875 167.648438 323.097656 159.257812 323.910156 C 140.300781 325.667969 136.648438 310.871094 131.839844 312.15625 C 127.945312 313.265625 123.976562 313.785156 119.925781 313.707031 C 119.175781 312.238281 118.589844 310.707031 118.167969 309.113281 C 119.53125 309.375 120.910156 309.464844 122.296875 309.386719 C 130.351562 308.980469 133.328125 303.574219 139.488281 311.140625 C 145.648438 318.707031 155.667969 321.882812 167.445312 316.679688 C 183.015625 309.722656 188.160156 322.898438 197.839844 317.898438 C 222.550781 304.925781 214.765625 327.828125 231.28125 313.304688 C 237.101562 308.167969 242.113281 307.425781 249.21875 308.574219 Z M 249.21875 308.574219 " fill-opacity="1" fill-rule="nonzero"/></svg>