<svg xmlns="http://www.w3.org/2000/svg" xmlns:xlink="http://www.w3.org/1999/xlink" width="32" zoomAndPan="magnify" viewBox="0 0 350 350" height="32" preserveAspectRatio="xMidYMid meet" version="1.0"><defs><clipPath id="80eabda6e7"><path d="M 86.789062 207 L 263 207 L 263 375 L 86.789062 375 Z M 86.789062 207 " clip-rule="nonzero"/></clipPath></defs><g clip-path="url(#80eabda6e7)"><path fill="#d68c45" d="M 262.960938 228.199219 C 262.75 233.382812 262.300781 238.960938 261.546875 245.761719 C 260.90625 251.550781 260.042969 257.414062 258.984375 263.191406 C 258.894531 263.671875 258.8125 264.15625 258.730469 264.640625 C 258.316406 267.066406 257.886719 269.574219 256.601562 271.644531 C 254.847656 274.453125 251.203125 275.976562 249.019531 276.671875 C 248.425781 282.101562 247.726562 287.972656 246.941406 294.125 L 246.574219 297.015625 C 245.960938 301.839844 245.328125 306.832031 244.609375 311.730469 C 244.238281 314.273438 243.929688 316.875 243.628906 319.386719 C 243.238281 322.660156 242.839844 326.039062 242.289062 329.347656 C 241.621094 333.398438 240.84375 337.5 240.09375 341.464844 C 239.757812 343.253906 239.417969 345.039062 239.089844 346.828125 C 238.261719 351.304688 236.808594 354.800781 234.644531 357.523438 C 232.890625 359.707031 230.863281 361.421875 228.628906 362.625 C 220.816406 366.820312 213.867188 369.671875 207.378906 371.339844 C 200.441406 373.125 193.007812 374.273438 184.652344 374.855469 C 183.960938 374.902344 182.980469 374.921875 181.820312 374.921875 C 176.757812 374.921875 168.242188 374.539062 165.105469 374.316406 C 156.660156 373.730469 149.253906 372.597656 142.464844 370.851562 C 135.238281 368.988281 128.28125 366.234375 121.191406 362.429688 L 120.671875 362.152344 C 118.507812 360.988281 116.269531 359.785156 114.699219 357.824219 C 112.175781 354.640625 111.15625 350.492188 110.488281 346.851562 C 109.296875 340.417969 108.289062 334.695312 107.402344 329.351562 C 106.835938 325.941406 106.394531 322.457031 105.964844 319.085938 C 105.660156 316.675781 105.34375 314.1875 104.988281 311.746094 C 104.460938 308.164062 104.039062 304.507812 103.632812 300.976562 C 103.371094 298.6875 103.109375 296.398438 102.816406 294.117188 C 102.617188 292.554688 102.414062 290.988281 102.207031 289.417969 C 101.664062 285.246094 101.101562 280.933594 100.632812 276.699219 C 97.628906 275.71875 95.054688 273.789062 93.550781 271.371094 C 91.957031 268.804688 91.375 265.675781 90.910156 263.160156 C 89.890625 257.59375 88.835938 251.664062 88.179688 245.761719 C 87.5625 240.183594 87.121094 234.273438 86.878906 228.195312 C 86.796875 226.199219 87.757812 224.394531 89.648438 222.972656 C 94.742188 219.132812 101.640625 216.128906 110.152344 214.042969 C 117.777344 212.171875 125.429688 211.082031 131.019531 210.289062 L 132.300781 210.105469 C 138.367188 209.234375 145.914062 208.152344 153.515625 207.792969 C 158.261719 207.566406 163.152344 207.675781 167.878906 207.785156 C 170.175781 207.835938 172.550781 207.890625 174.847656 207.902344 L 177.476562 207.917969 C 184.148438 207.953125 190.457031 207.984375 196.160156 208.265625 C 203.164062 208.609375 210.304688 209.296875 217.378906 210.3125 C 218.242188 210.433594 219.160156 210.5625 220.125 210.695312 C 225.664062 211.464844 232.554688 212.417969 239.539062 214.128906 C 246.554688 215.851562 254.511719 218.203125 260.355469 222.597656 C 262.050781 223.878906 263.046875 226.023438 262.960938 228.199219 Z M 262.960938 228.199219 " fill-opacity="1" fill-rule="nonzero"/></g><path fill="#bf773c" d="M 256.429688 226.695312 C 256.429688 228.113281 255.566406 229.625 253.996094 230.957031 C 251.484375 233.089844 247.78125 234.003906 246.707031 234.234375 C 244.265625 234.753906 241.570312 235.230469 239.25 235.632812 C 237.796875 235.882812 236.292969 236.082031 234.695312 236.292969 C 233.734375 236.417969 232.75 236.550781 231.746094 236.695312 C 230.703125 236.847656 229.664062 237.046875 228.558594 237.261719 C 227.175781 237.53125 225.746094 237.808594 224.265625 237.988281 C 223.246094 238.117188 222.230469 238.269531 221.152344 238.433594 C 219.726562 238.648438 218.25 238.871094 216.746094 239.027344 C 215.339844 239.171875 213.933594 239.261719 212.449219 239.355469 C 211.371094 239.425781 210.277344 239.496094 209.179688 239.585938 C 208.226562 239.667969 207.265625 239.761719 206.292969 239.855469 C 204.773438 240 203.203125 240.152344 201.621094 240.257812 C 200.277344 240.347656 198.890625 240.359375 197.550781 240.367188 C 196.402344 240.375 195.214844 240.386719 194.035156 240.441406 C 192.894531 240.5 191.71875 240.625 190.582031 240.746094 C 189.242188 240.886719 187.855469 241.03125 186.46875 241.078125 C 184.890625 241.125 183.265625 241.132812 181.699219 241.140625 C 180.761719 241.148438 179.820312 241.152344 178.878906 241.164062 C 177.054688 241.1875 175.179688 241.175781 173.363281 241.164062 L 171.292969 241.152344 C 170.265625 241.148438 169.238281 241.160156 168.203125 241.175781 C 167.308594 241.1875 166.394531 241.199219 165.476562 241.199219 C 164.886719 241.199219 164.292969 241.195312 163.703125 241.179688 C 162.339844 241.148438 160.953125 241.023438 159.613281 240.898438 C 158.472656 240.796875 157.292969 240.6875 156.128906 240.640625 C 154.699219 240.578125 153.253906 240.449219 151.851562 240.320312 C 150.773438 240.222656 149.660156 240.125 148.5625 240.054688 C 147.519531 239.992188 146.46875 239.949219 145.421875 239.910156 C 143.96875 239.851562 142.46875 239.792969 140.988281 239.671875 C 139.238281 239.527344 137.46875 239.328125 135.753906 239.136719 C 134.984375 239.050781 134.210938 238.964844 133.441406 238.882812 C 131.320312 238.660156 129.167969 238.378906 127.085938 238.109375 L 125.914062 237.957031 C 124.800781 237.8125 123.65625 237.71875 122.550781 237.628906 C 121.175781 237.519531 119.75 237.402344 118.359375 237.1875 C 117.300781 237.023438 116.214844 236.890625 115.164062 236.761719 C 113.742188 236.585938 112.269531 236.40625 110.835938 236.144531 C 109.457031 235.890625 108.09375 235.503906 106.773438 235.132812 C 105.691406 234.824219 104.570312 234.507812 103.464844 234.273438 C 101.234375 233.796875 98.40625 232.347656 96.429688 230.671875 C 94.675781 229.179688 93.785156 227.726562 93.785156 226.351562 C 93.785156 225.320312 94.289062 224.371094 95.289062 223.523438 C 97.070312 222.007812 99.527344 221.074219 102.554688 220.003906 C 105.242188 219.054688 107.824219 218.3125 110.226562 217.792969 C 112.050781 217.398438 113.875 217.082031 115.488281 216.796875 C 116.386719 216.640625 117.242188 216.492188 118.039062 216.339844 C 120.667969 215.839844 123.132812 215.433594 125.582031 215.101562 C 126.90625 214.921875 128.257812 214.851562 129.691406 214.777344 C 130.832031 214.71875 132.011719 214.660156 133.199219 214.539062 C 134.121094 214.445312 135.054688 214.332031 136.003906 214.21875 C 137.550781 214.035156 139.152344 213.84375 140.785156 213.714844 C 141.871094 213.632812 142.945312 213.507812 144.085938 213.375 C 145.480469 213.210938 146.925781 213.039062 148.382812 212.957031 C 149.730469 212.878906 151.121094 212.882812 152.460938 212.890625 C 153.628906 212.898438 154.828125 212.902344 156.015625 212.855469 C 157.1875 212.808594 158.390625 212.683594 159.554688 212.558594 C 160.886719 212.421875 162.261719 212.277344 163.636719 212.242188 C 164.441406 212.222656 165.246094 212.203125 166.054688 212.179688 C 167.761719 212.128906 169.523438 212.082031 171.269531 212.066406 C 172.707031 212.050781 174.160156 212.09375 175.570312 212.136719 C 176.683594 212.167969 177.792969 212.199219 178.90625 212.207031 C 180.253906 212.214844 181.617188 212.347656 182.933594 212.476562 C 184.113281 212.589844 185.335938 212.710938 186.53125 212.734375 C 187.671875 212.761719 188.828125 212.75 189.949219 212.742188 C 191.332031 212.726562 192.765625 212.714844 194.167969 212.769531 C 195.257812 212.8125 196.347656 212.832031 197.425781 212.847656 C 198.867188 212.875 200.351562 212.898438 201.796875 212.980469 C 203.269531 213.066406 204.730469 213.230469 206.148438 213.390625 C 207.21875 213.511719 208.328125 213.636719 209.398438 213.71875 C 210.605469 213.8125 211.820312 213.824219 213 213.835938 C 214.335938 213.847656 215.71875 213.859375 217.042969 213.996094 C 218.753906 214.175781 220.417969 214.4375 222.03125 214.6875 C 222.90625 214.824219 223.761719 214.957031 224.609375 215.074219 C 226.757812 215.375 229.554688 215.78125 232.160156 216.277344 C 233.945312 216.617188 236.015625 217.066406 238.207031 217.542969 L 239.933594 217.917969 C 242.902344 218.558594 245.417969 219.25 247.621094 220.027344 C 250.09375 220.898438 252.890625 221.96875 254.824219 223.605469 C 255.890625 224.511719 256.429688 225.554688 256.429688 226.695312 Z M 256.429688 226.695312 " fill-opacity="1" fill-rule="nonzero"/><path fill="#805a35" d="M 248.070312 233.886719 C 247.476562 234.058594 246.996094 234.171875 246.707031 234.230469 C 244.265625 234.75 241.570312 235.230469 239.253906 235.632812 C 237.800781 235.882812 236.292969 236.082031 234.695312 236.292969 C 233.734375 236.417969 232.75 236.546875 231.746094 236.695312 C 230.703125 236.847656 229.664062 237.046875 228.5625 237.261719 C 227.175781 237.53125 225.746094 237.808594 224.269531 237.988281 C 223.246094 238.113281 222.230469 238.269531 221.152344 238.433594 C 219.726562 238.648438 218.253906 238.871094 216.746094 239.023438 C 215.339844 239.167969 213.9375 239.257812 212.449219 239.355469 C 211.371094 239.421875 210.28125 239.492188 209.179688 239.585938 C 208.226562 239.667969 207.265625 239.757812 206.296875 239.851562 C 204.777344 240 203.203125 240.152344 201.621094 240.257812 C 200.28125 240.347656 198.890625 240.355469 197.550781 240.367188 C 196.402344 240.375 195.214844 240.386719 194.035156 240.441406 C 192.894531 240.5 191.71875 240.621094 190.582031 240.742188 C 189.242188 240.886719 187.855469 241.03125 186.46875 241.074219 C 184.890625 241.125 183.269531 241.132812 181.699219 241.140625 C 180.761719 241.144531 179.824219 241.152344 178.878906 241.164062 C 177.054688 241.1875 175.179688 241.175781 173.367188 241.164062 L 171.292969 241.152344 C 170.265625 241.148438 169.238281 241.160156 168.203125 241.175781 C 167.308594 241.1875 166.394531 241.199219 165.476562 241.199219 C 164.886719 241.199219 164.292969 241.191406 163.703125 241.179688 C 162.339844 241.148438 160.957031 241.023438 159.617188 240.898438 C 158.472656 240.792969 157.292969 240.6875 156.128906 240.636719 C 154.703125 240.578125 153.253906 240.449219 151.851562 240.320312 C 150.777344 240.222656 149.664062 240.121094 148.5625 240.054688 C 147.519531 239.992188 146.472656 239.949219 145.421875 239.910156 C 143.96875 239.851562 142.46875 239.792969 140.988281 239.667969 C 139.242188 239.523438 137.46875 239.328125 135.753906 239.136719 C 134.984375 239.050781 134.214844 238.964844 133.441406 238.882812 C 131.320312 238.660156 129.167969 238.378906 127.085938 238.109375 L 125.914062 237.957031 C 124.800781 237.8125 123.65625 237.71875 122.550781 237.628906 C 121.175781 237.515625 119.75 237.402344 118.363281 237.1875 C 117.300781 237.019531 116.214844 236.890625 115.164062 236.757812 C 113.742188 236.585938 112.269531 236.40625 110.835938 236.144531 C 109.703125 235.9375 108.582031 235.636719 107.484375 235.332031 C 107.28125 234.902344 107.28125 234.382812 107.511719 233.878906 C 110.96875 226.335938 120.246094 222.683594 128.007812 225.050781 C 128.84375 222.933594 130.199219 221.027344 131.914062 219.527344 C 135.9375 216.011719 141.277344 214.65625 146.511719 215.582031 C 151.175781 216.402344 155.457031 219 158.75 222.386719 C 159.800781 220.820312 161.199219 219.492188 162.789062 218.464844 C 166.773438 215.894531 171.875 215.335938 176.34375 216.898438 C 180.558594 218.375 184.09375 221.363281 186.519531 225.078125 C 192.320312 222.453125 199.394531 223.3125 204.414062 227.230469 C 210.664062 223.550781 218.804688 223.445312 225.160156 226.925781 C 228.597656 223.835938 233.570312 222.539062 238.078125 223.707031 C 242.816406 224.933594 246.664062 228.792969 248.011719 233.464844 C 248.050781 233.613281 248.066406 233.753906 248.070312 233.886719 Z M 248.070312 233.886719 " fill-opacity="1" fill-rule="nonzero"/><path fill="#a7c957" d="M 258.472656 124.863281 L 254.804688 134.972656 C 245.964844 159.335938 219.007812 171.9375 194.59375 163.117188 L 185.398438 159.792969 C 183.523438 162.117188 181.832031 164.574219 180.40625 167.121094 C 180.390625 167.148438 180.378906 167.175781 180.367188 167.199219 C 180.273438 170.515625 180.3125 173.835938 180.523438 177.160156 C 180.792969 181.414062 181.171875 185.667969 181.621094 189.910156 C 182.546875 198.398438 183.832031 206.859375 185.59375 215.253906 C 186.105469 218.199219 186.277344 220.988281 186.089844 223.519531 C 185.503906 223.964844 184.960938 224.464844 184.492188 225.019531 C 182.011719 223.609375 178.710938 223.640625 176.261719 225.109375 C 174.371094 222.949219 171.914062 221.339844 169.144531 220.453125 C 168.046875 220.101562 166.886719 219.882812 165.722656 219.789062 C 165.71875 219.53125 165.71875 219.273438 165.71875 219.011719 C 165.71875 218.921875 165.722656 218.832031 165.722656 218.742188 C 165.726562 218.519531 165.730469 218.292969 165.738281 218.066406 C 165.742188 217.910156 165.753906 217.75 165.757812 217.589844 C 165.769531 217.425781 165.773438 217.261719 165.785156 217.09375 C 165.804688 216.765625 165.824219 216.429688 165.855469 216.097656 C 165.886719 215.808594 165.917969 215.519531 165.953125 215.230469 C 166.925781 206.769531 167.78125 198.359375 168.578125 189.972656 L 169.828125 176.984375 C 170.082031 174.199219 170.269531 171.414062 170.414062 168.628906 C 170.375 168.359375 170.332031 168.089844 170.289062 167.820312 C 169.765625 165.105469 168.046875 159.921875 168.039062 159.898438 C 167.886719 159.507812 167.730469 159.117188 167.546875 158.738281 L 167.394531 158.433594 L 158.003906 160.214844 C 157.425781 160.324219 156.847656 160.417969 156.269531 160.507812 C 155.804688 160.578125 155.335938 160.644531 154.871094 160.699219 C 154.238281 160.777344 153.605469 160.84375 152.972656 160.894531 C 152.328125 160.945312 151.683594 160.984375 151.042969 161.011719 C 150.957031 161.015625 150.871094 161.019531 150.785156 161.023438 C 128.003906 161.808594 107.425781 145.929688 103.035156 122.886719 L 101.023438 112.324219 L 111.605469 110.316406 C 114.398438 109.789062 117.175781 109.515625 119.921875 109.484375 C 142.261719 109.234375 162.253906 124.972656 166.574219 147.644531 L 167.644531 153.261719 C 168.078125 153.769531 168.515625 154.269531 168.90625 154.8125 C 170.164062 156.359375 170.820312 157.503906 170.820312 157.503906 L 170.820312 157.523438 L 170.820312 157.503906 C 170.917969 155.335938 171.015625 153.167969 171.160156 151 C 171.472656 146.664062 171.972656 142.34375 172.527344 138.019531 C 173.421875 131.214844 174.488281 124.414062 175.960938 117.660156 C 175.925781 114.800781 175.734375 111.925781 175.378906 109.0625 C 175.382812 109.070312 175.390625 109.070312 175.394531 109.078125 C 175.339844 108.640625 175.285156 108.207031 175.222656 107.773438 C 175.117188 106.761719 174.898438 105.773438 174.738281 104.769531 L 174.675781 104.40625 L 168.914062 103.867188 C 167.558594 103.738281 166.226562 103.542969 164.917969 103.285156 C 164.265625 103.15625 163.617188 103.011719 162.976562 102.851562 C 162.015625 102.613281 161.066406 102.335938 160.140625 102.03125 C 143.09375 96.382812 131.570312 79.582031 133.324219 60.976562 L 134.171875 51.992188 L 138.058594 52.355469 L 143.171875 52.835938 C 146.222656 53.121094 149.160156 53.746094 151.949219 54.671875 C 152.261719 54.773438 152.570312 54.878906 152.875 54.988281 C 155.324219 55.871094 157.652344 56.984375 159.839844 58.296875 C 160.386719 58.628906 160.925781 58.96875 161.453125 59.324219 C 163.035156 60.382812 164.539062 61.558594 165.945312 62.828125 C 166.410156 63.25 166.871094 63.6875 167.316406 64.128906 C 175.371094 72.140625 179.910156 83.542969 178.765625 95.722656 L 178.148438 102.257812 L 178.066406 103.140625 L 178.300781 103.882812 C 178.511719 104.59375 178.757812 105.296875 178.972656 106.007812 C 178.992188 105.953125 179.003906 105.902344 179.023438 105.851562 L 180.011719 102.6875 L 181.125 99.550781 L 182.207031 96.539062 C 182.550781 95.558594 182.9375 94.585938 183.25 93.597656 L 184.1875 90.621094 C 184.507812 89.628906 184.738281 88.617188 185.019531 87.613281 C 187.164062 79.574219 188.207031 71.222656 188.011719 62.835938 C 188 62.28125 187.980469 61.726562 187.960938 61.171875 C 187.957031 61.082031 187.949219 60.992188 187.945312 60.898438 C 187.925781 60.417969 187.902344 59.933594 187.871094 59.453125 C 187.871094 59.417969 187.867188 59.386719 187.867188 59.355469 C 187.65625 55.972656 187.242188 52.597656 186.664062 49.238281 L 186.667969 49.234375 C 186.667969 49.234375 186.671875 49.238281 186.671875 49.238281 C 186.507812 48.28125 186.328125 47.328125 186.140625 46.375 L 181.992188 45.105469 C 166.796875 40.449219 157.847656 25.097656 160.890625 9.867188 C 161.09375 8.851562 161.347656 7.835938 161.660156 6.828125 L 163.722656 0.117188 L 166.628906 1.003906 L 166.996094 1.117188 L 170.449219 2.175781 C 175.515625 3.730469 179.886719 6.46875 183.347656 10 C 190.96875 17.761719 194.203125 29.335938 190.78125 40.457031 L 189.28125 45.335938 L 189.164062 45.707031 C 190.253906 49.746094 191.128906 53.851562 191.734375 58.015625 C 191.742188 58.070312 191.75 58.128906 191.757812 58.183594 C 191.847656 58.800781 191.929688 59.421875 192.003906 60.042969 C 192.023438 60.203125 192.046875 60.363281 192.066406 60.523438 C 192.144531 61.191406 192.214844 61.859375 192.28125 62.527344 L 192.277344 62.171875 C 192.183594 43.785156 207.042969 28.804688 225.46875 28.710938 L 229.8125 28.6875 C 229.8125 28.6875 229.808594 28.6875 229.808594 28.6875 L 233.113281 28.671875 L 233.152344 36.300781 C 233.246094 54.6875 218.386719 69.667969 199.960938 69.761719 L 193.230469 69.796875 L 192.753906 71.257812 C 192.742188 71.289062 192.730469 71.320312 192.722656 71.351562 C 192.746094 77.238281 192.234375 83.144531 191.179688 88.953125 C 190.96875 90.039062 190.808594 91.140625 190.558594 92.21875 L 189.835938 95.460938 C 189.59375 96.542969 189.277344 97.601562 189.003906 98.675781 L 188.171875 101.804688 L 187.378906 104.816406 L 186.6875 107.867188 C 186.320312 109.363281 186.046875 110.894531 185.757812 112.421875 C 186.246094 111.875 186.761719 111.34375 187.246094 110.796875 L 188.320312 109.628906 C 188.683594 109.246094 189.070312 108.875 189.441406 108.5 C 189.882812 108.066406 190.316406 107.628906 190.753906 107.195312 L 192.027344 102.464844 C 196.804688 84.746094 212.960938 73.113281 230.535156 73.304688 C 233.789062 73.34375 237.089844 73.78125 240.378906 74.664062 L 249.109375 77.007812 L 246.761719 85.722656 C 241.984375 103.445312 225.828125 115.074219 208.253906 114.882812 C 205 114.847656 201.699219 114.40625 198.410156 113.523438 L 191.214844 111.589844 C 191.144531 111.683594 191.070312 111.777344 191 111.871094 L 190.578125 112.476562 L 190.128906 113.125 C 189.765625 113.660156 189.386719 114.179688 189.023438 114.707031 C 188.816406 115.015625 188.609375 115.324219 188.417969 115.640625 C 187.789062 116.601562 187.1875 117.582031 186.605469 118.570312 C 186.023438 119.554688 185.464844 120.554688 184.929688 121.566406 C 184.585938 122.214844 184.25 122.867188 183.925781 123.519531 C 183.210938 128.667969 182.652344 133.851562 182.214844 139.050781 C 181.84375 143.261719 181.640625 147.492188 181.324219 151.714844 C 181.167969 153.992188 180.996094 156.269531 180.832031 158.550781 C 181.515625 157.90625 182.210938 157.28125 182.917969 156.667969 C 184.09375 155.628906 185.308594 154.644531 186.550781 153.699219 L 188.132812 149.347656 C 195.300781 129.578125 214.402344 117.554688 234.394531 118.433594 C 234.46875 118.4375 234.539062 118.441406 234.609375 118.445312 C 235.269531 118.476562 235.933594 118.523438 236.59375 118.585938 C 236.742188 118.597656 236.890625 118.613281 237.039062 118.628906 C 240.816406 119.007812 244.609375 119.855469 248.339844 121.203125 L 254.097656 123.28125 C 254.097656 123.28125 254.09375 123.28125 254.09375 123.28125 Z M 258.472656 124.863281 " fill-opacity="1" fill-rule="nonzero"/><path fill="#2c6e49" d="M 100.230469 279.261719 C 98.710938 278.867188 99.359375 276.519531 100.878906 276.914062 C 103.554688 277.605469 106.261719 278.164062 108.953125 278.785156 C 111.648438 279.40625 114.40625 279.667969 117.105469 280.253906 C 119.695312 280.820312 122.132812 281.921875 124.726562 282.46875 C 127.425781 283.039062 130.203125 283.167969 132.929688 283.570312 C 137.746094 284.277344 142.566406 284.980469 147.382812 285.671875 C 149.832031 286.023438 152.269531 286.046875 154.738281 286.050781 C 157.167969 286.050781 159.59375 286.222656 162.023438 286.261719 C 166.871094 286.339844 171.75 286.703125 176.589844 286.445312 C 181.445312 286.191406 186.296875 285.925781 191.148438 285.644531 C 193.644531 285.496094 196.148438 285.617188 198.640625 285.40625 C 200.996094 285.207031 203.34375 284.925781 205.6875 284.644531 C 210.515625 284.058594 215.335938 283.253906 220.074219 282.167969 C 222.339844 281.648438 224.582031 281.261719 226.902344 281.089844 C 229.308594 280.914062 231.613281 280.589844 233.976562 280.101562 C 236.308594 279.621094 238.6875 279.214844 240.976562 278.554688 C 243.183594 277.917969 245.304688 277.015625 247.542969 276.472656 C 249.070312 276.101562 249.714844 278.449219 248.191406 278.820312 C 245.664062 279.433594 243.289062 280.511719 240.765625 281.132812 C 238.105469 281.789062 235.398438 282.304688 232.710938 282.839844 C 230.105469 283.359375 227.476562 283.390625 224.847656 283.710938 C 222.214844 284.03125 219.65625 284.824219 217.058594 285.324219 C 212.261719 286.246094 207.402344 286.910156 202.546875 287.4375 C 197.640625 287.972656 192.726562 288.027344 187.796875 288.285156 C 185.375 288.410156 182.949219 288.46875 180.527344 288.625 C 178.035156 288.78125 175.554688 288.976562 173.054688 288.960938 C 168.078125 288.921875 163.058594 288.832031 158.089844 288.578125 C 155.65625 288.453125 153.21875 288.554688 150.785156 288.445312 C 148.375 288.335938 145.992188 287.910156 143.617188 287.527344 C 138.671875 286.730469 133.671875 286.054688 128.699219 285.488281 C 126.335938 285.21875 124.007812 284.894531 121.730469 284.1875 C 119.46875 283.480469 117.269531 282.722656 114.925781 282.308594 C 109.988281 281.4375 105.085938 280.519531 100.230469 279.261719 Z M 114.714844 122.328125 C 117.527344 124.015625 119.972656 126.234375 122.820312 127.871094 C 125.734375 129.550781 128.710938 130.964844 131.320312 133.121094 C 133.773438 135.148438 136.175781 137.085938 138.851562 138.808594 C 141.730469 140.664062 144.359375 142.738281 146.964844 144.953125 C 149.871094 147.417969 153.042969 149.550781 155.921875 152.042969 C 156.804688 152.808594 158.105469 151.523438 157.214844 150.75 C 154.679688 148.550781 151.863281 146.699219 149.292969 144.535156 C 146.703125 142.351562 144.164062 140.113281 141.332031 138.242188 C 138.539062 136.394531 135.859375 134.5625 133.296875 132.402344 C 130.78125 130.277344 128.097656 128.664062 125.203125 127.105469 C 121.804688 125.269531 118.9375 122.726562 115.636719 120.75 C 114.625 120.144531 113.707031 121.722656 114.714844 122.328125 Z M 194.839844 153.953125 C 197.734375 152.03125 200.820312 150.410156 203.753906 148.550781 C 206.710938 146.675781 209.757812 144.976562 212.867188 143.363281 C 214.496094 142.519531 216.121094 141.742188 217.855469 141.140625 C 219.460938 140.582031 221.078125 140.070312 222.636719 139.394531 C 224.230469 138.707031 225.78125 137.914062 227.363281 137.199219 C 229.03125 136.445312 230.765625 135.832031 232.480469 135.183594 C 236.332031 133.734375 240.261719 132.589844 244.230469 131.519531 C 245.367188 131.214844 244.886719 129.449219 243.746094 129.757812 C 236.742188 131.648438 229.972656 133.960938 223.40625 137.046875 C 220.242188 138.535156 216.824219 139.355469 213.6875 140.902344 C 210.417969 142.515625 207.175781 144.242188 204.089844 146.175781 C 200.726562 148.285156 197.21875 150.179688 193.917969 152.375 C 192.941406 153.027344 193.859375 154.609375 194.839844 153.953125 Z M 143.828125 64.023438 C 146.351562 66.285156 148.933594 68.457031 151.257812 70.929688 C 153.628906 73.445312 155.855469 76.074219 158.296875 78.527344 C 159.472656 79.710938 160.617188 80.917969 161.597656 82.269531 C 162.585938 83.628906 163.457031 85.070312 164.367188 86.484375 C 166.222656 89.363281 168.464844 91.96875 170.289062 94.867188 C 170.914062 95.859375 172.5 94.941406 171.871094 93.945312 C 170.011719 90.992188 167.730469 88.339844 165.847656 85.40625 C 164.027344 82.574219 162.21875 79.894531 159.84375 77.492188 C 157.417969 75.039062 155.171875 72.441406 152.820312 69.921875 C 150.410156 67.34375 147.742188 65.082031 145.121094 62.730469 C 144.25 61.945312 142.949219 63.234375 143.828125 64.023438 Z M 197.691406 104.304688 C 200.816406 101.976562 203.992188 99.734375 207.445312 97.914062 C 209.039062 97.074219 210.652344 96.273438 212.164062 95.292969 C 213.683594 94.308594 215.132812 93.214844 216.746094 92.382812 C 220.148438 90.628906 223.828125 89.015625 227.582031 88.21875 C 231.414062 87.410156 235.050781 86.039062 238.84375 85.09375 C 239.988281 84.8125 239.503906 83.046875 238.359375 83.332031 C 234.566406 84.277344 230.925781 85.648438 227.097656 86.457031 C 223.285156 87.265625 219.617188 88.9375 216.132812 90.648438 C 214.503906 91.449219 213.042969 92.527344 211.535156 93.523438 C 209.980469 94.550781 208.332031 95.386719 206.6875 96.253906 C 203.175781 98.097656 199.941406 100.359375 196.765625 102.730469 C 195.832031 103.425781 196.746094 105.011719 197.691406 104.304688 Z M 197.6875 60.753906 C 198.988281 58.84375 200.648438 57.234375 202.339844 55.671875 C 204.035156 54.105469 205.699219 52.503906 207.398438 50.941406 C 211.070312 47.554688 215.300781 44.929688 219.484375 42.234375 C 220.472656 41.597656 219.554688 40.015625 218.5625 40.65625 C 214.246094 43.4375 209.890625 46.160156 206.105469 49.648438 C 204.363281 51.253906 202.652344 52.890625 200.917969 54.5 C 199.148438 56.136719 197.464844 57.835938 196.109375 59.835938 C 195.445312 60.808594 197.03125 61.722656 197.6875 60.753906 Z M 170.929688 13.800781 C 172.4375 15.671875 174.207031 17.347656 175.515625 19.371094 C 176.921875 21.546875 178.25 23.820312 179.355469 26.164062 C 180.40625 28.402344 180.890625 30.84375 181.703125 33.167969 C 182.542969 35.566406 183.628906 37.871094 184.226562 40.351562 C 184.5 41.492188 186.265625 41.011719 185.992188 39.867188 C 185.378906 37.328125 184.253906 34.972656 183.410156 32.511719 C 182.578125 30.085938 182.03125 27.574219 180.933594 25.242188 C 179.808594 22.851562 178.460938 20.507812 177 18.304688 C 175.617188 16.210938 173.792969 14.460938 172.226562 12.511719 C 171.488281 11.59375 170.199219 12.890625 170.929688 13.800781 Z M 170.929688 13.800781 " fill-opacity="1" fill-rule="nonzero"/></svg>