<svg xmlns="http://www.w3.org/2000/svg" xmlns:xlink="http://www.w3.org/1999/xlink" width="500" zoomAndPan="magnify" viewBox="0 0 375 374.999991" height="500" preserveAspectRatio="xMidYMid meet" version="1.0"><defs><clipPath id="91395545bf"><path d="M 130 233 L 245 233 L 245 343.882812 L 130 343.882812 Z M 130 233 " clip-rule="nonzero"/></clipPath></defs><path fill="#71725d" d="M 246.992188 135.367188 C 262.957031 161.449219 271.324219 199.25 274.671875 218.375 C 274.042969 218.554688 273.398438 218.660156 272.742188 218.695312 C 263.664062 219.019531 263.019531 201.695312 248.214844 191.328125 C 236.367188 182.957031 226.261719 186.753906 223.300781 179.15625 C 220.339844 171.558594 226.457031 165.503906 224.007812 157.90625 C 221.5625 150.308594 217.183594 151.660156 215.382812 144.769531 C 213.835938 138.84375 215.382812 131.183594 220.402344 126.417969 C 222.464844 124.421875 224.84375 122.039062 228.191406 121.84375 C 236.820312 121.328125 240.617188 136.078125 246.667969 135.433594 Z M 246.992188 135.367188 " fill-opacity="1" fill-rule="nonzero"/><path fill="#71725d" d="M 286.132812 187.398438 C 282.847656 201.308594 285.746094 210.195312 278.730469 215.925781 C 276.367188 201.535156 272.660156 187.496094 267.601562 173.816406 C 262.546875 160.136719 256.234375 147.0625 248.664062 134.59375 C 254.265625 130.214844 254.332031 110.125 263.921875 107.679688 C 270.9375 105.9375 278.730469 114.761719 279.113281 115.339844 C 283.105469 120.941406 284.328125 125.195312 284.394531 128.734375 C 284.457031 134.53125 282.207031 135.433594 282.078125 140.003906 C 281.820312 149.855469 292.890625 151.980469 295.210938 161.964844 C 297.078125 170.207031 289.996094 170.851562 286.132812 187.398438 Z M 286.132812 187.398438 " fill-opacity="1" fill-rule="nonzero"/><g clip-path="url(#91395545bf)"><path fill="#443e3c" d="M 243.902344 256.625 C 243.707031 258.042969 243.449219 259.457031 243.191406 261.003906 C 240.554688 275.171875 234.695312 282.125 228.578125 289.402344 C 227.550781 290.691406 226.457031 291.914062 225.425781 293.265625 C 220.984375 298.867188 216.667969 305.371094 213.773438 315.738281 C 209.136719 332.289062 212.808594 343.882812 186.476562 343.171875 C 174.632812 342.914062 168.066406 340.917969 164.332031 337.761719 C 162.980469 336.667969 161.929688 335.339844 161.175781 333.769531 C 158.085938 327.910156 159.117188 319.734375 156.027344 310.847656 C 151.199219 296.9375 144.890625 296.871094 138.324219 284.316406 C 136.679688 281.070312 135.285156 277.722656 134.140625 274.269531 C 133.558594 272.53125 132.980469 270.726562 132.53125 268.925781 C 129.761719 258.171875 129.246094 246.320312 134.332031 238.917969 C 135.023438 237.820312 135.882812 236.875 136.90625 236.082031 C 136.457031 242.328125 140.191406 246.902344 155.578125 271.5 L 156.285156 272.53125 C 157.828125 274.460938 159.308594 274.976562 160.664062 274.332031 C 162.015625 273.691406 163.753906 271.113281 164.78125 267.636719 C 165.976562 263.101562 168.035156 259 170.960938 255.335938 C 175.726562 249.542969 181.777344 246.835938 187.507812 244.261719 L 187.570312 244.261719 C 188.792969 243.679688 190.082031 243.167969 191.304688 242.523438 C 193.300781 241.558594 195.1875 240.421875 196.96875 239.109375 L 198.195312 238.207031 C 199.21875 237.324219 200.164062 236.355469 201.027344 235.308594 C 201.625 234.648438 202.160156 233.941406 202.636719 233.183594 C 231.476562 233.507812 242.933594 234.601562 244.222656 247.351562 C 244.519531 250.457031 244.414062 253.546875 243.902344 256.625 Z M 243.902344 256.625 " fill-opacity="1" fill-rule="nonzero"/></g><path fill="#71725d" d="M 115.148438 112.636719 C 105.105469 136.914062 101.886719 162.027344 100.921875 175.164062 C 100.382812 174.453125 99.953125 173.679688 99.632812 172.847656 C 88.558594 145.089844 85.855469 140.457031 87.722656 134.015625 C 89.011719 129.636719 92.875 125.964844 92.679688 121.394531 C 92.488281 116.820312 86.820312 112.636719 83.347656 108.386719 C 77.875 101.625 78.261719 90.742188 84.3125 84.429688 C 90.363281 78.121094 99.632812 76.445312 103.171875 69.039062 C 104.65625 66.078125 104.910156 62.601562 106.777344 59.894531 C 110.191406 55.132812 120.234375 56.226562 125.253906 61.121094 C 132.015625 67.6875 128.539062 76.832031 128.472656 79.730469 C 128.320312 82 128.449219 84.253906 128.859375 86.492188 C 122.746094 94.542969 118.753906 104.007812 115.148438 112.636719 Z M 115.148438 112.636719 " fill-opacity="1" fill-rule="nonzero"/><path fill="#71725d" d="M 172.894531 95.765625 C 169.09375 105.296875 160.46875 110.382812 158.34375 114.632812 C 154.546875 122.296875 164.136719 137.621094 147.464844 147.601562 C 136.457031 154.171875 119.398438 150.179688 109.355469 170.65625 C 107.101562 175.292969 104.269531 177.742188 101.886719 176.128906 C 102.078125 175.164062 102.273438 174.132812 102.464844 172.976562 C 105.167969 158.035156 106.585938 150.566406 108.515625 142.710938 C 111.34375 131.628906 115.054688 120.851562 119.652344 110.382812 C 124.03125 99.949219 126.734375 93.445312 130.082031 88.617188 C 134.203125 91.128906 145.855469 70.648438 159.824219 71.808594 C 170.0625 72.710938 177.914062 83.144531 172.894531 95.765625 Z M 172.894531 95.765625 " fill-opacity="1" fill-rule="nonzero"/><path fill="#cc9473" d="M 230.898438 248.316406 C 228.773438 254.886719 217.121094 254.5 190.46875 254.949219 L 170.960938 255.335938 C 175.726562 249.542969 181.777344 246.835938 187.507812 244.261719 L 187.570312 244.261719 C 191.433594 242.523438 195.167969 240.785156 198.195312 238.207031 C 199.21875 237.324219 200.164062 236.355469 201.027344 235.308594 C 201.800781 236.46875 202.570312 237.628906 203.28125 238.851562 C 218.921875 238.078125 228.191406 237.242188 230.640625 243.101562 C 231.34375 244.808594 231.429688 246.546875 230.898438 248.316406 Z M 230.898438 248.316406 " fill-opacity="1" fill-rule="nonzero"/><path fill="#71725d" d="M 167.484375 174.777344 C 167.035156 171.945312 168.839844 162.285156 161.046875 157.003906 C 155.253906 153.140625 145.148438 153.785156 142.636719 159.066406 C 141.285156 162.027344 141.671875 165.570312 140.707031 168.726562 C 138.515625 176.644531 129.441406 180.316406 124.867188 187.207031 C 120.296875 194.097656 121.519531 205.238281 128.152344 210.96875 C 132.335938 214.511719 138.453125 216.765625 139.675781 222.109375 C 140.898438 227.453125 137.488281 230.867188 136.972656 235.4375 C 136.972656 235.632812 136.90625 235.890625 136.90625 236.082031 C 136.457031 242.328125 140.191406 246.902344 155.578125 271.5 L 156.285156 272.53125 C 153.902344 262.164062 155.707031 246 158.085938 232.734375 C 160.46875 219.46875 163.042969 209.746094 163.042969 209.746094 C 164.976562 202.53125 167.550781 193.582031 170.769531 183.214844 C 169.417969 182.890625 168.324219 180.445312 167.484375 174.777344 Z M 167.484375 174.777344 " fill-opacity="1" fill-rule="nonzero"/><path fill="#cc9473" d="M 196.96875 239.109375 L 198.195312 238.207031 Z M 196.96875 239.109375 " fill-opacity="1" fill-rule="nonzero"/><path fill="#71725d" d="M 203.085938 203.820312 C 201.027344 210.96875 209.910156 222.042969 202.636719 233.183594 C 201.105469 235.503906 199.21875 237.480469 196.96875 239.109375 C 195.1875 240.421875 193.300781 241.558594 191.304688 242.523438 C 190.082031 243.167969 188.792969 243.679688 187.570312 244.261719 L 187.507812 244.261719 C 181.777344 246.835938 175.726562 249.542969 170.960938 255.335938 C 168.035156 259 165.976562 263.101562 164.78125 267.636719 C 163.753906 271.113281 162.273438 273.625 160.664062 274.332031 C 159.359375 263.988281 159.335938 253.644531 160.597656 243.296875 C 163.109375 222.558594 171.800781 196.15625 173.34375 188.6875 L 173.410156 188.6875 C 173.398438 188.59375 173.421875 188.507812 173.472656 188.429688 C 173.460938 188.273438 173.484375 188.125 173.539062 187.980469 C 173.667969 187.527344 173.796875 187.011719 173.921875 186.371094 C 174.050781 185.726562 174.308594 184.628906 174.632812 183.601562 C 174.953125 182.570312 175.660156 180.1875 175.917969 179.351562 L 179.78125 174.199219 C 184.09375 168.53125 189.695312 162.15625 196.96875 161.511719 C 207.207031 160.546875 216.796875 169.496094 214.09375 182.699219 C 212.035156 192.746094 204.375 199.25 203.085938 203.820312 Z M 203.085938 203.820312 " fill-opacity="1" fill-rule="nonzero"/><path fill="#cc9473" d="M 248.664062 134.59375 C 246.410156 130.988281 244.160156 127.640625 241.96875 124.550781 C 234.246094 113.796875 227.035156 106.839844 222.398438 104.972656 C 220.078125 104.050781 217.675781 103.472656 215.1875 103.234375 C 199.546875 76.640625 176.175781 58.929688 147.722656 71.292969 C 139.675781 74.773438 133.625 80.179688 128.859375 86.492188 C 122.746094 94.542969 118.753906 104.007812 115.148438 112.636719 C 105.105469 136.914062 101.886719 162.027344 100.921875 175.164062 L 101.886719 176.128906 C 102.078125 175.164062 102.273438 174.132812 102.464844 172.976562 C 105.167969 158.035156 106.585938 150.566406 108.515625 142.710938 C 111.34375 131.628906 115.054688 120.851562 119.652344 110.382812 C 124.03125 99.949219 126.734375 93.445312 130.082031 88.617188 C 131.101562 87.085938 132.261719 85.667969 133.558594 84.367188 C 136.132812 81.660156 145.210938 72.582031 159.695312 70.457031 C 164.796875 69.550781 169.863281 69.722656 174.890625 70.972656 C 176.046875 71.292969 192.722656 75.867188 198.835938 89.96875 C 200.832031 94.605469 199.417969 101.175781 201.476562 104.714844 C 182.808594 110.640625 172.636719 129.058594 170.960938 147.089844 C 170.191406 155.910156 171.863281 164.21875 174.4375 173.875 C 173.871094 174.335938 173.484375 174.914062 173.28125 175.613281 C 172.378906 178.191406 171.542969 180.765625 170.769531 183.214844 C 167.550781 193.582031 164.976562 202.53125 163.042969 209.746094 C 162.980469 209.9375 151.648438 252.179688 156.285156 272.53125 C 157.828125 274.460938 159.308594 274.976562 160.664062 274.332031 C 159.359375 263.988281 159.335938 253.644531 160.597656 243.296875 C 163.109375 222.558594 171.800781 196.15625 173.34375 188.6875 L 173.410156 188.6875 C 173.398438 188.59375 173.421875 188.507812 173.472656 188.429688 C 173.460938 188.273438 173.484375 188.125 173.539062 187.980469 C 173.628906 187.433594 173.753906 186.898438 173.921875 186.371094 C 174.117188 185.53125 174.308594 184.628906 174.632812 183.601562 C 174.953125 182.570312 175.660156 180.1875 175.917969 179.351562 L 179.78125 174.199219 C 174.824219 155.265625 172.507812 137.6875 181.714844 123.648438 C 195.296875 102.976562 220.339844 100.207031 241.003906 126.675781 C 243.164062 129.484375 245.160156 132.402344 246.992188 135.433594 C 262.957031 161.511719 271.324219 199.3125 274.671875 218.4375 C 276.179688 217.910156 277.511719 217.09375 278.664062 215.992188 L 278.730469 215.992188 C 276.371094 201.585938 272.664062 187.539062 267.609375 173.847656 C 262.550781 160.15625 256.238281 147.074219 248.664062 134.59375 Z M 248.664062 134.59375 " fill-opacity="1" fill-rule="nonzero"/><path fill="#d1a482" d="M 211.390625 270.40625 C 210.488281 270.277344 208.6875 264.933594 205.144531 268.152344 C 203.28125 269.890625 203.152344 272.59375 202.441406 273.367188 C 202.21875 272.777344 202.027344 272.175781 201.863281 271.566406 C 197.550781 259.007812 186.542969 274.65625 192.785156 276.394531 C 196.070312 277.296875 195.617188 273.304688 196.648438 271.886719 C 197.292969 271.566406 198.386719 280.644531 204.246094 277.941406 C 205.984375 277.167969 206.949219 275.492188 207.59375 273.691406 C 212.226562 278.261719 215.382812 271.179688 211.390625 270.40625 Z M 211.390625 270.40625 " fill-opacity="1" fill-rule="nonzero"/><path fill="#d1a482" d="M 169.546875 294.039062 C 172.699219 290.238281 169.738281 297.195312 175.339844 297.453125 C 177.398438 297.515625 179.589844 296.097656 180.296875 292.878906 C 183.710938 297 190.277344 295.457031 189.308594 291.976562 C 188.34375 288.5 185.511719 290.433594 185.703125 290.496094 C 183.066406 290.496094 181.714844 283.21875 177.269531 287.40625 C 175.339844 289.144531 175.917969 292.429688 175.597656 291.335938 C 173.085938 282.511719 162.980469 290.882812 166.132812 294.039062 C 166.359375 294.269531 166.617188 294.445312 166.914062 294.570312 C 167.210938 294.695312 167.519531 294.757812 167.839844 294.757812 C 168.160156 294.757812 168.46875 294.695312 168.765625 294.570312 C 169.0625 294.445312 169.320312 294.269531 169.546875 294.039062 Z M 169.546875 294.039062 " fill-opacity="1" fill-rule="nonzero"/><path fill="#d1a482" d="M 202.121094 312.261719 C 201.027344 312.003906 201.347656 308.851562 198.195312 309.300781 C 195.039062 309.75 195.039062 311.8125 194.652344 313.808594 C 192.398438 306.015625 186.15625 309.621094 184.609375 315.484375 C 183.710938 318.636719 188.410156 319.734375 189.246094 316.769531 C 190.660156 311.425781 190.402344 323.082031 196.777344 319.410156 C 197.679688 318.894531 199.03125 317.027344 198.835938 316.964844 C 203.214844 319.605469 205.789062 313.101562 202.121094 312.261719 Z M 202.121094 312.261719 " fill-opacity="1" fill-rule="nonzero"/><path fill="#d1a482" d="M 147.464844 269.246094 C 146.5625 269.503906 145.664062 266.285156 143.214844 267.699219 C 140.769531 269.117188 141.285156 271.886719 140.449219 270.984375 C 139.609375 270.082031 138.453125 266.605469 135.8125 266.992188 C 134.496094 267.261719 133.402344 267.902344 132.53125 268.925781 C 132.980469 270.726562 133.558594 272.53125 134.140625 274.269531 C 134.757812 273.789062 135.292969 273.234375 135.75 272.59375 C 138.515625 277.230469 142.636719 277.039062 144.566406 274.589844 C 146.5 272.144531 145.855469 274.785156 148.753906 273.882812 C 151.648438 272.980469 150.296875 268.34375 147.464844 269.246094 Z M 147.078125 269.246094 L 147.015625 269.246094 C 147.207031 269.246094 147.335938 269.3125 147.078125 269.246094 Z M 147.078125 269.246094 " fill-opacity="1" fill-rule="nonzero"/><path fill="#d1a482" d="M 244.222656 247.351562 C 241.777344 245.804688 237.914062 246.707031 235.917969 252.4375 C 235.082031 254.949219 239.074219 257.65625 240.941406 252.824219 C 241.839844 251.601562 241.648438 250.957031 241.96875 252.632812 C 242.140625 254.191406 242.785156 255.523438 243.902344 256.625 C 244.414062 253.546875 244.519531 250.457031 244.222656 247.351562 Z M 241.582031 251.410156 Z M 241.839844 251.601562 Z M 241.96875 251.539062 Z M 241.96875 251.539062 " fill-opacity="1" fill-rule="nonzero"/><path fill="#d1a482" d="M 222.140625 284.636719 C 217.378906 286.183594 218.40625 293.265625 222.078125 292.105469 C 222.5 291.945312 222.859375 291.695312 223.15625 291.351562 C 223.453125 291.007812 223.652344 290.617188 223.75 290.175781 C 224.042969 291.351562 224.601562 292.378906 225.425781 293.265625 C 226.457031 291.914062 227.550781 290.691406 228.578125 289.402344 C 227.9375 287.984375 226.648438 283.15625 222.140625 284.636719 Z M 222.140625 284.636719 " fill-opacity="1" fill-rule="nonzero"/><path fill="#d1a482" d="M 176.886719 336.605469 C 172.25 343.753906 168.710938 341.046875 166.714844 335.960938 C 166.132812 334.414062 165.296875 335.765625 164.332031 337.761719 C 162.980469 336.667969 161.929688 335.339844 161.175781 333.769531 C 161.800781 332.960938 162.464844 332.1875 163.171875 331.453125 C 168.964844 325.527344 171.089844 334.09375 171.800781 335.378906 C 172.570312 334.351562 173.023438 333.449219 173.667969 332.613281 C 176.886719 328.683594 179.265625 333.835938 181.585938 332.675781 C 181.859375 332.515625 182.160156 332.414062 182.476562 332.371094 C 182.792969 332.328125 183.105469 332.351562 183.414062 332.4375 C 183.722656 332.519531 184.003906 332.664062 184.257812 332.859375 C 184.507812 333.058594 184.710938 333.296875 184.867188 333.578125 C 186.605469 336.539062 181.648438 339.308594 176.886719 336.605469 Z M 176.886719 336.605469 " fill-opacity="1" fill-rule="nonzero"/></svg>