<svg xmlns="http://www.w3.org/2000/svg" xmlns:xlink="http://www.w3.org/1999/xlink" width="500" zoomAndPan="magnify" viewBox="0 0 375 374.999991" height="500" preserveAspectRatio="xMidYMid meet" version="1.0"><defs><clipPath id="9a45349bd2"><path d="M 163 72.648438 L 197 72.648438 L 197 180 L 163 180 Z M 163 72.648438 " clip-rule="nonzero"/></clipPath><clipPath id="ed36dfd2a6"><path d="M 183 72.648438 L 190 72.648438 L 190 91 L 183 91 Z M 183 72.648438 " clip-rule="nonzero"/></clipPath><clipPath id="386d1324c5"><path d="M 182 72.648438 L 195 72.648438 L 195 160 L 182 160 Z M 182 72.648438 " clip-rule="nonzero"/></clipPath><clipPath id="aa0f01d370"><path d="M 138 241 L 240.234375 241 L 240.234375 309.648438 L 138 309.648438 Z M 138 241 " clip-rule="nonzero"/></clipPath><clipPath id="61506d59b6"><path d="M 108.691406 181 L 178 181 L 178 225 L 108.691406 225 Z M 108.691406 181 " clip-rule="nonzero"/></clipPath><clipPath id="e74c633fb9"><path d="M 108.691406 181 L 171 181 L 171 225 L 108.691406 225 Z M 108.691406 181 " clip-rule="nonzero"/></clipPath><clipPath id="4d7d17cf26"><path d="M 192.046875 191 L 265.945312 191 L 265.945312 221.734375 L 192.046875 221.734375 Z M 192.046875 191 " clip-rule="nonzero"/></clipPath><clipPath id="adcdef91be"><path d="M 208.273438 192.214844 L 265.945312 192.214844 L 265.945312 221.734375 L 208.273438 221.734375 Z M 208.273438 192.214844 " clip-rule="nonzero"/></clipPath></defs><g clip-path="url(#9a45349bd2)"><path fill="#cedcd0" d="M 168.613281 121.761719 C 171.570312 111.738281 179.320312 96.464844 179.914062 89.324219 C 180.511719 82.179688 180.804688 72.355469 183.484375 72.65625 C 186.160156 72.953125 186.753906 72.953125 189.136719 90.214844 C 191.515625 107.472656 194.488281 122.949219 195.679688 130.691406 C 196.863281 138.425781 199.542969 179.199219 182.589844 179.199219 C 165.640625 179.199219 157.015625 161.042969 168.613281 121.757812 " fill-opacity="1" fill-rule="nonzero"/></g><g clip-path="url(#ed36dfd2a6)"><path fill="#f0f4f0" d="M 189.136719 90.214844 C 189.128906 90.199219 189.128906 90.179688 189.128906 90.167969 C 189.128906 90.179688 189.128906 90.195312 189.136719 90.214844 M 189.121094 90.125 L 189.121094 90.117188 L 189.121094 90.125 M 189.113281 90.074219 L 189.113281 90.066406 L 189.113281 90.074219 M 189.113281 90.050781 C 189.109375 90.039062 189.109375 90.03125 189.105469 90.015625 C 189.109375 90.027344 189.109375 90.039062 189.113281 90.050781 M 189.09375 89.929688 L 189.09375 89.921875 L 189.09375 89.929688 M 189.085938 89.847656 C 189.085938 89.839844 189.082031 89.832031 189.082031 89.824219 C 189.082031 89.832031 189.085938 89.835938 189.085938 89.847656 M 184.457031 72.800781 C 184.265625 72.753906 184.066406 72.722656 183.847656 72.695312 C 184.066406 72.722656 184.265625 72.753906 184.457031 72.800781 " fill-opacity="1" fill-rule="nonzero"/></g><g clip-path="url(#386d1324c5)"><path fill="#c2d4c6" d="M 184.351562 159.160156 C 183.699219 157.726562 182.992188 155.917969 182.25 153.832031 C 193.140625 130.097656 186.617188 87.539062 183.847656 72.699219 C 184.066406 72.722656 184.265625 72.753906 184.457031 72.800781 C 186.335938 73.261719 187.066406 75.234375 189.082031 89.824219 C 189.082031 89.832031 189.085938 89.839844 189.085938 89.847656 C 189.085938 89.871094 189.089844 89.898438 189.09375 89.921875 L 189.09375 89.929688 C 189.101562 89.957031 189.105469 89.988281 189.105469 90.015625 C 189.109375 90.03125 189.109375 90.039062 189.113281 90.050781 L 189.113281 90.074219 C 189.121094 90.089844 189.121094 90.101562 189.121094 90.117188 L 189.121094 90.125 C 189.125 90.136719 189.125 90.148438 189.128906 90.167969 C 189.128906 90.179688 189.128906 90.199219 189.136719 90.214844 C 190.796875 102.28125 192.753906 113.476562 194.183594 121.765625 C 190.777344 131.515625 186.382812 148.148438 184.351562 159.160156 " fill-opacity="1" fill-rule="nonzero"/></g><path fill="#a1ddae" d="M 157.3125 179.496094 C 151.460938 158.660156 150.769531 128.308594 153.742188 116.699219 C 156.71875 105.09375 162.363281 94.378906 166.53125 95.273438 C 170.695312 96.167969 168.910156 99.738281 169.804688 106.582031 C 170.695312 113.425781 179.621094 149.4375 184.675781 159.851562 C 189.730469 170.273438 190.917969 200.925781 175.15625 198.542969 C 161.839844 196.53125 161.257812 193.550781 157.3125 179.496094 " fill-opacity="1" fill-rule="nonzero"/><path fill="#8fd7a1" d="M 184.886719 186.773438 C 182.988281 185.691406 180.941406 184.773438 179.113281 184.773438 C 179.089844 184.773438 179.0625 184.773438 179.039062 184.78125 C 177.121094 183.460938 174.84375 182.417969 172.507812 181.660156 C 168.800781 170.554688 166.695312 159.058594 164.746094 147.949219 C 161.753906 130.914062 166.234375 106.417969 168.421875 96.1875 C 170.058594 97.792969 169.097656 101.15625 169.804688 106.582031 C 170.675781 113.28125 179.246094 147.933594 184.351562 159.160156 C 183.976562 161.199219 183.675781 163.042969 183.484375 164.617188 C 182.140625 175.527344 182.894531 182.234375 184.886719 186.773438 " fill-opacity="1" fill-rule="nonzero"/><path fill="#c3e7ba" d="M 183.484375 164.617188 C 185 152.328125 192.703125 123.546875 196.570312 115.808594 C 200.433594 108.070312 206.386719 94.679688 207.28125 92 C 208.167969 89.324219 211.441406 90.214844 213.820312 100.332031 C 216.199219 110.449219 219.46875 141.402344 219.769531 150.929688 C 220.066406 160.449219 223.039062 184.257812 216.792969 189.613281 C 210.550781 194.96875 200.734375 200.328125 193.59375 195.867188 C 186.460938 191.398438 180.804688 186.339844 183.484375 164.617188 " fill-opacity="1" fill-rule="nonzero"/><path fill="#b5e2ad" d="M 202.621094 192.648438 C 202.363281 186.046875 203.207031 174.910156 207.871094 157.175781 C 215.042969 129.917969 211.269531 103.242188 208.578125 90.722656 C 208.605469 90.722656 208.632812 90.71875 208.65625 90.71875 C 210.074219 90.71875 212.164062 93.277344 213.820312 100.332031 C 216.199219 110.449219 219.46875 141.402344 219.769531 150.929688 C 219.917969 155.691406 220.734375 164.019531 220.734375 171.828125 L 220.734375 172.050781 C 219.355469 174.960938 218.082031 177.5625 217.089844 179.496094 C 214.636719 184.285156 213.515625 188.101562 213.328125 191.121094 C 212.722656 191.089844 212.113281 191.070312 211.5 191.070312 C 208.554688 191.070312 205.515625 191.5 202.621094 192.648438 " fill-opacity="1" fill-rule="nonzero"/><path fill="#e7e598" d="M 217.089844 179.496094 C 221.160156 171.5625 229.878906 152.414062 231.964844 146.757812 C 234.042969 141.101562 235.53125 123.546875 238.210938 124.140625 C 240.882812 124.734375 243.859375 127.710938 245.050781 140.804688 C 246.238281 153.902344 249.511719 176.222656 245.050781 185.742188 C 241.304688 193.746094 236.125 199.4375 229.878906 201.21875 C 223.636719 203.003906 205.496094 202.113281 217.089844 179.496094 " fill-opacity="1" fill-rule="nonzero"/><path fill="#e1df87" d="M 236.152344 197.882812 C 233.621094 197.1875 231.183594 196.292969 228.988281 195.269531 C 228.546875 195.0625 227.570312 194.609375 226.195312 194.078125 C 234.90625 185.675781 243.890625 167.515625 242.414062 128.292969 C 243.546875 130.78125 244.492188 134.675781 245.050781 140.804688 C 245.789062 148.917969 247.320312 160.574219 247.320312 170.535156 C 247.328125 176.652344 246.746094 182.121094 245.050781 185.742188 C 242.640625 190.886719 239.644531 195.074219 236.152344 197.882812 " fill-opacity="1" fill-rule="nonzero"/><g clip-path="url(#aa0f01d370)"><path fill="#dd9f36" d="M 188.910156 244.035156 C 151.257812 244.035156 141.835938 242.449219 138.386719 241.566406 L 147.671875 300.621094 C 147.671875 300.621094 147.894531 307.027344 153.191406 307.507812 C 158.5 307.996094 166.226562 309.648438 189.195312 309.648438 C 212.164062 309.648438 219.894531 307.996094 225.195312 307.507812 C 230.496094 307.027344 230.714844 300.621094 230.714844 300.621094 L 240.027344 241.402344 C 237.074219 242.238281 228.960938 244.035156 188.910156 244.035156 " fill-opacity="1" fill-rule="nonzero"/></g><path fill="#c99136" d="M 163.628906 302.257812 L 153.664062 243.308594 C 144.113281 242.777344 140.316406 242.058594 138.390625 241.566406 L 147.671875 300.621094 C 147.671875 300.621094 147.894531 307.027344 153.191406 307.507812 C 156.183594 307.785156 159.941406 308.429688 166.769531 308.933594 C 163.851562 306.660156 163.628906 302.257812 163.628906 302.257812 " fill-opacity="1" fill-rule="nonzero"/><path fill="#b87d33" d="M 152.957031 303.617188 L 143.113281 242.410156 C 140.761719 242.105469 139.34375 241.8125 138.390625 241.566406 L 147.671875 300.621094 C 147.671875 300.621094 147.894531 307.027344 153.191406 307.507812 C 153.457031 307.53125 153.730469 307.5625 154.003906 307.59375 C 153.046875 305.628906 152.957031 303.617188 152.957031 303.617188 " fill-opacity="1" fill-rule="nonzero"/><path fill="#c37928" d="M 189.164062 214.617188 C 164.023438 214.546875 132.109375 218.027344 132.109375 221.46875 C 132.109375 221.46875 132.71875 236.152344 132.84375 237.433594 C 132.964844 238.703125 134.367188 240.28125 136.71875 241.015625 C 139.0625 241.753906 143.035156 244.808594 188.910156 244.808594 C 234.789062 244.808594 238.761719 241.753906 241.109375 241.015625 C 243.453125 240.28125 244.855469 238.703125 244.976562 237.433594 C 245.105469 236.152344 246.003906 221.46875 246.003906 221.46875 C 246.003906 218.027344 214.308594 214.679688 189.167969 214.617188 " fill-opacity="1" fill-rule="nonzero"/><path fill="#b66d29" d="M 153.6875 238.910156 C 153.5 237.347656 152.484375 224.132812 151.910156 216.648438 C 140.429688 217.949219 132.109375 219.714844 132.109375 221.46875 C 132.109375 221.46875 132.71875 236.152344 132.84375 237.433594 C 132.964844 238.703125 134.367188 240.28125 136.71875 241.015625 C 138.34375 241.527344 140.765625 243.15625 157.402344 244.105469 C 155.242188 242.785156 153.898438 240.699219 153.6875 238.910156 " fill-opacity="1" fill-rule="nonzero"/><path fill="#a8621e" d="M 243.328125 238.988281 C 240.914062 239.738281 236.816406 242.894531 189.554688 242.894531 C 142.285156 242.894531 138.191406 239.738281 135.78125 238.988281 C 134.503906 238.589844 133.511719 237.945312 132.824219 237.234375 C 132.832031 237.3125 132.839844 237.382812 132.84375 237.433594 C 132.964844 238.703125 134.367188 240.28125 136.71875 241.015625 C 139.0625 241.753906 143.035156 244.808594 188.910156 244.808594 C 234.789062 244.808594 238.761719 241.753906 241.109375 241.015625 C 242.863281 240.46875 244.09375 239.441406 244.648438 238.425781 C 244.246094 238.644531 243.8125 238.835938 243.332031 238.988281 " fill-opacity="1" fill-rule="nonzero"/><path fill="#a05a28" d="M 189.164062 228.808594 C 209.363281 228.808594 246.003906 224.925781 246.003906 221.46875 C 246.003906 218.027344 214.304688 214.679688 189.164062 214.617188 C 164.023438 214.546875 132.109375 218.027344 132.109375 221.46875 C 132.109375 224.925781 168.964844 228.808594 189.164062 228.808594 " fill-opacity="1" fill-rule="nonzero"/><path fill="#6a2f17" d="M 189.160156 227.378906 C 170.007812 227.378906 136.421875 223.679688 136.421875 221.460938 C 136.421875 219.242188 164.910156 216.039062 188.472656 216.039062 L 189.15625 216.039062 C 212.988281 216.101562 241.691406 219.398438 241.691406 221.464844 C 241.691406 223.527344 208.238281 227.378906 189.160156 227.378906 " fill-opacity="1" fill-rule="nonzero"/><g clip-path="url(#61506d59b6)"><path fill="#5c668f" d="M 110.914062 190.507812 C 106.15625 184.554688 110.914062 179.496094 115.671875 182.765625 C 120.429688 186.042969 129.054688 194.675781 136.789062 193.777344 C 144.523438 192.886719 161.773438 195.566406 167.125 198.542969 C 172.480469 201.519531 185.476562 214.839844 170.398438 221.457031 C 153.445312 228.894531 133.21875 219.96875 124.894531 208.363281 C 116.566406 196.753906 115.917969 196.765625 110.914062 190.507812 " fill-opacity="1" fill-rule="nonzero"/></g><path fill="#4f5981" d="M 170.417969 221.449219 C 170.417969 221.445312 170.417969 221.445312 170.425781 221.445312 C 170.417969 221.445312 170.417969 221.445312 170.417969 221.449219 " fill-opacity="1" fill-rule="nonzero"/><path fill="#4f5981" d="M 170.4375 221.441406 C 170.4375 221.4375 170.445312 221.4375 170.449219 221.4375 C 170.445312 221.4375 170.4375 221.4375 170.4375 221.441406 " fill-opacity="1" fill-rule="nonzero"/><path fill="#4f5981" d="M 170.457031 221.429688 C 170.464844 221.429688 170.464844 221.429688 170.46875 221.425781 C 170.464844 221.429688 170.464844 221.429688 170.457031 221.429688 " fill-opacity="1" fill-rule="nonzero"/><path fill="#4f5981" d="M 170.472656 221.425781 C 170.476562 221.421875 170.488281 221.417969 170.492188 221.417969 C 170.488281 221.417969 170.476562 221.421875 170.472656 221.425781 " fill-opacity="1" fill-rule="nonzero"/><path fill="#c6c4d4" d="M 135.796875 193.84375 C 135.785156 193.835938 135.769531 193.828125 135.757812 193.824219 C 136.101562 193.816406 136.449219 193.816406 136.789062 193.777344 C 136.460938 193.816406 136.128906 193.835938 135.796875 193.84375 M 136.789062 193.777344 L 136.804688 193.777344 L 136.789062 193.777344 M 136.820312 193.777344 L 136.832031 193.777344 L 136.820312 193.777344 M 136.855469 193.773438 C 137.867188 193.660156 139.042969 193.605469 140.332031 193.605469 C 139.042969 193.605469 137.867188 193.660156 136.855469 193.773438 M 140.71875 193.605469 L 140.335938 193.605469 L 140.71875 193.605469 " fill-opacity="1" fill-rule="nonzero"/><path fill="#4f5981" d="M 170.5 221.410156 C 171.832031 220.820312 172.9375 220.175781 173.847656 219.492188 C 172.9375 220.175781 171.832031 220.820312 170.5 221.410156 M 159.566406 211.726562 C 153.0625 205.558594 144.566406 199.652344 141.101562 197.203125 C 139.144531 195.816406 137.34375 194.707031 135.796875 193.84375 C 136.128906 193.835938 136.460938 193.816406 136.789062 193.777344 L 136.832031 193.777344 C 136.839844 193.773438 136.847656 193.773438 136.855469 193.773438 C 137.867188 193.660156 139.042969 193.605469 140.332031 193.605469 L 140.71875 193.605469 C 141.609375 193.617188 142.546875 193.644531 143.523438 193.699219 C 148.90625 199.269531 153.742188 202.410156 153.742188 202.410156 C 156.691406 204.730469 160.460938 207.722656 164.207031 210.5625 C 162.65625 211.109375 161.109375 211.492188 159.566406 211.726562 " fill-opacity="1" fill-rule="nonzero"/><path fill="#d9d6e1" d="M 124.953125 208.445312 C 124.941406 208.429688 124.929688 208.417969 124.917969 208.398438 C 124.929688 208.417969 124.941406 208.429688 124.953125 208.445312 M 124.894531 208.363281 C 116.566406 196.753906 115.917969 196.765625 110.914062 190.507812 C 109.863281 189.191406 109.277344 187.921875 109.050781 186.777344 C 109.277344 187.921875 109.863281 189.191406 110.914062 190.507812 C 115.917969 196.765625 116.566406 196.753906 124.894531 208.363281 " fill-opacity="1" fill-rule="nonzero"/><path fill="#5e2b19" d="M 157.078125 224.183594 L 157.074219 224.183594 L 157.078125 224.183594 C 161.523438 224.183594 166.007812 223.363281 170.285156 221.503906 C 166.007812 223.363281 161.523438 224.183594 157.078125 224.183594 M 170.335938 221.484375 L 170.367188 221.46875 L 170.335938 221.484375 M 170.398438 221.457031 C 170.40625 221.457031 170.410156 221.449219 170.417969 221.449219 C 170.410156 221.449219 170.40625 221.457031 170.398438 221.457031 " fill-opacity="1" fill-rule="nonzero"/><g clip-path="url(#e74c633fb9)"><path fill="#535d85" d="M 157.078125 224.183594 L 157.074219 224.183594 C 143.96875 224.183594 131.1875 217.0625 124.953125 208.445312 C 124.941406 208.429688 124.929688 208.417969 124.917969 208.398438 C 124.910156 208.386719 124.902344 208.371094 124.894531 208.363281 C 116.566406 196.753906 115.917969 196.765625 110.914062 190.507812 C 109.863281 189.191406 109.277344 187.921875 109.050781 186.777344 C 108.570312 184.328125 109.742188 182.441406 111.566406 181.902344 C 119.640625 192.601562 136.878906 212.039062 155.542969 212.039062 C 156.878906 212.039062 158.21875 211.941406 159.566406 211.726562 C 163.496094 215.460938 166.703125 219.289062 167.625 222.507812 C 168.5625 222.203125 169.484375 221.859375 170.398438 221.457031 C 170.386719 221.464844 170.375 221.464844 170.367188 221.46875 L 170.335938 221.484375 C 170.320312 221.492188 170.300781 221.5 170.285156 221.503906 C 166.007812 223.363281 161.523438 224.183594 157.078125 224.183594 " fill-opacity="1" fill-rule="nonzero"/></g><path fill="#5e2b19" d="M 170.425781 221.445312 C 170.429688 221.445312 170.433594 221.441406 170.4375 221.441406 C 170.433594 221.441406 170.429688 221.445312 170.425781 221.445312 M 170.449219 221.4375 C 170.453125 221.4375 170.453125 221.429688 170.457031 221.429688 C 170.453125 221.429688 170.453125 221.4375 170.449219 221.4375 M 170.46875 221.425781 L 170.472656 221.425781 L 170.46875 221.425781 M 170.492188 221.417969 L 170.5 221.410156 C 170.5 221.410156 170.5 221.417969 170.492188 221.417969 " fill-opacity="1" fill-rule="nonzero"/><path fill="#48537a" d="M 167.625 222.507812 C 166.703125 219.289062 163.496094 215.460938 159.566406 211.726562 C 161.109375 211.492188 162.65625 211.109375 164.207031 210.5625 C 165.949219 211.886719 167.683594 213.175781 169.328125 214.351562 C 170.46875 215.996094 172.039062 217.730469 173.847656 219.492188 C 172.9375 220.175781 171.832031 220.820312 170.5 221.410156 L 170.492188 221.417969 C 170.488281 221.417969 170.476562 221.421875 170.472656 221.425781 L 170.46875 221.425781 C 170.464844 221.429688 170.464844 221.429688 170.457031 221.429688 C 170.453125 221.429688 170.453125 221.4375 170.449219 221.4375 C 170.445312 221.4375 170.4375 221.4375 170.4375 221.441406 C 170.433594 221.441406 170.429688 221.445312 170.425781 221.445312 C 170.417969 221.445312 170.417969 221.445312 170.417969 221.449219 C 170.410156 221.449219 170.40625 221.457031 170.398438 221.457031 C 169.484375 221.859375 168.5625 222.203125 167.625 222.507812 " fill-opacity="1" fill-rule="nonzero"/><path fill="#83b6b8" d="M 153.742188 202.410156 C 153.742188 202.410156 131.734375 188.125 129.355469 166.402344 C 126.972656 144.671875 130.246094 133.367188 133.519531 132.175781 C 136.789062 130.984375 137.980469 135.449219 138.574219 141.402344 C 139.167969 147.355469 148.6875 165.804688 153.148438 170.269531 C 157.609375 174.730469 163.855469 179.496094 170.101562 180.984375 C 176.34375 182.472656 182.890625 186.042969 184.078125 191.398438 C 185.269531 196.753906 181.699219 218.484375 179.320312 219.667969 C 176.941406 220.859375 162.070312 208.957031 153.742188 202.410156 " fill-opacity="1" fill-rule="nonzero"/><g clip-path="url(#4d7d17cf26)"><path fill="#9dd8a8" d="M 228.988281 195.269531 C 237.910156 199.4375 251 201.519531 257.246094 196.160156 C 263.488281 190.808594 266.464844 191.699219 265.871094 195.863281 C 265.273438 200.03125 257.839844 209.847656 251 213.125 C 244.160156 216.398438 232.261719 226.8125 203.710938 218.484375 C 189.433594 214.613281 189.691406 200.503906 199.246094 194.375 C 210.84375 186.933594 226.753906 194.226562 228.988281 195.269531 " fill-opacity="1" fill-rule="nonzero"/></g><path fill="#b0e0a5" d="M 199.246094 194.375 C 199.308594 194.339844 199.367188 194.300781 199.425781 194.261719 C 199.367188 194.300781 199.308594 194.339844 199.246094 194.375 M 199.433594 194.261719 L 199.433594 194.257812 L 199.433594 194.261719 " fill-opacity="1" fill-rule="nonzero"/><path fill="#8ed297" d="M 214.929688 208.058594 C 212.925781 207.703125 210.976562 207.304688 209.09375 206.875 C 208.277344 204.105469 206.988281 201.984375 206.085938 200.328125 C 205.222656 198.742188 202.136719 196.601562 198.835938 194.648438 C 198.972656 194.554688 199.105469 194.460938 199.246094 194.375 C 199.308594 194.339844 199.367188 194.300781 199.425781 194.261719 L 199.433594 194.261719 L 199.433594 194.257812 C 200.578125 193.542969 201.765625 192.976562 202.976562 192.519531 C 206.414062 193.90625 209.398438 195.339844 210.152344 196.363281 C 211.542969 198.246094 214.417969 202.867188 214.929688 208.058594 " fill-opacity="1" fill-rule="nonzero"/><path fill="#e4f4db" d="M 239.792969 218.757812 C 244.75 216.851562 248.222656 214.46875 250.917969 213.164062 C 248.222656 214.46875 244.75 216.851562 239.792969 218.757812 " fill-opacity="1" fill-rule="nonzero"/><path fill="#935a29" d="M 236.878906 219.761719 C 237.898438 219.453125 238.875 219.113281 239.792969 218.757812 C 238.875 219.113281 237.90625 219.453125 236.878906 219.761719 " fill-opacity="1" fill-rule="nonzero"/><path fill="#622f19" d="M 223.675781 221.636719 C 228.902344 221.636719 233.238281 220.867188 236.878906 219.761719 C 233.238281 220.867188 228.90625 221.636719 223.675781 221.636719 " fill-opacity="1" fill-rule="nonzero"/><g clip-path="url(#adcdef91be)"><path fill="#8ed297" d="M 223.675781 221.636719 L 223.667969 221.636719 C 219.347656 221.636719 214.40625 221.113281 208.746094 219.800781 L 208.746094 219.792969 C 209.207031 219.902344 209.664062 220 210.117188 220.097656 C 214.3125 216.40625 215.324219 212.0625 214.929688 208.058594 C 219.804688 208.910156 224.96875 209.476562 230.105469 209.476562 C 243.699219 209.476562 257.105469 205.519531 264.382812 192.484375 C 265.632812 192.695312 266.148438 193.917969 265.871094 195.863281 C 265.273438 200.03125 257.839844 209.847656 251 213.125 C 250.976562 213.136719 250.957031 213.144531 250.9375 213.15625 C 250.929688 213.160156 250.921875 213.160156 250.917969 213.164062 C 248.222656 214.46875 244.75 216.851562 239.792969 218.757812 C 238.875 219.113281 237.898438 219.453125 236.878906 219.761719 C 233.238281 220.867188 228.902344 221.636719 223.675781 221.636719 " fill-opacity="1" fill-rule="nonzero"/></g><path fill="#80cd8a" d="M 210.117188 220.097656 C 209.664062 220 209.207031 219.902344 208.746094 219.792969 C 208.960938 218.828125 209.167969 217.894531 209.359375 216.992188 C 210.238281 212.882812 209.890625 209.574219 209.09375 206.875 C 210.976562 207.304688 212.925781 207.703125 214.929688 208.058594 C 215.324219 212.0625 214.3125 216.40625 210.117188 220.097656 " fill-opacity="1" fill-rule="nonzero"/><path fill="#e2f4e4" d="M 129.351562 166.367188 C 129.347656 166.347656 129.347656 166.324219 129.34375 166.296875 C 129.347656 166.324219 129.347656 166.34375 129.351562 166.367188 " fill-opacity="1" fill-rule="nonzero"/><path fill="#75b2aa" d="M 169.328125 214.351562 C 164.144531 210.644531 158.0625 205.808594 153.742188 202.410156 C 153.742188 202.410156 131.734375 188.125 129.355469 166.402344 C 129.355469 166.390625 129.351562 166.378906 129.351562 166.367188 C 129.347656 166.34375 129.347656 166.324219 129.34375 166.296875 C 129.121094 164.257812 128.964844 162.335938 128.835938 160.484375 C 133.699219 169.492188 144.945312 186.816406 161.972656 192.59375 C 165.070312 193.640625 167.847656 194.492188 170.332031 195.179688 C 168.625 199.234375 167.371094 203.953125 167.371094 208.351562 C 167.371094 208.855469 167.390625 209.355469 167.425781 209.847656 C 167.519531 211.214844 168.214844 212.738281 169.328125 214.351562 " fill-opacity="1" fill-rule="nonzero"/><path fill="#a7dd94" d="M 167.425781 209.847656 C 166.777344 200.476562 172.480469 189.019531 176.34375 185.742188 C 180.214844 182.472656 187.054688 188.425781 190.023438 189.910156 C 193.003906 191.398438 204.304688 197.054688 206.085938 200.328125 C 207.871094 203.601562 211.144531 208.664062 209.359375 216.992188 C 207.574219 225.328125 204.601562 236.933594 204.304688 242.882812 C 204.003906 248.835938 196.863281 242.289062 194.785156 237.824219 C 192.703125 233.363281 168.019531 218.484375 167.425781 209.847656 " fill-opacity="1" fill-rule="nonzero"/><path fill="#96d786" d="M 202.445312 245.25 C 200.105469 245.019531 196.230469 240.921875 194.785156 237.824219 C 193.367188 234.789062 181.484375 226.925781 173.847656 219.492188 C 172.039062 217.730469 170.46875 215.996094 169.328125 214.351562 C 168.214844 212.738281 167.519531 211.214844 167.425781 209.847656 C 167.390625 209.355469 167.371094 208.855469 167.371094 208.351562 C 167.375 199.289062 172.679688 188.847656 176.34375 185.742188 C 176.511719 185.605469 176.695312 185.503906 176.871094 185.390625 C 178.046875 192.082031 180.835938 202.984375 187.351562 213.421875 C 195.109375 225.84375 200.222656 237.605469 202.445312 245.25 " fill-opacity="1" fill-rule="nonzero"/></svg>