<svg xmlns="http://www.w3.org/2000/svg" xmlns:xlink="http://www.w3.org/1999/xlink" width="500" zoomAndPan="magnify" viewBox="0 0 375 374.999991" height="500" preserveAspectRatio="xMidYMid meet" version="1.0"><defs><clipPath id="12c7c83215"><path d="M 150 255 L 251 255 L 251 345.652344 L 150 345.652344 Z M 150 255 " clip-rule="nonzero"/></clipPath><clipPath id="37ba8071e7"><path d="M 150 255 L 185 255 L 185 345.652344 L 150 345.652344 Z M 150 255 " clip-rule="nonzero"/></clipPath></defs><path fill="#deded6" d="M 186.714844 111.207031 C 200.335938 145.222656 204.414062 201.703125 212.601562 257.042969 L 200.339844 255.070312 C 202.839844 237.808594 202.273438 184.566406 186.714844 111.207031 " fill-opacity="1" fill-rule="nonzero"/><path fill="#dfdac4" d="M 157.234375 153.605469 C 158.632812 151.398438 158.074219 143.351562 163.417969 139.664062 C 169.832031 145.5625 160.390625 157.523438 163.789062 153.953125 C 173.480469 151.640625 173.996094 136.535156 171.847656 137.21875 C 178.976562 133.234375 178.003906 150.101562 180.8125 151.339844 C 191.253906 148.042969 184.386719 128.738281 181.882812 126.945312 C 189.863281 121.695312 188.546875 142.59375 193.945312 143.679688 C 206.183594 146.140625 196.1875 117.660156 185.449219 116.917969 C 194.21875 116.398438 198.453125 120.273438 201.652344 120.230469 C 213 127.066406 202.640625 138.210938 207.003906 139.75 C 216.183594 136.265625 216.199219 115.320312 209.511719 108.496094 C 202.828125 101.675781 185.429688 101.75 181.113281 103.480469 C 176.796875 105.214844 181.144531 91.890625 176.472656 86.332031 C 171.800781 80.769531 173.0625 75.621094 160.570312 85.648438 C 165.652344 87.578125 179.074219 104.710938 170.457031 106.859375 C 169.074219 88.257812 147.820312 88.910156 151.339844 99.433594 C 151.402344 99.617188 169.980469 104.511719 166.585938 112.632812 C 161.117188 101.382812 145.148438 105.378906 144.101562 110.234375 C 146.050781 109.476562 161.023438 114.242188 157.148438 118.988281 C 154.335938 117.199219 142.003906 113.742188 138.714844 118.273438 C 144.152344 114.785156 151.046875 119.628906 147.746094 124.335938 C 145.734375 121.140625 134.691406 129.808594 139.035156 137.34375 C 140.078125 137.242188 150.265625 128.664062 153.113281 132.75 C 157.886719 136.011719 143.484375 140.144531 141.179688 142.832031 C 138.628906 145.796875 156.816406 155.238281 157.234375 153.605469 " fill-opacity="1" fill-rule="nonzero"/><path fill="#dfdac4" d="M 163.777344 181.792969 C 177.050781 199 188.578125 225.265625 199.140625 255.800781 L 189.316406 256.882812 C 190.007812 246.441406 181.496094 221.414062 163.777344 181.792969 " fill-opacity="1" fill-rule="nonzero"/><path fill="#c2c882" d="M 220.292969 154.605469 C 206.992188 177.8125 203.28125 218 195.492188 257.003906 L 207.628906 256.683594 C 205.050781 244.066406 205.300781 205.886719 220.292969 154.605469 " fill-opacity="1" fill-rule="nonzero"/><g clip-path="url(#12c7c83215)"><path fill="#e1adb1" d="M 162.832031 255.839844 C 188.199219 261.066406 217.738281 261.066406 238.71875 255.929688 C 242.042969 255.117188 245.867188 256.996094 247.253906 260.125 C 255.800781 279.390625 245.414062 319.226562 240.78125 335.207031 C 239.117188 340.945312 232.921875 345.601562 226.953125 345.601562 L 177.300781 345.601562 C 171.332031 345.601562 164.769531 341.066406 162.660156 335.480469 C 155.070312 315.414062 145.75 282.160156 153.730469 260.867188 C 155.058594 257.328125 159.132812 255.074219 162.832031 255.839844 " fill-opacity="1" fill-rule="nonzero"/></g><g clip-path="url(#37ba8071e7)"><path fill="#d2a1a5" d="M 162.832031 255.839844 C 188.199219 261.066406 179.261719 256.203125 179.261719 256.203125 C 179.960938 255.917969 180.660156 258.46875 180.824219 261.882812 C 181.730469 280.898438 180.496094 322.886719 184.175781 335.234375 C 185.882812 340.957031 182.609375 345.601562 176.878906 345.601562 C 171.140625 345.601562 164.769531 341.066406 162.660156 335.480469 C 155.070312 315.414062 145.75 282.160156 153.730469 260.867188 C 155.058594 257.328125 159.132812 255.074219 162.832031 255.839844 " fill-opacity="1" fill-rule="nonzero"/></g><path fill="#efc6ce" d="M 154.539062 255.691406 L 246.65625 255.691406 C 252.359375 255.691406 256.992188 260.324219 256.992188 266.035156 L 256.992188 276.613281 C 256.992188 282.320312 252.359375 286.957031 246.65625 286.957031 L 154.539062 286.957031 C 148.832031 286.957031 144.203125 282.320312 144.203125 276.613281 L 144.203125 266.035156 C 144.203125 260.324219 148.832031 255.691406 154.539062 255.691406 " fill-opacity="1" fill-rule="nonzero"/><path fill="#ddb7be" d="M 155.199219 255.6875 L 180.527344 255.6875 C 177.21875 266.53125 176.792969 277.8125 180.527344 286.957031 L 155.308594 286.957031 C 149.179688 286.957031 144.203125 281.980469 144.203125 275.84375 L 144.203125 266.699219 C 144.203125 260.621094 149.128906 255.6875 155.199219 255.6875 " fill-opacity="1" fill-rule="nonzero"/><path fill="#c2c882" d="M 117.414062 255.941406 C 119.605469 253.164062 120.488281 240.808594 128.222656 236.613281 C 136.078125 245.496094 121.675781 260.269531 126.757812 255.941406 C 140.167969 254.226562 142.941406 233.921875 139.941406 234.535156 C 150.121094 230.191406 146.496094 252.804688 150.125 254.878906 C 164.6875 251.949219 158.054688 224.902344 154.914062 222.125 C 166.421875 216.203125 161.714844 244.355469 168.921875 246.449219 C 190.300781 252.671875 180.699219 212.800781 161.105469 209.113281 C 188.332031 204.8125 196.714844 230.078125 187.101562 237.65625 C 199.984375 234.289062 202.878906 211.417969 194.78125 201.242188 C 186.683594 191.066406 186.554688 183.601562 168.921875 185.890625 C 175.203125 168.050781 159.777344 148.867188 131.78125 163.324219 C 138.382812 166.664062 154.171875 191.722656 142.230469 193.375 C 142.910156 168.074219 114.105469 165.875 117.414062 180.582031 C 117.472656 180.839844 141.910156 190.132812 136.210938 200.601562 C 130.359375 184.628906 108.234375 187.710938 106.15625 194.105469 C 108.890625 193.363281 128.46875 201.96875 122.582031 207.808594 C 119.027344 204.984375 102.835938 198.53125 97.773438 204.175781 C 105.597656 200.25 114.253906 207.785156 109.144531 213.660156 C 106.863281 209.050781 90.753906 219.152344 95.585938 229.945312 C 97.007812 229.957031 111.957031 219.863281 115.242188 225.789062 C 121.246094 230.886719 101.21875 234.367188 97.726562 237.65625 C 93.878906 241.289062 116.625 258.078125 117.414062 255.941406 " fill-opacity="1" fill-rule="nonzero"/><path fill="#b8bd7a" d="M 117.414062 255.941406 C 119.605469 253.164062 120.488281 240.808594 128.222656 236.613281 C 136.078125 245.496094 121.675781 260.269531 126.757812 255.941406 C 140.167969 254.226562 142.941406 233.921875 139.941406 234.535156 C 150.121094 230.191406 146.496094 252.804688 150.125 254.878906 C 164.6875 251.949219 158.054688 224.902344 154.914062 222.125 C 166.421875 216.203125 161.226562 246.507812 168.921875 246.449219 C 192.945312 246.261719 180.769531 224.394531 161.578125 205.902344 C 155.199219 202.417969 150.882812 198.097656 150.125 194.105469 C 150.695312 189.878906 132.433594 168.953125 128.222656 170.914062 C 118.328125 165.949219 116.597656 182.171875 117.414062 181.792969 C 126.824219 186.980469 139.652344 195.640625 136.210938 197.992188 C 118.128906 185.152344 103.804688 183.753906 106.15625 194.105469 C 108.890625 193.363281 128.46875 201.96875 122.582031 207.808594 C 119.027344 204.984375 102.835938 198.53125 97.773438 204.175781 C 105.597656 200.25 114.253906 207.785156 109.144531 213.660156 C 106.863281 209.050781 90.753906 219.152344 95.585938 229.945312 C 97.007812 229.957031 111.957031 219.863281 115.242188 225.789062 C 121.246094 230.886719 101.21875 234.367188 97.726562 237.65625 C 93.878906 241.289062 116.625 258.078125 117.414062 255.941406 " fill-opacity="1" fill-rule="nonzero"/><path fill="#708c73" d="M 273.335938 217.390625 C 271.164062 214.652344 260.890625 211.71875 258.511719 203.378906 C 268.53125 198.039062 279.539062 215.226562 276.492188 209.371094 C 277.621094 196.238281 258.992188 188.769531 258.953125 191.761719 C 256.9375 181.066406 277.578125 189.894531 280.285156 186.945312 C 280.507812 172.429688 253.566406 172.28125 250.292969 174.601562 C 247.050781 162.269531 272.582031 173.351562 276.175781 167.101562 C 284.316406 152.945312 244.636719 152.558594 239.257812 165.625 C 242.246094 154.445312 248.839844 150.910156 250.113281 146.898438 C 263.34375 135.824219 272.953125 153.785156 276.683594 149.039062 C 276.144531 136.011719 250.015625 126.535156 238.726562 131.792969 C 227.441406 137.054688 216.839844 147.308594 217.210938 153.472656 C 217.582031 159.640625 203.375 156.972656 194.5 160.292969 C 185.625 163.613281 184.011719 166.671875 191.347656 186.78125 C 195.859375 181.320312 221.386719 168.0625 220.492188 179.785156 C 196.703125 173.113281 188.710938 199.921875 203.300781 200.289062 C 203.554688 200.292969 217.363281 179.320312 226.09375 187.21875 C 209.785156 188.964844 208.15625 210.695312 213.777344 214.195312 C 213.640625 211.421875 225.796875 194.890625 230.109375 201.871094 C 226.710938 204.570312 217.28125 218.394531 221.578125 224.546875 C 219.476562 216.183594 228.378906 209.769531 232.882812 216.011719 C 228.058594 217.082031 234.300781 234.773438 245.503906 232.757812 C 245.808594 231.410156 239.332031 214.824219 245.609375 213.117188 C 251.660156 208.636719 250.84375 228.46875 253.238281 232.5625 C 255.886719 237.082031 275.199219 218.652344 273.335938 217.390625 " fill-opacity="1" fill-rule="nonzero"/><path stroke-linecap="square" transform="matrix(0.0707723, 0, 0, -0.070829, 10.556884, 389.848978)" fill="none" stroke-linejoin="miter" d="M 2119.664427 1151.0641 C 2255.664052 1040.377109 2561.883988 985.11634 2681.601191 1215.148945 C 2874.948061 985.11634 3079.333862 1071.151071 3231.50552 1151.0641 " stroke="#708c73" stroke-width="16.57" stroke-opacity="1" stroke-miterlimit="3"/><path stroke-linecap="square" transform="matrix(0.0707723, 0, 0, -0.070829, 10.556884, 389.848978)" fill="none" stroke-linejoin="miter" d="M 2129.378686 939.672353 C 2265.378311 828.930212 2571.543052 773.669442 2691.31545 1003.702047 C 2884.66232 773.669442 3089.048121 859.704174 3241.164585 939.672353 " stroke="#708c73" stroke-width="16.57" stroke-opacity="1" stroke-miterlimit="3"/><path stroke-linecap="square" transform="matrix(0.0707723, 0, 0, -0.070829, 10.556884, 389.848978)" fill="none" stroke-linejoin="miter" d="M 2129.378686 1355.175985 C 2265.378311 1244.433844 2571.543052 1189.228224 2691.31545 1419.260829 C 2884.66232 1189.228224 3089.048121 1275.207805 3241.164585 1355.175985 " stroke="#708c73" stroke-width="16.57" stroke-opacity="1" stroke-miterlimit="3"/></svg>