<svg xmlns="http://www.w3.org/2000/svg" xmlns:xlink="http://www.w3.org/1999/xlink" width="500" zoomAndPan="magnify" viewBox="0 0 375 374.999991" height="500" preserveAspectRatio="xMidYMid meet" version="1.0"><defs><clipPath id="280b23d655"><path d="M 167 64.34375 L 195 64.34375 L 195 173 L 167 173 Z M 167 64.34375 " clip-rule="nonzero"/></clipPath><clipPath id="3f9495bbba"><path d="M 137 271.199219 L 243.644531 271.199219 L 243.644531 342.847656 L 137 342.847656 Z M 137 271.199219 " clip-rule="nonzero"/></clipPath><clipPath id="d978a21103"><path d="M 121.320312 144 L 198 144 L 198 253 L 121.320312 253 Z M 121.320312 144 " clip-rule="nonzero"/></clipPath><clipPath id="0620ab5482"><path d="M 168 64.34375 L 191 64.34375 L 191 130 L 168 130 Z M 168 64.34375 " clip-rule="nonzero"/></clipPath><clipPath id="a58c1d5e41"><path d="M 189.464844 124.28125 L 253.320312 124.28125 L 253.320312 239.796875 L 189.464844 239.796875 Z M 189.464844 124.28125 " clip-rule="nonzero"/></clipPath><clipPath id="c7ce68a9a7"><path d="M 121.320312 144 L 175 144 L 175 253 L 121.320312 253 Z M 121.320312 144 " clip-rule="nonzero"/></clipPath></defs><path fill="#8ab157" d="M 207.355469 143.707031 C 210.601562 135.074219 210.40625 133.546875 211.070312 115.210938 C 211.746094 96.558594 214.449219 98.933594 215.800781 103.679688 C 217.152344 108.429688 224.921875 153.542969 225.9375 163.035156 C 226.949219 172.535156 221.882812 201.023438 209.722656 210.859375 C 197.558594 220.695312 191.140625 186.777344 207.355469 143.707031 " fill-opacity="1" fill-rule="nonzero"/><g clip-path="url(#280b23d655)"><path fill="#5baf66" d="M 174.921875 131.492188 C 174.691406 117.550781 177.289062 109.785156 175.933594 101.304688 C 174.582031 92.828125 169.515625 71.800781 168.164062 68.746094 C 166.8125 65.695312 169.851562 62.640625 172.21875 67.050781 C 174.582031 71.460938 187.085938 91.132812 191.816406 113.519531 C 196.542969 135.902344 195.53125 172.867188 187.085938 172.195312 C 178.640625 171.515625 175.261719 152.183594 174.921875 131.496094 " fill-opacity="1" fill-rule="nonzero"/></g><g clip-path="url(#3f9495bbba)"><path fill="#dd9f36" d="M 190.222656 274.050781 C 150.878906 274.050781 141.03125 272.382812 137.429688 271.453125 L 147.132812 333.378906 C 147.132812 333.378906 147.363281 340.101562 152.898438 340.605469 C 158.441406 341.109375 166.515625 342.847656 190.519531 342.847656 C 214.519531 342.847656 222.597656 341.109375 228.132812 340.605469 C 233.675781 340.101562 233.910156 333.378906 233.910156 333.378906 L 243.640625 271.285156 C 240.550781 272.164062 232.078125 274.050781 190.222656 274.050781 " fill-opacity="1" fill-rule="nonzero"/></g><path fill="#c99136" d="M 163.808594 335.097656 L 153.394531 273.28125 C 143.410156 272.726562 139.441406 271.972656 137.429688 271.453125 L 147.132812 333.378906 C 147.132812 333.378906 147.363281 340.101562 152.898438 340.605469 C 156.023438 340.890625 159.953125 341.5625 167.085938 342.101562 C 164.035156 339.71875 163.808594 335.097656 163.808594 335.097656 " fill-opacity="1" fill-rule="nonzero"/><path fill="#b87d33" d="M 152.652344 336.523438 L 142.367188 272.34375 C 139.910156 272.023438 138.425781 271.710938 137.429688 271.453125 L 147.132812 333.378906 C 147.132812 333.378906 147.363281 340.101562 152.898438 340.605469 C 153.175781 340.628906 153.464844 340.660156 153.746094 340.691406 C 152.746094 338.632812 152.652344 336.523438 152.652344 336.523438 " fill-opacity="1" fill-rule="nonzero"/><path fill="#c37928" d="M 190.484375 243.195312 C 164.214844 243.125 130.863281 246.769531 130.863281 250.390625 C 130.867188 250.390625 131.5 265.785156 131.632812 267.117188 C 131.765625 268.453125 133.226562 270.105469 135.683594 270.878906 C 138.132812 271.648438 142.285156 274.855469 190.222656 274.855469 C 238.160156 274.855469 242.308594 271.648438 244.761719 270.878906 C 247.214844 270.105469 248.683594 268.453125 248.8125 267.117188 C 248.941406 265.785156 249.878906 250.390625 249.878906 250.390625 C 249.878906 246.769531 216.753906 243.261719 190.484375 243.195312 " fill-opacity="1" fill-rule="nonzero"/><path fill="#b66d29" d="M 153.414062 268.671875 C 153.21875 267.035156 152.15625 253.175781 151.558594 245.328125 C 139.558594 246.691406 130.867188 248.539062 130.867188 250.390625 C 130.867188 250.390625 131.5 265.785156 131.632812 267.117188 C 131.765625 268.453125 133.226562 270.105469 135.683594 270.878906 C 137.382812 271.414062 139.914062 273.117188 157.300781 274.117188 C 155.039062 272.738281 153.636719 270.542969 153.414062 268.671875 " fill-opacity="1" fill-rule="nonzero"/><path fill="#a8621e" d="M 247.085938 268.753906 C 244.5625 269.539062 240.28125 272.847656 190.894531 272.847656 C 141.503906 272.847656 137.226562 269.539062 134.703125 268.753906 C 133.371094 268.335938 132.332031 267.65625 131.617188 266.917969 C 131.621094 267 131.628906 267.074219 131.632812 267.117188 C 131.765625 268.453125 133.226562 270.105469 135.683594 270.878906 C 138.132812 271.648438 142.285156 274.855469 190.222656 274.855469 C 238.160156 274.855469 242.308594 271.648438 244.761719 270.878906 C 246.601562 270.304688 247.878906 269.226562 248.464844 268.167969 C 248.039062 268.390625 247.589844 268.59375 247.085938 268.753906 " fill-opacity="1" fill-rule="nonzero"/><path fill="#a05a28" d="M 190.484375 258.074219 C 211.59375 258.074219 249.878906 254.007812 249.878906 250.390625 C 249.878906 246.769531 216.753906 243.261719 190.484375 243.195312 C 164.214844 243.125 130.863281 246.769531 130.863281 250.390625 C 130.867188 254.007812 169.378906 258.074219 190.484375 258.074219 " fill-opacity="1" fill-rule="nonzero"/><path fill="#6a2f17" d="M 190.480469 256.582031 C 170.464844 256.582031 135.375 252.695312 135.375 250.375 C 135.375 248.046875 165.144531 244.6875 189.765625 244.6875 L 190.476562 244.6875 C 215.382812 244.753906 245.375 248.210938 245.375 250.375 C 245.375 252.542969 210.421875 256.582031 190.480469 256.582031 " fill-opacity="1" fill-rule="nonzero"/><path fill="#79a54e" d="M 217.234375 171.042969 C 216.828125 158.410156 213.566406 145.476562 211.070312 136.921875 C 210.75 135.828125 210.433594 134.75 210.109375 133.683594 C 210.613281 129.859375 210.71875 124.863281 211.070312 115.210938 C 211.414062 105.636719 212.296875 101.609375 213.253906 100.59375 C 215.191406 112.5 219.347656 141.800781 218.488281 169.269531 C 218.078125 169.851562 217.660156 170.441406 217.234375 171.042969 " fill-opacity="1" fill-rule="nonzero"/><g clip-path="url(#d978a21103)"><path fill="#317697" d="M 123.90625 153.199219 C 124.894531 148.695312 126.273438 143.363281 128.636719 144.722656 C 131.003906 146.078125 129.867188 153.855469 132.351562 161.34375 C 138.433594 179.65625 145.867188 185.421875 150.597656 190.507812 C 155.328125 195.597656 173.910156 203.398438 179.992188 209.503906 C 186.074219 215.605469 202.625 243.078125 195.867188 247.828125 C 189.113281 252.578125 173.910156 256.304688 158.367188 248.167969 C 142.828125 240.027344 128.976562 225.441406 123.90625 198.3125 C 120.730469 181.3125 120.191406 170.15625 123.90625 153.199219 " fill-opacity="1" fill-rule="nonzero"/></g><path fill="#344464" d="M 144.175781 200.34375 C 141.5 191.273438 139.449219 183.050781 139.785156 167.105469 C 140.121094 151.164062 138.792969 132.671875 141.8125 131.15625 C 143.164062 130.476562 151.949219 157.605469 156.679688 167.105469 C 161.40625 176.601562 184.382812 229.171875 169.851562 226.121094 C 155.328125 223.070312 149.582031 218.65625 144.175781 200.34375 " fill-opacity="1" fill-rule="nonzero"/><path fill="#344464" d="M 151.949219 175.585938 C 150.957031 168.800781 152.960938 146.757812 151.949219 133.191406 C 150.933594 119.621094 149.582031 96.558594 151.609375 100.96875 C 153.636719 105.378906 160.058594 124.371094 164.109375 132.171875 C 168.164062 139.972656 181 164.054688 182.695312 177.621094 C 184.382812 191.1875 187.417969 207.128906 179.992188 209.503906 C 172.554688 211.878906 157.691406 214.929688 151.949219 175.585938 " fill-opacity="1" fill-rule="nonzero"/><path fill="#2c3954" d="M 172.253906 182.941406 C 168.902344 178.140625 165.652344 172.089844 163.609375 166.085938 C 162.9375 164.023438 162.414062 161.96875 162.082031 159.984375 C 161.503906 156.496094 160.628906 151.085938 159.34375 147.394531 C 158.476562 144.671875 157.410156 142.6875 156.113281 142.6875 C 155.671875 142.6875 155.234375 143.179688 154.816406 144.03125 C 154.738281 144.585938 154.664062 145.167969 154.59375 145.78125 C 153.414062 149.050781 152.414062 155.222656 151.8125 161.667969 C 151.984375 155.777344 152.242188 149.023438 152.242188 142.773438 C 152.242188 139.347656 152.164062 136.078125 151.949219 133.191406 C 151.058594 121.257812 149.90625 102 151.015625 100.515625 C 151.988281 108.96875 158.992188 141.414062 171.921875 173.765625 C 172.011719 176.890625 172.117188 179.972656 172.253906 182.941406 " fill-opacity="1" fill-rule="nonzero"/><path fill="#2b6851" d="M 175.261719 204.757812 C 171.5625 195.84375 172.21875 171.175781 171.207031 152.859375 C 170.191406 134.542969 166.136719 109.449219 163.773438 102.664062 C 161.40625 95.878906 159.378906 88.757812 164.109375 91.808594 C 168.839844 94.863281 178.640625 113.519531 181.679688 123.015625 C 184.714844 132.511719 192.648438 165.003906 193.503906 181.011719 C 194.511719 200.007812 183.707031 225.105469 175.261719 204.757812 " fill-opacity="1" fill-rule="nonzero"/><path fill="#245a44" d="M 178.980469 147.921875 C 174.964844 119.796875 166.871094 99.628906 163.050781 91.265625 C 163.363281 91.386719 163.703125 91.546875 164.109375 91.808594 C 168.839844 94.863281 178.640625 113.519531 181.679688 123.015625 C 182.34375 125.089844 183.242188 128.269531 184.246094 132.125 C 182.554688 137.117188 180.71875 142.46875 178.980469 147.921875 " fill-opacity="1" fill-rule="nonzero"/><path fill="#b2afbf" d="M 139.785156 167.105469 C 139.800781 166.457031 139.808594 165.800781 139.820312 165.144531 C 139.808594 165.800781 139.800781 166.457031 139.785156 167.105469 " fill-opacity="1" fill-rule="nonzero"/><path fill="#2c3954" d="M 148.761719 191.589844 C 148.382812 190.988281 148.015625 190.394531 147.664062 189.804688 C 143.550781 182.875 141.5 176.71875 139.792969 173.917969 C 139.765625 172.804688 139.75 171.648438 139.75 170.441406 C 139.75 169.371094 139.761719 168.257812 139.785156 167.105469 C 139.800781 166.457031 139.808594 165.800781 139.820312 165.144531 C 140.015625 150.414062 139.019531 134.222656 141.433594 131.476562 C 142.308594 142.191406 144.398438 169.160156 148.761719 191.589844 " fill-opacity="1" fill-rule="nonzero"/><path fill="#cce3c5" d="M 172.21875 67.050781 C 171.925781 66.503906 171.621094 66.074219 171.320312 65.742188 C 171.621094 66.074219 171.925781 66.503906 172.21875 67.050781 " fill-opacity="1" fill-rule="nonzero"/><g clip-path="url(#0620ab5482)"><path fill="#4ba55d" d="M 185.097656 129.625 C 182.21875 99.050781 173.101562 75.160156 168.738281 65.15625 C 169 64.960938 169.308594 64.847656 169.640625 64.847656 C 170.160156 64.847656 170.742188 65.113281 171.320312 65.742188 C 171.621094 66.074219 171.925781 66.503906 172.21875 67.050781 C 174.421875 71.160156 185.425781 88.519531 190.742188 108.980469 C 190.324219 113.679688 188 121.023438 185.097656 129.625 " fill-opacity="1" fill-rule="nonzero"/></g><path fill="#598e72" d="M 177.621094 197.972656 C 173.570312 188.472656 172.21875 169.820312 177.964844 151.164062 C 183.707031 132.511719 191.140625 114.535156 190.800781 107.074219 C 190.464844 99.609375 189.789062 95.539062 197.222656 106.054688 C 204.652344 116.570312 207.917969 126.097656 211.070312 136.921875 C 215.125 150.828125 221.207031 176.265625 213.773438 193.222656 C 206.339844 210.179688 197 243.363281 177.621094 197.972656 " fill-opacity="1" fill-rule="nonzero"/><path fill="#b7c9b8" d="M 190.808594 107.59375 C 190.808594 107.414062 190.804688 107.238281 190.800781 107.074219 C 190.625 103.199219 190.359375 100.242188 191.179688 99.757812 C 190.359375 100.242188 190.625 103.199219 190.800781 107.074219 C 190.804688 107.238281 190.808594 107.414062 190.808594 107.59375 " fill-opacity="1" fill-rule="nonzero"/><path fill="#467c61" d="M 191.339844 205.769531 C 187.15625 199.472656 180.191406 192.449219 176.046875 187.796875 C 175.597656 187.292969 175.144531 186.753906 174.6875 186.195312 C 174.316406 183.273438 174.109375 180.097656 174.109375 176.746094 C 174.109375 168.871094 175.234375 160.019531 177.964844 151.164062 C 183.578125 132.929688 190.804688 115.34375 190.808594 107.59375 C 190.808594 107.414062 190.804688 107.238281 190.800781 107.074219 C 190.625 103.199219 190.359375 100.242188 191.179688 99.757812 C 191.257812 99.714844 191.347656 99.691406 191.445312 99.691406 C 191.496094 99.691406 191.546875 99.699219 191.609375 99.710938 C 197.304688 116.214844 211.683594 166.496094 191.339844 205.773438 " fill-opacity="1" fill-rule="nonzero"/><path fill="#246058" d="M 151.273438 177.285156 C 150.714844 165.765625 153.300781 143.363281 156.339844 143.363281 C 159.378906 143.363281 161.132812 154.265625 162.082031 159.984375 C 163.773438 170.15625 170.53125 182.027344 176.273438 188.472656 C 182.011719 194.921875 193.171875 205.933594 194.855469 213.234375 C 196.882812 222.054688 195.53125 228.835938 188.09375 228.15625 C 180.667969 227.476562 165.460938 221.035156 159.042969 208.828125 C 152.625 196.613281 151.949219 191.1875 151.273438 177.285156 " fill-opacity="1" fill-rule="nonzero"/><path fill="#243142" d="M 172.269531 183.324219 C 168.871094 178.390625 165.59375 172.1875 163.609375 166.085938 C 165.652344 172.089844 168.902344 178.140625 172.253906 182.941406 C 172.261719 183.070312 172.265625 183.195312 172.269531 183.324219 " fill-opacity="1" fill-rule="nonzero"/><path fill="#215441" d="M 174.75 186.664062 C 173.925781 185.640625 173.09375 184.519531 172.269531 183.324219 C 172.265625 183.195312 172.261719 183.070312 172.253906 182.941406 C 173.066406 184.101562 173.882812 185.195312 174.6875 186.195312 C 174.707031 186.351562 174.726562 186.507812 174.75 186.664062 " fill-opacity="1" fill-rule="nonzero"/><path fill="#3d6e59" d="M 194.289062 211.453125 C 193.621094 209.742188 192.554688 207.886719 191.242188 205.96875 C 191.28125 205.90625 191.308594 205.839844 191.339844 205.769531 C 192.664062 207.761719 193.710938 209.679688 194.300781 211.421875 C 194.300781 211.429688 194.296875 211.441406 194.289062 211.453125 " fill-opacity="1" fill-rule="nonzero"/><path fill="#33624e" d="M 191.242188 205.96875 C 187.027344 199.800781 180.308594 193.003906 176.273438 188.472656 C 175.769531 187.910156 175.261719 187.304688 174.75 186.664062 C 174.726562 186.507812 174.707031 186.351562 174.6875 186.195312 C 175.144531 186.753906 175.597656 187.292969 176.046875 187.796875 C 180.191406 192.449219 187.15625 199.472656 191.339844 205.769531 C 191.308594 205.839844 191.28125 205.90625 191.242188 205.96875 " fill-opacity="1" fill-rule="nonzero"/><path fill="#243142" d="M 159.34375 147.394531 C 158.519531 145.03125 157.527344 143.363281 156.339844 143.363281 C 155.730469 143.363281 155.144531 144.253906 154.59375 145.78125 C 154.664062 145.167969 154.738281 144.585938 154.816406 144.03125 C 155.234375 143.179688 155.671875 142.6875 156.113281 142.6875 C 157.410156 142.6875 158.476562 144.671875 159.34375 147.394531 " fill-opacity="1" fill-rule="nonzero"/><path fill="#1d4f45" d="M 189.882812 227.167969 C 187.019531 224.527344 183.464844 222.042969 179.578125 219.417969 C 154.523438 187.238281 153.003906 159.726562 154.59375 145.78125 C 155.144531 144.253906 155.730469 143.363281 156.339844 143.363281 C 157.527344 143.363281 158.519531 145.03125 159.34375 147.394531 C 160.507812 151.046875 161.3125 156.027344 161.859375 159.304688 C 162.222656 161.511719 162.828125 163.792969 163.609375 166.085938 C 165.59375 172.1875 168.871094 178.390625 172.269531 183.324219 C 173.09375 184.519531 173.925781 185.640625 174.75 186.664062 C 175.261719 187.304688 175.769531 187.910156 176.273438 188.472656 C 180.308594 193.003906 187.027344 199.800781 191.242188 205.96875 C 192.554688 207.886719 193.621094 209.742188 194.289062 211.453125 C 192.324219 216.167969 190.898438 220.433594 190.351562 223.75 C 190.347656 223.761719 190.347656 223.769531 190.339844 223.78125 L 190.339844 223.820312 C 190.335938 223.828125 190.335938 223.839844 190.335938 223.84375 C 190.328125 223.851562 190.328125 223.851562 190.328125 223.855469 L 190.328125 223.882812 C 190.328125 223.882812 190.328125 223.890625 190.324219 223.890625 L 190.324219 223.929688 C 190.320312 223.941406 190.320312 223.945312 190.3125 223.960938 C 190.128906 225.105469 189.984375 226.175781 189.882812 227.167969 " fill-opacity="1" fill-rule="nonzero"/><g clip-path="url(#a58c1d5e41)"><path fill="#cbe257" d="M 190.351562 223.75 C 192.375 211.535156 206.230469 186.4375 215.6875 173.214844 C 225.144531 159.984375 231.570312 150.484375 233.929688 138.613281 C 235.1875 132.292969 232.578125 121.65625 234.941406 125.386719 C 237.3125 129.121094 241.699219 134.207031 245.757812 149.128906 C 249.8125 164.054688 258.257812 188.8125 249.472656 207.128906 C 240.691406 225.441406 209.605469 237.65625 204.199219 238.335938 C 198.792969 239.007812 186.738281 245.496094 190.351562 223.75 " fill-opacity="1" fill-rule="nonzero"/></g><path fill="#1c4e3a" d="M 190.324219 223.929688 L 190.324219 223.921875 L 190.324219 223.929688 M 190.324219 223.890625 C 190.328125 223.890625 190.328125 223.882812 190.328125 223.882812 L 190.324219 223.890625 M 190.328125 223.855469 C 190.328125 223.851562 190.328125 223.851562 190.335938 223.84375 C 190.335938 223.851562 190.328125 223.855469 190.328125 223.855469 M 190.339844 223.820312 L 190.339844 223.804688 L 190.339844 223.820312 M 190.339844 223.78125 C 190.347656 223.769531 190.347656 223.761719 190.351562 223.75 C 190.347656 223.761719 190.347656 223.769531 190.339844 223.78125 " fill-opacity="1" fill-rule="nonzero"/><path fill="#e0ed96" d="M 233.929688 138.613281 C 234.1875 137.324219 234.285156 135.855469 234.292969 134.359375 C 234.285156 135.855469 234.1875 137.324219 233.929688 138.613281 " fill-opacity="1" fill-rule="nonzero"/><path fill="#b3d73f" d="M 193.972656 231.757812 C 192.859375 230.152344 191.480469 228.640625 189.882812 227.167969 C 189.984375 226.175781 190.128906 225.105469 190.3125 223.960938 C 190.320312 223.949219 190.320312 223.941406 190.324219 223.929688 L 190.324219 223.890625 L 190.328125 223.882812 L 190.328125 223.855469 C 190.328125 223.855469 190.335938 223.851562 190.335938 223.84375 C 190.335938 223.839844 190.335938 223.828125 190.339844 223.820312 L 190.339844 223.78125 C 190.347656 223.769531 190.347656 223.761719 190.351562 223.75 C 192.375 211.535156 206.230469 186.4375 215.6875 173.214844 C 225.144531 159.984375 231.570312 150.484375 233.929688 138.613281 C 234.1875 137.324219 234.285156 135.855469 234.292969 134.359375 C 234.316406 130.527344 233.78125 126.5625 233.941406 125.15625 C 237.332031 131.519531 243.746094 148.523438 237.59375 178.699219 C 235.988281 172.65625 234.417969 168.753906 233.367188 168.121094 C 233.304688 168.082031 233.246094 168.066406 233.175781 168.066406 C 231.601562 168.066406 229.738281 179.214844 227.3125 187.886719 C 227.3125 187.886719 227.3125 187.894531 227.308594 187.894531 C 227.308594 187.910156 227.300781 187.925781 227.296875 187.9375 L 227.296875 187.945312 C 227.289062 187.957031 227.289062 187.972656 227.285156 187.984375 C 227.285156 187.988281 227.285156 187.996094 227.277344 187.996094 L 227.277344 188.011719 C 227.273438 188.015625 227.273438 188.027344 227.273438 188.035156 C 227.269531 188.039062 227.269531 188.039062 227.269531 188.046875 C 227.167969 188.398438 227.066406 188.742188 226.964844 189.082031 C 226.964844 189.097656 226.960938 189.109375 226.953125 189.128906 L 226.953125 189.132812 C 226.953125 189.140625 226.949219 189.144531 226.949219 189.148438 C 224.246094 198.3125 212.589844 210.050781 207.015625 216.285156 C 200.675781 223.382812 196.625 227.476562 193.972656 231.757812 " fill-opacity="1" fill-rule="nonzero"/><path fill="#519432" d="M 207.015625 216.285156 C 212.589844 210.050781 224.246094 198.3125 226.949219 189.148438 C 229.652344 179.992188 231.679688 167.105469 233.367188 168.121094 C 235.058594 169.140625 238.097656 178.636719 240.460938 191.863281 C 242.828125 205.09375 247.136719 222.300781 234.378906 234.261719 C 213.773438 253.59375 200.597656 249.527344 195.867188 249.183594 C 191.140625 248.847656 189.113281 243.757812 191.476562 236.972656 C 193.84375 230.191406 198.234375 226.121094 207.015625 216.285156 " fill-opacity="1" fill-rule="nonzero"/><path fill="#8cbd3b" d="M 226.949219 189.148438 C 226.949219 189.144531 226.953125 189.140625 226.953125 189.132812 C 226.953125 189.140625 226.949219 189.144531 226.949219 189.148438 M 226.953125 189.128906 C 226.960938 189.109375 226.964844 189.097656 226.964844 189.082031 C 226.964844 189.097656 226.960938 189.109375 226.953125 189.128906 M 226.964844 189.082031 C 227.066406 188.742188 227.167969 188.398438 227.269531 188.046875 C 227.167969 188.398438 227.066406 188.742188 226.964844 189.082031 M 227.269531 188.046875 C 227.269531 188.039062 227.269531 188.039062 227.273438 188.035156 C 227.269531 188.039062 227.269531 188.039062 227.269531 188.046875 M 227.277344 188.011719 L 227.277344 188.007812 L 227.277344 188.011719 M 227.277344 187.996094 C 227.285156 187.996094 227.285156 187.988281 227.285156 187.984375 C 227.285156 187.988281 227.277344 187.996094 227.277344 187.996094 M 227.296875 187.945312 L 227.296875 187.9375 L 227.296875 187.945312 M 227.308594 187.894531 C 227.3125 187.894531 227.3125 187.886719 227.3125 187.886719 C 227.3125 187.886719 227.3125 187.894531 227.308594 187.894531 " fill-opacity="1" fill-rule="nonzero"/><path fill="#438835" d="M 196.859375 243.351562 C 197.402344 238.800781 196.261719 235.078125 193.972656 231.757812 C 196.625 227.476562 200.675781 223.382812 207.015625 216.285156 C 212.589844 210.050781 224.246094 198.3125 226.949219 189.148438 C 226.949219 189.144531 226.953125 189.140625 226.953125 189.132812 L 226.953125 189.128906 C 226.960938 189.109375 226.964844 189.097656 226.964844 189.082031 C 227.066406 188.742188 227.167969 188.398438 227.269531 188.046875 C 227.269531 188.039062 227.269531 188.039062 227.273438 188.035156 C 227.273438 188.027344 227.273438 188.015625 227.277344 188.011719 L 227.277344 187.996094 C 227.277344 187.996094 227.285156 187.988281 227.285156 187.984375 C 227.289062 187.972656 227.289062 187.957031 227.296875 187.945312 L 227.296875 187.9375 C 227.300781 187.925781 227.308594 187.910156 227.308594 187.894531 C 227.3125 187.894531 227.3125 187.886719 227.3125 187.886719 C 229.472656 180.148438 231.195312 170.453125 232.652344 168.445312 C 235.332031 182.410156 242.015625 234.003906 196.859375 243.351562 " fill-opacity="1" fill-rule="nonzero"/><path fill="#bacad6" d="M 123.90625 153.199219 C 123.972656 152.902344 124.039062 152.59375 124.109375 152.292969 C 124.042969 152.59375 123.972656 152.902344 123.90625 153.199219 " fill-opacity="1" fill-rule="nonzero"/><path fill="#542b1a" d="M 158.910156 248.445312 C 158.902344 248.445312 158.894531 248.4375 158.890625 248.433594 C 158.894531 248.4375 158.902344 248.445312 158.910156 248.445312 M 158.871094 248.429688 C 158.703125 248.34375 158.535156 248.253906 158.367188 248.171875 C 157.332031 247.625 156.308594 247.058594 155.292969 246.453125 C 156.308594 247.058594 157.332031 247.625 158.367188 248.171875 C 158.535156 248.253906 158.703125 248.34375 158.871094 248.429688 " fill-opacity="1" fill-rule="nonzero"/><g clip-path="url(#c7ce68a9a7)"><path fill="#2c6b89" d="M 174.976562 252.859375 C 169.921875 252.554688 164.445312 251.25 158.910156 248.445312 C 158.902344 248.445312 158.894531 248.4375 158.890625 248.433594 C 158.882812 248.433594 158.875 248.429688 158.871094 248.429688 C 158.703125 248.34375 158.535156 248.253906 158.367188 248.171875 C 157.332031 247.625 156.308594 247.058594 155.292969 246.453125 C 141.023438 238.03125 128.636719 223.636719 123.90625 198.3125 C 122.257812 189.480469 121.320312 182.226562 121.320312 174.917969 C 121.320312 168.15625 122.121094 161.347656 123.90625 153.199219 C 123.972656 152.902344 124.042969 152.59375 124.109375 152.292969 C 124.96875 148.511719 126.125 144.523438 127.90625 144.523438 C 128.089844 144.523438 128.28125 144.5625 128.480469 144.660156 C 127.140625 164.347656 125.917969 229.417969 166.082031 248.160156 C 169.082031 250.402344 172.085938 251.914062 174.976562 252.859375 " fill-opacity="1" fill-rule="nonzero"/></g><path fill="#2c6654" d="M 156.453125 237.992188 C 146.660156 224.070312 142.488281 214.472656 139.785156 205.882812 C 137.082031 197.292969 134.382812 173.78125 137.535156 172.417969 C 140.6875 171.066406 142.429688 184.402344 152.851562 197.292969 C 172.21875 221.257812 203.300781 224.425781 195.867188 247.828125 C 193.726562 254.578125 172.671875 261.054688 156.453125 237.992188 " fill-opacity="1" fill-rule="nonzero"/><path fill="#fefcf7" d="M 232.183594 183.726562 C 232.183594 183.070312 232.714844 182.539062 233.367188 182.539062 C 234.019531 182.539062 234.550781 183.070312 234.550781 183.726562 C 234.550781 184.382812 234.019531 184.910156 233.367188 184.910156 C 232.714844 184.910156 232.183594 184.382812 232.183594 183.726562 " fill-opacity="1" fill-rule="nonzero"/><path fill="#2c3d51" d="M 153.394531 197.953125 C 153.390625 197.953125 153.390625 197.949219 153.386719 197.949219 C 153.390625 197.953125 153.390625 197.953125 153.394531 197.953125 M 153.363281 197.921875 C 153.363281 197.921875 153.359375 197.914062 153.359375 197.910156 C 153.359375 197.914062 153.363281 197.921875 153.363281 197.921875 M 153.339844 197.890625 C 153.332031 197.886719 153.332031 197.882812 153.328125 197.875 C 153.332031 197.882812 153.332031 197.886719 153.339844 197.890625 M 153.308594 197.859375 C 153.308594 197.851562 153.304688 197.847656 153.300781 197.84375 C 153.304688 197.847656 153.304688 197.851562 153.308594 197.859375 M 153.285156 197.824219 C 153.28125 197.820312 153.277344 197.8125 153.269531 197.808594 L 153.285156 197.824219 M 153.257812 197.792969 C 153.253906 197.785156 153.246094 197.78125 153.246094 197.773438 L 153.257812 197.792969 M 153.230469 197.757812 L 153.214844 197.742188 L 153.230469 197.757812 M 153.203125 197.722656 C 153.199219 197.71875 153.195312 197.710938 153.1875 197.707031 C 153.195312 197.710938 153.195312 197.71875 153.203125 197.722656 M 153.175781 197.691406 C 153.15625 197.667969 153.136719 197.644531 153.117188 197.625 C 153.136719 197.644531 153.15625 197.667969 153.175781 197.691406 M 153.109375 197.613281 C 153.101562 197.601562 153.097656 197.59375 153.09375 197.589844 C 153.097656 197.59375 153.101562 197.601562 153.109375 197.613281 M 153.082031 197.578125 C 153.078125 197.574219 153.070312 197.5625 153.066406 197.554688 C 153.070312 197.5625 153.078125 197.574219 153.082031 197.578125 M 153.054688 197.542969 C 153.046875 197.539062 153.042969 197.535156 153.039062 197.523438 C 153.042969 197.527344 153.046875 197.539062 153.054688 197.542969 M 153.027344 197.511719 C 153.023438 197.503906 153.015625 197.5 153.011719 197.488281 C 153.019531 197.5 153.023438 197.503906 153.027344 197.511719 M 153 197.476562 C 152.992188 197.472656 152.988281 197.464844 152.984375 197.460938 C 152.988281 197.464844 152.996094 197.472656 153 197.476562 M 152.972656 197.445312 C 152.96875 197.4375 152.964844 197.433594 152.960938 197.425781 C 152.964844 197.433594 152.96875 197.4375 152.972656 197.445312 M 152.945312 197.410156 C 152.9375 197.40625 152.933594 197.398438 152.929688 197.394531 C 152.933594 197.398438 152.941406 197.40625 152.945312 197.410156 M 152.917969 197.375 C 152.914062 197.371094 152.910156 197.363281 152.90625 197.359375 C 152.910156 197.363281 152.914062 197.371094 152.917969 197.375 M 152.890625 197.34375 L 152.875 197.324219 L 152.890625 197.34375 M 152.851562 197.292969 C 151.308594 195.386719 149.957031 193.46875 148.761719 191.589844 C 149.957031 193.46875 151.308594 195.386719 152.851562 197.292969 " fill-opacity="1" fill-rule="nonzero"/><path fill="#263346" d="M 148.761719 191.589844 C 148.382812 190.988281 148.015625 190.394531 147.664062 189.804688 C 148.015625 190.394531 148.382812 190.988281 148.761719 191.589844 " fill-opacity="1" fill-rule="nonzero"/><path fill="#245746" d="M 186.882812 243.6875 C 153.210938 243.6875 141.269531 189.578125 138.328125 172.394531 C 140.46875 173.164062 142.335938 180.835938 147.664062 189.804688 C 148.015625 190.394531 148.382812 190.988281 148.761719 191.589844 C 149.957031 193.46875 151.308594 195.386719 152.851562 197.292969 C 152.859375 197.304688 152.867188 197.316406 152.875 197.324219 L 152.890625 197.34375 C 152.894531 197.347656 152.898438 197.347656 152.90625 197.359375 C 152.910156 197.363281 152.914062 197.371094 152.917969 197.375 L 152.929688 197.394531 C 152.933594 197.398438 152.9375 197.40625 152.945312 197.410156 L 152.960938 197.425781 C 152.964844 197.433594 152.96875 197.4375 152.972656 197.445312 C 152.976562 197.449219 152.980469 197.453125 152.984375 197.460938 C 152.988281 197.464844 152.992188 197.472656 153 197.476562 C 153.003906 197.484375 153.007812 197.488281 153.011719 197.488281 C 153.015625 197.5 153.023438 197.503906 153.027344 197.511719 C 153.03125 197.515625 153.035156 197.523438 153.039062 197.523438 C 153.042969 197.535156 153.046875 197.539062 153.054688 197.542969 C 153.058594 197.550781 153.0625 197.550781 153.066406 197.554688 C 153.070312 197.5625 153.078125 197.574219 153.082031 197.578125 C 153.085938 197.578125 153.085938 197.582031 153.09375 197.589844 C 153.097656 197.59375 153.101562 197.601562 153.109375 197.613281 C 153.113281 197.613281 153.113281 197.617188 153.117188 197.625 C 153.136719 197.644531 153.15625 197.667969 153.175781 197.691406 C 153.179688 197.695312 153.1875 197.703125 153.1875 197.707031 C 153.195312 197.710938 153.199219 197.71875 153.203125 197.722656 C 153.207031 197.730469 153.210938 197.734375 153.214844 197.742188 L 153.230469 197.757812 C 153.234375 197.761719 153.238281 197.769531 153.246094 197.773438 C 153.246094 197.78125 153.253906 197.785156 153.257812 197.792969 C 153.261719 197.796875 153.265625 197.800781 153.269531 197.808594 C 153.277344 197.8125 153.28125 197.820312 153.285156 197.824219 C 153.289062 197.832031 153.292969 197.835938 153.300781 197.839844 C 153.304688 197.847656 153.308594 197.851562 153.308594 197.859375 L 153.328125 197.875 C 153.332031 197.882812 153.332031 197.886719 153.339844 197.890625 C 153.34375 197.898438 153.351562 197.902344 153.359375 197.910156 C 153.359375 197.914062 153.363281 197.921875 153.363281 197.921875 C 153.375 197.929688 153.378906 197.9375 153.386719 197.949219 C 153.390625 197.949219 153.390625 197.953125 153.394531 197.953125 C 171.097656 219.28125 197.976562 223.917969 196.949219 242.1875 C 193.394531 243.210938 190.046875 243.6875 186.882812 243.6875 " fill-opacity="1" fill-rule="nonzero"/><path fill="#fefcf7" d="M 233.03125 194.746094 C 233.03125 193.90625 233.707031 193.222656 234.550781 193.222656 C 235.390625 193.222656 236.070312 193.90625 236.070312 194.746094 C 236.070312 195.59375 235.390625 196.277344 234.550781 196.277344 C 233.707031 196.277344 233.03125 195.59375 233.03125 194.746094 " fill-opacity="1" fill-rule="nonzero"/><path fill="#fefcf7" d="M 231.847656 206.617188 C 231.847656 205.589844 232.679688 204.757812 233.707031 204.757812 C 234.730469 204.757812 235.5625 205.589844 235.5625 206.617188 C 235.5625 207.648438 234.730469 208.484375 233.707031 208.484375 C 232.679688 208.484375 231.847656 207.648438 231.847656 206.617188 " fill-opacity="1" fill-rule="nonzero"/><path fill="#fefcf7" d="M 228.132812 217.640625 C 228.132812 216.609375 228.964844 215.773438 229.988281 215.773438 C 231.015625 215.773438 231.847656 216.609375 231.847656 217.640625 C 231.847656 218.675781 231.015625 219.507812 229.988281 219.507812 C 228.964844 219.507812 228.132812 218.675781 228.132812 217.640625 " fill-opacity="1" fill-rule="nonzero"/><path fill="#fefcf7" d="M 223.0625 227.140625 C 223.0625 226.015625 223.972656 225.105469 225.089844 225.105469 C 226.210938 225.105469 227.117188 226.015625 227.117188 227.140625 C 227.117188 228.261719 226.210938 229.171875 225.089844 229.171875 C 223.972656 229.171875 223.0625 228.261719 223.0625 227.140625 " fill-opacity="1" fill-rule="nonzero"/><path fill="#fefcf7" d="M 214.109375 235.445312 C 214.109375 234.324219 215.019531 233.410156 216.136719 233.410156 C 217.257812 233.410156 218.164062 234.324219 218.164062 235.445312 C 218.164062 236.574219 217.257812 237.480469 216.136719 237.480469 C 215.019531 237.480469 214.109375 236.574219 214.109375 235.445312 " fill-opacity="1" fill-rule="nonzero"/><path fill="#fefcf7" d="M 206.171875 239.515625 C 206.171875 238.394531 207.082031 237.480469 208.199219 237.480469 C 209.320312 237.480469 210.226562 238.394531 210.226562 239.515625 C 210.226562 240.640625 209.320312 241.554688 208.199219 241.554688 C 207.082031 241.554688 206.171875 240.640625 206.171875 239.515625 " fill-opacity="1" fill-rule="nonzero"/><path fill="#fefcf7" d="M 184.714844 245.792969 C 184.714844 244.671875 185.625 243.757812 186.742188 243.757812 C 187.867188 243.757812 188.773438 244.671875 188.773438 245.792969 C 188.773438 246.917969 187.867188 247.828125 186.742188 247.828125 C 185.625 247.828125 184.714844 246.917969 184.714844 245.792969 " fill-opacity="1" fill-rule="nonzero"/><path fill="#fefcf7" d="M 173.738281 241.214844 C 173.738281 240.089844 174.648438 239.179688 175.765625 239.179688 C 176.886719 239.179688 177.796875 240.089844 177.796875 241.214844 C 177.796875 242.339844 176.886719 243.246094 175.765625 243.246094 C 174.648438 243.246094 173.738281 242.339844 173.738281 241.214844 " fill-opacity="1" fill-rule="nonzero"/><path fill="#fefcf7" d="M 163.4375 233.921875 C 163.4375 232.800781 164.34375 231.886719 165.460938 231.886719 C 166.582031 231.886719 167.488281 232.800781 167.488281 233.921875 C 167.488281 235.046875 166.582031 235.957031 165.460938 235.957031 C 164.34375 235.957031 163.4375 235.046875 163.4375 233.921875 " fill-opacity="1" fill-rule="nonzero"/><path fill="#fefcf7" d="M 156.507812 226.289062 C 156.507812 225.261719 157.34375 224.425781 158.367188 224.425781 C 159.394531 224.425781 160.226562 225.261719 160.226562 226.289062 C 160.226562 227.320312 159.394531 228.15625 158.367188 228.15625 C 157.34375 228.15625 156.507812 227.320312 156.507812 226.289062 " fill-opacity="1" fill-rule="nonzero"/><path fill="#fefcf7" d="M 149.753906 216.628906 C 149.753906 215.59375 150.585938 214.761719 151.609375 214.761719 C 152.636719 214.761719 153.46875 215.59375 153.46875 216.628906 C 153.46875 217.652344 152.636719 218.488281 151.609375 218.488281 C 150.585938 218.488281 149.753906 217.652344 149.753906 216.628906 " fill-opacity="1" fill-rule="nonzero"/><path fill="#fefcf7" d="M 145.445312 207.378906 C 145.445312 206.539062 146.125 205.855469 146.964844 205.855469 C 147.804688 205.855469 148.484375 206.539062 148.484375 207.378906 C 148.484375 208.226562 147.804688 208.90625 146.964844 208.90625 C 146.125 208.90625 145.445312 208.226562 145.445312 207.378906 " fill-opacity="1" fill-rule="nonzero"/><path fill="#fefcf7" d="M 142.699219 197.886719 C 142.699219 197.207031 143.246094 196.660156 143.921875 196.660156 C 144.601562 196.660156 145.148438 197.207031 145.148438 197.886719 C 145.148438 198.566406 144.601562 199.113281 143.921875 199.113281 C 143.246094 199.113281 142.699219 198.566406 142.699219 197.886719 " fill-opacity="1" fill-rule="nonzero"/><path fill="#fefcf7" d="M 147.386719 236.46875 C 147.386719 235.339844 148.296875 234.429688 149.414062 234.429688 C 150.53125 234.429688 151.441406 235.339844 151.441406 236.46875 C 151.441406 237.589844 150.53125 238.503906 149.414062 238.503906 C 148.296875 238.503906 147.386719 237.589844 147.386719 236.46875 " fill-opacity="1" fill-rule="nonzero"/><path fill="#fefcf7" d="M 139.953125 225.105469 C 139.953125 223.980469 140.863281 223.070312 141.980469 223.070312 C 143.101562 223.070312 144.007812 223.980469 144.007812 225.105469 C 144.007812 226.226562 143.101562 227.140625 141.980469 227.140625 C 140.863281 227.140625 139.953125 226.226562 139.953125 225.105469 " fill-opacity="1" fill-rule="nonzero"/><path fill="#fefcf7" d="M 135.394531 214.589844 C 135.394531 213.464844 136.300781 212.554688 137.421875 212.554688 C 138.539062 212.554688 139.449219 213.464844 139.449219 214.589844 C 139.449219 215.714844 138.539062 216.628906 137.421875 216.628906 C 136.300781 216.628906 135.394531 215.714844 135.394531 214.589844 " fill-opacity="1" fill-rule="nonzero"/><path fill="#fefcf7" d="M 131.847656 203.566406 C 131.847656 202.445312 132.753906 201.53125 133.875 201.53125 C 134.992188 201.53125 135.902344 202.445312 135.902344 203.566406 C 135.902344 204.6875 134.992188 205.601562 133.875 205.601562 C 132.753906 205.601562 131.847656 204.6875 131.847656 203.566406 " fill-opacity="1" fill-rule="nonzero"/><path fill="#fefcf7" d="M 128.976562 193.222656 C 128.976562 192.285156 129.730469 191.527344 130.664062 191.527344 C 131.597656 191.527344 132.351562 192.285156 132.351562 193.222656 C 132.351562 194.15625 131.597656 194.921875 130.664062 194.921875 C 129.730469 194.921875 128.976562 194.15625 128.976562 193.222656 " fill-opacity="1" fill-rule="nonzero"/><path fill="#fefcf7" d="M 127.371094 183.894531 C 127.371094 183.003906 128.089844 182.285156 128.976562 182.285156 C 129.859375 182.285156 130.578125 183.003906 130.578125 183.894531 C 130.578125 184.78125 129.859375 185.503906 128.976562 185.503906 C 128.089844 185.503906 127.371094 184.78125 127.371094 183.894531 " fill-opacity="1" fill-rule="nonzero"/><path fill="#fefcf7" d="M 126.695312 174.058594 C 126.695312 173.167969 127.414062 172.445312 128.300781 172.445312 C 129.183594 172.445312 129.90625 173.167969 129.90625 174.058594 C 129.90625 174.953125 129.183594 175.667969 128.300781 175.667969 C 127.414062 175.667969 126.695312 174.953125 126.695312 174.058594 " fill-opacity="1" fill-rule="nonzero"/><path fill="#fefcf7" d="M 125.933594 163.460938 C 125.933594 162.570312 126.652344 161.847656 127.539062 161.847656 C 128.425781 161.847656 129.144531 162.570312 129.144531 163.460938 C 129.144531 164.347656 128.425781 165.070312 127.539062 165.070312 C 126.652344 165.070312 125.933594 164.347656 125.933594 163.460938 " fill-opacity="1" fill-rule="nonzero"/><path fill="#fefcf7" d="M 154.566406 155.914062 C 154.566406 155.214844 155.132812 154.640625 155.832031 154.640625 C 156.53125 154.640625 157.101562 155.214844 157.101562 155.914062 C 157.101562 156.613281 156.53125 157.1875 155.832031 157.1875 C 155.132812 157.1875 154.566406 156.613281 154.566406 155.914062 " fill-opacity="1" fill-rule="nonzero"/><path fill="#fefcf7" d="M 154.648438 166.429688 C 154.648438 165.675781 155.257812 165.070312 156.003906 165.070312 C 156.75 165.070312 157.351562 165.675781 157.351562 166.429688 C 157.351562 167.179688 156.75 167.785156 156.003906 167.785156 C 155.257812 167.785156 154.648438 167.179688 154.648438 166.429688 " fill-opacity="1" fill-rule="nonzero"/><path fill="#fefcf7" d="M 156.167969 175.429688 C 156.203125 174.535156 156.949219 173.847656 157.835938 173.878906 C 158.71875 173.917969 159.410156 174.671875 159.375 175.5625 C 159.335938 176.449219 158.589844 177.136719 157.703125 177.105469 C 156.820312 177.066406 156.132812 176.3125 156.167969 175.429688 " fill-opacity="1" fill-rule="nonzero"/><path fill="#fefcf7" d="M 158.03125 184.996094 C 158.03125 184.011719 158.824219 183.21875 159.804688 183.21875 C 160.78125 183.21875 161.578125 184.011719 161.578125 184.996094 C 161.578125 185.980469 160.78125 186.777344 159.804688 186.777344 C 158.824219 186.777344 158.03125 185.980469 158.03125 184.996094 " fill-opacity="1" fill-rule="nonzero"/><path fill="#fefcf7" d="M 161.40625 194.746094 C 161.40625 193.625 162.316406 192.714844 163.4375 192.714844 C 164.554688 192.714844 165.460938 193.625 165.460938 194.746094 C 165.460938 195.875 164.554688 196.78125 163.4375 196.78125 C 162.316406 196.78125 161.40625 195.875 161.40625 194.746094 " fill-opacity="1" fill-rule="nonzero"/><path fill="#fefcf7" d="M 166.644531 204.078125 C 166.644531 202.949219 167.554688 202.042969 168.671875 202.042969 C 169.789062 202.042969 170.699219 202.949219 170.699219 204.078125 C 170.699219 205.199219 169.789062 206.113281 168.671875 206.113281 C 167.554688 206.113281 166.644531 205.199219 166.644531 204.078125 " fill-opacity="1" fill-rule="nonzero"/><path fill="#fefcf7" d="M 173.402344 211.535156 C 173.402344 210.414062 174.308594 209.503906 175.429688 209.503906 C 176.546875 209.503906 177.453125 210.414062 177.453125 211.535156 C 177.453125 212.664062 176.546875 213.570312 175.429688 213.570312 C 174.308594 213.570312 173.402344 212.664062 173.402344 211.535156 " fill-opacity="1" fill-rule="nonzero"/><path fill="#fefcf7" d="M 179.648438 219.507812 C 179.648438 218.382812 180.5625 217.472656 181.679688 217.472656 C 182.792969 217.472656 183.707031 218.382812 183.707031 219.507812 C 183.707031 220.632812 182.792969 221.546875 181.679688 221.546875 C 180.5625 221.546875 179.648438 220.632812 179.648438 219.507812 " fill-opacity="1" fill-rule="nonzero"/><path fill="#fefcf7" d="M 175.261719 141.160156 C 175.261719 140.03125 176.167969 139.125 177.289062 139.125 C 178.40625 139.125 179.316406 140.03125 179.316406 141.160156 C 179.316406 142.28125 178.40625 143.195312 177.289062 143.195312 C 176.167969 143.195312 175.261719 142.28125 175.261719 141.160156 " fill-opacity="1" fill-rule="nonzero"/><path fill="#fefcf7" d="M 173.234375 128.269531 C 173.234375 127.242188 174.066406 126.40625 175.09375 126.40625 C 176.117188 126.40625 176.949219 127.242188 176.949219 128.269531 C 176.949219 129.300781 176.117188 130.136719 175.09375 130.136719 C 174.066406 130.136719 173.234375 129.300781 173.234375 128.269531 " fill-opacity="1" fill-rule="nonzero"/><path fill="#fefcf7" d="M 171.035156 117.246094 C 171.035156 116.5 171.640625 115.890625 172.390625 115.890625 C 173.132812 115.890625 173.738281 116.5 173.738281 117.246094 C 173.738281 117.996094 173.132812 118.605469 172.390625 118.605469 C 171.640625 118.605469 171.035156 117.996094 171.035156 117.246094 " fill-opacity="1" fill-rule="nonzero"/><path fill="#fefcf7" d="M 195.53125 124.027344 C 195.53125 123.285156 196.140625 122.675781 196.882812 122.675781 C 197.625 122.675781 198.234375 123.285156 198.234375 124.027344 C 198.234375 124.78125 197.625 125.386719 196.882812 125.386719 C 196.140625 125.386719 195.53125 124.78125 195.53125 124.027344 " fill-opacity="1" fill-rule="nonzero"/><path fill="#fefcf7" d="M 199.019531 137.597656 C 199.019531 136.726562 199.730469 136.019531 200.597656 136.019531 C 201.46875 136.019531 202.171875 136.726562 202.171875 137.597656 C 202.171875 138.46875 201.46875 139.179688 200.597656 139.179688 C 199.730469 139.179688 199.019531 138.46875 199.019531 137.597656 " fill-opacity="1" fill-rule="nonzero"/><path fill="#fefcf7" d="M 199.753906 150.375 C 199.753906 149.375 200.558594 148.5625 201.550781 148.5625 C 202.550781 148.5625 203.355469 149.375 203.355469 150.375 C 203.355469 151.371094 202.550781 152.179688 201.550781 152.179688 C 200.558594 152.179688 199.753906 151.371094 199.753906 150.375 " fill-opacity="1" fill-rule="nonzero"/><path fill="#fefcf7" d="M 198.574219 163.226562 C 198.613281 162.105469 199.550781 161.222656 200.675781 161.269531 C 201.792969 161.308594 202.667969 162.25 202.625 163.371094 C 202.585938 164.5 201.644531 165.375 200.523438 165.335938 C 199.40625 165.296875 198.53125 164.347656 198.574219 163.226562 " fill-opacity="1" fill-rule="nonzero"/><path fill="#fefcf7" d="M 197.144531 176.191406 C 197.1875 175.0625 198.128906 174.1875 199.246094 174.226562 C 200.363281 174.265625 201.238281 175.214844 201.199219 176.335938 C 201.15625 177.457031 200.214844 178.339844 199.097656 178.292969 C 197.980469 178.253906 197.105469 177.3125 197.144531 176.191406 " fill-opacity="1" fill-rule="nonzero"/><path fill="#fefcf7" d="M 194.519531 188.054688 C 194.558594 186.933594 195.496094 186.058594 196.621094 186.097656 C 197.738281 186.144531 198.613281 187.085938 198.570312 188.207031 C 198.53125 189.328125 197.589844 190.210938 196.46875 190.171875 C 195.351562 190.125 194.472656 189.183594 194.519531 188.054688 " fill-opacity="1" fill-rule="nonzero"/><path fill="#fefcf7" d="M 190.464844 199.933594 C 190.503906 198.804688 191.445312 197.929688 192.5625 197.972656 C 193.679688 198.011719 194.558594 198.957031 194.511719 200.078125 C 194.472656 201.199219 193.535156 202.082031 192.417969 202.035156 C 191.296875 201.996094 190.425781 201.054688 190.464844 199.933594 " fill-opacity="1" fill-rule="nonzero"/></svg>