<svg xmlns="http://www.w3.org/2000/svg" xmlns:xlink="http://www.w3.org/1999/xlink" width="500" zoomAndPan="magnify" viewBox="0 0 375 374.999991" height="500" preserveAspectRatio="xMidYMid meet" version="1.0"><path fill="#dd873a" d="M 220.890625 327 C 210.664062 343.011719 185.507812 341.527344 176.648438 341.03125 C 166.238281 340.414062 146.71875 339.238281 137.488281 324.46875 C 130.734375 313.589844 131.601562 298.507812 136.929688 288.617188 C 141.019531 281.015625 144.984375 278.542969 157.253906 263.335938 C 159.652344 260.46875 161.679688 257.355469 163.324219 254.003906 C 174.789062 230.390625 158.429688 204.429688 168.222656 197.507812 C 169.769531 196.394531 172.558594 195.960938 177.824219 195.46875 L 178.753906 198.3125 C 179.125 199.546875 179.003906 198.3125 173.238281 199.855469 C 167.476562 201.402344 167.847656 205.789062 169.273438 207.582031 C 170.699219 209.375 172.1875 208.140625 187.675781 206.53125 C 192.449219 205.976562 191.644531 201.339844 189.722656 199.671875 C 187.800781 198.003906 186.3125 198.621094 184.394531 198.683594 C 184.269531 197.445312 184.207031 196.148438 184.082031 194.910156 C 187.675781 194.664062 190.09375 194.910156 191.953125 196.394531 C 195.359375 199.113281 195.050781 204.617188 194.988281 206.902344 C 194.183594 233.046875 193.75 246.089844 196.660156 255.671875 C 201.0625 270.320312 209.671875 266.984375 218.101562 285.464844 C 220.949219 291.769531 230.246094 312.226562 220.890625 327 Z M 220.890625 327 " fill-opacity="1" fill-rule="nonzero"/><path fill="#443e3c" d="M 211.222656 101.699219 C 205.523438 106.214844 196.476562 115.855469 189.660156 131.863281 C 189.660156 135.945312 189.101562 139.527344 186.808594 139.34375 C 182.164062 153.003906 179.25 170.558594 180.488281 192.5625 C 176.460938 181.929688 170.636719 171.792969 164.007812 162.335938 C 162.582031 162.089844 161.40625 160.296875 160.476562 157.390625 L 160.414062 157.390625 C 157.5 153.4375 154.464844 149.667969 151.367188 145.957031 L 150.625 145.03125 L 149.324219 146.082031 C 156.730469 154.582031 163.070312 163.8125 168.34375 173.773438 C 169.21875 174.117188 170.042969 174.550781 170.824219 175.070312 C 172.746094 176.492188 172.433594 178.222656 171.320312 179.582031 C 173.796875 184.75 175.964844 190.046875 177.824219 195.46875 L 178.753906 198.3125 C 179.125 199.546875 179.003906 198.3125 173.238281 199.855469 C 167.476562 201.402344 167.847656 205.789062 169.273438 207.582031 C 170.699219 209.375 172.1875 208.140625 187.675781 206.53125 C 192.449219 205.976562 191.644531 201.339844 189.722656 199.671875 C 187.800781 198.003906 186.3125 198.621094 184.394531 198.683594 C 184.269531 197.445312 184.207031 196.148438 184.082031 194.910156 C 183.710938 189.164062 183.527344 183.351562 183.585938 177.605469 C 183.386719 177.382812 183.222656 177.132812 183.09375 176.863281 C 182.90625 176.367188 182.597656 175.441406 183.773438 172.535156 C 184.578125 153.128906 188.976562 133.964844 200.378906 117.773438 C 200.007812 117.402344 199.820312 117.03125 199.882812 116.78125 C 199.945312 116.535156 200.316406 116.039062 201.554688 115.671875 L 201.929688 115.546875 C 205.210938 110.847656 208 106.707031 212.277344 103 C 211.816406 102.652344 211.464844 102.21875 211.222656 101.699219 Z M 211.222656 101.699219 " fill-opacity="1" fill-rule="nonzero"/><path fill="#b64c36" d="M 227.457031 150.035156 C 226.589844 148.675781 222.871094 148.925781 215.3125 149.480469 C 210.664062 149.789062 208.308594 149.976562 206.574219 150.40625 C 192.820312 153.621094 186.191406 167.28125 184.578125 170.683594 C 184.269531 171.363281 183.960938 171.980469 183.773438 172.472656 C 182.597656 175.378906 182.90625 176.304688 183.09375 176.800781 C 183.222656 177.070312 183.386719 177.320312 183.585938 177.542969 C 186.625 181.25 197.902344 181.558594 206.140625 177.296875 C 209.363281 175.566406 212.398438 171.917969 218.472656 164.625 C 224.542969 157.332031 228.820312 152.199219 227.457031 150.035156 Z M 227.457031 150.035156 " fill-opacity="1" fill-rule="nonzero"/><path fill="#b64c36" d="M 189.472656 124.261719 C 189.101562 108.191406 188.421875 105.410156 174.542969 86.679688 C 153.351562 58 164.378906 117.710938 182.285156 136.253906 C 184.269531 138.355469 185.757812 139.28125 186.808594 139.34375 C 189.101562 139.527344 189.660156 135.945312 189.660156 131.863281 C 189.722656 129.269531 189.535156 126.488281 189.472656 124.261719 Z M 189.472656 124.261719 " fill-opacity="1" fill-rule="nonzero"/><path fill="#b64c36" d="M 253.667969 112.828125 C 245.488281 107.265625 229.378906 109.054688 229.378906 109.054688 C 219.984375 110.160156 210.832031 112.300781 201.929688 115.484375 L 201.554688 115.609375 C 200.316406 115.980469 199.945312 116.351562 199.882812 116.722656 C 199.820312 117.089844 200.007812 117.339844 200.378906 117.710938 C 203.351562 121.292969 220.890625 128.648438 237.308594 124.507812 C 244.371094 122.714844 259.675781 116.84375 253.667969 112.828125 Z M 253.667969 112.828125 " fill-opacity="1" fill-rule="nonzero"/><path fill="#b64c36" d="M 237.0625 58.125 C 215.992188 74.132812 208 95.457031 211.222656 101.699219 C 211.472656 102.199219 211.824219 102.609375 212.277344 102.9375 C 213.113281 103.488281 214.023438 103.652344 215.003906 103.429688 C 220.207031 102.441406 232.414062 92.429688 237.804688 77.101562 C 240.53125 69.433594 241.335938 54.910156 237.0625 58.125 Z M 237.0625 58.125 " fill-opacity="1" fill-rule="nonzero"/><path fill="#b64c36" d="M 170.203125 122.65625 C 165.617188 112.828125 165.929688 110.601562 164.132812 109.488281 C 156.632812 104.542969 155.765625 143.359375 160.414062 157.390625 L 160.476562 157.390625 C 161.40625 160.296875 162.582031 162.089844 164.007812 162.335938 C 166.734375 162.769531 170.328125 157.082031 174.664062 141.199219 C 176.710938 133.65625 173.921875 130.75 170.203125 122.65625 Z M 170.203125 122.65625 " fill-opacity="1" fill-rule="nonzero"/><path fill="#b64c36" d="M 170.824219 175.070312 C 170.042969 174.550781 169.21875 174.117188 168.34375 173.773438 C 154.589844 167.898438 121.8125 178.59375 124.785156 187.0625 C 126.769531 192.5625 154.464844 192.6875 159.359375 189.597656 C 162.457031 187.617188 163.699219 185.023438 169.523438 181.191406 C 170.210938 180.753906 170.808594 180.214844 171.320312 179.582031 C 172.433594 178.222656 172.746094 176.492188 170.824219 175.070312 Z M 170.824219 175.070312 " fill-opacity="1" fill-rule="nonzero"/><path fill="#b64c36" d="M 150.6875 128.402344 C 145.417969 118.699219 124.226562 103 119.953125 107.015625 C 115.675781 111.035156 130.425781 138.355469 134.761719 142.621094 C 140.152344 147.875 145.730469 148.429688 149.324219 146.082031 L 150.625 145.03125 C 153.785156 141.816406 154.589844 135.636719 150.6875 128.402344 Z M 150.6875 128.402344 " fill-opacity="1" fill-rule="nonzero"/><path fill="#443e3c" d="M 183.152344 226.375 C 183.277344 228.351562 183.152344 231.566406 186.003906 231.441406 C 188.855469 231.316406 188.605469 228.351562 187.988281 218.957031 C 187.738281 215.125 182.410156 215.804688 182.65625 218.957031 C 182.90625 222.109375 183.277344 220.5625 180.054688 221.675781 C 176.832031 222.789062 178.445312 227.855469 181.480469 226.804688 C 182.03125 226.632812 182.589844 226.488281 183.152344 226.375 Z M 183.152344 226.375 " fill-opacity="1" fill-rule="nonzero"/><path fill="#443e3c" d="M 176.773438 260 C 177.082031 256.847656 171.816406 256.105469 171.441406 260 C 171.070312 263.890625 171.875 262.964844 169.707031 263.582031 C 166.238281 264.449219 167.789062 269.640625 171.132812 268.777344 C 171.9375 268.527344 171.382812 268.15625 172.1875 271.988281 C 172.992188 275.820312 178.136719 274.152344 177.328125 270.566406 C 176.617188 267.074219 176.429688 263.550781 176.773438 260 Z M 176.773438 260 " fill-opacity="1" fill-rule="nonzero"/><path fill="#443e3c" d="M 208.125 289.421875 C 207.628906 286.824219 207.195312 282.746094 204.035156 283.796875 C 200.875 284.847656 202.734375 287.628906 204.035156 297.269531 C 204.222656 298.445312 205.894531 299.558594 207.320312 299.125 C 210.480469 298.074219 208.742188 294.734375 209.117188 294.675781 C 214.195312 294.613281 213.453125 288.554688 208.125 289.421875 Z M 208.125 289.421875 " fill-opacity="1" fill-rule="nonzero"/><path fill="#443e3c" d="M 154.589844 288.492188 C 150.6875 288.679688 152.667969 292.820312 151.554688 293.375 C 150.4375 293.933594 149.324219 293.191406 148.207031 294.363281 C 147.964844 294.617188 147.773438 294.90625 147.644531 295.234375 C 147.511719 295.558594 147.445312 295.898438 147.445312 296.25 C 147.445312 296.601562 147.511719 296.941406 147.644531 297.265625 C 147.773438 297.59375 147.964844 297.882812 148.207031 298.136719 C 150.5625 299.929688 152.171875 297.828125 152.234375 299.867188 C 152.421875 303.699219 157.6875 303.082031 157.5625 299.867188 C 157.378906 293.746094 158.121094 288.371094 154.589844 288.492188 Z M 154.589844 288.492188 " fill-opacity="1" fill-rule="nonzero"/><path fill="#443e3c" d="M 189.785156 313.15625 C 186.996094 311.054688 187.429688 314.699219 187.429688 308.890625 C 187.429688 305.242188 182.101562 305.492188 182.101562 308.890625 C 182.101562 318.78125 181.234375 322.921875 184.765625 322.796875 C 188.296875 322.675781 187.429688 319.769531 187.429688 317.730469 C 190.835938 317.730469 191.085938 314.515625 189.785156 313.15625 Z M 189.785156 313.15625 " fill-opacity="1" fill-rule="nonzero"/></svg>