<svg xmlns="http://www.w3.org/2000/svg" xmlns:xlink="http://www.w3.org/1999/xlink" width="500" zoomAndPan="magnify" viewBox="0 0 375 374.999991" height="500" preserveAspectRatio="xMidYMid meet" version="1.0"><defs><clipPath id="d01251e70f"><path d="M 133 50 L 263.597656 50 L 263.597656 265 L 133 265 Z M 133 50 " clip-rule="nonzero"/></clipPath></defs><path fill="#71725d" d="M 225.75 286.285156 C 218.292969 305.296875 211.089844 326.316406 191.105469 331.335938 C 165.109375 337.859375 147.632812 320.105469 135.605469 295.949219 C 120.945312 266.460938 111.425781 248.957031 136.730469 244.5625 C 139.613281 244.0625 147.757812 243.308594 158.09375 242.617188 L 165.484375 242.179688 L 170.308594 241.929688 C 170.394531 243.519531 170.519531 245.023438 170.683594 246.445312 C 170.710938 246.730469 170.679688 247.011719 170.589844 247.28125 C 170.5 247.554688 170.359375 247.796875 170.171875 248.011719 C 169.980469 248.226562 169.757812 248.390625 169.496094 248.511719 C 169.238281 248.632812 168.964844 248.699219 168.679688 248.703125 C 147.695312 249.332031 141.179688 248.078125 136.355469 253.597656 C 123.199219 268.71875 157.53125 264.011719 184.152344 263.511719 C 202.007812 263.199219 233.828125 265.769531 223.117188 251.777344 C 218.984375 246.320312 211.652344 247.511719 189.539062 248.078125 C 189.3125 248.085938 189.089844 248.054688 188.875 247.984375 C 188.65625 247.917969 188.457031 247.8125 188.273438 247.675781 C 188.09375 247.539062 187.9375 247.375 187.8125 247.1875 C 187.683594 246.996094 187.59375 246.792969 187.535156 246.570312 C 186.972656 244.878906 186.535156 243.121094 186.09375 241.425781 C 190.480469 241.300781 194.929688 241.300781 199.125 241.363281 L 206.140625 241.488281 C 217.980469 241.929688 227.378906 243.183594 230.132812 245.757812 C 239.53125 254.601562 231.074219 272.859375 225.75 286.285156 Z M 225.75 286.285156 " fill-opacity="1" fill-rule="nonzero"/><g clip-path="url(#d01251e70f)"><path fill="#443e3c" d="M 260.453125 112.117188 C 258.074219 111.679688 257.257812 120.652344 249.742188 125.230469 C 244.230469 128.683594 241.097656 125.921875 237.210938 129.558594 C 231.886719 134.578125 237.652344 139.785156 227.628906 145.871094 C 227.296875 146.074219 226.933594 146.175781 226.546875 146.171875 C 226.15625 146.171875 225.796875 146.066406 225.464844 145.863281 C 225.136719 145.65625 224.882812 145.378906 224.707031 145.03125 C 224.535156 144.683594 224.464844 144.316406 224.496094 143.929688 C 225.875 128.054688 216.980469 123.222656 216.414062 114 C 215.789062 102.457031 226.875 94.675781 223.054688 86.832031 C 218.042969 76.667969 204.449219 88.089844 202.007812 52.640625 C 201.882812 51.070312 197.308594 44.609375 193.988281 61.800781 C 188.226562 91.664062 203.511719 87.023438 206.453125 99.320312 C 208.144531 106.535156 202.882812 108.417969 204.011719 116.574219 C 205.453125 126.613281 214.910156 132.632812 219.984375 134.453125 C 220.664062 134.71875 221.101562 135.199219 221.300781 135.898438 C 221.800781 137.90625 223.117188 141.042969 220.863281 149.636719 C 215.414062 170.277344 202.882812 168.648438 191.671875 178.371094 C 191.535156 178.484375 191.390625 178.578125 191.234375 178.652344 C 191.078125 178.726562 190.914062 178.78125 190.742188 178.8125 C 190.574219 178.84375 190.398438 178.855469 190.226562 178.847656 C 190.054688 178.835938 189.882812 178.804688 189.71875 178.75 C 189.554688 178.699219 189.398438 178.625 189.25 178.53125 C 189.101562 178.441406 188.96875 178.332031 188.847656 178.203125 C 188.730469 178.078125 188.628906 177.9375 188.542969 177.785156 C 188.457031 177.632812 188.394531 177.472656 188.351562 177.304688 C 181.273438 146.25 190.980469 154.90625 195.929688 141.984375 C 196.746094 139.722656 197.933594 135.707031 196.496094 132.761719 C 192.296875 124.164062 190.230469 136.839844 190.292969 110.300781 C 190.292969 100.511719 172.4375 108.605469 178.828125 134.453125 C 180.582031 141.480469 178.078125 141.667969 175.382812 143.550781 C 170.371094 147.066406 181.210938 172.914062 186.722656 181.320312 C 186.96875 181.699219 187.082031 182.113281 187.058594 182.566406 C 187.035156 183.015625 186.882812 183.417969 186.597656 183.769531 C 180.769531 190.921875 176.761719 199.390625 174.253906 208.050781 C 174.128906 208.453125 173.902344 208.785156 173.574219 209.050781 C 173.246094 209.3125 172.871094 209.460938 172.449219 209.496094 C 172.03125 209.53125 171.636719 209.445312 171.269531 209.238281 C 170.902344 209.03125 170.625 208.738281 170.433594 208.363281 C 162.917969 193.679688 172.4375 186.027344 165.671875 179.125 C 163.730469 177.117188 163.105469 178.121094 160.160156 175.488281 C 155.714844 171.535156 147.382812 149.449219 144.625 150.390625 C 141.867188 151.332031 145.0625 172.097656 151.828125 182.953125 C 156.277344 190.042969 155.210938 194.121094 153.707031 200.582031 C 151.890625 208.738281 161.539062 219.90625 169.746094 226.371094 C 170.015625 226.589844 170.21875 226.859375 170.351562 227.183594 C 170.484375 227.507812 170.53125 227.839844 170.496094 228.1875 C 170.125 232.765625 170.0625 237.34375 170.308594 241.929688 C 170.394531 243.519531 170.519531 245.023438 170.683594 246.445312 C 170.710938 246.730469 170.679688 247.011719 170.589844 247.28125 C 170.5 247.554688 170.359375 247.796875 170.171875 248.011719 C 169.980469 248.226562 169.757812 248.390625 169.496094 248.511719 C 169.238281 248.632812 168.964844 248.699219 168.679688 248.703125 C 147.695312 249.332031 141.179688 248.078125 136.355469 253.597656 C 123.199219 268.71875 157.53125 264.011719 184.152344 263.511719 C 202.007812 263.199219 233.828125 265.769531 223.117188 251.777344 C 218.984375 246.320312 211.652344 247.511719 189.539062 248.078125 C 189.3125 248.085938 189.089844 248.054688 188.875 247.984375 C 188.65625 247.917969 188.457031 247.8125 188.273438 247.675781 C 188.09375 247.539062 187.9375 247.375 187.8125 247.1875 C 187.683594 246.996094 187.59375 246.792969 187.535156 246.570312 C 186.972656 244.878906 186.535156 243.121094 186.09375 241.425781 C 181.144531 221.664062 181.835938 201.585938 190.542969 188.472656 C 190.726562 188.140625 191 187.910156 191.355469 187.785156 C 194.113281 186.402344 197.371094 185.964844 206.578125 189.601562 C 228.128906 198.074219 227.628906 186.65625 235.898438 175.296875 C 244.164062 163.941406 252.308594 160.242188 251.246094 158.234375 C 250.179688 156.226562 240.59375 157.355469 232.953125 162.4375 C 223.554688 168.773438 224.058594 176.425781 216.851562 178.246094 C 213.910156 179 211.90625 178.183594 209.898438 177.179688 C 209.738281 177.097656 209.589844 176.996094 209.457031 176.875 C 209.324219 176.753906 209.207031 176.617188 209.109375 176.464844 C 209.007812 176.3125 208.933594 176.148438 208.875 175.976562 C 208.820312 175.804688 208.789062 175.628906 208.777344 175.445312 C 208.769531 175.265625 208.78125 175.085938 208.820312 174.910156 C 208.855469 174.730469 208.917969 174.5625 209 174.398438 C 209.082031 174.238281 209.183594 174.089844 209.304688 173.957031 C 209.425781 173.820312 209.558594 173.703125 209.710938 173.605469 C 215.035156 170.089844 219.296875 165.132812 222.429688 154.59375 C 222.496094 154.335938 222.609375 154.101562 222.769531 153.894531 C 222.929688 153.683594 223.125 153.511719 223.355469 153.382812 C 223.585938 153.25 223.832031 153.171875 224.097656 153.140625 C 224.359375 153.113281 224.617188 153.136719 224.871094 153.214844 C 236.273438 156.601562 261.769531 140.289062 263.148438 122.34375 C 263.523438 117.578125 262.207031 112.371094 260.453125 112.117188 Z M 260.453125 112.117188 " fill-opacity="1" fill-rule="nonzero"/></g><path fill="#cc9473" d="M 143.183594 279.636719 C 150.386719 280.640625 149.699219 268.21875 142.683594 270.601562 C 137.609375 272.296875 138.675781 279.070312 143.183594 279.636719 Z M 143.183594 279.636719 " fill-opacity="1" fill-rule="nonzero"/><path fill="#cc9473" d="M 169.117188 295.007812 C 174.695312 288.546875 166.550781 280.136719 160.285156 285.34375 C 157.277344 287.855469 155.523438 296.386719 162.855469 297.328125 C 164.023438 297.457031 165.160156 297.320312 166.261719 296.910156 C 167.363281 296.5 168.316406 295.867188 169.117188 295.007812 Z M 169.117188 295.007812 " fill-opacity="1" fill-rule="nonzero"/><path fill="#cc9473" d="M 186.847656 277.125 C 188.976562 286.035156 200.253906 277.941406 194.238281 272.859375 C 190.605469 269.785156 185.84375 273.046875 186.847656 277.125 Z M 186.847656 277.125 " fill-opacity="1" fill-rule="nonzero"/><path fill="#cc9473" d="M 197.558594 298.773438 C 187.972656 293.4375 183.839844 306.804688 190.667969 309.625 C 197.496094 312.449219 203.699219 302.222656 197.558594 298.773438 Z M 197.558594 298.773438 " fill-opacity="1" fill-rule="nonzero"/><path fill="#cc9473" d="M 170.871094 311.570312 C 166.425781 306.425781 159.410156 315.210938 164.734375 318.972656 C 168.742188 321.796875 174.945312 316.277344 170.871094 311.570312 Z M 170.871094 311.570312 " fill-opacity="1" fill-rule="nonzero"/><path fill="#cc9473" d="M 219.109375 287.039062 C 219.015625 286.710938 218.886719 286.398438 218.726562 286.101562 C 218.5625 285.800781 218.371094 285.523438 218.148438 285.265625 C 217.925781 285.007812 217.675781 284.78125 217.402344 284.578125 C 217.128906 284.375 216.835938 284.207031 216.527344 284.066406 C 216.214844 283.929688 215.894531 283.828125 215.558594 283.761719 C 215.226562 283.695312 214.890625 283.664062 214.550781 283.671875 C 214.210938 283.679688 213.875 283.722656 213.546875 283.804688 C 213.214844 283.886719 212.898438 284.003906 212.59375 284.152344 C 210.214844 285.40625 209.210938 290.050781 212.40625 291.933594 C 215.601562 293.816406 220.296875 290.679688 219.109375 287.039062 Z M 214.972656 289.234375 Z M 214.972656 289.234375 " fill-opacity="1" fill-rule="nonzero"/><path fill="#cc9473" d="M 164.921875 273.046875 C 165.359375 276.183594 169.433594 275.683594 168.304688 275.746094 C 172 275.621094 171.75 271.167969 171.6875 272.359375 C 172 267.652344 164.105469 267.527344 164.921875 273.046875 Z M 164.921875 273.046875 " fill-opacity="1" fill-rule="nonzero"/><path fill="#cc9473" d="M 148.195312 295.507812 C 146.066406 293.816406 141.742188 294.378906 142.246094 298.269531 C 142.746094 302.160156 152.015625 299.335938 148.195312 295.507812 Z M 148.195312 295.507812 " fill-opacity="1" fill-rule="nonzero"/><path fill="#cc9473" d="M 219.234375 267.464844 C 216.789062 264.328125 212.84375 267.214844 213.34375 269.597656 C 213.535156 274.113281 221.800781 271.542969 219.234375 267.464844 Z M 219.234375 267.464844 " fill-opacity="1" fill-rule="nonzero"/><path fill="#cc9473" d="M 186.472656 285.660156 C 182.773438 285.660156 182.773438 291.367188 186.472656 291.367188 C 190.167969 291.367188 190.105469 285.660156 186.472656 285.660156 Z M 186.472656 285.660156 " fill-opacity="1" fill-rule="nonzero"/><path fill="#cc9473" d="M 194.175781 318.660156 C 188.664062 314.457031 184.96875 324.933594 192.234375 323.742188 C 194.804688 323.304688 195.867188 320.230469 194.175781 318.660156 Z M 194.175781 318.660156 " fill-opacity="1" fill-rule="nonzero"/><path fill="#cc9473" d="M 130.65625 254.351562 C 128.964844 251.527344 122.511719 253.160156 123.640625 256.859375 C 124.765625 260.5625 132.535156 258.742188 130.65625 254.351562 Z M 130.65625 254.351562 " fill-opacity="1" fill-rule="nonzero"/><path fill="#cc9473" d="M 229.695312 247.449219 C 228.816406 244.3125 223.429688 244.816406 223.554688 248.203125 C 223.679688 251.589844 230.320312 251.90625 229.695312 247.449219 Z M 229.695312 247.449219 " fill-opacity="1" fill-rule="nonzero"/><path fill="#cc9473" d="M 165.484375 242.179688 C 165.519531 243.003906 165.363281 243.789062 165.007812 244.53125 C 164.652344 245.277344 164.144531 245.894531 163.480469 246.382812 C 161.289062 247.765625 157.78125 246.070312 158.09375 242.617188 Z M 165.484375 242.179688 " fill-opacity="1" fill-rule="nonzero"/><path fill="#cc9473" d="M 206.140625 241.488281 C 206.515625 245.820312 199.625 246.320312 199.0625 242.054688 C 199.046875 241.820312 199.070312 241.589844 199.125 241.363281 Z M 206.140625 241.488281 " fill-opacity="1" fill-rule="nonzero"/></svg>