<svg xmlns="http://www.w3.org/2000/svg" xmlns:xlink="http://www.w3.org/1999/xlink" width="500" zoomAndPan="magnify" viewBox="0 0 375 374.999991" height="500" preserveAspectRatio="xMidYMid meet" version="1.0"><defs><clipPath id="625d8fe893"><path d="M 116 60 L 294.867188 60 L 294.867188 337 L 116 337 Z M 116 60 " clip-rule="nonzero"/></clipPath></defs><g clip-path="url(#625d8fe893)"><path fill="#b4bf54" d="M 254.4375 291.894531 C 255.738281 290.519531 256.953125 289.054688 258.160156 287.597656 C 258.238281 292.777344 258.617188 297.957031 258.847656 303.140625 C 254.917969 306.734375 250.636719 309.929688 246.0625 312.675781 C 243.980469 313.921875 241.125 313.9375 239.28125 312.179688 C 235.792969 308.859375 232.273438 305.5625 228.714844 302.300781 C 226.851562 300.597656 224.984375 298.894531 223.09375 297.210938 C 222.46875 296.644531 221.378906 295.429688 220.425781 294.574219 C 219.121094 295.785156 217.730469 297.589844 216.847656 298.449219 C 215.105469 300.121094 213.347656 301.78125 211.523438 303.375 C 207.90625 306.546875 203.988281 309.867188 199.523438 311.800781 C 193.484375 314.40625 189.015625 308.722656 184.757812 305.1875 C 181.238281 302.28125 177.730469 299.363281 174.210938 296.457031 C 170.207031 298.511719 166.316406 300.789062 162.519531 303.207031 C 160.476562 304.523438 158.433594 306.171875 156.296875 307.625 C 156.265625 303.273438 155.992188 298.898438 155.757812 294.570312 C 156.179688 294.285156 156.613281 294.007812 157.023438 293.730469 C 162.171875 290.28125 167.648438 287.386719 173.230469 284.703125 C 175 283.851562 177.285156 284.671875 178.679688 285.820312 C 182.042969 288.59375 185.410156 291.367188 188.78125 294.144531 C 191.289062 296.222656 193.902344 298.945312 196.679688 300.925781 C 200.441406 299.023438 203.96875 295.40625 206.8125 292.726562 C 210.203125 289.535156 214.335938 283.675781 219.136719 282.828125 C 224.835938 281.820312 229.808594 288.316406 233.558594 291.707031 C 236.953125 294.777344 240.304688 297.882812 243.636719 301.015625 C 247.539062 298.359375 251.160156 295.355469 254.4375 291.894531 Z M 222.824219 312.832031 C 222.8125 312.839844 222.800781 312.847656 222.789062 312.863281 C 222.300781 313.738281 221.234375 314.226562 220.25 313.71875 C 219.957031 313.566406 219.738281 313.328125 219.589844 313.050781 C 219.046875 312.644531 218.664062 312.03125 218.648438 311.324219 C 218.621094 310.371094 219.234375 309.636719 220.03125 309.390625 C 220.261719 309.234375 220.527344 309.113281 220.816406 309.058594 C 221.863281 308.859375 222.8125 309.5 223.207031 310.449219 C 223.535156 311.234375 223.394531 312.191406 222.824219 312.832031 Z M 174.652344 312.015625 C 174.136719 312.117188 173.628906 311.976562 173.214844 311.675781 C 173.03125 311.597656 172.847656 311.5 172.691406 311.367188 C 171.925781 310.75 171.660156 309.660156 172.113281 308.777344 C 172.179688 308.644531 172.269531 308.523438 172.363281 308.410156 C 172.386719 308.355469 172.402344 308.300781 172.429688 308.25 C 172.671875 307.8125 173.148438 307.429688 173.675781 307.441406 C 173.96875 307.445312 174.246094 307.519531 174.511719 307.617188 C 175.492188 307.785156 176.246094 308.628906 176.316406 309.625 C 176.382812 310.671875 175.738281 311.804688 174.652344 312.015625 Z M 198.105469 288.765625 C 197.96875 288.8125 197.839844 288.84375 197.710938 288.867188 C 196.699219 289.144531 195.605469 288.601562 195.25 287.601562 C 195.195312 287.457031 195.171875 287.320312 195.152344 287.175781 C 194.972656 286.398438 195.257812 285.582031 195.730469 284.914062 C 196.15625 284.308594 197.125 284.253906 197.726562 284.542969 C 198.085938 284.714844 198.417969 284.960938 198.675781 285.261719 C 198.964844 285.484375 199.183594 285.796875 199.304688 286.148438 C 199.652344 287.171875 199.136719 288.394531 198.105469 288.765625 Z M 243.414062 286.179688 C 243.386719 285.074219 244.3125 284.371094 245.367188 284.515625 C 245.703125 284.558594 246 284.703125 246.25 284.890625 C 246.707031 285.203125 246.972656 285.757812 247.027344 286.328125 C 247.03125 286.375 247.03125 286.425781 247.039062 286.46875 L 247.039062 286.601562 C 247.039062 286.832031 247.011719 287.0625 246.933594 287.289062 C 246.46875 288.59375 244.828125 289.121094 243.753906 288.171875 C 243.195312 287.679688 243.125 286.929688 243.425781 286.347656 C 243.421875 286.289062 243.414062 286.238281 243.414062 286.179688 Z M 289 148.007812 C 282.183594 134.417969 269.128906 124.378906 253.910156 122.410156 C 249.738281 121.871094 245.394531 121.863281 241.199219 122.566406 C 242.207031 109.234375 240.253906 94.855469 235.761719 82.292969 C 231.804688 71.226562 221.511719 61.78125 209.375 60.945312 C 198.167969 60.167969 188.066406 68.511719 187.203125 79.796875 C 186.375 90.644531 192.132812 102.273438 198.792969 110.492188 C 205.828125 119.175781 215.566406 126.144531 226.472656 128.960938 C 225.109375 129.9375 223.777344 130.972656 222.457031 132.019531 C 219.605469 134.28125 216.734375 136.554688 214.707031 139.625 C 209.945312 146.859375 208.320312 156.589844 208.117188 165.09375 C 207.914062 173.207031 208.996094 183.191406 213.828125 190.113281 C 207.84375 189.859375 201.726562 190.722656 195.824219 192.191406 C 192.609375 192.996094 189.320312 193.875 186.175781 195.082031 C 186.589844 189.878906 185.210938 183.804688 184.039062 179.257812 C 182.417969 172.9375 179.542969 166.890625 175.300781 161.898438 C 167.402344 152.597656 155.796875 148.085938 143.742188 150.550781 C 137.460938 151.828125 130.726562 154.566406 125.699219 158.621094 C 120.570312 162.761719 118.738281 169.070312 117.59375 175.324219 C 115.203125 188.429688 117.464844 202.171875 127.535156 211.585938 C 137.078125 220.492188 150.746094 223.503906 163.476562 221.722656 C 158.90625 234.214844 157.0625 248.261719 159.15625 261.203125 C 154.914062 261.265625 150.71875 261.578125 146.703125 262.480469 C 145.898438 262.65625 145.367188 263.613281 145.410156 264.386719 C 145.613281 268 146.035156 271.574219 146.6875 275.140625 C 146.804688 275.769531 147.171875 276.210938 147.625 276.46875 C 147.785156 276.722656 148.039062 276.929688 148.394531 277.027344 C 149.84375 277.433594 151.3125 277.660156 152.800781 277.804688 C 152.476562 283.9375 152.820312 290.191406 153.089844 296.34375 C 153.167969 298.101562 153.234375 299.851562 153.28125 301.585938 C 153.355469 304.171875 153.429688 306.75 153.5 309.34375 C 153.554688 311.347656 153.609375 313.359375 153.667969 315.367188 C 153.753906 318.714844 153.628906 322.195312 153.949219 325.578125 C 153.96875 326.265625 154.03125 326.929688 154.136719 327.589844 C 154.144531 327.6875 154.15625 327.78125 154.175781 327.867188 C 154.191406 327.980469 154.214844 328.085938 154.238281 328.195312 C 154.195312 328.324219 154.175781 328.460938 154.195312 328.613281 C 154.308594 329.390625 154.324219 329.570312 154.667969 330.277344 C 154.75 330.457031 154.871094 330.597656 154.996094 330.710938 C 155.03125 330.78125 155.089844 330.84375 155.128906 330.910156 C 155.789062 332.160156 156.816406 333.199219 158.382812 333.890625 C 159.054688 334.1875 159.769531 334.441406 160.507812 334.648438 C 160.609375 334.714844 160.722656 334.785156 160.859375 334.824219 C 163.597656 335.738281 166.371094 336.355469 169.242188 336.214844 C 171.230469 336.480469 173.265625 336.546875 175.273438 336.605469 C 181.363281 336.777344 187.460938 336.785156 193.558594 336.574219 C 194.378906 336.554688 195.195312 336.511719 196.011719 336.492188 C 207.417969 337.191406 218.902344 337.0625 230.265625 336.269531 C 238.042969 335.730469 245.960938 335.089844 253.605469 333.492188 C 253.644531 333.488281 253.6875 333.484375 253.722656 333.476562 C 260.828125 332.25 262.570312 330.859375 263.796875 326.800781 C 265.019531 322.773438 263.359375 312.144531 263.34375 312.046875 C 263.230469 310.613281 263.117188 309.175781 263.011719 307.734375 C 262.957031 307.113281 262.914062 306.46875 262.875 305.8125 C 262.828125 303.628906 262.761719 301.453125 262.699219 299.308594 C 262.695312 299 262.683594 298.699219 262.671875 298.386719 C 262.550781 294.035156 262.304688 289.695312 261.96875 285.347656 C 261.917969 284.695312 261.890625 284.011719 261.855469 283.308594 C 261.742188 281.085938 261.652344 278.707031 261.148438 276.535156 C 262.03125 276.40625 262.933594 276.261719 263.816406 276.101562 C 265.769531 276.03125 267.890625 275.40625 269.554688 275.15625 C 271.785156 274.828125 274.929688 274.796875 274.683594 271.753906 C 274.5625 270.308594 274.046875 268.769531 273.746094 267.332031 C 273.472656 266.089844 273.410156 264.292969 272.59375 263.238281 C 271.429688 261.710938 268.726562 262.128906 266.777344 262.632812 C 262.6875 262.507812 258.597656 262.40625 254.507812 262.304688 C 256.507812 239.75 255.222656 213.828125 236.90625 198.773438 C 244.980469 198.980469 253.105469 198.980469 261.128906 198 C 268.683594 197.082031 277.359375 195.765625 282.960938 190.140625 C 285.710938 187.378906 287.78125 183.738281 289.695312 180.382812 C 291.648438 176.960938 293.332031 173.285156 293.839844 169.34375 C 294.765625 162.148438 292.1875 154.363281 289 148.007812 " fill-opacity="1" fill-rule="nonzero"/><path fill="#000000" d="M 282.171875 184.734375 C 276.832031 192.105469 267.308594 193.351562 258.824219 194.207031 C 250.246094 195.078125 241.621094 194.839844 233.015625 194.699219 C 232.472656 194.695312 232.066406 194.871094 231.773438 195.136719 C 227.234375 192.472656 222.335938 190.992188 217.304688 190.390625 C 217.269531 190.269531 217.21875 190.144531 217.152344 190.019531 C 209.917969 177.203125 210.203125 160.109375 215.566406 146.648438 C 218.214844 140.015625 223.53125 135.925781 229.257812 131.964844 C 235.296875 127.777344 242.066406 125.894531 249.410156 126.15625 C 263.144531 126.640625 275.644531 134.246094 283.007812 145.738281 C 286.578125 151.308594 289.246094 157.949219 289.835938 164.578125 C 290.488281 172.011719 286.394531 178.90625 282.171875 184.734375 Z M 247.539062 224.386719 C 251.300781 236.636719 250.6875 249.519531 249.851562 262.191406 C 235.226562 261.871094 220.601562 261.683594 205.976562 261.585938 C 195.980469 261.53125 185.976562 261.496094 175.976562 261.484375 C 171.644531 261.484375 167.144531 261.257812 162.644531 261.203125 C 162.652344 261.152344 162.65625 261.109375 162.65625 261.050781 C 162.257812 247.863281 163.390625 234.984375 168.234375 222.59375 C 170.242188 217.449219 172.632812 212.273438 176.152344 207.96875 C 180.296875 202.894531 185.5625 200.363281 191.71875 198.472656 C 197.578125 196.679688 203.804688 195.238281 209.976562 194.980469 C 209.539062 195.765625 209.613281 196.699219 210.03125 197.570312 C 209.953125 197.421875 209.941406 197.445312 210.003906 197.652344 C 210.082031 197.890625 210.214844 198.121094 210.320312 198.34375 C 210.496094 198.707031 210.671875 199.0625 210.902344 199.386719 C 211.359375 200.03125 211.914062 200.625 212.554688 201.085938 C 213.421875 201.703125 214.605469 201.988281 215.546875 201.300781 C 216.386719 200.683594 216.925781 199.503906 216.511719 198.472656 C 216.367188 198.113281 216.195312 197.734375 216.003906 197.359375 C 215.785156 196.515625 215.296875 195.683594 214.714844 195.03125 C 219.648438 195.359375 224.480469 196.585938 228.988281 199.167969 C 238.300781 204.511719 244.449219 214.320312 247.539062 224.386719 Z M 243.414062 286.179688 C 243.386719 285.074219 244.3125 284.371094 245.367188 284.515625 C 245.703125 284.558594 246 284.703125 246.25 284.890625 C 246.707031 285.203125 246.972656 285.757812 247.027344 286.328125 C 247.03125 286.375 247.03125 286.425781 247.039062 286.46875 L 247.039062 286.601562 C 247.039062 286.832031 247.011719 287.0625 246.933594 287.289062 C 246.46875 288.59375 244.828125 289.121094 243.753906 288.171875 C 243.195312 287.679688 243.125 286.929688 243.425781 286.347656 C 243.421875 286.289062 243.414062 286.238281 243.414062 286.179688 Z M 195.730469 284.914062 C 196.15625 284.308594 197.125 284.253906 197.726562 284.542969 C 198.085938 284.714844 198.417969 284.960938 198.675781 285.261719 C 198.964844 285.484375 199.183594 285.796875 199.304688 286.148438 C 199.652344 287.171875 199.136719 288.394531 198.105469 288.765625 C 197.96875 288.8125 197.839844 288.84375 197.710938 288.867188 C 196.699219 289.144531 195.605469 288.601562 195.25 287.601562 C 195.195312 287.457031 195.171875 287.320312 195.152344 287.175781 C 194.972656 286.398438 195.257812 285.582031 195.730469 284.914062 Z M 254.4375 291.894531 C 255.738281 290.519531 256.953125 289.054688 258.160156 287.597656 C 258.238281 292.777344 258.617188 297.957031 258.847656 303.140625 C 254.917969 306.734375 250.636719 309.929688 246.0625 312.675781 C 243.980469 313.921875 241.125 313.9375 239.28125 312.179688 C 235.792969 308.859375 232.273438 305.5625 228.714844 302.300781 C 226.851562 300.597656 224.984375 298.894531 223.09375 297.210938 C 222.46875 296.644531 221.378906 295.429688 220.425781 294.574219 C 219.121094 295.785156 217.730469 297.589844 216.847656 298.449219 C 215.105469 300.121094 213.347656 301.78125 211.523438 303.375 C 207.90625 306.546875 203.988281 309.867188 199.523438 311.800781 C 193.484375 314.40625 189.015625 308.722656 184.757812 305.1875 C 181.238281 302.28125 177.730469 299.363281 174.210938 296.457031 C 170.207031 298.511719 166.316406 300.789062 162.519531 303.207031 C 160.476562 304.523438 158.433594 306.171875 156.296875 307.625 C 156.265625 303.273438 155.992188 298.898438 155.757812 294.570312 C 156.179688 294.285156 156.613281 294.007812 157.023438 293.730469 C 162.171875 290.28125 167.648438 287.386719 173.230469 284.703125 C 175 283.851562 177.285156 284.671875 178.679688 285.820312 C 182.042969 288.59375 185.410156 291.367188 188.78125 294.144531 C 191.289062 296.222656 193.902344 298.945312 196.679688 300.925781 C 200.441406 299.023438 203.96875 295.40625 206.8125 292.726562 C 210.203125 289.535156 214.335938 283.675781 219.136719 282.828125 C 224.835938 281.820312 229.808594 288.316406 233.558594 291.707031 C 236.953125 294.777344 240.304688 297.882812 243.636719 301.015625 C 247.539062 298.359375 251.160156 295.355469 254.4375 291.894531 Z M 222.824219 312.832031 C 222.8125 312.839844 222.800781 312.847656 222.789062 312.863281 C 222.300781 313.738281 221.234375 314.226562 220.25 313.71875 C 219.957031 313.566406 219.738281 313.328125 219.589844 313.050781 C 219.046875 312.644531 218.664062 312.03125 218.648438 311.324219 C 218.621094 310.371094 219.234375 309.636719 220.03125 309.390625 C 220.261719 309.234375 220.527344 309.113281 220.816406 309.058594 C 221.863281 308.859375 222.8125 309.5 223.207031 310.449219 C 223.535156 311.234375 223.394531 312.191406 222.824219 312.832031 Z M 174.652344 312.015625 C 174.136719 312.117188 173.628906 311.976562 173.214844 311.675781 C 173.03125 311.597656 172.847656 311.5 172.691406 311.367188 C 171.925781 310.75 171.660156 309.660156 172.113281 308.777344 C 172.179688 308.644531 172.269531 308.523438 172.363281 308.410156 C 172.386719 308.355469 172.402344 308.300781 172.429688 308.25 C 172.671875 307.8125 173.148438 307.429688 173.675781 307.441406 C 173.96875 307.445312 174.246094 307.519531 174.511719 307.617188 C 175.492188 307.785156 176.246094 308.628906 176.316406 309.625 C 176.382812 310.671875 175.738281 311.804688 174.652344 312.015625 Z M 134.816406 212.832031 C 124.679688 206.265625 119.851562 195.25 120.449219 183.351562 C 120.738281 177.664062 121.769531 170.78125 124.628906 165.757812 C 127.625 160.519531 134.257812 157.683594 139.707031 155.800781 C 150.84375 151.960938 162.082031 154.136719 170.46875 162.503906 C 174.792969 166.828125 177.761719 172.296875 179.578125 178.105469 C 181.265625 183.5 183.039062 191.117188 181.917969 196.988281 C 180.109375 197.933594 178.390625 199.035156 176.816406 200.359375 C 172.214844 204.214844 168.90625 209.382812 166.367188 214.765625 C 165.722656 216.128906 165.125 217.527344 164.546875 218.941406 C 154.175781 219.679688 143.808594 218.65625 134.816406 212.832031 Z M 204.746094 112.074219 C 205.292969 111.914062 205.789062 111.589844 206.136719 111.09375 C 206.746094 110.199219 206.695312 108.785156 205.941406 107.960938 C 205.902344 107.886719 205.875 107.8125 205.828125 107.742188 C 205.296875 106.925781 204.445312 106.230469 203.765625 105.535156 C 202.816406 104.574219 200.972656 104.714844 200.128906 105.738281 C 200.003906 105.890625 199.910156 106.039062 199.820312 106.195312 C 196.238281 101.203125 193.539062 95.527344 192 89.273438 C 190.671875 83.871094 190.300781 78.074219 193.246094 73.113281 C 196.1875 68.171875 201.582031 65.089844 207.316406 64.929688 C 218.753906 64.609375 228.621094 73.949219 232.117188 84.164062 C 236.328125 96.492188 238.3125 110.40625 237.441406 123.414062 C 235.71875 123.902344 234.027344 124.535156 232.410156 125.324219 C 231.429688 125.804688 230.480469 126.335938 229.554688 126.902344 C 229.484375 126.867188 229.421875 126.839844 229.351562 126.816406 C 219.933594 123.980469 211.398438 118.921875 204.746094 112.074219 Z M 289 148.007812 C 282.183594 134.417969 269.128906 124.378906 253.910156 122.410156 C 249.738281 121.871094 245.394531 121.863281 241.199219 122.566406 C 242.207031 109.234375 240.253906 94.855469 235.761719 82.292969 C 231.804688 71.226562 221.511719 61.78125 209.375 60.945312 C 198.167969 60.167969 188.066406 68.511719 187.203125 79.796875 C 186.375 90.644531 192.132812 102.273438 198.792969 110.492188 C 205.828125 119.175781 215.566406 126.144531 226.472656 128.960938 C 225.109375 129.9375 223.777344 130.972656 222.457031 132.019531 C 219.605469 134.28125 216.734375 136.554688 214.707031 139.625 C 209.945312 146.859375 208.320312 156.589844 208.117188 165.09375 C 207.914062 173.207031 208.996094 183.191406 213.828125 190.113281 C 207.84375 189.859375 201.726562 190.722656 195.824219 192.191406 C 192.609375 192.996094 189.320312 193.875 186.175781 195.082031 C 186.589844 189.878906 185.210938 183.804688 184.039062 179.257812 C 182.417969 172.9375 179.542969 166.890625 175.300781 161.898438 C 167.402344 152.597656 155.796875 148.085938 143.742188 150.550781 C 137.460938 151.828125 130.726562 154.566406 125.699219 158.621094 C 120.570312 162.761719 118.738281 169.070312 117.59375 175.324219 C 115.203125 188.429688 117.464844 202.171875 127.535156 211.585938 C 137.078125 220.492188 150.746094 223.503906 163.476562 221.722656 C 158.90625 234.214844 157.0625 248.261719 159.15625 261.203125 C 154.914062 261.265625 150.71875 261.578125 146.703125 262.480469 C 145.898438 262.65625 145.367188 263.613281 145.410156 264.386719 C 145.613281 268 146.035156 271.574219 146.6875 275.140625 C 146.804688 275.769531 147.171875 276.210938 147.625 276.46875 C 147.785156 276.722656 148.039062 276.929688 148.394531 277.027344 C 149.84375 277.433594 151.3125 277.660156 152.800781 277.804688 C 152.476562 283.9375 152.820312 290.191406 153.089844 296.34375 C 153.167969 298.101562 153.234375 299.851562 153.28125 301.585938 C 153.355469 304.171875 153.429688 306.75 153.5 309.34375 C 153.554688 311.347656 153.609375 313.359375 153.667969 315.367188 C 153.753906 318.714844 153.628906 322.195312 153.949219 325.578125 C 153.96875 326.265625 154.03125 326.929688 154.136719 327.589844 C 154.144531 327.6875 154.15625 327.78125 154.175781 327.867188 C 154.191406 327.980469 154.214844 328.085938 154.238281 328.195312 C 154.195312 328.324219 154.175781 328.460938 154.195312 328.613281 C 154.308594 329.390625 154.324219 329.570312 154.667969 330.277344 C 154.75 330.457031 154.871094 330.597656 154.996094 330.710938 C 155.03125 330.78125 155.089844 330.84375 155.128906 330.910156 C 155.789062 332.160156 156.816406 333.199219 158.382812 333.890625 C 159.054688 334.1875 159.769531 334.441406 160.507812 334.648438 C 160.609375 334.714844 160.722656 334.785156 160.859375 334.824219 C 163.597656 335.738281 166.371094 336.355469 169.242188 336.214844 C 171.230469 336.480469 173.265625 336.546875 175.273438 336.605469 C 181.363281 336.777344 187.460938 336.785156 193.558594 336.574219 C 194.378906 336.554688 195.195312 336.511719 196.011719 336.492188 C 207.417969 337.191406 218.902344 337.0625 230.265625 336.269531 C 238.042969 335.730469 245.960938 335.089844 253.605469 333.492188 C 253.644531 333.488281 253.6875 333.484375 253.722656 333.476562 C 260.828125 332.25 262.570312 330.859375 263.796875 326.800781 C 265.019531 322.773438 263.359375 312.144531 263.34375 312.046875 C 263.230469 310.613281 263.117188 309.175781 263.011719 307.734375 C 262.957031 307.113281 262.914062 306.46875 262.875 305.8125 C 262.828125 303.628906 262.761719 301.453125 262.699219 299.308594 C 262.695312 299 262.683594 298.699219 262.671875 298.386719 C 262.550781 294.035156 262.304688 289.695312 261.96875 285.347656 C 261.917969 284.695312 261.890625 284.011719 261.855469 283.308594 C 261.742188 281.085938 261.652344 278.707031 261.148438 276.535156 C 262.03125 276.40625 262.933594 276.261719 263.816406 276.101562 C 265.769531 276.03125 267.890625 275.40625 269.554688 275.15625 C 271.785156 274.828125 274.929688 274.796875 274.683594 271.753906 C 274.5625 270.308594 274.046875 268.769531 273.746094 267.332031 C 273.472656 266.089844 273.410156 264.292969 272.59375 263.238281 C 271.429688 261.710938 268.726562 262.128906 266.777344 262.632812 C 262.6875 262.507812 258.597656 262.40625 254.507812 262.304688 C 256.507812 239.75 255.222656 213.828125 236.90625 198.773438 C 244.980469 198.980469 253.105469 198.980469 261.128906 198 C 268.683594 197.082031 277.359375 195.765625 282.960938 190.140625 C 285.710938 187.378906 287.78125 183.738281 289.695312 180.382812 C 291.648438 176.960938 293.332031 173.285156 293.839844 169.34375 C 294.765625 162.148438 292.1875 154.363281 289 148.007812 " fill-opacity="1" fill-rule="nonzero"/></g><path fill="#ffb100" d="M 247.039062 286.46875 L 247.039062 286.601562 C 247.039062 286.832031 247.011719 287.0625 246.933594 287.289062 C 246.46875 288.59375 244.828125 289.121094 243.753906 288.171875 C 243.195312 287.679688 243.125 286.929688 243.425781 286.347656 C 243.421875 286.289062 243.414062 286.238281 243.414062 286.179688 C 243.386719 285.074219 244.3125 284.371094 245.367188 284.515625 C 245.703125 284.558594 246 284.703125 246.25 284.890625 C 246.707031 285.203125 246.972656 285.757812 247.027344 286.328125 C 247.03125 286.375 247.03125 286.425781 247.039062 286.46875 " fill-opacity="1" fill-rule="nonzero"/><path fill="#ffb100" d="M 198.105469 288.765625 C 197.96875 288.8125 197.839844 288.84375 197.710938 288.867188 C 196.699219 289.144531 195.605469 288.601562 195.25 287.601562 C 195.195312 287.457031 195.171875 287.320312 195.152344 287.175781 C 194.972656 286.398438 195.257812 285.582031 195.730469 284.914062 C 196.15625 284.308594 197.125 284.253906 197.726562 284.542969 C 198.085938 284.714844 198.417969 284.960938 198.675781 285.261719 C 198.964844 285.484375 199.183594 285.796875 199.304688 286.148438 C 199.652344 287.171875 199.136719 288.394531 198.105469 288.765625 " fill-opacity="1" fill-rule="nonzero"/><path fill="#ffb100" d="M 176.316406 309.625 C 176.382812 310.671875 175.738281 311.804688 174.652344 312.015625 C 174.136719 312.117188 173.628906 311.976562 173.214844 311.675781 C 173.03125 311.597656 172.847656 311.5 172.691406 311.367188 C 171.925781 310.75 171.660156 309.660156 172.113281 308.777344 C 172.179688 308.644531 172.269531 308.523438 172.363281 308.410156 C 172.386719 308.355469 172.402344 308.300781 172.429688 308.25 C 172.671875 307.8125 173.148438 307.429688 173.675781 307.441406 C 173.96875 307.445312 174.246094 307.519531 174.511719 307.617188 C 175.492188 307.785156 176.246094 308.628906 176.316406 309.625 " fill-opacity="1" fill-rule="nonzero"/><path fill="#ffb100" d="M 222.824219 312.832031 C 222.8125 312.839844 222.800781 312.847656 222.789062 312.863281 C 222.300781 313.738281 221.234375 314.226562 220.25 313.71875 C 219.957031 313.566406 219.738281 313.328125 219.589844 313.050781 C 219.046875 312.644531 218.664062 312.03125 218.648438 311.324219 C 218.621094 310.371094 219.234375 309.636719 220.03125 309.390625 C 220.261719 309.234375 220.527344 309.113281 220.816406 309.058594 C 221.863281 308.859375 222.8125 309.5 223.207031 310.449219 C 223.535156 311.234375 223.394531 312.191406 222.824219 312.832031 " fill-opacity="1" fill-rule="nonzero"/><path fill="#b4906f" d="M 258.847656 303.140625 C 254.917969 306.734375 250.636719 309.929688 246.0625 312.675781 C 243.980469 313.921875 241.125 313.9375 239.28125 312.179688 C 235.792969 308.859375 232.273438 305.5625 228.714844 302.300781 C 226.851562 300.597656 224.984375 298.894531 223.09375 297.210938 C 222.46875 296.644531 221.378906 295.429688 220.425781 294.574219 C 219.121094 295.785156 217.730469 297.589844 216.847656 298.449219 C 215.105469 300.121094 213.347656 301.78125 211.523438 303.375 C 207.90625 306.546875 203.988281 309.867188 199.523438 311.800781 C 193.484375 314.40625 189.015625 308.722656 184.757812 305.1875 C 181.238281 302.28125 177.730469 299.363281 174.210938 296.457031 C 170.207031 298.511719 166.316406 300.789062 162.519531 303.207031 C 160.476562 304.523438 158.433594 306.171875 156.296875 307.625 C 156.265625 303.273438 155.992188 298.898438 155.757812 294.570312 C 156.179688 294.285156 156.613281 294.007812 157.023438 293.730469 C 162.171875 290.28125 167.648438 287.386719 173.230469 284.703125 C 175 283.851562 177.285156 284.671875 178.679688 285.820312 C 182.042969 288.59375 185.410156 291.367188 188.78125 294.144531 C 191.289062 296.222656 193.902344 298.945312 196.679688 300.925781 C 200.441406 299.023438 203.96875 295.40625 206.8125 292.726562 C 210.203125 289.535156 214.335938 283.675781 219.136719 282.828125 C 224.835938 281.820312 229.808594 288.316406 233.558594 291.707031 C 236.953125 294.777344 240.304688 297.882812 243.636719 301.015625 C 247.539062 298.359375 251.160156 295.355469 254.4375 291.894531 C 255.738281 290.519531 256.953125 289.054688 258.160156 287.597656 C 258.238281 292.777344 258.617188 297.957031 258.847656 303.140625 " fill-opacity="1" fill-rule="nonzero"/><path fill="#000000" d="M 147.1875 171.113281 C 146.792969 170.34375 146.414062 169.546875 145.949219 168.808594 C 145.867188 168.644531 145.765625 168.5 145.652344 168.367188 C 145.402344 168.015625 145.128906 167.683594 144.808594 167.382812 C 143.503906 166.152344 141.070312 167.253906 141.269531 169.089844 C 141.273438 169.164062 141.289062 169.234375 141.300781 169.308594 C 141.292969 169.339844 141.28125 169.367188 141.277344 169.398438 C 140.960938 171.628906 142.203125 173.5 144.007812 174.679688 C 144.878906 175.25 146.335938 174.902344 146.972656 174.125 C 147.722656 173.207031 147.714844 172.132812 147.1875 171.113281 " fill-opacity="1" fill-rule="nonzero"/><path fill="#000000" d="M 159.679688 189.863281 C 159.664062 189.714844 159.636719 189.570312 159.585938 189.421875 C 159.332031 188.671875 158.890625 188.132812 158.398438 187.539062 C 157.917969 186.96875 157.472656 186.332031 156.855469 185.902344 C 155.886719 185.226562 154.726562 185.066406 153.769531 185.890625 C 152.992188 186.566406 152.839844 187.488281 153.117188 188.386719 C 153.097656 188.390625 153.085938 188.398438 153.070312 188.402344 C 153.132812 188.550781 153.210938 188.699219 153.289062 188.851562 C 153.277344 188.832031 153.289062 188.855469 153.316406 188.90625 C 153.324219 188.925781 153.332031 188.941406 153.339844 188.957031 C 153.417969 189.113281 153.558594 189.386719 153.609375 189.488281 C 153.6875 189.632812 153.765625 189.773438 153.847656 189.914062 C 154.050781 190.261719 154.273438 190.597656 154.523438 190.921875 C 155.058594 191.621094 155.65625 192.28125 156.316406 192.863281 C 158.257812 194.578125 161.089844 192.101562 159.71875 189.921875 C 159.707031 189.902344 159.691406 189.882812 159.679688 189.863281 " fill-opacity="1" fill-rule="nonzero"/><path fill="#000000" d="M 167.121094 174.578125 C 166.859375 173.554688 166.289062 172.34375 165.507812 171.40625 C 165.375 171.234375 165.230469 171.066406 165.085938 170.902344 C 165.023438 170.804688 164.972656 170.707031 164.910156 170.613281 C 164.222656 169.570312 162.839844 169.226562 161.734375 169.765625 C 160.707031 170.273438 159.945312 171.652344 160.457031 172.792969 C 160.503906 172.90625 160.550781 173.011719 160.601562 173.117188 C 160.898438 174.941406 162.207031 176.640625 163.863281 177.386719 C 165.785156 178.25 167.625 176.550781 167.121094 174.578125 " fill-opacity="1" fill-rule="nonzero"/><path fill="#000000" d="M 143.359375 188.066406 C 143.125 187.546875 142.835938 187.003906 142.484375 186.507812 C 142.3125 186.207031 142.132812 185.898438 141.941406 185.613281 C 141.40625 184.8125 140.585938 184.464844 139.769531 184.476562 C 138.773438 183.582031 137.074219 184.726562 137.289062 185.972656 C 137.03125 186.515625 137.003906 187.125 137.167969 187.703125 C 137.410156 189.230469 138.347656 190.414062 139.667969 191.25 C 140.128906 191.542969 140.636719 191.617188 141.132812 191.542969 C 141.160156 191.550781 141.183594 191.5625 141.210938 191.570312 C 142.554688 191.957031 143.6875 190.699219 143.679688 189.460938 C 143.679688 189.140625 143.605469 188.851562 143.511719 188.574219 C 143.480469 188.40625 143.4375 188.234375 143.359375 188.066406 " fill-opacity="1" fill-rule="nonzero"/><path fill="#000000" d="M 154.214844 206.90625 C 153.699219 205.941406 152.941406 204.898438 151.988281 204.285156 C 151.964844 204.261719 151.945312 204.234375 151.925781 204.210938 C 151.90625 204.1875 151.882812 204.160156 151.863281 204.128906 C 151.71875 203.976562 151.589844 203.8125 151.449219 203.65625 C 150.648438 202.742188 149.054688 202.929688 148.226562 203.648438 C 147.359375 204.398438 147.027344 205.863281 147.773438 206.839844 C 148.539062 207.925781 149.320312 208.984375 150.121094 210.042969 C 150.941406 211.121094 152.53125 211.632812 153.71875 210.769531 C 154.757812 210.015625 155.363281 208.300781 154.445312 207.179688 C 154.367188 207.085938 154.289062 207 154.214844 206.90625 " fill-opacity="1" fill-rule="nonzero"/><path fill="#000000" d="M 137.679688 201.714844 C 137.617188 201.628906 137.554688 201.542969 137.480469 201.457031 C 137.015625 200.921875 136.519531 200.414062 136.03125 199.902344 C 135.300781 199.121094 134.347656 199.054688 133.511719 199.386719 C 133.429688 199.355469 133.351562 199.316406 133.269531 199.292969 C 131.785156 198.792969 130.941406 200.691406 131.558594 201.792969 C 131.582031 201.839844 131.609375 201.878906 131.636719 201.925781 C 131.636719 202.382812 131.785156 202.847656 132.121094 203.285156 C 132.8125 204.167969 133.441406 205.035156 134.339844 205.695312 C 134.613281 206.023438 134.882812 206.355469 135.148438 206.695312 C 135.859375 207.871094 137.566406 208.144531 138.675781 207.410156 C 139.804688 206.660156 140.167969 205.023438 139.390625 203.886719 C 138.867188 203.125 138.285156 202.410156 137.679688 201.714844 " fill-opacity="1" fill-rule="nonzero"/><path fill="#000000" d="M 126.679688 178.554688 C 126.140625 177.472656 124.554688 177.25 123.578125 177.730469 C 122.71875 178.148438 122.210938 179.019531 122.21875 179.945312 C 122.109375 180.398438 122.113281 180.894531 122.25 181.382812 C 122.460938 182.128906 122.667969 182.871094 122.875 183.621094 C 123.242188 184.921875 124.890625 185.722656 126.140625 185.238281 C 127.269531 184.800781 127.863281 183.832031 127.847656 182.726562 C 128.074219 181.746094 127.65625 180.773438 127.195312 179.878906 C 127.054688 179.425781 126.894531 178.980469 126.679688 178.554688 " fill-opacity="1" fill-rule="nonzero"/><path fill="#000000" d="M 133.222656 168.183594 C 134.015625 167.605469 134.515625 166.503906 134.125 165.539062 C 134.066406 165.382812 134 165.222656 133.933594 165.058594 C 133.933594 165.035156 133.9375 165.011719 133.9375 164.992188 C 133.953125 164.175781 133.632812 163.28125 133.449219 162.484375 C 133.175781 161.285156 131.734375 160.65625 130.636719 160.867188 C 129.515625 161.082031 128.464844 162.191406 128.632812 163.414062 C 128.695312 163.054688 128.703125 163.0625 128.664062 163.421875 C 128.65625 163.421875 128.644531 163.417969 128.632812 163.414062 C 128.640625 163.464844 128.644531 163.523438 128.652344 163.578125 C 128.644531 163.675781 128.636719 163.777344 128.632812 163.882812 C 128.625 164.039062 128.625 164.199219 128.644531 164.359375 C 128.6875 164.816406 128.777344 165.296875 128.925781 165.730469 C 129.214844 166.554688 129.734375 167.429688 130.425781 167.980469 C 131.199219 168.597656 132.371094 168.800781 133.222656 168.183594 " fill-opacity="1" fill-rule="nonzero"/><path fill="#000000" d="M 149.324219 158.445312 C 149.332031 158.453125 149.339844 158.464844 149.351562 158.472656 C 149.339844 158.476562 149.332031 158.484375 149.324219 158.488281 C 149.386719 158.539062 149.445312 158.597656 149.5 158.652344 C 149.519531 158.675781 149.53125 158.683594 149.542969 158.695312 C 149.574219 158.746094 149.59375 158.777344 149.609375 158.796875 C 149.6875 158.902344 149.75 159.015625 149.824219 159.128906 C 150.140625 159.816406 150.527344 160.398438 151.203125 160.78125 C 151.53125 160.964844 151.863281 161.035156 152.199219 161.035156 C 153.117188 161.472656 154.273438 161.070312 154.828125 160.261719 C 155.320312 159.546875 155.328125 158.570312 154.855469 157.855469 C 154.75 157.691406 154.640625 157.554688 154.507812 157.441406 C 154.066406 156.257812 152.964844 155.28125 151.964844 154.640625 C 150.976562 154.011719 149.574219 154.53125 148.96875 155.417969 C 148.378906 156.277344 148.390625 157.683594 149.238281 158.40625 C 149.183594 158.339844 149.1875 158.304688 149.324219 158.445312 " fill-opacity="1" fill-rule="nonzero"/><path fill="#000000" d="M 172.304688 192.546875 C 172.582031 193.222656 173.125 193.734375 173.777344 193.945312 C 174.875 194.59375 176.269531 193.933594 176.929688 192.933594 C 177.660156 191.820312 177.277344 190.359375 176.941406 189.175781 C 176.652344 188.152344 176.179688 187.195312 175.65625 186.273438 C 174.496094 184.234375 170.785156 185.367188 171.171875 187.765625 C 171.429688 189.351562 171.703125 191.046875 172.304688 192.546875 " fill-opacity="1" fill-rule="nonzero"/><path fill="#000000" d="M 224.132812 176.394531 C 223.914062 175.144531 223.144531 174.101562 221.785156 174.019531 C 220.644531 173.949219 219.214844 174.722656 219.097656 176 C 219.074219 176.230469 219.066406 176.453125 219.054688 176.683594 C 219.039062 176.75 219.042969 176.820312 219.042969 176.894531 C 218.953125 178.503906 219.058594 180.035156 219.5 181.632812 C 219.800781 182.746094 221.082031 183.386719 222.15625 183.164062 C 223.171875 182.953125 223.734375 182.269531 223.953125 181.371094 C 224.320312 180.894531 224.535156 180.308594 224.464844 179.691406 C 224.339844 178.597656 224.316406 177.472656 224.132812 176.394531 " fill-opacity="1" fill-rule="nonzero"/><path fill="#000000" d="M 233.59375 165.050781 C 234.597656 164.417969 234.921875 163.351562 235.296875 162.269531 C 235.601562 161.398438 235.90625 160.53125 236.207031 159.660156 C 236.621094 158.472656 235.636719 157.09375 234.558594 156.730469 C 233.257812 156.289062 232.160156 156.867188 231.425781 157.957031 C 230.410156 159.464844 229.609375 161.246094 229.386719 163.0625 C 229.058594 165.753906 232.167969 166.785156 233.59375 165.050781 " fill-opacity="1" fill-rule="nonzero"/><path fill="#000000" d="M 239.5 174.375 C 238.542969 173.71875 236.902344 173.726562 236.164062 174.761719 C 235.757812 175.328125 235.335938 175.878906 234.886719 176.40625 C 234.378906 177 233.734375 177.636719 233.46875 178.378906 C 233.222656 179.058594 233.144531 179.738281 233.394531 180.367188 C 233.375 181.023438 233.601562 181.667969 234.179688 182.144531 C 235.113281 182.910156 236.875 183.074219 237.664062 181.945312 C 237.785156 181.773438 237.898438 181.597656 238.015625 181.421875 C 238.027344 181.414062 238.03125 181.398438 238.035156 181.386719 C 238.851562 180.164062 239.582031 178.882812 240.34375 177.628906 C 241 176.539062 240.480469 175.046875 239.5 174.375 " fill-opacity="1" fill-rule="nonzero"/><path fill="#000000" d="M 221.792969 155.765625 C 222.742188 154.824219 222.984375 153.460938 223.308594 152.214844 C 223.363281 152 223.433594 151.78125 223.488281 151.566406 C 223.796875 150.652344 224.066406 149.726562 224.328125 148.828125 C 225.167969 145.933594 220.347656 144.15625 219.292969 147.03125 C 218.804688 148.378906 218.019531 150.15625 217.707031 151.871094 C 217.628906 152.121094 217.542969 152.371094 217.46875 152.625 C 217.488281 152.628906 217.507812 152.632812 217.523438 152.636719 C 217.417969 153.214844 217.472656 153.796875 217.699219 154.304688 C 217.75 154.535156 217.820312 154.757812 217.914062 154.96875 C 218.632812 156.578125 220.496094 157.042969 221.792969 155.765625 " fill-opacity="1" fill-rule="nonzero"/><path fill="#000000" d="M 251.699219 156.746094 C 251.710938 156.734375 251.71875 156.71875 251.730469 156.703125 C 251.804688 156.621094 251.867188 156.527344 251.925781 156.433594 C 252.039062 156.273438 252.152344 156.117188 252.257812 155.964844 C 253.355469 155.164062 254.0625 153.691406 254.769531 152.597656 C 255.429688 151.574219 254.890625 150.066406 253.949219 149.445312 C 252.96875 148.796875 251.507812 148.847656 250.714844 149.820312 C 250.644531 149.910156 250.574219 150 250.503906 150.089844 C 250.246094 150.339844 250.035156 150.640625 249.839844 150.949219 C 249.085938 151.949219 248.398438 153 247.890625 154.136719 C 247.375 155.28125 247.746094 156.679688 248.902344 157.269531 C 249.839844 157.75 251.003906 157.5 251.695312 156.742188 L 251.699219 156.746094 " fill-opacity="1" fill-rule="nonzero"/><path fill="#000000" d="M 235.652344 145.652344 C 236.894531 146.097656 237.972656 145.503906 238.542969 144.472656 L 238.582031 144.507812 C 239.167969 143.535156 239.640625 142.507812 240.140625 141.488281 C 240.691406 140.359375 240.347656 139.003906 239.3125 138.292969 C 239.164062 138.195312 239 138.117188 238.832031 138.046875 C 238.082031 137.507812 236.945312 137.441406 236.324219 138.261719 C 236.226562 138.390625 236.144531 138.515625 236.066406 138.644531 C 236.058594 138.65625 236.042969 138.664062 236.039062 138.675781 C 235.320312 139.613281 234.53125 140.878906 234.410156 142.105469 C 234.378906 142.183594 234.347656 142.253906 234.320312 142.328125 C 233.839844 143.667969 234.171875 145.125 235.652344 145.652344 " fill-opacity="1" fill-rule="nonzero"/><path fill="#000000" d="M 256.9375 130.074219 C 255.621094 129.402344 254.078125 129.976562 253.375 131.226562 C 252.726562 132.378906 251.75 133.40625 251.476562 134.726562 C 251.363281 135.277344 251.457031 135.757812 251.675781 136.160156 C 251.699219 136.730469 251.835938 137.296875 252.117188 137.839844 C 252.699219 138.949219 254.226562 138.988281 255.175781 138.457031 C 256.699219 137.609375 257.292969 135.171875 258.089844 133.636719 C 258.746094 132.363281 258.203125 130.722656 256.9375 130.074219 " fill-opacity="1" fill-rule="nonzero"/><path fill="#000000" d="M 265.214844 150.371094 C 266.445312 151.003906 267.828125 149.992188 268.464844 148.980469 C 269.070312 148.023438 269.476562 146.9375 269.992188 145.929688 C 270.59375 144.75 270.101562 143.234375 268.925781 142.632812 C 267.648438 141.980469 266.355469 142.585938 265.632812 143.699219 C 264.9375 144.777344 264.355469 145.875 264.105469 147.148438 C 264.089844 147.222656 264.09375 147.296875 264.085938 147.371094 C 263.828125 148.59375 263.992188 149.75 265.214844 150.371094 " fill-opacity="1" fill-rule="nonzero"/><path fill="#000000" d="M 285.011719 152.988281 C 284.988281 152.9375 284.980469 152.878906 284.953125 152.828125 C 284.601562 152.070312 283.800781 151.636719 283.066406 151.71875 C 282.023438 151.5625 280.90625 151.941406 280.460938 153.027344 C 279.972656 154.230469 279.730469 155.351562 279.75 156.535156 C 279.578125 157.273438 279.441406 158.011719 279.53125 158.78125 C 279.710938 160.332031 281.296875 161.152344 282.65625 160.347656 C 283.222656 160.011719 283.65625 159.566406 284.007812 159.046875 C 284.109375 158.921875 284.199219 158.785156 284.265625 158.628906 C 284.277344 158.601562 284.289062 158.570312 284.304688 158.546875 C 284.589844 157.996094 284.796875 157.394531 284.941406 156.773438 C 285.203125 155.855469 285.355469 154.886719 285.253906 153.988281 C 285.257812 153.613281 285.164062 153.28125 285.011719 152.988281 " fill-opacity="1" fill-rule="nonzero"/><path fill="#000000" d="M 266.644531 162.105469 C 265.890625 163.535156 265.308594 165.082031 265.058594 166.679688 C 264.871094 167.867188 265.441406 169.007812 266.601562 169.421875 C 267.46875 169.734375 268.4375 169.503906 269.078125 168.878906 C 269.921875 168.394531 270.515625 167.433594 270.894531 166.589844 C 271.359375 165.558594 271.5625 164.246094 271.46875 163.125 C 271.257812 160.613281 267.84375 159.835938 266.644531 162.105469 " fill-opacity="1" fill-rule="nonzero"/><path fill="#000000" d="M 281.265625 175.96875 C 280.917969 175.492188 280.4375 175.199219 279.921875 175.109375 C 278.910156 174.558594 277.453125 174.570312 276.71875 175.578125 C 276.496094 175.886719 276.277344 176.207031 276.054688 176.519531 C 276.007812 176.578125 275.886719 176.734375 275.828125 176.804688 C 275.398438 177.347656 274.867188 177.921875 274.800781 178.640625 C 274.796875 178.675781 274.800781 178.707031 274.796875 178.738281 C 274.699219 178.949219 274.59375 179.164062 274.511719 179.386719 C 274.074219 180.542969 274.238281 181.765625 275.320312 182.507812 C 276.246094 183.140625 277.796875 183.125 278.519531 182.136719 C 278.984375 181.5 279.453125 180.867188 279.921875 180.242188 C 280.445312 179.546875 281.066406 178.847656 281.382812 178.03125 C 281.367188 178.042969 281.355469 178.046875 281.339844 178.058594 C 281.6875 177.410156 281.71875 176.589844 281.265625 175.96875 " fill-opacity="1" fill-rule="nonzero"/><path fill="#000000" d="M 265.257812 183.121094 C 264.152344 182.363281 262.796875 182.597656 261.863281 183.515625 C 261.566406 183.804688 261.273438 184.09375 260.984375 184.386719 C 260.597656 184.640625 260.199219 184.878906 259.800781 185.113281 C 257.65625 186.375 258.960938 189.707031 261.292969 189.59375 C 263.382812 189.492188 265.042969 188.148438 266.117188 186.425781 C 266.796875 185.328125 266.246094 183.796875 265.257812 183.121094 " fill-opacity="1" fill-rule="nonzero"/><path fill="#000000" d="M 253.960938 169.324219 C 252.339844 170.636719 250.234375 172.589844 250.257812 174.835938 C 250.261719 175.132812 250.339844 175.40625 250.460938 175.652344 C 250.71875 176.425781 251.386719 176.921875 252.257812 176.9375 C 252.882812 177.039062 253.53125 176.902344 254.007812 176.4375 C 254.570312 176.132812 255.058594 175.722656 255.550781 175.203125 C 256.164062 174.554688 256.734375 173.871094 257.308594 173.1875 C 258.140625 172.203125 258.167969 170.78125 257.320312 169.796875 C 256.542969 168.90625 254.964844 168.511719 253.960938 169.324219 " fill-opacity="1" fill-rule="nonzero"/><path fill="#000000" d="M 247.171875 187.039062 C 245.972656 186.488281 244.867188 186.816406 243.910156 187.644531 C 242.992188 188.449219 242.046875 189.234375 241.179688 190.097656 L 241.21875 190.128906 C 240.480469 191.023438 240.199219 192.28125 240.949219 193.308594 C 241.75 194.414062 243.417969 194.929688 244.605469 194.050781 C 244.953125 193.792969 245.285156 193.515625 245.625 193.238281 C 245.882812 193.175781 246.136719 193.082031 246.382812 192.9375 C 246.53125 192.847656 246.527344 192.839844 246.46875 192.863281 C 246.828125 192.625 247.425781 192.132812 247.375 192.183594 C 247.992188 191.527344 248.296875 190.867188 248.585938 190.027344 C 248.957031 188.949219 248.164062 187.496094 247.171875 187.039062 " fill-opacity="1" fill-rule="nonzero"/><path fill="#000000" d="M 225.800781 113.308594 C 225.128906 112.257812 223.789062 111.878906 222.65625 112.265625 C 222.3125 112.320312 221.976562 112.453125 221.667969 112.679688 C 220.414062 113.589844 220.1875 115.078125 220.914062 116.394531 C 221.320312 117.136719 221.675781 117.867188 222.136719 118.519531 C 222.425781 119.101562 222.75 119.667969 223.160156 120.152344 C 224.011719 121.152344 225.335938 121.628906 226.535156 120.894531 C 226.753906 120.820312 226.972656 120.722656 227.171875 120.578125 C 228.40625 119.679688 228.757812 118.066406 227.945312 116.757812 C 227.230469 115.605469 226.527344 114.445312 225.800781 113.308594 " fill-opacity="1" fill-rule="nonzero"/><path fill="#000000" d="M 221.335938 99.027344 C 221.402344 99.289062 221.492188 99.542969 221.59375 99.789062 C 221.878906 100.476562 222.234375 101.140625 222.675781 101.742188 C 223.3125 102.609375 224.398438 103.019531 225.40625 102.675781 C 225.511719 102.652344 225.617188 102.632812 225.726562 102.597656 C 227.175781 102.109375 227.433594 100.355469 227.015625 99.09375 C 226.714844 98.167969 226.246094 97.292969 225.933594 96.367188 C 225.503906 95.105469 223.992188 94.273438 222.707031 94.769531 C 221.335938 95.300781 220.765625 96.609375 221.109375 97.996094 C 220.980469 97.476562 221.296875 98.890625 221.335938 99.027344 " fill-opacity="1" fill-rule="nonzero"/><path fill="#000000" d="M 230.507812 105.386719 C 230.617188 106.207031 230.632812 107 230.816406 107.820312 C 230.996094 108.617188 231.300781 109.335938 231.722656 110.039062 C 232.324219 111.039062 233.699219 111.320312 234.695312 110.832031 C 235.792969 110.292969 236.175781 109.148438 235.894531 107.996094 C 235.867188 107.894531 235.835938 107.796875 235.8125 107.695312 C 235.976562 106.609375 235.734375 105.558594 235.503906 104.421875 C 235.25 103.175781 233.703125 102.53125 232.585938 102.746094 C 231.421875 102.96875 230.335938 104.117188 230.507812 105.386719 " fill-opacity="1" fill-rule="nonzero"/><path fill="#000000" d="M 231.726562 88.867188 C 232.535156 87.769531 232.574219 86.820312 232.152344 85.570312 C 231.886719 84.773438 231.589844 83.964844 231.246094 83.199219 C 230.855469 82.347656 230.136719 81.714844 229.273438 81.554688 C 229.234375 81.519531 229.195312 81.476562 229.152344 81.441406 C 227.867188 80.371094 226.378906 81.605469 226.617188 83.058594 C 226.410156 83.59375 226.367188 84.199219 226.527344 84.789062 C 226.664062 85.304688 226.808594 85.859375 226.984375 86.40625 C 227.109375 86.851562 227.230469 87.296875 227.359375 87.738281 C 227.570312 88.453125 228.15625 88.96875 228.835938 89.203125 C 229.078125 89.351562 229.335938 89.476562 229.636719 89.550781 C 230.332031 89.726562 231.289062 89.460938 231.726562 88.867188 " fill-opacity="1" fill-rule="nonzero"/><path fill="#000000" d="M 214.675781 98.984375 C 214.167969 98.269531 213.554688 97.621094 212.984375 96.949219 C 212.429688 96.296875 211.621094 95.828125 210.789062 95.808594 C 209.652344 95.3125 208.710938 96.152344 208.628906 97.171875 C 208.191406 97.984375 208.121094 98.992188 208.714844 99.78125 C 209.371094 100.65625 209.945312 101.605469 210.578125 102.5 C 211.347656 103.585938 212.863281 103.945312 213.996094 103.195312 C 214.808594 102.65625 215.15625 101.742188 215.050781 100.851562 C 215.175781 100.21875 215.070312 99.542969 214.675781 98.984375 " fill-opacity="1" fill-rule="nonzero"/><path fill="#000000" d="M 213.914062 78.855469 C 213.484375 78.867188 213.058594 78.988281 212.644531 79.261719 C 211.726562 79.871094 211.226562 81.164062 211.628906 82.21875 C 212.144531 83.5625 212.65625 84.746094 213.566406 85.703125 C 213.683594 85.867188 213.796875 86.035156 213.921875 86.191406 C 214.75 87.210938 216.03125 87.714844 217.273438 87.082031 C 218.253906 86.585938 218.773438 85.632812 218.730469 84.59375 C 218.765625 84.4375 218.785156 84.28125 218.785156 84.121094 C 218.765625 82.292969 217.324219 80.722656 216.128906 79.480469 C 215.578125 78.90625 214.707031 78.726562 213.914062 78.855469 " fill-opacity="1" fill-rule="nonzero"/><path fill="#000000" d="M 217.988281 70.09375 C 217.253906 69.753906 216.496094 69.515625 215.703125 69.371094 C 214.460938 69.140625 213.246094 69.800781 212.820312 70.992188 C 212.40625 72.160156 212.902344 73.5 214.027344 74.074219 C 214.574219 74.351562 215.121094 74.628906 215.664062 74.910156 C 215.921875 75.039062 216.191406 75.105469 216.460938 75.136719 C 217.09375 75.394531 217.722656 75.492188 218.484375 75.230469 C 219.457031 74.898438 220.242188 73.851562 220.132812 72.792969 C 219.996094 71.4375 219.167969 70.636719 217.988281 70.09375 " fill-opacity="1" fill-rule="nonzero"/><path fill="#000000" d="M 206.015625 76.070312 C 205.929688 75.265625 205.707031 74.460938 205.464844 73.625 C 205.167969 72.605469 204.152344 71.96875 203.128906 71.929688 C 202.324219 71.625 201.34375 71.886719 200.941406 72.730469 C 200.710938 73.210938 200.621094 73.710938 200.605469 74.210938 C 200.597656 74.289062 200.597656 74.371094 200.597656 74.453125 C 200.601562 74.519531 200.597656 74.589844 200.601562 74.65625 C 200.605469 74.722656 200.613281 74.785156 200.621094 74.851562 C 200.71875 75.84375 201.070312 76.839844 201.394531 77.757812 C 201.597656 78.328125 202.003906 78.777344 202.5 79.070312 C 202.527344 79.09375 202.546875 79.121094 202.574219 79.140625 C 203.472656 79.890625 205.285156 79.847656 205.753906 78.550781 C 205.824219 78.34375 205.882812 78.144531 205.929688 77.945312 C 206.128906 77.414062 206.160156 76.800781 206.042969 76.191406 C 206.035156 76.148438 206.023438 76.109375 206.015625 76.070312 " fill-opacity="1" fill-rule="nonzero"/><path fill="#000000" d="M 199.179688 87.167969 C 198.121094 87.707031 197.332031 89.097656 197.859375 90.296875 C 198.152344 90.960938 198.445312 91.671875 198.796875 92.351562 C 198.9375 92.714844 199.070312 93.089844 199.199219 93.472656 C 199.21875 93.460938 199.234375 93.449219 199.25 93.4375 C 199.625 94.433594 200.410156 95.15625 201.515625 95.15625 C 202.632812 95.5 203.960938 94.839844 204.179688 93.625 C 204.542969 91.625 203.40625 89.765625 202.457031 88.042969 C 201.898438 86.90625 200.199219 86.648438 199.179688 87.167969 " fill-opacity="1" fill-rule="nonzero"/><path fill="#000000" d="M 204.058594 236.476562 C 203.453125 236.355469 202.765625 236.546875 202.25 236.9375 C 201.316406 237.390625 200.769531 238.382812 200.742188 239.476562 C 200.703125 241.105469 200.898438 243.039062 201.335938 244.605469 C 201.6875 245.871094 203.140625 246.605469 204.367188 246.351562 C 205.65625 246.082031 206.347656 245.117188 206.5 243.886719 C 206.558594 243.648438 206.59375 243.402344 206.574219 243.152344 C 206.390625 241.058594 206.742188 237.007812 204.058594 236.476562 " fill-opacity="1" fill-rule="nonzero"/><path fill="#000000" d="M 231.441406 245.359375 C 231.320312 244.707031 231.179688 244.0625 230.957031 243.460938 C 230.804688 243.019531 230.648438 242.601562 230.460938 242.195312 C 229.878906 240.914062 228.738281 240.082031 227.28125 240.367188 C 225.914062 240.628906 224.953125 241.84375 225.007812 243.253906 C 225.074219 244.851562 225.300781 246.457031 226.132812 247.824219 C 226.527344 249.09375 227.542969 250.171875 229.015625 250.019531 C 230.480469 249.875 231.882812 248.601562 231.703125 247.011719 C 231.640625 246.460938 231.546875 245.90625 231.441406 245.359375 " fill-opacity="1" fill-rule="nonzero"/><path fill="#000000" d="M 223.363281 219.917969 C 221.648438 217.898438 218.570312 218.773438 218.488281 221.539062 C 218.425781 223.695312 218.835938 226.0625 220.207031 227.804688 C 220.925781 228.714844 222.050781 229.167969 223.152344 228.746094 C 223.921875 228.585938 224.636719 228.121094 224.980469 227.414062 C 226.050781 225.214844 224.886719 221.714844 223.363281 219.917969 " fill-opacity="1" fill-rule="nonzero"/><path fill="#000000" d="M 235.550781 225.21875 C 235.90625 228.078125 237.121094 230.613281 239.226562 232.59375 C 241.019531 234.277344 243.648438 232.65625 243.675781 230.449219 C 243.691406 229.222656 243.5 227.96875 243.121094 226.777344 C 243.042969 226.503906 242.941406 226.238281 242.828125 225.980469 C 242.558594 225.316406 242.234375 224.683594 241.835938 224.101562 C 241.34375 223.386719 240.609375 223.042969 239.859375 222.996094 C 239.714844 222.894531 239.570312 222.792969 239.421875 222.699219 C 237.753906 221.621094 235.316406 223.324219 235.550781 225.21875 " fill-opacity="1" fill-rule="nonzero"/><path fill="#000000" d="M 193.554688 226.671875 C 193.570312 225.976562 193.285156 225.335938 192.828125 224.84375 C 192.761719 224.695312 192.695312 224.546875 192.621094 224.402344 C 191.582031 222.382812 188.234375 223.199219 187.875 225.292969 C 187.464844 227.703125 187.078125 230.109375 188.460938 232.320312 C 189.480469 233.949219 191.929688 233.488281 192.5625 231.832031 C 193.257812 231.300781 193.652344 230.433594 193.691406 229.488281 C 193.710938 228.902344 193.6875 228.3125 193.617188 227.730469 C 193.601562 227.375 193.582031 227.019531 193.554688 226.671875 " fill-opacity="1" fill-rule="nonzero"/><path fill="#000000" d="M 182.472656 245.800781 C 181.101562 245.714844 179.925781 246.574219 179.589844 247.925781 C 179.140625 249.71875 178.808594 251.453125 179.109375 253.308594 C 179.289062 254.417969 179.929688 255.375 181.089844 255.625 C 182.128906 255.847656 183.417969 255.324219 183.859375 254.3125 C 183.871094 254.285156 183.882812 254.253906 183.894531 254.222656 C 184.117188 254.023438 184.3125 253.777344 184.464844 253.476562 C 185.234375 251.9375 185.3125 250.019531 184.992188 248.347656 C 184.742188 247.011719 183.953125 245.890625 182.472656 245.800781 " fill-opacity="1" fill-rule="nonzero"/><path fill="#000000" d="M 172.804688 229.128906 C 171.566406 229.199219 170.675781 230.101562 170.332031 231.242188 C 169.691406 233.378906 169.675781 235.496094 170.132812 237.664062 C 170.355469 238.734375 171.65625 239.4375 172.667969 239.382812 C 173.863281 239.3125 174.632812 238.457031 174.996094 237.390625 C 175.230469 236.707031 175.457031 235.90625 175.578125 235.09375 C 175.917969 233.75 175.820312 232.257812 175.503906 230.953125 C 175.230469 229.820312 173.90625 229.066406 172.804688 229.128906 " fill-opacity="1" fill-rule="nonzero"/><path fill="#000000" d="M 204.988281 204.480469 C 203.960938 204.542969 203.0625 205.277344 202.753906 206.246094 C 202.628906 206.402344 202.519531 206.566406 202.445312 206.765625 C 202.363281 206.976562 202.296875 207.191406 202.234375 207.40625 C 202.214844 207.425781 202.210938 207.457031 202.207031 207.484375 C 201.75 209.148438 201.855469 210.917969 202.550781 212.527344 C 203.007812 213.585938 203.945312 214.347656 205.144531 214.28125 C 206.289062 214.214844 207.273438 213.355469 207.527344 212.25 C 207.996094 210.203125 207.925781 208.214844 207.496094 206.175781 C 207.269531 205.121094 205.988281 204.425781 204.988281 204.480469 " fill-opacity="1" fill-rule="nonzero"/><path fill="#000000" d="M 183.523438 206.621094 C 182.203125 206.171875 180.882812 206.71875 180.1875 207.925781 C 179.363281 209.347656 178.460938 211.25 178.6875 212.960938 C 178.675781 213.027344 178.652344 213.09375 178.640625 213.160156 C 178.3125 214.558594 179.289062 216.027344 180.679688 216.324219 C 181.949219 216.597656 183.003906 215.941406 183.566406 214.910156 C 183.582031 214.917969 183.597656 214.925781 183.609375 214.933594 C 183.683594 214.734375 183.75 214.535156 183.820312 214.339844 C 183.828125 214.320312 183.835938 214.304688 183.84375 214.285156 C 183.851562 214.253906 183.863281 214.21875 183.875 214.1875 C 184.015625 213.78125 184.152344 213.375 184.285156 212.960938 C 184.394531 212.640625 184.5 212.316406 184.59375 211.988281 C 184.824219 211.238281 185.050781 210.488281 185.28125 209.742188 C 185.679688 208.460938 184.710938 207.019531 183.523438 206.621094 " fill-opacity="1" fill-rule="nonzero"/><path fill="#000000" d="M 232.003906 208.277344 C 231.996094 208.152344 231.980469 208.03125 231.960938 207.914062 C 231.984375 207.34375 231.851562 206.761719 231.535156 206.226562 C 231.027344 205.378906 230.359375 204.601562 229.609375 203.957031 C 227.542969 202.175781 224.386719 204.253906 225.214844 206.859375 C 225.257812 206.992188 225.3125 207.128906 225.367188 207.265625 C 225.429688 207.460938 225.507812 207.660156 225.605469 207.855469 C 225.886719 208.410156 226.203125 208.933594 226.597656 209.410156 C 226.886719 209.765625 227.191406 210.132812 227.546875 210.425781 C 227.898438 210.738281 228.308594 210.945312 228.765625 211.046875 C 229.59375 211.109375 229.722656 211.121094 229.148438 211.078125 C 230.546875 211.316406 232.234375 210.226562 232.007812 208.628906 C 231.917969 209.230469 231.917969 209.113281 232.003906 208.277344 " fill-opacity="1" fill-rule="nonzero"/><path fill="#000000" d="M 217.179688 255.859375 C 217.144531 255.199219 217.105469 254.542969 217.066406 253.886719 C 216.988281 252.488281 215.734375 251.367188 214.335938 251.445312 C 212.855469 251.53125 211.917969 252.773438 211.898438 254.175781 C 211.894531 254.410156 211.90625 254.648438 211.925781 254.890625 L 211.96875 256.152344 C 211.988281 256.589844 212.09375 256.964844 212.261719 257.28125 C 212.40625 258.148438 212.597656 259.003906 212.859375 259.84375 C 213.195312 260.941406 214.410156 261.597656 215.507812 261.371094 C 216.6875 261.121094 217.382812 260.15625 217.398438 258.964844 C 217.410156 258.160156 217.34375 257.277344 217.15625 256.425781 C 217.179688 256.246094 217.191406 256.058594 217.179688 255.859375 " fill-opacity="1" fill-rule="nonzero"/><path fill="#000000" d="M 134.414062 142.933594 C 134.09375 140.886719 133.761719 138.835938 133.394531 136.792969 C 133.253906 135.730469 133.128906 134.664062 133.019531 133.59375 C 133 133.367188 132.980469 133.132812 132.957031 132.90625 C 133.765625 133.28125 135.023438 132.644531 134.867188 131.5625 C 134.796875 131.105469 134.679688 130.652344 134.492188 130.242188 C 133.824219 127.613281 133.746094 124.726562 134.4375 122.121094 C 134.820312 122.871094 135.148438 123.65625 135.421875 124.453125 C 135.464844 124.582031 135.492188 124.707031 135.527344 124.835938 C 135.769531 125.882812 136.308594 128.839844 136.433594 130.210938 C 136.5625 131.574219 136.601562 140.964844 134.832031 146.128906 C 134.734375 145.058594 134.582031 143.992188 134.414062 142.933594 Z M 131.402344 125.679688 C 131.390625 126.5625 131.453125 127.433594 131.550781 128.292969 C 131.238281 127.109375 130.914062 125.929688 130.542969 124.757812 C 129.316406 120.847656 127.632812 117.066406 125.46875 113.640625 C 125.550781 113.566406 125.632812 113.480469 125.710938 113.382812 C 127.136719 111.519531 128.058594 109.492188 128.511719 107.367188 C 130.636719 111.0625 132.476562 114.992188 133.871094 119.03125 C 133.542969 119.097656 133.222656 119.234375 132.941406 119.472656 C 132.105469 120.191406 131.921875 121.433594 131.722656 122.460938 C 131.519531 123.523438 131.417969 124.601562 131.402344 125.679688 Z M 131.523438 154.71875 C 129.722656 160.570312 125.9375 155.4375 124.582031 153.75 C 123.21875 152.066406 121.527344 148.355469 120.730469 145.699219 C 120.632812 145.386719 120.519531 145.054688 120.480469 144.71875 C 120.992188 145.199219 121.625 145.613281 122.3125 145.628906 C 123.167969 145.640625 124.207031 144.789062 123.671875 143.835938 C 121.441406 139.894531 119.921875 135.597656 119.289062 131.113281 C 119.273438 131.027344 119.273438 130.914062 119.265625 130.796875 C 119.328125 130.867188 119.386719 130.933594 119.441406 131.007812 C 120.15625 131.882812 120.804688 132.820312 121.410156 133.769531 C 122.648438 135.714844 123.625 137.8125 124.402344 139.984375 C 124.910156 141.390625 127.027344 140.722656 126.878906 139.304688 C 126.78125 138.398438 126.859375 137.433594 127.246094 136.582031 C 127.261719 136.550781 127.308594 136.457031 127.347656 136.375 C 127.550781 136.5625 127.730469 136.730469 127.898438 136.980469 C 128.996094 138.5625 130.011719 139.976562 130.386719 142.3125 C 130.765625 144.65625 132.039062 153.042969 131.523438 154.71875 Z M 121.546875 162.476562 C 119.445312 162.65625 112.46875 159.941406 109.960938 158.726562 C 109.160156 158.34375 106.589844 156.351562 106.046875 155.871094 C 105.640625 155.511719 105.105469 155.09375 104.972656 154.535156 C 104.726562 153.507812 106.589844 154.3125 107.085938 154.542969 C 107.90625 154.914062 109.097656 154.121094 108.855469 153.171875 C 108.125 150.300781 105.789062 148.851562 103.796875 146.894531 C 102.78125 145.902344 101.882812 144.761719 101.160156 143.542969 C 100.597656 142.601562 99.882812 141.40625 99.890625 140.269531 C 99.890625 139.316406 100.75 139.121094 101.53125 139.394531 C 102.707031 139.804688 103.492188 141.117188 104.210938 142.050781 C 105.171875 143.308594 106.128906 144.554688 107.085938 145.816406 C 107.949219 146.9375 108.75 148.257812 109.816406 149.210938 C 110.855469 150.136719 112.648438 150.300781 113.535156 149.039062 C 113.878906 148.554688 113.960938 147.957031 113.839844 147.398438 C 113.859375 147.414062 113.878906 147.429688 113.898438 147.445312 C 116.097656 150.359375 118.410156 153.179688 120.839844 155.894531 C 122.296875 157.519531 125.0625 158.941406 125.65625 160.164062 C 126.246094 161.378906 123.640625 162.292969 121.546875 162.476562 Z M 100.390625 164.078125 C 98.695312 163.214844 97.742188 161.699219 97.492188 161.234375 C 97.714844 161.207031 97.933594 161.203125 98.171875 161.238281 C 99.390625 161.425781 100.257812 159.601562 99.113281 158.921875 C 97.5 157.957031 95.828125 156.953125 94.492188 155.609375 C 93.871094 154.988281 93.308594 154.269531 92.9375 153.472656 C 92.796875 153.15625 92.296875 152.144531 92.5 151.734375 C 92.652344 151.722656 92.882812 151.859375 93.003906 151.921875 C 93.179688 152.007812 93.347656 152.121094 93.511719 152.230469 C 93.644531 152.355469 93.769531 152.476562 93.898438 152.589844 C 100.140625 158.164062 107.851562 162.890625 116.128906 164.703125 C 111.023438 166.042969 102.089844 164.9375 100.390625 164.078125 Z M 94.566406 160.597656 C 94.625 160.875 94.695312 161.140625 94.785156 161.40625 C 86.507812 156.480469 80.578125 148.273438 75.488281 140.09375 L 82.890625 141.742188 C 83.632812 141.90625 84.191406 141.660156 84.546875 141.230469 C 86.292969 144.261719 88.449219 147.082031 90.890625 149.660156 C 90.753906 149.773438 90.625 149.90625 90.496094 150.070312 C 89.011719 151.933594 90.523438 154.875 91.761719 156.429688 C 92.703125 157.605469 93.855469 158.566406 95.085938 159.417969 C 94.730469 159.703125 94.46875 160.113281 94.566406 160.597656 Z M 83.503906 121.988281 C 86.011719 122.894531 89.121094 121.859375 90.261719 119.253906 C 90.410156 118.90625 90.421875 118.507812 90.570312 118.167969 C 90.585938 118.132812 90.59375 118.105469 90.605469 118.082031 C 90.617188 118.09375 90.636719 118.105469 90.65625 118.109375 C 91.945312 118.515625 93.21875 119.429688 94.316406 120.210938 C 96.777344 121.964844 99.855469 124.425781 101.421875 127.410156 C 102.984375 130.394531 107.808594 138.960938 111.628906 144.347656 C 111.511719 144.394531 111.402344 144.453125 111.300781 144.523438 C 110.78125 144.878906 110.5 145.410156 110.492188 145.996094 C 109.425781 144.605469 108.359375 143.214844 107.296875 141.820312 C 105.464844 139.4375 102.953125 135.453125 99.339844 136.996094 C 95.933594 138.457031 97.617188 142.621094 98.980469 144.894531 C 100 146.609375 101.269531 148.113281 102.753906 149.445312 C 103.480469 150.09375 104.375 150.753906 105.101562 151.523438 C 103.855469 151.585938 102.757812 152.152344 102.425781 153.648438 C 102.375 153.855469 102.355469 154.070312 102.355469 154.285156 C 100.492188 153.007812 98.714844 151.628906 97.046875 150.195312 C 88.789062 143.121094 82.898438 133.074219 83.503906 121.988281 Z M 102.597656 112.085938 C 105.09375 111.746094 107.332031 110.203125 108.355469 108.003906 C 110.023438 108.234375 111.597656 107.40625 112.488281 105.972656 C 119.921875 110.34375 124.414062 118.160156 126.964844 126.273438 C 127.800781 128.929688 128.4375 131.636719 128.984375 134.363281 C 128.828125 134.246094 128.664062 134.132812 128.484375 134.03125 C 126.878906 133.171875 125.796875 133.902344 125.136719 135.140625 C 124.460938 133.800781 123.695312 132.503906 122.847656 131.261719 C 122.136719 130.222656 121.371094 128.96875 120.273438 128.300781 C 119.152344 127.605469 117.726562 127.566406 116.945312 128.769531 C 116.234375 129.847656 116.703125 131.484375 116.910156 132.652344 C 117.160156 134.074219 117.5 135.476562 117.902344 136.851562 C 118.382812 138.523438 119 140.140625 119.714844 141.722656 C 118.273438 141.996094 117.789062 143.566406 117.902344 144.886719 C 117.949219 145.515625 118.101562 146.160156 118.300781 146.804688 C 116.890625 145.003906 115.527344 143.167969 114.210938 141.292969 C 110.183594 135.542969 104.449219 126.09375 103.628906 123.136719 C 102.808594 120.179688 102.285156 118.320312 101.914062 116.273438 C 101.835938 115.847656 101.128906 113.253906 101.027344 112.136719 C 101.429688 112.257812 102.394531 112.113281 102.597656 112.085938 Z M 127.898438 99.195312 C 126.542969 97.25 124.035156 99.226562 124.597656 101.164062 C 125.519531 104.382812 124.910156 107.601562 123.117188 110.324219 C 120.160156 106.59375 116.5 103.472656 112.023438 101.339844 C 110.625 100.671875 109.269531 102.03125 109.367188 103.390625 C 108.972656 103.492188 108.585938 103.59375 108.191406 103.6875 C 107.148438 102.761719 105.132812 103.582031 105.097656 105 C 104.972656 110.242188 98.007812 106.234375 97.203125 110.746094 C 96.878906 112.578125 97.730469 114.976562 98.0625 116.78125 L 98.371094 118.5 C 96.613281 116.996094 94.664062 115.71875 92.539062 114.710938 C 91 113.984375 89.128906 113.292969 87.761719 114.726562 C 86.722656 115.824219 86.710938 120.011719 84.300781 118.011719 C 83.128906 117.039062 81.816406 117.816406 81.394531 118.933594 C 80.570312 118.976562 79.808594 119.492188 79.710938 120.558594 C 79.183594 126.644531 80.363281 132.445312 82.757812 137.746094 C 79.296875 136.980469 75.832031 136.210938 72.371094 135.441406 C 70.625 135.054688 69.890625 136.902344 70.488281 138.191406 C 70.375 138.675781 70.425781 139.210938 70.738281 139.730469 C 78.082031 151.847656 87.160156 164.644531 101.613281 168.507812 C 109.417969 170.597656 117.6875 169.292969 124.585938 165.449219 C 124.882812 165.421875 130.582031 161.191406 134.570312 156.738281 C 147.726562 142.082031 139.1875 115.382812 127.898438 99.195312 " fill-opacity="1" fill-rule="nonzero"/><path fill="#ffb100" d="M 136.433594 130.210938 C 136.5625 131.574219 136.601562 140.964844 134.832031 146.128906 C 134.734375 145.058594 134.582031 143.992188 134.414062 142.933594 C 134.09375 140.886719 133.761719 138.835938 133.394531 136.792969 C 133.253906 135.730469 133.128906 134.664062 133.019531 133.59375 C 133 133.367188 132.980469 133.132812 132.957031 132.90625 C 133.765625 133.28125 135.023438 132.644531 134.867188 131.5625 C 134.796875 131.105469 134.679688 130.652344 134.492188 130.242188 C 133.824219 127.613281 133.746094 124.726562 134.4375 122.121094 C 134.820312 122.871094 135.148438 123.65625 135.421875 124.453125 C 135.464844 124.582031 135.492188 124.707031 135.527344 124.835938 C 135.769531 125.882812 136.308594 128.839844 136.433594 130.210938 " fill-opacity="1" fill-rule="nonzero"/><path fill="#ffb100" d="M 131.523438 154.71875 C 129.722656 160.570312 125.9375 155.4375 124.582031 153.75 C 123.21875 152.066406 121.527344 148.355469 120.730469 145.699219 C 120.632812 145.386719 120.519531 145.054688 120.480469 144.71875 C 120.992188 145.199219 121.625 145.613281 122.3125 145.628906 C 123.167969 145.640625 124.207031 144.789062 123.671875 143.835938 C 121.441406 139.894531 119.921875 135.597656 119.289062 131.113281 C 119.273438 131.027344 119.273438 130.914062 119.265625 130.796875 C 119.328125 130.867188 119.386719 130.933594 119.441406 131.007812 C 120.15625 131.882812 120.804688 132.820312 121.410156 133.769531 C 122.648438 135.714844 123.625 137.8125 124.402344 139.984375 C 124.910156 141.390625 127.027344 140.722656 126.878906 139.304688 C 126.78125 138.398438 126.859375 137.433594 127.246094 136.582031 C 127.261719 136.550781 127.308594 136.457031 127.347656 136.375 C 127.550781 136.5625 127.730469 136.730469 127.898438 136.980469 C 128.996094 138.5625 130.011719 139.976562 130.386719 142.3125 C 130.765625 144.65625 132.039062 153.042969 131.523438 154.71875 " fill-opacity="1" fill-rule="nonzero"/><path fill="#ffb100" d="M 121.546875 162.476562 C 119.445312 162.65625 112.46875 159.941406 109.960938 158.726562 C 109.160156 158.34375 106.589844 156.351562 106.046875 155.871094 C 105.640625 155.511719 105.105469 155.09375 104.972656 154.535156 C 104.726562 153.507812 106.589844 154.3125 107.085938 154.542969 C 107.90625 154.914062 109.097656 154.121094 108.855469 153.171875 C 108.125 150.300781 105.789062 148.851562 103.796875 146.894531 C 102.78125 145.902344 101.882812 144.761719 101.160156 143.542969 C 100.597656 142.601562 99.882812 141.40625 99.890625 140.269531 C 99.890625 139.316406 100.75 139.121094 101.53125 139.394531 C 102.707031 139.804688 103.492188 141.117188 104.210938 142.050781 C 105.171875 143.308594 106.128906 144.554688 107.085938 145.816406 C 107.949219 146.9375 108.75 148.257812 109.816406 149.210938 C 110.855469 150.136719 112.648438 150.300781 113.535156 149.039062 C 113.878906 148.554688 113.960938 147.957031 113.839844 147.398438 C 113.859375 147.414062 113.878906 147.429688 113.898438 147.445312 C 116.097656 150.359375 118.410156 153.179688 120.839844 155.894531 C 122.296875 157.519531 125.0625 158.941406 125.65625 160.164062 C 126.246094 161.378906 123.640625 162.292969 121.546875 162.476562 " fill-opacity="1" fill-rule="nonzero"/><path fill="#ffb100" d="M 116.128906 164.703125 C 111.023438 166.042969 102.089844 164.9375 100.390625 164.078125 C 98.695312 163.214844 97.742188 161.699219 97.492188 161.234375 C 97.714844 161.207031 97.933594 161.203125 98.171875 161.238281 C 99.390625 161.425781 100.257812 159.601562 99.113281 158.921875 C 97.5 157.957031 95.828125 156.953125 94.492188 155.609375 C 93.871094 154.988281 93.308594 154.269531 92.9375 153.472656 C 92.796875 153.15625 92.296875 152.144531 92.5 151.734375 C 92.652344 151.722656 92.882812 151.859375 93.003906 151.921875 C 93.179688 152.007812 93.347656 152.121094 93.511719 152.230469 C 93.644531 152.355469 93.769531 152.476562 93.898438 152.589844 C 100.140625 158.164062 107.851562 162.890625 116.128906 164.703125 " fill-opacity="1" fill-rule="nonzero"/><path fill="#ffce35" d="M 94.566406 160.597656 C 94.625 160.875 94.695312 161.140625 94.785156 161.40625 C 86.507812 156.480469 80.578125 148.273438 75.488281 140.09375 L 82.890625 141.742188 C 83.632812 141.90625 84.191406 141.660156 84.546875 141.230469 C 86.292969 144.261719 88.449219 147.082031 90.890625 149.660156 C 90.753906 149.773438 90.625 149.90625 90.496094 150.070312 C 89.011719 151.933594 90.523438 154.875 91.761719 156.429688 C 92.703125 157.605469 93.855469 158.566406 95.085938 159.417969 C 94.730469 159.703125 94.46875 160.113281 94.566406 160.597656 " fill-opacity="1" fill-rule="nonzero"/><path fill="#ffce35" d="M 133.871094 119.03125 C 133.542969 119.097656 133.222656 119.234375 132.941406 119.472656 C 132.105469 120.191406 131.921875 121.433594 131.722656 122.460938 C 131.519531 123.523438 131.417969 124.601562 131.402344 125.679688 C 131.390625 126.5625 131.453125 127.433594 131.550781 128.292969 C 131.238281 127.109375 130.914062 125.929688 130.542969 124.757812 C 129.316406 120.847656 127.632812 117.066406 125.46875 113.640625 C 125.550781 113.566406 125.632812 113.480469 125.710938 113.382812 C 127.136719 111.519531 128.058594 109.492188 128.511719 107.367188 C 130.636719 111.0625 132.476562 114.992188 133.871094 119.03125 " fill-opacity="1" fill-rule="nonzero"/><path fill="#ffce35" d="M 128.984375 134.363281 C 128.828125 134.246094 128.664062 134.132812 128.484375 134.03125 C 126.878906 133.171875 125.796875 133.902344 125.136719 135.140625 C 124.460938 133.800781 123.695312 132.503906 122.847656 131.261719 C 122.136719 130.222656 121.371094 128.96875 120.273438 128.300781 C 119.152344 127.605469 117.726562 127.566406 116.945312 128.769531 C 116.234375 129.847656 116.703125 131.484375 116.910156 132.652344 C 117.160156 134.074219 117.5 135.476562 117.902344 136.851562 C 118.382812 138.523438 119 140.140625 119.714844 141.722656 C 118.273438 141.996094 117.789062 143.566406 117.902344 144.886719 C 117.949219 145.515625 118.101562 146.160156 118.300781 146.804688 C 116.890625 145.003906 115.527344 143.167969 114.210938 141.292969 C 110.183594 135.542969 104.449219 126.09375 103.628906 123.136719 C 102.808594 120.179688 102.285156 118.320312 101.914062 116.273438 C 101.835938 115.847656 101.128906 113.253906 101.027344 112.136719 C 101.429688 112.257812 102.394531 112.113281 102.597656 112.085938 C 105.09375 111.746094 107.332031 110.203125 108.355469 108.003906 C 110.023438 108.234375 111.597656 107.40625 112.488281 105.972656 C 119.921875 110.34375 124.414062 118.160156 126.964844 126.273438 C 127.800781 128.929688 128.4375 131.636719 128.984375 134.363281 " fill-opacity="1" fill-rule="nonzero"/><path fill="#ffce35" d="M 111.628906 144.347656 C 111.511719 144.394531 111.402344 144.453125 111.300781 144.523438 C 110.78125 144.878906 110.5 145.410156 110.492188 145.996094 C 109.425781 144.605469 108.359375 143.214844 107.296875 141.820312 C 105.464844 139.4375 102.953125 135.453125 99.339844 136.996094 C 95.933594 138.457031 97.617188 142.621094 98.980469 144.894531 C 100 146.609375 101.269531 148.113281 102.753906 149.445312 C 103.480469 150.09375 104.375 150.753906 105.101562 151.523438 C 103.855469 151.585938 102.757812 152.152344 102.425781 153.648438 C 102.375 153.855469 102.355469 154.070312 102.355469 154.285156 C 100.492188 153.007812 98.714844 151.628906 97.046875 150.195312 C 88.789062 143.121094 82.898438 133.074219 83.503906 121.988281 C 86.011719 122.894531 89.121094 121.859375 90.261719 119.253906 C 90.410156 118.90625 90.421875 118.507812 90.570312 118.167969 C 90.585938 118.132812 90.59375 118.105469 90.605469 118.082031 C 90.617188 118.09375 90.636719 118.105469 90.65625 118.109375 C 91.945312 118.515625 93.21875 119.429688 94.316406 120.210938 C 96.777344 121.964844 99.855469 124.425781 101.421875 127.410156 C 102.984375 130.394531 107.808594 138.960938 111.628906 144.347656 " fill-opacity="1" fill-rule="nonzero"/></svg>