<svg xmlns="http://www.w3.org/2000/svg" xmlns:xlink="http://www.w3.org/1999/xlink" width="500" zoomAndPan="magnify" viewBox="0 0 375 374.999991" height="500" preserveAspectRatio="xMidYMid meet" version="1.0"><path fill="#cc9473" d="M 218.835938 336.105469 C 217.863281 337.640625 216.683594 338.988281 215.289062 340.152344 C 207.691406 346.0625 195.859375 345.941406 179.230469 345.691406 C 162.605469 345.441406 154.507812 345.441406 147.660156 340.773438 C 146.023438 339.566406 144.59375 338.15625 143.363281 336.542969 C 134.394531 326.085938 110.855469 298.449219 118.265625 269.816406 C 118.453125 268.871094 118.746094 267.957031 119.136719 267.078125 C 119.886719 265.378906 120.964844 263.925781 122.375 262.71875 C 124.867188 260.480469 128.601562 258.796875 133.894531 257.554688 C 142.179688 255.625 154.195312 254.875 171.199219 254.691406 C 170.464844 258.328125 170.070312 262 170.015625 265.707031 C 148.21875 266.453125 141.742188 264.960938 136.945312 270.4375 C 124.179688 285.128906 158.308594 280.398438 182.40625 279.898438 C 199.46875 279.585938 229.734375 282.078125 219.585938 268.695312 C 215.472656 263.34375 207.816406 264.773438 191.375 265.085938 C 190.8125 261.039062 190.253906 257.617188 189.753906 254.691406 C 208.5625 254.753906 220.890625 255.0625 227.867188 256.804688 C 230.730469 257.492188 232.664062 258.425781 233.78125 259.667969 C 235.476562 261.527344 236.78125 263.621094 237.707031 265.957031 C 246.550781 287.367188 226.1875 325.898438 218.835938 336.105469 Z M 218.835938 336.105469 " fill-opacity="1" fill-rule="nonzero"/><path fill="#443e3c" d="M 237.332031 165.804688 C 257.011719 131.632812 215.414062 144.953125 182.78125 194.4375 C 183.277344 182.859375 185.769531 159.269531 187.203125 153.171875 C 193.804688 155.535156 220.144531 152.921875 235.089844 136.988281 C 239.636719 132.070312 245.675781 123.167969 243.125 119.433594 C 240.570312 115.699219 233.84375 118.003906 228.925781 119.058594 C 212.609375 122.734375 203.582031 131.945312 188.632812 147.941406 C 190.378906 142.714844 192.371094 138.542969 194.363281 132.132812 C 200.839844 129.765625 219.585938 110.65625 224.503906 82.835938 C 225.25 78.789062 220.832031 75.613281 217.34375 77.730469 C 188.945312 94.785156 186.207031 128.273438 191.125 132.007812 C 187.636719 140.285156 185.582031 145.949219 183.589844 155.285156 C 184.027344 92.792969 144.421875 57.3125 161.359375 124.289062 C 166.402344 144.207031 177.800781 162.320312 181.847656 164.625 C 178.917969 182.238281 177.800781 192.195312 177.425781 196.925781 C 177.335938 192.292969 176.648438 187.75 175.371094 183.296875 C 166.777344 154.351562 151.894531 139.914062 148.09375 141.71875 C 142.304688 144.582031 156.4375 189.332031 160.363281 197.425781 C 175.183594 227.800781 178.859375 213.484375 174.996094 235.394531 C 172.320312 250.582031 177.675781 246.597656 152.578125 204.769531 C 147.222656 195.933594 131.40625 183.546875 129.164062 183.484375 C 126.921875 183.421875 125.863281 186.59375 127.980469 189.457031 C 134.457031 198.296875 134.644531 232.59375 171.507812 253.007812 C 171.433594 253.574219 171.332031 254.136719 171.199219 254.691406 C 170.464844 258.328125 170.070312 262 170.015625 265.707031 C 148.21875 266.453125 141.742188 264.960938 136.945312 270.4375 C 124.179688 285.128906 158.308594 280.398438 182.40625 279.898438 C 199.46875 279.585938 229.734375 282.078125 219.585938 268.695312 C 215.472656 263.34375 207.816406 264.773438 191.375 265.085938 C 190.8125 261.039062 190.253906 257.617188 189.753906 254.691406 C 186.144531 235.332031 183.09375 239.128906 188.882812 235.644531 C 218.773438 217.65625 218.773438 217.65625 219.210938 217.21875 C 235.527344 201.96875 242.5625 175.390625 234.34375 180.246094 C 215.535156 191.449219 197.042969 209.191406 184.523438 230.289062 C 183.066406 220.820312 182.421875 211.300781 182.59375 201.71875 C 211.425781 179.375 227.492188 182.859375 237.332031 165.804688 Z M 237.332031 165.804688 " fill-opacity="1" fill-rule="nonzero"/><path fill="#a84e2c" d="M 182.28125 307.847656 C 180.664062 300.128906 168.394531 301.25 167.648438 309.960938 C 164.035156 322.164062 185.273438 322.039062 182.28125 307.847656 Z M 182.28125 307.847656 " fill-opacity="1" fill-rule="nonzero"/><path fill="#a84e2c" d="M 147.472656 298.136719 C 147.597656 297.472656 147.636719 296.804688 147.582031 296.128906 C 147.527344 295.453125 147.386719 294.800781 147.15625 294.164062 C 146.929688 293.527344 146.617188 292.933594 146.226562 292.378906 C 145.839844 291.828125 145.382812 291.335938 144.859375 290.90625 C 144.335938 290.476562 143.765625 290.125 143.148438 289.847656 C 142.53125 289.570312 141.890625 289.378906 141.21875 289.277344 C 140.550781 289.175781 139.878906 289.160156 139.207031 289.238281 C 138.535156 289.316406 137.886719 289.480469 137.257812 289.734375 C 133.085938 291.476562 130.472656 298.945312 134.457031 302.367188 C 139.4375 306.664062 146.539062 303.363281 147.472656 298.136719 Z M 147.472656 298.136719 " fill-opacity="1" fill-rule="nonzero"/><path fill="#a84e2c" d="M 213.542969 296.644531 C 218.214844 286.996094 203.019531 281.953125 199.84375 290.542969 C 196.667969 299.132812 209.433594 305.046875 213.542969 296.644531 Z M 213.542969 296.644531 " fill-opacity="1" fill-rule="nonzero"/><path fill="#a84e2c" d="M 224.878906 315.8125 C 222.386719 308.46875 213.109375 310.210938 212.113281 315.628906 C 209.621094 329.941406 228.425781 326.394531 224.878906 315.8125 Z M 224.878906 315.8125 " fill-opacity="1" fill-rule="nonzero"/><path fill="#a84e2c" d="M 159.242188 331 C 157.25 325.089844 150.585938 324.09375 147.410156 328.261719 C 144.234375 332.433594 146.660156 337.910156 149.714844 339.464844 C 155.628906 342.578125 161.171875 336.601562 159.242188 331 Z M 159.242188 331 " fill-opacity="1" fill-rule="nonzero"/><path fill="#a84e2c" d="M 123.621094 264.710938 C 123.078125 264.128906 122.664062 263.464844 122.375 262.71875 C 124.867188 260.480469 128.601562 258.796875 133.894531 257.554688 L 134.394531 258.613281 C 137.007812 265.023438 128.105469 269.816406 123.621094 264.710938 Z M 123.621094 264.710938 " fill-opacity="1" fill-rule="nonzero"/><path fill="#a84e2c" d="M 237.707031 265.957031 L 237.144531 266.578125 C 229.734375 272.925781 222.949219 262.53125 227.867188 256.804688 C 230.730469 257.492188 232.664062 258.425781 233.78125 259.667969 C 235.476562 261.527344 236.78125 263.621094 237.707031 265.957031 Z M 237.707031 265.957031 " fill-opacity="1" fill-rule="nonzero"/></svg>