<svg xmlns="http://www.w3.org/2000/svg" xmlns:xlink="http://www.w3.org/1999/xlink" width="500" zoomAndPan="magnify" viewBox="0 0 375 374.999991" height="500" preserveAspectRatio="xMidYMid meet" version="1.0"><defs><clipPath id="80822998b2"><path d="M 116 223 L 249 223 L 249 342.683594 L 116 342.683594 Z M 116 223 " clip-rule="nonzero"/></clipPath><clipPath id="2fa2e671c3"><path d="M 185 32.183594 L 225 32.183594 L 225 203 L 185 203 Z M 185 32.183594 " clip-rule="nonzero"/></clipPath><clipPath id="127aeef2af"><path d="M 197 121 L 308.699219 121 L 308.699219 227 L 197 227 Z M 197 121 " clip-rule="nonzero"/></clipPath><clipPath id="cb5f5c5831"><path d="M 52.949219 121 L 165 121 L 165 227 L 52.949219 227 Z M 52.949219 121 " clip-rule="nonzero"/></clipPath></defs><g clip-path="url(#80822998b2)"><path fill="#efc6ce" d="M 132.335938 223.691406 C 165.953125 230.605469 205.09375 230.609375 232.898438 223.8125 C 237.300781 222.738281 242.367188 225.222656 244.207031 229.359375 C 255.53125 254.828125 241.769531 307.503906 235.628906 328.632812 C 233.421875 336.21875 225.214844 342.375 217.304688 342.375 L 151.511719 342.375 C 143.601562 342.375 134.910156 336.378906 132.109375 328.992188 C 122.054688 302.464844 109.699219 258.492188 120.277344 230.339844 C 122.035156 225.664062 127.4375 222.683594 132.335938 223.691406 " fill-opacity="1" fill-rule="nonzero"/></g><path fill="#917174" d="M 182.851562 218.207031 C 212.945312 218.207031 237.34375 220.917969 237.34375 224.257812 C 237.34375 227.601562 212.945312 230.308594 182.851562 230.308594 C 152.757812 230.308594 128.359375 227.601562 128.359375 224.257812 C 128.359375 220.917969 152.757812 218.207031 182.851562 218.207031 " fill-opacity="1" fill-rule="nonzero"/><g clip-path="url(#2fa2e671c3)"><path fill="#c2c882" d="M 216.507812 32.414062 C 231.722656 77.316406 221.683594 140.980469 208.761719 202.917969 L 188.136719 202.917969 C 176.640625 147.449219 205.066406 62.289062 216.507812 32.414062 " fill-opacity="1" fill-rule="nonzero"/></g><path fill="#708c73" d="M 174.738281 58.421875 C 163.457031 91.714844 170.902344 138.925781 180.484375 184.855469 L 195.777344 184.855469 C 204.300781 143.722656 183.222656 80.574219 174.738281 58.421875 " fill-opacity="1" fill-rule="nonzero"/><path fill="#dfdac4" d="M 188.476562 79.144531 C 178.417969 108.832031 185.058594 150.925781 193.601562 191.882812 L 207.238281 191.882812 C 214.835938 155.203125 196.042969 98.894531 188.476562 79.144531 " fill-opacity="1" fill-rule="nonzero"/><path fill="#c2c882" d="M 94.589844 79.769531 C 96.140625 115.726562 142.40625 132.953125 152.59375 150.648438 C 165.933594 173.816406 171.632812 182.546875 186.523438 221.632812 L 171.660156 221.632812 C 129.957031 166.152344 86.179688 116.078125 94.589844 79.769531 " fill-opacity="1" fill-rule="nonzero"/><path fill="#dfdac4" d="M 94.378906 75.691406 C 95.929688 111.652344 128.445312 130.667969 144.335938 151.171875 C 153.230469 162.652344 175.117188 197.320312 177.207031 209.292969 C 178.28125 215.429688 178.949219 217.074219 182.859375 221.632812 C 176.558594 227.285156 170.0625 227.289062 163.371094 221.632812 C 121.667969 166.152344 85.972656 112 94.378906 75.691406 " fill-opacity="1" fill-rule="nonzero"/><path fill="#dfdac4" d="M 238.789062 197.554688 C 269.632812 157.734375 298.414062 126.777344 292.289062 98.242188 C 290.9375 132.113281 245.953125 138.855469 237.0625 155.523438 C 225.421875 177.347656 220.445312 185.570312 207.449219 222.386719 C 208.988281 226.957031 213.3125 226.960938 220.425781 222.386719 C 226.457031 213.726562 232.664062 205.464844 238.789062 197.554688 " fill-opacity="1" fill-rule="nonzero"/><path fill="#dfdac4" d="M 246.867188 83.144531 C 252.535156 111.054688 233.835938 159.398438 203.109375 192.257812 L 180.496094 202.082031 C 198.160156 188.582031 221.101562 123.082031 246.867188 83.144531 " fill-opacity="1" fill-rule="nonzero"/><g clip-path="url(#127aeef2af)"><path fill="#708c73" d="M 308.738281 122.011719 C 302.800781 116.542969 244.816406 136.703125 230.945312 156.015625 C 223.179688 166.828125 204.082031 199.488281 202.257812 210.769531 C 201.324219 216.546875 200.738281 218.09375 197.320312 222.386719 C 205.527344 228.175781 211.199219 228.179688 214.335938 222.386719 C 250.730469 170.128906 269.320312 139.40625 308.738281 122.011719 " fill-opacity="1" fill-rule="nonzero"/></g><g clip-path="url(#cb5f5c5831)"><path fill="#708c73" d="M 52.984375 122.011719 C 58.921875 116.542969 116.90625 136.703125 130.777344 156.015625 C 138.542969 166.828125 157.640625 199.488281 159.464844 210.769531 C 160.398438 216.546875 160.984375 218.09375 164.402344 222.386719 C 164.558594 228.316406 158.886719 228.320312 147.386719 222.386719 C 110.992188 170.128906 92.402344 139.40625 52.984375 122.011719 " fill-opacity="1" fill-rule="nonzero"/></g><path fill="#c2c882" d="M 278.441406 71.742188 C 276.921875 109.734375 232.960938 127.9375 222.984375 146.628906 C 209.929688 171.109375 204.351562 180.339844 189.773438 221.632812 L 204.324219 221.632812 C 245.148438 163.011719 286.671875 110.105469 278.441406 71.742188 " fill-opacity="1" fill-rule="nonzero"/><path fill="#708c73" d="M 279.980469 67.433594 C 278.457031 105.429688 246.628906 125.519531 231.070312 147.183594 C 222.363281 159.3125 200.9375 195.945312 198.890625 208.597656 C 197.84375 215.078125 197.1875 216.816406 193.355469 221.632812 C 199.988281 227.972656 206.351562 227.972656 212.4375 221.632812 C 253.265625 163.011719 288.210938 105.800781 279.980469 67.433594 " fill-opacity="1" fill-rule="nonzero"/><path fill="#708c73" d="M 133.5625 65.449219 C 146.65625 119.746094 133.347656 143.351562 165.367188 195.730469 L 183.289062 189.273438 C 188.855469 122.199219 173.179688 95.761719 133.5625 65.449219 " fill-opacity="1" fill-rule="nonzero"/><path fill="#c2c882" d="M 182.132812 98.273438 C 188.265625 149.632812 208.800781 166.007812 196.476562 221.632812 C 196.566406 227.285156 190.21875 227.289062 177.421875 221.632812 C 149.398438 165 155.164062 137.078125 182.132812 98.273438 " fill-opacity="1" fill-rule="nonzero"/><path fill="#dfdac4" d="M 126.175781 239.089844 C 128.609375 239.089844 130.585938 240.820312 130.585938 242.957031 C 130.585938 245.09375 128.609375 246.824219 126.175781 246.824219 C 123.738281 246.824219 121.765625 245.09375 121.765625 242.957031 C 121.765625 240.820312 123.738281 239.089844 126.175781 239.089844 " fill-opacity="1" fill-rule="nonzero"/><path fill="#dfdac4" d="M 142.609375 241.703125 C 145.046875 241.703125 147.019531 243.433594 147.019531 245.570312 C 147.019531 247.707031 145.046875 249.4375 142.609375 249.4375 C 140.175781 249.4375 138.203125 247.707031 138.203125 245.570312 C 138.203125 243.433594 140.175781 241.703125 142.609375 241.703125 " fill-opacity="1" fill-rule="nonzero"/><path fill="#dfdac4" d="M 142.609375 241.703125 C 145.046875 241.703125 147.019531 243.433594 147.019531 245.570312 C 147.019531 247.707031 145.046875 249.4375 142.609375 249.4375 C 140.175781 249.4375 138.203125 247.707031 138.203125 245.570312 C 138.203125 243.433594 140.175781 241.703125 142.609375 241.703125 " fill-opacity="1" fill-rule="nonzero"/><path fill="#dfdac4" d="M 159.046875 243.0625 C 161.484375 243.0625 163.457031 244.792969 163.457031 246.929688 C 163.457031 249.066406 161.484375 250.800781 159.046875 250.800781 C 156.613281 250.800781 154.636719 249.066406 154.636719 246.929688 C 154.636719 244.792969 156.613281 243.0625 159.046875 243.0625 " fill-opacity="1" fill-rule="nonzero"/><path fill="#dfdac4" d="M 175.484375 246.304688 C 177.917969 246.304688 179.894531 248.035156 179.894531 250.171875 C 179.894531 252.308594 177.917969 254.039062 175.484375 254.039062 C 173.046875 254.039062 171.070312 252.308594 171.070312 250.171875 C 171.070312 248.035156 173.046875 246.304688 175.484375 246.304688 " fill-opacity="1" fill-rule="nonzero"/><path fill="#dfdac4" d="M 191.917969 246.929688 C 194.355469 246.929688 196.328125 248.664062 196.328125 250.800781 C 196.328125 252.9375 194.355469 254.664062 191.917969 254.664062 C 189.484375 254.664062 187.507812 252.9375 187.507812 250.800781 C 187.507812 248.664062 189.484375 246.929688 191.917969 246.929688 " fill-opacity="1" fill-rule="nonzero"/><path fill="#dfdac4" d="M 208.355469 244.523438 C 210.792969 244.523438 212.765625 246.257812 212.765625 248.394531 C 212.765625 250.53125 210.792969 252.261719 208.355469 252.261719 C 205.921875 252.261719 203.945312 250.53125 203.945312 248.394531 C 203.945312 246.257812 205.921875 244.523438 208.355469 244.523438 " fill-opacity="1" fill-rule="nonzero"/><path fill="#dfdac4" d="M 224.792969 241.703125 C 227.226562 241.703125 229.203125 243.433594 229.203125 245.570312 C 229.203125 247.707031 227.226562 249.4375 224.792969 249.4375 C 222.355469 249.4375 220.382812 247.707031 220.382812 245.570312 C 220.382812 243.433594 222.355469 241.703125 224.792969 241.703125 " fill-opacity="1" fill-rule="nonzero"/><path fill="#dfdac4" d="M 241.230469 238.359375 C 243.664062 238.359375 245.636719 240.089844 245.636719 242.226562 C 245.636719 244.359375 243.664062 246.09375 241.230469 246.09375 C 238.792969 246.09375 236.816406 244.359375 236.816406 242.226562 C 236.816406 240.089844 238.792969 238.359375 241.230469 238.359375 " fill-opacity="1" fill-rule="nonzero"/></svg>