<svg xmlns="http://www.w3.org/2000/svg" xmlns:xlink="http://www.w3.org/1999/xlink" width="500" zoomAndPan="magnify" viewBox="0 0 375 374.999991" height="500" preserveAspectRatio="xMidYMid meet" version="1.0"><defs><clipPath id="aa5951d4b0"><path d="M 74 27.519531 L 281 27.519531 L 281 187 L 74 187 Z M 74 27.519531 " clip-rule="nonzero"/></clipPath><clipPath id="4cd8eac193"><path d="M 279 193 L 281.441406 193 L 281.441406 208 L 279 208 Z M 279 193 " clip-rule="nonzero"/></clipPath><clipPath id="17a18737e7"><path d="M 84 192 L 281.441406 192 L 281.441406 337.269531 L 84 337.269531 Z M 84 192 " clip-rule="nonzero"/></clipPath></defs><path fill="#2c6e49" d="M 228.847656 154.351562 C 226.4375 155.929688 224.417969 157.644531 222.460938 159.304688 L 222.261719 159.472656 C 220.117188 161.292969 218.410156 163.253906 216.757812 165.152344 L 216.503906 165.445312 C 214.59375 167.632812 212.972656 169.804688 211.546875 172.078125 L 211.152344 172.710938 C 209.753906 174.933594 208.433594 177.03125 207.367188 179.277344 C 206.550781 181 205.820312 182.78125 205.109375 184.507812 C 204.773438 185.332031 204.433594 186.152344 204.085938 186.972656 C 203.152344 189.171875 202.144531 191.285156 201.078125 193.523438 L 200.496094 194.746094 L 200.296875 194.761719 C 199.402344 194.820312 198.480469 194.890625 197.539062 194.960938 C 195.320312 195.132812 193.023438 195.308594 190.675781 195.367188 L 190.28125 195.375 L 190.335938 194.984375 C 190.5625 193.3125 190.894531 191.539062 191.214844 189.820312 C 191.386719 188.890625 191.5625 187.960938 191.722656 187.035156 C 191.898438 186.015625 192.050781 184.980469 192.203125 183.9375 C 192.433594 182.390625 192.667969 180.792969 192.988281 179.214844 C 193.179688 178.273438 193.359375 177.328125 193.539062 176.375 C 193.84375 174.757812 194.160156 173.082031 194.542969 171.433594 C 194.855469 170.074219 195.347656 168.734375 195.828125 167.4375 C 196.253906 166.28125 196.695312 165.082031 197.003906 163.878906 C 197.308594 162.691406 197.507812 161.445312 197.695312 160.238281 C 197.914062 158.867188 198.140625 157.445312 198.523438 156.085938 C 198.753906 155.261719 198.984375 154.433594 199.210938 153.609375 C 199.675781 151.914062 200.15625 150.160156 200.679688 148.457031 C 201.117188 147.039062 201.660156 145.640625 202.183594 144.285156 C 202.601562 143.214844 203.03125 142.101562 203.398438 141.007812 L 203.984375 139.253906 C 204.613281 137.355469 205.269531 135.390625 205.957031 133.507812 C 206.613281 131.714844 207.328125 129.957031 208.023438 128.253906 C 208.3125 127.546875 208.597656 126.84375 208.878906 126.144531 C 209.265625 125.179688 209.628906 124.210938 209.988281 123.253906 C 210.574219 121.691406 211.128906 120.214844 211.773438 118.765625 L 211.945312 118.371094 C 213.007812 115.972656 214.007812 113.710938 215.085938 111.554688 C 216.289062 109.144531 217.585938 106.886719 218.917969 104.597656 C 220.269531 102.277344 221.78125 100.195312 223.113281 98.359375 L 223.367188 98.011719 C 223.929688 97.230469 225.054688 97.003906 225.765625 97.519531 C 226.539062 98.082031 226.507812 99.214844 225.996094 99.921875 C 224.71875 101.683594 223.539062 103.738281 222.292969 105.917969 L 221.539062 107.226562 C 220.289062 109.398438 218.996094 111.644531 217.789062 114.097656 C 217.375 114.9375 216.9375 115.78125 216.496094 116.636719 C 215.691406 118.1875 214.859375 119.789062 214.128906 121.464844 L 213.953125 121.867188 C 212.949219 124.183594 211.90625 126.578125 210.941406 129.046875 C 210.375 130.488281 209.910156 131.953125 209.414062 133.503906 C 209.0625 134.597656 208.699219 135.730469 208.304688 136.839844 C 207.8125 138.226562 207.417969 139.699219 207.039062 141.121094 C 206.722656 142.308594 206.394531 143.539062 206.003906 144.738281 C 205.636719 145.867188 205.21875 147.003906 204.816406 148.105469 C 204.289062 149.535156 203.746094 151.015625 203.304688 152.5 C 202.960938 153.652344 202.570312 154.8125 202.191406 155.929688 C 201.703125 157.371094 201.203125 158.855469 200.800781 160.339844 L 200.519531 161.375 C 199.90625 163.644531 199.269531 165.992188 198.707031 168.292969 C 198.300781 169.964844 197.960938 171.671875 197.628906 173.324219 C 197.429688 174.335938 197.226562 175.34375 197.011719 176.34375 C 196.773438 177.4375 196.515625 178.519531 196.257812 179.597656 C 195.882812 181.164062 195.492188 182.785156 195.199219 184.363281 C 194.949219 185.726562 194.792969 187.105469 194.652344 188.453125 C 194.925781 187.550781 195.214844 186.632812 195.527344 185.726562 C 196.378906 183.285156 197.238281 180.707031 197.71875 179.164062 C 198.164062 177.730469 198.71875 176.34375 199.253906 175.003906 C 199.769531 173.710938 200.253906 172.488281 200.652344 171.230469 C 201.074219 169.898438 201.402344 168.535156 201.722656 167.214844 C 202.058594 165.835938 202.402344 164.414062 202.84375 163.0625 C 203.164062 162.082031 203.476562 161.105469 203.785156 160.136719 C 204.324219 158.449219 204.878906 156.707031 205.457031 155.023438 C 205.953125 153.570312 206.566406 152.140625 207.15625 150.761719 C 207.65625 149.59375 208.175781 148.382812 208.613281 147.175781 C 208.972656 146.1875 209.324219 145.191406 209.667969 144.195312 C 210.238281 142.5625 210.828125 140.875 211.472656 139.222656 C 212.042969 137.765625 212.714844 136.316406 213.367188 134.910156 C 213.882812 133.800781 214.414062 132.648438 214.898438 131.492188 C 215.164062 130.855469 215.425781 130.207031 215.6875 129.550781 C 216.332031 127.949219 216.996094 126.292969 217.785156 124.738281 L 218.230469 123.859375 C 219.257812 121.816406 220.230469 119.890625 221.222656 118.238281 C 222.890625 115.457031 225.113281 112.21875 226.15625 112.570312 C 226.273438 112.609375 226.371094 112.699219 226.425781 112.824219 C 226.78125 113.597656 225.390625 117.320312 224.160156 120.304688 C 223.78125 121.230469 223.324219 122.222656 222.84375 123.269531 C 222.25 124.566406 221.632812 125.90625 221.03125 127.386719 C 220.652344 128.320312 220.234375 129.277344 219.800781 130.265625 C 219.207031 131.625 218.59375 133.03125 218.015625 134.515625 C 217.417969 136.054688 216.851562 137.644531 216.253906 139.328125 C 215.960938 140.136719 215.671875 140.960938 215.367188 141.789062 C 215.027344 142.730469 214.65625 143.679688 214.285156 144.640625 C 213.730469 146.0625 213.15625 147.535156 212.65625 149.035156 C 212.367188 149.898438 212.0625 150.761719 211.757812 151.632812 C 211.21875 153.175781 210.660156 154.769531 210.175781 156.375 C 209.746094 157.804688 209.101562 160.0625 208.355469 162.679688 L 207.652344 165.148438 C 207.289062 166.429688 206.914062 167.785156 206.527344 169.179688 C 206.101562 170.730469 205.65625 172.332031 205.195312 173.941406 C 204.78125 175.390625 204.425781 176.882812 204.082031 178.324219 C 204.53125 177.277344 205.003906 176.226562 205.53125 175.195312 C 206.4375 173.429688 207.5625 171.816406 208.757812 170.109375 C 209.144531 169.554688 209.53125 169 209.917969 168.433594 L 210.269531 167.914062 C 211.601562 165.945312 212.976562 163.90625 214.742188 161.984375 C 215.054688 161.640625 215.371094 161.292969 215.6875 160.9375 C 217.117188 159.351562 218.597656 157.710938 220.40625 156.210938 C 221.613281 155.207031 223.011719 154.402344 224.492188 153.550781 C 225.394531 153.03125 226.324219 152.492188 227.234375 151.894531 C 228.121094 151.316406 229.027344 151.394531 229.484375 152.09375 C 230.015625 152.894531 229.574219 153.871094 228.847656 154.351562 Z M 191.035156 152.652344 C 191.195312 151.40625 191.347656 150.226562 191.539062 149.117188 C 191.894531 147.027344 192.257812 145.152344 192.550781 143.644531 C 192.707031 142.832031 192.847656 142.109375 192.960938 141.496094 C 193.417969 138.980469 193.925781 136.480469 194.449219 133.929688 C 194.800781 132.222656 195.199219 130.5 195.585938 128.832031 C 195.777344 128.023438 195.964844 127.210938 196.144531 126.402344 C 196.472656 124.964844 196.855469 123.519531 197.226562 122.125 C 197.511719 121.058594 197.796875 119.992188 198.054688 118.929688 C 198.382812 117.578125 198.800781 116.234375 199.199219 114.9375 C 199.546875 113.816406 199.90625 112.65625 200.199219 111.519531 C 200.519531 110.277344 200.777344 109.03125 201.03125 107.824219 C 201.308594 106.492188 201.574219 105.234375 201.90625 103.996094 C 202.34375 102.363281 202.796875 100.78125 203.234375 99.246094 C 203.496094 98.339844 203.75 97.445312 203.992188 96.574219 C 204.386719 95.152344 204.820312 93.800781 205.242188 92.492188 C 205.609375 91.34375 205.957031 90.261719 206.261719 89.195312 C 206.707031 87.621094 207.074219 86.09375 207.398438 84.75 C 207.65625 83.667969 207.90625 82.644531 208.160156 81.714844 C 210.183594 74.417969 209.734375 74.160156 209.433594 73.992188 C 209.339844 73.9375 209.1875 73.890625 208.984375 73.957031 C 207.949219 74.304688 206.011719 78.085938 204.539062 81.507812 C 203.894531 83.007812 203.304688 84.683594 202.675781 86.460938 C 202.28125 87.570312 201.878906 88.71875 201.441406 89.871094 C 200.710938 91.804688 200.039062 93.84375 199.390625 95.816406 C 199.117188 96.652344 198.84375 97.484375 198.566406 98.304688 C 197.78125 100.632812 197.15625 102.96875 196.609375 105.027344 C 196.441406 105.660156 196.277344 106.273438 196.113281 106.863281 C 195.800781 108.007812 195.4375 109.152344 195.085938 110.261719 C 194.679688 111.539062 194.261719 112.863281 193.921875 114.175781 C 193.628906 115.308594 193.292969 116.445312 192.96875 117.546875 C 192.582031 118.847656 192.183594 120.191406 191.859375 121.53125 C 191.539062 122.828125 191.335938 124.167969 191.136719 125.460938 C 190.957031 126.644531 190.769531 127.871094 190.496094 129.050781 C 190.222656 130.234375 189.8125 131.421875 189.417969 132.570312 C 188.992188 133.800781 188.554688 135.074219 188.269531 136.371094 C 187.992188 137.648438 187.84375 138.972656 187.703125 140.25 C 187.570312 141.46875 187.433594 142.730469 187.179688 143.945312 C 186.863281 145.449219 186.5625 146.96875 186.261719 148.496094 C 186.070312 149.46875 185.878906 150.445312 185.679688 151.425781 C 185.398438 152.828125 185.132812 154.242188 184.863281 155.664062 C 184.660156 156.742188 184.457031 157.824219 184.242188 158.914062 C 184.007812 160.105469 183.628906 161.253906 183.226562 162.472656 C 182.824219 163.703125 182.402344 164.972656 182.152344 166.285156 C 181.910156 167.539062 181.695312 168.804688 181.480469 170.085938 C 181.273438 171.316406 181.066406 172.554688 180.832031 173.804688 C 180.722656 174.371094 180.589844 175.054688 180.4375 175.832031 C 180.160156 177.242188 179.824219 178.953125 179.488281 180.777344 C 179.261719 181.988281 179.183594 183.289062 179.105469 184.542969 C 179.039062 185.65625 178.96875 186.804688 178.796875 187.867188 C 178.65625 188.742188 178.511719 189.566406 178.375 190.34375 C 178.066406 192.085938 177.800781 193.59375 177.746094 194.738281 L 177.730469 195.082031 L 178.078125 195.089844 C 178.839844 195.109375 179.578125 195.144531 180.320312 195.179688 C 181.316406 195.230469 182.351562 195.28125 183.441406 195.28125 L 183.714844 195.285156 L 183.769531 195.015625 C 183.882812 194.480469 184.015625 193.882812 184.160156 193.230469 C 184.511719 191.644531 184.953125 189.664062 185.355469 187.4375 C 185.570312 186.253906 185.753906 185.007812 185.949219 183.6875 C 186.132812 182.417969 186.324219 181.109375 186.558594 179.769531 C 186.78125 178.488281 186.988281 177.171875 187.199219 175.832031 C 187.394531 174.605469 187.589844 173.359375 187.804688 172.109375 C 188.027344 170.804688 188.226562 169.488281 188.425781 168.171875 C 188.617188 166.921875 188.808594 165.675781 189.015625 164.441406 C 189.242188 163.113281 189.5 161.792969 189.746094 160.515625 C 189.996094 159.234375 190.234375 158.019531 190.4375 156.808594 C 190.679688 155.378906 190.859375 153.992188 191.035156 152.652344 Z M 173.828125 189.359375 C 173.792969 187.730469 173.691406 186.054688 173.597656 184.433594 C 173.542969 183.503906 173.488281 182.566406 173.441406 181.625 C 173.386719 180.476562 173.390625 179.289062 173.394531 178.140625 C 173.402344 176.710938 173.40625 175.238281 173.300781 173.773438 C 173.203125 172.390625 172.953125 171 172.710938 169.648438 C 172.5 168.457031 172.28125 167.21875 172.164062 166 C 172.054688 164.835938 171.996094 163.640625 171.945312 162.484375 C 171.875 161.066406 171.808594 159.605469 171.640625 158.167969 C 171.390625 156.035156 171.054688 153.21875 170.664062 150.382812 C 170.449219 148.828125 170.171875 147.265625 169.898438 145.753906 C 169.710938 144.71875 169.527344 143.683594 169.359375 142.644531 C 169.09375 140.972656 168.765625 139.292969 168.449219 137.671875 C 168.269531 136.757812 168.09375 135.84375 167.925781 134.933594 L 167.765625 134.058594 C 167.351562 131.804688 166.925781 129.472656 166.457031 127.230469 C 166.125 125.652344 165.714844 124.097656 165.316406 122.59375 C 165.050781 121.597656 164.789062 120.609375 164.550781 119.621094 C 164.269531 118.4375 164.070312 117.226562 163.882812 116.050781 C 163.65625 114.671875 163.425781 113.246094 163.054688 111.90625 C 162.363281 109.398438 161.589844 107.003906 160.839844 104.6875 L 160.746094 104.394531 C 160.21875 102.765625 159.546875 101.246094 158.898438 99.777344 C 158.492188 98.859375 158.109375 97.996094 157.769531 97.121094 C 157.53125 96.515625 157.304688 95.917969 157.078125 95.328125 C 156.335938 93.375 155.628906 91.527344 154.789062 89.859375 C 154.394531 89.074219 153.359375 88.5 152.5 88.933594 C 152.109375 89.128906 151.785156 89.527344 151.617188 90.027344 C 151.449219 90.53125 151.464844 91.042969 151.660156 91.433594 C 151.914062 91.933594 152.175781 92.441406 152.441406 92.960938 C 153.351562 94.710938 154.285156 96.523438 155.070312 98.546875 L 155.109375 98.644531 C 156.015625 100.972656 156.953125 103.386719 157.78125 105.980469 C 158.390625 107.878906 158.917969 109.84375 159.476562 111.921875 L 159.929688 113.601562 C 160.191406 114.5625 160.480469 115.523438 160.773438 116.5 C 161.230469 118.03125 161.703125 119.617188 162.082031 121.230469 C 162.394531 122.554688 162.558594 123.90625 162.730469 125.335938 C 162.878906 126.5625 163.03125 127.828125 163.285156 129.074219 L 163.558594 130.402344 C 163.992188 132.496094 164.441406 134.660156 164.832031 136.835938 C 164.984375 137.695312 165.148438 138.558594 165.308594 139.421875 C 165.628906 141.121094 165.957031 142.878906 166.230469 144.628906 C 166.410156 145.792969 166.640625 146.96875 166.863281 148.105469 C 167.144531 149.519531 167.433594 150.984375 167.625 152.433594 C 167.8125 153.839844 167.894531 155.292969 167.972656 156.695312 C 168.042969 157.894531 168.109375 159.128906 168.246094 160.339844 L 168.402344 161.757812 C 168.640625 163.878906 168.886719 166.070312 169.078125 168.21875 C 169.183594 169.398438 169.332031 170.585938 169.476562 171.730469 C 169.65625 173.167969 169.84375 174.648438 169.941406 176.097656 C 170.042969 177.671875 170.070312 179.238281 170.09375 180.753906 C 170.105469 181.351562 170.113281 181.949219 170.128906 182.546875 C 169.777344 181.929688 169.441406 181.371094 169.148438 180.886719 C 168.855469 180.398438 168.601562 179.972656 168.398438 179.609375 C 167.792969 178.515625 167.210938 177.421875 166.640625 176.34375 C 166.015625 175.167969 165.398438 174.011719 164.765625 172.878906 C 164.152344 171.78125 163.585938 170.652344 163.035156 169.558594 C 162.457031 168.40625 161.859375 167.21875 161.21875 166.089844 C 160.519531 164.859375 159.769531 163.65625 159.042969 162.492188 C 158.445312 161.527344 157.824219 160.53125 157.25 159.546875 C 156.648438 158.519531 156.085938 157.449219 155.539062 156.417969 C 154.914062 155.230469 154.265625 154.003906 153.5625 152.839844 C 152.855469 151.664062 152.042969 150.539062 151.257812 149.453125 C 150.574219 148.5 149.867188 147.519531 149.238281 146.515625 C 148.609375 145.519531 148.042969 144.445312 147.496094 143.410156 C 146.871094 142.222656 146.222656 140.992188 145.464844 139.839844 C 144.734375 138.726562 143.851562 137.691406 143 136.683594 C 142.21875 135.765625 141.414062 134.816406 140.722656 133.808594 C 140.265625 133.144531 139.824219 132.40625 139.355469 131.628906 C 138.597656 130.359375 137.8125 129.050781 136.820312 127.800781 C 135.875 126.605469 134.824219 125.429688 133.804688 124.289062 C 133.238281 123.65625 132.675781 123.027344 132.132812 122.394531 L 131.480469 121.640625 C 130.039062 119.960938 128.675781 118.378906 127.394531 117.039062 C 124.222656 113.710938 122.277344 112.300781 121.632812 112.835938 C 121.164062 113.222656 121.582031 113.847656 124.191406 117.554688 C 124.613281 118.148438 125.074219 118.804688 125.574219 119.519531 C 126.15625 120.351562 126.71875 121.324219 127.3125 122.347656 C 128.023438 123.574219 128.757812 124.839844 129.660156 126.132812 C 130.292969 127.035156 130.976562 127.925781 131.703125 128.867188 C 132.558594 129.980469 133.445312 131.128906 134.285156 132.363281 C 135.542969 134.207031 136.910156 136.253906 138.589844 138.8125 C 139.820312 140.683594 141.351562 143.011719 142.796875 145.324219 C 144.175781 147.523438 145.53125 149.8125 146.796875 151.96875 C 147.839844 153.738281 148.832031 155.578125 149.792969 157.359375 L 150.546875 158.75 C 150.855469 159.324219 151.273438 159.984375 151.753906 160.75 C 152.476562 161.898438 153.292969 163.199219 154.101562 164.734375 C 154.574219 165.628906 155.039062 166.589844 155.53125 167.601562 C 156.058594 168.691406 156.605469 169.816406 157.207031 170.957031 C 157.53125 171.578125 157.859375 172.21875 158.1875 172.871094 C 157.660156 172.136719 157.109375 171.417969 156.519531 170.734375 C 155.007812 168.988281 153.328125 167.324219 151.269531 165.355469 C 149.6875 163.847656 147.722656 161.96875 145.636719 160.367188 C 144.164062 159.234375 142.496094 158.28125 140.886719 157.359375 C 140.335938 157.046875 139.78125 156.730469 139.238281 156.40625 C 137.167969 155.183594 134.949219 153.902344 132.589844 152.902344 C 130.546875 152.035156 128.417969 151.476562 126.160156 150.882812 L 125.414062 150.6875 C 124.964844 150.566406 124.511719 150.617188 124.144531 150.828125 C 123.800781 151.027344 123.550781 151.363281 123.445312 151.773438 C 123.21875 152.613281 123.617188 153.722656 124.542969 153.96875 C 127.523438 154.757812 129.75 155.503906 131.765625 156.382812 C 132.265625 156.601562 132.769531 156.8125 133.269531 157.027344 C 135.191406 157.84375 137.007812 158.613281 138.6875 159.648438 C 140.195312 160.582031 141.558594 161.761719 142.878906 162.902344 C 143.476562 163.421875 144.070312 163.933594 144.675781 164.425781 C 146.988281 166.296875 148.796875 167.914062 150.367188 169.507812 C 151.023438 170.171875 151.703125 170.8125 152.363281 171.433594 C 153.609375 172.605469 154.785156 173.710938 155.789062 174.949219 C 156.996094 176.441406 158.035156 178.027344 159.039062 179.558594 C 159.417969 180.136719 159.789062 180.707031 160.164062 181.257812 C 161.152344 182.71875 161.925781 184.222656 162.675781 185.675781 C 163.085938 186.476562 163.476562 187.230469 163.886719 187.957031 C 165.359375 190.554688 166.652344 192.859375 167.542969 194.777344 L 167.628906 194.957031 L 167.828125 194.972656 C 170.390625 195.136719 173.222656 195.238281 175.894531 195.320312 L 176.390625 195.335938 L 176.222656 194.871094 C 175.78125 193.65625 174.925781 191.578125 173.828125 189.359375 Z M 173.828125 189.359375 " fill-opacity="1" fill-rule="nonzero"/><g clip-path="url(#aa5951d4b0)"><path fill="#e26e4e" d="M 107.851562 85.875 C 106.355469 84.390625 105.601562 82.589844 105.484375 80.203125 C 105.402344 78.605469 106.390625 76.9375 108.417969 75.25 L 108.886719 74.855469 C 110.171875 73.777344 111.628906 72.554688 113.089844 71.6875 C 114.128906 71.070312 115.101562 70.542969 115.882812 70.121094 C 116.714844 69.675781 117.570312 69.214844 117.742188 69.027344 C 117.832031 68.207031 117.203125 66.683594 116.828125 65.769531 C 116.757812 65.601562 116.695312 65.445312 116.640625 65.308594 C 116.332031 64.53125 115.824219 63.683594 115.289062 62.789062 C 114.433594 61.359375 113.460938 59.738281 113.148438 58.0625 C 112.609375 55.164062 113.65625 52.339844 115.949219 50.507812 C 117.832031 49.003906 120.027344 47.910156 122.304688 47.347656 C 124.3125 46.851562 126.582031 46.445312 129.234375 46.113281 C 129.945312 46.023438 131.324219 46.269531 132.429688 46.464844 C 132.894531 46.542969 133.449219 46.644531 133.699219 46.664062 C 133.726562 46.492188 133.769531 46.015625 133.8125 45.585938 C 133.886719 44.789062 133.992188 43.699219 134.25 42.683594 C 134.765625 40.667969 135.351562 38.386719 136.484375 36.503906 C 137.324219 35.105469 138.519531 34.09375 139.675781 33.117188 C 140.1875 32.6875 140.667969 32.28125 141.09375 31.859375 C 141.515625 31.441406 141.921875 31.023438 142.308594 30.625 C 143.929688 28.953125 145.214844 27.632812 146.375 27.632812 C 146.382812 27.632812 146.386719 27.632812 146.394531 27.632812 C 148.398438 27.65625 150.847656 29.976562 153.394531 32.558594 C 155.539062 34.738281 157.035156 37.222656 157.601562 39.5625 C 157.859375 40.621094 157.890625 42.226562 157.914062 43.519531 C 157.929688 44.292969 157.949219 45.238281 158.027344 45.535156 C 158.433594 45.582031 160.125 45.347656 161.265625 45.191406 C 162.335938 45.046875 163.351562 44.910156 163.929688 44.886719 C 166.371094 44.789062 169.441406 45.273438 172.160156 46.1875 C 174.65625 47.027344 177.6875 48.308594 178.992188 50.796875 C 179.847656 52.4375 179.378906 54.664062 177.632812 57.242188 C 176.859375 58.382812 175.738281 59.289062 174.546875 60.25 C 173.933594 60.75 173.296875 61.261719 172.722656 61.808594 C 172.308594 62.199219 171.90625 62.59375 171.511719 62.980469 C 170.210938 64.246094 168.984375 65.445312 167.757812 66.21875 C 167.132812 66.613281 165.558594 67.222656 164.035156 67.808594 C 163.292969 68.09375 162.421875 68.429688 161.9375 68.644531 C 161.941406 68.648438 161.945312 68.652344 161.949219 68.65625 C 163.453125 69.730469 168.035156 73.007812 168.585938 76.503906 C 168.890625 78.433594 168.652344 80.976562 168.421875 83.4375 C 168.371094 84.007812 168.316406 84.574219 168.269531 85.128906 C 167.953125 88.988281 166.902344 92.402344 166.265625 93.386719 C 164.796875 95.664062 162.304688 95.925781 159.664062 96.007812 C 157.519531 96.078125 155.023438 95.890625 152.246094 95.460938 C 148.347656 94.859375 146.003906 92.769531 145 91.878906 C 144.890625 91.78125 144.773438 91.675781 144.691406 91.609375 C 144.113281 92.015625 141.042969 94.925781 139.363281 96.519531 C 138.59375 97.25 137.976562 97.832031 137.710938 98.070312 C 136.335938 99.3125 133.769531 101.179688 131.148438 102.558594 L 130.898438 102.691406 C 129.105469 103.636719 127.265625 104.605469 125.550781 104.605469 C 124.789062 104.605469 124.046875 104.414062 123.347656 103.941406 C 121.742188 102.863281 121.128906 100.066406 120.53125 97.363281 L 120.4375 96.9375 C 119.894531 94.476562 119.667969 91.953125 119.546875 90.597656 C 119.539062 90.511719 119.53125 90.425781 119.523438 90.339844 L 119.261719 90.367188 L 119.226562 90.25 C 118.675781 90.050781 116.359375 89.324219 113.417969 88.476562 L 112.964844 88.34375 C 111.160156 87.828125 109.289062 87.296875 107.851562 85.875 Z M 218.292969 79.0625 C 218.9375 79.4375 220.644531 79.957031 222.148438 80.414062 C 222.789062 80.609375 223.539062 80.839844 224.003906 81 C 222.492188 82.050781 218.183594 85.078125 217.699219 88.316406 C 217.492188 89.699219 217.859375 91.339844 218.25 93.078125 C 218.492188 94.15625 218.742188 95.265625 218.851562 96.328125 C 218.929688 97.09375 218.996094 97.84375 219.0625 98.5625 C 219.355469 101.730469 219.542969 103.554688 220.03125 104.25 C 221.410156 106.21875 223.890625 107.371094 226.839844 107.410156 C 229.152344 107.445312 231.726562 107.019531 234.007812 106.648438 L 234.21875 106.613281 C 238.113281 105.980469 240.339844 103.003906 241.289062 101.734375 C 241.363281 101.628906 241.445312 101.519531 241.515625 101.433594 C 242.136719 101.9375 244.113281 103.921875 245.460938 105.28125 C 246.765625 106.59375 247.890625 107.726562 248.300781 108.066406 C 249.761719 109.28125 252.242188 111.019531 254.8125 112.25 C 256.109375 112.871094 257.542969 113.421875 259.003906 113.421875 C 259.996094 113.421875 261.003906 113.171875 261.992188 112.515625 C 263.644531 111.421875 264.917969 109.328125 265.476562 106.769531 C 265.996094 104.386719 265.957031 101.921875 265.9375 100.597656 C 265.9375 100.453125 265.933594 100.304688 265.933594 100.175781 C 265.972656 100.1875 266.015625 100.199219 266.058594 100.207031 L 266.355469 100.261719 L 266.367188 100.214844 C 266.378906 100.21875 266.390625 100.21875 266.402344 100.21875 C 267.21875 100.265625 269.691406 100.410156 272.21875 99.6875 C 274.300781 99.09375 276.359375 97.972656 277.722656 96.691406 C 279.179688 95.320312 279.261719 93.152344 279.347656 90.859375 C 279.425781 88.8125 277.671875 86.578125 274.414062 84.566406 C 272.769531 83.554688 271.0625 82.675781 269.691406 81.972656 C 268.636719 81.429688 267.546875 80.871094 267.328125 80.648438 C 267.308594 80.203125 267.941406 79.453125 268.453125 78.847656 C 268.867188 78.355469 269.257812 77.894531 269.417969 77.492188 C 269.832031 76.457031 270.160156 75.164062 270.507812 73.796875 C 270.8125 72.597656 271.128906 71.355469 271.519531 70.214844 C 272.488281 67.386719 273.09375 64.898438 270.652344 63.097656 C 269.078125 61.9375 266.9375 61.605469 264.667969 61.25 C 264.230469 61.179688 263.789062 61.113281 263.351562 61.039062 C 262.234375 60.847656 261.117188 60.589844 260.035156 60.34375 C 258.566406 60.007812 257.179688 59.691406 255.925781 59.5625 C 255.265625 59.492188 254.070312 59.632812 253.011719 59.753906 C 252.507812 59.808594 251.894531 59.878906 251.648438 59.882812 C 251.53125 59.636719 251.363281 58.925781 251.210938 58.292969 C 251.070312 57.710938 250.910156 57.046875 250.722656 56.386719 C 250.582031 55.894531 250.457031 55.386719 250.332031 54.878906 C 249.960938 53.355469 249.574219 51.78125 248.707031 50.460938 C 247.851562 49.160156 246.660156 48.234375 245.511719 47.339844 C 245.015625 46.953125 244.542969 46.585938 244.125 46.207031 C 241.890625 44.183594 240.195312 43.242188 238.898438 43.253906 C 236.976562 43.304688 234.5 44.691406 232.101562 47.054688 C 230.128906 49 227.976562 51.269531 227.417969 53.597656 C 227.171875 54.636719 227.230469 56.015625 227.277344 57.121094 C 227.300781 57.664062 227.328125 58.328125 227.28125 58.570312 C 226.691406 58.695312 223.996094 58.609375 222.8125 58.574219 L 221.9375 58.546875 C 219.363281 58.484375 216.328125 58.949219 213.828125 59.78125 C 210.765625 60.800781 208.472656 62.507812 207.367188 64.585938 C 206.378906 66.449219 207.636719 68.574219 208.996094 70.40625 C 209.378906 70.917969 209.738281 71.496094 210.117188 72.109375 C 210.886719 73.359375 211.6875 74.648438 212.8125 75.628906 C 214.164062 76.808594 215.71875 77.652344 217.09375 78.394531 C 217.519531 78.628906 217.925781 78.847656 218.292969 79.0625 Z M 212.085938 118.097656 C 212.816406 119.289062 212.367188 121.410156 210.667969 124.769531 C 209.617188 126.847656 208.289062 128.679688 206.714844 130.214844 C 206.410156 130.515625 206.109375 130.824219 205.808594 131.128906 C 204.691406 132.277344 203.535156 133.460938 202.035156 134.164062 C 202.699219 134.65625 203.238281 135.066406 203.816406 135.765625 C 205.074219 137.273438 206.664062 139.65625 207.082031 142.445312 C 207.34375 144.175781 206.800781 145.929688 206.277344 147.625 C 206.058594 148.324219 205.855469 148.984375 205.703125 149.640625 C 205.128906 152.136719 204.121094 154.179688 202.625 155.894531 C 201.632812 157.03125 199.722656 157.378906 196.785156 156.957031 C 194.75 156.664062 192.730469 156.03125 190.785156 155.082031 C 190.359375 154.871094 189.917969 154.675781 189.476562 154.476562 C 188.058594 153.847656 186.597656 153.195312 185.472656 152.085938 C 185.441406 152.097656 185.414062 152.109375 185.390625 152.117188 C 185.382812 152.121094 185.371094 152.121094 185.363281 152.125 L 185.179688 152.800781 C 184.628906 154.839844 184.003906 157.148438 182.324219 158.726562 C 180.789062 160.167969 178.695312 160.976562 176.667969 161.757812 C 176.367188 161.875 176.066406 161.988281 175.777344 162.105469 C 174.078125 162.777344 172.242188 163.121094 170.378906 163.121094 C 169.808594 163.121094 169.234375 163.085938 168.664062 163.019531 C 166.71875 162.800781 163.929688 160.375 162.621094 156.703125 C 161.738281 154.21875 161.878906 151.042969 162.167969 148.191406 C 159.882812 148.554688 157.59375 148.453125 155.679688 147.902344 C 153.730469 147.335938 152.070312 146.109375 150.460938 144.921875 L 149.859375 144.476562 C 149.402344 144.144531 148.921875 143.824219 148.441406 143.507812 C 146.925781 142.496094 145.355469 141.453125 144.597656 139.980469 C 143.996094 138.804688 144.640625 136.570312 146.519531 133.332031 C 147.492188 131.660156 148.933594 129.945312 150.6875 128.375 C 151.082031 128.023438 151.46875 127.640625 151.859375 127.253906 C 152.824219 126.304688 153.8125 125.328125 155 124.691406 C 153.28125 123.09375 151.957031 120.960938 151.25 118.660156 C 150.675781 116.773438 150.882812 114.753906 151.082031 112.800781 C 151.128906 112.339844 151.175781 111.882812 151.214844 111.429688 C 151.417969 108.875 152.117188 106.703125 153.347656 104.78125 C 154.140625 103.550781 155.890625 103 159.023438 103 C 159.078125 103 159.132812 103 159.1875 103 C 159.78125 103 160.410156 102.941406 161.078125 102.875 C 162.554688 102.738281 164.230469 102.582031 165.78125 103.101562 C 167.558594 103.695312 169.246094 105.207031 170.734375 106.535156 C 170.878906 106.664062 171.015625 106.789062 171.15625 106.910156 C 171.890625 104.75 173.457031 102.742188 174.6875 101.394531 C 176.339844 99.585938 178.039062 98.242188 179.878906 97.285156 C 180.222656 97.105469 180.566406 96.917969 180.910156 96.734375 C 182.707031 95.761719 184.40625 94.839844 186.226562 94.816406 C 187.585938 94.804688 189.1875 96.226562 191.144531 99.167969 C 192.277344 100.875 192.964844 103 193.539062 105.042969 C 193.988281 106.644531 194.472656 108.964844 194.34375 111.183594 C 196.367188 110.664062 198.84375 110.0625 200.996094 110.519531 C 202.824219 110.90625 204.457031 111.960938 206.03125 112.980469 C 206.375 113.203125 206.710938 113.421875 207.046875 113.628906 C 208.882812 114.769531 210.914062 116.191406 212.085938 118.097656 Z M 171.65625 128.960938 C 172.890625 130.429688 174.558594 132.421875 175.058594 134.515625 C 177.425781 134.558594 180.351562 135.445312 182.191406 136.664062 C 182.246094 136.492188 182.304688 136.328125 182.375 136.203125 C 183.125 134.871094 185.089844 133.109375 186.976562 131.527344 C 185.371094 129.667969 183.238281 126.199219 182.871094 123.75 C 180.273438 123.957031 176.820312 124.207031 175.15625 123.0625 C 174.132812 124.875 172.5625 126.714844 171.078125 127.828125 C 171.082031 127.894531 171.082031 127.964844 171.085938 128.054688 C 171.089844 128.136719 171.089844 128.222656 171.09375 128.285156 C 171.265625 128.492188 171.453125 128.71875 171.65625 128.960938 Z M 278.582031 148.359375 L 278.089844 147.617188 C 277.777344 147.140625 277.503906 146.59375 277.214844 146.019531 C 276.671875 144.9375 276.054688 143.714844 275.054688 142.742188 C 273.207031 140.945312 270.171875 139.472656 268.710938 138.761719 C 268.519531 138.671875 268.328125 138.578125 268.191406 138.507812 C 268.230469 138.410156 268.28125 138.296875 268.332031 138.179688 C 268.753906 137.207031 269.636719 135.183594 270.035156 133.019531 C 270.414062 130.980469 270.566406 128.71875 270.429688 127.117188 C 270.167969 124.03125 268.410156 119.882812 266.023438 118.566406 C 263.933594 117.410156 259.097656 118.945312 256.832031 119.917969 C 253.523438 121.339844 251.011719 123.835938 249.804688 125.039062 C 249.648438 125.191406 249.492188 125.34375 249.382812 125.449219 C 249.285156 125.359375 249.15625 125.230469 249.023438 125.101562 C 248.023438 124.105469 245.679688 121.78125 242.582031 119.898438 C 238.117188 117.1875 235.058594 115.464844 233.324219 116.183594 C 230.640625 117.296875 230.039062 120.363281 229.511719 123.070312 C 229.390625 123.699219 229.273438 124.289062 229.136719 124.835938 C 228.359375 127.921875 228.011719 131.074219 227.804688 132.957031 C 227.746094 133.496094 227.6875 134.011719 227.640625 134.300781 L 227.601562 134.3125 C 226.761719 134.550781 225.835938 134.726562 224.941406 134.898438 C 223.734375 135.128906 222.59375 135.34375 221.703125 135.695312 C 221.480469 135.785156 221.238281 135.878906 220.980469 135.976562 C 218.378906 136.964844 214.449219 138.460938 213.515625 141.617188 C 212.984375 143.402344 214.894531 146.457031 216.078125 148.117188 C 217.796875 150.53125 219.410156 152.519531 220.390625 153.429688 C 221.167969 154.15625 223.433594 155.046875 224.9375 155.636719 C 225.328125 155.792969 225.730469 155.949219 225.945312 156.046875 C 225.898438 156.257812 225.792969 156.632812 225.699219 156.96875 C 225.410156 157.976562 225.019531 159.355469 224.921875 160.449219 C 224.742188 162.386719 224.578125 164.925781 224.886719 167.390625 L 224.914062 167.605469 C 225.265625 170.402344 225.597656 173.042969 226.828125 174.15625 C 228.363281 175.546875 233.753906 174.929688 237.050781 173.949219 C 239.257812 173.296875 241.867188 171.789062 244.804688 169.472656 C 246.804688 173 248.933594 175.09375 250.375 176.230469 C 251.785156 177.34375 253.523438 178.363281 255.273438 179.105469 C 256.738281 179.730469 258.054688 179.925781 259.066406 179.925781 C 259.8125 179.925781 260.394531 179.820312 260.75 179.699219 C 262.324219 179.15625 264.542969 177.539062 265.617188 174.78125 C 266.742188 171.894531 267.128906 168.757812 267.222656 167.863281 C 267.371094 166.402344 266.796875 164.015625 266.417969 162.4375 C 266.285156 161.882812 266.136719 161.261719 266.109375 161.023438 C 266.480469 160.777344 268.136719 160.398438 269.25 160.144531 C 270.503906 159.855469 271.6875 159.585938 272.351562 159.3125 C 274.425781 158.453125 279.359375 156.105469 280.375 152.832031 C 280.75 151.617188 279.792969 150.179688 278.582031 148.359375 Z M 134.914062 134.746094 C 132.53125 133.511719 129.8125 132.347656 128.296875 131.917969 C 127.234375 131.617188 124.796875 131.886719 123.183594 132.066406 C 122.785156 132.109375 122.378906 132.15625 122.136719 132.171875 C 122.117188 131.984375 122.101562 131.6875 122.085938 131.414062 C 122.019531 130.300781 121.925781 128.617188 121.445312 127.457031 C 120.914062 126.175781 119.886719 124.828125 118.796875 123.402344 C 118.285156 122.730469 117.757812 122.039062 117.277344 121.34375 C 116.890625 120.785156 116.519531 120.210938 116.15625 119.648438 C 114.851562 117.625 113.722656 115.882812 112.378906 115.523438 C 111.503906 115.285156 110.390625 116.019531 108.980469 116.949219 C 108.441406 117.304688 107.886719 117.667969 107.316406 117.996094 C 106.808594 118.289062 106.238281 118.554688 105.6875 118.8125 C 104.59375 119.328125 103.464844 119.855469 102.667969 120.640625 C 101.492188 121.796875 99.75 124.203125 98.109375 129.082031 C 94.589844 126.683594 91.640625 125.738281 89.773438 125.371094 C 87.917969 125.003906 85.949219 125.152344 84.214844 125.28125 L 83.960938 125.300781 C 80.582031 125.550781 78.867188 125.945312 78.234375 126.625 C 77.015625 127.933594 76.417969 130.929688 76.773438 133.914062 C 76.996094 135.777344 77.84375 137.535156 78.597656 139.085938 C 78.886719 139.6875 79.160156 140.25 79.363281 140.757812 C 79.824219 141.902344 80.636719 143.492188 81.292969 144.773438 C 81.753906 145.675781 82.28125 146.703125 82.320312 146.835938 C 82.226562 147.136719 80.980469 148.082031 80.070312 148.769531 C 79.015625 149.574219 77.921875 150.402344 77.410156 151.023438 C 76.367188 152.289062 75.300781 154.019531 74.484375 155.765625 C 73.710938 157.417969 74.082031 159.15625 74.378906 160.550781 C 74.429688 160.789062 74.480469 161.015625 74.519531 161.238281 C 74.75 162.441406 75.5625 164.1875 78.140625 165.65625 L 78.75 166.003906 C 80.152344 166.816406 81.742188 167.734375 83.558594 168.292969 C 86.136719 169.085938 89.636719 168.949219 91.320312 168.882812 C 91.527344 168.875 91.734375 168.867188 91.890625 168.863281 C 91.894531 168.960938 91.898438 169.074219 91.902344 169.1875 C 91.933594 170.316406 92 172.660156 92.699219 174.90625 C 93.488281 177.425781 94.835938 179.6875 95.375 180.542969 C 96.894531 182.9375 100.5625 186.523438 103.601562 186.617188 C 103.621094 186.617188 103.644531 186.617188 103.667969 186.617188 C 105.960938 186.617188 109.011719 183.144531 111.113281 180.519531 C 113.433594 177.621094 114.550781 174.003906 115.085938 172.261719 C 115.15625 172.03125 115.230469 171.796875 115.285156 171.640625 C 115.425781 171.679688 115.621094 171.738281 115.820312 171.800781 C 117.257812 172.246094 120.621094 173.285156 124.355469 173.554688 L 125.0625 173.605469 C 129.53125 173.929688 133.066406 174.1875 134.292969 172.6875 C 136.519531 169.984375 135.960938 166.105469 135.113281 162.667969 C 134.242188 159.101562 132.625 156.058594 131.847656 154.59375 C 131.722656 154.359375 131.597656 154.121094 131.507812 153.945312 C 132.851562 152.65625 134.808594 150.769531 135.929688 149.457031 C 137.964844 147.070312 140.238281 143.488281 139.523438 139.96875 C 139.214844 138.445312 137.640625 136.160156 134.914062 134.746094 Z M 134.914062 134.746094 " fill-opacity="1" fill-rule="nonzero"/></g><path fill="#fefee3" d="M 148.902344 56.582031 C 151.066406 59.6875 151.695312 63.699219 150.628906 67.585938 C 149.546875 71.53125 146.878906 74.8125 143.488281 76.355469 C 141.984375 77.042969 140.015625 77.789062 137.972656 77.789062 C 136.785156 77.789062 135.570312 77.535156 134.40625 76.875 L 134.15625 76.734375 C 133.230469 76.210938 132.273438 75.671875 131.5 74.863281 L 130.042969 73.335938 C 129.878906 73.25 129.742188 73.15625 129.617188 73.039062 C 128.796875 72.296875 128.945312 71.199219 129.074219 70.230469 C 129.125 69.835938 129.175781 69.464844 129.15625 69.152344 C 129.132812 68.726562 128.980469 68.308594 128.820312 67.863281 C 128.621094 67.304688 128.414062 66.722656 128.457031 66.089844 C 128.574219 64.378906 129.746094 63.550781 130.882812 62.75 C 131.53125 62.292969 132.140625 61.859375 132.566406 61.273438 C 132.84375 60.894531 133.019531 60.460938 133.207031 60.003906 C 133.542969 59.191406 133.886719 58.347656 134.820312 57.828125 C 135.398438 57.503906 136.023438 57.386719 136.625 57.277344 C 137.160156 57.179688 137.664062 57.085938 138.125 56.859375 C 138.65625 56.59375 139.164062 56.199219 139.65625 55.816406 C 140.261719 55.347656 140.886719 54.859375 141.589844 54.582031 C 142.277344 54.308594 143.222656 54.324219 143.941406 54.621094 C 144.195312 54.726562 144.410156 54.871094 144.597656 55.066406 C 144.738281 55.210938 144.820312 55.316406 144.867188 55.398438 L 144.902344 55.441406 C 145.089844 55.492188 145.515625 55.359375 145.75 55.289062 C 145.871094 55.25 145.984375 55.21875 146.074219 55.195312 C 147.128906 54.957031 148.09375 55.308594 148.660156 56.136719 C 148.746094 56.265625 148.816406 56.398438 148.875 56.542969 Z M 247.695312 89.117188 C 248.902344 89.117188 250.132812 88.871094 251.304688 88.214844 L 251.539062 88.085938 C 252.441406 87.582031 253.375 87.0625 254.125 86.296875 C 254.332031 86.085938 255.0625 85.335938 255.402344 84.984375 L 255.527344 84.855469 C 255.6875 84.773438 255.820312 84.679688 255.945312 84.570312 C 256.75 83.855469 256.582031 82.78125 256.445312 81.914062 C 256.390625 81.550781 256.335938 81.207031 256.347656 80.917969 C 256.367188 80.527344 256.507812 80.136719 256.65625 79.722656 C 256.847656 79.195312 257.046875 78.648438 256.996094 78.050781 C 256.855469 76.441406 255.6875 75.683594 254.5625 74.953125 C 253.921875 74.535156 253.316406 74.144531 252.894531 73.605469 C 252.621094 73.253906 252.441406 72.859375 252.25 72.4375 C 251.910156 71.675781 251.558594 70.894531 250.632812 70.421875 C 250.0625 70.125 249.449219 70.027344 248.855469 69.933594 C 248.332031 69.847656 247.835938 69.769531 247.382812 69.5625 C 246.859375 69.328125 246.351562 68.964844 245.863281 68.617188 C 245.265625 68.1875 244.648438 67.742188 243.953125 67.492188 C 243.277344 67.25 242.355469 67.277344 241.65625 67.566406 C 241.40625 67.667969 241.199219 67.808594 241.019531 67.988281 C 240.878906 68.128906 240.796875 68.230469 240.753906 68.3125 L 240.726562 68.34375 C 240.542969 68.390625 240.121094 68.277344 239.890625 68.210938 C 239.769531 68.179688 239.660156 68.148438 239.570312 68.128906 C 238.539062 67.921875 237.597656 68.269531 237.050781 69.050781 C 236.96875 69.167969 236.902344 69.292969 236.84375 69.429688 L 236.816406 69.46875 C 234.777344 72.34375 234.195312 76.027344 235.214844 79.585938 C 236.296875 83.347656 238.984375 86.441406 242.398438 87.863281 C 243.855469 88.46875 245.738281 89.117188 247.695312 89.117188 Z M 188.914062 127.871094 C 188.507812 127.496094 188.046875 127.070312 188.027344 126.75 C 188.007812 126.4375 188.097656 126.136719 188.195312 125.816406 C 188.371094 125.242188 188.570312 124.589844 188.027344 123.902344 C 187.660156 123.4375 187.140625 123.257812 186.683594 123.097656 C 186.328125 122.972656 185.996094 122.855469 185.78125 122.628906 C 185.515625 122.351562 185.425781 122.039062 185.332031 121.710938 C 185.15625 121.105469 184.957031 120.421875 183.628906 120.421875 C 183.613281 120.421875 183.59375 120.421875 183.574219 120.421875 C 183.039062 120.429688 182.507812 120.671875 182.039062 120.882812 C 181.773438 121.003906 181.339844 121.210938 181.222656 121.160156 C 181.117188 121.097656 180.984375 121.015625 180.835938 120.925781 C 179.800781 120.292969 178.820312 119.722656 178.230469 119.714844 C 178.222656 119.714844 178.214844 119.714844 178.207031 119.714844 C 177.367188 119.714844 176.96875 120.335938 176.679688 120.789062 C 176.515625 121.046875 176.363281 121.285156 176.21875 121.292969 C 174.589844 121.335938 174.257812 121.671875 174.09375 122.46875 C 174.042969 122.699219 173.992188 122.941406 173.792969 123.203125 C 173.679688 123.359375 173.042969 123.648438 172.625 123.835938 C 171.8125 124.207031 171.308594 124.453125 171.113281 124.757812 C 170.753906 125.324219 170.882812 126.0625 170.992188 126.714844 C 171.046875 127.023438 171.09375 127.320312 171.085938 127.550781 C 171.074219 127.953125 170.78125 128.332031 170.472656 128.734375 C 170.054688 129.273438 169.582031 129.886719 169.726562 130.6875 C 169.8125 131.179688 170.316406 131.644531 170.855469 132.136719 C 171.179688 132.4375 171.550781 132.777344 171.644531 132.992188 C 171.78125 133.3125 171.660156 133.828125 171.542969 134.324219 C 171.375 135.039062 171.203125 135.773438 171.625 136.335938 C 172.152344 137.042969 173.046875 137.078125 173.835938 137.109375 C 174.300781 137.128906 174.738281 137.144531 175.046875 137.285156 C 175.34375 137.421875 175.488281 137.71875 175.652344 138.0625 C 175.863281 138.496094 176.125 139.035156 176.78125 139.226562 C 176.902344 139.257812 177.03125 139.273438 177.164062 139.273438 C 177.75 139.273438 178.449219 138.972656 179.078125 138.699219 C 179.464844 138.53125 179.828125 138.371094 180.074219 138.324219 C 180.371094 138.269531 180.75 138.417969 181.148438 138.578125 C 181.628906 138.769531 182.175781 138.988281 182.714844 138.859375 C 183.328125 138.710938 183.75 138.117188 184.160156 137.539062 C 184.40625 137.191406 184.660156 136.832031 184.910156 136.664062 C 185.453125 136.292969 185.964844 136.28125 186.460938 136.269531 C 186.929688 136.261719 187.414062 136.25 187.820312 135.90625 C 188.769531 135.105469 188.660156 134.40625 188.554688 133.726562 C 188.480469 133.25 188.402344 132.753906 188.609375 132.066406 C 188.714844 131.734375 188.953125 131.429688 189.210938 131.109375 C 189.613281 130.601562 190.066406 130.027344 189.953125 129.253906 C 189.871094 128.753906 189.40625 128.324219 188.914062 127.871094 Z M 257.855469 146.773438 C 258 146.390625 258.152344 145.996094 258.0625 145.496094 C 257.929688 144.757812 257.53125 144.316406 257.144531 143.890625 C 256.820312 143.535156 256.515625 143.199219 256.320312 142.664062 C 256.160156 142.222656 256.160156 141.8125 256.160156 141.378906 C 256.160156 140.816406 256.160156 140.238281 255.777344 139.664062 C 255.332031 138.992188 254.820312 138.90625 254.371094 138.828125 C 254.039062 138.773438 253.730469 138.71875 253.359375 138.46875 C 253.191406 138.351562 253.042969 138.191406 252.882812 138.019531 C 252.484375 137.582031 251.984375 137.039062 250.902344 137.03125 C 250.277344 136.90625 248.132812 137.023438 247.402344 137.207031 C 243.484375 138.179688 241.867188 140.167969 241.355469 140.976562 C 239.066406 144.585938 239.859375 148.757812 240.652344 151.582031 C 241.289062 153.855469 243.453125 156.035156 245.265625 157.011719 C 245.472656 157.125 247.984375 158.089844 248.9375 158.089844 C 249.09375 158.089844 249.210938 158.0625 249.265625 158.003906 L 249.269531 158 C 249.359375 158.027344 249.453125 158.046875 249.546875 158.0625 C 250.210938 158.179688 250.796875 157.734375 251.316406 157.34375 C 251.695312 157.054688 252.085938 156.761719 252.410156 156.75 C 252.582031 156.746094 252.769531 156.765625 252.988281 156.785156 C 253.882812 156.863281 255.234375 156.980469 255.976562 155.832031 C 256.28125 155.359375 256.390625 154.800781 256.5 154.261719 C 256.585938 153.824219 256.667969 153.410156 256.84375 153.101562 C 256.914062 152.980469 256.992188 152.851562 257.074219 152.714844 C 257.609375 151.839844 258.34375 150.640625 257.933594 149.589844 C 257.355469 148.09375 257.621094 147.394531 257.855469 146.773438 Z M 103.8125 140.703125 C 103.554688 140.722656 99.839844 141.121094 99.6875 141.683594 L 99.683594 141.699219 C 99.589844 141.71875 99.496094 141.746094 99.398438 141.777344 C 98.738281 141.984375 98.421875 142.675781 98.140625 143.289062 C 97.933594 143.734375 97.722656 144.199219 97.425781 144.363281 C 97.277344 144.445312 97.089844 144.523438 96.878906 144.613281 C 96.027344 144.964844 94.742188 145.5 94.628906 146.914062 C 94.578125 147.5 94.75 148.066406 94.914062 148.621094 C 95.050781 149.070312 95.179688 149.492188 95.167969 149.867188 C 95.164062 150.011719 95.152344 150.167969 95.144531 150.335938 C 95.082031 151.402344 95 152.863281 95.875 153.640625 C 97.136719 154.753906 97.238281 155.539062 97.324219 156.230469 C 97.378906 156.65625 97.4375 157.09375 97.753906 157.507812 C 98.234375 158.125 98.808594 158.34375 99.367188 158.554688 C 99.835938 158.730469 100.277344 158.898438 100.71875 159.304688 C 101.082031 159.640625 101.292969 160.042969 101.496094 160.429688 C 101.769531 160.949219 102.050781 161.484375 102.675781 161.832031 C 103.402344 162.238281 103.890625 162.082031 104.355469 161.933594 C 104.683594 161.828125 104.992188 161.726562 105.457031 161.785156 C 105.667969 161.8125 105.886719 161.894531 106.117188 161.980469 C 106.449219 162.109375 106.828125 162.253906 107.277344 162.253906 C 107.617188 162.253906 107.996094 162.171875 108.425781 161.941406 C 108.945312 161.777344 110.832031 160.710938 111.5 160.113281 C 114.59375 157.339844 115.097656 154.71875 115.171875 153.722656 C 115.5 149.285156 112.746094 145.785156 110.648438 143.542969 C 108.964844 141.734375 105.933594 140.75 103.8125 140.703125 Z M 103.8125 140.703125 " fill-opacity="1" fill-rule="nonzero"/><path fill="#d68c45" d="M 247.410156 81.949219 C 246.957031 81.949219 246.53125 81.789062 246.207031 81.488281 C 245.871094 81.179688 245.679688 80.761719 245.671875 80.3125 C 245.664062 79.867188 245.84375 79.445312 246.171875 79.125 C 246.496094 78.808594 246.925781 78.632812 247.390625 78.625 C 247.863281 78.613281 248.320312 78.792969 248.65625 79.121094 C 248.96875 79.425781 249.148438 79.832031 249.152344 80.261719 C 249.160156 80.691406 248.996094 81.101562 248.691406 81.417969 C 248.363281 81.753906 247.917969 81.945312 247.4375 81.949219 C 247.429688 81.949219 247.417969 81.949219 247.410156 81.949219 Z M 242.148438 76.113281 C 242.136719 76.113281 242.128906 76.113281 242.121094 76.113281 C 241.195312 76.128906 240.453125 76.875 240.464844 77.773438 C 240.476562 78.664062 241.230469 79.378906 242.144531 79.378906 C 242.152344 79.378906 242.160156 79.378906 242.171875 79.378906 C 242.617188 79.375 243.035156 79.199219 243.347656 78.886719 C 243.664062 78.574219 243.835938 78.160156 243.828125 77.722656 C 243.816406 76.832031 243.0625 76.113281 242.148438 76.113281 Z M 246.484375 77.214844 C 246.933594 77.207031 247.355469 77.039062 247.671875 76.742188 C 248 76.433594 248.175781 76.027344 248.167969 75.597656 C 248.164062 75.195312 247.992188 74.8125 247.695312 74.519531 C 247.367188 74.203125 246.910156 74.019531 246.433594 74.03125 C 245.960938 74.039062 245.507812 74.230469 245.191406 74.558594 C 244.898438 74.855469 244.742188 75.242188 244.75 75.648438 C 244.765625 76.515625 245.527344 77.214844 246.457031 77.214844 C 246.464844 77.214844 246.472656 77.214844 246.484375 77.214844 Z M 138.238281 66.253906 C 137.265625 66.253906 136.46875 67.042969 136.46875 68.011719 C 136.46875 68.984375 137.265625 69.773438 138.238281 69.773438 C 139.214844 69.773438 140.011719 68.984375 140.011719 68.011719 C 140.011719 67.042969 139.214844 66.253906 138.238281 66.253906 Z M 142.785156 62.984375 C 141.84375 62.984375 141.074219 63.757812 141.074219 64.710938 C 141.074219 65.664062 141.84375 66.4375 142.785156 66.4375 C 143.726562 66.4375 144.492188 65.664062 144.492188 64.710938 C 144.492188 63.757812 143.726562 62.984375 142.785156 62.984375 Z M 138.007812 65.191406 C 138.964844 65.191406 139.746094 64.4375 139.746094 63.507812 C 139.746094 62.582031 138.964844 61.828125 138.007812 61.828125 C 137.050781 61.828125 136.269531 62.582031 136.269531 63.507812 C 136.269531 64.4375 137.050781 65.191406 138.007812 65.191406 Z M 179.652344 126.527344 C 179.652344 125.601562 178.871094 124.84375 177.914062 124.84375 C 176.957031 124.84375 176.175781 125.601562 176.175781 126.527344 C 176.175781 127.457031 176.957031 128.210938 177.914062 128.210938 C 178.871094 128.210938 179.652344 127.457031 179.652344 126.527344 Z M 182.0625 126.175781 C 181.105469 126.175781 180.324219 126.933594 180.324219 127.859375 C 180.324219 128.789062 181.105469 129.542969 182.0625 129.542969 C 183.019531 129.542969 183.800781 128.789062 183.800781 127.859375 C 183.800781 126.933594 183.019531 126.175781 182.0625 126.175781 Z M 178.667969 129.621094 C 177.707031 129.621094 176.929688 130.375 176.929688 131.304688 C 176.929688 132.230469 177.707031 132.988281 178.667969 132.988281 C 179.625 132.988281 180.40625 132.230469 180.40625 131.304688 C 180.40625 130.375 179.625 129.621094 178.667969 129.621094 Z M 248.234375 147.691406 C 247.191406 147.691406 246.34375 148.566406 246.34375 149.640625 C 246.34375 150.714844 247.191406 151.589844 248.234375 151.589844 C 249.277344 151.589844 250.125 150.714844 250.125 149.640625 C 250.125 148.566406 249.277344 147.691406 248.234375 147.691406 Z M 252.855469 145.542969 C 251.8125 145.542969 250.964844 146.417969 250.964844 147.492188 C 250.964844 148.566406 251.8125 149.4375 252.855469 149.4375 C 253.898438 149.4375 254.746094 148.566406 254.746094 147.492188 C 254.746094 146.417969 253.898438 145.542969 252.855469 145.542969 Z M 248.976562 142.1875 C 247.933594 142.1875 247.085938 143.058594 247.085938 144.132812 C 247.085938 145.207031 247.933594 146.082031 248.976562 146.082031 C 250.019531 146.082031 250.867188 145.207031 250.867188 144.132812 C 250.867188 143.058594 250.019531 142.1875 248.976562 142.1875 Z M 105.796875 147.488281 C 105.28125 146.5 104.089844 146.097656 103.144531 146.59375 C 102.199219 147.089844 101.847656 148.300781 102.367188 149.289062 C 102.738281 149.992188 103.445312 150.398438 104.160156 150.398438 C 104.453125 150.398438 104.75 150.328125 105.023438 150.1875 C 105.96875 149.6875 106.316406 148.480469 105.796875 147.488281 Z M 101.269531 150.558594 C 100.324219 151.054688 99.980469 152.265625 100.496094 153.253906 C 100.867188 153.957031 101.574219 154.363281 102.289062 154.363281 C 102.582031 154.363281 102.878906 154.292969 103.152344 154.152344 C 103.613281 153.910156 103.949219 153.492188 104.09375 152.980469 C 104.234375 152.472656 104.175781 151.933594 103.925781 151.453125 C 103.410156 150.464844 102.21875 150.0625 101.269531 150.558594 Z M 106.074219 151.484375 C 105.128906 151.980469 104.78125 153.1875 105.300781 154.179688 C 105.550781 154.65625 105.964844 155.011719 106.460938 155.183594 C 106.671875 155.253906 106.882812 155.289062 107.09375 155.289062 C 107.394531 155.289062 107.6875 155.21875 107.957031 155.074219 C 108.417969 154.835938 108.753906 154.417969 108.898438 153.90625 C 109.042969 153.398438 108.980469 152.855469 108.734375 152.378906 C 108.214844 151.390625 107.019531 150.988281 106.074219 151.484375 Z M 106.074219 151.484375 " fill-opacity="1" fill-rule="nonzero"/><path fill="#d68c45" d="M 280.429688 194.296875 C 280.429688 198.265625 280.273438 202.234375 280.273438 206.199219 " fill-opacity="1" fill-rule="nonzero"/><g clip-path="url(#4cd8eac193)"><path fill="#d68c45" d="M 279.421875 194.296875 C 279.417969 198.265625 279.265625 202.230469 279.261719 206.199219 C 279.261719 207.5 281.28125 207.5 281.28125 206.199219 C 281.285156 202.230469 281.4375 198.265625 281.441406 194.296875 C 281.441406 192.996094 279.421875 192.996094 279.421875 194.296875 Z M 279.421875 194.296875 " fill-opacity="1" fill-rule="nonzero"/></g><g clip-path="url(#17a18737e7)"><path fill="#d68c45" d="M 280.121094 207.863281 C 278.335938 207.859375 276.550781 207.851562 274.765625 207.828125 C 273.472656 207.808594 272.183594 207.808594 270.890625 207.796875 C 270.71875 209.039062 270.542969 210.28125 270.378906 211.523438 C 269.484375 218.191406 269.027344 224.90625 268.269531 231.59375 C 267.507812 238.273438 266.769531 244.953125 265.707031 251.59375 C 265.167969 254.957031 264.5625 258.308594 264.117188 261.683594 C 263.722656 264.683594 263.433594 267.695312 262.992188 270.6875 C 262.542969 273.757812 261.898438 276.804688 261.25 279.84375 C 260.613281 282.835938 259.988281 285.839844 259.1875 288.796875 C 258.347656 291.890625 257.347656 294.945312 256.476562 298.03125 C 255.613281 301.074219 254.835938 304.140625 253.980469 307.183594 C 252.625 312.011719 251.078125 316.882812 248.492188 321.214844 C 245.902344 325.542969 242.140625 328.828125 237.574219 330.953125 C 232.003906 333.546875 225.925781 334.535156 219.875 335.289062 C 213.316406 336.109375 206.71875 336.398438 200.113281 336.480469 C 193.90625 336.554688 187.695312 336.679688 181.488281 336.734375 C 175.195312 336.789062 168.90625 336.945312 162.617188 337.039062 C 156.234375 337.132812 149.816406 337.054688 143.480469 336.234375 C 137.570312 335.46875 131.648438 333.832031 126.535156 330.6875 C 121.6875 327.707031 117.78125 323.371094 114.496094 318.773438 C 106.996094 308.273438 104.394531 295.46875 102.382812 282.957031 C 101.328125 276.394531 100.054688 269.859375 99.121094 263.277344 C 98.179688 256.683594 97.3125 250.078125 96.425781 243.476562 C 95.539062 236.894531 94.789062 230.3125 94.164062 223.699219 C 93.6875 218.652344 93.078125 213.621094 92.515625 208.582031 C 89.894531 208.863281 87.378906 208.550781 84.773438 207.882812 C 84.34375 207.773438 84.03125 207.347656 84.03125 206.910156 C 84.035156 202.613281 84.140625 198.316406 84.144531 194.019531 C 84.144531 193.582031 84.457031 193.15625 84.886719 193.046875 C 86.570312 192.613281 88.285156 192.25 90.023438 192.140625 C 92.65625 191.976562 95.222656 192.664062 97.828125 192.898438 C 101.324219 193.210938 104.871094 193.039062 108.378906 193.101562 C 114.507812 193.207031 120.617188 193.234375 126.738281 192.878906 C 132.976562 192.511719 139.238281 192.714844 145.484375 192.742188 C 151.964844 192.769531 158.445312 192.847656 164.925781 192.859375 C 171.617188 192.871094 178.304688 192.539062 184.996094 192.648438 C 187.730469 192.695312 190.453125 192.902344 193.183594 193.019531 C 196.8125 193.175781 200.460938 193.171875 204.09375 193.03125 C 210.265625 192.789062 216.398438 192.582031 222.578125 192.8125 C 228.742188 193.039062 234.90625 192.96875 241.074219 192.917969 C 247.355469 192.863281 253.636719 192.832031 259.921875 192.800781 C 266.527344 192.769531 273.128906 192.957031 279.734375 192.957031 C 281.023438 192.960938 281.03125 194.941406 279.765625 194.976562 L 280.089844 205.84375 C 280.097656 205.84375 280.109375 205.84375 280.117188 205.84375 C 281.421875 205.847656 281.417969 207.867188 280.121094 207.863281 Z M 280.121094 207.863281 " fill-opacity="1" fill-rule="nonzero"/></g><path fill="#fefee3" d="M 92.546875 210.25 C 91.246094 210.25 91.246094 208.230469 92.546875 208.230469 C 105.617188 208.234375 118.671875 208.464844 131.742188 208.121094 C 137.519531 207.96875 143.292969 207.863281 149.074219 207.941406 C 154.847656 208.019531 160.621094 208.207031 166.394531 208.230469 C 172.171875 208.257812 177.941406 208.011719 183.714844 207.78125 C 189.492188 207.546875 195.261719 207.492188 201.039062 207.472656 C 212.589844 207.433594 224.140625 207.398438 235.691406 207.382812 C 241.464844 207.375 247.242188 207.332031 253.015625 207.464844 C 258.894531 207.605469 264.769531 207.839844 270.652344 207.84375 C 271.953125 207.847656 271.949219 209.867188 270.652344 209.863281 C 264.0625 209.859375 257.476562 209.5625 250.890625 209.441406 C 244.414062 209.320312 237.929688 209.398438 231.453125 209.40625 C 219.898438 209.421875 208.347656 209.464844 196.792969 209.507812 C 185.238281 209.550781 173.710938 210.382812 162.148438 210.207031 C 156.378906 210.117188 150.609375 209.9375 144.839844 209.925781 C 139.058594 209.917969 133.28125 210.109375 127.503906 210.25 C 115.851562 210.539062 104.199219 210.253906 92.546875 210.25 Z M 94.050781 217.765625 C 105.53125 217.769531 117.007812 218.054688 128.484375 217.765625 C 134.167969 217.625 139.847656 217.433594 145.53125 217.441406 C 151.214844 217.453125 156.898438 217.632812 162.578125 217.722656 C 173.957031 217.898438 185.300781 217.066406 196.671875 217.023438 C 208.035156 216.976562 219.402344 216.9375 230.769531 216.921875 C 237.144531 216.914062 243.527344 216.832031 249.902344 216.957031 C 256.394531 217.082031 262.886719 217.375 269.382812 217.378906 C 270.679688 217.382812 270.683594 215.363281 269.382812 215.359375 C 263.582031 215.355469 257.789062 215.121094 251.992188 214.980469 C 246.308594 214.84375 240.625 214.890625 234.945312 214.898438 C 223.578125 214.910156 212.210938 214.949219 200.847656 214.988281 C 195.160156 215.007812 189.484375 215.0625 183.800781 215.292969 C 178.121094 215.527344 172.441406 215.773438 166.753906 215.746094 C 161.070312 215.722656 155.390625 215.535156 149.707031 215.457031 C 144.023438 215.378906 138.34375 215.484375 132.660156 215.636719 C 119.785156 215.980469 106.925781 215.75 94.050781 215.746094 C 92.75 215.742188 92.746094 217.761719 94.050781 217.765625 Z M 113.875 318.082031 C 122.769531 318.085938 131.667969 318.339844 140.5625 318.199219 C 149.535156 318.054688 158.484375 317.644531 167.457031 317.8125 C 171.960938 317.894531 176.464844 318.03125 180.972656 318.035156 C 185.453125 318.039062 189.925781 317.828125 194.40625 317.617188 C 203.296875 317.199219 212.195312 317.234375 221.097656 317.210938 C 231.121094 317.183594 241.140625 317.191406 251.164062 317.191406 C 252.464844 317.191406 252.464844 315.171875 251.164062 315.171875 C 242.269531 315.171875 233.375 315.160156 224.480469 315.183594 C 215.519531 315.207031 206.539062 315.078125 197.585938 315.453125 C 193.085938 315.644531 188.585938 315.917969 184.078125 315.992188 C 179.601562 316.070312 175.121094 315.957031 170.640625 315.859375 C 166.105469 315.761719 161.570312 315.679688 157.03125 315.757812 C 152.667969 315.828125 148.308594 316 143.945312 316.109375 C 133.921875 316.355469 123.898438 316.066406 113.875 316.0625 C 112.578125 316.0625 112.574219 318.082031 113.875 318.082031 Z M 119.886719 325.597656 C 128.035156 325.597656 136.183594 325.753906 144.332031 325.742188 C 152.46875 325.734375 160.59375 325.351562 168.726562 325.234375 C 177.46875 325.109375 186.207031 325.488281 194.949219 325.460938 C 202.964844 325.433594 210.964844 324.828125 218.980469 324.722656 C 228.203125 324.597656 237.433594 324.679688 246.65625 324.679688 C 247.953125 324.679688 247.957031 322.660156 246.65625 322.660156 C 238.507812 322.660156 230.359375 322.65625 222.210938 322.679688 C 214.070312 322.703125 205.953125 323.257812 197.816406 323.410156 C 189.074219 323.574219 180.335938 323.160156 171.59375 323.1875 C 163.582031 323.214844 155.574219 323.625 147.558594 323.707031 C 138.335938 323.796875 129.109375 323.578125 119.886719 323.578125 C 118.585938 323.578125 118.585938 325.597656 119.886719 325.597656 Z M 119.886719 325.597656 " fill-opacity="1" fill-rule="nonzero"/></svg>